<svg width="24" height="24" viewBox="0 0 24 24" fill="none" xmlns="http://www.w3.org/2000/svg"><g clip-path="url(#clip0_2062_2940)"><path d="M12 24C18.6274 24 24 18.6274 24 12C24 5.37258 18.6274 0 12 0C5.37258 0 0 5.37258 0 12C0 18.6274 5.37258 24 12 24Z" fill="currentColor"/><path d="M12.8225 23.6322C12.9677 23.429 13.258 23.0855 13.7419 22.7709C15.629 22.2871 17.3419 21.2419 18.7064 19.7516C20.608 17.6709 21.658 14.9274 21.658 12.0193C21.658 9.1161 20.608 6.36771 18.7064 4.29191C17.8114 3.29307 16.7249 2.48415 15.5114 1.91313C14.2978 1.3421 12.982 1.02061 11.6419 0.967713H11.6322C8.77229 1.05604 6.05938 2.25541 4.06931 4.31126C2.50697 5.91172 1.47045 7.95099 1.09834 10.1564C0.808015 10.9306 0.469305 11.6177 0.275757 11.8403C0.324144 8.84029 1.49995 6.00481 3.59511 3.85158C5.71026 1.66525 8.59629 0.392412 11.637 0.30481C14.5064 0.401584 17.187 1.65481 19.1951 3.84191C21.2234 6.08034 22.3372 8.99874 22.3161 12.0193C22.3161 15.0919 21.208 17.9951 19.1951 20.1967C17.5367 22.0503 15.2825 23.2656 12.8225 23.6322Z" fill="currentColor"/><path d="M24 12C24.0001 10.3936 23.6776 8.80345 23.0517 7.32394C22.4258 5.84443 21.5092 4.50565 20.3562 3.38699C19.2033 2.26832 17.8374 1.39255 16.3397 0.811582C14.842 0.230619 13.2428 -0.0437039 11.6371 0.00487869C17.7193 0.198427 22.5968 5.49198 22.5968 12C22.5968 18.5081 17.7193 23.8065 11.6371 23.9952L12 24C18.629 24 24 18.6291 24 12Z" fill="currentColor"/><path d="M15.75 20.8597C14.9072 21.1173 14.0045 21.1021 13.1709 20.8161C12.9048 21.6871 12.6968 22.6693 12.329 23.5016C12.2615 23.6908 12.1504 23.8615 12.0048 24C11.7919 24.1742 11.4968 24.1935 11.2209 24.2032C8.99514 24.2516 6.74998 23.608 4.88224 22.3839C4.25549 21.9574 3.65743 21.4903 3.09191 20.9855C2.54998 20.5209 2.0274 20.0371 1.60643 19.4613C0.798365 18.3387 0.464494 16.9597 0.149977 15.6193C-0.0145387 14.9322 -0.174216 14.1968 0.0773968 13.5387C0.208042 13.2 0.435461 12.9097 0.609655 12.5951C0.948364 11.9903 1.1032 11.2935 1.35965 10.6451C1.81449 9.48385 2.69998 8.45805 3.47417 7.48063C4.19514 5.69998 5.43869 4.07901 6.76449 2.6903C7.39353 2.0274 8.0903 1.39353 8.95159 1.09837C9.13546 1.0403 9.32901 0.991915 9.51288 1.03546C9.85159 1.11288 10.0597 1.46127 10.108 1.79998C10.1564 2.13869 10.0742 2.4774 10.0306 2.81611C9.93385 3.55643 9.99675 4.31611 10.2338 5.0274C10.2629 5.1145 10.2968 5.20643 10.3742 5.2645C10.4516 5.32256 10.5677 5.3274 10.6645 5.3274C11.0806 5.3274 11.5355 5.30804 11.9516 5.30804C13.1589 3.78546 14.7679 2.63072 16.5968 1.97417C16.6838 1.94514 16.7806 1.91611 16.8677 1.94998C16.9742 1.98869 17.0226 2.1145 17.0564 2.22579C17.308 3.10643 17.2306 4.0403 17.1338 4.94998C16.9657 6.55644 16.6925 8.15017 16.3161 9.72095C16.2532 9.99192 16.108 10.2677 16.1032 10.5435C16.0935 10.7855 16.2097 11.0322 16.2435 11.2742C16.3984 12.4839 16.0209 13.9306 15.5855 15.0677C15.8419 15.6435 16.8968 17.6661 16.9403 18.2371C16.9935 18.8903 16.9403 19.5193 16.7322 20.1387C16.6451 20.3806 16.2871 21.058 15.75 20.8645V20.8597Z" fill="currentColor"/><path d="M13.355 7.132C14.062 5.453 15.108 3.937 16.427 2.681 16.461 2.647 16.505 2.613 16.548 2.632 16.573 2.642 16.582 2.671 16.592 2.69 16.64 2.816 16.65 2.952 16.66 3.082 16.805 5.318 16.263 7.534 15.731 9.706 15.595 9.61 15.508 9.465 15.416 9.324 14.878 8.486 14.197 7.749 13.403 7.147M10.224 7.505C9.745 6.145 9.382 4.698 9.527 3.261 9.566 2.874 9.639 2.487 9.576 2.11 9.571 2.059 9.552 2.011 9.523 1.969 9.469 1.902 9.373 1.892 9.285 1.892 8.845 1.902 8.414 2.086 8.061 2.347 7.708 2.608 7.418 2.952 7.142 3.3 6.377 4.282 5.729 5.361 5.298 6.532 4.868 7.703 4.645 8.952 4.737 10.2 4.747 10.394 4.785 10.611 4.935 10.732 5.158 10.902 5.477 10.771 5.714 10.621 6.61 10.04 7.331 9.189 8.303 8.748 8.666 8.589 9.058 8.487 9.416 8.313 9.769 8.139 10.089 7.877 10.224 7.505ZM15.179 13.965C15.048 13.698 14.879 13.432 14.753 13.166 14.733 13.132 14.721 13.094 14.719 13.055 14.719 13.026 14.734 12.992 14.748 12.963 14.923 12.624 15.281 12.387 15.668 12.363 15.731 12.924 15.523 13.515 15.179 13.96V13.965ZM10.413 10.437C11.048 10.757 11.615 11.197 12.082 11.734 12.402 12.097 12.731 12.537 13.215 12.566 13.703 12.595 14.095 12.179 14.405 11.792L15.629 10.292 15.232 10.345 15.15 9.755C15.005 9.803 14.865 9.876 14.748 9.977L14.618 8.981 14.24 9.465C14.201 9.302 14.144 9.145 14.071 8.995L13.819 9.276C13.408 8.833 13.1 8.304 12.919 7.727L12.89 8.381C12.668 8.11 12.465 7.819 12.285 7.515L12.426 8.777 11.913 8.284 12.087 9.097C11.715 8.782 11.356 8.453 11.018 8.11 11.177 8.569 11.361 9.024 11.574 9.465L11.056 9.416C11.187 9.61 11.337 9.789 11.502 9.953 11.2 10.049 10.888 10.109 10.573 10.132L11.081 10.389C10.848 10.389 10.645 10.437 10.413 10.437ZM9.315 12.295C9.75 12.179 10.234 12.131 10.65 12.315 10.771 12.363 10.882 12.44 10.989 12.528 11.202 12.707 11.376 12.939 11.497 13.195 11.608 13.437 11.671 13.713 11.811 13.945 11.589 13.974 11.376 13.868 11.158 13.834 10.892 13.786 10.616 13.848 10.355 13.781 10.126 13.711 9.923 13.572 9.774 13.384 9.508 13.074 9.344 12.707 9.315 12.295Z" fill="currentColor"/><path d="M15.5855 15.0677L15.6242 14.971L15.5468 14.821C15.3242 14.3371 15.0968 13.8484 14.8888 13.3548C14.763 13.0693 14.6468 12.7742 14.6226 12.4645C14.5743 11.8403 14.913 11.25 15.3436 10.7903L15.0436 10.8968L15.213 10.3645C14.9662 10.5629 14.7291 10.7806 14.5113 11.0129C14.4775 10.8435 14.4775 10.6645 14.5113 10.5C14.3372 10.7419 14.1339 10.9693 13.9113 11.1774L13.8726 10.8581C13.7376 11.0653 13.6241 11.2858 13.5339 11.5161L12.692 10.8L12.7355 11.1871C12.4936 11.0322 12.2613 10.8629 12.0388 10.6839L12.1017 11.0322C11.8694 10.8532 11.6178 10.6935 11.3517 10.5726L11.6468 11.2355L11.2549 11.1484C11.6904 11.6274 12.1113 12.1258 12.4017 12.6968C12.6968 13.2726 12.8565 13.9306 12.7404 14.5693C12.7259 14.6661 12.7017 14.7629 12.6388 14.8306C12.5825 14.8866 12.5123 14.9267 12.4355 14.9468C12.0968 15.0532 11.7242 14.9855 11.371 14.8984C10.9646 14.7968 10.5581 14.6661 10.1613 14.5113C9.67264 14.3177 9.16941 14.0758 8.86941 13.6403L8.90328 13.9113C8.62934 13.6187 8.30889 13.3734 7.95489 13.1855L8.06618 13.6887C7.86687 13.4278 7.64505 13.185 7.40328 12.9629C7.35489 13.1081 7.25812 13.2484 7.14199 13.35C6.99683 13.2726 6.85167 13.2048 6.70651 13.1516C6.7307 13.258 6.75973 13.379 6.74038 13.4903C6.54565 13.5411 6.33907 13.5187 6.15973 13.4274L6.15489 13.7661C5.7678 13.7177 5.36135 13.7516 4.98877 13.8677L5.38554 13.9887C4.99142 14.1971 4.63752 14.474 4.34038 14.8064L4.72748 14.7193C4.49038 15.0193 4.29199 15.3484 4.12748 15.6871C4.21205 15.6425 4.30375 15.6131 4.39844 15.6L4.1178 16.3258C4.28231 16.229 4.43715 16.1274 4.58231 16.0113C4.35877 16.3766 4.23219 16.793 4.21457 17.221C4.28231 17.1581 4.36457 17.1048 4.45651 17.0758L4.40328 17.9032L4.63554 17.7435C4.54784 18.267 4.56098 18.8024 4.67425 19.321L4.85812 19.021L5.43393 20.279L5.60328 20.1339L5.93231 20.8258L5.97102 20.8161C5.96135 20.7581 6.01457 20.7 6.0678 20.7048C6.22264 21.1403 6.40651 21.5613 6.61941 21.9629L6.78393 21.7016C6.92909 22.079 7.07909 22.4468 7.24844 22.8145L7.36457 22.6645C7.50973 22.9935 7.54844 23.371 7.67425 23.7C8.81619 24.058 10.021 24.2322 11.2162 24.2032C11.492 24.1984 11.7872 24.1742 12.0001 24C12.1549 23.8693 12.242 23.6806 12.3243 23.5016C12.692 22.6693 12.9049 21.6871 13.1662 20.8161C13.9993 21.1037 14.9019 21.1206 15.7452 20.8645C16.2823 21.0581 16.6404 20.3806 16.7275 20.1387C16.9289 19.528 16.9998 18.8818 16.9355 18.2419C16.892 17.671 15.8372 15.6484 15.5807 15.0726L15.5855 15.0677Z" fill="#f8f7df"/><path d="M14.4968 17.9322L14.5452 17.6032C14.492 17.5965 14.4388 17.5901 14.3855 17.5838C14.3855 17.5403 14.4194 17.5064 14.4387 17.4677C14.4678 17.4097 14.4581 17.3371 14.4145 17.2887C14.3662 17.2403 14.2984 17.2209 14.2355 17.2403C14.2694 17.0951 14.1871 16.9403 14.1097 16.8048L13.5968 15.9484C13.7226 16.5774 13.8533 17.2064 13.8726 17.8403L14.0516 17.85L14.0129 18.2274H14.1C14.1097 18.3484 14.1484 18.4693 14.2016 18.5806C14.221 18.6193 14.25 18.6629 14.2984 18.658C14.3468 18.658 14.371 18.6097 14.3903 18.5709C14.4581 18.4258 14.5162 18.2806 14.5742 18.1355C14.6081 18.0532 14.6371 17.9516 14.5887 17.879" fill="currentColor"/><path d="M14.468 18.89C14.328 18.697 14.245 18.46 14.313 18.237 14.348 18.125 14.408 18.022 14.488 17.937 14.569 17.851 14.668 17.785 14.778 17.744 14.947 17.681 15.136 17.681 15.319 17.686 15.794 17.69 16.278 17.705 16.723 17.879 16.84 17.919 16.943 17.993 17.018 18.092 17.163 18.31 17.047 18.605 16.911 18.832 16.742 19.113 16.548 19.384 16.34 19.64 16.224 19.776 16.094 19.916 15.919 19.955 15.711 20.003 15.503 19.897 15.334 19.771 15.005 19.519 14.712 19.222 14.463 18.89H14.468ZM9.542 18.31C9.426 18.455 9.571 18.668 9.711 18.794 10.157 19.205 10.631 19.577 11.129 19.921 10.604 19.803 10.106 19.59 9.658 19.292 9.227 18.968 8.913 18.44 8.995 17.913 9.005 17.831 9.024 17.739 8.971 17.681 8.942 17.647 8.903 17.632 8.865 17.613 8.705 17.526 8.623 17.337 8.618 17.158 8.608 16.974 8.666 16.795 8.715 16.626 8.531 16.626 8.337 16.684 8.182 16.795 8.231 16.597 8.303 16.408 8.415 16.239 8.134 16.331 7.873 16.461 7.631 16.626L7.766 16.176C7.524 16.2 7.282 16.292 7.079 16.437 7.156 16.2 7.287 15.982 7.452 15.798 7.137 15.913 6.847 16.086 6.595 16.306L6.484 15.774 6.218 16.306C6.097 16.244 5.976 16.19 5.85 16.132L5.995 16.534C5.751 16.704 5.525 16.897 5.318 17.11 5.452 17.037 5.601 16.992 5.753 16.979 5.596 17.265 5.497 17.579 5.463 17.903L5.729 17.516C5.797 17.758 5.894 18 6.01 18.223 6.034 18.092 6.082 17.971 6.155 17.86 6.639 18.542 7.461 18.876 8.245 19.166L11.719 20.482C11.826 20.521 11.937 20.565 12 20.652 12.039 20.705 12.063 20.768 12.077 20.836 12.136 21.034 12.174 21.242 12.189 21.45L12.377 21.305C12.329 21.886 12.174 22.466 11.923 22.989L12.15 22.834C12.034 23.211 11.869 23.565 11.661 23.898 11.68 23.879 11.701 23.863 11.724 23.85L11.739 24.14C11.836 24.11 11.927 24.061 12.005 23.995 12.16 23.869 12.247 23.686 12.329 23.502 12.692 22.669 12.91 21.687 13.171 20.816 12.159 20.422 11.243 19.818 10.481 19.045 10.2 18.755 9.919 18.45 9.542 18.31Z" fill="currentColor"/><path d="M15.048 20.497C14.447 20.786 13.775 20.894 13.113 20.806L13.161 20.835 13.166 20.816C13.999 21.104 14.902 21.121 15.745 20.865L15.89 20.894C15.91 20.831 15.919 20.768 15.919 20.7 15.919 20.453 15.837 20.206 15.692 20.003 15.517 20.215 15.295 20.384 15.044 20.497H15.048ZM13.282 5.211C13.278 5.211 13.282 5.221 13.282 5.221 13.292 5.221 13.292 5.211 13.292 5.202L13.297 5.008C13.126 5.123 12.948 5.228 12.765 5.323 12.779 5.24 12.798 5.153 12.823 5.071 12.673 5.11 12.528 5.168 12.387 5.25 12.411 5.188 12.427 5.123 12.436 5.056 12.319 5.105 12.16 5.144 12.063 5.216 11.952 5.294 12.005 5.352 12.044 5.482 12.135 5.73 12.269 5.959 12.44 6.16 12.76 6.547 13.065 6.827 13.36 7.132 13.384 7.161 13.926 6.019 14.134 5.506 13.994 5.535 13.708 5.565 13.568 5.589 13.626 5.463 13.665 5.323 13.674 5.177 13.544 5.153 13.408 5.168 13.287 5.226M10.5 5.313C10.452 5.308 10.408 5.289 10.374 5.264 10.297 5.206 10.263 5.114 10.229 5.023 10.181 4.877 10.147 4.732 10.113 4.587L10.108 4.577C10.166 5.289 10.34 5.985 10.611 6.644 10.665 6.774 10.723 6.905 10.819 7.016 10.8 6.837 10.766 6.668 10.732 6.494L10.5 5.313ZM3.077 8.598C2.632 9.077 2.303 9.663 2.115 10.287L2.308 10.205C2.15 10.598 2.051 11.012 2.013 11.434 2.11 11.385 2.206 11.323 2.279 11.24 2.22 11.585 2.203 11.936 2.231 12.285 2.284 12.227 2.337 12.169 2.386 12.102 2.371 12.513 2.458 12.924 2.627 13.302 2.613 13.084 2.594 12.866 2.627 12.648 2.647 12.503 2.695 12.358 2.744 12.218 2.84 11.937 2.937 11.656 3.044 11.376L2.792 11.569C2.84 11.168 2.942 10.771 3.102 10.403L2.686 10.65 3.189 9.513C3.053 9.542 2.932 9.624 2.821 9.706L3.092 9.15C3.01 9.15 2.927 9.184 2.865 9.237 2.995 9.014 3.087 8.768 3.136 8.511M1.573 17.894C1.495 17.313 1.476 16.732 1.524 16.156L1.243 16.447 1.297 14.971 1.127 15.131C1.166 14.666 1.234 14.211 1.335 13.756 1.19 13.882 1.055 14.027.939 14.182 1.002 13.617 1.099 13.057 1.229 12.503 1.132 12.784 1.016 13.06.871 13.316.789 13.461.697 13.606.61 13.742.476 14.174.342 14.607.208 15.039.208 15.474.31 15.915.411 16.34.663 17.41.929 18.503 1.432 19.471 1.645 19.771 1.882 20.052 2.158 20.294 1.964 19.36 1.863 18.406 1.848 17.453L1.573 17.889V17.894ZM8.274 9.639C7.813 9.943 7.369 10.273 6.944 10.626L6.915 10.447C6.648 10.689 6.382 10.926 6.121 11.173 6.145 11.095 6.145 11.013 6.111 10.945 5.845 11.2 5.608 11.484 5.405 11.792L5.332 11.579 4.931 12.169 4.902 11.985C4.358 12.561 3.975 13.268 3.789 14.037 4.016 13.606 4.384 13.268 4.747 12.944L4.766 13.263C4.921 13.069 5.085 12.89 5.269 12.731 5.303 12.782 5.328 12.84 5.342 12.9 5.584 12.59 5.811 12.271 6.019 11.932 6.005 12.005 6.019 12.077 6.044 12.15 6.324 11.908 6.561 11.618 6.731 11.289L6.765 11.473 7.476 10.66 7.558 10.795C7.785 10.389 8.042 10.006 8.342 9.648" fill="currentColor"/><path d="M15.416 9.324C15.494 9.445 15.571 9.566 15.673 9.663 15.732 9.584 15.773 9.493 15.794 9.397 15.876 9.058 15.929 8.719 15.977 8.371 15.987 8.323 15.963 8.25 15.919 8.269 15.856 8.318 15.789 8.361 15.716 8.39 15.677 8.405 15.629 8.41 15.605 8.381 15.595 8.361 15.59 8.342 15.59 8.318V7.926C15.512 7.979 15.419 8.007 15.324 8.008L15.319 7.519C15.295 7.587 15.198 7.602 15.135 7.558 15.077 7.515 15.053 7.442 15.039 7.369 14.831 6.619 14.908 5.811 15.135 5.066 15.363 4.321 15.745 3.629 16.152 2.961L16.132 2.981 16.108 2.99C14.939 4.185 14.006 5.591 13.36 7.132 14.013 7.892 14.879 8.487 15.416 9.324ZM10.224 7.505 10.123 7.2C10.103 7.234 10.094 7.268 10.084 7.302 9.969 7.642 9.744 7.934 9.444 8.132 9.144 8.33 8.787 8.423 8.429 8.395 8.236 8.376 8.003 8.327 7.858 8.463L7.665 8.056 7.398 8.303 7.336 7.955H7.229L7.244 7.316 6.905 7.655C6.924 7.432 6.919 7.219 6.89 6.997L6.648 7.297C6.387 5.526 6.939 3.648 8.124 2.303L8.061 2.347C7.714 2.62 7.405 2.939 7.142 3.295 6.365 4.271 5.743 5.362 5.298 6.527 4.863 7.698 4.645 8.952 4.732 10.195 4.747 10.389 4.781 10.606 4.936 10.727 5.158 10.902 5.477 10.771 5.71 10.616 6.61 10.036 7.331 9.184 8.303 8.748 8.666 8.584 9.053 8.487 9.416 8.313 9.769 8.139 10.089 7.877 10.224 7.505ZM6.939 19.06C6.91 19.926 7.084 20.802 7.437 21.59L7.51 21.218 7.945 22.127C7.955 22.157 7.974 22.186 8.003 22.181 8.023 22.181 8.032 22.161 8.042 22.152L8.139 22.021C8.274 22.374 8.473 22.698 8.714 22.994L8.768 22.8C8.884 22.887 8.971 23.013 9.068 23.119 9.261 23.347 9.503 23.526 9.769 23.657 9.832 23.69 9.91 23.719 9.982 23.705 9.75 23.205 9.504 22.712 9.247 22.224L9.082 22.466 8.526 21.411C8.477 21.498 8.444 21.59 8.414 21.687 8.337 21.271 8.211 20.86 8.047 20.468 7.945 20.582 7.874 20.72 7.839 20.869L7.485 19.786 7.369 20.037C7.233 19.711 7.109 19.38 6.997 19.045M11.26 12.6C11.236 12.552 11.294 12.498 11.347 12.498 11.405 12.498 11.453 12.532 11.497 12.566 11.681 12.711 11.84 12.89 11.971 13.079 11.923 12.639 11.773 12.203 11.54 11.811 11.502 11.869 11.482 11.936 11.482 12.005 11.268 11.702 10.986 11.452 10.66 11.274L10.747 11.448C10.418 11.303 10.055 11.216 9.687 11.211 9.852 11.357 10.036 11.482 10.229 11.584 10.055 11.598 9.881 11.657 9.74 11.753 10.331 11.85 10.955 12.165 11.26 12.6ZM14.724 12.508C14.7 12.426 14.792 12.242 14.831 12.169 14.99 11.874 15.242 11.623 15.547 11.458 15.518 11.569 15.474 11.681 15.407 11.782 15.552 11.669 15.716 11.581 15.89 11.521 15.919 11.506 15.968 11.511 15.968 11.54L15.958 11.565 15.687 11.927C15.736 11.927 15.784 11.927 15.837 11.937 15.866 11.937 15.895 11.947 15.9 11.971L15.895 12C15.832 12.116 15.668 12.135 15.532 12.169 15.3 12.232 14.942 12.411 14.719 12.508H14.724ZM12.058 7.587C12.194 8.192 12.281 8.797 12.377 9.406 12.327 9.412 12.276 9.402 12.232 9.377 12.281 9.552 12.339 9.726 12.397 9.905 12.239 9.862 12.077 9.836 11.913 9.827L12.131 10.127C11.961 10.103 11.787 10.098 11.613 10.123 11.695 10.176 11.773 10.239 11.845 10.306L11.569 10.374 12.406 10.665 12.358 10.5C12.479 10.548 12.6 10.592 12.721 10.626 12.702 10.577 12.692 10.529 12.702 10.481 12.944 10.611 13.176 10.771 13.384 10.95 13.423 10.737 13.442 10.515 13.432 10.302 13.55 10.382 13.657 10.476 13.752 10.582 13.829 10.456 13.916 10.34 14.018 10.234 14.037 10.316 14.047 10.398 14.047 10.481 14.187 10.312 14.317 10.134 14.434 9.948 14.383 9.983 14.325 10.008 14.265 10.021 14.231 9.919 14.216 9.813 14.206 9.706 14.105 9.755 14.003 9.813 13.906 9.881L13.761 9.348C13.679 9.455 13.611 9.572 13.558 9.697L13.205 9.029 13.04 9.508C12.677 8.886 12.35 8.245 12.058 7.587ZM14.952 18.798C14.903 18.75 14.758 18.663 14.695 18.629 14.686 18.629 14.676 18.619 14.661 18.624 14.647 18.624 14.637 18.648 14.632 18.668 14.618 18.765 14.666 18.861 14.729 18.948 14.826 19.094 14.961 19.219 15.116 19.311 15.242 19.379 15.387 19.432 15.523 19.394 15.624 19.369 15.716 19.297 15.774 19.21 15.832 19.123 15.886 19.026 15.924 18.929 15.958 19.011 15.992 19.098 16.05 19.171 16.108 19.239 16.195 19.292 16.282 19.287 16.35 19.287 16.408 19.258 16.461 19.224 16.568 19.152 16.655 19.05 16.713 18.934 16.626 18.944 16.529 18.958 16.452 18.915 16.374 18.871 16.34 18.75 16.408 18.697 16.505 18.624 16.65 18.745 16.752 18.692 16.829 18.653 16.834 18.537 16.781 18.469 16.732 18.402 16.645 18.373 16.563 18.348 16.49 18.329 16.413 18.315 16.336 18.319 16.219 18.319 16.108 18.363 15.997 18.382 15.702 18.44 15.397 18.373 15.097 18.353 15.039 18.353 14.976 18.353 14.927 18.373 14.879 18.392 14.831 18.455 14.84 18.508 14.85 18.556 14.889 18.59 14.937 18.605 14.976 18.624 15.024 18.624 15.073 18.629 15.227 18.639 15.387 18.687 15.474 18.813 15.494 18.842 15.508 18.871 15.508 18.905 15.508 18.963 15.45 19.006 15.397 19.026 15.252 19.074 15 18.944 14.952 18.798ZM10.128 12.421C10.05 12.426 9.977 12.494 9.963 12.571 9.959 12.598 9.962 12.625 9.97 12.651 9.978 12.677 9.992 12.701 10.011 12.721 10.029 12.741 10.052 12.756 10.077 12.766 10.102 12.776 10.129 12.781 10.157 12.779 10.188 12.781 10.22 12.775 10.249 12.761 10.277 12.748 10.303 12.728 10.322 12.702 10.341 12.677 10.353 12.647 10.358 12.616 10.363 12.585 10.36 12.553 10.35 12.523 10.336 12.483 10.31 12.448 10.275 12.425 10.24 12.401 10.199 12.39 10.157 12.392M10.519 12.581C10.505 12.639 10.495 12.711 10.539 12.75 10.577 12.784 10.64 12.769 10.669 12.731 10.698 12.687 10.689 12.629 10.66 12.585 10.636 12.566 10.597 12.552 10.568 12.571M9.813 12.373C9.716 12.503 9.668 12.663 9.668 12.827 9.673 12.934 9.702 13.045 9.779 13.118 9.803 13.142 9.847 13.166 9.876 13.147 9.895 13.132 9.905 13.108 9.915 13.089 9.929 13.026 9.934 12.958 9.915 12.895 9.91 12.847 9.885 12.789 9.876 12.736 9.866 12.629 9.91 12.527 9.919 12.426 9.919 12.392 9.905 12.348 9.871 12.348M11.163 13.113C11.173 13.253 11.129 13.394 11.042 13.5 11.013 13.544 10.979 13.577 10.955 13.621L10.945 13.645C10.945 13.65 10.945 13.66 10.955 13.665 10.979 13.689 11.013 13.694 11.047 13.689 11.076 13.684 11.105 13.665 11.134 13.65 11.211 13.602 11.289 13.553 11.327 13.476 11.376 13.394 11.376 13.292 11.357 13.205 11.347 13.166 11.337 13.123 11.308 13.098 11.274 13.074 11.226 13.069 11.202 13.098M15.034 12.818C14.966 12.837 14.937 12.934 14.986 12.992 15.029 13.045 15.121 13.05 15.174 13.002 15.198 12.98 15.213 12.951 15.218 12.92 15.224 12.888 15.218 12.856 15.203 12.828 15.189 12.798 15.155 12.774 15.126 12.765 15.109 12.76 15.09 12.76 15.073 12.765 15.056 12.771 15.041 12.78 15.029 12.794M15.281 13.002C15.31 13.176 15.208 13.35 15.218 13.534 15.218 13.553 15.237 13.582 15.256 13.573L15.266 13.563C15.435 13.408 15.503 13.142 15.416 12.924 15.406 12.895 15.382 12.861 15.353 12.871 15.343 12.875 15.335 12.881 15.329 12.89 15.305 12.919 15.295 12.958 15.305 12.992" fill="currentColor"/><path d="M6.726 3.063 6.194 3.721C6.174 3.59 6.213 3.445 6.3 3.344 5.502 3.973 4.843 4.76 4.363 5.656 3.883 6.552 3.594 7.537 3.513 8.55L3.745 8.361 3.697 9.281C3.785 9.171 3.854 9.046 3.9 8.913 3.861 9.344 3.9 9.784 4.006 10.195 4.113 9.271 4.306 8.356 4.587 7.466 4.476 7.49 4.374 7.553 4.297 7.64 4.791 6.498 5.437 5.427 6.218 4.456L5.869 4.616C6.169 4.185 6.431 3.726 6.644 3.242M17.057 2.226C17.023 2.115 16.974 1.994 16.863 1.95 16.781 1.916 16.684 1.945 16.597 1.979 16.36 2.061 16.132 2.153 15.905 2.255 15.46 2.656 15.257 3.261 14.84 3.721L14.889 3.75 15.281 3.494 15.213 3.74C15.518 3.392 15.857 2.918 16.229 2.632 16.384 2.511 16.611 2.39 16.771 2.511 16.853 2.579 16.882 2.686 16.907 2.792 17.1 3.75 16.921 4.892 16.737 5.855L16.331 7.984C16.282 8.206 16.244 8.434 16.244 8.661L16.427 8.24 16.35 9.198C16.345 9.295 16.345 9.397 16.374 9.489 16.418 9.304 16.46 9.118 16.5 8.932V8.918C16.544 8.739 16.577 8.555 16.616 8.376L16.621 8.347 16.718 7.815 16.727 7.776 16.819 7.248 16.824 7.2C16.853 7.026 16.88 6.852 16.907 6.677L16.916 6.629 16.989 6.106 16.994 6.058 17.061 5.526 17.066 5.497C17.09 5.313 17.115 5.134 17.129 4.95 17.177 4.505 17.226 4.011 17.226 3.523 17.226 3.087 17.177 2.652 17.057 2.226ZM10.616 5.298C10.665 5.739 10.79 6.174 10.979 6.581 10.974 6.387 10.994 6.194 11.027 6.01L11.269 7.268 11.337 6.048C11.347 5.884 11.371 5.7 11.506 5.613 11.579 5.613 11.618 5.695 11.642 5.758L11.835 6.29C11.874 6.227 11.894 6.155 11.898 6.082 12.092 6.29 12.256 6.532 12.363 6.794 12.329 6.295 12.218 5.797 12.034 5.327 12.019 5.289 12 5.25 11.966 5.221 11.898 5.173 11.806 5.211 11.724 5.24 11.567 5.294 11.399 5.308 11.235 5.279 11.056 5.245 10.848 5.168 10.703 5.279M1.742 13.19C1.645 13.756 1.616 14.337 1.655 14.908L1.848 14.705C1.848 15.131 1.882 15.556 1.955 15.977L2.061 15.794C2.095 16.292 2.202 16.785 2.366 17.26 2.335 16.504 2.395 15.746 2.545 15.005L2.318 15.324C2.294 14.908 2.298 14.487 2.332 14.066L2.09 14.318C2.069 13.95 2.077 13.581 2.115 13.215L1.897 13.727C1.965 13.268 1.989 12.798 1.96 12.329 1.868 12.527 1.8 12.735 1.752 12.948M8.115 1.921C8.354 1.733 8.62 1.581 8.903 1.471 8.99 1.437 9.087 1.403 9.179 1.413 9.387 1.427 9.547 1.621 9.595 1.824 9.644 2.023 9.61 2.236 9.586 2.444 9.523 2.961 9.532 3.484 9.605 3.997 9.668 3.895 9.707 3.779 9.731 3.658 9.75 4.132 9.857 4.602 10.05 5.032 10.069 4.897 10.094 4.766 10.123 4.631 9.977 4.04 9.948 3.421 10.026 2.821 10.074 2.482 10.157 2.139 10.108 1.8 10.06 1.461 9.852 1.113 9.513 1.036 9.329.992 9.136 1.036 8.957 1.098 8.518 1.256 8.109 1.487 7.747 1.781 7.65 1.906 7.553 2.032 7.466 2.168 7.703 1.974 7.96 1.81 8.24 1.674 8.192 1.756 8.153 1.839 8.115 1.916V1.921ZM11.758 24 11.637 23.995H11.758V24Z" fill="currentColor"/><path d="M14.419 22.694H17.226V23.274H14.419V22.694ZM16.016 21.774H18.823V22.355H16.016V21.774ZM17.758 20.855H20.565V21.436H17.758V20.855ZM18.532 19.936H21.339V20.516H18.532V19.936ZM19.21 19.016H22.016V19.597H19.21V19.016ZM20.177 18.097H22.984V18.677H20.177V18.097ZM20.758 17.177H23.565V17.758H20.758V17.177ZM21.048 16.258H23.855V16.839H21.048V16.258ZM21.532 15.339H24.339V15.919H21.532V15.339ZM21.532 14.419H24.339V15H21.532V14.419ZM21.532 13.5H24.339V14.081H21.532V13.5ZM21.532 12.581H24.339V13.161H21.532V12.581ZM21.532 11.661H24.339V12.242H21.532V11.661ZM21.532 10.742H24.339V11.323H21.532V10.742ZM21.532 9.823H24.339V10.403H21.532V9.823ZM21.532 8.903H24.339V9.484H21.532V8.903ZM21.532 7.984H24.339V8.565H21.532V7.984ZM21.048 7.065H23.855V7.645H21.048V7.065ZM20.758 6.145H23.565V6.726H20.758V6.145ZM20.177 5.226H22.984V5.806H20.177V5.226ZM19.21 4.306H22.016V4.887H19.21V4.306ZM18.532 3.387H21.339V3.968H18.532V3.387ZM17.758 2.468H20.565V3.048H17.758V2.468ZM16.016 1.548H18.823V2.129H16.016V1.548ZM14.419.629H17.226V1.21H14.419V.629ZM18.968 15.547C18.813 15.465 18.653 15.402 18.498 15.373 18.341 15.341 18.178 15.346 18.022 15.386 17.866 15.426 17.721 15.501 17.598 15.605 17.451 15.732 17.329 15.886 17.24 16.06L16.853 16.795C16.841 16.817 16.837 16.843 16.844 16.867 16.85 16.892 16.866 16.913 16.887 16.926L18.987 18.044C19.002 18.053 19.016 18.058 19.036 18.058L19.06 18.053C19.072 18.049 19.084 18.043 19.094 18.035 19.104 18.027 19.112 18.016 19.118 18.005L19.553 17.197C19.728 16.858 19.771 16.544 19.669 16.263 19.573 15.982 19.336 15.74 18.973 15.547H18.968ZM17.642 16.602 17.787 16.335C17.836 16.239 17.894 16.166 17.957 16.113 18.015 16.064 18.082 16.035 18.15 16.016 18.229 16.003 18.31 16.006 18.387 16.026 18.599 16.078 18.794 16.185 18.953 16.335 19.008 16.386 19.049 16.449 19.074 16.519 19.094 16.582 19.098 16.645 19.079 16.713 19.058 16.801 19.026 16.885 18.982 16.965L18.837 17.24 17.642 16.602ZM20.298 14.792 18.005 14.168C17.993 14.164 17.98 14.163 17.967 14.164 17.954 14.166 17.941 14.17 17.93 14.176 17.919 14.182 17.909 14.191 17.901 14.201 17.893 14.211 17.887 14.223 17.884 14.235L17.768 14.671C17.762 14.695 17.766 14.721 17.778 14.743 17.791 14.764 17.811 14.78 17.836 14.787L20.129 15.411C20.154 15.418 20.18 15.414 20.202 15.402 20.213 15.396 20.223 15.387 20.232 15.377 20.24 15.368 20.246 15.356 20.25 15.344L20.366 14.908C20.372 14.884 20.368 14.858 20.356 14.836 20.343 14.815 20.323 14.799 20.298 14.792ZM20.71 11.952C20.694 11.933 20.671 11.921 20.647 11.918L18.276 11.69C18.263 11.689 18.25 11.69 18.238 11.694 18.226 11.698 18.214 11.704 18.205 11.712 18.195 11.72 18.186 11.73 18.18 11.741 18.174 11.752 18.171 11.765 18.169 11.777L18.136 12.184C18.134 12.197 18.135 12.209 18.139 12.222 18.143 12.234 18.149 12.245 18.157 12.255 18.165 12.265 18.175 12.273 18.186 12.279 18.198 12.285 18.21 12.289 18.223 12.29L19.563 12.416 18.097 13.113C18.068 13.127 18.048 13.161 18.048 13.19L18.005 13.602C18.004 13.626 18.012 13.651 18.028 13.67 18.044 13.689 18.067 13.701 18.092 13.703L20.463 13.931H20.468C20.492 13.931 20.515 13.922 20.533 13.906 20.551 13.89 20.562 13.867 20.565 13.844L20.603 13.437C20.605 13.424 20.603 13.412 20.6 13.399 20.596 13.387 20.59 13.376 20.582 13.366 20.574 13.356 20.564 13.348 20.553 13.342 20.541 13.336 20.529 13.332 20.516 13.331L19.176 13.205 20.642 12.513C20.676 12.498 20.695 12.469 20.7 12.435L20.739 12.029C20.739 12 20.734 11.981 20.715 11.956L20.71 11.952ZM18.823 9.174C18.808 9.195 18.803 9.222 18.808 9.247L19.045 10.215C19.05 10.239 19.065 10.263 19.089 10.273 19.108 10.287 19.137 10.292 19.161 10.282L19.544 10.19C19.556 10.187 19.568 10.182 19.578 10.175 19.588 10.167 19.597 10.158 19.604 10.147 19.611 10.137 19.615 10.124 19.617 10.112 19.619 10.099 19.619 10.087 19.616 10.074L19.5 9.61 19.597 9.614C19.688 9.64 19.77 9.69 19.836 9.758 19.901 9.826 19.947 9.91 19.969 10.002 19.989 10.103 19.994 10.195 19.969 10.268 19.945 10.35 19.911 10.418 19.853 10.481 19.796 10.546 19.727 10.6 19.65 10.64 19.482 10.729 19.294 10.774 19.103 10.771 19.011 10.771 18.929 10.752 18.847 10.723 18.774 10.694 18.707 10.65 18.653 10.592 18.595 10.529 18.557 10.452 18.532 10.35 18.513 10.273 18.508 10.2 18.518 10.137 18.533 10.03 18.586 9.932 18.668 9.861 18.711 9.827 18.75 9.798 18.789 9.779 18.801 9.773 18.811 9.764 18.82 9.753 18.828 9.742 18.834 9.729 18.837 9.716 18.84 9.703 18.839 9.689 18.836 9.675 18.833 9.662 18.826 9.649 18.818 9.639L18.557 9.271C18.549 9.26 18.54 9.251 18.529 9.244 18.518 9.238 18.506 9.233 18.494 9.231 18.481 9.228 18.468 9.229 18.456 9.231 18.443 9.234 18.432 9.239 18.421 9.247 18.219 9.381 18.062 9.573 17.971 9.798 17.889 10.024 17.879 10.269 17.942 10.5 17.979 10.668 18.052 10.827 18.158 10.963 18.263 11.1 18.398 11.211 18.552 11.289 18.75 11.386 18.97 11.433 19.19 11.424 19.48 11.416 19.763 11.334 20.013 11.187 20.242 11.062 20.421 10.862 20.52 10.621 20.619 10.379 20.631 10.111 20.555 9.861 20.528 9.739 20.477 9.624 20.405 9.523 20.366 9.474 20.328 9.426 20.284 9.387 20.308 9.38 20.329 9.364 20.341 9.343 20.354 9.321 20.358 9.295 20.352 9.271L20.26 8.893C20.257 8.881 20.252 8.869 20.244 8.859 20.237 8.849 20.228 8.84 20.217 8.833 20.206 8.826 20.194 8.822 20.181 8.82 20.169 8.818 20.156 8.818 20.144 8.821L18.886 9.131C18.857 9.131 18.837 9.15 18.823 9.174ZM17.623 8.487C17.748 8.603 17.889 8.69 18.044 8.743 18.198 8.792 18.363 8.816 18.532 8.806H18.571C18.82 8.787 19.061 8.708 19.274 8.575 19.486 8.443 19.663 8.262 19.79 8.047 19.869 7.894 19.914 7.727 19.921 7.555 19.927 7.384 19.896 7.213 19.829 7.055 19.768 6.894 19.673 6.749 19.55 6.63 19.427 6.51 19.28 6.419 19.118 6.363 18.963 6.305 18.798 6.285 18.629 6.29 18.28 6.306 17.946 6.439 17.681 6.668 17.55 6.779 17.448 6.91 17.371 7.055 17.292 7.207 17.248 7.375 17.241 7.546 17.235 7.718 17.266 7.889 17.332 8.047 17.4 8.226 17.502 8.376 17.623 8.487ZM17.855 7.568C17.865 7.487 17.893 7.409 17.937 7.34 17.986 7.273 18.048 7.21 18.121 7.152 18.288 7.034 18.483 6.962 18.687 6.943 18.76 6.939 18.832 6.943 18.9 6.958 18.982 6.977 19.05 7.006 19.118 7.06 19.176 7.108 19.229 7.185 19.263 7.277 19.302 7.374 19.311 7.456 19.307 7.539 19.292 7.621 19.268 7.693 19.219 7.761 19.171 7.833 19.111 7.895 19.04 7.945 18.886 8.057 18.707 8.129 18.518 8.153 18.426 8.168 18.339 8.163 18.257 8.143 18.179 8.124 18.111 8.095 18.044 8.042 17.981 7.993 17.932 7.916 17.894 7.824 17.855 7.727 17.845 7.64 17.855 7.563V7.568Z" fill="currentColor"/><path d="M19.4323 17.4193L19.0646 17.7726L19.0307 17.7919C19.0113 17.7968 18.9872 17.7919 18.9678 17.7823L17.1533 16.9113C17.1146 16.8919 17.0759 16.8726 17.0323 16.8726C16.9742 16.8677 16.921 16.8919 16.8678 16.9113L16.8872 16.9258L18.9872 18.0435C19.0017 18.0532 19.0162 18.0581 19.0355 18.0581L19.0597 18.0532C19.0722 18.0495 19.0837 18.0432 19.0937 18.0349C19.1037 18.0266 19.1119 18.0164 19.1178 18.0048L19.4323 17.4145V17.4193Z" fill="currentColor"/><path d="M19.1855 16.4274C19.1371 16.3065 19.0404 16.2145 18.9387 16.142C18.6823 15.9629 18.3387 15.8613 18.0484 15.9871C17.8065 16.0887 17.6516 16.3258 17.5742 16.5823L17.6468 16.5871L17.7823 16.3355C17.8307 16.2387 17.8936 16.1662 17.9565 16.1129C18.0145 16.0645 18.0823 16.0355 18.15 16.0162C18.2289 16.003 18.3096 16.0063 18.3871 16.0258C18.5994 16.0785 18.7944 16.1852 18.9533 16.3355C19.0076 16.3863 19.049 16.4494 19.0742 16.5194C19.0936 16.5823 19.0984 16.6452 19.0791 16.7129C19.0581 16.8007 19.0256 16.8853 18.9823 16.9645L18.8613 17.192C18.8855 17.2403 18.8904 17.2887 18.9339 17.3226C19.0258 17.1726 19.1033 17.0129 19.1565 16.8436C19.2049 16.7081 19.2291 16.5629 19.1855 16.4274ZM20.25 15.3436L20.3662 14.9129C20.2839 15.0097 20.2162 15.121 20.1629 15.2371C20.1533 15.2565 20.1387 15.2807 20.1194 15.2855C20.1 15.3 20.071 15.2952 20.0468 15.2855C19.3936 15.1113 18.7404 14.9274 18.0823 14.7436C18.0242 14.7242 17.9613 14.7097 17.8984 14.7097C17.8549 14.7097 17.8162 14.7242 17.7823 14.7484C17.792 14.7678 17.8113 14.7823 17.8355 14.7871L20.1291 15.4162C20.1542 15.4211 20.1803 15.4159 20.2016 15.4016C20.2132 15.3957 20.2234 15.3875 20.2317 15.3775C20.2401 15.3675 20.2463 15.356 20.25 15.3436ZM20.371 13.7952C20.3516 13.8097 20.3226 13.8049 20.3033 13.8049C19.6162 13.7565 18.9242 13.6694 18.242 13.5629C18.2226 13.5532 18.1984 13.5532 18.1791 13.5581C18.1549 13.5629 18.1404 13.5823 18.1258 13.5968L18.0436 13.6839C18.0533 13.6936 18.0726 13.6984 18.092 13.6984L20.4533 13.9258H20.4629C20.487 13.9259 20.5103 13.9171 20.5282 13.901C20.546 13.8849 20.5573 13.8627 20.5597 13.8387L20.5984 13.4323V13.4226L20.4049 13.7565L20.371 13.7952ZM20.5549 12.4258C20.5404 12.4452 20.5113 12.45 20.492 12.4597C19.9597 12.6339 19.4516 12.8758 18.9823 13.1758L19.1855 13.1903L20.6371 12.5129C20.671 12.4936 20.6904 12.4645 20.6952 12.4307L20.7339 12.0242C20.7339 12 20.7291 11.9758 20.7145 11.9565C20.6565 12.0726 20.6129 12.1984 20.5936 12.3242C20.5887 12.3629 20.5839 12.4016 20.5549 12.421V12.4258ZM18.1742 12.2758C18.1887 12.2807 18.2033 12.2903 18.2226 12.2903L19.5629 12.421L19.5291 12.4355C19.6645 12.4016 19.7952 12.3532 19.9162 12.2903C19.3645 12.2903 18.8129 12.2468 18.271 12.1597L18.1742 12.271V12.2758ZM20.5791 10.4129V10.4032C20.4823 10.5774 20.3613 10.7371 20.221 10.8726C20.0274 11.0662 19.7758 11.2113 19.5097 11.2742C19.2339 11.3323 18.9387 11.2984 18.6726 11.1968C18.4479 11.1052 18.2414 10.9741 18.0629 10.8097C18.1748 11.013 18.345 11.1782 18.5516 11.2839C18.7491 11.3849 18.9687 11.4348 19.1904 11.4291C19.4802 11.4207 19.7631 11.3391 20.0129 11.192C20.1581 11.1 20.2839 10.9936 20.3807 10.8629C20.4774 10.7323 20.5452 10.5823 20.5742 10.4129H20.5791ZM18.5178 10.1371C18.5326 10.03 18.5859 9.93198 18.6678 9.86131L18.7887 9.77422C18.8081 9.76454 18.8178 9.75002 18.8274 9.73067C18.7855 9.73143 18.7436 9.73143 18.7016 9.73067C18.6871 9.73551 18.6774 9.75002 18.6678 9.7597C18.5827 9.83728 18.5194 9.93567 18.4839 10.0452C18.4645 10.1226 18.4742 10.2145 18.5178 10.2871C18.51 10.2374 18.51 10.1868 18.5178 10.1371ZM19.4323 10.0984C19.3597 10.1226 19.2823 10.1323 19.2049 10.1371C19.1807 10.1371 19.1565 10.1371 19.142 10.1516C19.1274 10.1613 19.1226 10.1758 19.1178 10.1855L19.0887 10.2726C19.1081 10.2871 19.1371 10.2871 19.1613 10.2823L19.5436 10.1903C19.5678 10.1855 19.592 10.171 19.6016 10.1468C19.6113 10.1226 19.621 10.0984 19.6162 10.0742L19.5049 9.62422L19.4081 9.5226C19.4395 9.70513 19.4605 9.8893 19.471 10.0742C19.4662 10.0887 19.4468 10.0936 19.4323 10.0984ZM20.3516 9.27099L20.2597 8.89357C20.2557 8.87793 20.2479 8.86354 20.2369 8.8517C20.2259 8.83987 20.2121 8.83098 20.1968 8.82583L20.1774 9.08712C20.1774 9.11131 20.1726 9.13551 20.1581 9.15002C20.1436 9.1597 19.9694 9.25647 19.8968 9.27583C19.9452 9.3097 20.1339 9.35809 20.2839 9.38712C20.342 9.36776 20.3565 9.29035 20.3516 9.27099ZM19.921 7.57744C19.9258 7.49518 19.921 7.40809 19.9065 7.32583C19.8199 7.72484 19.6059 8.08488 19.2968 8.35164C19.0697 8.51231 18.8006 8.60313 18.5226 8.61293C18.1791 8.63228 17.8258 8.55002 17.521 8.38067L17.6226 8.48712C17.7484 8.60325 17.8887 8.69035 18.0436 8.73873C18.1984 8.79196 18.3629 8.81615 18.5323 8.80647H18.571C18.8203 8.78699 19.0612 8.70779 19.2735 8.57556C19.4857 8.44334 19.663 8.26198 19.7904 8.0468C19.8629 7.90164 19.9113 7.74196 19.921 7.57744ZM18.9484 6.89035C18.7452 6.79357 18.4984 6.81293 18.2952 6.90002C18.121 6.9726 17.971 7.09357 17.8839 7.26293C17.8113 7.41293 17.8016 7.60164 17.8694 7.75164C17.8516 7.6904 17.8467 7.62616 17.8549 7.56293C17.8652 7.48349 17.8933 7.4074 17.9371 7.34035C17.9855 7.2726 18.0484 7.2097 18.121 7.15164C18.2881 7.03363 18.4834 6.96185 18.6871 6.94357C18.7597 6.93873 18.8323 6.94357 18.9 6.95809C18.9823 6.97744 19.05 7.00647 19.1178 7.0597C19.1758 7.10809 19.2291 7.18551 19.2629 7.27744C19.2823 7.32583 19.2968 7.36454 19.3016 7.40809L19.3162 7.41293C19.3162 7.19035 19.1565 6.97744 18.9484 6.89035Z" fill="currentColor"/><path d="M19.558 16.05C19.4076 15.8363 19.2064 15.6634 18.9725 15.5467C18.8129 15.4645 18.6532 15.4016 18.4983 15.3725C18.3405 15.341 18.1776 15.3456 18.0218 15.3858C17.866 15.426 17.7212 15.5009 17.5983 15.6048C17.4509 15.732 17.3293 15.8864 17.2403 16.0596L16.9645 16.5774L17.1483 16.2919C17.1967 16.2145 17.2451 16.1322 17.308 16.0596C17.5377 15.7703 17.8718 15.5829 18.2383 15.5376C18.6049 15.4923 18.9746 15.5929 19.2677 15.8177C19.3693 15.8903 19.4661 15.9629 19.558 16.05ZM17.9274 16.9354L18.8467 17.4387C18.8758 17.4532 18.9096 17.4725 18.9435 17.4532C18.9822 17.429 18.9629 17.3612 18.9435 17.3177C18.9167 17.2774 18.8876 17.2386 18.8564 17.2016L18.8371 17.2403L17.6419 16.6016C17.579 16.6161 17.5209 16.6451 17.4677 16.6838L17.9274 16.9354ZM20.2354 14.8935C20.2762 14.8751 20.3166 14.8558 20.3564 14.8354C20.3434 14.8139 20.3226 14.7983 20.2983 14.7919L18 14.1677C17.9876 14.164 17.9746 14.1629 17.9617 14.1643C17.9489 14.1657 17.9365 14.1697 17.9252 14.176C17.9139 14.1824 17.904 14.1909 17.8961 14.2011C17.8881 14.2113 17.8823 14.223 17.879 14.2354L17.7967 14.55C17.8548 14.4774 17.8935 14.3903 17.9806 14.3564C18.0387 14.3371 18.1113 14.3564 18.1742 14.3709C18.5274 14.4677 18.8806 14.5693 19.229 14.6806C19.4903 14.7629 19.7564 14.8451 20.0274 14.908C20.0661 14.9129 20.1048 14.9225 20.1435 14.9177C20.1725 14.9177 20.2016 14.9032 20.2306 14.8935H20.2354ZM19.1516 13.1516H19.1032C18.9774 13.1612 18.8564 13.2048 18.75 13.2725C18.7596 13.3016 18.7983 13.3064 18.8225 13.3064C19.2919 13.3306 19.7613 13.3693 20.2306 13.4177C20.3032 13.4274 20.3758 13.4322 20.4483 13.4177C20.4967 13.4177 20.5451 13.3935 20.579 13.3693C20.5715 13.3576 20.5616 13.3477 20.5499 13.3402C20.5382 13.3326 20.525 13.3277 20.5113 13.3258L19.1661 13.2L19.2387 13.1661L19.1516 13.1516ZM20.008 12.2661C19.8324 12.3397 19.6531 12.4043 19.4709 12.4596L18.0967 13.1129C18.0629 13.1274 18.0435 13.1612 18.0387 13.1903L18.0193 13.4225C18.0483 13.3451 18.0967 13.2774 18.1645 13.2193C18.2613 13.1322 18.3919 13.0935 18.5129 13.0451L18.7451 12.9435L20.0225 12.3532L20.0709 12.3193C20.0806 12.3048 20.0806 12.2806 20.0709 12.2709C20.0516 12.2564 20.0225 12.2612 20.008 12.2709V12.2661ZM20.6467 11.9177L18.2758 11.6903C18.263 11.6889 18.2502 11.6901 18.2379 11.6938C18.2257 11.6975 18.2143 11.7035 18.2044 11.7116C18.1945 11.7197 18.1863 11.7297 18.1803 11.741C18.1742 11.7523 18.1705 11.7646 18.1693 11.7774L18.1451 12.0629C18.1766 11.9798 18.2138 11.8989 18.2564 11.8209C18.5951 11.8258 18.9387 11.8693 19.2822 11.9032L19.5629 11.9371C19.9013 11.9767 20.24 12.0138 20.579 12.0483C20.6127 12.0062 20.6465 11.9643 20.6806 11.9225L20.6467 11.9177ZM19.9693 10.2677C19.9451 10.35 19.9113 10.4177 19.8532 10.4806C19.7951 10.5438 19.7263 10.5962 19.65 10.6354C19.482 10.7257 19.2939 10.7723 19.1032 10.7709C19.0113 10.7709 18.9242 10.7516 18.8467 10.7225C18.779 10.6983 18.7209 10.6548 18.6677 10.6064C18.7403 10.7419 18.8806 10.8435 19.0306 10.8822C19.2338 10.9306 19.4516 10.8822 19.6306 10.7758C19.7686 10.6996 19.88 10.5831 19.95 10.4419C20.0064 10.3205 20.0151 10.1823 19.9742 10.0548C19.9887 10.1371 19.9887 10.2048 19.9693 10.2677ZM18.4209 9.24673C18.219 9.3813 18.0622 9.5735 17.9709 9.79834C17.9419 9.87092 17.9225 9.9435 17.9129 10.0306C17.998 9.76819 18.1683 9.5417 18.3967 9.38705C18.4064 9.37737 18.4209 9.3677 18.4403 9.37254C18.45 9.37254 18.4548 9.38705 18.4645 9.39673C18.5419 9.48383 18.629 9.56608 18.7209 9.63866C18.7403 9.65318 18.7645 9.6677 18.7887 9.6677C18.8032 9.6677 18.8177 9.66286 18.8274 9.64834C18.8246 9.64322 18.8214 9.63836 18.8177 9.63383L18.5516 9.27092C18.537 9.25098 18.5153 9.23736 18.4911 9.23286C18.4668 9.22836 18.4417 9.23333 18.4209 9.24673ZM20.1 8.9177L20.1629 8.82092H20.1435L18.8854 9.1306C18.873 9.13345 18.8613 9.13872 18.851 9.1461C18.8406 9.15348 18.8318 9.16283 18.8251 9.17362C18.8183 9.1844 18.8138 9.19641 18.8117 9.20896C18.8096 9.2215 18.81 9.23434 18.8129 9.24673L19.0258 10.1467C19.0354 9.85641 19.0113 9.56608 18.9677 9.28544L20.008 8.9806L20.0613 8.95641L20.1 8.9177Z" fill="currentColor"/><path d="M20.4968 9.69189C20.4429 9.57933 20.371 9.47635 20.2839 9.38705C20.2936 9.38705 20.1048 9.29028 19.9984 9.26609C19.8629 9.23705 19.7226 9.22738 19.5871 9.26609C19.65 9.31447 19.7323 9.32899 19.8048 9.35318C20.0613 9.42093 20.2887 9.57093 20.5113 9.72576L20.4968 9.69189ZM19.3065 7.53867C19.2968 7.62093 19.2677 7.69351 19.2194 7.76125C19.1711 7.83269 19.1105 7.89495 19.0403 7.94512C18.8864 8.05733 18.7067 8.12889 18.5177 8.15318C18.4307 8.1677 18.3436 8.16286 18.2613 8.14351C18.179 8.12415 18.1113 8.09512 18.0436 8.03705C18.0099 8.00929 17.9805 7.97668 17.9565 7.94028C18.0048 8.05641 18.0919 8.15318 18.2032 8.20157C18.3346 8.24418 18.4736 8.2576 18.6107 8.24088C18.7478 8.22417 18.8795 8.17772 18.9968 8.1048C19.1758 7.98867 19.3065 7.79028 19.3258 7.58222C19.3324 7.52462 19.324 7.46631 19.3016 7.41286C19.3113 7.45641 19.3113 7.49512 19.3016 7.53867H19.3065ZM19.7661 6.91447C19.6302 6.65208 19.3977 6.45261 19.1177 6.35802C18.9629 6.30964 18.7984 6.28544 18.629 6.29028C18.2796 6.3064 17.9456 6.4393 17.6807 6.6677C17.55 6.77899 17.4484 6.90964 17.371 7.0548C17.2468 7.29444 17.2092 7.56964 17.2645 7.83383C17.2486 7.65867 17.2768 7.48231 17.3468 7.32093C17.55 6.84673 18.0194 6.49834 18.5323 6.44512C18.7601 6.42406 18.9897 6.45541 19.2036 6.53676C19.4175 6.61811 19.6099 6.74731 19.7661 6.91447Z" fill="currentColor"/></g><defs><clipPath id="clip0_2062_2940"><path fill="#fff" d="M0 0H24V24H0z"/></clipPath></defs></svg>