<svg width="24" height="24" viewBox="0 0 24 24" fill="none" xmlns="http://www.w3.org/2000/svg"><g clip-path="url(#clip0_2062_2367)" fill="currentColor"><path d="M13.0412 4.54012C13.0412 3.93816 12.8099 3.36084 12.3983 2.93513C11.9866 2.5095 11.4282 2.27025 10.8461 2.27006C11.4283 2.26988 11.9867 2.03063 12.3983 1.605C12.8099 1.17938 13.0412 0.601875 13.0412 0C13.0412 0.601969 13.2724 1.17938 13.6842 1.60509C13.887 1.81537 14.1286 1.98243 14.3951 2.09659C14.6616 2.21074 14.9477 2.26971 15.2367 2.27006C14.9477 2.27042 14.6616 2.32939 14.3951 2.44354C14.1286 2.55769 13.887 2.72476 13.6842 2.93503C13.2724 3.36066 13.0412 3.93816 13.0412 4.54003M15.7682 8.67019C15.5727 8.09641 15.2086 7.59814 14.7256 7.24331C14.2453 6.89088 13.6692 6.70059 13.0777 6.69909C12.4863 6.69834 11.9094 6.88651 11.428 7.23722C10.9437 7.59032 10.5779 8.08728 10.3805 8.66034L8.01156 15.5191H11.4474L13.0508 10.1583L15.1422 17.4447L16.122 20.4326C16.4328 21.4663 17.0553 22.3702 17.8984 23.0119C18.7417 23.6537 19.7613 23.9997 20.8085 23.9994H21L15.7682 8.67019ZM5.08398 24H5.24846C6.27707 23.9993 7.27903 23.6661 8.11056 23.048C8.94489 22.429 9.57048 21.5552 9.89926 20.5494L9.93765 20.4323L9.96584 20.3422H6.34656L5.08398 24Z"/><path d="M10.2946 19.6337C11.857 19.3416 13.0421 17.9284 13.0421 16.2286H6.29363C5.42017 16.2287 4.58244 16.5876 3.96484 17.2261C3.34723 17.8647 3 18.7306 3 19.6337H10.2946Z"/></g><defs><clipPath id="clip0_2062_2367"><path fill="#fff" transform="translate(3)" d="M0 0H18V24H0z"/></clipPath></defs></svg>