<svg width="24" height="24" viewBox="0 0 24 24" fill="none" xmlns="http://www.w3.org/2000/svg"><path fill-rule="evenodd" clip-rule="evenodd" d="M8.1914 13.8016C8.1914 14.7596 7.60129 16.2111 5.73338 16.2081H3.375V7.78125H5.78319C7.58452 7.78125 8.19038 9.2307 8.19089 10.1892L8.1914 13.8016ZM5.86706 9.35802C6.06427 9.35802 6.26199 9.43191 6.45921 9.57956C6.6559 9.72722 6.75502 9.94931 6.75552 10.2447V13.7919C6.75552 14.0878 6.65692 14.3093 6.45971 14.4571C6.2625 14.6048 6.06478 14.6786 5.86757 14.6786H4.98064V9.35802H5.86706Z" fill="currentColor"/><path d="M13.309 9.286H10.601V11.243H12.256V12.749H10.601V14.705H13.309V16.211H10.149C9.582 16.226 9.11 15.777 9.096 15.208V8.837C9.082 8.269 9.531 7.797 10.098 7.783H13.309L13.309 9.286ZM18.577 15.158C17.906 16.724 16.703 16.412 16.165 15.158L14.207 7.783H15.862L17.372 13.575 18.875 7.783H20.531L18.577 15.158Z" fill="currentColor"/></svg>