<svg width="24" height="24" viewBox="0 0 24 24" fill="none" xmlns="http://www.w3.org/2000/svg"><g clip-path="url(#clip0_2062_2371)"><path d="M23.3573 14.0498H23.3172C23.1565 14.0299 23.036 13.8707 23.0561 13.7115C23.25 12.195 23.1158 10.655 22.6624 9.19397C22.209 7.7329 21.4468 6.38425 20.4265 5.23774C19.4062 4.09122 18.1513 3.17313 16.7451 2.54453C15.3389 1.91594 13.8138 1.59125 12.2711 1.59207C10.805 1.59207 11.9699 1.47267 11.9699 1.31346C11.9699 1.15426 12.1105 1.01495 12.2711 1.01495C13.7776 1.00968 15.2703 1.30014 16.6629 1.86957C18.0555 2.439 19.3205 3.27612 20.3849 4.33261C21.4492 5.38909 22.2918 6.64401 22.864 8.02492C23.4363 9.40583 23.7268 10.8854 23.7188 12.3781C23.7188 13.9105 23.6987 13.3135 23.6385 13.7911C23.6184 13.9304 23.4979 14.0498 23.3573 14.0498ZM1.82761 9.31346C1.9682 9.35326 2.04853 9.31346 2.10878 9.19406C2.14895 9.07466 2.10878 8.99505 1.9682 8.93535L0.441838 8.39804L0.743093 7.60202L2.30962 8.15923C2.57071 8.25874 2.75146 8.41794 2.8318 8.63684C2.89205 8.85575 2.87196 9.13436 2.75146 9.45277C2.51046 10.1095 2.12887 10.3284 1.58661 10.1493L0.0200806 9.57217L0.321336 8.75625L1.82761 9.31346ZM4.31799 6.46769L3.83598 7.24381L3.13305 7.06471L3.11297 7.10451L3.55481 7.66172L3.09288 8.39804L2.26945 7.32341L1.00418 7.06471L1.50627 6.26869L2.18912 6.46769L2.2092 6.44779L1.72719 5.91048L2.14895 5.21396L2.99247 6.18908L4.31799 6.44779V6.46769ZM4.53891 4.47764C4.67949 4.63685 4.8 4.71645 4.90042 4.75625C5.00083 4.79605 5.08117 4.77615 5.1615 4.69655L5.48284 4.25874L6.0251 4.61694C5.9046 4.87565 5.74393 5.07466 5.56318 5.23386C5.30209 5.49257 5.041 5.61197 4.75983 5.57217C4.49874 5.53237 4.21757 5.37316 3.91632 5.07466C3.66035 4.84518 3.49043 4.53652 3.43431 4.19903C3.39414 3.92043 3.53472 3.64182 3.8159 3.36321C3.97657 3.20401 4.1774 3.08461 4.41841 2.9851L4.82008 3.58212C4.57908 3.70152 4.41841 3.80102 4.33807 3.88063C4.27782 3.94033 4.25774 4.01993 4.27782 4.11943C4.31799 4.21893 4.39832 4.33834 4.53891 4.47764ZM5.32217 3.68162C5.06108 3.30351 4.96067 2.9851 5.00083 2.7264C5.041 2.46769 5.22175 2.22888 5.56318 1.99008C5.9046 1.77117 6.20585 1.69157 6.46694 1.75127C6.70795 1.83088 6.96903 2.04978 7.21004 2.40799C7.45104 2.7861 7.57155 3.10451 7.53138 3.38311C7.51129 3.66172 7.33054 3.90053 6.98912 4.11943C6.6477 4.33834 6.34644 4.41794 6.08535 4.33834C5.82427 4.25874 5.56318 4.03983 5.32217 3.68162ZM6.18577 2.52739C6.12552 2.48759 6.04519 2.50749 5.94477 2.56719C5.84435 2.62689 5.80418 2.7065 5.82427 2.7662C5.82427 2.8458 5.88452 2.9652 6.0251 3.16421L6.10544 3.30351C6.24602 3.48262 6.32636 3.60202 6.40669 3.64182C6.46694 3.66172 6.54728 3.66172 6.6477 3.58212C6.74811 3.52242 6.78828 3.46272 6.78828 3.38311C6.7682 3.32341 6.70795 3.18411 6.58744 3.005L6.46694 2.8657C6.34644 2.6667 6.26611 2.56719 6.18577 2.52739ZM9.21841 1.13436C9.27866 1.27366 9.29874 1.41296 9.29874 1.51247C9.27866 1.63187 9.23849 1.73137 9.15816 1.83088L9.90125 2.6667L9.07782 3.005L8.53556 2.30849L8.47531 2.32839L8.79665 3.12441L8.03347 3.42291L7.08954 1.13436L8.07364 0.736348C8.35481 0.616945 8.59581 0.597044 8.77657 0.656746C8.9774 0.716447 9.11799 0.875651 9.21841 1.13436ZM8.45523 1.75127C8.47531 1.71147 8.45523 1.63187 8.43514 1.55227L8.31464 1.39306H8.17406L8.09372 1.43287L8.27447 1.89058L8.35481 1.85078C8.41506 1.83088 8.45523 1.79107 8.45523 1.75127Z" fill="currentColor"/><path d="M10.8652 1.69155L10.7046 1.73135L10.8452 2.48757L10.0217 2.64677L9.53972 0.238813L10.4837 0.0398077C10.8251 -0.0198938 11.0661 6.67991e-06 11.2468 0.0995092C11.4075 0.199012 11.528 0.398017 11.5883 0.696524C11.6485 0.995032 11.6284 1.23384 11.5079 1.37314C11.3874 1.53235 11.1665 1.63185 10.8652 1.69155ZM10.805 1.11443L10.7849 0.91543C10.7648 0.815927 10.7447 0.736325 10.7046 0.696524C10.6644 0.676624 10.6242 0.656723 10.564 0.676624H10.4636L10.5841 1.23384L10.6845 1.21394C10.7447 1.19404 10.7849 1.17414 10.805 1.11443ZM12.2711 23.7413C10.7629 23.7492 9.26808 23.4607 7.87314 22.8925C6.4782 22.3242 5.21083 21.4875 4.14435 20.4307C3.07787 19.374 2.23347 18.1182 1.65999 16.736C1.0865 15.3537 0.795334 13.8726 0.803322 12.3781C0.803322 10.8458 0.843489 11.3433 0.90374 10.8458C0.92769 10.7822 0.972768 10.7287 1.03155 10.6939C1.09033 10.6591 1.15931 10.6452 1.22712 10.6545C1.29493 10.6638 1.35754 10.6957 1.40463 10.7449C1.45171 10.7941 1.48047 10.8578 1.48617 10.9254C1.27357 12.451 1.39376 14.004 1.83863 15.4796C2.2835 16.9553 3.04269 18.3191 4.06495 19.4792C5.08721 20.6393 6.34874 21.5685 7.7644 22.2042C9.18005 22.8399 10.7169 23.1673 12.2711 23.1642C13.7372 23.1642 13.1146 23.1443 13.5364 23.0846C13.6033 23.0936 13.6653 23.1246 13.7122 23.1727C13.7592 23.2208 13.7886 23.2831 13.7955 23.3497C13.8025 23.4162 13.7866 23.4832 13.7506 23.5398C13.7145 23.5964 13.6603 23.6393 13.5966 23.6617C13.1749 23.7015 12.7129 23.7413 12.2711 23.7413ZM15.9665 21.9503C16.0067 22.1095 16.0067 22.2289 15.9665 22.3483C15.9464 22.4478 15.8862 22.5473 15.7857 22.6269L16.3682 23.5821L15.5046 23.7612L15.0828 22.9851L15.0226 23.005L15.2033 23.8209L14.4 24L13.8778 21.5721L14.9222 21.3532C15.2234 21.2935 15.4644 21.3134 15.6251 21.4129C15.8058 21.5124 15.9063 21.6916 15.9665 21.9503ZM15.123 22.4279L15.1029 22.2289C15.1029 22.1493 15.0627 22.0896 15.0427 22.0498C15.0025 22.0299 14.9623 22.01 14.9021 22.0299L14.8016 22.0498L14.9021 22.5274L15.0025 22.5075C15.0627 22.4876 15.1029 22.4677 15.123 22.4279ZM18.8786 22.4478L18.1155 22.806L17.8745 22.5075L17.4728 22.7065L17.5732 23.0846L16.8502 23.4229L16.2075 20.9751L17.3121 20.4577L18.8786 22.4478ZM17.5933 22.0697L17.0912 21.393H17.0711L17.292 22.209L17.5933 22.0697ZM20.9673 20.7562L20.3447 21.2935L19.3205 20.8756L19.3004 20.8955L19.9431 21.6318L19.3606 22.1095L17.7339 20.2388L18.3966 19.7015L19.4008 20.1592L19.4209 20.1393L18.7581 19.3632L19.3606 18.8856L20.9673 20.7562ZM21.61 18.9652L21.6904 18.7861L21.4895 18.6468L21.3891 18.806L20.9272 18.4876L21.4694 17.7314L22.6544 18.5473L22.2929 19.0249L22.1523 19.005V19.0249C22.1523 19.204 22.1121 19.3632 22.0117 19.5224C21.6502 20.0199 21.128 20.0398 20.4251 19.5622C20.1344 19.3852 19.909 19.12 19.7824 18.806C19.682 18.5473 19.7623 18.2488 19.9832 17.9105C20.164 17.6716 20.3648 17.4726 20.5857 17.2935L21.128 17.8309C20.887 18.0299 20.7263 18.1692 20.646 18.2886C20.5857 18.3881 20.5657 18.4876 20.6058 18.5672C20.6661 18.6468 20.7665 18.7463 20.9272 18.8657C21.1079 18.9851 21.2485 19.0448 21.3489 19.0647C21.4493 19.1045 21.5297 19.0647 21.61 18.9453V18.9652ZM23.5581 16.4378L22.9757 17.8906L20.646 16.9751L21.2686 15.4627L21.851 15.7612L21.5899 16.4378L21.8711 16.5373L22.1121 15.9602L22.6343 16.1791L22.3933 16.7562L22.7146 16.8756L23.0159 16.1592L23.5581 16.4378ZM23.9799 14.408L23.6987 15.8806L21.2485 15.403L21.4092 14.5672L23.2368 14.9254L23.3573 14.2488L23.9799 14.408Z" fill="currentColor"/><path d="M20.0234 13.214C20.0033 13.2339 19.682 13.3931 19.3004 13.3931C18.9389 13.3931 19.1397 13.3931 19.0594 13.3732L19.0996 13.1742L19.3004 12.4577H18.5372C18.5171 12.4577 18.256 12.4577 17.9548 12.5174L17.8745 12.5373C17.8544 12.4378 17.7941 12.3383 17.6535 12.2587C17.4932 12.1311 17.3572 11.9761 17.2519 11.801L17.3523 11.7413C17.4527 11.6816 17.4929 11.5821 17.4929 11.4627C17.4929 11.3632 17.4728 11.2836 17.292 11.0846L17.2318 11.005L17.3121 10.8458V10.8259C17.3523 10.7463 17.3523 10.5871 17.3523 10.4279C17.4527 10.3881 17.533 10.3085 17.5732 10.2289C17.5933 10.1294 17.5933 10.0299 17.5531 9.95028C17.7138 9.93038 17.7941 9.89058 17.8544 9.81098C17.9146 9.73138 17.9347 9.63187 17.9146 9.53237V9.51247C18.015 9.47267 18.0954 9.43287 18.1556 9.37317C18.3766 9.17416 18.3364 8.99506 18.3163 8.91546C18.2761 8.83585 18.2159 8.79605 18.1757 8.75625C18.2962 8.63685 18.4167 8.47765 18.477 8.33834C18.5372 8.21894 18.6577 7.98013 18.4569 7.76123L18.3565 7.70153L18.4167 7.58212C18.6778 7.10451 18.4971 6.88561 18.3766 6.806C18.3565 6.806 18.3163 6.7662 18.236 6.7662C18.2761 6.6468 18.2761 6.5274 18.2761 6.42789C18.2634 6.36186 18.2321 6.3007 18.186 6.25144C18.1398 6.20217 18.0806 6.16677 18.015 6.14929C18.1355 5.83088 18.256 5.65177 18.5171 5.27367C18.7983 4.85575 18.9389 4.57715 18.9791 4.35824C18.9991 4.23884 19.0192 4.05973 18.8987 3.92043C18.7782 3.78113 18.6176 3.78113 18.5171 3.78113L18.1958 3.82093H18.1757L17.4125 4.05973C16.9908 4.19904 16.6494 4.29854 16.1473 4.41794L15.2033 4.67665C14.9824 4.73635 14.7816 4.83585 14.6008 4.93536C14.5607 4.85575 14.5004 4.79605 14.4 4.75625C14.2393 4.69655 14.0786 4.77615 13.9581 4.85575L13.6569 5.09456V5.11446L13.5163 5.27367C13.456 5.19406 13.3556 5.15426 13.2753 5.15426C12.9941 5.15426 12.9138 5.41297 12.8535 5.55227C12.7531 5.83088 12.733 5.99008 12.733 6.30849H11.5883C11.5883 5.97018 11.5481 5.75128 11.4075 5.49257C11.3272 5.33337 11.2268 5.15426 11.0259 5.11446C10.9255 5.11446 10.8452 5.13436 10.7648 5.17416L10.7046 5.09456C10.6845 5.09456 10.3431 4.71645 10.0619 4.71645C9.78074 4.71645 9.80082 4.79605 9.74057 4.91546L9.7004 4.89556C9.33889 4.73635 9.17823 4.69655 8.21421 4.49755C7.6295 4.38998 7.05747 4.22327 6.5071 4.00003L6.18576 3.96023C6.005 3.96023 5.86442 3.98013 5.764 4.07964C5.56316 4.27864 5.70375 4.59705 5.764 4.71645C5.78408 4.77615 5.86442 4.91546 6.28618 5.39307C6.52718 5.67168 6.6276 5.81098 6.80835 6.14929C6.70793 6.16919 6.6276 6.22889 6.58743 6.30849C6.5071 6.44779 6.52718 6.6269 6.58743 6.7662C6.48701 6.7861 6.40668 6.8458 6.36651 6.92541C6.26609 7.06471 6.28618 7.24381 6.40668 7.48262L6.6276 7.80103L6.52718 7.90053V8.01993C5.94475 8.09954 5.60333 8.23884 5.42258 8.47765C5.30207 8.63685 5.30207 8.73635 5.30207 9.01496C5.28199 9.35327 5.30207 9.43287 5.56316 9.67168L5.6435 9.75128V9.79108L5.72383 10.2289L5.60333 10.2687L5.12132 10.4478C4.73973 10.6269 4.47864 10.9453 4.43848 11.3234C4.43848 11.5224 4.43848 11.7612 4.61923 11.9602C4.59915 12.3781 4.82007 12.9752 5.10124 13.3135C5.36233 13.6319 5.66358 13.8309 6.005 13.8906C5.82425 14.0697 5.72383 14.2289 5.72383 14.5274C5.72383 14.8259 5.764 14.8657 5.84433 15.005C5.80417 15.1841 5.84433 15.3632 5.92467 15.5224C6.12551 15.8607 6.58743 16.1194 7.21002 16.2388L7.57153 16.2587L7.53136 16.2985C7.39078 16.4378 7.27028 16.5572 7.29036 16.7165C7.29036 16.816 7.35061 16.9155 7.43094 16.9752L7.51128 17.015C7.00002 17.9936 6.68621 19.0616 6.58743 20.1592C6.5071 20.9155 6.54726 21.7115 6.66777 22.5274L6.8686 23.8806L7.71212 22.7861C7.96623 22.4985 8.25645 22.2444 8.57571 22.0299L8.61588 22.3284C8.7163 22.8458 8.81672 22.9254 8.89705 22.9851C8.9573 23.0249 9.15814 23.1244 9.37906 22.9254L9.64015 22.6269C9.86107 22.3483 10.0017 22.209 10.323 21.9901C10.3431 22.0697 10.3832 22.1294 10.4636 22.1891C10.5238 22.2289 10.6243 22.3085 11.1063 22.1692C11.4828 22.0459 11.8461 21.8859 12.1908 21.6916C12.251 21.811 12.3715 21.9304 12.6527 21.8906L12.9941 21.811C13.5818 21.6529 14.1202 21.352 14.5607 20.9354V20.9553L14.7012 20.9951C14.8017 21.0548 14.9222 21.0349 15.0627 20.9951C15.5247 20.8359 15.8862 20.5373 16.2276 20.0199L16.3883 19.7612C16.4284 19.8408 16.5088 19.9204 16.6494 19.9403C16.9908 20 17.1715 19.6418 17.2719 19.4428C17.3724 19.2637 17.4326 19.0846 17.4929 18.8657C17.533 18.9254 17.5933 18.9652 17.6535 18.9851C17.754 19.0249 17.8343 19.005 17.9347 18.9652C18.0954 18.9055 18.1757 18.7264 18.2159 18.607V18.5871C18.3101 18.1151 18.3237 17.6307 18.256 17.1543C18.3766 17.1543 18.477 17.0548 18.5372 16.9354C18.5573 16.8558 18.5774 16.7563 18.5171 16.4776C18.4375 16.1328 18.3161 15.7987 18.1556 15.4826C18.3163 15.5224 18.5171 15.5622 18.7381 15.5622C18.959 15.5622 19.2201 15.5224 19.4611 15.4627C19.8535 15.3685 20.2046 15.1508 20.4617 14.8423C20.7187 14.5337 20.868 14.1509 20.887 13.7513L20.9071 12.7165L20.0234 13.214Z" fill="#fff"/><path d="M18.6376 13.8109C17.8343 13.4726 17.8343 14.6667 17.8343 14.6667C17.8343 14.6667 18.3163 15.1244 19.2803 14.8657C20.2644 14.607 20.2845 13.6915 20.2845 13.6915C20.2845 13.6915 19.441 14.1492 18.6376 13.8109Z" fill="#ee2525"/><path d="M17.9548 13.6716C18.2159 14.1691 18.5172 12.995 18.5172 12.995C18.5172 12.995 17.5933 13.0149 17.3724 13.3134C17.1716 13.6318 17.6736 13.194 17.9347 13.6716H17.9548Z" fill="#ee2525"/><path d="M17.3724 13.5721C17.1314 13.5721 16.9305 13.7711 16.9305 14.0298C16.9305 14.2686 17.031 14.3482 17.1916 14.4278C16.8301 14.9253 16.0669 16.2786 15.123 16.9751C14.2795 17.592 12.5925 18.7462 9.68033 18.4278C8.19413 18.2686 8.03347 17.194 8.03347 17.194C8.03347 17.194 6.72803 19.0248 7.21003 22.388C7.21003 22.388 7.95313 21.4328 9.25857 20.9751C10.5841 20.5373 11.9498 20.4378 13.9983 19.2437C16.0469 18.0497 16.6494 16.7363 16.6494 16.7363C16.6494 16.7363 17.1515 15.781 17.3724 14.4676C17.4397 14.4817 17.5093 14.4808 17.5762 14.4649C17.6431 14.4489 17.7055 14.4184 17.759 14.3755C17.8124 14.3326 17.8555 14.2784 17.8851 14.2168C17.9147 14.1553 17.9301 14.088 17.9301 14.0198C17.9301 13.9517 17.9147 13.8844 17.8851 13.8229C17.8555 13.7613 17.8124 13.7071 17.759 13.6642C17.7055 13.6213 17.6431 13.5908 17.5762 13.5748C17.5093 13.5589 17.4397 13.5579 17.3724 13.5721Z" fill="#ee2525"/><path d="M10.8251 8.61692C10.1624 8.69653 9.88118 8.93533 9.80085 9.41294C9.7406 9.83085 9.8611 10.2289 10.1222 10.5075C10.2701 10.6529 10.452 10.7599 10.6517 10.8189C10.8515 10.8779 11.0628 10.8872 11.267 10.8458C11.769 10.7463 12.0703 10.4478 12.2109 9.95026C12.2711 9.71145 12.2711 9.33334 12.1908 9.15424C12.1306 8.99503 11.99 8.83583 11.8293 8.75623C11.6084 8.61692 11.1465 8.55722 10.805 8.61692H10.8251ZM10.9657 8.85573L10.805 9.21394L10.2427 10.2488C10.2226 10.2687 10.1624 10.2488 10.1423 10.1891C10.1423 10.1294 10.2628 9.83085 10.6042 9.21394C10.805 8.83583 10.805 8.83583 10.8854 8.83583L10.9657 8.85573ZM11.3473 8.87563C11.1549 9.24464 10.9674 9.61615 10.7849 9.99006C10.5038 10.5274 10.4837 10.5473 10.4034 10.4876C10.3632 10.4677 10.3833 10.4279 10.6243 9.95026C10.9255 9.33334 11.1866 8.87563 11.2268 8.85573C11.2469 8.83583 11.3272 8.85573 11.3473 8.87563ZM11.6285 8.93533L11.6686 8.99503L11.2469 9.83085C10.8251 10.6468 10.8251 10.6667 10.7448 10.5871C10.7247 10.5672 10.9657 10.0697 11.3071 9.41294L11.4879 9.07464C11.5682 8.91543 11.5682 8.91543 11.6285 8.93533ZM12.3716 8.79603C12.3113 8.81593 12.2912 8.89553 12.3113 8.93533C12.3515 8.97513 12.4318 9.01493 12.5322 9.03483C12.5925 9.05474 12.6326 9.03483 12.713 9.01493C12.7933 8.97513 12.7933 8.95523 12.7933 8.89553C12.7933 8.83583 12.7933 8.83583 12.7331 8.81593C12.6527 8.77613 12.4318 8.77613 12.3716 8.79603ZM6.08537 8.83583C6.0452 8.87563 6.0452 8.97513 6.10545 9.03483C6.1657 9.09454 6.2862 9.07464 6.36654 9.03483C6.42679 8.97513 6.42679 8.93533 6.36654 8.85573C6.34646 8.81593 6.30629 8.79603 6.22595 8.79603C6.14562 8.79603 6.10545 8.81593 6.08537 8.83583Z" fill="currentColor"/><path d="M8.15397 16.6169L7.85271 17.0348C7.85271 17.0547 7.51129 17.5522 7.23012 18.4677C6.88759 19.7659 6.80571 21.1182 6.98911 22.4478L7.08953 23.0448L7.45104 22.5473C7.45104 22.5473 7.63179 22.3084 7.97321 22.0497C8.17405 21.8507 8.49539 21.6318 8.89706 21.4328V21.6318C8.89706 21.9502 8.91715 22.0895 8.93723 22.2288C8.9774 22.4677 9.03765 22.6468 9.07782 22.6667C9.13807 22.7065 9.17823 22.6468 9.39915 22.3881C9.98942 21.7553 10.7081 21.2535 11.5079 20.9154C11.528 20.9751 11.2067 21.3532 10.8653 21.6716L10.6644 21.8905L11.0259 21.8308C11.8802 21.5353 12.656 21.0523 13.2954 20.4179L13.6368 20.1194C13.6971 20.1791 13.436 20.6169 13.2151 20.8756C13.0946 21.0149 12.8335 21.2537 12.6125 21.4129C12.4117 21.5522 12.492 21.5721 12.9339 21.4726C13.2753 21.3731 13.7171 21.1741 13.9983 20.9552C14.592 20.5113 15.0677 19.9307 15.3841 19.2637C15.4243 19.2637 15.3841 19.602 15.3038 19.8408C15.2234 20.0597 15.0828 20.3184 14.9423 20.4975L14.8418 20.6766L14.9824 20.6368C15.364 20.5174 15.6653 20.2587 15.9665 19.801C16.2879 19.3433 16.4284 18.9254 16.5088 18.3681C16.5289 18.189 16.5891 18.2686 16.6494 18.5672C16.6895 18.7463 16.7096 19.2637 16.6895 19.4826C16.6694 19.5622 16.6895 19.5821 16.7297 19.5821C16.7899 19.602 16.8703 19.4826 16.9908 19.2637C17.1113 19.0448 17.1916 18.806 17.2519 18.5274C17.305 18.1505 17.2982 17.7678 17.2318 17.393C17.2519 17.3731 17.3322 17.4726 17.4728 17.6915C17.5732 17.8706 17.6937 18.189 17.7339 18.4677L17.774 18.6468C17.8142 18.6468 17.8745 18.5672 17.9146 18.4478C17.995 18.2487 17.995 18.0497 17.995 17.6517C17.9749 17.0945 17.8946 16.7562 17.6535 16.3781C17.5933 16.2985 17.5531 16.2189 17.5732 16.199C17.6134 16.1592 18.0351 16.5572 18.1356 16.7164C18.1958 16.8159 18.2159 16.8358 18.236 16.7761C18.2561 16.7363 18.1757 16.3184 18.0954 16.0995C17.9623 15.7258 17.78 15.3711 17.5531 15.0448L17.6134 14.7662L17.6937 14.8458C17.7339 14.8856 18.0753 15.204 18.7582 15.204C19.4209 15.204 19.1799 15.1642 19.4008 15.1045C20.0033 14.9453 20.2845 14.5672 20.4251 14.2885C20.5657 13.99 20.5858 13.7114 20.5858 13.6915V13.2338L20.2042 13.4527C20.1841 13.4726 19.7824 13.6716 19.3205 13.6716C18.8385 13.6716 18.9389 13.6517 18.7782 13.5721L18.6577 13.5323V13.4925C18.7582 13.2935 18.7983 13.0746 18.7983 13.0746L18.8987 12.7363H18.5573L18.0351 12.796C17.6134 12.8557 17.3523 12.995 17.2117 13.1741C17.1916 13.2139 17.1314 13.2935 17.1113 13.393L17.0711 13.4129L17.031 13.2139C17.0109 12.9751 16.9707 12.8358 16.9305 12.6368L16.8904 12.4776L16.9908 12.4975C17.0711 12.5572 17.3724 12.6169 17.4929 12.6169C17.6335 12.6169 17.6134 12.5572 17.513 12.5174C17.4125 12.4776 17.2117 12.2587 17.1113 12.1393C16.9105 11.8607 16.6494 11.3831 16.6895 11.3433L16.8301 11.403L17.0109 11.4826C17.0912 11.5025 17.1715 11.4627 17.1715 11.4229C17.1715 11.3831 17.1314 11.3433 17.051 11.2637C16.8904 11.0647 16.7297 10.806 16.7498 10.7662H16.8703C16.9506 10.7662 16.9908 10.7463 17.0109 10.7065C17.051 10.5871 17.051 10.3084 17.0109 10.2288L16.9908 10.1492L17.1314 10.1293C17.2519 10.1094 17.292 10.0696 17.2519 10.0298L17.0109 9.85074L16.7699 9.67163H16.8904C17.051 9.67163 17.5732 9.61193 17.6134 9.57213C17.6335 9.55223 17.5933 9.53233 17.4527 9.47263L17.292 9.37313L17.4728 9.29352C17.6937 9.25372 17.8544 9.17412 17.9548 9.09452C18.0753 8.99502 18.0351 8.97512 17.8142 8.99502C17.533 9.03482 17.2519 8.99502 17.0912 8.91541C17.031 8.87561 17.051 8.85571 17.1314 8.85571C17.3322 8.81591 17.6335 8.71641 17.7941 8.61691C17.9548 8.5174 18.1155 8.3383 18.1958 8.1791C18.2561 8.03979 18.2761 7.99999 18.236 7.96019C18.2159 7.94029 18.1757 7.96019 18.0753 8.03979C17.9347 8.15919 17.7339 8.2587 17.5531 8.2985C17.4326 8.3383 17.1314 8.3383 17.0711 8.3184C17.031 8.2985 17.051 8.2786 17.0912 8.2786C17.1515 8.2786 17.5531 8.07959 17.6736 7.96019C17.8544 7.84079 18.0552 7.60198 18.1356 7.42288C18.2962 7.12437 18.2561 6.92536 18.0954 7.12437C17.8998 7.38272 17.625 7.57126 17.3121 7.66168C17.051 7.74128 16.9908 7.72138 17.1515 7.62188C17.3121 7.52238 17.5531 7.30347 17.6535 7.18407C17.8544 6.92536 18.0151 6.46765 17.9347 6.42785C17.8946 6.40795 17.8745 6.42785 17.7339 6.60696C17.5732 6.78606 17.4125 6.94526 17.2318 7.02487C16.9908 7.16417 16.9506 7.14427 17.1113 6.96516C17.3724 6.70646 17.4929 6.50745 17.7138 6.00994C17.8544 5.67163 17.9749 5.47263 18.2561 5.05472C18.4971 4.69651 18.6376 4.4378 18.6577 4.2587C18.6979 4.07959 18.6778 4.05969 18.5372 4.05969L18.2561 4.09949L17.533 4.3184C17.0912 4.4776 16.7498 4.57711 16.2276 4.69651L15.3038 4.95521C14.8481 5.08837 14.4382 5.34309 14.1188 5.69153C14.0787 5.69153 14.159 5.37313 14.2393 5.21392L14.2996 5.05472C14.2996 4.97512 14.0787 5.11442 13.8979 5.29352C13.7573 5.43283 13.5966 5.73133 13.5364 5.89054C13.4962 6.00994 13.4761 6.04974 13.4561 6.02984C13.4159 5.99004 13.3556 5.75123 13.3356 5.61193C13.3155 5.47263 13.2954 5.45273 13.2753 5.45273C13.2351 5.45273 13.2151 5.49253 13.1749 5.63183C13.0745 5.89054 13.0544 6.02984 13.0544 6.32835C13.0544 6.52735 12.974 6.60696 12.8335 6.60696L11.9297 6.58706C11.4678 6.58706 11.2469 6.50745 11.2669 6.32835C11.287 6.00994 11.2469 5.83084 11.1264 5.61193C11.046 5.45273 10.9858 5.37313 10.9657 5.41293V5.55223C11.0058 5.73133 10.9858 5.99004 10.9456 6.10944C10.9255 6.14924 10.9054 6.16915 10.8853 6.12934L10.8452 5.97014C10.805 5.77114 10.6243 5.45273 10.4837 5.29352C10.3632 5.15422 10.1423 5.01492 10.082 5.01492C10.0017 5.01492 10.0418 5.07462 10.1021 5.13432C10.2427 5.27362 10.3833 5.57213 10.3833 5.69153C10.3833 5.81094 10.3632 5.73133 10.2226 5.61193C10.0418 5.43283 9.841 5.29352 9.55982 5.15422C9.25857 4.99502 9.13807 4.97512 8.15397 4.77611C7.56989 4.66594 6.99812 4.49931 6.44685 4.2786C6.30627 4.2388 6.0251 4.2388 6.00501 4.2786C5.98493 4.2985 6.00501 4.4378 6.06526 4.5572L6.54727 5.15422C6.82844 5.47263 6.92886 5.63183 7.1297 6.02984C7.29426 6.36315 7.49639 6.67692 7.73221 6.96516C7.71212 6.98507 7.57154 6.92536 7.41087 6.84576C7.33053 6.80596 7.21003 6.72636 7.08953 6.60696L6.88869 6.42785C6.82844 6.42785 6.88869 6.66666 7.0092 6.84576C7.16987 7.10447 7.33053 7.26367 7.59162 7.40298C7.69204 7.44278 7.73221 7.48258 7.73221 7.50248C7.69204 7.54228 7.39079 7.48258 7.23012 7.42288C7.0092 7.34327 6.90878 7.28357 6.78828 7.16417L6.64769 7.06467C6.62761 7.06467 6.64769 7.18407 6.70794 7.30347C6.86861 7.62188 7.2502 7.86069 7.61171 7.86069C7.97321 7.86069 7.77238 7.88059 7.59162 7.96019C7.47112 7.99999 7.43095 7.99999 7.16987 7.99999H6.86861C6.86861 8.01989 6.96903 8.09949 7.08953 8.15919L7.18995 8.2189L6.92886 8.2786C6.22593 8.3383 5.84434 8.4378 5.70376 8.63681C5.64351 8.71641 5.64351 8.73631 5.62342 8.99502C5.62342 9.17412 5.68367 9.31342 5.78409 9.41293C5.90459 9.53233 5.96484 9.63183 5.96484 9.73133C5.99348 9.9555 6.04737 10.1758 6.12551 10.3881C6.12551 10.408 5.98493 10.4677 5.72384 10.5473L5.282 10.7065C4.98074 10.8458 4.79999 11.0647 4.77991 11.3035C4.77991 11.5224 4.79999 11.6219 4.88033 11.7214C4.96066 11.801 4.96066 11.8209 4.96066 11.9204C4.94058 12.2587 5.12133 12.796 5.36233 13.0945C5.72384 13.5124 6.16568 13.6517 6.64769 13.4925C6.76819 13.4527 6.88869 13.4527 7.02928 13.4925L7.2502 13.5721C7.31045 13.592 7.2502 13.6119 6.96903 13.7114C6.58744 13.8507 6.40669 13.9303 6.2661 14.0696C6.10543 14.2288 6.06526 14.3084 6.06526 14.5075C6.06526 14.7065 6.08535 14.7662 6.18577 14.8657C6.22593 14.9055 6.22593 14.9055 6.20585 14.9851C6.16568 15.1045 6.16568 15.2239 6.22593 15.3234C6.3866 15.5821 6.76819 15.801 7.27028 15.8806C7.45104 15.9204 7.95313 15.9204 8.09371 15.9005C8.15397 15.8806 8.17405 15.9005 8.17405 15.9204C8.17405 16 7.95313 16.3383 7.77238 16.4975L7.63179 16.6766C7.67196 16.7164 7.9933 16.6766 8.17405 16.6368M18.5573 12.995L18.3766 13.4925C18.2761 13.4925 18.1356 13.5323 18.0151 13.6318C17.8745 13.4328 17.6736 13.3134 17.4125 13.3134C17.6335 13.0149 18.5573 12.995 18.5573 12.995ZM13.9782 6.62686C14.0787 6.16915 14.4201 5.71143 14.8217 5.47263C15.1029 5.29352 15.4845 5.17412 16.087 5.03482C16.5289 4.93531 17.1314 4.75621 17.6134 4.59701L18.1356 4.4378V4.4577L17.774 4.67661C17.533 4.77611 17.1916 4.91541 16.81 5.01492C15.8862 5.25372 15.6251 5.33332 15.1833 5.55223C14.7498 5.74277 14.4003 6.08197 14.1992 6.50745C14.0987 6.72636 14.0385 6.94526 14.0385 7.24377C14.0385 7.52238 14.0385 7.42288 14.0184 7.42288C13.9581 7.48258 13.918 6.84576 13.9782 6.62686ZM16.5489 6.10944L16.1874 6.40795C15.7219 6.75077 15.3033 7.15215 14.9423 7.60198C14.7414 7.88059 14.6812 7.94029 14.641 7.92039C14.6008 7.88059 14.9021 7.28357 15.0628 7.08457C15.3238 6.74626 15.7255 6.46765 16.3481 6.14924C16.6293 5.99004 16.7096 5.99004 16.5489 6.10944ZM16.5088 6.78606L16.1272 7.12437C15.7858 7.42288 15.6853 7.50248 15.4644 7.76118C15.3238 7.92039 15.2234 7.98009 15.1431 7.98009C15.0628 7.98009 15.1029 7.96019 15.2234 7.78109C15.364 7.54228 15.5046 7.36317 15.6452 7.24377C15.8661 7.06467 16.4686 6.70646 16.5489 6.70646C16.5891 6.70646 16.569 6.72636 16.5088 6.78606ZM14.9423 8.2985C15.536 8.17273 16.1148 7.98598 16.6694 7.74128C16.3281 8.06134 15.9041 8.28172 15.4443 8.3781C15.2636 8.398 14.9222 8.4179 14.8418 8.398C14.7414 8.3582 14.8017 8.3383 14.9423 8.2985ZM14.5807 9.31342L15.0628 9.51243C15.3841 9.63183 16.3682 10.1094 16.5088 10.2089L16.6694 10.3681C16.7498 10.4876 16.7096 10.6269 16.6092 10.5473L16.4284 10.408C16.1874 10.2089 15.6452 9.97014 14.4 9.51243L13.8979 9.31342L13.3958 9.15422C13.3356 9.13432 13.3356 9.13432 13.3356 9.01492C13.3556 8.87561 13.3757 8.85571 13.4159 8.87561C13.8015 9.02842 14.1899 9.17438 14.5807 9.31342ZM13.2753 6.14924C13.2954 6.10944 13.3155 6.12934 13.3757 6.34825C13.4962 6.68656 13.5364 6.72636 13.5766 6.50745C13.6569 6.12934 13.7372 5.89054 13.8176 5.77114C13.8376 5.73133 13.8577 5.77114 13.8577 5.91044C13.8778 6.06964 13.8778 6.10944 13.8376 6.20895C13.7275 6.54974 13.6732 6.90584 13.677 7.26367C13.6368 7.26367 13.436 6.88556 13.3757 6.70646C13.3155 6.56716 13.2552 6.22885 13.2753 6.14924ZM11.3674 6.86566C11.528 6.84576 12.6326 6.86566 12.7933 6.90546C12.974 6.92536 13.0946 6.96516 13.1146 7.00497V7.04477L12.9138 7.06467C12.3515 7.10447 12.1305 7.16417 11.769 7.34327C11.528 7.46268 11.4879 7.48258 11.2469 7.72138L10.9255 8.05969C10.8653 8.13929 10.8653 8.13929 10.6845 8.1791C10.2226 8.2388 9.94141 8.3582 9.72049 8.5572C9.62007 8.65671 9.53974 8.67661 9.49957 8.65671L9.35899 8.61691C9.23848 8.61691 9.23848 8.59701 9.29874 8.398C9.45941 7.96019 9.82091 7.52238 10.2828 7.20397C10.6243 6.96516 10.7448 6.92536 11.3674 6.86566ZM13.0343 8.97512L12.9941 9.13432L12.8736 9.19402C12.7531 9.23382 12.6326 9.31342 12.5925 9.39303L12.5121 9.67163C12.4519 10.0696 12.3916 10.2487 12.2109 10.4876C12.0595 10.6935 11.8539 10.8543 11.6167 10.9526C11.3794 11.0508 11.1195 11.0827 10.8653 11.0448C10.7247 11.0249 10.4435 10.9254 10.2828 10.8458C9.94141 10.6667 9.68033 10.2885 9.62007 9.89054C9.57991 9.71143 9.57991 9.29352 9.62007 9.17412C9.66024 8.99502 9.90125 8.71641 10.1021 8.59701C10.2828 8.5174 10.6443 8.4179 10.9255 8.398H11.1866C11.2067 8.3781 11.3874 8.398 11.6084 8.4179C12.0301 8.4577 12.6728 8.57711 12.8736 8.65671C13.0343 8.73631 13.0544 8.79601 13.0343 8.97512ZM7.95313 6.40795C7.97321 6.38805 7.95313 6.38805 8.19413 6.50745C8.43514 6.60696 8.55564 6.68656 8.67614 6.82586C8.83681 6.96516 8.93723 7.16417 8.87698 7.16417C8.79664 7.16417 8.77656 7.10447 8.69623 7.04477C8.63597 6.96516 8.4753 6.84576 8.3548 6.74626C8.05355 6.52735 7.93305 6.42785 7.95313 6.40795ZM7.87279 5.85074C8.36341 6.0087 8.79182 6.31489 9.0979 6.72636C9.15815 6.80596 9.19832 6.90546 9.15815 6.90546C9.11798 6.90546 9.07782 6.82586 8.99748 6.74626C8.65617 6.40855 8.27909 6.10831 7.87279 5.85074ZM9.2184 6.46765L9.05773 6.30845C8.86227 6.0905 8.64715 5.89067 8.41505 5.71143C8.39497 5.67163 8.4753 5.71143 8.69623 5.83084L8.99748 6.04974C9.13807 6.18905 9.27865 6.44775 9.2184 6.44775V6.46765ZM6.62761 4.71641C6.36652 4.57711 6.3866 4.5373 6.66777 4.63681C6.96903 4.75621 7.41087 4.89551 7.81254 4.97512C8.53556 5.15422 8.77656 5.23382 8.95731 5.37313C9.01756 5.43283 9.03765 5.51243 8.9774 5.49253C8.77656 5.39303 8.27447 5.23382 7.85271 5.13432C7.18995 4.93531 6.82844 4.81591 6.60752 4.69651L6.62761 4.71641ZM6.00501 9.23382C5.92468 9.17412 5.88451 9.07462 5.88451 8.95521C5.88451 8.65671 5.88451 8.67661 6.82844 8.5174L7.2502 8.4577C7.41087 8.4378 7.73221 8.4577 7.89288 8.4975C8.19413 8.5572 8.37489 8.67661 8.51547 8.89551L8.65606 9.05472C8.67614 9.07462 8.71631 9.05472 8.75648 8.99502C8.81673 8.91541 8.85689 8.89551 8.93723 8.87561C9.23848 8.81591 9.49957 8.91541 9.49957 9.07462C9.49957 9.25372 9.49957 9.17412 9.31882 9.11442C9.17823 9.05472 9.01756 9.07462 8.85689 9.11442C8.75648 9.15422 8.75648 9.15422 8.73639 9.11442C8.69623 9.07462 8.69623 9.09452 8.69623 9.43283C8.69623 9.65173 8.67614 9.71143 8.55564 9.73133C8.43514 9.77113 8.43514 9.77113 8.43514 9.63183C8.51547 9.15422 8.33472 8.83581 7.91296 8.69651C7.75229 8.65671 7.27028 8.63681 7.06945 8.67661C6.5071 8.81591 6.28618 9.33332 6.46694 10.0895L6.5071 10.2686C6.46694 10.3283 6.40669 10.3084 6.36652 10.2089C6.28618 10.0895 6.28618 10.0099 6.24602 9.73133C6.20585 9.41293 6.18577 9.33332 6.00501 9.23382ZM7.71212 9.25372C7.54248 9.53038 7.38827 9.81605 7.2502 10.1094C7.18995 10.1492 7.10961 10.1492 7.10961 10.1293C7.2304 9.82506 7.37826 9.53203 7.55146 9.25372L7.71212 8.97512C7.75229 8.91541 7.75229 8.89551 7.79246 8.91541L7.87279 8.95521C7.89288 8.95521 7.83263 9.09452 7.71212 9.25372ZM7.67196 9.85074C7.63179 9.93034 7.59162 9.97014 7.57154 9.97014C7.53137 9.97014 7.53137 9.97014 7.57154 9.93034L7.65187 9.77113C7.73221 9.63183 7.75229 9.69153 7.67196 9.85074ZM7.04936 9.83084C6.88869 10.1691 6.86861 10.2089 6.78828 10.2089C6.70794 10.2089 6.72802 10.189 6.82844 9.89054C6.94464 9.57054 7.107 9.2689 7.31045 8.99502C7.3707 8.85571 7.41087 8.83581 7.4912 8.87561C7.53137 8.91541 7.51129 8.97512 7.35062 9.25372L7.04936 9.83084ZM5.14141 11.4826C5.12133 11.6219 5.041 11.5622 5.041 11.3831C5.041 11.204 5.18158 11.0249 5.34225 10.9851C5.44267 10.9453 5.62342 10.9453 5.92468 11.005C6.24602 11.0647 6.36652 11.1244 6.5071 11.2438C6.58744 11.3234 6.64769 11.5025 6.60752 11.602C6.56736 11.7015 6.54727 11.6816 6.52719 11.5622C6.52719 11.4428 6.48702 11.3831 6.34643 11.3234C6.20585 11.2239 6.0251 11.204 5.62342 11.204C5.38242 11.2239 5.26192 11.2438 5.20166 11.3035L5.14141 11.4826ZM6.00501 11.9005C6.1456 12.1592 6.54727 12.1592 6.76819 11.9005C6.88869 11.7811 6.90878 11.801 6.84853 11.9204C6.76819 12.0995 6.56736 12.2189 6.32635 12.2189C6.18577 12.2189 6.16568 12.199 6.06526 12.1592C5.96484 12.0796 5.86443 11.9403 5.84434 11.801C5.82426 11.6816 5.86443 11.5224 5.94476 11.4428C6.00501 11.3831 6.04518 11.3831 6.04518 11.403L6.00501 11.5025C5.92468 11.6219 5.92468 11.7811 6.00501 11.9005ZM5.34225 12.0398C5.42259 12.0398 5.46275 12 5.48284 11.8607C5.50292 11.7214 5.48284 11.602 5.4025 11.4826C5.34225 11.3831 5.32217 11.3831 5.36233 11.3831L5.46275 11.4229C5.62342 11.5821 5.64351 11.9801 5.50292 12.1194C5.46275 12.1791 5.32217 12.1791 5.26192 12.1194C5.22175 12.0796 5.24183 12.0398 5.34225 12.0398ZM6.28618 13.2338C6.2661 13.3134 5.90459 13.1741 5.72384 13.0348C5.60334 12.9154 5.30208 12.4776 5.34225 12.4378C5.36233 12.4179 5.36233 12.4179 5.56317 12.4577C5.68367 12.4776 5.76401 12.5572 5.82426 12.6567C5.94476 12.8955 6.0251 13.0149 6.16568 13.1343C6.24602 13.1741 6.28618 13.2338 6.28618 13.2338ZM6.3866 14.6866C6.2661 14.4876 6.34643 14.2885 6.64769 14.1293C6.82844 14.0298 7.2502 13.8706 7.31045 13.8905C7.3707 13.8905 7.3707 13.8905 7.08953 14.1293C6.90878 14.2885 6.76819 14.5473 6.84853 14.5871L7.06945 14.4279C7.31045 14.2288 7.69204 13.9701 7.89288 13.8706C8.15397 13.7512 8.37489 13.7313 8.4753 13.791C8.53556 13.8308 8.59581 13.8507 8.77656 13.8507C9.15815 13.8706 9.17823 13.8905 8.9774 13.9701L8.73639 14.0696L8.27447 14.408C8.21422 14.4478 8.17405 14.4279 8.13388 14.3681C7.93305 14.0895 7.71212 14.1492 7.61171 14.5075C7.55146 14.7065 7.51129 14.7662 7.33053 14.8259C7.02928 14.9453 6.5071 14.8657 6.3866 14.6866ZM10.564 13.9303C10.7648 13.8507 10.805 13.8507 10.805 13.8706C10.8251 13.8905 10.7849 13.9303 10.7448 13.9701C10.6042 14.0895 10.2427 14.2487 9.59999 14.4677C8.99748 14.6866 8.31464 14.8657 8.27447 14.8458V14.7662C8.27447 14.7264 8.31464 14.7065 8.39497 14.6667C8.51547 14.607 8.89706 14.4876 9.19832 14.4279C9.49957 14.3482 9.57991 14.3084 9.68033 14.0895C9.76066 13.9104 9.82091 13.8905 9.94141 14.0298C10.0017 14.1094 10.082 14.1094 10.1824 14.0696L10.564 13.9104V13.9303ZM10.5439 13.7114C10.6243 13.6915 10.7247 13.6119 10.7849 13.4726C10.8452 13.3731 10.9255 13.3333 11.2067 13.2736L11.4879 13.1741C11.5682 13.1343 11.5883 13.1343 11.5883 13.1741C11.5883 13.2537 11.287 13.4726 10.9255 13.6716C10.7849 13.7512 10.7648 13.7512 10.6042 13.7512C10.4435 13.7512 10.3833 13.7313 10.5439 13.7114ZM7.97321 14.9453L7.81254 14.9652C7.73221 14.9652 7.73221 14.9652 7.73221 14.9254L7.81254 14.5473C7.81254 14.5075 7.83263 14.4876 7.85271 14.4876C7.89288 14.4279 7.95313 14.4677 7.97321 14.5274L8.01338 14.7463C8.01338 14.9254 8.01338 14.9254 7.97321 14.9453ZM8.9774 17.9502L8.87698 17.6915C8.83681 17.4328 8.87698 17.0348 8.9774 16.7761C9.01756 16.6766 9.01756 16.6368 8.99748 16.6169C8.91715 16.5373 8.65606 16.9353 8.59581 17.2338L8.55564 17.3532C8.51547 17.3532 8.49539 17.1741 8.49539 16.995C8.51547 16.7562 8.57572 16.5572 8.67614 16.3582C8.81673 16.1194 8.77656 16.0796 8.51547 16.2388C8.33472 16.3383 8.21422 16.398 8.19413 16.3582L8.25438 16.2587C8.31464 16.199 8.39497 16.0796 8.43514 15.9801C8.49539 15.8607 8.59581 15.801 8.77656 15.7612L9.0979 15.6816L10.5439 15.2239C11.0058 15.1045 11.4678 15.0448 11.9498 15.0647H11.9699C12.231 15.0647 12.5121 15.1045 12.7732 15.1642L12.8335 15.1841L12.6728 15.0647C12.3916 14.8458 12.2109 14.7861 11.7289 14.7861C11.3071 14.806 10.9657 14.8657 10.564 14.9851C10.1623 15.1244 8.99748 15.4229 8.51547 15.5224C8.07363 15.602 7.95313 15.602 7.59162 15.5821C7.21003 15.5821 7.06945 15.5622 6.82844 15.4428C6.66777 15.3632 6.5071 15.204 6.5071 15.1443C6.5071 15.0647 6.52719 15.0846 6.62761 15.1244C6.90878 15.2438 7.47112 15.2637 7.89288 15.204C8.41505 15.1443 9.45941 14.8458 10.2025 14.5473C10.8251 14.3084 11.2469 14.0696 11.6084 13.7512C11.8494 13.5323 11.9297 13.4527 12.0502 13.2537C12.251 12.9552 12.231 12.9751 12.3113 13.0547C12.3715 13.1343 12.3715 13.1343 12.3515 13.2338L12.3314 13.3731C12.3113 13.4527 12.3715 13.4328 12.472 13.3333C12.5724 13.2139 12.5925 13.1741 12.5925 13.0348C12.5925 12.8159 12.3916 12.6368 12.0904 12.597C12.0296 12.5865 11.9671 12.59 11.9079 12.6072C11.8487 12.6245 11.7943 12.655 11.7489 12.6965C11.3698 12.8024 10.9947 12.9219 10.6243 13.0547C10.082 13.2139 9.66024 13.3134 9.23848 13.3731C8.9774 13.4129 8.89706 13.4328 8.39497 13.4129C7.79246 13.4129 7.69204 13.393 7.33053 13.2935C6.84853 13.1741 6.44685 12.9751 6.2661 12.8159C6.1456 12.7363 6.04518 12.5373 6.06526 12.4975C6.06526 12.4577 6.08535 12.4577 6.16568 12.4776C6.42677 12.4975 6.78828 12.3781 6.94895 12.199C7.14978 12 7.23012 11.6219 7.16987 11.3035C7.1297 11.1642 7.0092 11.005 6.88869 10.9254C6.74811 10.8657 6.5071 10.806 6.22593 10.7662L6.0251 10.7264L7.53137 10.3283C8.57572 10.0696 8.95731 9.91044 9.0979 9.71143C9.15815 9.59203 9.25857 9.49253 9.29874 9.49253L9.3389 9.53233V9.73133C9.34283 10.058 9.44939 10.3754 9.64375 10.6393C9.83812 10.9032 10.1106 11.1006 10.4234 11.204L10.7046 11.3433C11.0862 11.6418 11.4075 11.7811 12.0301 11.8806C12.492 11.9602 12.713 12.0398 12.9941 12.1592C13.3356 12.3383 13.6167 12.5771 13.8376 12.9154C14.0586 13.2736 14.2795 13.8109 14.3197 14.1691C14.3598 14.3482 14.3397 14.7662 14.3197 14.8856C14.2996 14.9453 14.2996 14.9453 14.3397 14.9453C14.4201 14.9254 14.6209 14.3881 14.641 14.0298C14.6611 13.7512 14.5607 12.995 14.5607 12.9552C14.5004 12.8159 14.6209 12.8955 14.7615 13.0945C14.882 13.2736 14.9623 13.4527 15.0226 13.7313C15.0828 13.9303 15.1029 14.5075 15.123 14.5075C15.1632 14.5075 15.3841 14.0696 15.4243 13.7512C15.4644 13.3134 15.364 13.1542 15.123 12.6965L15.0226 12.4776C15.1029 12.4179 15.4644 12.9353 15.605 13.2736L15.7858 13.99C15.8058 14.2288 15.9464 14.0099 16.0067 13.6318C16.0469 13.2736 15.9264 12.8955 15.6853 12.4975L15.5247 12.2189C15.5247 12.1791 15.5648 12.199 15.6853 12.3184C16.0669 12.6965 16.4686 13.393 16.5489 13.8308C16.6293 14.1492 16.6092 14.7662 16.5289 14.9652L16.4887 15.0249V15.005L16.4485 14.8259C16.4084 14.5274 16.2879 14.1691 16.2276 14.1691C16.1674 14.1691 16.1473 14.2487 16.1473 14.5075C16.1674 14.7861 16.1272 15.0647 16.0067 15.5224L15.8862 15.8607L15.8661 15.9005C15.8259 15.9005 15.8259 15.7612 15.846 15.5224C15.846 15.1443 15.846 14.9453 15.8058 14.8856C15.7858 14.8657 15.7657 14.8657 15.7456 14.9055C15.6853 14.9652 15.6853 14.9652 15.6653 15.2239C15.605 15.6617 15.4644 16.1393 15.3238 16.3582L15.1632 16.5572L15.0226 16.6965L15.0628 16.5174L15.1632 16.1592C15.2033 15.9602 15.2033 15.602 15.1632 15.5821C15.123 15.5423 15.0628 15.5821 15.0226 15.7214C14.8788 16.3499 14.5335 16.9154 14.0385 17.3333C13.9721 17.3613 13.9052 17.3879 13.8376 17.4129L13.9782 17.194C14.1389 16.9353 14.2393 16.6567 14.2996 16.398C14.3397 16.199 14.3397 16.1592 14.2996 16.1592C14.2594 16.1592 14.1992 16.2985 14.0184 16.6368C13.9581 16.7562 13.8577 16.9154 13.7774 16.995C13.5966 17.2139 13.0946 17.6716 12.8335 17.8905C12.6356 17.9597 12.4345 18.0195 12.231 18.0696C12.1707 18.0696 12.1506 18.0497 12.2109 17.99L12.2912 17.9104C12.472 17.7711 12.733 17.393 12.8134 17.1542C12.8736 17.0149 12.9138 16.7562 12.8937 16.7164C12.8736 16.6567 12.8134 16.6766 12.7933 16.7363L12.5121 17.2935C12.3515 17.5124 12.0301 17.8109 11.769 17.99L11.4879 18.189C10.7638 18.2613 10.033 18.2278 9.31882 18.0895V17.3333C9.31882 17.194 9.27865 17.194 9.19832 17.3333C9.11798 17.4527 9.05773 17.6915 9.05773 17.8706V17.99L8.9774 17.9502L8.99748 17.9701L8.9774 17.9502ZM17.3523 14.7264L17.2519 15.204L17.2117 15.3035L17.1916 15.403L17.1515 15.5224L17.1314 15.602V15.6219V15.5821C17.1314 15.5821 16.1674 17.1542 14.5004 17.9502C13.8979 18.2288 15.6653 17.8507 16.8904 16.2985L16.8703 16.3383V16.3582L16.8502 16.3781V16.398L16.8301 16.4378L16.7899 16.5174C16.7848 16.5314 16.778 16.5447 16.7699 16.5572L16.7498 16.597V16.6169L16.7297 16.6567L16.7096 16.6965V16.7164H16.6895V16.7562L16.6694 16.7761L16.6092 16.8756V16.8955L16.5289 17.0149L16.4887 17.0746C16.3558 17.2712 16.2081 17.4574 16.0469 17.6318L15.9665 17.7114L15.9063 17.791L15.8259 17.8706L15.7858 17.9104L15.7054 17.99L15.6452 18.0497L15.5046 18.1691C14.9033 18.7269 14.2192 19.19 13.4761 19.5423L13.1347 19.7214L13.0343 19.7612L12.713 19.9005L12.5322 19.9801C12.1858 20.1283 11.8303 20.2546 11.4678 20.3582L10.5038 20.6169L10.4435 20.6368C10.317 20.6726 10.1898 20.7058 10.0619 20.7363L9.86108 20.796L9.55982 20.8756L9.43932 20.9154L9.29874 20.9751L8.95731 21.1144L8.87698 21.1343L8.83681 21.1542L8.73639 21.2139L8.4753 21.3532L8.37489 21.4129L8.21422 21.5323L8.1138 21.592L7.97321 21.7114L7.85271 21.791L7.75229 21.8706L7.61171 22.0099L7.55146 22.0696L7.51129 22.1094L7.4912 22.1293L7.41087 22.2089L7.39079 22.2288L7.27028 22.3681L7.23012 22.2288V22.0696L7.21003 22.0099V21.9104L7.18995 21.8507V21.6915L7.16987 21.6119V21.3134L7.14978 21.2537V20.5572L7.16987 20.4975V20.1791L7.18995 20.1194V20L7.21003 19.9403V19.8209L7.23012 19.7612V19.6418L7.2502 19.602V19.5224L7.27028 19.4826V19.4229L7.29037 19.3831V19.3035L7.31045 19.2637V19.204L7.33053 19.1642V19.1045L7.35062 19.0647L7.3707 18.9851V18.9652L7.39079 18.8856L7.41087 18.7662L7.43095 18.7463L7.45104 18.6667V18.6468L7.4912 18.5473V18.5274L7.51129 18.4478V18.4279C7.77238 19.0249 8.17405 19.3831 8.63597 19.5821C10.0217 20.1791 11.8694 19.4229 11.2067 19.5025C9.92133 19.6816 9.0979 19.5025 8.57572 19.204C8.33429 19.0688 8.13071 18.8761 7.98342 18.6432C7.83613 18.4104 7.74979 18.1449 7.73221 17.8706L7.75229 17.791L7.77238 17.7512V17.7313L7.81254 17.6716L7.83263 17.6517V17.6318L7.87279 17.5522V17.5323L7.89288 17.5124L7.93305 17.4328L7.97321 17.3532L8.01338 17.2935V17.2736L8.05355 17.2338V17.2139H8.07363V17.1741L8.09371 17.2736L8.13388 17.3532L8.15397 17.4328L8.17405 17.4527L8.19413 17.4925L8.21422 17.5323C8.21422 17.5721 8.2343 17.592 8.27447 17.6318L8.29455 17.6915L8.33472 17.7313L8.3548 17.7512L8.39497 17.791L8.43514 17.8507L8.49539 17.9104C8.53898 17.9539 8.58599 17.9938 8.63597 18.0298L8.69623 18.0696L8.75648 18.1094L8.83681 18.1492L8.87698 18.189L9.03765 18.2487L9.11798 18.2885C9.27044 18.3339 9.42451 18.3737 9.57991 18.408L9.72049 18.4279H9.841L9.88116 18.4478H10.1021L10.1623 18.4677H11.2469L11.3272 18.4478H11.4879L11.5481 18.4279H11.6485L11.6887 18.408H11.7891L11.8494 18.3881H11.8895L11.9899 18.3681H12.01L12.0904 18.3482H12.1305L12.1908 18.3283H12.231L12.2711 18.3084H12.3314L12.3715 18.2885H12.4117L12.472 18.2686H12.5121L12.5523 18.2487L12.5925 18.2288H12.6527L12.6929 18.2089L12.7732 18.189L12.7933 18.1691H12.8535L12.8937 18.1492L12.9339 18.1293H12.974L13.0142 18.1094L13.0544 18.0895L13.0946 18.0696H13.1347L13.195 18.0497L13.2151 18.0298L13.2753 18.0099H13.2954L13.3556 17.99L13.3958 17.9701L13.4561 17.9502L13.4761 17.9303L13.5163 17.9104H13.5565L13.5966 17.8905L13.6368 17.8706L13.677 17.8507L13.6971 17.8308L13.7372 17.8109H13.7774L13.7975 17.791L13.8376 17.7711L13.8778 17.7512L13.8979 17.7313L13.9581 17.7114L13.9983 17.6915L14.0385 17.6716L14.0586 17.6517L14.0987 17.6318L14.1188 17.6119H14.159L14.1992 17.592L14.2192 17.5721L14.2594 17.5522L14.2795 17.5323L14.3197 17.5124L14.3397 17.4925H14.3598C14.3874 17.481 14.4143 17.4677 14.4402 17.4527L14.4803 17.4129H14.5004L14.5205 17.393L14.5607 17.3731L14.5807 17.3532L14.6008 17.3333L14.641 17.3134L14.6611 17.2935H14.6812L14.7012 17.2736L14.7414 17.2537L14.7615 17.2338L14.7816 17.2139H14.8017L14.8418 17.1741L14.8619 17.1542L14.9021 17.1343H14.9222L14.9423 17.1144L14.9623 17.0945L14.9824 17.0746H15.0025L15.0226 17.0547L15.0427 17.0348L15.0628 17.0149H15.0828L15.1029 16.995L15.123 16.9751L15.1632 16.9552L15.2234 16.8955H15.2435L15.3038 16.8358L15.3841 16.7761L15.4644 16.6965L15.5247 16.6368L15.605 16.5572L15.6653 16.4975H15.6853L15.7456 16.4179L15.8058 16.3383H15.8259L15.8862 16.2587L15.9464 16.199L15.9665 16.1791L16.0268 16.1194V16.0995L16.087 16.0398V16.0199L16.1473 15.9602V15.9403L16.2075 15.8607C16.2351 15.835 16.2619 15.8084 16.2879 15.7811L16.328 15.7015H16.3481L16.3883 15.6219H16.4084L16.4485 15.5423H16.4686L16.5088 15.4627L16.569 15.3831L16.6092 15.3035H16.6293L16.6694 15.2239L16.7096 15.1642L16.7297 15.1443L16.7699 15.0846L16.81 15.005H16.8301L16.8502 14.9453L16.8703 14.9254L16.9105 14.8856V14.8458L16.9506 14.806L17.031 14.6667L17.0711 14.6269L17.3523 14.7065V14.7264ZM17.4125 14.4677H17.3925L17.2318 14.4279C17.1764 14.4026 17.1265 14.3668 17.0852 14.3224C17.0438 14.278 17.0117 14.2259 16.9908 14.1691V14.1492L16.9707 14.1293V13.9303L16.9908 13.8905V13.8507H17.0109V13.8109H17.031V13.791L17.051 13.7711L17.0711 13.7512V13.7313L17.0912 13.7114H17.1113L17.1314 13.6915V13.6716H17.1515V13.6517H17.1715L17.1916 13.6318H17.2117C17.2742 13.5969 17.3441 13.5769 17.4157 13.5734C17.4874 13.5699 17.5589 13.583 17.6246 13.6116C17.6902 13.6403 17.7483 13.6837 17.7941 13.7384C17.8399 13.7931 17.8722 13.8576 17.8884 13.9269C17.9047 13.9961 17.9044 14.0682 17.8877 14.1373C17.871 14.2064 17.8382 14.2708 17.792 14.3252C17.7459 14.3796 17.6875 14.4226 17.6216 14.4508C17.5558 14.479 17.4842 14.4916 17.4125 14.4876V14.4677ZM19.3205 14.8657C19.0996 14.9254 18.9188 14.9453 18.7582 14.9453C18.1556 14.9453 17.8745 14.6667 17.8745 14.6667V14.5672C18.0151 14.4478 18.1155 14.2686 18.1356 14.0696C18.3163 14.0497 18.4368 13.9303 18.5372 13.7711L18.6778 13.8109C18.8787 13.9104 19.0996 13.9303 19.3004 13.9303C19.8628 13.9303 20.3247 13.6915 20.3247 13.6915C20.3247 13.6915 20.3046 14.607 19.3205 14.8657Z" fill="currentColor"/></g><defs><clipPath id="clip0_2062_2371"><path fill="#fff" d="M0 0H24V24H0z"/></clipPath></defs></svg>