<svg width="240" height="324" viewBox="0 0 240 324" fill="none" xmlns="http://www.w3.org/2000/svg">
<path fill-rule="evenodd" clip-rule="evenodd" d="M189.101 262.208C188.547 261.931 187.97 261.615 187.337 261.593C186.251 261.555 186.249 259.864 187.337 259.902C188.286 259.935 189.119 260.331 189.954 260.748C190.928 261.234 190.071 262.692 189.101 262.208ZM187.337 214.615C188.079 214.616 188.826 214.71 189.395 215.228C189.734 215.537 189.707 216.112 189.395 216.424C189.062 216.757 188.537 216.731 188.2 216.424C188.31 216.524 188.201 216.425 188.161 216.403C188.151 216.397 188.146 216.394 188.144 216.392C188.135 216.389 188.127 216.388 188.113 216.384C188.025 216.362 187.937 216.34 187.848 216.324C187.847 216.328 187.659 216.312 187.615 216.31C187.523 216.307 187.43 216.306 187.337 216.306C186.879 216.306 186.492 215.92 186.492 215.461C186.492 215.004 186.88 214.615 187.337 214.615ZM179.39 233.581C179.148 234.643 177.519 234.191 177.761 233.132C178.112 231.591 178.048 230.014 177.761 228.468C177.563 227.403 179.192 226.95 179.39 228.019C179.735 229.873 179.812 231.733 179.39 233.581ZM177.256 172.816C175.997 172.517 174.752 172.481 173.465 172.481C172.375 172.48 172.377 170.79 173.465 170.79C174.901 170.79 176.302 170.852 177.705 171.185C178.764 171.437 178.313 173.067 177.256 172.816ZM173.038 213.999C172.308 213.634 171.578 213.269 170.848 212.904C169.873 212.417 170.731 210.959 171.701 211.444L173.891 212.54C174.865 213.027 174.008 214.485 173.038 213.999ZM172.734 247.296C171.808 248.631 170.506 249.461 168.943 249.876C167.889 250.155 167.443 248.524 168.494 248.245C169.611 247.949 170.604 247.409 171.275 246.442C171.891 245.553 173.355 246.4 172.734 247.296ZM166.894 187.766C166.643 187.298 166.266 187.1 165.798 187.089C164.71 187.064 164.71 185.374 165.798 185.399C166.865 185.423 167.843 185.959 168.353 186.913C168.866 187.873 167.407 188.726 166.894 187.766ZM156.174 199.259C155.871 199.589 155.283 199.581 154.979 199.259C154.792 199.062 154.635 198.842 154.512 198.601C154.465 198.509 154.421 198.416 154.369 198.327C154.346 198.287 154.321 198.248 154.295 198.21C154.286 198.202 154.267 198.183 154.248 198.163C153.924 197.82 153.932 197.313 154.248 196.968C154.551 196.637 155.139 196.646 155.444 196.968C155.63 197.165 155.787 197.385 155.91 197.626C155.957 197.717 156.001 197.81 156.053 197.9C156.076 197.939 156.102 197.978 156.128 198.016C156.137 198.024 156.155 198.043 156.174 198.063C156.499 198.407 156.49 198.914 156.174 199.259ZM155.273 224.225C154.172 224.729 152.965 224.729 151.864 224.225C151.447 224.035 151.348 223.432 151.561 223.069C151.807 222.647 152.302 222.576 152.717 222.765C153.216 222.994 153.921 222.994 154.42 222.765C154.836 222.575 155.326 222.642 155.576 223.069C155.79 223.435 155.688 224.035 155.273 224.225ZM152.27 241.898C152.081 242.345 151.673 242.583 151.195 242.602C150.722 242.619 150.37 242.2 150.35 241.756C150.338 241.47 150.492 241.225 150.715 241.073C150.715 241.057 150.715 241.042 150.715 241.026C150.716 240.552 151.103 240.201 151.561 240.18C152.017 240.16 152.406 240.584 152.406 241.026C152.405 241.324 152.387 241.62 152.27 241.898ZM147.91 269.993C146.561 270.014 145.243 270.336 143.894 270.358C142.804 270.375 142.807 268.684 143.894 268.667C145.243 268.645 146.561 268.323 147.91 268.302C149 268.284 148.996 269.975 147.91 269.993ZM142.301 161.642C141.511 162.394 140.536 162.765 139.574 163.235C138.6 163.711 137.744 162.253 138.721 161.775C139.536 161.377 140.438 161.083 141.106 160.446C141.894 159.696 143.09 160.89 142.301 161.642ZM140.182 181.131C139.628 180.854 139.05 180.537 138.418 180.515C137.331 180.477 137.33 178.787 138.418 178.825C139.367 178.858 140.2 179.254 141.035 179.67C142.009 180.157 141.152 181.615 140.182 181.131ZM130.022 259.348C129.771 258.879 129.394 258.681 128.926 258.671C127.838 258.646 127.838 256.955 128.926 256.98C129.993 257.004 130.971 257.54 131.481 258.494C131.994 259.455 130.535 260.308 130.022 259.348ZM126.503 222.632C126.167 222.324 126.19 221.75 126.503 221.437C126.868 221.072 127.233 220.706 127.599 220.341C127.932 220.007 128.456 220.031 128.793 220.341C129.13 220.65 129.106 221.224 128.793 221.537C128.428 221.902 128.063 222.267 127.698 222.632C127.364 222.967 126.841 222.942 126.503 222.632ZM122.355 279.853C121.135 279.825 119.993 279.475 118.844 279.093C117.816 278.75 118.259 277.118 119.294 277.462C120.292 277.794 121.294 278.138 122.355 278.162C123.443 278.188 123.443 279.878 122.355 279.853ZM116.879 243.697C115.777 243.667 114.863 243.105 114.091 242.354C113.309 241.594 114.506 240.399 115.286 241.158C115.728 241.588 116.238 241.989 116.879 242.006C117.966 242.037 117.967 243.727 116.879 243.697ZM120.279 197.2C120.293 197.65 120.483 198.133 120.762 198.428C121.509 199.22 120.315 200.417 119.567 199.624C118.949 198.97 118.615 198.095 118.589 197.2C118.558 196.11 120.248 196.115 120.279 197.2ZM107.387 160.375C107.034 159.682 106.57 158.87 105.865 158.487C104.908 157.968 105.762 156.508 106.718 157.027C107.677 157.548 108.362 158.573 108.847 159.522C109.341 160.49 107.882 161.345 107.387 160.375ZM105.197 177.959C104.804 177.948 104.415 177.881 104.037 177.778C103.876 177.734 103.716 177.684 103.554 177.64C103.485 177.621 103.19 177.584 103.371 177.594C102.914 177.569 102.526 177.226 102.526 176.748C102.526 176.309 102.915 175.878 103.371 175.903C103.998 175.937 104.569 176.25 105.197 176.268C106.284 176.299 106.284 177.99 105.197 177.959ZM99.7205 204.985H97.8952C96.8059 204.985 96.8078 203.294 97.8952 203.294H99.7205C100.81 203.294 100.808 204.985 99.7205 204.985ZM97.5914 279.738C97.0379 280.015 96.3855 280.277 95.9372 280.701C95.1466 281.449 93.95 280.255 94.742 279.506C95.3131 278.966 96.0432 278.626 96.7385 278.278C97.1481 278.073 97.6518 278.165 97.8948 278.581C98.1143 278.957 97.9995 279.534 97.5914 279.738ZM93.5129 258.374C93.4421 258.355 93.3673 258.341 93.2957 258.331C93.0084 258.292 92.7077 258.306 92.4191 258.306C91.3298 258.305 91.3315 256.614 92.4191 256.615C93.2762 256.615 94.1682 256.627 94.8422 257.228C95.1842 257.533 95.151 258.114 94.8422 258.423C94.5062 258.759 93.9876 258.727 93.647 258.423C93.6829 258.456 93.5598 258.387 93.5129 258.374ZM92.4195 229.643C92.665 229.136 92.6688 228.806 92.6693 228.243C92.6701 227.154 94.3603 227.155 94.3594 228.243C94.359 229.06 94.2375 229.756 93.879 230.496C93.6789 230.909 93.0933 231.016 92.7229 230.799C92.3076 230.556 92.2207 230.053 92.4195 229.643ZM87.5327 189.981C86.5524 190.314 85.6774 190.786 84.8141 191.356C83.9029 191.958 83.0572 190.493 83.961 189.896C84.9462 189.246 85.9651 188.731 87.0833 188.35C88.1173 187.999 88.5569 189.632 87.5327 189.981ZM81.8321 161.524C81.1038 161.545 80.3522 161.824 79.7031 162.139C78.7277 162.613 77.8719 161.155 78.8503 160.679C79.7773 160.229 80.7916 159.863 81.8321 159.834C82.922 159.803 82.9174 161.494 81.8321 161.524ZM79.2766 237.489C78.9901 237.501 78.7453 237.347 78.5936 237.124C78.5777 237.124 78.5621 237.123 78.5465 237.123C78.0728 237.123 77.7221 236.736 77.7014 236.278C77.6809 235.822 78.1045 235.432 78.5465 235.433C78.8448 235.433 79.1407 235.451 79.4179 235.568C79.8656 235.757 80.1035 236.165 80.1217 236.643C80.1396 237.117 79.72 237.469 79.2766 237.489ZM75.1203 179.024C74.0824 179.364 73.6417 177.731 74.671 177.394C75.8792 176.999 77.1138 176.693 78.3219 176.298C79.3598 175.959 79.8005 177.592 78.771 177.929C77.5632 178.324 76.3284 178.629 75.1203 179.024ZM71.33 210.938C71.008 211.976 69.3772 211.53 69.7 210.488C70.0119 209.483 70.0343 208.471 70.0349 207.426C70.0355 206.336 71.7257 206.338 71.725 207.426C71.7244 208.615 71.6845 209.793 71.33 210.938ZM60.0299 249.162C59.9684 249.583 59.6346 249.886 59.1977 249.906C58.753 249.926 58.3366 249.503 58.3526 249.06C58.3837 248.209 59.0773 247.516 59.9279 247.485C60.4011 247.467 60.7531 247.886 60.7729 248.33C60.7924 248.762 60.4319 249.099 60.0299 249.162ZM54.3113 200.572C53.4183 200.87 52.464 201.154 51.7638 201.815C50.9726 202.562 49.776 201.368 50.5687 200.62C51.4919 199.748 52.6795 199.336 53.8622 198.941C54.8978 198.596 55.3379 200.229 54.3113 200.572ZM50.4356 233.418C50.1901 233.837 49.693 233.913 49.2795 233.721C48.7252 233.463 48.1131 233.472 47.5155 233.471C46.4264 233.47 46.4281 231.78 47.5155 231.78C48.4374 231.781 49.288 231.868 50.1326 232.261C50.5482 232.455 50.6494 233.052 50.4356 233.418ZM48.2456 273.279C47.7724 273.297 47.4204 272.878 47.4005 272.434C47.3811 272.002 47.7413 271.665 48.1438 271.602C48.205 271.181 48.5391 270.878 48.9757 270.858C49.4207 270.838 49.8371 271.261 49.8208 271.704C49.7898 272.555 49.0966 273.248 48.2456 273.279ZM202.223 279.672C201.936 278.639 201.279 277.804 200.782 276.874C200.616 276.561 200.558 276.366 200.468 276.136C200.345 276.382 200.107 276.566 199.75 276.566C199.063 276.567 198.261 276.522 197.62 276.816C197.204 277.007 196.714 276.939 196.464 276.513C196.25 276.147 196.353 275.546 196.768 275.356C197.711 274.924 198.726 274.876 199.75 274.875C200.003 274.875 200.194 274.969 200.329 275.108C200.72 269.749 200.711 264.385 200.341 259.021C199.946 253.289 199.037 247.672 198.086 242.014C197.626 239.271 197.028 236.5 197.144 233.706C197.26 230.931 198.45 228.344 197.607 225.56C197.269 224.444 196.69 223.421 196.314 222.318C195.91 221.13 195.946 219.957 196.13 218.727C196.508 216.223 197.136 213.748 196.132 211.303C195.689 210.218 194.97 209.25 194.624 208.13C194.193 206.737 194.252 205.197 194.18 203.753C194.034 200.841 193.996 197.909 193.755 195.003C193.648 193.701 193.413 192.467 192.879 191.273C192.365 190.123 191.603 189.077 191.263 187.858C190.925 186.657 190.895 185.391 190.713 184.163C190.523 182.865 190.225 181.587 189.824 180.34C188.273 175.513 185.432 171.176 182.075 167.416C178.506 163.419 174.241 160.41 169.713 157.605C167.333 156.13 164.952 154.655 162.573 153.18C162.522 153.457 162.346 153.711 162.007 153.825C161.114 154.123 160.16 154.407 159.459 155.068C158.668 155.815 157.472 154.621 158.264 153.873C159.091 153.092 160.13 152.68 161.188 152.319C160.104 151.636 159.008 150.928 157.785 150.533C156.714 150.186 155.134 150.489 154.265 149.703C153.583 149.083 153.367 147.936 153.106 147.094C152.778 146.05 152.495 144.949 152.079 143.935C151.796 143.242 151.384 142.576 150.864 142.039C150.636 141.16 150.217 140.357 149.478 139.868C147.543 138.588 145.166 139.86 144.315 141.686C143.611 141.684 142.87 141.838 142.185 141.88C140.778 141.969 139.369 142.009 137.96 142.005C135.203 141.997 132.444 141.817 129.71 141.451C124.821 140.796 120.078 139.475 115.272 138.446C115.244 138.383 115.213 138.319 115.175 138.256C114.139 136.518 111.56 136.812 109.935 137.47C109.238 137.751 108.528 138.106 108.129 138.765C107.706 139.05 107.341 139.397 107.098 139.763C106.595 140.517 106.206 142.039 105.186 142.166C104.514 142.248 103.832 142.119 103.149 142.216C102.296 142.335 101.531 142.635 100.743 142.977C94.7429 145.583 88.54 148.481 82.0286 149.491C80.5013 149.728 78.9464 149.973 77.6196 150.829C76.5422 151.524 75.7095 152.48 74.8203 153.386C73.9541 154.27 73.24 154.661 72.0041 154.819C70.5041 155.012 69.2048 155.426 68.1083 156.516C67.1978 157.423 66.6041 158.581 65.89 159.634C65.1631 160.708 64.0964 161.312 62.9893 161.935C60.3717 163.411 57.9337 165.192 55.8105 167.329C51.3379 171.835 48.6295 177.626 45.8999 183.269C42.9485 189.373 40.1893 195.551 38.2752 202.069C36.3992 208.468 35.2837 215.052 34.7682 221.697C34.2252 228.669 34.1492 235.669 33.6971 242.646C33.471 246.131 33.2999 249.62 33.1267 253.108C32.9576 256.553 32.7105 260.004 32.7504 263.453C32.8267 270.121 34.1595 276.811 36.49 283.054C37.071 284.607 37.7152 286.14 38.4018 287.649C39.0041 288.974 41.064 288.826 41.7105 287.649C41.8583 287.378 41.9745 287.099 42.0717 286.816C43.7619 286.831 45.4689 286.7 47.1485 286.856C50.1147 287.133 53.087 287.287 56.0617 287.471C61.9478 287.837 67.8443 288.08 73.7323 288.416C74.3036 288.448 74.8748 288.481 75.4459 288.515C71.2499 275.523 71.7941 261.477 71.1301 247.965C71.0767 246.875 72.7672 246.882 72.8203 247.965C73.487 261.535 72.9193 275.617 77.2636 288.63C78.9491 288.744 80.6323 288.884 82.3098 289.088C83.6659 289.251 85.0288 289.443 86.3978 289.375C87.9506 289.301 89.4675 288.946 90.9823 288.638C93.7351 288.078 96.3865 288.331 99.1499 288.676C102.106 289.046 105.072 289.251 108.046 289.38C119.958 289.902 131.949 290.377 143.856 289.58C146.738 289.388 149.613 289.118 152.476 288.75C155.425 288.372 158.343 287.735 161.29 287.374C164.195 287.019 166.865 287.993 169.737 288.173C172.664 288.357 175.671 287.746 178.572 287.395C179.518 287.28 180.465 287.169 181.413 287.058C180.193 278.694 179.499 270.267 178.826 261.843C178.739 260.756 180.43 260.766 180.516 261.843C181.184 270.201 181.862 278.565 183.08 286.864C188.103 286.279 193.131 285.687 198.101 284.776C199.517 284.519 200.924 284.098 201.771 282.834C202.398 281.898 202.525 280.75 202.223 279.672Z" fill="black"/>
<path fill-rule="evenodd" clip-rule="evenodd" d="M146.481 137.502C140.641 140.763 133.955 140.89 127.674 138.837C123.907 137.61 120.453 135.712 117.22 133.442C114.408 131.466 111.898 129.274 109.412 126.947C107.365 122.43 105.542 117.922 104.688 113.008C103.923 108.597 103.822 104.017 104.709 99.6151C111.271 94.2151 117.793 88.7707 124.306 83.3096C127.623 80.528 130.948 77.7617 134.314 75.0392C136.023 73.657 137.716 72.2537 139.418 70.8651C139.699 70.6368 139.978 70.4086 140.259 70.1803C143.775 72.7546 147.544 74.9613 151.034 77.5776C152.861 78.9492 154.638 80.4097 156.33 81.946C157.218 82.7514 158.084 83.582 158.929 84.4338C159.702 85.2118 160.448 86.3275 161.544 86.6215C161.694 86.6614 161.836 86.6699 161.969 86.6508C163.435 99.4925 164.477 113.359 158.196 125.021C155.456 130.109 151.571 134.657 146.481 137.502ZM108.493 142.221C107.689 141.484 108.887 140.292 109.688 141.026C114.717 145.634 121.293 148.077 127.934 149.208C129.005 149.391 128.548 151.02 127.485 150.838C120.551 149.658 113.735 147.025 108.493 142.221ZM102.458 149.293C101.498 148.777 102.353 147.318 103.311 147.833C107.229 149.935 111.527 151.027 115.886 151.765C116.959 151.946 116.501 153.575 115.437 153.395C110.93 152.632 106.507 151.465 102.458 149.293ZM118.406 78.0618C121.657 75.1428 125.151 72.3655 128.842 70.0218C132.577 67.6504 136.657 66.2323 141.066 66.1985C140.758 66.4458 140.464 66.7205 140.166 66.976C139.334 67.6885 138.503 68.405 137.673 69.1193C136.013 70.5502 134.348 71.9787 132.708 73.433C129.48 76.2989 126.241 79.15 123.02 82.0223C116.827 87.5427 110.768 93.1835 104.84 98.9874C104.872 98.8457 104.906 98.7041 104.939 98.5627C106.902 90.3621 112.241 83.5968 118.406 78.0618ZM143.893 66.5557C143.914 66.4922 143.929 66.4307 143.937 66.3718C152.399 67.475 159.466 73.7033 161.802 81.9039C161.599 82.1871 161.487 82.5232 161.529 82.8801C161.551 83.06 161.572 83.2418 161.593 83.4214C161.303 83.1342 161.006 82.8656 160.752 82.6098C159.909 81.756 159.045 80.9251 158.158 80.1157C156.343 78.461 154.459 76.9139 152.472 75.4704C149.018 72.9596 145.279 70.6516 141.161 69.4469C141.432 69.225 141.702 69.0031 141.975 68.7833C142.788 68.1215 143.542 67.5765 143.893 66.5557ZM159.062 57.7867C153.867 52.1077 146.673 47.9484 139.097 46.5027C131.863 45.1205 124.374 46.0314 117.54 48.7177C103.239 54.3396 91.9548 66.7017 86.671 81.0268C83.5907 89.373 82.5809 98.5224 83.5064 107.357C84.4274 116.151 87.0745 125.233 91.8914 132.715C92.333 133.4 92.8168 134.057 93.3238 134.693C93.0978 137.276 92.2358 139.808 90.8795 142.01C90.8066 142.128 90.7297 142.244 90.6536 142.36C89.2648 143.4 87.8241 144.377 86.4177 145.384C85.1989 146.258 83.9926 147.154 82.8464 148.121C81.7645 149.034 80.5081 150.051 79.7757 151.284C79.1755 152.293 78.9304 153.666 79.7497 154.629C80.7369 155.789 82.4098 155.38 83.7471 155.38C83.8616 155.38 83.9759 155.383 84.0902 155.384C84.4918 155.636 84.9055 155.865 85.3062 156.077C89.3562 158.225 93.421 160.349 97.49 162.462C105.594 166.674 113.665 171.056 121.936 174.934C125.768 176.733 129.871 178.305 134.164 178.299C138.191 178.292 141.831 176.692 144.975 174.26C148.558 171.489 151.554 167.97 154.46 164.521C155.622 163.14 156.761 161.744 157.879 160.328C160.025 159.611 162.155 159.402 164.069 160.784C165.605 161.894 167.629 160.385 167.665 158.719C167.677 158.128 167.652 157.544 167.589 156.969C167.204 153.418 165.468 150.206 163.511 147.226C162.442 145.596 161.316 143.996 160.184 142.411C159.918 142.037 159.656 141.663 159.402 141.283C163.951 134.583 167.559 127.154 169.777 119.391C172.108 111.222 172.9 102.751 172.38 94.2869C171.582 81.3142 168.024 67.5849 159.062 57.7867Z" fill="black"/>
<path fill-rule="evenodd" clip-rule="evenodd" d="M143.152 128.274C141.732 127.695 140.465 126.728 139.538 125.493C139.216 125.063 139.133 124.61 139.2 124.195C139.276 123.729 139.552 123.306 139.928 123.023C140.305 122.739 140.777 122.598 141.233 122.67C141.63 122.732 142.024 122.949 142.337 123.399L142.402 123.489C142.953 124.235 143.67 124.846 144.488 125.241C145.276 125.621 146.158 125.798 147.07 125.695C148.808 125.499 150.005 124.559 151.278 123.282C151.436 123.121 151.594 122.955 151.752 122.786C151.852 122.633 151.991 122.534 152.146 122.483C152.317 122.425 152.511 122.429 152.689 122.491C152.86 122.55 153.013 122.664 153.116 122.815C153.213 122.958 153.269 123.135 153.251 123.339C153.134 124.661 152.443 125.842 151.461 126.769C150.37 127.799 148.924 128.511 147.563 128.761C146.064 129.036 144.536 128.839 143.152 128.274ZM148.271 107.866C149.866 108.836 152.297 111.098 150.581 113.503C148.56 115.624 145.652 113.193 144.219 112.093C142.89 111.241 141.396 113.433 142.629 114.428C152.987 122.099 157.19 108.12 149.078 106.726C148.184 106.572 147.853 107.566 148.271 107.866ZM129.711 98.9429C129.887 96.7541 133.219 96.257 133.551 98.423C133.847 100.363 133.498 102.145 132.624 103.892C131.79 105.561 129.692 104.783 129.533 103.263C129.32 101.226 129.601 100.304 129.711 98.9429ZM155.076 97.9739C155.541 97.3652 156.212 96.9497 157.015 97.1845C159.526 97.9185 158.786 101.485 157.904 103.22C157.425 104.163 155.876 104.402 155.176 103.572C154.036 102.219 153.489 99.5157 154.94 98.1825C154.979 98.1136 155.023 98.044 155.076 97.9739ZM132.589 89.3654L132.986 89.2959C134.213 89.0836 135.738 88.8796 136.606 89.8665C137.067 90.3898 137.225 91.3624 136.606 91.8633C135.518 92.7446 134.314 92.4031 133.01 92.4777C131.935 92.5394 130.902 92.7174 129.867 93.0135C127.595 93.663 125.744 94.8486 123.804 96.1505C123.55 96.3213 123.29 95.9956 123.411 95.7574C124.531 93.563 126.701 91.7604 128.875 90.6616C130.036 90.0751 131.305 89.5885 132.589 89.3654ZM152.787 88.3823L153.091 88.4445C156.395 89.1353 160.687 90.5153 162.251 93.7615C162.311 94.2205 162.248 94.3189 162.197 94.3832L162.18 94.4046C162.137 94.4595 162.104 94.5351 161.905 94.5976C161.85 94.5844 161.794 94.5705 161.737 94.5557C161.02 94.3677 160.453 94.1087 159.904 93.84L159.308 93.5465C158.617 93.2076 157.92 92.881 157.181 92.6399C155.605 92.1255 153.983 91.7631 152.337 91.5696C151.98 91.5277 151.636 91.4072 151.365 91.2006C151.108 91.0046 150.911 90.7332 150.821 90.3724C150.705 89.9056 150.739 89.5521 150.989 89.1309C151.177 88.8146 151.447 88.5953 151.756 88.4694C152.071 88.3411 152.43 88.3108 152.787 88.3823Z" fill="black"/>
<path fill-rule="evenodd" clip-rule="evenodd" d="M167.178 109.154C164.613 111.805 160.331 112.566 156.919 111.144C148.156 107.481 152.445 96.0579 159.203 92.9901C160.047 92.7796 161.175 92.2802 162.203 92.1669C162.296 92.1213 162.498 92.2534 162.743 92.1285C170.195 92.9608 171.892 104.533 167.178 109.154ZM138.915 109.832C136.038 113.649 130.69 114.827 126.32 113.053C117.687 109.652 120.749 99.5217 126.656 95.5504C139.132 90.8604 144.285 102.794 138.915 109.832ZM120.201 101.374C120.193 101.371 120.185 101.369 120.177 101.365C120.222 101.345 120.268 101.325 120.313 101.304C120.299 101.343 120.283 101.381 120.268 101.42C120.246 101.404 120.226 101.386 120.201 101.374ZM173.117 97.2482C172.413 97.2497 171.395 97.3655 170.812 97.8544C169.374 93.0032 164.067 88.5135 159.451 91.7873C155.816 92.9567 153.119 95.5502 151.586 98.9982C148.822 97.3535 144.476 98.0558 142.079 100.231C140.509 95.0419 136.646 93.2249 132.048 92.9567C127.029 92.1344 122.027 97.0104 120.466 100.922C119.168 100.774 117.229 100.361 116.008 101.162C108.084 99.0836 94.2299 97.9374 92.619 99.0924C91.471 99.5331 90.841 102.244 92.4445 102.39C93.8418 102.192 92.2814 100.404 93.6899 100.209C101.195 99.7434 108.48 101.255 115.906 101.89C116.569 102.782 118.711 103.08 119.854 102.722C118.054 109.358 121.939 113.872 127.76 115.224C136.775 117.296 144.617 109.229 142.26 100.838C144.991 99.4792 148.131 99.5375 151.106 100.253C146.135 118.554 175.598 117.733 170.997 98.4814C174.059 100.005 174.724 97.5557 173.117 97.2482Z" fill="black"/>
</svg>
