<svg width="240" height="324" viewBox="0 0 240 324" fill="none" xmlns="http://www.w3.org/2000/svg">
<path fill-rule="evenodd" clip-rule="evenodd" d="M44.6259 211.468C44.9827 210.445 46.615 210.888 46.2556 211.917C44.4083 217.21 45.7188 222.971 47.7159 228.024C48.1166 229.038 46.4814 229.473 46.0862 228.473C43.9853 223.158 42.6856 217.027 44.6259 211.468ZM57.0123 241.704C62.2221 242.437 67.4362 242.889 72.682 243.255C72.9165 243.272 73.1193 243.236 73.2947 243.16C73.1383 245.563 73.0116 247.968 72.9123 250.373C71.482 250.333 70.0221 250.428 68.6045 250.39C66.7517 250.339 64.901 250.246 63.0524 250.105C59.4735 249.834 55.901 249.403 52.3623 248.807C51.0397 248.585 49.3602 248.45 47.8538 248.01C46.4299 247.594 45.1623 246.905 44.4968 245.607C43.9306 244.508 43.8271 243.162 43.8271 241.947C43.8271 241.11 43.9707 240.26 44.0574 239.417C44.1651 239.341 44.2623 239.25 44.3405 239.149C45.9123 239.645 47.5433 239.994 49.1405 240.332C51.7412 240.886 54.3799 241.334 57.0123 241.704ZM54.074 222.162C54.1027 223.777 54.5495 225.244 55.4189 226.604C56.0071 227.525 54.5436 228.372 53.9595 227.458C52.9361 225.857 52.4176 224.059 52.3838 222.162C52.3644 221.071 54.0545 221.075 54.074 222.162ZM187.622 239.784C188.328 239.824 189.037 239.848 189.745 239.886C190.369 240.42 191.233 240.693 192.022 240.523C192.049 240.592 192.074 240.668 192.097 240.757C192.236 241.3 192.306 241.883 192.386 242.437C192.467 242.982 192.528 243.532 192.57 244.081C192.591 244.358 192.724 244.984 192.555 245.225C192.403 245.442 192.067 245.423 191.835 245.451C191.209 245.518 190.576 245.55 189.946 245.603C188.757 245.707 187.567 245.81 186.38 245.914C185.216 246.015 183.938 245.984 182.799 246.29C182.605 244.005 182.427 241.721 182.262 239.434C184.026 239.694 185.871 239.687 187.622 239.784ZM39.7095 235.995C40.4193 237.367 41.0743 238.715 42.4327 239.539C42.6102 239.645 42.8088 239.702 43.0116 239.717C42.8595 240.37 42.7644 241.038 42.6799 241.655C42.494 243.014 42.4538 244.419 42.794 245.759C43.1257 247.063 43.675 248.228 44.7524 249.063C45.2531 249.452 45.8003 249.748 46.375 249.982C46.2778 250.255 46.2207 250.526 46.2503 250.824C46.113 251.514 46.0221 252.218 45.9228 252.892C45.7052 254.389 45.4876 255.887 45.3165 257.392C44.9743 260.385 44.7059 263.378 44.4799 266.381C44.2538 269.376 44.0912 272.375 43.9559 275.376C43.8862 276.91 43.825 278.445 43.7679 279.981C43.7109 281.56 43.4552 283.175 44.1524 284.64C44.7144 285.823 46.6137 285.755 47.1968 284.64C47.9362 283.221 47.7186 281.537 47.7376 279.981C47.7566 278.517 47.782 277.05 47.8137 275.585C47.8771 272.586 47.97 269.589 48.044 266.59C48.1158 263.663 48.2045 260.738 48.2637 257.811C48.2933 256.278 48.2954 254.746 48.3038 253.214C48.3081 252.364 48.344 251.458 48.2806 250.572C48.8088 250.696 49.3412 250.802 49.8672 250.91C53.8834 251.734 57.9419 252.334 62.0257 252.706C64.0771 252.892 66.1348 253.023 68.1926 253.098C69.7052 253.152 71.2729 253.258 72.8088 253.201C72.6883 256.87 72.6334 260.541 72.6398 264.213C72.644 266.861 72.6799 269.509 72.7454 272.157C72.7813 273.55 72.8109 274.943 72.8531 276.335C72.8721 276.961 72.8721 277.593 72.9144 278.216C72.9271 278.411 72.9545 278.599 72.9905 278.785C72.851 279.18 72.7348 279.571 72.6398 279.937C72.175 281.712 72.175 283.418 72.382 285.227C72.5595 286.761 73.8503 288.184 75.5552 287.645C75.832 287.558 76.1088 287.467 76.3834 287.374C78.8933 287.66 81.4179 287.725 83.9637 287.774C87.6841 287.846 91.4067 287.869 95.1292 287.888C102.431 287.926 109.734 287.945 117.038 287.966C131.714 288.008 146.391 288.048 161.068 288.091C165.141 288.104 169.214 288.114 173.288 288.127C175.396 288.133 177.5 288.135 179.607 288.216C180.589 288.254 181.574 288.306 182.556 288.321C183.695 288.34 184.702 288.012 185.79 287.715C186.405 287.543 186.648 286.926 186.517 286.404C187.502 286.639 188.695 286.14 189.031 285.031C189.276 284.225 189.186 283.352 188.82 282.606V282.604C188.114 278.147 187.219 273.71 186.515 269.251C185.744 264.367 185.002 259.472 184.35 254.569C183.859 250.866 183.456 253.491 183.107 249.771C184.626 249.889 186.344 249.426 187.848 249.23C188.928 249.09 190.016 248.978 191.098 248.83C191.017 249.921 191.04 251.033 191.011 252.079C190.954 254.156 190.979 256.225 191.032 258.303C191.133 262.312 191.359 259.979 191.721 263.971C192.086 267.993 192.534 272.001 193.077 276.004C193.356 278.064 193.654 280.123 193.969 282.179C194.114 283.139 194.264 284.096 194.419 285.056C194.602 286.186 194.662 287.258 195.509 288.108C196.153 288.752 197.469 288.697 197.896 287.799C198.437 286.664 198.192 285.692 197.991 284.5C197.828 283.542 197.672 282.585 197.518 281.628C197.188 279.575 196.876 277.521 196.582 275.465C196.016 271.502 195.481 267.533 195.004 263.559C194.522 259.554 194.024 261.894 193.55 257.889C193.312 255.868 193.073 253.852 192.794 251.838C192.652 250.802 192.564 249.699 192.378 248.632C192.437 248.623 192.496 248.613 192.555 248.602C193.84 248.367 194.936 247.642 195.259 246.319C195.568 245.053 195.2 243.597 194.94 242.355C194.719 241.296 194.518 239.945 193.837 239.038C196.237 235.98 197.798 232.132 198.794 228.432C199.878 224.401 200.332 220.194 200.429 216.029C200.54 211.203 200.177 206.406 199.35 201.687C199.33 200.687 199.284 199.688 199.21 198.69C198.483 188.892 195.433 177.295 185.761 172.717C185.723 172.698 185.683 172.681 185.643 172.664C184.884 171.757 183.938 170.941 183.173 170.179C181.819 168.826 180.403 167.532 178.903 166.34C175.933 163.98 172.675 162.094 169.288 160.397C165.864 158.679 162.388 157.066 159.042 155.192C156.126 153.556 153.502 151.586 151.012 149.362C148.212 146.862 146.22 143.491 145.438 139.812C145.398 139.619 145.113 139.672 145.109 139.856C144.904 146.6 149.455 152.56 154.692 156.331C160.954 160.835 168.515 162.967 174.866 167.334C176.444 168.418 177.921 169.642 179.326 170.941C177.173 170.722 174.982 170.861 172.964 171.457C172.17 171.408 171.371 171.394 170.575 171.356C168.754 171.265 166.931 171.18 165.107 171.1C161.391 170.935 157.673 170.785 153.955 170.654C146.659 170.396 139.362 170.202 132.065 170.073C117.401 169.813 102.718 169.762 88.056 170.187C84.0799 170.301 63.1728 169.509 61.2376 169.732C64.0834 167.268 67.2059 165.256 70.639 163.601C74.9341 161.536 79.3728 160.158 83.9595 158.899C93.4052 156.305 103.214 153.805 110.774 147.217C112.652 145.579 114.321 143.696 115.688 141.61C116.993 139.619 118.445 137.07 118.481 134.642C118.506 132.918 116.106 132.29 115.252 133.767C114.722 134.682 114.46 135.686 114.027 136.646C113.596 137.597 113.085 138.514 112.517 139.391C111.399 141.116 110.013 142.654 108.505 144.043C105.289 147.006 101.393 149.177 97.3623 150.819C88.2102 154.545 78.2003 156.117 69.5278 161.029C65.7334 163.178 62.1017 166.144 59.8221 169.927C59.4545 169.984 59.089 170.052 58.7236 170.128C58.9961 169.783 59.2707 169.439 59.5475 169.096C59.7292 168.872 59.4482 168.577 59.2264 168.775C54.9144 172.613 50.9426 176.758 47.3426 181.276C43.8989 185.601 40.6876 190.132 38.4144 195.196C34.3285 204.293 33.4285 214.697 35.539 224.424C36.1137 227.074 36.925 229.669 37.9581 232.178C38.4904 233.474 39.0672 234.75 39.7095 235.995Z" fill="black"/>
<path fill-rule="evenodd" clip-rule="evenodd" d="M96.7428 50.1333C103.675 43.8245 112.909 40.7895 122.226 41.0135C127.051 41.1297 131.86 42.0491 136.417 43.6237C138.696 44.4141 140.904 45.4455 143.015 46.6122C143.775 47.0316 144.476 47.5231 145.151 48.0451L145.32 48.1762H145.322C147.132 48.8271 148.748 49.9959 150.215 51.3633C153.153 51.1287 156.115 51.3929 158.957 52.2996C162.912 53.5635 166.573 55.8778 169.144 59.1643C172.139 62.9904 173.135 67.6314 172.78 72.4224L172.714 73.2363C172.363 77.4685 171.733 82.9121 168.261 85.693C167.997 85.9043 167.706 86.0649 167.403 86.1622C169.641 89.996 171.477 94.2526 172.575 98.5515C176.769 114.971 173.545 132.095 168.502 147.921C168.088 149.225 166.117 150.091 165.113 148.817C163.322 146.539 160.719 144.801 157.791 144.476C155.984 144.275 154.187 144.639 152.479 143.819C151.81 143.495 151.163 142.967 150.698 142.324C147.817 143.417 144.713 143.933 141.635 143.806C136.584 143.599 131.184 141.849 127.708 138.011C127.151 137.395 127.009 136.703 127.138 136.079C127.574 135.924 128.021 135.808 128.482 135.735C132.889 138.334 137.747 140.07 142.968 140.179C145.984 140.242 148.927 139.82 151.373 137.936C151.902 137.528 152.389 137.076 152.839 136.591C157.953 133.3 161.559 127.71 163.273 121.722C164.87 116.138 164.674 110.324 164.125 104.596L163.835 101.574C163.412 97.1376 163.02 92.6883 162.911 88.2334L162.944 88.2317C164.024 88.1619 164.032 86.4705 162.944 86.5409C160.13 86.7231 157.337 86.2613 154.532 86.4625C154.509 85.1358 154.413 83.8151 154.023 82.5356C153.801 81.8045 152.528 81.6604 152.394 82.5356C152.213 83.7065 152.147 84.8708 152.128 86.047C147.93 85.9912 143.736 85.6378 139.537 85.783C138.762 84.9566 138.516 83.4913 138.153 82.472C138.101 82.3219 138.048 82.174 137.993 82.0239C137.674 83.4805 137.223 84.9053 136.63 86.3L135.6 86.3034C129.757 86.3309 123.796 86.5056 118.091 87.7194C117.694 87.4148 117.458 86.8835 117.394 86.401C116.98 83.2612 116.39 80.2049 115.343 77.2128L115.193 76.7907C115.181 76.7556 115.168 76.7184 115.155 76.6793C114.383 77.9248 113.463 79.0857 112.459 80.1668C111.868 80.804 111.247 81.4133 110.611 82.0053C109.992 82.6922 109.353 83.3687 108.734 84.0577C108.758 84.1831 108.779 84.3103 108.797 84.4399C108.986 85.8696 109.006 87.3197 108.867 88.755C108.616 91.3497 107.884 93.85 106.707 96.163L106.67 96.3946C106.491 97.4786 106.237 98.5988 105.644 99.4151C106.384 100.245 106.955 101.237 107.286 102.339C107.58 103.32 106.224 104.17 105.52 103.367C104.962 102.729 104.341 102.202 103.659 101.781C103.616 101.839 103.538 101.868 103.451 101.819C101.551 100.764 98.3252 101.083 96.4281 102.077C94.0682 103.311 93.1471 105.845 93.409 108.413C93.6605 110.867 94.7337 113.735 96.8147 114.992C97.7696 115.569 98.5133 115.618 99.5274 115.341C99.8516 115.253 100.254 114.983 100.426 114.849L100.596 114.712C101.261 114.187 101.88 113.827 102.665 113.813C103.467 113.563 104.274 113.91 104.581 114.752L104.6 114.806C104.744 115.235 105.006 115.774 104.948 116.43C104.889 117.131 104.568 117.77 104.089 118.283C104.006 118.372 103.917 118.461 103.827 118.543C112.087 127.49 113.148 141.43 108.912 152.606C108.728 153.097 108.532 153.581 108.327 154.061C107.619 155.705 104.894 155.196 104.547 153.566C104.444 153.078 104.329 152.592 104.205 152.11C103.976 151.219 103.713 150.337 103.417 149.468L103.305 149.142C103.053 148.424 102.819 147.699 102.565 146.98L102.54 146.898C102.531 146.866 102.52 146.828 102.508 146.786L102.079 147.722L100.776 150.548C100.166 151.867 98.2279 151.15 98.1558 149.879L98.1541 149.836C98.1478 149.601 98.1393 149.369 98.1245 149.138C98.0316 147.411 97.7337 145.733 97.2605 144.091L97.0897 144.303C94.5473 147.448 91.5635 150.395 87.4703 151.121C86.4436 151.302 85.2816 150.229 85.9872 149.191C86.2788 148.762 86.5598 148.322 86.8259 147.876C86.5957 147.769 86.3781 147.657 86.1774 147.543C84.6245 146.67 83.3316 145.427 82.2626 144.017C79.9957 141.029 79.1844 137.267 78.9858 133.585C78.7745 129.694 79.1168 125.592 80.1795 121.838C80.64 120.215 81.2633 118.657 81.9837 117.146C81.933 117.011 81.8844 116.876 81.8358 116.74C81.0583 114.572 80.4203 112.355 79.89 110.112C78.821 105.585 78.2464 100.914 78.1767 96.2626C78.0499 87.929 79.4865 79.4623 82.514 71.691C85.6407 63.6766 90.3436 55.956 96.7428 50.1333ZM92.8492 122.994C92.275 122.09 90.8384 122.905 91.3716 123.815L91.3914 123.848C92.302 125.283 92.7288 126.915 93.2527 128.515C93.5886 129.544 95.2217 129.104 94.8816 128.064L94.769 127.717C94.2476 126.095 93.772 124.446 92.8492 122.994ZM97.8499 105.731L98.2313 105.546C99.4346 104.972 100.489 104.581 101.91 105.082C103.814 105.752 105.853 107.885 104.566 109.954C104.093 110.717 103.252 111.021 102.386 110.841C100.926 110.539 100.549 109.223 99.8076 108.143L99.6801 107.96C99.2283 107.307 98.657 106.404 97.9048 106.147C97.7337 106.088 97.6619 105.822 97.8499 105.731ZM98.9228 61.8L99.0457 61.6899C99.8633 60.9671 98.6633 59.7751 97.8499 60.4937C94.1274 63.7844 92.8344 68.935 90.9034 73.3247C90.4703 74.3117 91.9259 75.174 92.3633 74.1786C94.2052 69.9897 95.4279 64.9789 98.9228 61.8ZM143.657 60.3605C142.684 59.922 141.833 61.3381 142.768 61.8043L142.803 61.8209C146.091 63.3067 147.489 66.6714 148.829 69.7952C149.256 70.7928 150.711 69.9326 150.289 68.9434L150.047 68.3829C148.649 65.1638 147.019 61.8825 143.657 60.3605ZM148.81 58.3273C147.779 57.9701 147.337 59.6018 148.36 59.9589C151.146 60.929 153.058 63.0214 154.67 65.4139C155.275 66.31 156.739 65.4646 156.128 64.56C154.256 61.7829 152.034 59.4517 148.81 58.3273Z" fill="black"/>
<path fill-rule="evenodd" clip-rule="evenodd" d="M143.152 128.274C141.732 127.695 140.465 126.728 139.538 125.493C139.216 125.063 139.133 124.61 139.2 124.195C139.276 123.729 139.552 123.306 139.928 123.023C140.305 122.739 140.777 122.598 141.233 122.67C141.63 122.732 142.024 122.949 142.337 123.399L142.402 123.489C142.953 124.235 143.67 124.846 144.488 125.241C145.276 125.621 146.158 125.798 147.07 125.695C148.808 125.499 150.005 124.559 151.278 123.282C151.436 123.121 151.594 122.955 151.752 122.786C151.852 122.633 151.991 122.534 152.146 122.483C152.317 122.425 152.511 122.429 152.689 122.491C152.86 122.55 153.013 122.664 153.116 122.815C153.213 122.958 153.269 123.135 153.251 123.339C153.134 124.661 152.443 125.842 151.461 126.769C150.37 127.799 148.924 128.511 147.563 128.761C146.064 129.036 144.536 128.839 143.152 128.274ZM148.271 107.866C149.866 108.836 152.297 111.098 150.581 113.503C148.56 115.624 145.652 113.193 144.219 112.093C142.89 111.241 141.396 113.433 142.629 114.428C152.987 122.099 157.19 108.12 149.078 106.726C148.184 106.572 147.853 107.566 148.271 107.866ZM129.711 98.9429C129.887 96.7541 133.219 96.257 133.551 98.423C133.847 100.363 133.498 102.145 132.624 103.892C131.79 105.561 129.692 104.783 129.533 103.263C129.32 101.226 129.601 100.304 129.711 98.9429ZM155.076 97.9739C155.541 97.3652 156.212 96.9497 157.015 97.1845C159.526 97.9185 158.786 101.485 157.904 103.22C157.425 104.163 155.876 104.402 155.176 103.572C154.036 102.219 153.489 99.5157 154.94 98.1825C154.979 98.1136 155.023 98.044 155.076 97.9739ZM132.589 89.3654L132.986 89.2959C134.213 89.0836 135.738 88.8796 136.606 89.8665C137.067 90.3898 137.225 91.3624 136.606 91.8633C135.518 92.7446 134.314 92.4031 133.01 92.4777C131.935 92.5394 130.902 92.7174 129.867 93.0135C127.595 93.663 125.744 94.8486 123.804 96.1505C123.55 96.3213 123.29 95.9956 123.411 95.7574C124.531 93.563 126.701 91.7604 128.875 90.6616C130.036 90.0751 131.305 89.5885 132.589 89.3654ZM152.787 88.3823L153.091 88.4445C156.395 89.1353 160.687 90.5153 162.251 93.7615C162.311 94.2205 162.248 94.3189 162.197 94.3832L162.18 94.4046C162.137 94.4595 162.104 94.5351 161.905 94.5976C161.85 94.5844 161.794 94.5705 161.737 94.5557C161.02 94.3677 160.453 94.1087 159.904 93.84L159.308 93.5465C158.617 93.2076 157.92 92.881 157.181 92.6399C155.605 92.1255 153.983 91.7631 152.337 91.5696C151.98 91.5277 151.636 91.4072 151.365 91.2006C151.108 91.0046 150.911 90.7332 150.821 90.3724C150.705 89.9056 150.739 89.5521 150.989 89.1309C151.177 88.8146 151.447 88.5953 151.756 88.4694C152.071 88.3411 152.43 88.3108 152.787 88.3823Z" fill="black"/>
<path fill-rule="evenodd" clip-rule="evenodd" d="M166.085 109.758C164.662 111.67 162.025 112.279 159.593 112.068C154.347 111.563 152.696 105.603 152.524 100.97C156.042 101.96 152.226 94.9491 164.252 94.1781C168.491 93.8247 167.322 96.3858 169.195 98.2571C169.156 102.184 168.503 106.452 166.085 109.758ZM141.098 105.245C138.001 119.755 121.041 116.304 119.259 103.224C120.904 102.063 120.471 99.1945 122.515 98.1553C125.754 96.0849 129.803 96.1734 133.481 96.222C138.183 96.5452 139.523 98.4936 141.938 100.619C141.822 102.039 141.487 103.722 141.098 105.245ZM172.803 91.775C172.629 91.7461 172.455 91.7188 172.281 91.6932C172.145 91.6161 171.986 91.5567 171.8 91.521C171.377 91.4134 170.956 91.3409 170.536 91.3018C164.508 89.9447 150.563 91.8716 149.988 97.0176C148.068 97.6586 146.407 97.0846 144.182 97.1416C142.489 90.0603 113.211 91.0598 111.803 95.3291C111.797 95.3276 111.792 95.3263 111.786 95.3246C110.433 94.9057 108.439 95.0068 106.89 94.9404C103.584 94.8711 100.273 95.1659 97.0383 95.8636C90.9802 96.8267 82.7122 97.9543 86.9255 105.522C86.9264 105.524 86.927 105.525 86.9281 105.526L86.9287 105.526C87.6548 106.27 88.8872 105.671 88.933 104.663C87.5164 101.077 90.7159 100.647 93.1776 99.6165C99.3029 97.4151 105.539 97.1099 111.874 97.7909C112.351 98.3522 113.074 98.8417 113.838 99.0979C118.074 99.8012 115.842 102.944 118.519 103.402C118.027 114.358 131.325 120.339 139.029 113.137C142.106 110.128 142.839 105.671 143.552 101.653C143.929 101.568 144.169 101.362 144.309 101.089C145.216 100.183 145.786 99.3466 147.579 99.0979C149.373 98.8493 150.753 99.3483 150.94 99.5011C150.987 99.596 151.038 99.6911 151.097 99.7862C151.179 99.9281 151.29 100.041 151.417 100.13C149.646 111.041 158.113 117.941 166.66 112.282C170.375 108.787 171.159 103.436 171.314 98.66C171.818 98.356 172.137 97.767 171.962 97.0264C171.722 96.0056 172.285 95.1217 173.183 94.6779C174.348 94.1016 174.142 91.9967 172.803 91.775Z" fill="black"/>
</svg>
