<svg width="240" height="324" viewBox="0 0 240 324" fill="none" xmlns="http://www.w3.org/2000/svg">
<path fill-rule="evenodd" clip-rule="evenodd" d="M183.891 212.676C182.629 213.133 180.859 213.578 179.957 214.611C179.853 213.649 179.748 212.686 179.642 211.724C182.287 211.661 184.937 211.638 187.583 211.564C186.334 211.87 185.1 212.238 183.891 212.676ZM178.08 273.217C177.17 273.225 176.257 273.288 175.347 273.324C173.596 273.392 171.844 273.459 170.092 273.524C166.518 273.658 162.944 273.788 159.369 273.912C152.291 274.158 145.212 274.385 138.132 274.594C123.973 275.011 109.806 275.263 95.6486 275.739C91.721 275.871 87.7935 275.974 83.8694 276.188C81.836 276.299 79.793 276.394 77.7693 276.63C76.062 276.828 74.3791 277.164 72.6813 277.414C72.7952 275.2 72.9019 272.987 73.0128 270.774C73.1178 268.681 73.2158 266.587 73.3132 264.493C79.9405 264.839 86.5755 264.98 93.2117 265.039C100.231 265.102 107.249 265.276 114.269 265.289C128.166 265.317 142.065 265.142 155.962 265.002C159.892 264.963 163.823 264.923 167.754 264.884C169.719 264.864 171.684 264.844 173.649 264.824C174.631 264.815 175.617 264.836 176.598 264.795C177.644 264.752 178.279 264.454 179.038 263.75C179.443 263.374 179.46 262.609 179.038 262.237C178.429 261.698 177.863 261.285 177.019 261.225C176.189 261.166 175.324 261.247 174.492 261.258C172.667 261.282 170.842 261.306 169.017 261.33C165.507 261.376 161.998 261.423 158.488 261.469C151.469 261.561 144.45 261.655 137.431 261.762C130.553 261.867 123.673 261.946 116.795 262.119C109.773 262.295 102.759 262.615 95.7384 262.84C88.2655 263.081 80.7963 263.367 73.3403 263.928C73.5194 260.047 73.6844 256.165 73.8397 252.282C88.6443 253.088 103.459 253.662 118.288 253.687C133.738 253.713 149.187 253.449 164.63 253.046C166.807 252.989 168.983 252.931 171.159 252.863C172.282 252.828 173.405 252.795 174.528 252.755C175.354 252.725 176.202 252.689 176.949 252.294C178.422 251.515 178.676 249.239 176.928 248.616C175.973 248.276 174.959 248.609 174.727 249.47C174.656 249.477 174.588 249.483 174.528 249.485C173.686 249.517 172.843 249.54 172.001 249.567C170.176 249.625 168.351 249.684 166.526 249.742C163.156 249.847 159.787 249.945 156.417 250.034C149.537 250.216 142.656 250.365 135.774 250.479C122.149 250.706 108.526 250.916 94.9029 251.228C87.8875 251.388 80.8743 251.597 73.8598 251.775C74.0273 247.554 74.1855 243.334 74.3281 239.113C74.3448 238.618 74.363 238.123 74.381 237.629C75.3862 237.85 76.4155 237.972 77.4395 238.117C79.2165 238.368 80.9989 238.555 82.7835 238.743C86.146 239.098 89.5196 239.316 92.8946 239.502C99.7753 239.882 106.658 240.149 113.546 240.359C127.171 240.774 140.813 240.865 154.444 240.818C161.846 240.793 169.293 240.89 176.691 240.568C177.147 240.692 177.617 240.679 178.071 240.531C178.444 247.129 178.838 253.726 179.225 260.324C179.487 264.775 179.717 269.241 180.038 273.694C179.411 273.385 178.834 273.21 178.08 273.217ZM49.8129 206.181C48.5148 205.546 47.0833 204.966 45.9374 204.066C44.6848 203.082 44.3772 201.927 44.7621 200.382C44.7908 200.267 44.8246 200.152 44.8546 200.037C54.0851 200.06 63.2922 199.654 72.5186 199.434C81.8926 199.212 91.2631 199.025 100.64 198.972C119.339 198.867 138.036 199.289 156.727 199.814C163.458 200.003 170.189 200.189 176.921 200.373C176.767 202.015 176.826 203.697 176.791 205.327C176.761 206.759 176.769 208.193 176.79 209.627C173.269 209.618 169.748 209.542 166.226 209.502C157.507 209.404 148.793 209.654 140.077 209.854C122.644 210.253 105.206 210.567 87.777 211.092C83.0431 211.234 78.2789 211.309 73.5232 211.512C73.3597 210.739 73.1782 209.969 72.9735 209.204C72.6481 207.989 72.281 206.741 71.3081 205.897C71.2614 205.856 71.1967 205.874 71.1758 205.932C70.8063 206.956 70.8997 207.999 71.0079 209.073C71.0934 209.92 71.1513 210.771 71.1942 211.622C68.2371 211.778 65.2861 211.996 62.3505 212.324C61.5112 211.909 60.6714 211.495 59.8303 211.083C56.4917 209.448 53.1519 207.815 49.8129 206.181ZM156.974 236.685C150.087 236.74 143.2 236.746 136.313 236.702C122.68 236.614 109.052 236.279 95.4228 236.008C91.6295 235.933 87.8412 235.858 84.0473 235.858C82.0831 235.858 80.1124 235.871 78.1504 235.957C76.9155 236.01 75.6636 236.018 74.4344 236.166C74.5827 232.194 74.7372 228.218 74.7323 224.243C87.735 226.213 100.877 226.755 114.008 227.142C127.312 227.535 140.618 227.738 153.927 227.758C157.71 227.764 161.492 227.755 165.274 227.733C167.095 227.722 168.916 227.708 170.737 227.691C171.716 227.682 172.7 227.702 173.678 227.66C174.713 227.617 175.337 227.372 176.06 226.636C176.429 226.259 176.448 225.61 176.06 225.235C174.77 223.99 173.253 224.261 171.577 224.281C169.897 224.302 168.216 224.32 166.535 224.335C163.173 224.366 159.811 224.386 156.449 224.394C149.865 224.411 143.281 224.386 136.698 224.318C123.392 224.182 110.089 223.886 96.7867 223.575C89.4325 223.402 82.0798 223.45 74.7315 223.806C74.7287 223.147 74.7226 222.487 74.7097 221.827C74.6613 219.328 74.4179 216.829 74.0372 214.357C77.6385 214.345 81.2396 214.268 84.8246 214.222C93.5421 214.11 102.258 213.934 110.974 213.759C119.621 213.586 128.267 213.413 136.913 213.239C145.554 213.066 154.222 213.053 162.852 212.587C167.51 212.335 172.169 211.992 176.83 211.812C176.839 212.24 176.848 212.669 176.857 213.096C176.97 218.347 177.175 223.593 177.439 228.839C177.567 231.359 177.701 233.88 177.839 236.4C177.772 236.393 177.704 236.389 177.634 236.388C170.752 236.343 163.857 236.629 156.974 236.685ZM47.9949 191.081C48.7834 189.052 49.6398 187.036 50.5656 185.048C54.496 186.158 58.6886 186.73 62.745 187.111C67.0633 187.517 71.39 187.745 75.7261 187.834C84.2744 188.008 92.8227 187.603 101.362 187.25C118.926 186.524 136.488 185.994 154.069 185.96C158.978 185.951 163.888 185.973 168.797 186.029C171.251 186.056 173.706 186.09 176.16 186.132C177.423 186.154 178.685 186.177 179.947 186.203C180.506 186.215 181.071 186.256 181.63 186.239C182.377 186.217 182.922 185.992 183.615 185.722C184.411 185.412 184.88 184.081 183.887 183.639C182.895 183.199 182.099 182.94 180.999 182.916C179.807 182.891 178.614 182.867 177.423 182.845C175.249 182.806 173.075 182.772 170.901 182.745C166.483 182.69 162.064 182.667 157.646 182.667C148.949 182.668 140.252 182.771 131.558 182.976C114.103 183.387 96.6868 184.604 79.2382 185.126C74.4289 185.27 69.6105 185.298 64.801 185.154C60.1426 185.014 55.4941 184.622 50.8413 184.457C52.4484 181.068 54.2668 177.767 56.3186 174.629C64.0749 174.901 71.8145 174.7 79.5724 174.463C83.6434 174.339 87.7143 174.213 91.7848 174.074C93.8201 174.004 95.8555 173.934 97.8908 173.865C98.8734 173.831 99.856 173.797 100.839 173.764C101.897 173.727 103.011 173.796 104.039 173.517C104.225 173.467 104.373 173.359 104.484 173.222C107.221 174.63 110.115 175.741 113.091 176.564C119.551 178.351 126.499 179.021 133.181 178.471C138.543 178.03 143.886 176.702 148.601 174.103C159.247 175.083 170.043 174.622 180.712 174.553C181.731 174.546 182.155 173.612 181.984 172.841C185.408 180.223 187.677 188.226 189.8 196.01C191.119 200.848 192.292 205.715 193.409 210.601C193.363 210.605 193.316 210.609 193.27 210.613C193.4 210.078 193.108 209.447 192.376 209.431C188.058 209.331 183.726 209.58 179.407 209.62C179.285 208.539 179.164 207.458 179.036 206.377C178.861 204.905 178.653 203.437 178.474 201.965C178.41 201.432 178.35 200.917 178.277 200.41C181.697 200.503 185.116 200.597 188.536 200.687C190.756 200.746 190.752 197.307 188.536 197.239C169.743 196.664 150.949 196.082 132.149 195.763C113.337 195.443 94.4613 195.246 75.6644 196.211C65.4211 196.737 55.2031 197.439 45.0872 199.173C45.8729 196.43 46.969 193.722 47.9949 191.081ZM63.9919 164.953C64.3322 165.208 64.4412 165.369 64.95 165.459C65.5016 165.555 66.0688 165.586 66.6258 165.64C67.8173 165.757 69.0118 165.801 70.2074 165.857C72.5947 165.971 74.9818 166.091 77.3708 166.164C82.1131 166.308 86.9571 166.511 91.6973 166.301C92.8569 166.249 93.3845 165.292 93.2791 164.421C94.1681 165.522 95.1401 166.556 96.1753 167.499C97.8397 169.014 99.6363 170.357 101.53 171.542C100.302 171.587 99.0505 171.741 97.8908 171.791C95.9256 171.875 93.9604 171.96 91.9952 172.044C87.8539 172.222 83.7131 172.413 79.5724 172.607C71.9091 172.965 64.272 173.411 56.6379 174.142C58.8181 170.864 61.2604 167.773 63.9919 164.953ZM188.718 180.874C185.48 171.983 181.306 162.748 173.793 156.641C169.932 153.502 165.63 151.33 160.758 150.302C160.609 150.27 160.549 150.483 160.695 150.531C169.12 153.296 175.355 160.613 179.572 168.111C180.337 169.47 181.045 170.861 181.714 172.273C181.496 172.007 181.163 171.831 180.712 171.838C170.749 172.006 160.669 171.837 150.729 172.81C150.983 172.641 151.237 172.472 151.485 172.295C154.201 170.359 156.644 167.99 158.664 165.307C159.88 165.616 161.161 165.691 162.402 165.809C164.059 165.966 165.727 166.038 167.389 166.128C169.048 166.217 170.714 166.225 172.375 166.265C173.516 166.293 175.748 166.483 175.749 164.736C175.751 162.987 173.517 163.172 172.375 163.195C170.713 163.227 169.049 163.232 167.389 163.31C165.797 163.385 164.197 163.445 162.61 163.587C161.642 163.674 160.646 163.731 159.673 163.885C161.257 161.522 162.517 158.947 163.359 156.232C163.444 155.959 163.471 155.703 163.458 155.467C163.815 155.09 164.042 154.574 164.042 154.101C164.042 152.976 163.166 152.317 162.142 152.199C158.089 151.736 153.624 151.075 150.358 148.41C148.884 147.207 147.698 145.785 146.582 144.254C145.328 142.534 144.858 140.367 144.853 138.261C144.853 138.143 144.657 138.107 144.639 138.232C144.026 142.501 144.911 147.375 147.974 150.573C150.981 153.714 155.066 154.89 159.211 155.577C157.502 160.461 154.681 164.75 150.72 168.124C146.307 171.883 140.72 173.893 135.024 174.652C128.879 175.47 122.439 175.072 116.396 173.736C110.574 172.449 104.88 170.146 100.142 166.472C97.7518 164.618 95.5529 162.433 93.637 160.094C92.0556 158.164 90.8431 156.011 89.4858 153.943C94.55 155.332 100.673 153.435 104.915 150.754C107.414 149.176 109.603 147.205 111.401 144.861C112.288 143.705 113.077 142.484 113.728 141.179C114.066 140.5 114.37 139.802 114.65 139.097C114.823 138.662 114.993 138.214 114.993 137.736C114.992 137.383 114.903 137.055 114.727 136.75C114.364 136.365 114.291 136.253 114.51 136.415C114.153 135.685 113.123 135.5 112.464 135.878C112.218 136.02 111.64 136.293 111.356 136.75C111.164 137.059 111.061 137.429 110.938 137.768C110.744 138.303 110.548 138.832 110.304 139.347C109.738 140.544 109.059 141.687 108.285 142.761C106.869 144.724 105.049 146.499 103.067 147.884C100.986 149.339 98.7437 150.527 96.3114 151.27C93.7424 152.054 91.1996 152.288 88.549 152.575C88.5207 152.536 88.4932 152.496 88.4649 152.457C88.4138 152.387 88.3033 152.41 88.2989 152.502C88.2967 152.547 88.2978 152.591 88.2965 152.635C87.9186 152.813 87.8873 153.345 88.3084 153.55C88.4645 156.003 89.5225 158.418 90.6754 160.541C91.1556 161.425 91.6981 162.281 92.2859 163.109C92.112 163.043 91.9166 163.001 91.6973 162.992C86.9554 162.81 82.1127 163.044 77.3708 163.218C75.0517 163.303 72.7352 163.433 70.418 163.557C69.2237 163.621 68.0265 163.662 66.8364 163.785C66.2412 163.847 65.6425 163.896 65.0505 163.985C65.0077 163.992 64.9677 163.999 64.9301 164.005C66.3946 162.562 67.9384 161.196 69.5681 159.92C74.9144 155.736 81.0547 152.328 87.6061 150.474C87.6682 150.456 87.6591 150.35 87.5905 150.357C74.5599 151.69 63.7056 159.904 56.1127 170.219C51.8996 175.942 48.7041 182.277 45.9545 188.81C44.5686 192.103 43.2572 195.455 42.1591 198.856C41.6009 200.585 41.3493 202.418 42.1487 204.114C42.7618 205.415 43.8931 206.382 45.079 207.15C45.1578 207.201 45.2389 207.249 45.3186 207.299C44.1063 211.524 43.2942 215.859 42.515 220.181C41.6687 224.876 40.9303 229.591 40.2961 234.32C39.0285 243.772 38.0575 253.243 37.6335 262.773C37.5162 265.409 37.4379 268.046 37.4036 270.685C37.3865 272.004 37.3941 273.324 37.4121 274.643C37.4326 276.12 37.2327 277.787 37.9842 279.105C38.9884 280.865 40.9386 280.259 41.7963 279.055C41.8088 279.071 41.8217 279.088 41.8343 279.105C41.9121 278.951 41.9772 278.799 42.0327 278.646C42.125 278.443 42.1853 278.231 42.2072 278.014C42.3688 277.196 42.308 276.366 42.3015 275.477C42.2919 274.227 42.2991 272.976 42.3027 271.726C42.3097 269.365 42.3365 267.006 42.4037 264.646C42.5383 259.927 42.8011 255.212 43.1605 250.505C43.8746 241.155 44.9279 231.848 45.8294 222.516C46.2883 217.765 46.8418 213.001 46.9373 208.225C48.05 208.811 49.1983 209.342 50.3089 209.907C52.3696 210.957 54.4301 212.006 56.4906 213.055C58.489 214.073 60.4903 215.084 62.4925 216.095C64.5114 217.114 66.5167 218.461 68.7881 218.712C70.0022 218.845 70.4417 217.209 69.7263 216.445C68.7921 215.447 67.5515 214.827 66.3044 214.246C67.9614 214.307 69.6205 214.34 71.2804 214.352C71.3032 216.442 71.2295 218.536 71.1247 220.62C70.867 225.734 70.5086 230.838 70.1693 235.947C69.4641 246.565 68.7815 257.19 68.2489 267.819C68.1186 270.422 67.988 273.025 67.8574 275.629C67.7941 276.894 67.706 278.161 67.67 279.428C67.6299 280.849 67.6648 282.63 68.9795 283.508C69.9082 284.127 70.9077 283.836 71.6049 282.983C72.5372 281.844 72.5358 280.193 72.6108 278.795C72.6281 278.472 72.6435 278.149 72.6602 277.825C74.0841 278.01 75.4977 278.265 76.9278 278.405C78.6746 278.575 80.4323 278.675 82.1867 278.72C85.7641 278.812 89.3358 278.845 92.9142 278.845C99.9959 278.846 107.077 278.725 114.158 278.61C128.319 278.381 142.479 277.985 156.636 277.545C160.561 277.423 164.485 277.295 168.41 277.162C170.442 277.093 172.474 277.022 174.507 276.95C176.43 276.881 178.532 277.13 180.225 276.131C180.274 276.739 180.324 277.348 180.377 277.955C180.479 279.106 181.288 280.095 182.516 280.095C183.671 280.095 184.663 279.116 184.655 277.955C184.224 267.454 183.291 256.953 182.552 246.47C181.873 236.842 181.237 227.2 180.266 217.594C180.541 217.772 180.878 217.882 181.275 217.884C182.543 217.889 183.809 217.103 184.995 216.684C186.193 216.262 187.41 215.897 188.643 215.598C189.373 215.42 190.106 215.272 190.842 215.145C190.753 216.648 190.775 218.164 190.748 219.662C190.705 221.964 190.633 224.265 190.577 226.566C190.467 231.101 190.428 235.635 190.342 240.17C190.167 249.312 189.88 258.449 189.391 267.579C189.257 270.088 189.106 272.596 188.939 275.103C188.85 276.426 188.757 277.749 188.66 279.071C188.564 280.371 188.34 281.752 188.829 282.998C188.845 282.989 188.86 282.98 188.876 282.971C189.217 284.044 190.717 284.559 191.425 283.338C192.529 281.434 192.275 278.707 192.402 276.565C192.538 274.268 192.66 271.969 192.768 269.67C192.984 265.07 193.134 260.47 193.222 255.866C193.396 246.658 193.366 237.436 192.803 228.24C192.649 225.726 192.434 223.217 192.213 220.708C192.047 218.827 191.955 216.895 191.662 215.014C193.096 214.802 194.541 214.679 196.001 214.643C197.413 214.608 198.324 213.334 198.024 211.985C195.68 201.421 192.418 191.036 188.718 180.874Z" fill="black"/>
<path fill-rule="evenodd" clip-rule="evenodd" d="M124.679 49.9962C132.253 49.229 139.675 49.8736 147.139 51.2074C147.709 51.3108 148.033 51.6851 148.153 52.135C151.669 52.2957 155.188 52.5537 158.699 52.7461C159.973 52.8158 160.696 54.0752 160.115 55.2125C159.999 55.4384 159.878 55.6582 159.756 55.8781L159.91 55.8273C160.966 55.4883 162.107 55.3212 163.136 55.8592C164.446 56.544 164.959 58.055 164.67 59.4456C164.596 59.8007 164.471 60.141 164.33 60.473C164.617 60.454 164.907 60.4603 165.194 60.4984C166.723 60.7013 167.86 61.8743 167.94 63.4362C168.059 65.7946 166.54 68.1873 164.75 69.8758C165.01 70.4107 165.109 71.0405 165.001 71.6788C164.786 72.9406 163.857 73.6961 162.78 74.189C163.229 75.6158 163.441 77.1076 163.316 78.632C163.274 79.141 162.829 79.5613 162.36 79.6645C164.11 84.4862 164.996 89.663 165.633 94.7073C166.088 98.2963 166.312 101.906 166.339 105.522C166.352 107.155 166.325 108.789 166.257 110.422L166.229 111.034C166.145 112.799 166.14 114.652 165.824 116.398C166.905 118.239 167.34 120.524 167.524 122.587C167.752 125.14 167.391 127.773 166.586 130.202C163.548 139.378 154.379 145.169 145.17 146.674C136.645 148.067 126.781 146.192 121.8 138.446C121.721 138.324 121.888 138.222 121.985 138.303C125.55 141.202 129.684 142.496 134.176 143.126C141.942 144.212 150.671 142.369 156.904 137.483C159.895 135.137 162.052 131.721 163.001 128.046C163.485 126.167 163.652 124.208 163.461 122.274C163.267 120.313 162.399 118.639 161.852 116.785C161.668 116.159 161.862 115.578 162.245 115.164C162.352 113.659 162.606 112.142 162.703 110.641C162.811 108.935 162.876 107.23 162.9 105.522C162.944 101.98 162.796 98.4313 162.498 94.9041C161.953 88.445 160.506 82.1428 159.657 75.7386C159.342 76.0208 158.891 76.1366 158.419 75.8901L158.37 75.8633L158.112 75.7156C158.097 75.7156 158.081 75.7177 158.066 75.7196C156.302 75.891 154.472 75.6459 152.782 75.1194C151.013 74.5701 149.372 73.7247 147.906 72.5982C147.627 74.0119 147.511 75.4406 147.509 76.882C147.507 77.7824 146.554 78.2497 145.797 77.865C142.445 76.1613 139.242 74.1981 136.202 71.9916C135.847 73.8113 135.492 75.6308 135.135 77.4527C134.997 78.1546 134.104 78.4378 133.531 78.1039C131.254 76.7785 129.287 75.0435 127.685 72.9805C127.366 73.5922 127.045 74.2037 126.722 74.8139L126.236 75.7281C125.757 76.6263 125.114 77.6199 124.064 77.9071C122.953 78.2114 122.025 77.4909 121.652 76.4847C121.538 76.1721 121.432 75.8507 121.335 75.5273C120.388 77.6896 119.319 79.8031 118.111 81.8194C116.298 84.8436 114.122 87.5383 111.952 90.3028C111.293 91.1421 110.165 90.3408 110.074 89.5252C110.021 89.0455 109.977 88.5636 109.939 88.0836C108.675 90.6359 107.355 93.1643 105.918 95.6193L106.124 96.426C106.717 98.8096 107.209 101.21 107.745 103.606C107.918 104.38 107.507 105.485 106.604 105.617C105.525 105.774 104.505 106.325 103.4 105.946C102.195 105.532 101.957 104.49 101.388 103.503C101.274 103.306 101.142 103.125 101 102.954L100.964 103.001C100.876 103.117 100.664 102.99 100.717 102.857L100.779 102.703C100.29 102.184 99.7056 101.752 99.1679 101.286C97.8902 101.071 96.4529 101.307 95.5726 101.826C93.5677 103.009 92.6467 105.448 92.6277 107.691C92.6045 110.316 93.4177 113.266 94.7909 115.511C95.3953 116.498 96.2235 117.389 97.3177 117.827C98.4038 118.262 99.5805 118.127 100.685 118.537C101.416 118.81 101.866 119.622 101.425 120.357C101.395 120.408 101.362 120.454 101.33 120.503L101.658 120.939C101.884 121.241 102.12 121.565 102.34 121.902C102.902 122.549 103.493 123.172 104.066 123.808C105.124 124.981 106.151 126.186 107.192 127.376C108.175 128.498 109.214 129.553 110.285 130.59C111.297 131.573 112.561 132.4 113.49 133.448C114.394 134.471 114.64 136.257 113.152 136.849C111.507 137.505 110.05 135.967 108.942 134.941L108.895 134.898C106.865 133.028 105.031 130.892 103.575 128.54C102.132 129.522 100.046 129.616 98.6091 128.634C97.8532 128.117 97.2733 127.249 96.9915 126.304C96.7257 126.364 96.4601 126.398 96.2011 126.394C96.0678 126.472 95.9341 126.547 95.7989 126.617C94.7275 127.175 93.4115 126.926 92.9214 125.74C92.4751 124.663 92.935 123.441 93.337 122.403L93.42 122.189C93.6481 121.598 93.8996 120.953 94.2122 120.346C93.3418 119.691 92.5979 118.877 91.9686 117.952C89.8538 114.834 88.7974 110.275 89.2643 106.556C89.5453 104.311 90.5993 101.986 92.3254 100.473L92.2622 100.308C91.7784 99.0804 91.3388 97.848 91.0538 96.5505C90.72 95.033 90.5571 93.4606 90.4094 91.9156C90.0967 88.6524 90.1812 85.3151 90.5974 82.0646C91.3791 75.946 93.3608 69.9394 96.8784 64.848C95.881 63.6536 95.0911 62.2482 95.5029 60.6315C95.6911 59.8895 96.1198 59.1859 96.7665 58.7609C97.1233 58.5265 97.5481 58.4906 97.9052 58.2961L98.0125 58.237C98.1694 58.1454 98.0494 58.1551 97.9559 57.7297C97.5862 56.0302 97.8925 54.3882 99.7622 53.8239C101.522 53.2935 103.187 54.4199 104.228 55.762C106.954 53.828 110.545 52.8158 113.704 51.9556C117.295 50.9811 120.98 50.3726 124.679 49.9962ZM95.2412 106.997C95.2283 105.613 96.5403 104.759 97.8313 104.986C98.6982 105.136 99.4214 105.654 100.1 106.189L100.432 106.451C101.259 107.101 102.208 107.801 102.701 108.72C103.423 110.077 101.896 111.903 100.47 110.952C99.4918 110.296 98.8648 109.245 98.2231 108.269L98.1567 108.168C97.8651 107.731 97.6095 107.266 97.21 106.915L97.1237 106.839C96.9924 106.727 96.8514 106.625 96.6818 106.577C96.3547 106.483 95.7488 106.614 95.6045 107.004L95.5917 107.044C95.5389 107.241 95.2433 107.198 95.2412 106.997Z" fill="black"/>
<path fill-rule="evenodd" clip-rule="evenodd" d="M143.152 128.274C141.732 127.695 140.465 126.728 139.538 125.493C139.216 125.063 139.133 124.61 139.2 124.195C139.276 123.729 139.552 123.306 139.928 123.023C140.305 122.739 140.777 122.598 141.233 122.67C141.63 122.732 142.024 122.949 142.337 123.399L142.402 123.489C142.953 124.235 143.67 124.846 144.488 125.241C145.276 125.621 146.158 125.798 147.07 125.695C148.808 125.499 150.005 124.559 151.278 123.282C151.436 123.121 151.594 122.955 151.752 122.786C151.852 122.633 151.991 122.534 152.146 122.483C152.317 122.425 152.511 122.429 152.689 122.491C152.86 122.55 153.013 122.664 153.116 122.815C153.213 122.958 153.269 123.135 153.251 123.339C153.134 124.661 152.443 125.842 151.461 126.769C150.37 127.799 148.924 128.511 147.563 128.761C146.064 129.036 144.536 128.839 143.152 128.274ZM148.271 107.866C149.866 108.836 152.297 111.098 150.581 113.503C148.56 115.624 145.652 113.193 144.219 112.093C142.89 111.241 141.396 113.433 142.629 114.428C152.987 122.099 157.19 108.12 149.078 106.726C148.184 106.572 147.853 107.566 148.271 107.866ZM129.711 98.9429C129.887 96.7541 133.219 96.257 133.551 98.423C133.847 100.363 133.498 102.145 132.624 103.892C131.79 105.561 129.692 104.783 129.533 103.263C129.32 101.226 129.601 100.304 129.711 98.9429ZM155.076 97.9739C155.541 97.3652 156.212 96.9497 157.015 97.1845C159.526 97.9185 158.786 101.485 157.904 103.22C157.425 104.163 155.876 104.402 155.176 103.572C154.036 102.219 153.489 99.5157 154.94 98.1825C154.979 98.1136 155.023 98.044 155.076 97.9739ZM132.589 89.3654L132.986 89.2959C134.213 89.0836 135.738 88.8796 136.606 89.8665C137.067 90.3898 137.225 91.3624 136.606 91.8633C135.518 92.7446 134.314 92.4031 133.01 92.4777C131.935 92.5394 130.902 92.7174 129.867 93.0135C127.595 93.663 125.744 94.8486 123.804 96.1505C123.55 96.3213 123.29 95.9956 123.411 95.7574C124.531 93.563 126.701 91.7604 128.875 90.6616C130.036 90.0751 131.305 89.5885 132.589 89.3654ZM152.787 88.3823L153.091 88.4445C156.395 89.1353 160.687 90.5153 162.251 93.7615C162.311 94.2205 162.248 94.3189 162.197 94.3832L162.18 94.4046C162.137 94.4595 162.104 94.5351 161.905 94.5976C161.85 94.5844 161.794 94.5705 161.737 94.5557C161.02 94.3677 160.453 94.1087 159.904 93.84L159.308 93.5465C158.617 93.2076 157.92 92.881 157.181 92.6399C155.605 92.1255 153.983 91.7631 152.337 91.5696C151.98 91.5277 151.636 91.4072 151.365 91.2006C151.108 91.0046 150.911 90.7332 150.821 90.3724C150.705 89.9056 150.739 89.5521 150.989 89.1309C151.177 88.8146 151.447 88.5953 151.756 88.4694C152.071 88.3411 152.43 88.3108 152.787 88.3823Z" fill="black"/>
<path fill-rule="evenodd" clip-rule="evenodd" d="M159.379 76.3793C160.6 75.9606 161.574 77.231 161.34 78.3383C161.063 79.6423 159.702 80.6889 158.8 81.6081C157.854 82.5761 156.888 83.525 155.887 84.4381C153.975 86.184 151.993 87.8281 149.904 89.3604L149.265 89.8287C147.35 91.2306 145.44 92.6 143.388 93.8136C142.277 94.4687 141.155 95.1028 140.019 95.7136C139.613 95.9313 139.119 96.2671 138.61 96.5167C140.471 97.9539 141.903 100.148 142.214 102.191C142.983 107.268 139.712 111.973 135.098 113.843C132.798 114.775 130.237 115.046 127.778 114.765C125.276 114.479 122.741 113.739 121.117 111.69C119.674 109.87 119.154 107.547 119.05 105.267C119.002 104.185 119.012 103.119 119.24 102.162C118.245 102.17 117.25 102.166 116.264 102.177C113.826 102.2 111.383 102.211 108.943 102.143C106.427 102.071 103.924 101.959 101.416 101.735C100.315 101.636 99.2208 101.473 98.1262 101.316C97.0637 101.166 95.8912 101.109 94.8982 100.674C94.8306 100.647 94.8586 100.549 94.9172 100.53C95.9757 100.188 97.1778 100.249 98.2806 100.182L99.3555 100.116C100.251 100.063 101.145 100.014 102.043 99.9848C104.117 99.9165 106.19 99.8997 108.264 99.8642L109.152 99.8476C111.593 99.799 114.033 99.7715 116.473 99.6933C117.485 99.6616 118.499 99.6024 119.515 99.5475C119.633 99.2789 119.807 99.0337 119.974 98.7951C120.472 98.0807 121.106 97.4509 121.763 96.8802C123.109 95.7049 124.624 94.8323 126.314 94.2468C127.989 93.6686 130.438 93.3818 132.21 93.4191C133.982 93.4565 136.507 93.7065 137.319 95.1556C137.403 95.3057 138.948 95.0161 139.406 94.6651C140.477 93.8474 141.529 93.0062 142.562 92.1439C144.481 90.5397 146.454 88.9609 148.271 87.2448C150.145 85.4737 152.004 83.673 153.787 81.8131C154.683 80.881 155.576 79.9469 156.445 78.9916C157.332 78.0172 158.095 76.8168 159.379 76.3793Z" fill="black"/>
</svg>
