<svg width="240" height="324" viewBox="0 0 240 324" fill="none" xmlns="http://www.w3.org/2000/svg">
<path fill-rule="evenodd" clip-rule="evenodd" d="M112.572 131.913C113.106 129.238 117.519 129.858 117.318 132.555C115.09 142.594 116.447 154.815 102.366 153.827C111.304 169.555 138.905 179.121 147.827 158.472C143.431 157.947 142.561 147.551 142.03 143.913L142.008 143.588C141.89 141.717 141.93 139.983 143.054 138.383C144.176 139.224 144.627 140.745 145.007 142.133L145.285 143.244C146.215 146.947 147.188 150.634 148.663 154.168L148.716 154.176C148.642 151.779 151.718 150.683 152.481 153.251C173.294 150.384 184.68 167.566 189.172 185.537C192.449 195.374 196.72 204.837 201.572 213.985C205.234 221.133 196.342 222.769 191.638 225.147C195.256 239.646 195.966 254.667 196.636 269.537C196.414 272.711 197.848 279.221 195.933 281.497C193.096 283.718 191.568 279.912 192.004 277.471C192.412 260.216 190.615 243.037 190.1 225.809C186.548 227.31 182.954 228.693 179.319 229.978C179.504 246.144 181.426 262.31 182.111 278.394C183.01 279.103 183.507 280.332 182.739 281.402C178.627 287.139 171.193 287.996 164.652 288.078C149.085 288.274 133.502 288.214 117.934 288.167C102.642 287.821 87.2167 288.8 72.0054 287.047C69.0244 289.287 68.4147 284.458 68.814 282.399L68.9656 278.273C69.0676 275.523 69.1757 272.773 69.3147 270.025L69.6613 263.323C70.2416 252.155 70.8567 240.992 71.8324 229.846C62.9963 228.637 54.2872 226.492 45.8557 223.597C46.5498 242.948 45.126 262.505 47.5 281.757C49.0666 283.884 45.9248 285.88 44.0908 284.548C41.8163 282.813 42.7917 279.419 42.3375 276.921L42.2792 275.306C41.6426 257.892 40.7729 240.112 44.0175 222.937L42.6218 222.395C38.3674 220.733 27.4264 216.29 28.8612 214.098C40.2833 184.157 65.8343 148.346 99.6745 150.047C100.532 150.643 100.97 151.802 101.605 152.633L102.612 152.268C106.511 150.84 110.745 149.03 110.861 144.229C111.599 140.138 112.184 136.046 112.572 131.913ZM168.339 206.541C173.187 199.759 139.566 210.478 137.176 211.186L136.275 211.514C121.55 216.869 105.675 222.048 93.9335 232.722C93.6867 232.993 93.9939 233.366 94.3131 233.215L94.3541 233.19C94.8212 232.93 96.8438 232.208 95.4109 232.482C112.377 221.778 132.087 215.899 151.347 210.757C154.146 210.08 156.958 209.457 159.781 208.891C162.629 208.198 165.843 208.206 168.339 206.541ZM115.213 204.334C115.627 202.643 118.413 187.105 113.786 191.367C112.552 193.603 112.078 196.194 111.856 198.712C111.26 201.647 112.766 204.81 111.301 207.516C109.99 211.05 105.17 215.179 104.848 208.613C112.734 208.343 110.366 198.348 104.998 201.438C102.058 203.955 101.549 208.695 103.021 212.167C100.645 209.579 96.7911 209.571 94.0404 207.618C89.0729 202.246 97.4164 196.656 101.96 194.721C102.216 194.44 105.94 193.141 105.151 192.984C101.584 193.017 98.0101 193.776 94.9322 195.653C88.5616 198.762 86.3933 208.388 93.6808 211.762C95.2567 212.522 96.9812 212.93 98.5414 213.714C102.473 215.753 101.203 218.315 97.1439 218.39C95.4745 218.755 89.9652 217.226 90.5821 220.153C91.5787 221.983 93.7488 222.256 95.65 222.307C100.731 222.656 107.05 219.784 104.178 213.804C107.645 216.759 111.973 212.628 113.459 209.419C115.269 212.97 119.82 211.901 122.388 209.799C126.312 212.891 131.236 209.454 132.984 205.617C133.02 206.415 133.056 207.213 133.094 208.012C133.173 209.648 135.708 210.174 136.083 208.417C136.653 205.745 137.439 203.104 138.52 200.592C141.007 193.991 142.528 196.968 142.615 202.141C142.921 204.083 143.893 205.823 146.039 205.954C146.637 205.99 147.417 205.458 147.511 204.833L147.634 204.006C147.896 202.273 148.199 200.488 148.853 198.859C149.483 204.25 156.54 204.224 158.508 199.754C162.59 202.205 166.873 198.781 168.776 195.24L168.833 195.133C169.498 193.922 167.808 192.457 166.842 193.596L166.507 193.945C164.685 195.832 161.786 198.567 159.39 196.238C159.47 195.187 159.438 194.114 159.373 193.08C159.296 191.848 157.595 190.751 156.628 191.853C155.265 190.695 153.572 190.862 152.146 191.67C148.453 192.714 146.127 196.31 145.326 199.884C145.241 197.028 144.307 193.93 141.171 193.661C137.957 193.634 136.727 197.228 135.632 199.646C135.568 198.563 135.507 197.48 135.452 196.397C135.357 194.533 132.772 194.552 132.561 196.341L132.555 196.397C132.148 200.264 130.007 209.527 124.604 207.715C126.882 205.204 131.003 197.553 127.085 195.171C121.056 193.652 117.963 203.168 120.534 207.596L120.401 207.689C118.932 208.703 116.504 209.832 115.684 207.559L115.591 207.35C115.17 206.389 114.798 205.348 115.213 204.334ZM106.587 203.261C107.729 202.595 108.135 204.803 107.844 205.544C107.377 206.732 106.103 207.394 104.834 207.847L104.838 207.713C104.894 206.356 105.347 203.987 106.587 203.261ZM125.805 197.75C125.831 197.91 125.789 198.104 125.783 198.252C125.588 200.854 124.431 203.353 122.821 205.384C121.895 202.624 123.089 198.978 125.805 197.75ZM153.253 194.496C153.993 194.301 154.778 194.356 155.54 194.562C155.485 195.429 155.673 196.297 156.051 197.093C154.082 203.008 149.453 198.455 153.253 194.496Z" fill="black"/>
<path fill-rule="evenodd" clip-rule="evenodd" d="M89.1499 61.0514C94.2378 55.6489 123.123 47.2925 137.736 49.0638L138.175 49.1206C139.341 49.2686 140.49 49.4926 141.625 49.797C145.291 50.6536 149.078 51.9506 152.107 54.1172C154.637 55.8896 162.615 58.784 160.263 63.4206C161.135 65.0731 161.46 67.1148 160.871 68.7424C160.797 69.3046 160.624 69.8224 160.402 70.3592C162.265 73.1091 163.74 76.2189 164.934 79.1768C167.02 86.6207 168.318 94.3676 168.508 101.962C169.141 116.392 167.559 133.628 154.997 142.958C147.408 148.871 135.52 149.069 126.992 141.739C126.508 141.166 124.232 139.619 124.992 139.348C125.218 139.587 125.45 139.819 125.687 140.048C125.676 140.022 125.674 139.997 125.678 139.97L125.456 139.768C125.037 139.38 124.494 138.818 125.112 138.928C125.139 138.959 125.169 138.987 125.198 139.018C125.329 139.097 125.428 139.165 125.505 139.225L125.545 139.257L125.533 139.244C125.177 138.864 124.963 138.477 125.496 138.724L125.566 138.759C125.803 139.008 126.044 139.247 126.289 139.479C126.285 139.452 126.289 139.424 126.304 139.395L126.075 139.174C125.852 138.955 125.886 138.954 125.995 138.778C125.521 138.113 126.406 138.508 126.468 138.767C127.022 138.636 127.508 139.676 127.865 139.803C143.498 151.826 166.186 141.158 165.818 107.653L165.813 106.998C165.705 96.2845 164.804 85.2733 160.375 75.5753C159.944 74.6412 159.462 73.7324 158.932 72.8532C158.566 72.1937 158.175 71.5512 157.755 70.9256C156.578 70.8305 155.416 70.615 154.271 70.281C153.878 70.1817 153.489 70.0718 153.101 69.9429C147.422 70.2527 141.87 70.5898 136.175 70.9094L134.396 71.0202C129.572 71.3305 124.583 71.8274 120.69 74.8124C116.87 77.5299 116.853 82.8887 113.583 85.8723C108.921 89.0382 108.887 91.8929 107.989 96.5582C108.055 100.075 110.493 105.185 106.02 106.665C106.774 107.741 105.722 107.224 105.64 106.847C105.631 106.849 105.623 106.851 105.616 106.851C106.289 108.102 105.3 107.314 105.213 106.912C105.16 106.897 105.107 106.859 105.054 106.807C105.732 107.902 104.637 107.135 104.702 106.936C103.392 104.922 100.698 104.61 98.7985 105.143C98.7753 105.215 98.691 105.221 98.6381 105.183C90.562 106.934 92.6457 123.66 100.922 122.043C101.276 121.971 101.268 122.141 101.338 122.157C101.147 121.655 101.686 121.859 101.68 121.965L101.713 121.963C101.739 121.961 101.728 121.958 101.748 121.965C101.563 120.938 102.603 122.426 102.521 122.487C102.553 122.468 102.589 122.457 102.621 122.453L102.585 122.355C102.412 121.895 102.427 122.086 102.428 121.823C102.298 121.497 102.289 121.64 102.319 121.428C102.775 121.074 102.91 122.146 103.062 122.225C102.801 121.861 103.008 121.564 103.254 121.762C105.118 125.684 107.526 129.369 110.638 132.272C110.978 132.541 111.323 132.805 111.679 133.054C113.003 134.208 115.033 134.949 116.272 135.971C116.272 135.988 116.264 136.009 116.252 136.03L116.28 136.056L116.309 136.083L116.74 136.29C116.866 136.398 116.98 136.518 117.082 136.651C117.19 136.776 117.284 136.913 117.365 137.059C117.405 137.237 117.316 137.311 117.147 137.235C117.073 137.209 116.999 137.18 116.925 137.152C116.93 137.159 116.932 137.163 116.936 137.167C116.96 137.204 117.124 137.584 116.935 137.522L116.913 137.514C116.809 137.476 116.706 137.433 116.604 137.393C116.725 137.543 116.834 137.706 116.932 137.843C117.035 137.951 117.098 138.078 117.124 138.222C117.12 138.302 117.075 138.336 116.995 138.325C116.873 138.285 116.752 138.243 116.632 138.198L116.666 138.264C116.751 138.432 116.872 138.713 116.657 138.619C116.473 138.562 116.296 138.496 116.118 138.425C116.103 138.454 116.074 138.465 116.015 138.437C115.451 138.236 114.906 137.991 114.384 137.702C113.925 137.368 113.463 137.04 113.002 136.708C112.569 136.448 112.151 136.159 111.752 135.833C109.08 134.107 106.741 131.914 104.885 129.472C101.782 132.16 95.5773 129.592 91.7392 127.487C88.3443 125.606 87.01 122.128 86.665 118.378C85.9477 113.33 81.8238 111.602 82.1107 100.525C82.1043 100.527 82.0978 100.527 82.0893 100.527C81.9393 100.483 81.7938 100.424 81.6565 100.348C81.5149 100.28 81.3818 100.2 81.2569 100.103L81.1027 99.8891C81.0226 99.8447 80.9508 99.7982 80.8959 99.7517L80.8674 99.7885C80.7772 99.8973 80.8378 99.7335 80.8431 99.701L80.5752 99.3365C79.9399 98.4688 79.243 97.4953 78.6753 96.7167L78.6574 96.7484C78.6445 96.7722 78.6377 96.7895 78.6438 96.797C77.2927 94.8551 76.0222 92.5096 75.6691 90.2388C75.2523 88.4897 75.4152 86.6873 75.7788 85.0671C77.3377 79.3934 82.4445 66.5543 89.1499 61.0514ZM125.815 139.516L125.73 139.44L125.805 139.534C125.844 139.582 125.884 139.625 125.949 139.669C125.944 139.655 125.944 139.64 125.946 139.623C125.903 139.59 125.859 139.554 125.815 139.516ZM137.672 51.9147C127.762 51.0623 118.014 53.2464 108.558 55.8902L107.905 56.0778C102.528 57.6127 96.8422 58.9939 92.298 62.2793C85.9492 67.144 82.6707 74.8828 79.8098 82.0279C77.3115 87.3366 78.5886 93.3226 82.3534 97.0295C82.7451 93.3459 83.4129 89.7701 84.4566 86.223C84.6744 85.6688 84.5096 85.4873 84.9791 85.415C85.6881 94.9739 82.196 102.036 89.1066 113.365C92.1051 118.711 88.634 122.622 97.1016 125.435L97.3307 125.522C99.0948 126.188 101.021 126.714 102.749 126.342L102.594 126.09C102.437 125.83 102.389 125.704 102.618 125.594C102.612 125.581 102.604 125.568 102.595 125.553C102.409 125.203 102.23 124.847 102.058 124.488C101.989 124.511 101.919 124.528 101.847 124.547C101.894 124.634 101.9 124.721 101.769 124.75C101.304 124.91 100.826 124.974 100.336 124.944L100.231 124.936C99.6782 124.902 99.3298 124.802 99.0182 124.708C98.9149 124.691 98.8114 124.674 98.7098 124.653C97.7073 124.431 96.6461 123.865 95.9593 123.305C88.1301 118.856 88.9393 103.713 98.5896 102.282C98.7875 92.7471 103.321 76.6617 110.844 67.5764C117.644 59.2194 136.209 55.5973 149.125 56.8744C149.313 56.9368 149.502 56.9998 149.69 57.0634C151.683 57.2405 153.582 58.1286 155.576 58.5412C154.144 57.4677 152.52 56.7527 150.847 56.1451C147.513 54.1053 143.692 53.0017 140 52.2233C139.235 52.0352 138.46 51.9316 137.672 51.9147ZM98.1479 109.941C98.6667 109.659 98.6074 109.931 98.7267 109.852C102.459 109.548 106.483 112.817 108.57 115.542C108.405 115.713 107.959 115.206 107.881 115.125C107.87 115.136 107.858 115.144 107.845 115.149L107.903 115.231C108.749 116.445 107.072 115.016 106.915 114.722C106.888 114.736 106.861 114.745 106.829 114.739C106.962 114.869 107.368 115.209 107.437 115.451L107.545 115.54C108.559 116.41 108.475 117.063 107.323 115.829C107.351 115.886 107.361 115.939 107.342 115.981L107.382 116.008C107.948 116.404 108.414 117.508 107.23 116.374C107.353 117.202 106.057 115.602 106.015 115.614C103.772 113.852 100.469 112.139 97.6556 111.909L97.5588 111.897C97.0424 111.831 96.7983 111.678 96.9795 111.34C96.3436 111.189 96.4926 110.875 96.7936 110.886C96.3451 110.591 96.7488 110.308 97.0091 110.419C96.8302 109.923 97.5479 110.253 97.6133 110.184C97.9858 109.609 98.0862 110.089 98.1479 109.941ZM90.3246 79.2211C92.1172 78.5642 97.4122 80.5306 96.9886 83.1349C96.7364 83.7328 95.9053 84.0754 95.3211 83.7379L94.5587 83.2256C93.2319 82.3367 92.0352 81.5572 90.6107 80.7819C89.8353 80.3971 89.5015 79.58 90.3246 79.2211ZM100.524 75.351L99.8312 74.9003C96.0952 72.4543 90.8137 68.7479 100.18 72.5826C101.248 73.0406 102.666 73.3115 103.249 74.3285C104.164 76.203 101.756 76.329 100.524 75.351ZM100.943 64.3758C100.644 63.2377 104.374 64.5732 105.46 64.9253L105.625 64.9878C106.682 65.3816 107.892 65.7469 108.524 66.6588C109.265 67.9189 107.766 68.1799 106.838 67.6108C104.935 66.3668 102.849 65.4281 100.943 64.3758ZM110.429 59.0741C108.33 56.7803 113.949 58.9777 114.791 59.5877L114.815 59.6057C115.443 60.048 115.316 61.0008 114.725 61.2806C113.047 61.3125 111.811 59.9126 110.429 59.0741ZM119.984 56.5609C116.646 54.161 121.043 55.3025 122.57 56.2431C123.611 57.1614 122.539 58.7116 119.984 56.5609Z" fill="black"/>
<path fill-rule="evenodd" clip-rule="evenodd" d="M152.125 125.777C153.46 125.466 154.509 126.597 154.247 127.899C153.969 129.278 152.487 129.751 151.244 129.707C149.835 129.659 148.427 129.368 147.011 129.309C145.557 129.249 144.097 129.238 142.641 129.277C141.295 129.314 139.913 129.551 138.578 129.338C138.058 129.255 138.107 128.568 138.445 128.324C139.45 127.599 140.752 127.304 141.937 126.999C143.144 126.689 144.379 126.452 145.617 126.307C146.873 126.16 148.139 126.086 149.403 126.072C149.978 126.065 150.683 126.193 151.244 126.09C151.53 126.037 151.821 125.848 152.125 125.777ZM148.271 107.866C149.866 108.836 152.297 111.098 150.58 113.503C148.56 115.624 145.652 113.193 144.218 112.093C142.889 111.241 141.396 113.433 142.629 114.428C152.986 122.099 157.189 108.12 149.077 106.726C148.184 106.572 147.853 107.566 148.271 107.866ZM136.703 100.622C138.837 100.267 139.21 103.31 137.095 103.523C136.651 103.568 136.21 103.607 135.769 103.645C135.812 103.783 135.841 103.925 135.856 104.071C135.876 104.195 135.891 104.326 135.905 104.476C135.972 105.225 135.441 106.004 134.821 106.367C134.176 106.744 133.252 106.794 132.612 106.367C132.282 106.146 131.952 105.897 131.77 105.533C131.526 105.158 131.393 104.724 131.379 104.279C130.407 104.532 129.416 104.874 128.433 105.055C128.469 105.09 128.505 105.128 128.539 105.17C128.566 105.202 128.53 105.261 128.491 105.232L127.999 105.123C127.847 105.143 127.695 105.159 127.544 105.168L127.547 105.155C127.295 105.151 127.088 104.852 127.314 104.612C128.182 103.694 129.537 103.084 130.772 102.574L131.961 102.086C133.483 101.468 135.089 100.891 136.703 100.622ZM153.87 101.564C155.268 101.404 156.652 101.467 158.052 101.553C160.408 101.696 159.42 105.134 157.529 104.34C157.548 104.466 157.553 104.592 157.539 104.709C157.465 105.313 157.268 105.824 156.713 106.149C156.199 106.45 155.546 106.449 155.031 106.149C154.48 105.827 154.231 105.374 154.09 104.785C153.981 104.328 154.025 103.946 154.088 103.493C154.109 103.344 154.174 103.204 154.265 103.078C154.133 103.045 154.001 103.013 153.869 102.984C152.693 102.716 151.533 102.77 150.36 102.6C150.235 102.582 150.215 102.38 150.325 102.329C151.378 101.834 152.718 101.695 153.87 101.564ZM136.487 90.9473C137.294 90.6394 138.307 91.1515 138.719 91.8559C139.186 92.6552 138.986 93.578 138.41 94.2516C137.525 95.2848 135.84 95.9213 134.598 96.5109L134.498 96.5587C133.223 97.1741 131.913 97.7393 130.585 98.2317C129.279 98.7163 127.921 99.0959 126.567 99.4218C125.853 99.5936 125.124 99.7357 124.395 99.8253C123.819 99.8959 123.375 99.7378 122.824 99.7378C122.743 99.738 122.718 99.6313 122.784 99.5903C123.299 99.2665 123.681 98.8402 124.242 98.5403C124.827 98.2281 125.414 97.9212 126.003 97.6173C127.194 97.0031 128.341 96.3196 129.49 95.6317C130.701 94.9065 131.884 94.1429 133.035 93.3254C134.161 92.5255 135.199 91.4387 136.487 90.9473ZM150.861 90.2896C151.868 90.0941 152.866 90.5709 153.164 91.5979C153.45 92.5817 153.151 92.7926 153.913 93.4966C154.521 94.0577 155.177 94.5585 155.838 95.0516L156.811 95.7755C158.574 97.0811 160.352 98.3156 162.379 99.1965C162.551 99.2709 162.452 99.5256 162.289 99.529C159.067 99.5911 155.976 99.1547 153.067 97.7114C151.708 97.0372 150.343 96.1844 149.556 94.8385C148.644 93.28 148.67 90.7144 150.861 90.2896Z" fill="black"/>
</svg>
