<svg width="240" height="324" viewBox="0 0 240 324" fill="none" xmlns="http://www.w3.org/2000/svg">
<path fill-rule="evenodd" clip-rule="evenodd" d="M94.6975 148.487C95.772 148.441 96.8676 148.614 97.9396 148.72C98.033 148.729 98.0685 148.873 97.9633 148.895C96.0448 149.296 94.1473 149.845 92.2631 150.402L91.4564 150.64C89.3317 151.269 87.2693 151.918 85.2124 152.757C81.113 154.428 77.2195 156.684 73.6362 159.276C59.8379 169.256 49.8513 184.366 43.5492 200.01C41.8377 204.259 40.3876 208.613 39.2129 213.041C38.9273 214.118 38.6585 215.2 38.4038 216.284C38.329 216.602 38.003 217.417 38.1817 217.742C38.3397 218.03 38.9541 218.208 39.2395 218.358L40.2031 218.857C42.0828 219.826 45.2137 221.419 45.5277 221.575L46.0174 221.816C54.0267 225.744 62.5845 229.075 71.5975 229.305L71.668 228.535C72.0699 224.278 72.5972 219.999 73.7482 215.873C73.8101 215.651 74.0921 215.726 74.1179 215.923C74.7591 220.808 74.5542 225.73 74.3304 230.637C73.9343 239.329 73.4083 248.015 72.9407 256.703C72.7066 261.049 72.4041 265.392 72.1309 269.735C71.8573 274.088 71.7688 278.545 71.1441 282.861C71.0049 283.823 69.8784 284.346 69.0253 284.245C68.0814 284.132 67.3552 283.301 67.3508 282.347C67.3394 279.833 67.6552 277.289 67.8308 274.78C67.9975 272.397 68.1764 270.015 68.3598 267.633C69.0299 258.94 69.8009 250.257 70.5139 241.568C70.7666 238.486 71.0395 235.407 71.3205 232.328C61.7727 232.02 52.8528 228.482 44.3433 224.349C44.2202 227.146 43.9227 229.939 43.6347 232.725C42.8309 240.5 42.1221 248.271 41.5916 256.07C41.3237 260.009 41.1287 263.953 40.9588 267.897C40.8754 269.836 40.8073 271.775 40.7552 273.714C40.7377 274.361 40.7219 275.007 40.708 275.654L40.6789 277.135C40.6552 278.073 40.5598 278.943 39.7704 279.626C38.9687 280.32 37.8857 280.357 37.0922 279.626C36.0299 278.648 36.2178 277.314 36.2492 276C36.2754 274.892 36.3069 273.783 36.3435 272.675C36.4168 270.459 36.5104 268.243 36.6242 266.028C37.0227 258.285 37.8189 250.573 38.8594 242.892L39.2656 239.927C40.0241 234.415 40.8568 228.778 42.5524 223.468C41.8922 223.139 41.2339 222.809 40.5781 222.476C39.4149 221.887 38.2121 221.334 37.0814 220.684C36.1844 220.168 35.4107 219.46 35.161 218.416C34.8825 217.253 35.3084 215.98 35.5913 214.845L35.6159 214.745C35.8933 213.602 36.192 212.464 36.5072 211.331C37.7854 206.737 39.3659 202.232 41.2155 197.837C44.919 189.038 49.6994 180.679 55.5386 173.121C60.7947 166.317 67.0039 160.148 74.2812 155.52C77.839 153.258 81.6304 151.4 85.64 150.087C87.5142 149.473 89.5533 148.94 91.5156 148.72C92.574 148.601 93.634 148.534 94.6975 148.487ZM113.736 134.545C115.012 133.173 117.549 134.592 116.936 136.409C115.494 140.682 113.198 144.58 109.614 147.388C106.245 150.028 102.228 151.742 97.9013 151.376C97.8679 151.373 97.839 151.365 97.8134 151.353L98.1862 151.858C101.113 155.819 104.201 159.726 107.923 162.963C115.506 169.56 125.831 173.117 135.8 170.586C143.644 168.595 150.555 162.39 152.587 154.482C152.296 154.613 151.95 154.658 151.57 154.575C149.943 154.222 148.334 152.511 147.285 151.284C146.15 149.957 145.264 148.524 144.615 146.904C143.426 143.94 143.045 140.123 144.668 137.252C144.868 136.898 145.33 137.096 145.37 137.442L145.431 137.981C145.744 140.672 146.134 143.276 147.402 145.729C148.023 146.929 148.767 148.101 149.673 149.107C150.157 149.644 150.683 150.158 151.25 150.609C151.803 151.049 152.472 151.367 152.967 151.871L153.058 151.968L153.061 151.95C153.186 150.885 153.933 150.415 154.664 150.445C155.371 150.473 156.201 150.785 156.523 150.934L156.554 150.948C161.487 153.317 166.031 156.405 170.307 159.832C179.15 166.917 185.775 176.179 188.986 187.087C190.561 192.44 191.465 197.956 192.42 203.446L193.007 206.81C193.898 211.879 194.893 217.047 196.904 221.762C197.424 222.981 197.023 224.125 195.748 224.605C194.155 225.204 192.557 225.784 190.956 226.357C191.742 229.73 192.221 233.221 192.81 236.611C194.062 243.818 195.596 250.979 196.911 258.176C197.584 261.856 198.191 265.549 198.862 269.229C199.186 271.002 199.524 272.771 199.852 274.543C200.029 275.498 200.189 276.456 200.358 277.413L200.387 277.572C200.484 278.076 200.605 278.598 200.467 279.103C200.308 279.679 199.859 280.086 199.458 280.499C199.128 280.839 198.65 280.841 198.246 280.656L198.113 280.594C197.39 280.256 196.824 279.919 196.568 279.103C196.405 278.587 196.347 278.005 196.241 277.474C196.037 276.454 195.845 275.433 195.662 274.409C195.298 272.36 194.942 270.31 194.595 268.258L194.271 266.337C193.157 259.716 192.1 253.054 191.565 246.363C191.328 243.394 191.077 240.428 190.823 237.461L190.633 235.236C190.392 232.42 190.098 229.533 190.056 226.678L189.099 227.018L184.427 228.67C183.269 229.08 181.795 229.919 180.548 229.766C179.938 229.691 179.473 229.499 179.114 229.15C179.544 235.223 180.126 241.285 180.902 247.316C181.608 252.804 182.391 258.285 183.315 263.74C183.773 266.442 184.244 269.141 184.755 271.833C185.01 273.179 185.274 274.523 185.545 275.866C185.681 276.536 185.842 277.206 185.948 277.882C186.069 278.655 185.856 279.131 185.424 279.768C185.069 280.29 184.359 280.559 183.784 280.198C183.022 279.72 182.625 279.305 182.4 278.435C182.197 277.643 182.073 276.817 181.915 276.016C181.625 274.537 181.343 273.057 181.072 271.574C180.504 268.473 179.981 265.364 179.514 262.246C177.867 251.263 176.822 240.187 176.294 229.094C176.034 223.62 175.953 218.142 175.999 212.663C176.023 209.855 176.115 207.038 176.313 204.237C176.514 201.401 176.933 198.622 177.306 195.813C177.319 195.715 177.459 195.709 177.465 195.813C177.641 198.962 177.919 202.107 178.055 205.264C178.184 208.277 178.241 211.294 178.344 214.307C178.48 218.268 178.667 222.232 178.916 226.192C179.366 225.7 180.045 225.416 180.724 225.527C181.708 225.32 182.766 224.804 183.704 224.49L187.24 223.309C189.098 222.688 190.957 222.071 192.822 221.473C191.154 215.861 190.012 210.165 189.037 204.387L188.602 201.788C187.74 196.672 186.812 191.554 185.252 186.601C183.613 181.392 181.159 176.55 177.904 172.165C174.696 167.844 170.792 164.039 166.773 160.48C163.332 157.433 159.651 154.682 156.141 151.719C156.178 151.915 156.186 152.131 156.154 152.369C155.407 157.832 152.559 162.92 148.588 166.704C140.612 174.307 128.805 175.884 118.596 172.319C108.72 168.871 99.9894 160.704 96.9047 150.598C96.8519 150.425 97.0835 150.356 97.1764 150.483C97.3475 150.718 97.5195 150.952 97.6917 151.187C97.6801 151.094 97.7285 150.992 97.8434 150.948C101.443 149.558 104.977 147.586 107.675 144.797C108.99 143.437 110.137 141.897 111.043 140.236C111.477 139.44 111.867 138.616 112.178 137.764L112.257 137.544C112.634 136.477 112.949 135.39 113.736 134.545Z" fill="black"/>
<path fill-rule="evenodd" clip-rule="evenodd" d="M126.195 40.0597C126.582 38.8508 127.676 38.1237 128.929 38.2738C130.038 38.4048 131.225 39.506 131.09 40.7212C131.065 40.9558 131.031 41.1756 130.991 41.3827L130.996 41.3846L131.001 41.3849L130.974 41.4652C130.891 41.8519 130.777 42.1986 130.608 42.5261C130.393 43.1539 130.186 43.7837 129.981 44.4156C130.277 44.4029 130.579 44.4198 130.885 44.4769C131.202 43.6653 131.521 42.8559 131.838 42.0422C132.178 41.1735 132.417 40.0576 133.089 39.3855C133.948 38.5274 135.44 38.3499 136.488 38.9628C137.595 39.6095 137.99 40.7593 137.749 41.9914C137.627 42.6199 137.207 43.0573 136.688 43.3322L136.632 43.361L136.232 44.3078C136.355 44.255 136.482 44.2064 136.619 44.1662C136.834 44.1028 137.046 44.0627 137.253 44.0458C137.823 43.0123 138.451 42.0083 139.099 41.0234C139.845 39.8906 141.303 39.4087 142.526 40.1252C143.62 40.7656 144.208 42.4479 143.424 43.5533C142.828 44.3924 142.264 45.2483 141.708 46.1128C141.803 46.1297 141.898 46.1508 141.989 46.1783C142.032 46.1212 142.076 46.0642 142.122 46.0071C142.729 45.2547 143.434 44.6904 144.159 44.0648C144.837 43.4772 145.15 42.5536 146.041 42.1077C147.163 41.5476 148.515 41.816 149.183 42.9319C150.615 45.3223 148.211 47.0681 146.673 48.5158C148.01 47.681 149.403 46.918 150.831 46.2586C151.634 45.8887 152.449 45.5316 153.277 45.223C154.505 44.7665 155.498 44.9125 156.506 45.7619C156.956 46.1424 157.179 46.9732 156.972 47.5267C156.571 48.5877 155.937 49.2323 154.826 49.5388C154.044 49.7543 153.244 49.9002 152.462 50.1263C151.152 50.5025 149.88 50.9611 148.646 51.5339C148.735 51.5889 148.82 51.648 148.898 51.7157C149.819 51.4177 150.757 51.1598 151.699 50.94C153.262 50.5734 154.852 50.3258 156.45 50.1709L156.981 50.1214C158.896 49.9376 161.199 49.5982 162.375 51.4324C162.761 52.0369 162.803 53.0345 162.375 53.6326C161.555 54.7824 160.739 55.0106 159.383 55.0317C160.718 55.1733 162.051 55.3488 163.378 55.5538C164.293 55.6933 165.207 55.8514 166.118 56.0268L166.572 56.116C167.682 56.3379 168.92 56.4668 169.872 57.1093C171.951 58.5127 170.975 61.2454 168.672 61.5371C167.559 61.6766 166.323 61.2053 165.231 60.9855C164.17 60.772 163.106 60.5839 162.037 60.4191C161.483 60.3324 160.929 60.2563 160.374 60.1866C161.504 60.3493 162.626 60.5797 163.718 60.9052L164.022 60.9968C166.133 61.6406 168.983 62.6659 169.642 64.9229C170.041 66.2946 168.949 67.4908 167.627 67.5712C166.397 67.6451 165.372 66.9117 164.329 66.3707C163.568 65.9776 162.795 65.6838 161.975 65.4323C161.128 65.1723 160.264 64.9568 159.394 64.7813C160.129 65.1867 160.846 65.6323 161.533 66.1308L161.849 66.3644C163.677 67.7268 166.464 69.8361 165.82 72.3899C165.617 73.1952 164.72 73.9645 163.858 73.8821C161.614 73.6728 160.376 71.2825 158.684 70.0017C158.242 69.6678 157.758 69.338 157.251 69.0168C159.816 72.0771 161.857 75.6151 163.41 79.2694C166.822 87.3087 167.869 94.7538 167.895 103.398L167.895 103.666C167.899 108.434 167.791 113.288 167.327 118.035C166.896 122.421 166.106 126.749 164.117 130.721C160.786 137.38 154.294 142.567 147.134 144.541C139.167 146.739 130.262 145.02 123.736 139.948C122.071 138.655 124.279 135.846 125.979 137.04C132.772 141.806 141.556 143.315 149.352 140.09C155.536 137.532 160.515 132.031 162.626 125.697C163.969 121.667 164.36 117.37 164.84 113.171L164.872 112.891C165.379 108.499 165.672 104.078 165.668 99.6562C165.662 91.4453 164.483 84.6863 160.872 77.2383C159.174 73.7299 156.97 70.4859 154.338 67.6388C153.539 67.8015 152.69 67.5733 151.883 67.4866C151.471 67.4422 151.059 67.4 150.647 67.3619C151.068 67.6341 151.481 67.9172 151.886 68.2068L152.418 68.5907C154.084 69.7836 156.196 71.1425 155.768 73.4488C155.652 74.0723 155.031 74.6451 154.429 74.7867C152.246 75.3066 150.746 73.1846 149.272 71.925C147.989 70.8302 146.648 69.8495 145.281 68.8667C144.97 68.6448 144.658 68.4229 144.343 68.2031C144.639 68.548 144.926 68.8984 145.207 69.2519L145.622 69.778C146.877 71.3495 148.687 73.3921 147.569 75.4292C147.252 76.004 146.576 76.3866 145.921 76.3739C143.669 76.3274 142.773 73.7701 141.717 72.1553C140.808 70.771 139.822 69.467 138.801 68.1629C138.52 67.8058 138.237 67.4486 137.95 67.0914C133.22 67.3366 128.506 67.9622 123.875 68.9618C120.694 69.6487 117.565 70.5387 114.459 71.5128L114.201 71.595C112.52 72.1363 110.788 72.8292 109.577 74.0173C109.404 74.8359 109.536 75.6993 109.702 76.5168L109.831 77.1425C110.362 79.7592 110.724 82.3274 110.453 85.0139C110.172 87.7847 109.338 90.2765 108.32 92.8508C107.838 94.0639 107.339 93.8441 107.168 95.146C107.037 96.1377 107.118 97.1614 107.208 98.1614L107.283 99.0091C107.47 101.23 107.565 103.651 106.11 105.483C105.884 105.764 105.4 105.652 105.239 105.371C105.176 105.259 105.108 105.151 105.034 105.048C104.333 104.031 103.258 103.452 102.028 103.228C101.872 103.201 101.933 102.991 102.064 102.974C103.103 102.852 104.088 103.112 104.925 103.649C104.528 102.276 101.456 102.944 100.447 103.21L100.412 103.22C99.1527 103.558 97.9612 104.107 96.9112 104.885C94.7985 106.449 93.5773 108.888 93.6386 111.515C93.6999 114.098 95.033 116.484 97.3231 117.72C98.4281 118.316 99.6851 118.604 100.936 118.591C102.241 118.578 103.403 118.006 104.711 118.086C105.467 118.132 106.046 118.944 105.609 119.652C105.317 120.126 104.937 120.497 104.498 120.783C105.569 123.254 106.936 125.61 108.512 127.785C109.384 128.992 110.373 130.105 111.461 131.122C112.31 131.917 114.151 132.836 114.047 134.161C114.011 134.639 113.764 134.931 113.329 135.108C111.976 135.662 110.33 133.756 109.425 132.837L109.353 132.764C108.225 131.64 107.196 130.397 106.3 129.078C104.711 126.737 103.725 124.097 103.317 121.324C101.147 121.977 98.2738 121.364 96.5034 120.563C90.9386 118.048 89.1196 110.551 92.502 105.559C93.1569 104.593 93.9766 103.767 94.9104 103.099C94.7055 102.987 94.5133 102.843 94.3421 102.662C93.3955 101.656 92.7262 100.343 92.062 99.133L91.9823 98.9884C91.3926 97.9232 90.8363 96.8413 90.3149 95.7427L90.121 95.3299C88.9569 92.8254 87.9365 91.7306 87.1062 89.0972C86.3076 86.5568 85.6781 83.9677 85.2703 81.3343L85.162 80.6372C84.9261 79.1092 84.7031 77.4752 84.8752 75.9237C83.69 76.3105 82.4985 76.5493 81.3259 75.9681C80.5527 75.5856 80.1259 74.4696 80.39 73.6686C80.5823 73.0789 80.9034 72.6161 81.3112 72.2526C81.0682 72.13 80.84 71.9736 80.6393 71.8003L80.464 71.6483C79.7541 71.031 79.7034 69.858 80.1344 69.0844C80.1766 69.0105 80.2189 68.9344 80.259 68.8604C80.6689 68.127 81.5161 67.6472 82.3527 67.6599C82.4879 67.662 82.6231 67.662 82.7604 67.6599C82.3696 67.5733 81.9872 67.4401 81.6238 67.2161C79.9844 66.2079 80.1914 63.4752 82.1752 62.9933C83.0076 62.7925 83.9266 62.875 84.8435 63.0905C84.8097 63.0715 84.7759 63.0525 84.7421 63.0314C84.0492 62.6065 83.4682 61.7759 83.5337 60.9242C83.6055 59.9816 83.9097 59.3095 84.7421 58.8149C85.4647 58.388 86.4872 58.3478 87.2055 58.8149C87.8288 59.2228 88.4393 59.673 89.0266 60.157C88.4372 59.4321 87.9259 58.6437 87.7189 57.8068C87.4633 56.7648 87.89 55.6299 88.8281 55.0804C89.5759 54.6429 90.3661 54.6915 91.0717 55.0296C91.0337 54.4822 91.1668 53.9243 91.5302 53.4297C92.2738 52.4154 93.6259 51.8319 94.8027 52.5716C94.9569 52.6688 95.164 52.8358 95.3647 53.0408C94.9738 51.796 95.3266 50.4898 96.6597 49.9276C97.4731 49.5831 98.5738 49.7564 99.2795 50.3503C98.8316 47.9261 102.408 46.1445 103.798 48.649C104.114 49.2163 104.426 49.8137 104.705 50.4249L104.808 50.6547L104.819 50.6505L104.748 50.4824L104.675 50.3144C104.289 49.4162 103.796 48.482 103.661 47.5077C103.463 46.0663 104.105 44.6988 105.672 44.4875C106.482 44.3776 107.382 44.7453 107.925 45.388C107.631 43.1517 110.128 41.5265 111.926 43.1961C112.777 43.9866 113.232 45.1427 113.772 46.1571C114.079 46.7299 114.391 47.3006 114.698 47.8754C114.776 47.7824 114.86 47.6894 114.949 47.5986C114.495 46.2375 114.142 44.8425 113.844 43.4392C113.561 42.1161 114.222 40.7424 115.587 40.3685C116.827 40.0259 118.38 40.7912 118.657 42.1121C118.851 43.0418 119.082 43.9614 119.335 44.8764C119.508 44.8341 119.679 44.8045 119.848 44.7834C119.863 44.6115 119.879 44.4386 119.896 44.2667L119.963 43.6554C120.111 42.2585 120.26 40.6638 120.989 39.4764C122.234 37.4474 125.424 38.2886 125.458 40.6874C125.477 41.928 124.972 43.1581 124.796 44.386C124.72 44.9207 124.676 45.4618 124.651 46.0029C124.991 44.2064 125.458 42.4332 125.998 40.6874C126.062 40.4782 126.129 40.2689 126.195 40.0597ZM98.671 109.336C101.47 108.903 104.029 110.465 105.687 112.652C105.989 113.052 105.791 113.616 105.518 113.952C105.322 114.199 105.058 114.229 104.76 114.267C104.417 114.311 103.984 114.034 103.834 113.736C102.767 111.606 100.864 110.26 98.671 109.431C98.6308 109.416 98.6182 109.345 98.671 109.336ZM102.552 71.1653L102.636 71.0743C103.203 70.4865 102.308 69.5887 101.74 70.1777C101.142 70.7978 100.745 71.5511 100.363 72.3145C99.999 73.0424 101.092 73.6853 101.458 72.9547L101.624 72.6226C101.885 72.1062 102.164 71.5961 102.552 71.1653ZM94.6901 69.959C95.4929 69.8237 95.1526 68.6015 94.3531 68.7363C93.3175 68.9109 92.2859 69.1094 91.25 69.2842C90.4474 69.4194 90.7878 70.6417 91.5872 70.507C92.6228 70.3322 93.6545 70.1338 94.6901 69.959ZM142.514 61.6147C141.739 61.3558 141.406 62.5801 142.177 62.8375C143.243 63.1932 144.3 63.5578 145.312 64.0518C146.042 64.4085 146.685 63.3152 145.951 62.9567C144.841 62.4146 143.684 62.0052 142.514 61.6147ZM94.5076 59.9712C93.7502 59.6681 93.4212 60.8942 94.1706 61.1941L96.9086 62.2895C97.666 62.5926 97.995 61.3668 97.2456 61.0669L94.5076 59.9712ZM152.075 56.9938L151.975 56.9307C151.288 56.4856 150.652 57.583 151.335 58.0257C151.736 58.2855 152.223 58.4617 152.59 58.7712L152.667 58.8396C153.26 59.3997 154.158 58.5049 153.564 57.9429C153.129 57.5321 152.578 57.3034 152.075 56.9938Z" fill="black"/>
<path fill-rule="evenodd" clip-rule="evenodd" d="M131.045 122.856C133.633 119.848 137.99 119.639 141.599 120.391C143.916 120.874 146.171 121.678 148.524 121.976C149.623 122.115 150.733 122.156 151.84 122.136C152.927 122.116 154.016 121.897 155.099 121.937C155.266 121.944 155.329 122.162 155.185 122.251C153.698 123.165 151.696 123.458 149.94 123.636C149.946 123.766 149.954 123.893 149.972 124C150.02 124.287 150.063 124.572 150.099 124.861C150.178 125.512 150.268 126.161 150.356 126.811C150.532 128.09 150.587 129.41 150.895 130.666L150.949 130.875C151.02 131.139 151.037 131.378 151.013 131.592L151.084 131.56L151.31 131.451L151.458 131.381C151.997 131.131 152.512 130.948 153.146 131.009C153.629 131.055 154.035 131.385 154.038 131.901C154.05 134.216 150.931 134.961 149.147 135.404L148.623 135.533C146.352 136.087 144.034 136.573 141.698 136.689C137.95 136.875 133.738 135.841 131.286 132.799C128.998 129.961 128.578 125.723 131.045 122.856ZM148.067 132.584C147.674 129.098 143.392 128.906 142.16 131.117C141.614 128.036 133.527 130.851 134.159 131.463C136.556 133.785 140.193 133.994 143.32 133.565C144.912 133.346 146.505 132.99 148.067 132.584ZM143.315 123.447L142.239 123.292L141.815 123.234C139.146 122.876 136.144 122.692 133.95 124.403C133.149 125.028 132.698 125.843 132.53 126.718C134.606 126.411 136.69 126.176 138.78 125.98L139.35 125.928C140.658 125.81 141.965 125.686 143.271 125.555L144.2 125.461L145.128 125.365C145.455 125.331 147.656 125.218 148.07 125.294C148.114 124.922 148.172 124.117 148.265 123.754C146.701 123.808 145.144 123.691 143.589 123.485L143.315 123.447ZM148.271 107.866C149.866 108.836 152.297 111.099 150.581 113.504C148.56 115.624 145.652 113.193 144.219 112.093C142.89 111.241 141.396 113.433 142.629 114.428C152.987 122.099 157.19 108.12 149.078 106.726C148.184 106.572 147.853 107.566 148.271 107.866ZM151.126 111.953L151.202 111.911L151.228 111.896C151.273 111.867 151.245 111.87 151.143 111.905L151.066 111.933V111.987C151.086 111.975 151.107 111.966 151.126 111.953ZM130.694 103.334L130.694 103.287C130.697 101.939 131.481 98.8617 133.421 98.8617C134.632 98.8617 135.368 100.956 135.495 103.115L135.5 103.203C135.556 104.545 135.188 107.479 133.421 107.479C131.635 107.479 130.712 104.7 130.694 103.334ZM159.248 102.912L159.248 102.864C159.245 101.516 158.46 98.439 156.521 98.439C155.34 98.439 154.611 100.43 154.457 102.53L154.446 102.692C154.37 103.989 154.714 107.056 156.521 107.056C158.307 107.056 159.229 104.277 159.248 102.912ZM131.8 89.6728C133.383 89.432 135.479 89.8894 136.217 91.4995C136.546 92.2168 136.157 93.01 135.328 93.0497C133.325 93.1457 131.528 92.6997 129.77 94.0027C129.014 94.5636 128.377 95.3401 127.844 96.1147L127.642 96.4094L127.474 96.6523C127.112 97.1854 126.769 97.7646 126.822 98.4079C126.838 98.5983 126.643 98.779 126.459 98.7714C125.306 98.7241 125.182 97.2789 125.334 96.4108C125.616 94.7999 126.395 93.2877 127.475 92.0697C128.61 90.7906 130.107 89.9304 131.8 89.6728ZM153.601 91.6279C154.692 90.926 156.088 90.6563 157.367 90.7596C159.888 90.9628 164.117 93.1067 163.561 96.1871C163.389 97.1371 162.068 97.6385 161.29 97.1114C160.453 96.5447 160.249 95.664 159.627 94.9235C159.13 94.3319 158.5 93.9039 157.825 93.5393C157.161 93.1797 156.392 92.9618 155.637 92.8824L155.512 92.8704C155.058 92.8317 152.765 92.8421 153.102 93.6983C153.168 93.8659 152.918 93.9986 152.804 93.8718C152.101 93.094 152.897 92.0806 153.601 91.6279Z" fill="black"/>
</svg>
