<svg width="240" height="324" viewBox="0 0 240 324" fill="none" xmlns="http://www.w3.org/2000/svg">
<path fill-rule="evenodd" clip-rule="evenodd" d="M184.39 193.752C182.869 195.965 181.472 198.243 180.209 200.613C179.557 201.835 178.95 203.082 178.403 204.353C178.289 201.603 178.264 198.821 177.943 196.098C177.92 195.901 177.592 195.806 177.558 196.045C177.203 198.515 177.144 201.048 177.01 203.543C176.856 203.496 176.685 203.469 176.497 203.469C174.672 203.469 172.874 203.618 171.055 203.766C170.24 203.832 169.387 203.882 168.556 204.012C169.225 203.273 169.848 202.492 170.423 201.677C171.01 200.847 171.681 199.548 170.658 198.75C169.529 197.869 167.315 199.022 166.222 199.47C165.669 199.697 165.127 199.944 164.593 200.207C163.919 198.317 161.853 198.067 160.081 198.327C158.818 198.514 157.592 198.946 156.361 199.275C154.798 199.693 153.229 200.086 151.654 200.455C148.818 201.119 145.962 201.699 143.093 202.202C143.017 202.114 142.912 202.045 142.771 202.01C141.789 201.764 140.705 201.952 139.697 201.971C138.661 201.99 137.625 201.988 136.589 201.967C134.738 201.929 132.889 201.914 131.038 201.882C130.512 201.563 129.845 201.105 129.682 200.505C129.478 199.755 130.115 198.925 130.411 198.288C131.546 195.838 131.943 193.098 131.497 190.43C131.418 189.955 131.254 189.435 131.018 188.948C133.046 189.165 135.047 189.312 137.085 189.379C141.156 189.511 145.226 189.65 149.299 189.68C157.441 189.741 165.584 189.741 173.726 189.682C178.33 189.648 182.923 189.606 187.522 189.371C187.147 189.846 186.783 190.331 186.427 190.824C186.353 190.802 186.257 190.842 186.268 190.933C186.272 190.965 186.276 190.997 186.279 191.028C185.63 191.935 185.005 192.857 184.39 193.752ZM175.336 277.968C173.444 277.908 171.552 277.848 169.66 277.787C165.946 277.669 162.232 277.551 158.518 277.433C151.16 277.198 143.802 276.972 136.444 276.769C129.102 276.567 121.758 276.352 114.414 276.582C107.055 276.811 99.7134 277.405 92.3672 277.882C88.2832 278.147 84.1962 278.377 80.1046 278.487C76.2078 278.591 72.2765 278.433 68.3858 278.711C68.255 277.749 68.3512 276.789 68.337 275.831C69.6133 275.093 70.8659 274.31 72.1039 273.539C76.6174 270.731 80.8838 267.554 84.908 264.081C85.5266 263.547 86.1331 263.001 86.7336 262.451C86.3157 263.364 86.6501 264.542 87.8478 264.928C89.3083 265.4 90.8036 265.232 92.3205 265.197C93.8609 265.16 95.4012 265.126 96.9418 265.093C99.9526 265.03 102.964 264.972 105.975 264.922C111.857 264.823 117.739 264.75 123.622 264.703C135.457 264.607 147.284 264.768 159.117 264.982C162.444 265.042 165.769 265.117 169.096 265.041C170.761 265.004 172.432 264.992 174.095 264.902C175.428 264.83 176.768 264.641 178.1 264.472C178.268 266.793 178.443 269.113 178.639 271.432C178.768 272.963 178.902 274.494 179.033 276.025C179.087 276.656 179.091 277.301 179.18 277.901C177.901 277.971 176.63 278.009 175.336 277.968ZM176.637 212.433C176.591 214.21 176.566 215.987 176.554 217.765C176.4 217.677 176.227 217.613 176.032 217.583C173.963 217.267 171.748 217.507 169.655 217.542C167.631 217.576 165.6 217.565 163.578 217.66C161.553 217.756 159.528 217.87 157.502 217.975C156.552 218.025 155.612 218.067 154.669 218.196C154.023 218.284 153.197 218.278 152.506 218.462C155.402 215.657 158.282 212.835 161.169 210.022C161.256 209.937 161.318 209.848 161.362 209.757C163.287 208.583 165.136 207.263 166.809 205.75C168.137 206.262 169.648 206.326 171.055 206.441C172.874 206.588 174.671 206.738 176.497 206.738C176.62 206.738 176.736 206.726 176.845 206.704C176.755 208.613 176.688 210.522 176.637 212.433ZM101.458 246.944C105.879 248.356 110.668 248.34 115.267 248.623C120.169 248.925 125.064 249.175 129.972 249.367C139.775 249.748 149.571 250.265 159.372 250.677C164.971 250.912 170.568 251.172 176.164 251.454C176.561 251.474 176.94 251.372 177.274 251.185C177.461 254.872 177.682 258.557 177.938 262.24C177.97 262.7 178.005 263.16 178.038 263.621C175.404 263.291 172.79 262.974 170.137 262.75C167.157 262.498 164.179 262.286 161.195 262.088C155.38 261.703 149.556 261.186 143.731 260.998C131.856 260.614 119.955 260.744 108.075 260.829C104.714 260.853 101.353 260.885 97.992 260.926C96.3116 260.947 94.6312 260.969 92.9507 260.993C91.2619 261.018 89.4469 260.842 87.8478 261.432C87.8326 261.438 87.8197 261.446 87.8047 261.451C92.629 256.879 96.9509 251.825 101.458 246.944ZM116.998 232.325C124.385 233.67 131.888 233.578 139.376 233.711C147.038 233.848 154.711 233.757 162.374 233.773C166.727 233.782 171.118 233.973 175.455 233.586C175.968 233.54 176.365 233.346 176.648 233.07C176.727 237.685 176.872 242.298 177.072 246.91C176.79 246.79 176.483 246.717 176.164 246.698C166.372 246.122 156.579 245.599 146.775 245.28C136.978 244.96 127.17 244.582 117.368 244.7C112.584 244.758 107.526 244.452 102.809 245.495C104.602 243.589 106.433 241.719 108.348 239.928C111.141 237.317 114.121 234.871 116.998 232.325ZM122.642 226.892C122.652 226.881 122.656 226.868 122.664 226.857C122.69 226.876 122.723 226.89 122.766 226.889C129.681 226.733 137.439 228.916 143.907 225.566C146.794 224.071 149.185 221.708 151.506 219.437C151.508 219.453 151.509 219.47 151.51 219.487C151.526 219.671 151.603 219.893 151.79 219.975C152.553 220.31 153.447 220.332 154.266 220.451C155.208 220.588 156.133 220.668 157.083 220.726C159.178 220.851 161.273 220.984 163.369 221.103C165.46 221.221 167.561 221.231 169.655 221.283C171.754 221.335 173.954 221.59 176.032 221.29C176.223 221.263 176.392 221.203 176.543 221.119C176.546 223.809 176.571 226.498 176.596 229.186C176.6 229.624 176.608 230.062 176.614 230.5C176.333 230.243 175.947 230.063 175.455 230.019C171.602 229.68 167.718 229.831 163.851 229.844C160.053 229.856 156.255 229.869 152.458 229.882C144.789 229.907 137.127 229.982 129.46 230.128C125.731 230.199 122.019 230.513 118.345 231.117C119.833 229.761 121.279 228.365 122.642 226.892ZM62.5563 275.791C61.1406 276.224 59.7352 276.036 58.3168 276.333C58.2295 276.351 58.149 276.385 58.0753 276.43C53.8276 274.614 50.9962 270.971 49.0584 266.888C47.0159 262.585 45.608 257.985 44.6649 253.322C42.7204 243.708 42.717 233.74 43.7235 224.014C44.7124 214.459 46.6705 204.955 49.4647 195.766C51.3832 189.456 53.8282 183.082 57.2231 177.329C61.1431 179.956 64.1833 183.739 67.0472 187.437C70.4695 191.856 73.5536 196.533 76.3143 201.392C76.0288 202.224 75.9845 203.268 75.8476 204.012C75.5837 205.447 75.3454 206.899 75.158 208.346C74.7576 211.439 74.3736 214.533 73.9643 217.625C73.155 223.738 72.1886 229.834 71.1211 235.907C71.0347 236.399 71.1729 236.815 71.427 237.128C69.3097 238.244 67.22 239.41 65.184 240.674C60.7079 243.452 56.5246 246.689 53.2402 250.841C53.1549 250.948 53.2886 251.093 53.3943 250.995C60.4375 244.484 69.1878 240.397 77.779 236.357C82.1693 234.293 86.5381 232.195 90.7504 229.782C95.1553 227.258 99.3562 224.406 103.382 221.315C107.98 217.786 112.308 213.928 116.365 209.788C116.843 209.3 116.727 208.69 116.367 208.304C116.489 208.266 116.587 208.16 116.593 207.984C116.691 205.281 117.502 202.978 119.091 200.79C120.565 198.76 122.443 197.087 124.137 195.25C124.89 194.434 125.61 193.584 126.252 192.677C126.914 191.743 127.317 190.713 127.892 189.737C128.565 188.597 129.137 189.18 129.449 190.211C129.802 191.381 129.78 192.75 129.638 193.953C129.488 195.225 129.101 196.465 128.543 197.615C128.019 198.696 127.415 199.794 127.768 201.033C128.347 203.067 130.832 204.245 132.714 204.704C134.81 205.214 137.002 205.115 139.124 204.85C141.782 204.519 144.427 204.033 147.054 203.517C150.097 202.92 153.121 202.23 156.122 201.451C157.533 201.085 158.933 200.603 160.358 200.3C160.865 200.192 161.805 200.029 162.402 200.294C154.73 204.869 146.366 207.917 137.87 210.574C136.815 210.903 137.248 212.498 138.328 212.234C147.455 210.001 156.041 205.858 164.213 201.321C164.338 201.251 164.444 201.143 164.522 201.016C165.344 200.727 166.179 200.475 167.032 200.268C167.413 200.176 169.372 199.529 169.617 199.777C169.964 200.129 168.763 201.272 168.463 201.604C166.327 203.971 163.787 205.902 161.038 207.499C158.249 209.118 155.281 210.41 152.3 211.628C148.96 212.993 145.43 214.066 142.184 215.635C140.894 216.258 141.799 218.375 143.158 217.946C144.909 217.392 146.61 216.579 148.312 215.888C149.757 215.301 151.203 214.714 152.64 214.108C153.642 213.684 154.637 213.247 155.623 212.79C154.147 214.18 152.67 215.57 151.194 216.96C148.638 219.368 146.209 222.111 143.084 223.799C139.996 225.468 136.474 225.662 133.037 225.626C131.312 225.608 129.594 225.553 127.869 225.623C126.053 225.696 124.44 225.975 122.719 226.547C122.688 226.557 122.665 226.576 122.645 226.598C122.585 226.524 122.483 226.488 122.378 226.55C117.702 229.316 113.439 232.904 109.34 236.45C105.115 240.104 101.14 243.991 97.3519 248.096C93.7263 252.026 90.1297 255.97 86.1845 259.585C82.3324 263.115 78.2159 266.321 73.9174 269.287C71.5753 270.904 69.1753 272.46 66.6921 273.852C65.3651 274.595 64.0174 275.344 62.5563 275.791ZM62.9495 169.398C64.624 167.516 66.4263 165.772 68.3334 164.159C69.1749 164.408 70.0582 164.478 70.9483 164.487C72.3065 164.5 73.6677 164.557 75.0259 164.543C77.6412 164.516 80.2555 164.433 82.8714 164.419C88.22 164.39 93.5704 164.389 98.919 164.435C99.6198 164.441 100.125 164.142 100.437 163.706C101.52 164.934 102.636 166.134 103.761 167.314C105.589 169.233 107.538 171.063 109.613 172.73C109.209 172.733 108.805 172.737 108.404 172.734C106.554 172.722 104.703 172.71 102.853 172.7C99.1409 172.679 95.4283 172.664 91.7157 172.654C84.3348 172.635 76.9309 172.696 69.5596 173.074C67.5137 173.179 65.4517 173.222 63.413 173.421C62.3072 173.53 61.2027 173.656 60.098 173.773C59.8719 173.798 59.6552 173.828 59.4424 173.862C60.5243 172.307 61.6897 170.813 62.9495 169.398ZM92.5107 152.626C92.4608 152.66 92.4069 152.69 92.3592 152.726C92.2506 152.807 92.2677 152.955 92.3957 153.004C92.566 153.071 92.745 153.121 92.9292 153.161C93.4886 153.973 93.9257 154.976 94.231 155.485C95.108 156.946 96.1164 158.338 97.1423 159.697C97.3485 159.97 97.5587 160.24 97.7698 160.509C92.8018 160.497 87.8364 160.523 82.8714 160.711C80.2574 160.81 77.6345 160.893 75.026 161.089C73.9533 161.17 72.8814 161.305 71.8121 161.439C77.3769 157.415 83.6351 154.342 90.1183 152.061C90.1094 152.071 90.1003 152.078 90.0914 152.088C89.9486 152.247 90.1618 152.452 90.3226 152.319C91.166 151.622 91.898 151.949 92.5107 152.626ZM117.613 199.925C117.472 200.139 117.333 200.36 117.197 200.587C116.872 200.262 116.416 200.044 115.83 200.026C109.322 199.823 102.817 199.646 96.3055 199.641C93.0942 199.639 89.8538 199.531 86.6465 199.69C85.036 199.77 83.4262 199.865 81.8165 199.956C80.6911 200.02 79.4955 200.099 78.3965 200.425C75.8636 195.993 73.0519 191.732 69.9813 187.658C76.9481 188.513 84.0342 188.422 91.0405 188.659C98.9784 188.928 106.921 188.986 114.862 189.174C117.04 189.226 119.218 189.283 121.396 189.343C122.52 189.375 123.644 189.407 124.768 189.441C125.119 189.452 125.483 189.462 125.847 189.452C125.819 189.509 125.791 189.566 125.764 189.622C125.151 190.889 124.381 192.054 123.482 193.136C121.573 195.436 119.267 197.417 117.613 199.925ZM109.075 213.577C108.834 212.907 108.246 212.391 107.311 212.434C101.978 212.676 96.6359 212.844 91.3096 213.195C88.715 213.367 86.1099 213.482 83.5195 213.709C82.1835 213.826 80.8498 214.044 79.5194 214.217C78.6074 214.336 77.6524 214.474 76.7776 214.798C76.9472 212.925 77.0968 211.05 77.2267 209.172C77.3309 207.663 77.3626 206.141 77.3545 204.628C77.3505 203.863 77.3245 203.093 77.2876 202.328C77.3662 202.344 77.445 202.351 77.5223 202.342C77.6588 202.325 77.7862 202.309 77.9045 202.277C79.1305 202.757 80.5181 202.863 81.8165 202.956C83.3567 203.066 84.8964 203.182 86.4365 203.292C89.7135 203.526 93.0213 203.511 96.3055 203.618C102.77 203.829 109.237 203.951 115.703 204.125C115.403 205.412 115.392 206.735 115.873 207.982C115.538 207.871 115.153 207.922 114.824 208.247C112.962 210.088 111.044 211.863 109.075 213.577ZM90.2647 227.27C90.1331 226.906 89.8846 226.571 89.5905 226.344C88.4598 225.473 86.3957 225.974 85.0386 226.041C83.4319 226.12 81.825 226.198 80.2183 226.277C79.7307 226.301 77.2419 226.428 75.414 226.817C75.7918 223.964 76.1345 221.106 76.4408 218.242C76.505 217.641 76.5646 217.04 76.6236 216.439C77.4847 216.716 78.4206 216.817 79.3088 216.86C80.6398 216.923 81.9769 217.03 83.3091 217.051C85.9709 217.093 88.6474 216.962 91.3096 216.917C96.1037 216.838 100.898 216.609 105.69 216.42C100.879 220.326 95.7955 223.891 90.4926 227.134C90.417 227.18 90.3403 227.224 90.2647 227.27ZM75.1227 228.963C75.5277 229.017 75.9293 229.035 76.2365 229.066C77.7788 229.221 79.2969 229.363 80.847 229.385C82.384 229.408 83.9207 229.43 85.4577 229.453C85.7845 229.457 86.1114 229.462 86.4382 229.467C82.3912 231.678 78.2199 233.659 74.1076 235.745C74.4699 233.487 74.8081 231.227 75.1227 228.963ZM119.221 178.606C128.444 182.527 140.274 182.882 148.2 176.369C148.988 176.585 149.859 176.657 150.555 176.726C152.117 176.883 153.665 177.028 155.235 177.077C158.296 177.173 161.359 177.316 164.42 177.353C170.613 177.43 176.807 177.466 183.001 177.521C183.528 177.526 183.949 177.365 184.269 177.107C184.897 178.171 185.48 179.261 186.013 180.38C186.789 182.011 187.448 183.696 187.988 185.419C187.873 185.399 187.752 185.385 187.623 185.383C179.484 185.242 171.338 185.477 163.197 185.511C155.054 185.545 146.913 185.51 138.77 185.568C136.516 185.584 134.28 185.584 132.032 185.751C130.862 185.839 129.679 185.877 128.52 186.066C128.39 186.086 128.259 186.105 128.126 186.124C126.573 185.216 124.646 185.406 122.871 185.372C120.833 185.334 118.796 185.299 116.758 185.269C112.754 185.21 108.748 185.166 104.743 185.139C96.7943 185.084 88.8648 185.288 80.921 185.565C76.9686 185.702 73.0312 185.936 69.1297 186.545C68.8677 186.205 68.6083 185.865 68.3429 185.528C65.5785 182.023 62.3013 177.536 57.7523 176.45C57.9268 176.165 58.1038 175.882 58.2836 175.602C61.4353 176.433 64.9121 176.391 68.1323 176.565C71.844 176.766 75.548 176.904 79.2642 176.996C86.6512 177.177 94.0367 177.291 101.425 177.403C103.476 177.435 105.526 177.467 107.577 177.502C108.683 177.52 109.789 177.541 110.895 177.558C111.513 177.568 112.066 177.566 112.654 177.361C113.2 177.171 113.731 176.886 114.259 176.65C114.443 176.567 114.592 176.445 114.714 176.301C116.162 177.167 117.663 177.943 119.221 178.606ZM155.261 165.568C156.421 165.89 157.618 165.944 158.845 166.036C160.455 166.158 162.061 166.179 163.675 166.189C166.248 166.206 168.822 166.188 171.395 166.117C172.5 166.086 173.146 165.346 173.337 164.499C173.364 164.521 173.392 164.542 173.418 164.564C176.549 167.144 179.386 170.096 181.791 173.363C176.001 173.382 170.21 173.385 164.42 173.424C161.359 173.445 158.296 173.571 155.235 173.65C153.734 173.688 152.255 173.813 150.76 173.955C150.73 173.958 150.699 173.96 150.669 173.963C150.827 173.78 150.984 173.595 151.138 173.404C152.925 171.189 154.395 168.459 155.261 165.568ZM192.906 281.851C193.417 280.445 193.219 278.937 193.19 277.458C193.16 275.941 193.144 274.425 193.139 272.908C193.129 269.942 193.109 266.976 193.076 264.01C193.01 258.011 192.941 252.006 192.705 246.01C192.238 234.156 191.34 222.332 189.873 210.557C189.16 204.833 188.275 199.122 187.075 193.479C187.092 193.456 187.108 193.433 187.125 193.41C188.321 191.812 189.68 190.335 190.855 188.726C190.959 188.583 191.003 188.4 191.002 188.215C191.044 188.194 191.088 188.172 191.131 188.147C192.106 187.592 191.226 186.079 190.252 186.641C190.364 186.577 188.746 182.423 188.575 182.004C187.959 180.502 187.266 179.033 186.485 177.61C186.014 176.751 185.51 175.91 184.982 175.085C184.89 174.469 184.557 173.897 183.985 173.592C182.982 172.154 181.898 170.772 180.743 169.456C176.015 164.066 170.109 159.716 163.657 156.617C162.724 156.169 161.764 155.796 160.808 155.405C159.789 154.988 158.845 154.444 157.842 154.007C156.209 153.295 154.597 153.336 152.993 154.089C152.855 154.154 152.954 154.365 153.093 154.328C154.126 154.059 155.184 154.014 156.219 154.306C157.233 154.593 158.004 155.226 158.89 155.755C160.468 156.696 162.233 157.31 163.85 158.189C165.99 159.352 168.08 160.628 170.08 162.03C168.008 162.14 165.934 162.219 163.86 162.274C162.32 162.315 160.78 162.322 159.242 162.411C158.147 162.475 157.009 162.457 155.915 162.634C156.178 160.82 156.179 158.989 155.849 157.221C155.849 157.221 155.849 157.22 155.849 157.219C155.769 156.794 155.673 156.371 155.554 155.953C155.301 155.064 154.491 154.93 153.903 155.267C153.844 155.224 153.786 155.182 153.729 155.136C153.025 154.564 152.39 153.879 151.839 153.159C150.693 151.664 149.767 149.933 149.066 148.188C148.356 146.421 147.852 144.573 147.36 142.736C147.112 141.815 146.845 140.899 146.593 139.979C146.374 139.179 146.215 138.295 145.813 137.566C145.737 137.43 145.511 137.455 145.474 137.611C145.261 138.524 145.374 139.565 145.413 140.496C145.456 141.529 145.516 142.553 145.653 143.578C145.938 145.706 146.398 147.798 147.135 149.819C147.841 151.756 148.773 153.564 150.039 155.197C150.88 156.281 152.074 157.717 153.458 158.302C153.639 160.337 153.618 162.375 153.137 164.391C152.509 167.029 151.305 169.536 149.651 171.685C146.182 176.189 140.816 178.735 135.217 179.259C129.425 179.802 123.498 178.506 118.293 175.958C112.504 173.123 107.702 168.75 103.389 164.029C100.902 161.308 98.3237 158.631 96.0192 155.752C95.6108 155.242 94.9571 154.206 94.1818 153.273C94.9709 153.266 95.7807 153.148 96.4791 153.058C97.9242 152.873 99.3365 152.586 100.749 152.226C103.389 151.555 106.173 150.62 108.48 149.142C113.362 146.013 115.267 142.044 115.918 136.577C116.124 134.849 113.137 134.429 112.858 136.163C112.431 138.828 111.784 140.125 110.934 142.685C110.116 145.145 108.931 146.062 106.667 147.418C104.542 148.692 102.126 149.432 99.7844 150.196C98.4868 150.62 97.1738 151.006 95.8652 151.395C95.0321 151.643 94.0432 151.86 93.1981 152.242C92.7572 151.855 92.2973 151.563 91.8342 151.453C91.8682 151.396 91.824 151.307 91.7387 151.324C91.6026 151.351 91.467 151.381 91.3309 151.409C91.1943 151.419 91.0582 151.446 90.9224 151.495C82.7662 153.262 74.9336 157.024 68.2918 162.15C67.9569 162.29 67.6331 162.461 67.3248 162.678C67.1662 162.789 67.0609 162.966 67.0307 163.149C66.0323 163.965 65.0634 164.811 64.1273 165.687C56.588 172.741 51.811 182.125 48.4669 191.777C45.1726 201.286 42.9426 211.257 41.7164 221.241C40.4664 231.417 40.3223 241.805 42.1354 251.924C43.1089 257.357 44.685 262.697 47.0112 267.708C49.1002 272.209 52.5006 277.337 57.8414 277.885C57.8586 277.902 57.8746 277.92 57.8938 277.936C59.9894 279.662 63.1094 278.47 65.3002 277.439C65.6476 277.275 65.9921 277.103 66.3352 276.927C66.154 277.625 66.0722 278.356 66.0344 279.041C65.9556 280.463 67.9607 280.544 68.3404 279.363C71.5907 279.935 74.9471 279.943 78.2347 279.925C81.908 279.905 85.58 279.777 89.2491 279.605C96.529 279.261 103.8 278.736 111.085 278.497C125.835 278.014 140.626 279.047 155.364 279.567C159.499 279.713 163.633 279.858 167.768 280.004C171.992 280.153 176.212 280.182 180.402 280.753C181.943 280.964 182.533 279.453 182.099 278.512C182.207 277.88 182.099 277.187 182.04 276.442C181.929 275.051 181.825 273.659 181.727 272.267C181.535 269.552 181.35 266.836 181.175 264.121C180.82 258.617 180.514 253.11 180.217 247.603C179.625 236.654 179.172 225.697 178.839 214.737C178.758 212.066 178.652 209.393 178.518 206.724C178.678 206.471 178.837 206.217 178.991 205.961C179.503 205.107 180.005 204.247 180.523 203.396C181.564 201.691 182.611 199.997 183.705 198.325C184.65 196.882 185.624 195.46 186.642 194.068C187.907 204.749 189.03 215.439 189.546 226.188C190.114 238.027 190.416 249.883 190.58 261.734C190.626 265.045 190.657 268.356 190.692 271.667C190.71 273.391 190.729 275.114 190.714 276.838C190.701 278.487 190.452 280.291 191.036 281.851C191.377 282.761 192.57 282.777 192.906 281.851Z" fill="black"/>
<path fill-rule="evenodd" clip-rule="evenodd" d="M122.943 51.182C131.288 50.7382 146.664 54.5619 153.945 59.0449C165.807 66.3489 166.726 80.919 166.242 83.4383C166.058 84.3997 165.471 85.2895 164.552 84.9938C165.332 91.6131 165.27 95.3965 165.401 102.054L165.491 106.499C165.55 109.462 165.6 112.426 165.613 115.39C165.913 115.278 166.208 115.415 166.318 115.703C166.346 115.773 166.251 115.811 166.204 115.771C165.676 115.31 166.052 116.36 166.234 116.574C166.485 116.868 166.904 117.144 167.197 117.396L167.995 118.087L168.792 118.776C169.823 119.665 170.819 120.556 171.78 121.514L172.042 121.777C173.793 123.557 175.988 125.279 177.078 127.581C178.12 129.779 177.799 132.271 176.068 134.023C175.439 134.659 174.704 135.145 173.905 135.513C175.327 137.855 175.534 140.951 174.051 143.36C172.565 145.778 169.709 147.044 166.958 146.85C166.874 147.194 166.743 147.53 166.57 147.849C165.479 149.854 163.309 150.115 161.252 150.007L161.172 150.003C156.541 149.737 152.085 148.576 148.029 146.321C146.622 146.416 145.367 145.26 145.092 143.992C144.353 143.965 143.609 143.903 142.851 143.817C140.601 143.557 138.294 143.073 136.31 141.929C136.006 141.754 136.147 141.291 136.485 141.283C138.902 141.228 141.321 141.395 143.734 141.133C145.948 140.894 148.308 140.283 150.372 139.452C154.082 137.956 157.263 135.418 159.019 131.901C161.292 127.348 161.085 121.881 161.332 116.935C161.606 111.461 161.943 105.992 162.304 100.523L162.479 97.9014C162.829 92.7918 163.118 90.0584 164.005 84.755C161.332 84.9938 150.231 80.9965 146.778 74.4578C140.226 88.3678 107.028 82.675 105.556 104.089C105.543 104.271 105.256 104.22 105.245 104.047L105.218 103.559C105.204 103.318 105.192 103.08 105.184 102.845L105.177 102.61L104.656 102.616C104.656 102.682 104.563 102.705 104.539 102.635C104.047 101.238 101.702 101.688 100.682 102.02C99.7627 102.32 98.8965 102.781 98.119 103.35C96.5577 104.491 95.3472 106.027 94.9458 107.948C94.1831 111.596 96.5049 115.312 99.5873 117.073C101.531 118.182 103.661 118.899 105.524 120.156C107.17 121.266 108.704 122.566 110.032 124.043C115.297 129.895 118.394 138.772 115.904 146.497C115.713 147.086 115.211 147.76 114.545 147.856C113.444 148.014 112.344 147.854 111.727 146.805C111.486 146.395 111.372 145.928 111.397 145.467C110.97 146.934 109.587 148.384 108.311 148.929C106.572 149.673 104.613 149.451 103.08 148.492L102.886 148.635C100.391 150.472 97.605 152.146 94.4091 151.808C92.0937 151.563 89.8204 150.383 88.5401 148.524C86.8373 149.481 85.0183 150.244 83.1422 150.764L82.9426 150.819C80.3615 151.522 77.0691 152.166 74.6598 150.738C72.3465 149.367 71.5775 146.372 72.1204 143.872C72.1859 143.574 72.2683 143.284 72.3697 143.003C70.6289 143.096 68.8901 142.929 67.238 142.418C65.55 141.895 63.9401 140.892 63.131 139.264C62.2183 137.423 62.4613 135.331 63.1415 133.456C64.2296 130.449 65.9789 127.773 68.157 125.442C70.2517 123.199 72.7783 121.295 75.4042 119.709L75.8469 119.444C78.2106 118.033 81.0612 116.38 83.8542 116.489C83.8458 116.453 83.8394 116.419 83.8352 116.384C83.4127 113.27 83.4613 110.096 83.362 106.957C83.2711 104.07 83.1676 101.183 83.1 98.2941C82.9901 93.3821 83.026 88.4494 83.6662 83.5714C84.2345 79.243 85.257 75.0221 87.1225 71.0593C89.081 66.8959 92.0303 63.3431 95.6725 60.549C103.316 54.6841 113.413 51.6892 122.943 51.182ZM96.9802 108.874C97.8126 107.304 99.7077 106.809 101.37 107.093C103.701 107.49 105.285 109.527 106.646 111.28C108.074 113.116 105.095 114.847 104.328 113.068L104.146 112.647C103.531 111.236 102.804 109.748 101.548 108.828C100.213 107.851 98.3281 107.708 97.1493 109.005C97.0648 109.1 96.9232 108.978 96.9802 108.874Z" fill="black"/>
<path fill-rule="evenodd" clip-rule="evenodd" d="M131.904 116.766C135.526 116.326 139.036 117.436 142.577 117.995C144.446 118.29 146.318 118.51 148.209 118.592C148.59 118.609 148.97 118.618 149.351 118.626C149.387 118.291 149.574 117.983 149.981 117.798C150.814 117.421 151.481 117.25 152.395 117.287C153.233 117.32 154.073 117.406 154.898 117.557C156.395 117.831 157.899 118.455 158.994 119.537C161.528 122.042 161.143 126.066 159.184 128.795C155.138 134.433 147.753 134.695 141.428 134.621L140.844 134.614C135.085 134.531 126.846 135.39 124.23 128.836C123.267 126.425 123.401 123.631 124.579 121.319C125.984 118.562 128.942 117.126 131.904 116.766ZM149.893 126.154L149.842 126.156C147.187 126.258 144.532 126.33 141.875 126.377C141.955 127.06 142.036 127.743 142.129 128.424C142.201 128.96 142.279 129.495 142.36 130.03C142.395 130.256 142.521 130.608 142.485 130.832L142.472 130.92C142.609 130.982 142.733 131.082 142.825 131.226C142.857 131.276 142.88 131.326 142.903 131.376C144.966 131.392 147.185 131.352 149.288 130.977L149.292 130.932C149.33 130.663 149.442 130.482 149.59 130.358C149.738 129.501 149.725 128.588 149.782 127.738C149.818 127.21 149.856 126.682 149.893 126.154ZM139.846 126.414C137.932 126.446 136.018 126.471 134.104 126.448L133.236 126.434C133.419 127.419 133.619 128.4 133.785 129.391C133.958 130.424 133.049 131.081 132.262 131.054C132.351 131.069 132.439 131.084 132.527 131.096C134.984 131.444 137.536 131.352 140.03 131.349C139.896 130.565 139.95 129.681 139.93 129.027L139.926 128.926C139.888 128.088 139.861 127.251 139.846 126.414ZM126.846 126.233C126.913 126.745 127.042 127.246 127.235 127.712C128.052 129.683 129.925 130.603 131.907 130.99C131.563 130.871 131.29 130.586 131.221 130.097C131.049 128.882 130.987 127.646 130.983 126.412C129.602 126.399 128.211 126.37 126.846 126.233ZM157.095 125.812C156.112 126.044 154.97 125.938 154.005 125.982C153.101 126.023 152.197 126.059 151.293 126.095C151.336 126.712 151.377 127.329 151.422 127.946C151.481 128.744 151.486 129.586 151.639 130.38C153.458 129.759 155.087 128.763 156.31 127.171C156.615 126.774 156.888 126.308 157.095 125.812ZM131.489 120C129.852 120.387 128.303 121.206 127.47 122.705C126.976 123.594 126.759 124.647 126.801 125.686C128.184 125.525 129.591 125.464 130.992 125.413C130.996 125.161 131.002 124.909 131.01 124.657L131.031 124.013C131.07 122.784 131.089 121.24 131.489 120ZM139.961 120.149L139.24 120.068C137.239 119.84 135.238 119.601 133.237 119.738C132.947 119.758 132.653 119.79 132.359 119.833C132.712 121.11 132.683 122.61 132.83 123.874C132.888 124.363 132.96 124.847 133.04 125.33L133.387 125.314C135.534 125.198 137.684 125.126 139.833 125.041C139.833 124.637 139.835 124.233 139.842 123.829L139.85 123.425C139.874 122.393 139.807 121.23 139.961 120.149ZM150.01 119.986C147.914 120.324 145.748 120.396 143.689 120.399C142.867 120.4 142.045 120.349 141.223 120.276C141.277 120.714 141.304 121.156 141.345 121.588C141.426 122.46 141.519 123.331 141.619 124.2L141.709 124.962C144.351 124.842 146.992 124.712 149.634 124.578L150.006 124.558L150.111 123.095C150.182 122.12 150.26 121.145 150.371 120.174L150.288 120.144C150.19 120.104 150.098 120.049 150.01 119.986ZM150.921 120.349C151.036 121.728 151.1 123.113 151.185 124.494L152.926 124.401C153.216 124.385 153.506 124.369 153.797 124.352C154.925 124.287 156.375 123.946 157.49 124.264C157.575 123.25 157.285 122.262 156.37 121.58C154.764 120.383 152.718 120.809 150.921 120.349ZM144.972 108.02C147.565 106.534 154.07 105.016 154.482 109.684C154.671 111.832 153.075 113.612 151.211 114.406L151.141 114.435C149.393 115.154 146.294 115.966 144.781 114.407C143.522 113.109 145.192 110.783 146.757 111.846C147.561 112.392 149.253 111.989 150.151 111.73L150.207 111.713C151.175 111.429 152.466 110.517 152.066 109.325C151.711 108.27 150.204 108.077 149.26 108.043C147.85 107.992 146.479 108.32 145.082 108.426C144.861 108.443 144.793 108.123 144.972 108.02ZM155.712 100.514C159.231 100.349 161.42 104.193 160.611 107.342C160.471 107.886 159.863 108.419 159.277 108.358L159.129 108.344C159.054 108.337 158.978 108.328 158.909 108.309C158.352 108.154 157.853 107.575 157.893 106.974L157.904 106.799C157.986 105.311 157.825 103.597 156.058 103.237C154.559 102.931 153.722 104.375 153.704 105.703C153.701 105.939 153.436 106.104 153.227 105.977C152.144 105.317 151.956 104.005 152.37 102.875C152.895 101.443 154.207 100.585 155.712 100.514ZM129.599 101.339C132.159 100.484 134.922 101.849 136.162 104.114C136.597 104.24 137.031 104.576 136.971 105.089C136.884 105.828 136.752 106.294 136.24 106.854C135.439 107.731 133.939 107.283 133.606 106.204L133.592 106.155C133.214 104.76 131.679 103.84 130.281 104.328C128.648 104.898 128.695 106.624 127.55 107.629C127.415 107.747 127.254 107.766 127.093 107.688C125.876 107.1 126.094 105.33 126.528 104.316C127.097 102.987 128.203 101.804 129.599 101.339ZM126.111 93.5594C128.186 91.4412 133.597 89.3915 135.017 93.303C135.287 94.048 134.711 95.0525 133.936 95.207C132.666 95.4598 131.54 94.9084 130.279 95.0073C129.257 95.0878 128.192 95.4292 127.376 96.0619C125.115 97.8145 124.618 100.779 123.042 103.009C122.966 103.118 122.817 103.072 122.803 102.944C122.444 99.6968 123.838 95.8791 126.111 93.5594ZM153.173 91.4742C154.55 90.9877 156.11 91.0293 157.494 91.4609C158.888 91.8958 160.168 92.7218 161.155 93.8009C161.602 94.2909 162.016 94.8315 162.348 95.407C162.525 95.712 162.71 96.342 162.911 96.7172C163.996 97.3437 164.459 98.7714 163.488 99.7871L163.444 99.8316L163.314 99.9605C162.792 100.478 162.005 100.702 161.292 100.495C159.698 100.033 159.504 98.777 158.952 97.4434C158.587 96.5624 157.963 95.783 157.205 95.2104C155.415 93.8578 152.48 93.4269 150.325 94.0643C150.21 94.0983 150.075 93.9521 150.157 93.846C150.566 93.3167 150.801 92.8824 151.348 92.4555C151.903 92.0222 152.508 91.7092 153.173 91.4742Z" fill="black"/>
<path fill-rule="evenodd" clip-rule="evenodd" d="M159.889 92.1488C164.848 92.1488 167.678 93.2156 168.715 93.2987L168.746 93.301C169.178 93.3285 169.564 93.3646 169.97 93.5217C171.463 94.0968 171.706 95.663 170.835 96.65C170.774 98.6925 171.043 101.079 170.582 103.128C170.014 111.766 165.953 113.224 163.645 113.756C162.486 114.023 161.112 114.129 159.881 113.847C157.781 113.769 155.705 113.111 153.929 111.966C151.455 110.37 149.618 107.917 149.022 105.005C148.739 103.617 148.607 102.173 148.761 100.762L148.784 100.568C147.979 100.183 147.048 100.11 146.087 100.076C145.628 100.06 145.176 100.045 144.737 100.065C144.307 100.113 143.883 100.177 143.457 100.264C142.993 100.404 142.554 100.636 142.148 101.002L142.12 101.538C142.044 102.875 141.869 104.216 141.598 105.527C141.199 107.463 140.556 109.311 139.188 110.684C138.725 111.376 138.152 111.993 137.456 112.528C134.929 114.475 131.496 115.189 128.346 114.92C121.949 114.374 118.252 109.294 117.4 107.123L117.349 106.991C116.733 105.377 116.243 103.283 114.298 102.936L113.884 102.862C112.997 102.695 112.178 102.463 111.657 101.597C111.429 101.219 111.312 100.796 111.283 100.364C110.979 100.388 110.676 100.41 110.374 100.432C107.964 100.942 93.5072 101.374 92.3533 101.374C92.3533 101.374 90.1352 102.308 89.1987 101.584C88.5496 101.081 88.3361 100.41 88.6934 99.6506C89.2325 98.5075 91.7199 97.8199 92.8244 97.6022C92.8244 97.6022 110.648 97.7503 111.931 97.507C112.724 96.6882 114.144 96.8003 115.331 96.6708C116.313 95.9703 117.687 95.5011 118.772 95.187C118.993 95.1032 119.212 95.0221 119.425 94.9457C121.415 94.2369 123.483 93.8614 125.582 93.6598C127.747 93.454 129.919 93.5471 132.071 93.8421C132.978 93.9652 133.877 94.1244 134.769 94.3326C136.367 94.5433 137.955 94.8903 139.553 95.302L139.873 95.3852C141.556 95.8266 143.285 96.2084 145.028 95.9092C146.446 95.6671 147.81 95.1211 149.118 94.5306L149.288 94.4533C152.164 93.1399 156.654 92.1488 159.889 92.1488ZM134.596 96.9512C133.535 96.7177 133.082 98.3542 134.146 98.5883C134.9 98.754 135.539 99.1343 135.97 99.7784L136.016 99.8484C136.595 100.77 138.059 99.9193 137.476 98.9915C136.82 97.9474 135.8 97.216 134.596 96.9512ZM165.671 95.9365C165.296 95.673 164.73 95.8686 164.513 96.2411C164.274 96.6512 164.431 97.1079 164.781 97.3762L164.817 97.4024C165.138 97.6289 165.451 98.035 165.49 98.4511L165.494 98.5032C165.536 99.5921 167.228 99.5976 167.185 98.5032C167.144 97.4325 166.524 96.538 165.671 95.9365Z" fill="black"/>
</svg>
