<svg width="240" height="324" viewBox="0 0 240 324" fill="none" xmlns="http://www.w3.org/2000/svg">
<path fill-rule="evenodd" clip-rule="evenodd" d="M113.516 131.461C113.619 131.123 114.065 131.218 114.099 131.539C114.435 134.726 114.013 138.057 113.607 141.223C113.413 142.751 113.3 144.341 113.005 145.847C112.967 146.008 112.931 146.171 112.897 146.332C112.994 146.505 113.282 146.699 113.419 146.832L114.015 147.412L115.21 148.57C117.549 150.835 119.888 153.103 122.227 155.369L125.66 158.698C126.837 159.839 128.174 160.932 129.207 162.204C129.767 162.895 129.893 163.742 129.342 164.482C129.069 164.848 128.58 165.114 128.083 165.169C128.277 165.44 128.427 165.746 128.522 166.086C128.717 166.78 128.015 167.631 127.27 167.342C126.423 167.016 125.723 166.433 124.861 166.154C123.991 165.871 123.044 165.816 122.142 165.968C121.728 166.038 121.322 166.141 120.927 166.272C125.155 168.219 129.729 169.337 134.393 169.497C135.344 169.529 136.293 169.516 137.237 169.453C138.826 169.35 140.404 169.109 141.955 168.72C143.174 168.413 144.38 168.029 145.551 167.564C146.125 167.335 146.693 167.084 147.243 166.799L147.291 166.77C147.415 166.693 149.711 165.39 149.751 165.195C149.791 164.999 149.791 164.931 149.716 164.76C149.641 164.59 149.434 164.473 149.434 164.473C148.725 164.169 147.99 163.887 147.215 163.882C145.432 163.871 143.486 165.19 142.012 166.089C140.392 167.076 138.902 168.229 137.343 169.299C137.307 169.324 137.267 169.335 137.229 169.335C137.064 169.335 136.912 169.132 137.017 168.973C138.135 167.327 139.643 165.957 141.221 164.76L141.857 164.284C143.302 163.206 144.992 162.012 146.749 161.751C148.901 161.434 151.149 162.777 153.07 163.563L156.471 164.956C157.077 165.203 157.737 165.414 158.347 165.695L156.922 161.234C156.209 159.003 155.499 156.771 154.796 154.538L154.659 154.101C153.959 151.834 153.315 149.476 152.148 147.405C151.869 146.909 151.55 146.441 151.236 145.97C150.908 145.482 150.786 144.943 150.374 144.507C149.558 143.643 148.39 143.136 147.274 142.804C147.002 142.724 147.082 142.365 147.338 142.337C148.483 142.216 149.574 142.483 150.609 142.966L151.039 143.172C152.017 143.635 152.971 144.065 153.697 144.896C155.353 146.794 156.213 149.184 157.003 151.542L157.215 152.175C157.51 152.078 159.52 152.691 159.771 152.837C167.303 156.022 173.104 161.952 177.346 168.901C181.994 176.516 184.525 185.218 186.615 193.828C187.259 196.486 187.876 199.151 188.468 201.823C185.829 202.839 183.024 203.37 180.553 204.801C179.612 205.346 180.462 206.808 181.406 206.261C183.72 204.921 186.356 204.426 188.833 203.484C190.176 209.669 191.371 215.888 192.372 222.132C195.446 241.298 197.387 260.775 197.265 280.203C197.262 280.632 197.136 281.112 196.901 281.524C197.039 281.456 197.146 281.376 197.208 281.279C197.987 280.055 199.941 281.19 199.158 282.42L199.043 282.598C198.455 283.505 197.906 284.199 196.872 284.711C195.83 285.227 194.702 285.313 193.553 285.343C189.646 285.446 185.737 285.513 181.827 285.561C181.291 281.377 181.073 277.153 180.334 272.993C180.144 271.923 178.515 272.376 178.704 273.442C179.418 277.459 179.646 281.537 180.144 285.581C171.784 285.671 163.42 285.672 155.066 285.696C143.745 285.729 132.426 285.706 121.106 285.699L116.254 285.698C103.177 285.698 90.0991 285.656 77.0218 285.569L73.9118 285.547C72.6746 278.251 71.8325 270.893 71.8168 263.478C71.8145 262.391 70.1244 262.388 70.1267 263.478C70.1423 270.884 70.9751 278.244 72.2009 285.537C69.1046 285.524 66.0097 285.535 62.9132 285.645L61.3371 285.701C58.1837 285.809 55.024 285.876 51.8765 285.624C48.3822 285.343 44.8479 284.7 41.7148 283.054C40.3037 282.311 39.0613 281.362 37.9994 280.245C39.0788 279.617 40.1736 279.014 41.2191 278.33C42.1257 277.736 41.28 276.272 40.366 276.87C39.2394 277.608 38.055 278.25 36.8949 278.932C36.0549 277.811 35.3655 276.566 34.842 275.224C34.016 273.103 33.697 270.823 33.4202 268.578C33.0929 265.935 32.9575 263.269 32.9575 260.607C32.9575 255.006 33.547 249.422 34.369 243.889C35.1551 238.588 36.1942 233.33 37.2926 228.088L37.4427 227.374C38.5265 222.221 39.5596 217.053 40.8019 211.937C41.9505 207.205 43.2779 202.496 44.8599 197.878C46.268 198.749 47.7416 199.51 49.1277 200.418C50.0406 201.015 50.8884 199.552 49.9808 198.958C48.502 197.99 46.9246 197.185 45.4322 196.239C47.2012 191.294 49.2775 186.464 51.7669 181.838C56.7526 172.575 63.4711 164.288 72.076 158.171C76.3836 155.111 81.1096 152.607 86.0725 150.785C91.1324 148.925 96.3758 147.906 101.738 147.488C101.891 147.476 101.977 147.617 101.971 147.748L101.968 147.773L102.18 147.807C102.258 147.276 102.418 146.763 102.725 146.291C103.422 145.218 104.744 144.529 105.8 143.869L106.051 143.713C107.308 142.934 108.634 142.166 110.096 141.893C110.146 141.885 110.178 141.937 110.144 141.978C109.18 143.083 107.948 143.928 106.818 144.863L106.558 145.08C105.622 145.851 104.316 146.725 104.281 148.014C104.242 149.531 104.552 151.11 104.664 152.623C104.776 154.132 104.854 155.639 104.894 157.152C105.04 162.574 104.865 167.997 104.385 173.397L106.506 171.977C109.807 169.766 113.119 167.562 116.499 165.492C118.544 164.239 120.843 163.168 123.293 163.216C123.98 163.229 124.755 163.328 125.499 163.54C124.699 162.781 123.932 161.974 123.148 161.211C121.857 159.953 120.566 158.696 119.275 157.44L115.553 153.813L111.83 150.186C110.677 149.06 109.324 148.022 109.447 146.247C109.546 144.831 110.267 143.421 110.759 142.056C110.829 141.859 110.892 141.665 110.951 141.473C111.944 138.171 112.508 134.749 113.516 131.461ZM161.62 273.107C160.85 272.336 159.654 273.531 160.425 274.302L160.832 274.708C161.512 275.387 162.187 276.087 162.657 276.926L162.727 277.053C163.234 278.016 164.693 277.162 164.186 276.199C163.559 275.009 162.561 274.048 161.62 273.107ZM128.634 272.889C126.183 272.421 123.821 272.421 121.37 272.889C120.303 273.093 120.755 274.723 121.819 274.52C123.963 274.11 126.041 274.11 128.185 274.52C129.248 274.723 129.703 273.094 128.634 272.889ZM95.5344 255.846C94.4797 255.579 94.0297 257.209 95.0852 257.476L95.6048 257.607C97.3713 258.043 99.0537 258.369 100.889 257.963C101.936 257.732 101.513 256.141 100.481 256.325L100.439 256.333C98.7414 256.708 97.1772 256.262 95.5344 255.846ZM154.319 244.863C153.538 244.105 152.342 245.299 153.123 246.059C154.099 247.008 155.248 247.729 156.641 247.767C157.713 247.797 157.728 246.157 156.689 246.079L156.641 246.077C155.708 246.051 154.964 245.491 154.319 244.863ZM54.8484 240.348C55.8215 239.861 54.9665 238.402 53.9955 238.888L48.1544 241.809C47.1813 242.296 48.0363 243.755 49.0073 243.269L54.8484 240.348ZM170.271 240.72C169.183 240.69 169.184 242.381 170.271 242.411C171.293 242.44 172.341 242.827 173.251 243.269C174.226 243.743 175.084 242.285 174.105 241.809C172.914 241.231 171.607 240.758 170.271 240.72ZM115.694 232.557C116.588 231.949 115.743 230.483 114.84 231.097C113.608 231.934 112.492 232.924 111.28 233.787L110.946 234.018C110.052 234.627 110.896 236.092 111.799 235.478C113.143 234.565 114.35 233.47 115.694 232.557ZM178.546 220.268C177.458 220.268 177.456 221.959 178.546 221.959L178.752 221.958C179.65 221.953 180.596 221.929 181.431 222.287L181.526 222.331C182.505 222.792 183.364 221.334 182.38 220.871C181.156 220.294 179.876 220.269 178.546 220.268ZM84.6837 219.06L84.8256 219.007C85.8418 218.642 85.4037 217.008 84.3763 217.377C82.8281 217.933 81.6236 218.984 80.2806 219.897C79.3857 220.505 80.2303 221.97 81.1335 221.357C82.2907 220.571 83.3673 219.575 84.6837 219.06ZM148.078 214.662L148.306 214.54C149.274 214.041 148.42 212.582 147.453 213.08C146.686 213.474 146 214 145.247 214.418L145.019 214.54C144.052 215.038 144.906 216.498 145.872 216C146.64 215.605 147.326 215.08 148.078 214.662ZM122.366 198.285L122.192 198.116C121.414 197.354 120.218 198.549 120.997 199.312C122.942 201.216 125.241 202.662 127.561 204.06L127.983 204.314C128.918 204.875 129.769 203.413 128.836 202.854L128.217 202.481C126.155 201.237 124.116 199.953 122.366 198.285ZM75.5956 196.706C76.2509 195.855 74.8257 195.022 74.1596 195.823L74.1361 195.853C73.4539 196.739 72.6444 197.541 71.7984 198.273L71.6394 198.409C71.1357 198.838 70.219 199.756 69.5115 199.816C68.4357 199.908 68.426 201.6 69.5115 201.507C70.6063 201.414 71.5483 200.643 72.3754 199.983C73.5792 199.022 74.656 197.926 75.5956 196.706ZM165.514 190.547C166.299 189.809 165.139 188.634 164.347 189.326L164.319 189.351C162.851 190.731 160.74 191.101 158.851 191.568C157.795 191.83 158.242 193.461 159.3 193.199L160.161 192.986C162.091 192.504 164.029 191.943 165.514 190.547ZM132.041 179.882C130.987 179.614 130.537 181.244 131.592 181.512C133.385 181.968 135.083 182.557 136.744 183.375C137.717 183.853 138.574 182.396 137.598 181.915C135.81 181.035 133.972 180.372 132.041 179.882ZM149.307 144.239C149.281 144.163 149.362 144.076 149.44 144.104C151.337 144.811 150.328 147.296 149.739 148.784L149.632 149.056C148.709 151.44 147.418 153.76 146.011 155.895C144.539 158.129 142.903 160.268 141.133 162.276C140.365 163.147 139.568 163.994 138.745 164.816L138.435 165.122C137.603 165.941 136.53 167.378 135.238 167.219C133.848 167.052 133.073 165.567 134.087 164.438C134.803 163.639 135.796 163.003 136.597 162.276C137.392 161.557 138.161 160.815 138.91 160.052C140.444 158.486 141.898 156.831 143.227 155.088C144.512 153.402 145.742 151.669 146.86 149.867L147.082 149.506C147.934 148.105 149.899 146.044 149.307 144.239ZM82.107 161.95C81.2066 161.334 80.3603 162.799 81.2539 163.41C82.8972 164.533 84.3429 165.894 86.1215 166.818C87.0739 167.313 87.9208 165.895 87.0084 165.377L86.9746 165.359C85.1972 164.435 83.7494 163.073 82.107 161.95Z" fill="black"/>
<path fill-rule="evenodd" clip-rule="evenodd" d="M118.363 41.4791C119.508 40.1687 121.441 39.6446 123.159 39.746C125.654 39.894 127.824 41.4347 130.306 41.5488C132.909 41.6693 135.421 40.7668 138.03 41.1853C139.629 41.4432 141.214 42.185 142.238 43.4362C145.788 42.4196 149.641 43.7659 151.902 46.7058C154.691 46.2725 157.724 48.1199 158.578 50.8081C162.121 50.9222 165.465 53.7691 165.86 57.3367C167.276 57.7108 168.505 58.6874 169.26 59.9786C170.136 61.4749 170.282 63.1911 170.124 64.8777C171.791 65.7294 172.638 67.5597 172.86 69.4957C174.383 70.6327 175.044 72.6765 174.733 74.6061C175.9 75.2634 176.502 76.7936 176.495 78.1589C176.489 79.4334 176.151 80.5622 176.627 81.792C177.05 82.8874 177.202 83.8003 176.969 84.9477L176.945 85.0595C176.904 85.2466 176.87 85.426 176.839 85.6029C177.154 85.8798 177.421 86.2268 177.621 86.6305C178.352 88.1057 178.243 89.7883 177.686 91.2844C177.93 92.2372 177.899 93.2436 177.538 94.1594C178.213 95.1327 178.569 96.3264 178.464 97.5649C178.347 98.9516 177.714 100.193 176.754 101.111C177.01 103.005 176.24 105.052 174.848 106.386C175.046 107.52 174.875 108.708 174.255 109.783C173.813 110.549 173.218 111.12 172.532 111.517C172.554 112.15 172.469 112.797 172.258 113.445C171.966 114.345 171.472 115.173 170.82 115.841C171.209 118.326 169.722 121.083 167.104 121.781C166.884 121.839 166.674 121.866 166.473 121.87C166.213 124.26 165.645 126.617 164.766 128.856C162.531 134.556 158.466 139.539 153.165 142.648C150.543 144.185 147.598 145.237 144.592 145.677C142.429 145.994 140.348 145.916 138.176 145.7C135.45 145.427 132.712 145.02 130.063 144.318L129.637 144.205C128.539 143.91 127.381 143.571 126.429 142.978C125.364 142.314 124.811 141.291 124.566 140.087C124.429 139.416 124.854 138.695 125.588 138.681L125.635 138.681C125.795 138.685 125.955 138.678 126.116 138.668L126.237 138.66H126.243C126.252 138.658 126.256 138.658 126.264 138.658C126.336 138.647 126.406 138.626 126.476 138.616C127.283 138.48 127.989 138.615 128.747 138.867L128.842 138.899C130.118 139.338 131.383 139.746 132.702 140.049C134.064 140.359 135.444 140.607 136.828 140.801L136.965 140.818L137.007 140.824L137.029 140.826C137.033 140.826 137.037 140.826 137.041 140.829L137.449 140.879C137.77 140.917 138.091 140.951 138.412 140.985C139.004 141.044 139.595 141.091 140.187 141.124C150.398 141.699 158.973 133.657 161.561 124.016C162.499 120.526 162.56 117.045 162.283 113.562C162.195 113.309 162.142 113.027 162.144 112.719C162.144 112.558 162.153 112.4 162.163 112.239C161.819 108.87 161.221 105.499 160.847 102.118C160.41 98.1675 160.167 94.1943 160.255 90.2186C160.3 88.2551 160.509 86.3107 160.783 84.3665L160.883 83.668C159.642 83.4256 158.488 82.8367 157.569 81.9844C155.575 83.1362 152.994 83.2383 151.026 82.022C148.82 83.4057 145.739 83.5312 143.518 82.1784C142.175 83.1371 140.484 83.5507 138.824 83.1867C138.077 83.0232 137.334 82.6691 136.698 82.179C136.244 82.2591 135.784 82.2902 135.327 82.2663L135.233 82.3191C134.178 82.875 133.01 83.2408 131.809 83.2001C130.919 83.17 130.002 82.9944 129.153 82.6622C128.247 83.2096 127.255 83.5832 126.193 83.7172C124.643 83.9127 122.97 83.5697 121.681 82.6901C119.325 84.0326 116.428 84.2393 113.885 83.3372C113.364 84.2196 112.643 84.9805 111.8 85.567C111.951 86.1084 111.999 86.6859 111.947 87.2411C111.862 88.155 111.633 88.9744 111.258 89.7103C111.653 90.532 111.772 91.541 111.551 92.5538C111.236 93.9982 110.396 95.2546 109.308 96.2332C109.212 98.5382 107.948 100.699 105.892 101.9C105.788 101.961 105.684 102.01 105.581 102.055C105.49 102.179 105.382 102.288 105.258 102.381C103.95 103.589 101.88 103.493 100.241 102.81C100.209 102.812 100.178 102.814 100.146 102.815C99.5603 102.83 99.1612 102.602 98.9243 102.266C98.6858 102.278 98.449 102.304 98.2105 102.348C97.3398 102.511 96.3849 102.824 95.5969 103.23C93.5518 104.282 92.6053 106.142 92.3222 108.378C92.014 110.817 92.7152 113.302 94.602 114.953C95.5187 115.756 96.6912 116.259 97.8828 116.47C99.199 116.705 100.606 116.128 101.578 117.259C101.772 117.483 101.905 117.796 101.8 118.098C101.47 119.04 100.927 119.402 100.078 119.533C101.305 120.989 102.564 122.397 103.959 123.705C105.467 125.123 107.026 126.497 108.387 128.061C109.826 129.716 111.125 131.47 112.027 133.478C112.543 134.632 112.957 135.822 113.403 137.003L113.482 137.209C113.98 138.464 114.641 139.674 113.876 140.985C113.572 141.501 112.883 141.999 112.249 141.917C110.464 141.689 109.866 140.482 109.317 138.909C108.903 137.722 108.586 136.5 108.14 135.323C108.057 135.105 107.966 134.889 107.87 134.675C106.841 134.962 105.709 134.734 104.791 134.147C103.809 134.582 102.722 134.799 101.672 134.781C100.265 134.756 98.9807 134.365 97.8762 133.66C97.7884 133.637 97.7 133.615 97.6124 133.589C95.9322 134.233 93.9644 134.118 92.4431 133.075C91.4579 132.399 90.7844 131.497 90.4016 130.493C89.1287 130.469 87.8695 130.017 86.9575 129.114C86.12 128.285 85.6305 127.215 85.4852 126.103C84.3895 125.886 83.3624 125.356 82.5568 124.463C81.8841 123.718 81.4753 122.768 81.3372 121.783C80.0028 121.402 78.7994 120.53 78.1422 119.315C77.5305 118.184 77.4422 116.956 77.7414 115.84L77.6638 115.728C76.2893 115.009 75.2404 113.831 75.1326 112.148C75.1022 111.669 75.1538 111.189 75.2837 110.736C75.2368 110.229 75.2668 109.722 75.3997 109.232C73.5511 107.433 72.8814 104.544 73.8849 102.156C72.0786 100.211 71.6011 97.1361 72.9257 94.8283C72.0173 93.7291 71.5504 92.3279 71.6286 90.8315C71.7257 88.9634 72.5814 87.3315 73.606 85.8204C72.8455 84.9792 72.4398 83.8062 72.4696 82.6734C72.5117 81.0312 73.3842 79.6172 74.4767 78.4464C73.5236 75.5551 74.5884 72.4187 76.9272 70.5884C76.4539 69.8085 76.2786 68.8426 76.433 67.8641C76.7032 66.1542 77.9856 64.9897 79.3694 64.0682C79.08 63.1258 79.156 62.109 79.6166 61.1347C80.2314 59.8349 81.3912 59.0106 82.6018 58.3131C82.9145 55.4303 86.1342 52.9681 88.8342 54.456C88.1645 52.3108 90.0936 49.9944 92.3119 49.7492C93.3976 46.4564 97.1434 44.3809 100.511 45.1989C102.233 42.8444 105.438 41.9379 108.159 42.948C111.151 40.6548 114.862 40.3146 118.363 41.4791ZM97.0525 106.133C99.1546 106.019 100.731 107.735 101.838 109.306C102.877 110.779 100.211 112.334 99.4335 110.711C99.1546 110.132 98.8377 109.519 98.4131 109.012C98.3418 109.112 98.2788 109.215 98.2161 109.321L98.1532 109.428C98.1067 109.507 98.0581 109.587 98.018 109.669C98.0222 109.684 97.9588 109.878 97.9567 109.887C97.7835 110.413 97.4053 110.751 96.89 110.933C96.2243 111.166 95.5948 110.665 95.3814 110.077C95.0415 109.139 95.8314 108.321 96.6532 107.949C95.8462 107.818 95.0518 108.093 94.4687 108.714C94.3886 108.801 94.2532 108.731 94.2492 108.623C94.1814 107.15 95.7215 106.205 97.0525 106.133Z" fill="black"/>
<path fill-rule="evenodd" clip-rule="evenodd" d="M143.152 128.274C141.732 127.695 140.465 126.728 139.538 125.493C139.216 125.063 139.133 124.61 139.2 124.195C139.276 123.729 139.552 123.306 139.928 123.023C140.305 122.739 140.777 122.598 141.233 122.67C141.63 122.732 142.024 122.949 142.337 123.399L142.402 123.489C142.953 124.235 143.67 124.846 144.488 125.241C145.276 125.621 146.158 125.798 147.07 125.695C148.808 125.499 150.005 124.559 151.278 123.282C151.436 123.121 151.594 122.955 151.752 122.786C151.852 122.633 151.991 122.534 152.146 122.483C152.317 122.425 152.511 122.429 152.689 122.491C152.86 122.55 153.013 122.664 153.116 122.815C153.213 122.958 153.269 123.135 153.251 123.339C153.134 124.661 152.443 125.842 151.461 126.769C150.37 127.799 148.924 128.511 147.563 128.761C146.064 129.036 144.536 128.839 143.152 128.274ZM148.271 107.866C149.866 108.836 152.297 111.098 150.581 113.503C148.56 115.624 145.652 113.193 144.219 112.093C142.89 111.241 141.396 113.433 142.629 114.428C152.987 122.099 157.19 108.12 149.078 106.726C148.184 106.572 147.853 107.566 148.271 107.866ZM129.711 98.9429C129.887 96.7541 133.219 96.257 133.551 98.423C133.847 100.363 133.498 102.145 132.624 103.892C131.79 105.561 129.692 104.783 129.533 103.263C129.32 101.226 129.601 100.304 129.711 98.9429ZM155.076 97.9739C155.541 97.3652 156.212 96.9497 157.015 97.1845C159.526 97.9185 158.786 101.485 157.904 103.22C157.425 104.163 155.876 104.402 155.176 103.572C154.036 102.219 153.489 99.5157 154.94 98.1825C154.979 98.1136 155.023 98.044 155.076 97.9739ZM132.589 89.3654L132.986 89.2959C134.213 89.0836 135.738 88.8796 136.606 89.8665C137.067 90.3898 137.225 91.3624 136.606 91.8633C135.518 92.7446 134.314 92.4031 133.01 92.4777C131.935 92.5394 130.902 92.7174 129.867 93.0135C127.595 93.663 125.744 94.8486 123.804 96.1505C123.55 96.3213 123.29 95.9956 123.411 95.7574C124.531 93.563 126.701 91.7604 128.875 90.6616C130.036 90.0751 131.305 89.5885 132.589 89.3654ZM152.787 88.3823L153.091 88.4445C156.395 89.1353 160.687 90.5153 162.251 93.7615C162.311 94.2205 162.248 94.3189 162.197 94.3832L162.18 94.4046C162.137 94.4595 162.104 94.5351 161.905 94.5976C161.85 94.5844 161.794 94.5705 161.737 94.5557C161.02 94.3677 160.453 94.1087 159.904 93.84L159.308 93.5465C158.617 93.2076 157.92 92.881 157.181 92.6399C155.605 92.1255 153.983 91.7631 152.337 91.5696C151.98 91.5277 151.636 91.4072 151.365 91.2006C151.108 91.0046 150.911 90.7332 150.821 90.3724C150.705 89.9056 150.739 89.5521 150.989 89.1309C151.177 88.8146 151.447 88.5953 151.756 88.4694C152.071 88.3411 152.43 88.3108 152.787 88.3823Z" fill="black"/>
<path fill-rule="evenodd" clip-rule="evenodd" d="M157 133.092C156.262 132.851 155.538 132.57 154.81 132.299C151.09 130.43 146.596 130.091 142.695 131.665C140.78 132.438 138.994 133.826 137.073 134.736C136.617 134.906 136.156 135.061 135.691 135.191C135.406 135.092 135.121 134.986 134.838 134.88C132.8 134.112 130.883 133.164 129.021 132.121C128.823 131.841 128.617 131.57 128.395 131.309C129.742 131.117 131.061 130.799 132.254 130.471C135.917 129.468 139.369 127.832 143.02 126.783C146.419 125.805 150.108 125.27 153.522 126.485C155.143 127.062 156.569 128.073 158.145 128.753C158.96 129.104 159.938 129.449 160.891 129.499C160.276 130.972 159.499 132.348 158.436 133.494C157.95 133.39 157.469 133.244 157 133.092ZM164.927 121.554C164.6 121.825 163.254 122.7 162.818 123.222C162.705 123.179 162.593 123.135 162.481 123.09C162.289 122.854 162.006 122.75 161.718 122.757C159.705 121.82 157.912 120.496 156.313 118.837C155.176 117.659 154.012 116.427 152.493 115.745C150.704 114.937 148.944 115.309 147.064 115.432C145.063 115.565 143.088 114.996 141.089 115.269C139.627 115.47 138.258 116.089 137.075 116.962C134.66 118.744 132.995 121.246 130.955 123.404C128.639 125.851 125.791 127.415 122.624 128.214C122.586 128.189 122.546 128.164 122.506 128.14C120.171 126.027 118.063 123.641 116.198 121.098C114.376 118.615 109.574 107.436 108.414 106.456C107.933 106.048 107.405 105.872 106.9 105.887C105.985 105.908 105.14 106.545 104.762 107.546C104.119 109.25 104.44 111.452 104.491 113.234C104.555 115.415 104.698 117.594 104.926 119.764C105.152 121.91 105.452 124.049 105.826 126.173C106.014 127.246 106.224 128.318 106.454 129.385C106.526 129.721 106.617 130.021 106.726 130.3C106.838 130.827 106.959 131.351 107.088 131.871C107.929 135.275 109.255 138.685 111.788 141.197C114.425 143.816 118.008 145.556 121.336 147.111C124.505 148.593 127.826 149.909 131.233 150.941C134.193 152.283 137.362 153.344 140.544 153.902C144.047 154.517 147.729 154.555 151.112 153.337C152.774 152.739 154.346 151.905 155.772 150.865C157.794 149.814 159.613 148.371 161.102 146.46C163.77 143.036 165.043 138.881 165.601 134.596C165.743 133.499 166.279 129.296 166.322 128.642C166.458 126.528 166.594 124.415 166.73 122.302C166.794 121.304 165.571 121.019 164.927 121.554Z" fill="black"/>
</svg>
