<svg width="240" height="324" viewBox="0 0 240 324" fill="none" xmlns="http://www.w3.org/2000/svg">
<path fill-rule="evenodd" clip-rule="evenodd" d="M134.835 170.259C134.854 170.067 135.112 170.068 135.132 170.259L135.426 173.105C135.785 176.582 136.13 180.052 136.381 183.545C136.693 187.901 136.902 192.255 137.002 196.621C137.353 211.825 137.422 227.037 137.452 242.244C139.508 242.102 141.564 241.965 143.621 241.832C145.017 241.742 146.412 241.655 147.808 241.57L151.368 241.354L152.833 241.264C153.823 241.203 154.948 240.954 155.641 241.831C155.918 242.182 156.057 242.639 155.798 243.056C155.202 244.018 154.287 243.984 153.252 244.026C152.275 244.065 151.298 244.104 150.321 244.142C148.227 244.223 146.134 244.3 144.04 244.359C141.842 244.42 139.646 244.47 137.449 244.508C137.427 250.928 137.161 257.34 136.874 263.753L136.744 266.639C136.393 274.443 136.015 282.254 135.478 290.048C135.434 290.686 134.532 290.685 134.488 290.048C133.883 281.271 133.484 272.475 133.089 263.686C132.802 257.314 132.635 250.94 132.556 244.565C132.265 244.566 131.975 244.571 131.685 244.572C123.44 244.607 115.197 244.643 106.951 244.566C106.965 244.582 106.979 244.599 106.988 244.62C107.584 246.029 107.641 247.827 107.627 249.34C107.61 251.074 107.376 252.787 106.977 254.474C105.547 260.516 101.857 265.928 97.654 270.402L97.5168 270.547C96.5255 271.595 95.3883 272.648 94.7796 273.983C94.1579 275.345 93.9421 276.939 93.6353 278.404L93.5995 278.572L92.3999 284.115C92.0188 285.876 91.9106 288.443 90.5175 289.713C89.2178 290.899 87.4959 290.28 86.8843 288.754C86.4066 287.563 86.8824 286.255 87.1653 285.064L89.3817 275.744C89.7459 274.224 90.1439 272.694 90.9299 271.329C91.735 269.93 92.9154 268.916 94.1198 267.879C96.4005 265.915 98.4941 263.666 100.265 261.231C102.035 258.797 103.547 256.114 104.608 253.293C105.139 251.881 105.575 250.414 105.875 248.935C106.16 247.531 106.158 246.077 106.463 244.689C106.484 244.593 106.565 244.527 106.657 244.498C106.636 244.436 106.669 244.352 106.756 244.347L113.499 243.913C119.493 243.527 125.487 243.13 131.475 242.677L132.534 242.6C132.451 234.094 132.521 225.587 132.675 217.078C132.815 209.275 132.818 201.47 133.05 193.668C133.166 189.796 133.414 185.933 133.691 182.069C133.974 178.117 134.427 174.199 134.835 170.259ZM71.5195 215.501C71.4476 215.068 71.9925 214.8 72.2437 215.196C75.115 219.724 76.4995 224.641 77.083 229.94C77.5985 234.616 77.4466 239.359 77.1899 244.048C76.9161 249.048 76.5966 254.048 76.2736 259.045L75.7773 266.71L74.5319 285.923C74.4428 287.298 74.1309 288.547 72.948 289.186C72.7983 289.311 72.6421 289.424 72.4602 289.521C71.8211 289.863 70.9735 289.69 70.604 289.034L70.7522 289.131C70.8812 289.213 70.7363 289.099 70.3173 288.791L69.9618 288.331C69.7034 287.943 69.5384 287.561 69.4721 287.099C69.369 286.381 69.5025 285.594 69.5494 284.873L70.3657 272.274C71.0006 262.48 71.7419 252.688 72.3007 242.888C72.561 238.321 72.7433 233.749 72.6199 229.174C72.497 224.624 72.2652 219.997 71.5195 215.501ZM96.359 131.161L96.5183 131.134C102.221 130.186 108.423 130.364 113.635 133.114C113.678 133.137 113.659 133.208 113.61 133.206L111.933 133.139C106.622 132.931 101.327 132.808 96.1049 134.056L95.5703 134.185C93.6896 134.644 91.7257 135.206 90.2152 136.448C88.7714 137.636 88.0524 139.468 87.3611 141.155L87.2687 141.378C86.5673 143.044 85.6796 144.624 84.1423 145.665C82.1511 147.014 79.7564 146.849 77.4732 147.032C73.4532 147.356 70.1665 150.27 68.5313 153.837C67.5411 155.996 67.1187 158.417 67.0351 160.779C66.9922 161.981 66.9861 163.231 67.1462 164.425C67.1973 164.807 67.6693 166.198 67.9099 166.165C68.4447 166.091 68.9335 166.37 69.1002 166.797C70.4211 165.521 71.7799 164.281 73.1825 163.086C76.6788 160.107 80.4447 157.408 84.4106 155.088C87.4374 153.317 90.6301 151.563 93.9362 150.237C93.6742 150.231 93.4159 150.283 93.1659 150.413C93.0565 150.47 92.9477 150.333 93.0341 150.242C94.0754 149.146 95.3228 148.99 96.5802 149.282C96.8485 149.197 97.1171 149.114 97.3866 149.036C97.5208 148.997 97.5876 149.182 97.4781 149.253L97.1692 149.451C98.541 149.91 99.8878 150.814 100.954 151.527C104.017 153.575 106.713 156.078 109.446 158.535L109.943 158.98C112.349 161.129 114.815 163.217 117.549 164.941C118.979 165.843 120.482 166.678 122.058 167.298C123.41 167.831 125.611 168.167 126.245 169.596C126.807 170.28 126.572 171.153 125.913 171.613C124.801 172.837 122.578 172.046 121.253 171.537C119.656 170.922 118.109 170.183 116.633 169.317C113.769 167.635 111.127 165.543 108.667 163.318C106.097 160.994 103.674 158.525 101.174 156.128C100.091 155.089 99.0334 154.027 97.9489 152.99L97.4042 152.473C96.8506 151.954 96.062 151.145 95.2188 150.655C93.6303 151.603 92.0173 152.511 90.4431 153.484C88.2457 154.841 86.113 156.296 84.0132 157.799C79.9708 160.693 76.1401 163.934 72.5838 167.408C66.0616 173.778 60.5048 181.053 55.6505 188.756L55.2819 189.343C52.5234 193.752 49.9148 198.303 48.0652 203.174C46.03 208.535 45.0402 214.173 44.5025 219.863C43.9689 225.513 43.7889 231.191 43.1925 236.836C42.5809 242.625 41.3758 248.286 40.0051 253.937L39.6782 255.277C38.4379 260.337 37.1578 265.398 36.5202 270.578C36.1799 273.345 35.9752 276.15 36.0214 278.939C36.0679 281.745 36.5086 284.488 36.8642 287.265C37.0004 288.328 35.9542 289.216 35.0181 289.357C33.9415 289.518 33.0166 288.831 32.6819 287.831C31.6387 284.712 31.4492 281.264 31.4819 277.991C31.5149 274.667 31.9389 271.365 32.5355 268.099C33.7089 261.674 35.5197 255.383 37.0344 249.035C38.3694 243.44 39.2654 237.836 39.7484 232.104C40.2497 226.158 40.5499 220.191 41.4645 214.287C42.3673 208.459 44.0659 202.892 46.6275 197.578C48.9599 192.739 51.8673 188.185 54.9155 183.77C58.6171 178.41 62.6825 173.309 67.2269 168.661C66.8187 168.644 66.3996 168.512 66.0147 168.272C64.8371 167.537 64.2886 166.099 64.12 164.787C63.7254 161.717 63.8206 158.511 64.6099 155.509C65.8833 150.667 69.1879 146.364 73.9773 144.619C75.2101 144.169 76.5206 144.005 77.8271 143.973C79.0668 143.942 80.4208 144.104 81.617 143.711C83.521 143.085 84.3371 140.841 85.052 139.141L85.0849 139.063C86.0016 136.896 87.1019 135.038 89.0874 133.685C91.2057 132.242 93.8598 131.585 96.359 131.161ZM150.549 139.731C152.262 139.136 154.405 139.676 156.081 140.195C157.948 140.774 159.674 141.841 161.153 143.108C162.714 144.443 164.003 146.093 164.915 147.935L165.002 148.113C165.834 149.822 166.782 152.168 166.362 154.046C166.35 154.099 166.336 154.151 166.321 154.2C169.721 155.875 172.861 157.972 175.596 160.631C178.78 163.726 181.477 167.248 183.758 171.053C192.82 186.166 194.415 204.317 195.486 221.552L195.752 225.922C196.334 235.359 197.014 244.773 198.78 254.08L198.909 254.751C200.798 264.495 203.501 274.313 203.227 284.309C203.145 287.304 198.721 287.283 198.592 284.309C198.109 273.113 195.498 262.303 193.729 251.283C190.617 231.893 192.177 211.904 187.767 192.708C186.037 185.175 183.357 177.868 179.529 171.144C177.639 167.822 175.475 164.613 172.942 161.747C170.761 159.281 168.496 156.908 165.948 154.835C165.134 155.651 163.507 155.235 163.082 154.046C162.79 153.229 162.875 152.273 162.688 151.417C162.514 150.622 162.274 149.835 161.955 149.087C161.318 147.596 160.383 146.164 159.304 144.957C158.139 143.652 156.799 142.569 155.3 141.674C153.791 140.773 152.14 140.504 150.549 139.845C150.495 139.823 150.49 139.751 150.549 139.731ZM157.207 243.355C157.21 243.276 157.302 243.239 157.359 243.292C157.96 243.845 158.323 244.638 158.766 245.319C159.276 246.103 159.811 246.872 160.373 247.62C161.498 249.12 162.75 250.534 164.013 251.919C165.187 253.207 166.439 254.44 167.737 255.603C169.144 256.863 170.72 257.988 171.998 259.383C174.664 262.294 175.095 266.291 175.658 270.043L175.72 270.449C176.063 272.675 176.37 274.908 176.647 277.144C176.782 278.232 176.916 279.32 177.026 280.411L177.06 280.756C177.158 281.823 177.184 282.906 176.571 283.839C175.915 284.837 174.424 285.187 173.537 284.23C172.014 282.586 172.3 279.667 172.101 277.552C171.938 275.804 171.752 274.057 171.544 272.313L171.438 271.442C171.193 269.458 170.994 267.435 170.541 265.485C170.141 263.769 169.379 262.473 168.128 261.23C166.869 259.977 165.56 258.808 164.397 257.459C163.164 256.028 162.052 254.494 161.05 252.892C160.192 251.523 159.505 250.032 158.876 248.544L158.771 248.296C158.163 246.844 157.159 244.954 157.207 243.355ZM179.203 180.997C179.216 180.795 179.515 180.791 179.519 180.997C179.557 182.739 179.594 184.48 179.63 186.222C179.92 200.256 179.741 214.323 181.149 228.309C181.813 234.903 183.035 241.401 184.449 247.871C185.173 251.182 185.932 254.485 186.654 257.796C187.357 261.023 188.111 264.266 188.669 267.523C189.217 270.724 189.708 273.95 189.928 277.192L189.955 277.615C190.05 279.186 190.503 281.496 189.638 282.888C188.702 284.396 186.908 284.423 185.904 282.984C184.962 281.632 185.196 279.228 185.03 277.615C184.861 275.973 184.682 274.328 184.478 272.689C184.082 269.492 183.559 266.302 183.016 263.127C181.884 256.514 180.243 249.985 179.031 243.383C177.789 236.618 176.907 229.804 176.869 222.916C176.832 215.97 177.567 209.037 177.938 202.106C178.315 195.066 178.744 188.032 179.203 180.997ZM112.932 137.346C113.309 136.077 114.638 135.284 115.935 135.64C117.123 135.967 118.104 137.41 117.64 138.645C117.133 139.992 116.247 141.14 115.5 142.365C114.81 143.496 113.803 144.387 113.1 145.498L113.875 146.334C114.262 146.75 114.651 147.165 115.044 147.572L116.395 148.972C117.447 150.059 118.506 151.142 119.594 152.192C122.796 155.281 126.047 158.268 129.632 160.913C130.448 161.515 131.271 162.114 132.116 162.674L132.432 162.883C133.012 163.263 133.659 163.637 134.36 163.572C136.062 163.416 137.601 161.607 138.771 160.481L138.832 160.423C141.732 157.663 144.417 154.645 146.764 151.4C147.285 150.679 147.79 149.946 148.282 149.204C147.147 147.878 147.418 145.289 147.355 143.681C147.311 142.55 147.308 141.419 147.302 140.287L147.298 140.059C147.285 139.326 147.252 138.624 147.727 138.021C147.754 137.986 147.812 137.987 147.847 138.005C148.498 138.347 148.698 138.918 148.976 139.559L149.005 139.625C149.343 140.394 149.667 141.171 149.994 141.944C150.337 142.754 150.652 143.576 150.97 144.395C151.118 144.777 151.26 145.159 151.398 145.544C151.483 145.79 151.57 146.035 151.66 146.279L151.681 146.298C151.799 146.398 151.899 146.504 151.986 146.614C152.349 146.795 152.637 147.126 152.773 147.613C153.068 148.672 152.458 149.536 151.914 150.376C149.704 153.792 147.185 157.046 144.385 159.999C142.994 161.465 141.531 162.866 140.007 164.195L139.741 164.426C138.373 165.602 136.887 166.716 135.06 166.992C132.921 167.313 131.181 166.249 129.543 165.024L129.38 164.901C127.828 163.726 126.307 162.509 124.834 161.236C121.83 158.642 118.972 155.856 116.436 152.8C113.969 149.827 111.53 146.503 110.009 142.926C109.917 142.708 110.16 142.48 110.351 142.662C111.094 143.369 111.809 144.115 112.515 144.87C112.535 143.758 112.33 142.637 112.444 141.518C112.583 140.158 112.543 138.656 112.932 137.346Z" fill="black"/>
<path fill-rule="evenodd" clip-rule="evenodd" d="M161.399 75.4847C161.366 75.1746 161.813 75.1651 161.905 75.4162C162.663 77.4805 163.448 79.5306 164.048 81.647C164.626 83.6868 165.043 85.7728 165.465 87.8499C166.165 91.2971 166.766 94.7696 167.264 98.2532C168.328 97.4222 169.719 97.3465 171.029 97.9933C171.644 98.2966 171.879 99.0986 171.732 99.7209C171.613 100.22 171.469 100.717 171.295 101.203C171.666 101.532 171.982 101.937 172.211 102.403C172.814 103.629 172.619 104.915 172.078 106.085C172.12 106.154 172.16 106.225 172.199 106.299C172.982 107.82 172.563 109.183 171.991 110.668C171.562 111.778 171.801 113.029 170.877 113.868C170.556 114.9 170.074 115.861 169.372 116.728C169.213 117.02 168.974 117.255 168.691 117.428C168.619 119.057 168.447 120.682 168.124 122.292C166.868 128.543 162.882 134.113 157.947 138.042C153.118 141.886 147.447 144.183 141.328 144.926C138.357 145.287 135.381 145.173 132.434 144.658L132.067 144.593C129.348 144.099 126.057 143.282 124.177 141.23C123.188 140.151 123.766 137.776 125.514 138C126.441 138.119 127.247 138.267 128.119 138.609C128.799 138.876 129.48 139.133 130.179 139.351C131.516 139.767 132.899 140.092 134.288 140.272C137.181 140.646 140.187 140.547 143.047 139.982C148.247 138.956 153.299 136.589 157.245 133.025C161.832 128.881 164.521 123.519 164.917 117.335C165.358 110.447 164.563 103.394 163.903 96.5415C163.559 92.9771 163.124 89.4199 162.599 85.8776C162.086 82.4166 161.779 78.9603 161.399 75.4847ZM120.803 53.2433L121.025 53.2091C129.856 51.8647 139.148 51.9601 147.448 55.6059C149.039 56.3052 150.596 57.1485 152.062 58.1271C153.113 58.0174 154.169 57.9284 155.206 57.9138C156.512 57.8967 157.786 58.5751 157.946 59.8961C159.169 60.0482 160.296 60.4984 161.016 61.399C161.297 61.7496 161.485 62.1554 161.58 62.5781C162.332 62.7558 163.069 63.0283 163.769 63.3876C164.618 63.8251 165.108 65.0424 164.808 65.943C164.739 66.1474 164.66 66.3466 164.572 66.5414L164.504 66.6867L164.544 66.7417C165.222 67.8323 164.751 69.2631 163.712 69.9141C162.932 70.4023 162.062 70.7912 161.166 70.9793C161.24 71.3386 161.308 71.7 161.362 72.0656C161.384 72.2138 161.194 72.3194 161.109 72.1734C161.109 72.1734 161.43 73.1731 161.914 74.2744C162.104 74.7075 161.496 75.0921 161.263 74.6546C160.646 73.488 160.264 72.2918 159.704 71.0892C159.187 71.0554 158.671 70.937 158.174 70.7109C157.849 70.5629 157.602 70.3135 157.425 70.0155C157.414 70.0282 157.408 70.043 157.397 70.0578C155.73 72.203 152.472 72.9554 149.954 73.6338C147.25 74.3632 144.482 74.8132 141.704 75.145C136.853 75.722 131.965 75.8298 127.091 76.054C126.768 76.0686 126.446 76.0849 126.123 76.1005C124.144 77.8378 121.594 78.9174 118.979 79.2456C117.653 79.4117 116.086 79.3695 114.6 79.0309C114.062 79.5804 113.382 79.9874 112.64 80.1965C112.507 82.9649 110.964 85.5861 108.631 87.114L108.672 87.2785C109.252 89.6426 109.244 92.2267 107.166 93.8698C106.885 94.0921 106.577 94.2828 106.254 94.4408L106.325 94.6041C107.398 97.1138 107.741 99.8859 105.723 101.968C104.905 102.812 103.469 102.612 102.855 101.644L102.825 101.595C102.791 101.537 102.755 101.482 102.719 101.425C102.665 101.537 102.581 101.631 102.457 101.684C101.69 102.014 101.384 101.771 100.684 101.431C100.038 101.114 99.3554 100.877 98.6584 100.693C98.0899 100.545 97.5237 100.439 96.9533 100.378C93.3491 101.756 91.0209 105.983 91.5744 109.95C91.8744 112.11 93.0598 114.249 95.1258 115.145C96.0301 115.538 97.0927 115.703 98.0709 115.57C99.3955 115.39 100.414 114.556 101.785 115.033C102.326 115.221 102.664 115.646 102.693 116.227C102.742 117.14 102.419 117.825 101.874 118.332C102.835 119.135 103.61 120.251 104.445 121.141C105.489 122.255 106.547 123.369 107.675 124.396C108.74 125.37 109.873 126.275 111.072 127.078L111.198 127.161C112.702 128.141 114.596 129.01 114.668 131.058C114.691 131.675 114.317 132.241 113.81 132.556C111.915 133.731 109.853 132.188 108.368 131.058C107.77 130.603 107.189 130.132 106.629 129.644C106.255 129.673 105.848 129.612 105.423 129.424C105.15 129.306 104.884 129.166 104.622 129.018C103.771 129.232 102.968 129.044 102.307 128.598C101.354 128.832 100.344 128.86 99.4864 128.672C98.7028 128.498 98.0033 128.128 97.4265 127.632C96.2223 128.016 94.885 127.945 93.6977 127.215C92.9857 126.778 92.4301 126.154 92.1279 125.425C91.9741 125.184 91.8757 124.903 91.8683 124.594L91.8681 124.476C90.8329 124.5 89.7955 124.144 88.9948 123.325C88.2596 122.572 87.9007 121.634 87.8603 120.68C86.8188 120.385 85.866 119.778 85.1413 118.842C83.9413 117.29 83.781 115.373 84.3979 113.661C84.3575 113.571 84.3216 113.478 84.2899 113.385C83.3329 112.034 82.7012 110.405 82.7519 108.771C82.7582 108.517 82.792 108.268 82.8427 108.021C81.9005 107.52 81.2075 106.64 81.1336 105.522C81.0765 104.645 81.3913 103.787 81.9596 103.138C81.6829 102.477 81.5603 101.758 81.6448 101.04C81.7315 100.302 81.9913 99.6616 82.3718 99.1271C82.3631 98.9327 82.3737 98.7359 82.4054 98.5351C82.3674 98.3386 82.3357 98.1357 82.319 97.9288C82.1392 95.6629 83.7026 93.6804 85.6061 92.6342C86.1068 92.3595 86.6477 92.1354 87.1885 91.9452C87.5815 91.8057 88.173 91.7592 88.5195 91.5035C88.5047 91.4929 88.6484 91.3072 88.6737 91.2076C88.7012 91.085 88.7308 90.9646 88.7458 90.8399C88.8026 90.3157 88.7603 89.7768 88.7498 89.2505C88.7033 86.8622 88.7772 84.4634 89.0286 82.0878C89.4955 77.6833 90.6472 73.3739 92.8906 69.5252C94.773 66.3 97.3505 63.5757 100.306 61.3163C106.193 56.8182 113.54 54.3725 120.803 53.2433ZM93.5199 108.018C92.7536 106.176 96.3614 106.158 97.3154 106.245L97.3434 106.248C99.4906 106.462 102.847 107.495 103.726 109.662C104.089 110.559 103.013 111.532 102.152 111.237C101.309 110.948 100.836 110.328 100.159 109.785C99.9815 109.643 99.7965 109.51 99.608 109.382C99.7073 109.698 99.8661 109.99 100.087 110.208L100.139 110.257C101.178 111.191 99.3194 112.658 98.6298 111.422C98.2627 110.764 98.1156 110.042 98.2301 109.295C98.2641 109.074 98.3233 108.873 98.4093 108.68C98.3408 108.646 98.2734 108.609 98.2041 108.576L98.0804 108.518C97.2535 108.143 93.7248 106.669 93.7534 107.987C93.7565 108.133 93.5675 108.133 93.5199 108.018Z" fill="black"/>
<path fill-rule="evenodd" clip-rule="evenodd" d="M143.152 128.274C141.732 127.695 140.465 126.728 139.538 125.493C139.216 125.063 139.133 124.61 139.2 124.195C139.276 123.729 139.552 123.306 139.928 123.023C140.305 122.739 140.777 122.598 141.233 122.67C141.63 122.732 142.024 122.949 142.337 123.399L142.402 123.489C142.953 124.235 143.67 124.846 144.488 125.241C145.276 125.621 146.158 125.798 147.07 125.695C148.808 125.499 150.005 124.559 151.278 123.282C151.436 123.121 151.594 122.955 151.752 122.786C151.852 122.633 151.991 122.534 152.146 122.483C152.317 122.425 152.511 122.429 152.689 122.491C152.86 122.55 153.013 122.664 153.116 122.815C153.213 122.958 153.269 123.135 153.251 123.339C153.134 124.661 152.443 125.842 151.461 126.769C150.37 127.799 148.924 128.511 147.563 128.761C146.064 129.036 144.536 128.839 143.152 128.274ZM148.271 107.866C149.866 108.836 152.297 111.098 150.581 113.503C148.56 115.624 145.652 113.193 144.219 112.093C142.89 111.241 141.396 113.433 142.629 114.428C152.987 122.099 157.19 108.12 149.078 106.726C148.184 106.572 147.853 107.566 148.271 107.866ZM129.711 98.9429C129.887 96.7541 133.219 96.257 133.551 98.423C133.847 100.363 133.498 102.145 132.624 103.892C131.79 105.561 129.692 104.783 129.533 103.263C129.32 101.226 129.601 100.304 129.711 98.9429ZM155.076 97.9739C155.541 97.3652 156.212 96.9497 157.015 97.1845C159.526 97.9185 158.786 101.485 157.904 103.22C157.425 104.163 155.876 104.402 155.176 103.572C154.036 102.219 153.489 99.5157 154.94 98.1825C154.979 98.1136 155.023 98.044 155.076 97.9739ZM132.589 89.3654L132.986 89.2959C134.213 89.0836 135.738 88.8796 136.606 89.8665C137.067 90.3898 137.225 91.3624 136.606 91.8633C135.518 92.7446 134.314 92.4031 133.01 92.4777C131.935 92.5394 130.902 92.7174 129.867 93.0135C127.595 93.6629 125.744 94.8486 123.804 96.1505C123.55 96.3213 123.29 95.9956 123.411 95.7574C124.531 93.563 126.701 91.7604 128.875 90.6616C130.036 90.0751 131.305 89.5885 132.589 89.3654ZM152.787 88.3823L153.091 88.4445C156.395 89.1353 160.687 90.5153 162.251 93.7615C162.311 94.2205 162.248 94.3189 162.197 94.3832L162.18 94.4046C162.137 94.4595 162.104 94.5351 161.905 94.5976C161.85 94.5845 161.794 94.5705 161.737 94.5557C161.02 94.3677 160.453 94.1087 159.904 93.84L159.308 93.5465C158.617 93.2076 157.92 92.881 157.181 92.6399C155.605 92.1255 153.983 91.7631 152.337 91.5696C151.98 91.5277 151.636 91.4072 151.365 91.2007C151.108 91.0046 150.911 90.7332 150.821 90.3724C150.705 89.9056 150.739 89.5521 150.989 89.1309C151.177 88.8146 151.447 88.5953 151.756 88.4694C152.071 88.3411 152.43 88.3108 152.787 88.3823Z" fill="black"/>
<path fill-rule="evenodd" clip-rule="evenodd" d="M148.851 138.659C148.851 138.659 139.473 140.038 135.275 138.089C131.09 136.147 127.019 134.268 123.222 131.695C119.333 129.059 116.033 125.929 113.677 121.923C111.486 118.195 109.665 114.239 107.831 110.314C107.724 110.085 106.671 107.804 106.3 107.04C105.727 105.854 104.054 106.226 104.054 108.067C104.054 109.907 103.971 123.846 107.187 129.329C110.088 134.281 115.004 137.742 119.888 140.762C125.293 144.101 132.471 147.711 138.919 148.665C144.755 149.528 151.414 147.105 155.639 143.113C160.057 138.938 161.307 133.265 163.587 127.833C164.096 126.619 162.291 125.886 161.762 127.081C160.764 129.329 148.851 138.659 148.851 138.659Z" fill="black"/>
<path fill-rule="evenodd" clip-rule="evenodd" d="M166.075 104.71C165.478 106.336 164.568 108.03 163.456 109.399C158.958 113.21 154.586 111.1 152.367 105.934C151.523 102.284 153.763 98.3522 156.135 95.667C159.562 92.2311 165.155 94.0343 166.73 98.1189C166.826 98.6481 166.884 99.176 166.912 99.7023C166.879 101.412 166.673 102.874 166.075 104.498M122.833 101.429C128.759 94.3773 139.847 94.0003 139.564 104.854C138.291 118.593 116.853 115.221 122.833 101.429ZM167.939 95.5465C167.731 95.1946 167.501 94.8541 167.249 94.5284C167.156 94.4731 167.103 93.9819 166.761 93.9455C162.192 88.9029 154.165 91.764 151.265 96.7886C150.735 97.4239 150.303 98.1677 149.985 98.9535C147.127 98.4291 143.796 98.531 141.138 99.6108C138.503 92.7267 130.524 92.1121 125.266 95.0534C121.996 96.6624 119.876 100.032 116.695 101.883C109.219 102.421 101.194 100.746 93.8529 102.622C88.0629 103.826 92.903 106.759 93.874 104.802C100.796 102.756 108.996 104.485 116.183 104.024C116.93 105.288 118.363 106.323 119.791 106.279C121.334 119.957 141.274 117.689 141.962 105.53C142.742 104.296 143.712 103.115 145.101 102.346C145.633 102.236 146.147 102.092 146.616 101.871C147.418 101.758 148.655 102.098 149.393 102.766C151.922 117.945 166.49 116.177 169.093 102.88C169.145 102.827 169.29 102.629 169.401 102.311C170.292 101.132 172.473 100.694 172.125 98.7041C171.814 96.7138 169.302 96.7375 167.939 95.5465Z" fill="black"/>
</svg>
