<svg width="240" height="324" viewBox="0 0 240 324" fill="none" xmlns="http://www.w3.org/2000/svg">
<path fill-rule="evenodd" clip-rule="evenodd" d="M189.101 262.208C188.547 261.931 187.97 261.614 187.337 261.592C186.251 261.555 186.25 259.864 187.337 259.902C188.286 259.935 189.12 260.331 189.954 260.748C190.929 261.234 190.072 262.692 189.101 262.208ZM187.337 214.615C188.079 214.616 188.826 214.71 189.395 215.228C189.734 215.537 189.707 216.112 189.395 216.424C189.062 216.757 188.537 216.731 188.2 216.424C188.31 216.524 188.201 216.425 188.161 216.402C188.152 216.397 188.146 216.394 188.144 216.391C188.135 216.389 188.127 216.388 188.113 216.384C188.025 216.362 187.938 216.34 187.848 216.324C187.847 216.328 187.66 216.312 187.616 216.31C187.523 216.306 187.43 216.306 187.337 216.306C186.879 216.306 186.492 215.919 186.492 215.461C186.492 215.004 186.881 214.615 187.337 214.615ZM179.391 233.581C179.149 234.643 177.519 234.191 177.761 233.131C178.112 231.591 178.048 230.013 177.761 228.468C177.563 227.403 179.192 226.95 179.391 228.018C179.735 229.872 179.812 231.733 179.391 233.581ZM177.256 172.816C175.997 172.517 174.752 172.481 173.465 172.481C172.375 172.48 172.377 170.789 173.465 170.79C174.901 170.79 176.303 170.852 177.705 171.185C178.765 171.437 178.313 173.067 177.256 172.816ZM173.038 213.999C172.308 213.634 171.578 213.269 170.848 212.904C169.874 212.417 170.731 210.959 171.701 211.444L173.891 212.54C174.865 213.027 174.008 214.485 173.038 213.999ZM172.734 247.296C171.808 248.631 170.506 249.461 168.944 249.875C167.889 250.155 167.444 248.524 168.494 248.245C169.612 247.949 170.604 247.409 171.275 246.442C171.891 245.553 173.356 246.4 172.734 247.296ZM166.894 187.766C166.644 187.298 166.266 187.1 165.798 187.089C164.711 187.064 164.711 185.373 165.798 185.398C166.865 185.422 167.844 185.958 168.353 186.913C168.867 187.873 167.407 188.726 166.894 187.766ZM156.174 199.259C155.871 199.589 155.284 199.581 154.979 199.259C154.792 199.062 154.636 198.842 154.512 198.601C154.465 198.509 154.421 198.416 154.37 198.327C154.347 198.287 154.321 198.248 154.295 198.21C154.286 198.202 154.268 198.183 154.249 198.163C153.924 197.82 153.932 197.313 154.249 196.967C154.552 196.637 155.139 196.646 155.444 196.967C155.63 197.164 155.787 197.384 155.91 197.626C155.957 197.717 156.001 197.81 156.053 197.9C156.076 197.939 156.102 197.978 156.128 198.016C156.137 198.024 156.155 198.043 156.174 198.063C156.499 198.407 156.491 198.914 156.174 199.259ZM155.273 224.225C154.172 224.729 152.965 224.729 151.864 224.225C151.447 224.034 151.348 223.432 151.561 223.069C151.808 222.647 152.303 222.576 152.717 222.765C153.216 222.994 153.921 222.994 154.42 222.765C154.836 222.575 155.327 222.642 155.576 223.069C155.79 223.435 155.688 224.035 155.273 224.225ZM152.27 241.897C152.081 242.345 151.673 242.583 151.195 242.601C150.722 242.619 150.37 242.2 150.35 241.756C150.338 241.469 150.493 241.224 150.715 241.073C150.715 241.057 150.716 241.041 150.716 241.026C150.716 240.552 151.103 240.201 151.561 240.18C152.017 240.16 152.406 240.583 152.406 241.026C152.406 241.324 152.387 241.62 152.27 241.897ZM147.91 269.992C146.561 270.014 145.243 270.336 143.894 270.358C142.804 270.375 142.808 268.684 143.894 268.667C145.243 268.645 146.561 268.323 147.91 268.302C149 268.284 148.996 269.975 147.91 269.992ZM142.301 161.642C141.512 162.394 140.536 162.765 139.575 163.235C138.6 163.711 137.745 162.253 138.722 161.775C139.536 161.377 140.438 161.083 141.106 160.446C141.894 159.695 143.091 160.89 142.301 161.642ZM140.182 181.13C139.628 180.854 139.051 180.537 138.418 180.515C137.332 180.477 137.33 178.787 138.418 178.825C139.367 178.858 140.2 179.253 141.035 179.67C142.01 180.157 141.152 181.615 140.182 181.13ZM130.022 259.348C129.772 258.879 129.395 258.681 128.926 258.671C127.839 258.646 127.838 256.955 128.926 256.98C129.993 257.004 130.972 257.54 131.481 258.494C131.994 259.455 130.535 260.308 130.022 259.348ZM126.503 222.632C126.167 222.323 126.19 221.75 126.503 221.437C126.868 221.072 127.234 220.706 127.599 220.341C127.933 220.007 128.456 220.031 128.794 220.341C129.13 220.65 129.107 221.224 128.794 221.537C128.428 221.902 128.064 222.267 127.699 222.632C127.364 222.967 126.841 222.942 126.503 222.632ZM122.355 279.853C121.136 279.825 119.993 279.475 118.845 279.092C117.816 278.75 118.26 277.118 119.294 277.462C120.292 277.794 121.294 278.138 122.355 278.162C123.443 278.188 123.443 279.878 122.355 279.853ZM116.879 243.697C115.777 243.666 114.864 243.105 114.091 242.354C113.31 241.594 114.506 240.399 115.286 241.158C115.728 241.588 116.239 241.988 116.879 242.006C117.966 242.036 117.967 243.727 116.879 243.697ZM120.279 197.2C120.293 197.65 120.483 198.132 120.762 198.428C121.509 199.22 120.315 200.417 119.567 199.624C118.95 198.97 118.615 198.095 118.589 197.2C118.558 196.11 120.248 196.114 120.279 197.2ZM107.388 160.375C107.034 159.682 106.571 158.87 105.866 158.487C104.908 157.967 105.762 156.508 106.719 157.027C107.677 157.547 108.363 158.573 108.847 159.522C109.341 160.49 107.882 161.344 107.388 160.375ZM105.197 177.959C104.805 177.948 104.416 177.88 104.037 177.778C103.876 177.734 103.716 177.683 103.554 177.64C103.485 177.621 103.191 177.584 103.371 177.594C102.914 177.569 102.526 177.226 102.526 176.748C102.526 176.309 102.915 175.878 103.371 175.903C103.999 175.936 104.569 176.25 105.197 176.268C106.284 176.299 106.285 177.99 105.197 177.959ZM99.7208 204.984H97.8954C96.8061 204.984 96.808 203.294 97.8954 203.294H99.7208C100.81 203.294 100.808 204.984 99.7208 204.984ZM97.5916 279.738C97.0381 280.015 96.3857 280.277 95.9374 280.701C95.1468 281.449 93.9502 280.255 94.7423 279.505C95.3133 278.965 96.0435 278.626 96.7387 278.278C97.1484 278.073 97.652 278.165 97.895 278.581C98.1145 278.957 97.9998 279.533 97.5916 279.738ZM93.5131 258.374C93.4423 258.355 93.3675 258.341 93.2959 258.331C93.0086 258.292 92.708 258.306 92.4194 258.306C91.3301 258.305 91.3318 256.614 92.4194 256.615C93.2765 256.615 94.1685 256.627 94.8424 257.228C95.1844 257.532 95.1513 258.114 94.8424 258.423C94.5065 258.759 93.9878 258.727 93.6473 258.423C93.6832 258.455 93.56 258.387 93.5131 258.374ZM92.4198 229.642C92.6653 229.136 92.6691 228.806 92.6695 228.243C92.6704 227.153 94.3605 227.155 94.3597 228.243C94.3592 229.06 94.2378 229.756 93.8792 230.496C93.6792 230.908 93.0935 231.016 92.7232 230.799C92.3078 230.556 92.221 230.053 92.4198 229.642ZM87.533 189.981C86.5527 190.314 85.6776 190.786 84.8144 191.356C83.9032 191.958 83.0575 190.493 83.9613 189.896C84.9464 189.246 85.9654 188.731 87.0836 188.35C88.1175 187.998 88.5572 189.632 87.533 189.981ZM81.8323 161.524C81.1041 161.545 80.3524 161.824 79.7034 162.139C78.728 162.613 77.8721 161.155 78.8505 160.679C79.7775 160.229 80.7918 159.863 81.8323 159.833C82.9223 159.803 82.9176 161.494 81.8323 161.524ZM79.2768 237.488C78.9904 237.501 78.7455 237.346 78.5938 237.124C78.578 237.124 78.5623 237.123 78.5467 237.123C78.073 237.123 77.7223 236.736 77.7016 236.278C77.6811 235.821 78.1047 235.432 78.5467 235.432C78.845 235.433 79.141 235.451 79.4182 235.568C79.8658 235.757 80.1037 236.165 80.1219 236.643C80.1399 237.116 79.7203 237.469 79.2768 237.488ZM75.1206 179.024C74.0826 179.363 73.6419 177.73 74.6712 177.394C75.8794 176.999 77.1141 176.693 78.3221 176.298C79.3601 175.959 79.8008 177.592 78.7713 177.929C77.5635 178.323 76.3286 178.629 75.1206 179.024ZM71.3302 210.938C71.0082 211.975 69.3775 211.53 69.7003 210.488C70.0121 209.483 70.0345 208.471 70.0351 207.426C70.0358 206.336 71.7259 206.338 71.7253 207.426C71.7247 208.615 71.6847 209.793 71.3302 210.938ZM60.0301 249.162C59.9687 249.583 59.6349 249.886 59.198 249.906C58.7532 249.926 58.3368 249.503 58.3529 249.06C58.3839 248.209 59.0775 247.516 59.9281 247.484C60.4013 247.467 60.7533 247.886 60.7732 248.33C60.7926 248.762 60.4322 249.099 60.0301 249.162ZM54.3116 200.572C53.4185 200.87 52.4642 201.154 51.7641 201.815C50.9729 202.562 49.7763 201.368 50.5689 200.62C51.4922 199.748 52.6797 199.336 53.8624 198.941C54.898 198.596 55.3381 200.229 54.3116 200.572ZM50.4358 233.418C50.1904 233.837 49.6932 233.913 49.2798 233.721C48.7254 233.463 48.1134 233.472 47.5157 233.471C46.4266 233.47 46.4283 231.779 47.5157 231.78C48.4377 231.781 49.2882 231.868 50.1329 232.261C50.5485 232.454 50.6497 233.052 50.4358 233.418ZM48.2458 273.279C47.7726 273.297 47.4206 272.878 47.4008 272.434C47.3813 272.002 47.7416 271.665 48.144 271.602C48.2053 271.181 48.5393 270.878 48.976 270.858C49.4209 270.838 49.8373 271.261 49.8211 271.703C49.79 272.555 49.0968 273.248 48.2458 273.279ZM202.223 279.672C201.936 278.639 201.279 277.804 200.783 276.874C200.616 276.561 200.558 276.366 200.468 276.136C200.345 276.382 200.108 276.566 199.75 276.566C199.064 276.566 198.261 276.522 197.621 276.816C197.204 277.007 196.714 276.939 196.465 276.513C196.251 276.146 196.353 275.546 196.768 275.356C197.712 274.923 198.726 274.876 199.75 274.875C200.003 274.875 200.194 274.968 200.329 275.108C200.721 269.748 200.711 264.385 200.341 259.021C199.946 253.289 199.037 247.672 198.087 242.014C197.626 239.271 197.028 236.5 197.145 233.706C197.261 230.931 198.45 228.344 197.607 225.56C197.269 224.444 196.69 223.421 196.314 222.318C195.911 221.13 195.947 219.957 196.13 218.727C196.509 216.223 197.136 213.748 196.132 211.303C195.689 210.218 194.97 209.25 194.624 208.13C194.193 206.737 194.252 205.197 194.18 203.753C194.035 200.841 193.997 197.909 193.756 195.003C193.648 193.701 193.414 192.467 192.879 191.273C192.365 190.123 191.603 189.077 191.263 187.857C190.925 186.657 190.895 185.391 190.714 184.163C190.523 182.865 190.226 181.587 189.824 180.34C188.273 175.512 185.432 171.176 182.075 167.416C178.506 163.419 174.241 160.409 169.714 157.605C167.333 156.13 164.952 154.655 162.573 153.18C162.522 153.457 162.346 153.711 162.007 153.825C161.114 154.123 160.16 154.407 159.46 155.068C158.669 155.815 157.472 154.621 158.265 153.873C159.091 153.091 160.131 152.68 161.188 152.319C160.104 151.636 159.009 150.928 157.785 150.533C156.714 150.186 155.134 150.489 154.265 149.702C153.583 149.083 153.368 147.935 153.106 147.094C152.778 146.05 152.495 144.949 152.079 143.935C151.796 143.241 151.384 142.576 150.864 142.039C150.636 141.16 150.218 140.356 149.478 139.868C147.543 138.587 145.166 139.86 144.315 141.686C143.611 141.684 142.87 141.838 142.185 141.88C140.778 141.969 139.369 142.009 137.96 142.005C135.203 141.997 132.444 141.817 129.71 141.451C124.821 140.796 120.078 139.475 115.272 138.446C115.245 138.382 115.213 138.319 115.175 138.256C114.14 136.518 111.56 136.812 109.935 137.469C109.238 137.751 108.528 138.106 108.129 138.765C107.706 139.05 107.341 139.397 107.098 139.763C106.595 140.517 106.206 142.039 105.186 142.166C104.514 142.248 103.832 142.119 103.149 142.216C102.296 142.335 101.531 142.635 100.743 142.977C94.7431 145.583 88.5403 148.481 82.0288 149.491C80.5016 149.728 78.9466 149.973 77.6199 150.829C76.5424 151.524 75.7098 152.48 74.8206 153.386C73.9544 154.27 73.2403 154.661 72.0044 154.819C70.5044 155.012 69.2051 155.426 68.1086 156.516C67.198 157.423 66.6044 158.581 65.8903 159.634C65.1633 160.707 64.0966 161.312 62.9896 161.935C60.372 163.411 57.9339 165.192 55.8107 167.329C51.3382 171.835 48.6297 177.626 45.9001 183.269C42.9487 189.373 40.1896 195.551 38.2755 202.069C36.3994 208.468 35.2839 215.052 34.7685 221.697C34.2255 228.669 34.1494 235.669 33.6973 242.646C33.4713 246.131 33.3001 249.62 33.1269 253.108C32.9579 256.553 32.7107 260.004 32.7506 263.453C32.8269 270.121 34.1598 276.811 36.4903 283.054C37.0713 284.607 37.7154 286.14 38.402 287.649C39.0044 288.974 41.0642 288.826 41.7107 287.649C41.8586 287.378 41.9748 287.099 42.072 286.816C43.7621 286.831 45.4692 286.7 47.1487 286.856C50.1149 287.133 53.0873 287.287 56.0619 287.471C61.948 287.837 67.8445 288.08 73.7325 288.416C74.3038 288.448 74.8751 288.481 75.4461 288.515C71.2501 275.523 71.7944 261.477 71.1304 247.965C71.0769 246.875 72.7675 246.882 72.8205 247.965C73.4873 261.535 72.9196 275.617 77.2639 288.63C78.9494 288.744 80.6325 288.884 82.31 289.088C83.6661 289.251 85.029 289.443 86.398 289.375C87.9509 289.301 89.4678 288.946 90.9825 288.638C93.7354 288.078 96.3868 288.331 99.1501 288.676C102.106 289.046 105.072 289.251 108.047 289.38C119.958 289.902 131.949 290.377 143.856 289.58C146.738 289.388 149.614 289.117 152.476 288.75C155.425 288.371 158.343 287.735 161.29 287.374C164.195 287.019 166.866 287.993 169.737 288.173C172.665 288.357 175.671 287.746 178.572 287.395C179.518 287.28 180.466 287.169 181.413 287.058C180.193 278.694 179.5 270.266 178.826 261.843C178.739 260.756 180.43 260.765 180.516 261.843C181.184 270.201 181.862 278.565 183.08 286.863C188.103 286.279 193.131 285.687 198.102 284.776C199.517 284.518 200.924 284.098 201.771 282.834C202.399 281.898 202.525 280.75 202.223 279.672Z" fill="black"/>
<path fill-rule="evenodd" clip-rule="evenodd" d="M120.51 38.9614C125.195 37.8664 130.108 38.0934 134.749 39.2968C143.946 41.6823 151.514 47.8857 157.789 54.8021C163.909 61.5484 168.957 69.2822 172.643 77.6134L172.83 78.0372C175.438 83.976 177.704 90.1489 177.801 96.6882C177.884 102.316 177.316 108.179 175.499 113.533C173.879 118.301 170.901 123.107 165.777 124.25C162.823 131.763 157.042 138.269 149.761 141.75C145.245 143.91 140.286 144.874 135.292 144.394C130.198 143.906 125.44 141.457 121.458 138.334C121.349 138.249 121.49 138.083 121.602 138.147C126.396 140.911 132.065 141.899 137.555 141.717C146.578 141.419 154.85 136.547 159.603 128.889C160.786 126.983 161.839 124.973 162.68 122.881C162.631 122.709 162.602 122.535 162.602 122.365C162.602 121.644 162.944 121.094 163.454 120.738C163.691 119.999 163.9 119.251 164.074 118.495C164.471 116.783 164.692 115.046 164.825 113.295C164.933 111.872 164.873 110.363 165.016 108.904C164.964 107.735 164.892 106.567 164.786 105.402C164.445 101.647 163.756 97.9007 162.429 94.3614C161.084 90.7765 158.96 87.6151 156.281 84.894C150.534 79.0578 143.379 74.7965 137.791 68.8011L137.498 68.4839L137.478 68.4775C136.785 69.1887 136.092 69.8999 135.397 70.6096L132.222 73.849C125.743 80.4677 119.316 87.1506 113.679 94.5157C110.433 98.7569 107.517 103.203 105.004 107.917C103.815 110.15 102.736 112.438 101.761 114.773L101.377 115.702C100.92 116.814 100.427 118.059 100.153 119.315C100.968 120.125 101.565 121.314 102.224 122.232C102.972 123.274 103.835 124.266 104.723 125.191C105.621 126.128 106.607 127.026 107.653 127.796L107.779 127.886C108.979 128.739 110.357 129.327 110.537 130.95C110.615 131.654 109.986 132.221 109.403 132.44C107.807 133.04 106.154 131.317 105.091 130.326C104.428 129.708 103.818 129.042 103.252 128.339C102.702 128.418 102.148 128.457 101.6 128.392C100.75 128.291 99.9091 128.143 99.0816 127.925C92.2179 126.122 87.1376 120.422 84.3966 114.074C80.7167 105.551 80.8023 95.7263 82.3321 86.7135C85.1274 70.243 94.1743 54.8613 107.835 45.1233C111.661 42.3961 115.903 40.038 120.51 38.9614ZM127.905 41.1648C119.08 40.6996 111.034 45.2521 104.579 50.919C92.8253 61.2371 85.5856 76.3444 84.1291 91.8582C83.3553 100.101 83.9344 108.985 88.2307 116.268C89.8976 119.093 92.0445 121.555 94.5786 123.631C96.9666 125.588 99.6886 126.715 102.599 127.483C102.466 127.3 102.335 127.116 102.208 126.929C101.531 125.938 100.994 124.884 100.543 123.78C100.503 123.82 100.429 123.828 100.384 123.767C98.5477 121.246 99.1226 118.238 99.9981 115.465C100.916 112.557 102.079 109.728 103.407 106.983C108.247 96.98 115.446 88.2659 122.919 80.1342C126.735 75.9813 130.678 71.9488 134.606 67.9025C136.568 65.882 138.524 63.8555 140.456 61.8059C141.418 60.7855 142.373 59.7598 143.32 58.7258C144.257 57.7035 145.099 56.6208 146.265 55.8551C147.194 55.2449 148.122 56.4111 147.688 57.2785C147.02 58.6126 145.871 59.6703 144.854 60.7551L144.749 60.8675C143.758 61.9377 142.758 62.9993 141.752 64.0553C140.594 65.2697 139.428 66.4758 138.258 67.6789C139.256 67.5632 140.265 67.4967 141.257 67.346C142.604 67.1414 143.933 66.84 145.255 66.5122C146.649 66.1671 148.024 65.7264 149.351 65.1786C150.598 64.6642 151.777 63.8399 153.149 63.7592C154.311 63.6907 154.674 65.1293 154.03 65.8864C153.143 66.9296 151.549 67.3402 150.252 67.7276L150.069 67.7828C148.634 68.2208 147.167 68.5494 145.683 68.769C143.731 69.0581 141.475 69.1904 139.387 68.8945C143.557 71.3407 147.395 74.3723 151.222 77.3288L151.897 77.8497C155.636 80.7274 159.285 83.8296 161.951 87.7669C164.439 91.4425 165.941 95.7217 166.785 100.058C167.201 102.197 167.475 104.358 167.659 106.529C168.346 108.454 168.235 110.742 168.063 112.859L168.001 113.589L168.006 113.804C168.031 115.127 168.563 118.075 167.311 119.075C167.289 119.181 167.27 119.288 167.247 119.395C167.403 119.299 167.557 119.2 167.71 119.098C167.773 119.056 167.833 119.009 167.895 118.964L168.068 118.822C168.075 118.816 168.08 118.811 168.085 118.807C168.474 118.466 168.844 118.11 169.19 117.724C169.829 117.012 170.436 116.107 171.011 115.065C172.274 112.774 173.082 110.283 173.706 107.708C174.847 103.001 175.318 97.944 174.798 93.1159C174.725 92.4419 174.576 91.5969 174.344 90.73C173.795 88.6714 173.163 86.6347 172.456 84.6253C171.04 80.6057 169.305 76.7061 167.283 72.9558C163.174 65.3388 157.888 58.2966 151.555 52.387C145.141 46.4022 136.823 41.6348 127.905 41.1648ZM115.46 65.5017C115.778 65.3073 116.105 65.6849 115.948 65.9897C115.184 67.4647 113.899 68.71 112.831 69.9739C111.726 71.2825 110.629 72.5984 109.535 73.9162C107.306 76.5993 105.131 79.3316 103.042 82.1248L102.49 82.8637C100.654 85.3303 98.8392 87.8359 97.2336 90.4567C96.3936 91.8277 95.6533 93.2456 94.9811 94.7059C94.3411 96.0959 94.046 97.7738 93.277 99.0795C93.2286 99.162 93.0786 99.1552 93.06 99.051C92.809 97.6451 93.4291 95.9518 93.8721 94.6353C94.3988 93.0696 95.1484 91.5783 95.9508 90.138C97.6244 87.1334 99.6298 84.3172 101.644 81.5349C103.691 78.7098 105.815 75.9424 108.044 73.2587C109.09 71.9981 110.161 70.7627 111.263 69.5517L111.678 69.0987C112.832 67.8458 113.996 66.3957 115.46 65.5017ZM110.11 61.1338C110.633 60.746 111.079 61.5386 110.746 61.9587C108.752 64.4683 106.483 66.7232 104.3 69.0637C102.204 71.3114 100.201 73.6432 98.3109 76.0668C94.4567 81.0088 91.3716 86.4316 88.7586 92.115C88.7094 92.2222 88.5544 92.1423 88.5776 92.0387C89.9616 85.8912 93.1974 80.3078 96.8816 75.2631L97.0217 75.0717C100.748 69.9987 105.032 64.899 110.11 61.1338Z" fill="black"/>
<path fill-rule="evenodd" clip-rule="evenodd" d="M149.372 128.003C148.022 128.014 146.504 127.507 145.489 127.11L145.224 127.005C144.346 126.653 143.443 126.249 142.77 125.571C142.555 125.351 142.326 125.101 142.209 124.839C142.141 124.685 142.113 124.526 142.179 124.368C142.422 124.344 142.653 124.313 142.871 124.273C142.975 124.254 143.075 124.235 143.151 124.234C143.433 124.232 143.711 124.268 143.99 124.303C144.03 124.308 144.07 124.313 144.111 124.318C144.327 124.345 144.543 124.374 144.758 124.403C145.384 124.487 146.007 124.571 146.642 124.601C147.101 124.623 147.582 124.597 148.067 124.571C149.325 124.502 150.626 124.409 151.595 125.291C151.849 125.521 151.955 125.812 151.955 126.109C151.955 126.469 151.804 126.835 151.573 127.123C151.049 127.774 150.244 127.996 149.372 128.003ZM156.736 116.649C156.148 117.531 155.169 118.098 153.828 118.036C151.163 117.915 147.982 116.909 145.749 115.454C145.168 115.075 144.791 114.47 144.723 113.821L144.603 112.667L143.953 113.628C143.885 113.728 143.817 113.828 143.749 113.928C143.56 114.203 143.372 114.478 143.195 114.76C142.514 115.842 141.89 116.936 141.323 118.082C140.921 118.894 140.628 119.803 140.334 120.719C139.837 122.266 139.357 123.787 138.295 124.874C138.135 125.039 137.888 125.098 137.662 125.069C137.463 125.043 137.268 124.945 137.173 124.751C135.904 122.171 137.61 119.062 138.994 116.9L139.14 116.674C140.424 114.721 142.519 112.136 144.919 111.785L145.194 112.223L145.593 111.957C146.247 111.521 147.109 111.541 147.864 111.882L148.619 112.223C150.025 112.854 151.411 113.436 152.932 113.755C153.043 113.778 153.154 113.8 153.264 113.82C153.369 113.839 153.474 113.857 153.579 113.873C153.556 113.77 153.532 113.666 153.508 113.564C153.482 113.455 153.456 113.345 153.428 113.237C153.399 113.124 153.369 113.012 153.338 112.901C153.216 112.457 153.079 112.018 152.916 111.587C152.301 109.968 151.321 108.454 150.367 107.01L150.255 106.84C150.118 106.633 149.968 106.418 149.813 106.194C149.07 105.123 148.245 103.96 148.186 102.792C149.174 102.854 150 103.468 150.727 104.002C151.725 104.735 152.65 105.573 153.489 106.484C155.117 108.25 156.578 110.508 157.219 112.842C157.585 114.178 157.424 115.616 156.736 116.649ZM130.694 103.334L130.693 103.287C130.696 101.939 131.481 98.8618 133.42 98.8618C134.632 98.8618 135.368 100.956 135.495 103.115L135.499 103.203C135.556 104.545 135.188 107.479 133.42 107.479C131.635 107.479 130.712 104.7 130.694 103.334ZM159.248 102.912L159.248 102.864C159.245 101.516 158.46 98.4391 156.521 98.4391C155.34 98.4391 154.611 100.43 154.457 102.53L154.446 102.692C154.37 103.989 154.714 107.056 156.521 107.056C158.307 107.056 159.229 104.277 159.248 102.912ZM137.225 94.2133C136.968 94.2434 136.713 94.2829 136.457 94.3236C135.711 94.4424 134.97 94.5851 134.233 94.7514C132.834 95.0674 131.446 95.4663 130.084 95.9172C128.81 96.3393 127.556 96.8162 126.303 97.2932C126.236 97.3186 126.169 97.3441 126.102 97.3695C125.659 97.5379 125.218 97.7266 124.775 97.9159C124.102 98.204 123.425 98.494 122.735 98.7126C124.554 96.1963 127.357 94.3318 130.054 92.9975C131.593 92.2363 133.226 91.6225 134.868 91.1195L135.783 90.8445C137.13 90.447 138.602 90.0799 139.867 90.8724C140.368 91.1859 140.687 91.6732 140.787 92.2C140.886 92.7166 140.774 93.2705 140.417 93.7327C140.106 94.1354 139.719 94.3648 139.307 94.4434C138.852 94.5301 138.37 94.4349 137.932 94.2004C137.58 94.1743 137.476 94.1837 137.372 94.1953L137.225 94.2133ZM157.486 94.4693C156.584 94.2733 155.692 94.1946 154.767 94.2228C154.349 94.2354 153.944 94.3 153.541 94.365C152.914 94.466 152.29 94.5704 151.614 94.4478C151.262 94.3838 150.962 94.1777 150.731 93.9087C150.46 93.5941 150.28 93.1921 150.223 92.8099C150.164 92.415 150.223 92.0697 150.369 91.7648C150.541 91.4046 150.832 91.101 151.183 90.835C152.246 90.0301 154.07 90.2237 155.324 90.3864C156.564 90.5476 157.796 90.9322 158.892 91.5429C159.973 92.1457 160.913 92.9578 161.646 93.9504C162.264 94.787 162.556 95.7499 162.856 96.7303C161.442 95.5433 159.277 94.8584 157.486 94.4693Z" fill="black"/>
<path fill-rule="evenodd" clip-rule="evenodd" d="M129.449 129.599C131.159 125.59 134.892 122.644 139.191 121.566C142.347 120.778 145.66 120.803 148.877 121.116C150.563 121.279 152.371 121.412 153.96 122.039C155.316 122.574 156.422 123.585 157.253 124.772C158.243 126.179 158.916 127.789 159.389 129.439C159.456 129.674 159.519 129.91 159.578 130.148C159.372 131.393 158.936 132.453 157.783 133.236C156.658 134 155.316 134.313 153.978 134.424C153.846 134.361 153.72 134.296 153.603 134.23C151.518 133.035 150.05 130.213 147.419 130.595C145.07 130.936 143.524 133.893 142.127 135.626C137.644 136.149 133.163 134.801 129.515 132.236C129.33 131.359 129.319 130.473 129.449 129.599ZM162.625 126.558C162.266 125.551 161.814 124.576 161.279 123.657C159.509 120.619 156.791 118.198 153.565 116.814C145.934 113.546 136.06 115.85 129.897 121.211C127.792 123.044 125.663 125.737 125.019 128.634C124.827 128.672 124.645 128.772 124.496 128.913C120.043 126.108 115.458 123.41 111.87 119.523C109.264 116.698 107.452 113.355 106.342 109.682C106.251 109.38 105.764 109.424 105.779 109.759C105.783 109.837 105.787 109.915 105.791 109.993C105.745 109.849 105.526 109.923 105.509 110.063C104.912 114.525 104.165 119.256 104.853 123.741C105.264 126.418 106.479 128.377 108.104 130.493C109.845 132.761 111.815 134.87 113.83 136.893C115.109 138.177 116.444 139.658 118.01 140.6C119.831 141.694 121.896 142.525 123.839 143.369C125.816 144.231 127.823 145.026 129.867 145.716C133.954 147.1 138.178 148.056 142.476 148.475C145.917 148.809 149.85 149.173 153.148 147.878C155.675 146.886 157.715 145.092 159.334 142.934C161.095 140.583 162.488 137.905 163.258 135.082C164.058 132.149 162.793 127.03 162.625 126.558Z" fill="black"/>
<path fill-rule="evenodd" clip-rule="evenodd" d="M159.889 92.1487C164.848 92.1487 167.678 93.2155 168.715 93.2986L168.746 93.3008C169.178 93.3284 169.564 93.3645 169.97 93.5215C171.463 94.0967 171.706 95.6629 170.835 96.6499C170.774 98.6923 171.043 101.079 170.582 103.128C170.014 111.766 165.953 113.224 163.645 113.756C162.486 114.023 161.112 114.129 159.881 113.847C157.781 113.769 155.705 113.111 153.929 111.966C151.455 110.37 149.618 107.917 149.022 105.005C148.739 103.617 148.607 102.173 148.761 100.762L148.784 100.568C147.979 100.183 147.048 100.11 146.087 100.076C145.628 100.06 145.176 100.045 144.737 100.065C144.307 100.113 143.883 100.177 143.457 100.264C142.993 100.404 142.554 100.635 142.148 101.002L142.12 101.537C142.044 102.874 141.869 104.215 141.598 105.527C141.199 107.463 140.556 109.311 139.188 110.684C138.725 111.376 138.152 111.993 137.456 112.528C134.929 114.474 131.496 115.189 128.346 114.92C121.949 114.374 118.252 109.294 117.4 107.123L117.349 106.991C116.733 105.377 116.243 103.283 114.298 102.936L113.884 102.862C112.997 102.695 112.178 102.463 111.657 101.597C111.429 101.218 111.312 100.795 111.283 100.364C110.979 100.388 110.676 100.41 110.374 100.432C107.964 100.941 93.5072 101.374 92.3533 101.374C92.3533 101.374 90.1352 102.308 89.1987 101.584C88.5496 101.081 88.3361 100.41 88.6934 99.6505C89.2325 98.5074 91.7199 97.8198 92.8244 97.6021C92.8244 97.6021 110.648 97.7502 111.931 97.5069C112.724 96.6881 114.144 96.8002 115.331 96.6707C116.313 95.9702 117.687 95.5009 118.772 95.1869C118.993 95.103 119.212 95.022 119.425 94.9456C121.415 94.2367 123.483 93.8613 125.582 93.6597C127.747 93.4538 129.919 93.547 132.071 93.842C132.978 93.9651 133.877 94.1243 134.769 94.3324C136.367 94.5431 137.955 94.8902 139.553 95.3019L139.873 95.3851C141.556 95.8265 143.285 96.2083 145.028 95.909C146.446 95.667 147.81 95.121 149.118 94.5305L149.288 94.4532C152.164 93.1398 156.654 92.1487 159.889 92.1487ZM134.596 96.9511C133.535 96.7176 133.082 98.3541 134.146 98.5881C134.9 98.7539 135.539 99.1341 135.97 99.7783L136.016 99.8483C136.595 100.77 138.059 99.9192 137.476 98.9914C136.82 97.9472 135.8 97.2159 134.596 96.9511ZM165.671 95.9364C165.296 95.6728 164.73 95.8685 164.513 96.241C164.274 96.6511 164.431 97.1077 164.781 97.3761L164.817 97.4022C165.138 97.6288 165.451 98.0349 165.49 98.451L165.494 98.503C165.536 99.592 167.228 99.5975 167.185 98.503C167.144 97.4324 166.524 96.5379 165.671 95.9364Z" fill="black"/>
</svg>
