<svg width="240" height="324" viewBox="0 0 240 324" fill="none" xmlns="http://www.w3.org/2000/svg">
<path fill-rule="evenodd" clip-rule="evenodd" d="M182.916 279.674C181.487 268.199 180.494 254.346 180.482 242.775C180.481 241.686 182.171 241.688 182.172 242.775C182.184 254.346 183.177 268.199 184.606 279.674C184.741 280.753 183.049 280.739 182.916 279.674ZM172.331 208.524C170.124 209.875 167.225 208.938 165.04 208.043C164.045 207.636 164.483 206.001 165.489 206.413C167.152 207.094 169.582 208.096 171.337 207.146C173.089 206.199 173.168 203.592 173.181 201.872C173.189 200.782 174.879 200.783 174.871 201.872C174.853 204.212 174.54 207.172 172.331 208.524ZM168.245 261.035C166.018 259.893 164.117 258.332 162.587 256.35C161.923 255.488 163.391 254.647 164.047 255.496C165.393 257.241 167.147 258.575 169.098 259.576C170.067 260.073 169.211 261.531 168.245 261.035ZM157.539 202.026C153.717 217.347 151.152 232.942 149.895 248.684C149.639 251.879 149.46 255.071 149.358 258.264C149.257 259.097 149.16 259.932 149.069 260.767C148.725 263.924 148.461 267.133 148.484 270.311C148.494 271.738 148.539 273.158 148.636 274.58C148.467 274.105 148.311 273.627 148.158 273.152C147.848 272.177 147.643 271.167 147.326 270.199C147.064 269.398 146.726 268.631 146.411 267.855V267.853C146.506 264.677 146.291 261.47 146.181 258.309C146.039 254.213 145.864 250.121 145.773 246.023C145.592 237.827 145.682 229.624 145.978 221.432C146.572 204.926 148.072 188.498 149.585 172.059C150.005 167.487 150.457 162.918 150.77 158.338C151.085 153.709 151.211 149.072 151.247 144.431C151.249 144.097 150.742 144.009 150.649 144.332C150.567 143.231 150.421 142.132 150.178 141.068C153.823 143.393 157.665 145.403 161.432 147.517C163.416 148.631 165.392 149.763 167.437 150.761C168.561 151.31 169.695 151.816 170.853 152.293C172.053 152.788 173.2 153.468 174.52 153.124C174.635 153.094 174.742 153.052 174.846 152.997C174.696 153.282 174.546 153.566 174.402 153.853C173.904 154.844 173.428 155.84 172.968 156.844C172.845 156.934 172.737 157.059 172.653 157.222C172.429 157.659 172.211 158.101 172 158.549C171.958 158.509 171.915 158.469 171.873 158.429C171.696 158.262 171.451 158.513 171.607 158.695C171.679 158.777 171.749 158.858 171.818 158.94C170.441 161.905 169.321 165.023 168.168 168.067C166.75 171.807 165.406 175.576 164.141 179.369C161.646 186.832 159.444 194.392 157.539 202.026ZM102.899 257.627C95.8547 261.401 89.2725 265.911 82.9416 270.775C82.0786 271.438 81.2378 269.968 82.0885 269.315C88.4194 264.451 95.0018 259.941 102.046 256.167C103.005 255.653 103.858 257.113 102.899 257.627ZM79.1078 213.43C78.7416 213.403 78.3858 213.19 78.2929 212.809C77.7223 210.472 77.2754 207.926 77.8061 205.543C78.0428 204.479 79.6718 204.932 79.4359 205.992C79.0173 207.872 79.3499 209.904 79.7844 211.778C85.9279 212.047 91.989 209.842 97.8666 208.361C98.9236 208.094 99.37 209.726 98.316 209.991C92.0811 211.562 85.6319 213.913 79.1078 213.43ZM201.411 275.77C201.417 275.756 201.423 275.739 201.427 275.724C201.789 274.629 201.797 273.357 201.837 272.209C201.907 270.168 201.833 268.122 201.649 266.086C201.261 261.802 200.424 257.588 199.425 253.409C197.445 245.133 194.648 237.081 193.129 228.692C190.148 212.226 190.856 195.081 185.006 179.198C182.574 172.596 179.101 166.249 174.381 161.003C174.725 159.955 175.061 158.904 175.389 157.85C175.961 156.015 176.546 154.121 176.899 152.232C176.908 152.181 176.918 152.128 176.925 152.076C178.934 151.209 180.761 149.575 181.074 147.403C181.209 146.464 181.053 145.424 180.647 144.518C181.475 143.753 182.008 142.759 181.881 141.428C181.644 138.921 178.718 138.276 176.682 137.786C174.366 137.23 171.964 137.076 169.596 137.338C168.4 137.469 167.217 137.689 166.061 138.019C165.058 138.304 163.965 138.598 163.161 139.287C163.066 139.367 163.144 139.523 163.258 139.523C164.887 139.517 166.509 138.919 168.155 138.841C169.879 138.76 171.599 138.902 173.289 139.257C174.941 139.604 176.589 140.111 178.091 140.895C178.513 141.117 179.132 141.267 178.636 141.715C178.273 142.043 177.558 142.07 177.092 142.119C176.058 142.227 175.167 142.831 175.036 143.934C174.92 144.909 175.501 146.012 176.536 146.232C176.593 146.245 176.646 146.259 176.692 146.278C176.72 146.331 176.762 146.375 176.758 146.304C176.758 146.304 176.76 146.301 176.76 146.304C176.785 146.458 176.794 146.519 176.794 146.53C176.787 146.517 176.777 146.464 176.768 146.422C176.775 146.46 176.787 146.521 176.804 146.612C176.781 146.513 176.8 146.756 176.781 146.794C176.232 147.808 174.607 148.094 173.661 148.531C173.477 148.616 173.318 148.715 173.183 148.827C172.959 148.749 172.731 148.671 172.501 148.584C171.366 148.159 170.234 147.747 169.085 147.364C166.866 146.623 164.62 145.961 162.402 145.217C158.202 143.81 154.142 142.032 150.02 140.422C149.889 139.936 149.737 139.46 149.557 138.997C149.521 138.9 149.348 138.868 149.329 138.997C149.265 139.407 149.215 139.819 149.173 140.234C149.156 140.272 149.151 140.314 149.16 140.354C148.921 142.763 148.985 145.23 148.862 147.637C148.71 150.638 148.285 153.618 148.165 156.622V156.677C147.721 159.24 147.32 161.812 146.956 164.393C146.549 164.266 146.082 164.292 145.604 164.547C142.228 166.35 138.434 167.354 134.616 167.578C132.694 167.69 130.79 167.627 128.878 167.405C127.621 167.261 126.383 166.999 125.143 166.75C125.796 164.013 126.497 161.288 127.289 158.592C127.942 156.374 128.669 154.168 129.567 152.035C130.473 149.882 131.601 147.825 132.651 145.737C133.135 144.771 132.565 143.294 131.308 143.395C130.936 143.425 130.564 143.448 130.19 143.465C126.552 143.639 122.768 143.233 119.177 142.871C115.089 142.457 110.946 142.028 106.894 141.354C106.594 141.305 106.471 141.713 106.767 141.812C108.689 142.459 110.589 143.19 112.56 143.674C114.588 144.175 116.629 144.632 118.687 144.989C120.658 145.329 122.637 145.615 124.623 145.856C125.918 146.014 127.228 146.094 128.532 146.2C126.776 149.007 125.566 152.173 124.511 155.29C123.157 159.293 122.162 163.412 121.188 167.523C119.105 176.334 117.387 185.234 116.044 194.189C115.08 200.61 114.301 207.056 113.715 213.519C113.542 211.556 113.331 209.599 113.092 207.644C112.294 201.153 111.127 194.705 109.568 188.354C109.708 188.109 109.773 187.815 109.727 187.53C109.446 185.784 108.706 184.264 108.058 182.645C107.413 180.384 106.718 178.137 105.97 175.907C105.121 172.87 104.168 169.88 102.949 166.959C102.018 164.733 100.955 162.565 99.7718 160.462C98.3585 157.522 96.8056 154.646 95.1007 151.896C95.012 151.64 94.8683 151.401 94.6634 151.201C94.3528 150.71 94.038 150.226 93.7169 149.746C93.5078 149.434 92.9078 149.624 93.0662 150.021C93.1401 150.207 93.2141 150.393 93.2901 150.577C86.3458 148.84 79.5366 151.496 72.9218 153.458C71.2528 153.954 69.5669 154.403 67.8556 154.726C66.5099 154.98 64.9423 155.288 63.6007 155.009C62.7028 154.823 62.3056 154.415 62.743 153.456C63.1951 152.463 64.4289 151.809 65.5 151.37C65.9035 151.283 66.3007 151.129 66.6831 150.896C67.5747 150.355 67.9655 149.227 67.5451 148.265C67.1627 147.396 66.0472 146.648 65.0606 147.045C64.919 147.102 64.7796 147.157 64.6401 147.212C64.6254 147.191 64.6085 147.162 64.5937 147.119C64.4521 146.733 64.3909 147.196 64.4521 146.642C64.5535 145.737 65.5106 144.915 66.1655 144.397C67.7944 143.106 70.1479 142.151 72.25 142.639C72.4085 142.675 72.5669 142.719 72.7232 142.774C74.8887 143.524 75.943 140.405 74.2127 139.242C74.107 139.173 73.9739 139.084 73.8282 138.98C73.1077 138.479 72.0535 137.636 72.3409 136.875C72.6958 135.931 74.7894 135.387 75.5817 135.066C78.4465 133.904 81.5416 133.244 84.6303 133.109C87.738 132.974 90.8859 133.316 93.8838 134.155C95.3542 134.565 96.8648 135.189 98.2549 135.819C99.5035 136.383 102.22 137.129 102.394 138.71C102.432 139.059 102.928 139.177 103.036 138.796C103.887 135.761 100.583 133.802 98.4028 132.549C96.9725 131.724 95.35 131.211 93.7803 130.706C92.2761 130.22 90.7402 129.863 89.1725 129.647C85.8071 129.186 82.4014 129.245 79.0634 129.892C76.0232 130.482 72.6409 131.488 70.1838 133.445C68.6754 134.645 67.993 136.556 68.5993 138.42C68.6204 138.481 68.6416 138.545 68.6627 138.606C65.9479 139.092 63.3789 140.648 61.6613 142.816C60.25 144.598 59.5106 147.077 60.7739 149.151C60.7211 149.189 60.6683 149.229 60.6176 149.271C59.4134 150.235 58.5176 151.634 58.2514 153.164C57.7296 156.182 59.5528 158.293 62.1028 159.101C61.4711 159.718 60.8648 160.373 60.2711 161.028C58.9423 162.497 57.6725 164.097 56.5528 165.729C54.2838 169.034 52.3444 172.634 50.6479 176.26C47.1599 183.708 44.9606 191.725 43.7944 199.853C43.207 203.949 42.8141 208.066 42.6641 212.2C42.4908 216.914 42.6662 221.629 42.5754 226.344C42.4866 230.875 41.9859 235.297 40.9739 239.714C40.0042 243.939 38.7113 248.079 37.5408 252.249C36.2204 256.945 34.7669 261.621 34.0697 266.463C33.7169 268.927 33.4634 271.398 33.6599 273.889C33.8585 276.428 34.7796 278.598 35.6289 280.959C35.8444 281.562 36.5014 281.804 37.0275 281.676C37.1458 282.806 37.5725 283.91 38.2085 284.865C39.5585 286.89 41.6373 288.181 44.0183 288.65C46.7014 289.176 49.4669 289.052 52.1838 288.954C55.131 288.849 58.0803 288.754 61.0275 288.631C64.113 288.504 67.1984 288.373 70.2839 288.241C70.1819 285.077 70.0602 281.915 69.9227 278.752C69.1788 261.658 68.0073 244.552 67.9763 227.435C67.9165 227.4 67.8577 227.359 67.8016 227.304C66.4125 225.961 64.7071 225.079 63.1049 224.027C62.1981 223.432 63.0457 221.969 63.958 222.568C65.3088 223.454 66.7165 224.241 67.9824 225.234C67.9898 223.453 68.0054 221.671 68.0407 219.889C68.0623 218.801 69.7524 218.801 69.7309 219.889C69.6248 225.259 69.6603 230.631 69.7818 236.001C70.1749 253.403 71.4109 270.773 71.9737 288.169C80.2554 287.815 88.5375 287.458 96.8204 287.156C103.558 286.911 110.295 286.666 117.032 286.42C118.446 286.37 119.24 285.359 119.413 284.038C119.73 281.608 119.135 279.095 117.787 277.051C117.647 276.84 117.482 276.652 117.299 276.491C117.33 275.035 117.389 273.576 117.307 272.12C117.185 269.897 117.001 267.674 116.84 265.452C116.515 261.003 116.263 256.546 116.164 252.086C115.961 243.168 116.109 234.24 116.614 225.334C117.626 207.54 119.982 189.861 123.837 172.456C124.118 171.188 124.401 169.92 124.695 168.654C127.693 170.212 131.339 170.771 134.616 170.793C138.723 170.818 142.739 169.873 146.449 168.155C146.424 168.347 146.399 168.538 146.375 168.73C145.34 176.973 144.468 185.232 143.707 193.502C142.19 209.99 141.261 226.545 141.389 243.106C141.425 247.695 141.601 252.268 141.818 256.85C142.04 261.511 142.38 266.435 143.677 270.93C143.821 271.427 144.14 271.712 144.508 271.816C144.527 272.471 144.569 273.129 144.616 273.775C144.766 275.878 145.194 280.247 146.111 282.153C147.005 284.013 148.494 285.488 150.394 286.3C152.806 287.329 155.415 287.033 157.963 286.868C169.042 286.146 180.113 285.178 191.185 284.328C192.727 284.21 194.27 284.093 195.81 283.973C197.181 283.867 198.599 283.774 199.816 283.062C201.199 282.253 202.279 278.277 201.801 276.633C201.715 276.333 201.584 276.037 201.411 275.77Z" fill="black"/>
<path fill-rule="evenodd" clip-rule="evenodd" d="M169.019 69.6409C170.058 68.7773 171.695 69.5724 171.343 70.9942C170.96 72.5425 169.301 73.6005 167.932 74.2367C166.522 74.8912 165.149 75.0174 163.611 74.946L163.592 74.9418C164.019 76.6543 164.261 78.4345 164.588 80.1575C165.002 82.3432 165.41 84.5301 165.812 86.718C166.2 88.8328 166.692 90.9503 166.99 93.0756C167.291 95.221 167.58 97.3679 167.876 99.514C168.369 103.098 168.768 106.699 169.188 110.294L169.388 111.995C169.809 115.596 170.148 119.202 169.35 122.786C168.603 126.145 166.92 129.278 164.967 132.082C163.055 134.827 160.919 137.467 158.574 139.855C154.051 144.46 148.473 148.149 141.933 148.833C139.118 149.128 136.11 148.8 133.463 147.776L133.287 147.707C130.607 146.649 127.325 144.837 126.628 141.862C126.199 140.038 128.079 138.614 129.726 139.479C130.49 139.881 131.064 140.339 131.69 140.914L131.802 141.016C132.314 141.492 132.511 141.638 133.102 142.011C134.314 142.773 135.222 143.134 136.599 143.481C139.137 144.12 141.876 144.019 144.453 143.263C149.923 141.66 154.167 137.475 157.803 133.279C159.777 131 161.651 128.61 163.096 125.955C164.612 123.168 165.312 120.243 165.27 117.073C165.223 113.496 164.728 109.905 164.404 106.344C164.074 102.715 163.768 99.0866 163.499 95.452C163.247 92.0436 163.223 88.6198 163.134 85.2007L163.117 84.5597C163.065 82.7446 163.029 80.9289 162.988 79.1134C162.947 77.3032 162.804 75.4699 162.991 73.6673C163.004 73.5361 163.181 73.5029 163.224 73.6356C163.334 73.9734 163.43 74.3164 163.521 74.6613C163.535 74.6507 163.55 74.6412 163.569 74.6347C164.774 74.2204 165.884 73.3934 166.788 72.5015C167.651 71.6504 168.102 70.4036 169.019 69.6409ZM103.088 44.2794C103.845 41.1691 107.251 40.4744 109.77 41.9723C110.982 42.6926 111.952 43.7313 113.083 44.5569C114.209 45.3778 115.452 46.037 116.764 46.5026C119.371 47.4274 122.121 47.7637 124.876 47.7757C131.582 47.8051 138.15 45.9199 144.866 46.1302C150.062 46.2929 155.578 47.8292 159.347 51.587C161.377 53.6113 162.686 56.2139 163.388 58.9769C163.716 60.2682 163.96 61.5909 164.153 62.9104L164.2 63.2402C164.308 64.0115 164.481 64.8279 164.497 65.6074C164.512 66.3074 164.335 67.0399 164.239 67.7327C164.037 69.1931 161.776 69.0268 161.451 67.7327C160.711 64.7863 161.021 61.7454 160.116 58.8091C159.315 56.2052 157.761 53.9286 155.509 52.3716C146.011 45.8028 133.83 51.3036 123.365 50.7926C120.807 50.6676 118.212 50.2722 115.799 49.3911C114.555 48.9367 113.33 48.3825 112.202 47.6855C111.168 47.0473 110.273 46.2454 109.316 45.5075L108.894 45.1866C108.238 44.693 107.122 43.9212 106.46 44.5742C106.172 44.8584 106.155 45.5011 106.16 45.9918L106.163 46.2137C106.193 48.2971 106.618 50.3768 105.838 52.3897C105.483 53.3079 104.495 53.8867 103.555 53.3668L103.506 53.3389C101.519 52.1559 98.907 54.533 100.434 56.5004L100.482 56.5599C101.341 57.6044 100.883 59.4438 99.345 59.4392L99.2896 59.4383C96.5499 59.3527 95.3343 62.778 97.6958 64.2746L97.7685 64.3194C99.6857 65.4672 98.004 68.2268 96.039 67.2794C96.2055 67.3597 95.9161 67.3586 95.7504 67.581C95.5913 67.7944 95.5795 67.9791 95.6173 68.2488C95.7321 69.0659 96.4504 69.7545 97.0322 70.2714C98.3539 71.4459 99.9923 72.2569 101.681 72.7506C108.443 74.7284 115.381 72.3091 121.97 70.848C128.84 69.3248 136.598 68.7113 142.589 73.0336C142.66 73.0847 142.598 73.1991 142.519 73.1534C138.22 70.6557 132.954 70.8774 128.254 71.9014C122.092 73.2443 115.983 75.7439 109.671 76.4025C111.443 79.5318 112.185 83.2276 111.711 86.8069C111.386 89.2707 110.405 91.4079 109.248 93.5736L109.027 93.9864C107.995 95.9304 107.195 97.7669 107.182 100.019C107.17 102.257 103.845 102.728 103.281 100.547C102.001 95.5944 106.663 91.6931 108.565 87.6087C110.191 84.1172 110.241 80.0464 108.926 76.4714C107.441 76.5908 105.945 76.6033 104.434 76.4684C103.136 76.3524 101.801 76.1185 100.5 75.7482L99.9791 77.9377C99.2893 80.8542 98.6502 83.7687 98.4566 86.798C98.314 89.0239 98.3216 91.2608 98.5385 93.4813C98.7261 95.3991 99.1221 97.2486 99.5249 99.121C99.8706 99.5771 100.047 100.275 99.95 100.831C102.194 101.478 103.958 103.249 104.603 105.594C104.642 105.737 104.443 105.818 104.368 105.694C102.838 103.155 98.8987 102.22 96.4068 103.898C94.0271 105.499 93.0885 108.733 94.4355 111.293C95.144 112.639 96.1946 113.585 97.5491 114.236L97.8215 114.364C98.5313 114.7 99.1829 115.066 99.6394 115.741C100.232 116.617 100.252 117.542 100.196 118.542L100.171 118.948C100.134 119.618 100.126 120.308 100.325 120.953L100.371 121.097C100.423 121.258 100.479 121.4 100.575 121.553C100.603 121.599 100.873 121.864 100.961 121.959L101.072 121.993L101.195 121.998C101.333 122 101.513 121.94 101.454 121.982L101.47 121.972C101.522 121.94 101.57 121.906 101.611 121.875L101.687 121.815C101.867 121.556 102.091 121.341 102.367 121.178L102.631 121.061C103.315 120.338 104.487 120.718 104.978 121.438C105.331 121.956 105.521 122.482 105.537 123.001C105.592 122.913 105.714 122.864 105.792 122.964L106.257 123.557C108.037 125.831 109.786 128.12 111.808 130.194C112.922 131.336 114.12 132.41 115.373 133.399C116.442 134.243 118.471 135.056 118.502 136.594C118.512 137.093 118.157 137.446 117.724 137.616C116.313 138.167 114.569 136.292 113.55 135.379L113.467 135.305C112.22 134.213 111.081 133.013 110.031 131.73C107.991 129.238 106.285 126.37 105.533 123.214C105.498 123.765 105.261 124.305 104.802 124.814C104.19 125.491 103.352 125.966 102.457 126.162C100.43 126.605 98.4511 125.876 97.2449 124.186C96.2255 122.757 95.9253 120.871 96.0569 119.145L96.0731 118.938C96.0916 118.661 96.1151 118.153 96.1867 117.937L95.5485 117.587C94.7659 117.17 94.0406 116.624 93.3897 116.024C90.7736 113.611 89.461 109.69 90.657 106.258C91.4051 104.112 92.9771 102.244 94.9901 101.274C94.6536 100.496 94.5411 99.5719 94.4142 98.7546L94.3928 98.6194C94.1775 97.2786 93.9973 95.9209 93.9287 94.564C93.8002 92.03 93.9563 89.4722 94.3544 86.9675C95.0009 82.8992 96.3392 78.5847 98.7925 75.1718C96.9209 74.4283 95.1982 73.3519 93.8685 71.8572C92.479 70.2953 91.5931 68.0592 92.6676 66.0757C92.9414 65.5702 93.2982 65.1451 93.7083 64.8076C92.9972 63.4643 92.7671 61.8766 93.2059 60.3591C93.7303 58.5449 95.154 57.1299 96.874 56.4692C96.4563 54.7503 96.7977 52.9014 98.074 51.4689C99.3399 50.0478 101.306 49.5302 103.125 49.855C103.224 48.0268 102.649 46.0824 103.088 44.2794ZM97.9844 108.466C99.6525 107.65 101.63 107.78 103.296 108.553L103.409 108.607C105.228 109.49 107.637 111.552 107.059 113.744C106.721 115.027 105.296 115.465 104.192 114.911C103.269 114.449 103.059 113.622 102.596 112.791C102.269 112.203 101.864 111.744 101.389 111.272C100.387 110.276 99.2623 109.537 97.9844 108.946C97.8002 108.86 97.8065 108.554 97.9844 108.466ZM140.017 64.1401C139.861 64.0686 139.974 63.8237 140.132 63.8685C144.323 65.066 148.232 67.7539 150.567 71.4849C150.709 71.7125 150.731 72.0873 150.567 72.3126L150.491 72.4148C150.384 72.5547 150.278 72.6579 150.077 72.6892C149.699 72.7479 149.37 72.6492 149.152 72.3126C146.851 68.7564 143.903 65.9184 140.017 64.1401ZM168.079 64.8442C168.434 64.2425 169.375 64.3636 169.563 65.0383L169.59 65.097C169.691 65.327 169.645 65.374 169.456 65.2439C169.924 65.629 170.135 66.2026 169.992 66.8193C169.221 70.1502 165.449 72.5287 162.162 72.2013C161.875 72.1728 161.836 71.8201 162.096 71.7148C163.361 71.2025 164.483 70.3704 165.386 69.3494C166.263 68.3569 166.633 67.2213 167.105 66.0227C167.282 65.5728 167.557 65.2488 167.945 65.0719C167.997 65.0009 168.041 64.9252 168.079 64.8442ZM149.382 62.7037L149.405 62.7051C151.094 62.9235 152.555 63.7575 153.742 64.9795C154.884 66.1563 156.326 68.0982 156.203 69.8251C156.121 70.97 154.494 71.6245 153.886 70.4528C153.524 69.7537 153.442 68.9873 153.188 68.248C152.955 67.5704 152.634 66.9271 152.249 66.3237C151.456 65.0805 150.367 64.0274 149.251 63.0771C149.12 62.9659 149.211 62.7043 149.382 62.7037ZM106.054 62.1964C105.68 61.8396 106.069 61.2313 106.546 61.3518C109.058 61.9882 111.547 62.7621 114.159 62.8391C115.464 62.8773 116.761 62.7744 118.054 62.6055L118.708 62.5186C119.716 62.387 120.741 62.2837 121.738 62.4908C122.402 62.6288 122.531 63.4848 122.118 63.9313C120.163 66.0404 116.393 65.8388 113.801 65.4833C110.987 65.0969 108.146 64.1902 106.054 62.1964ZM151.427 55.6225C151.255 55.3838 151.545 55.0072 151.818 55.1131C154.315 56.0786 156.932 58.5921 157.62 61.222C157.802 61.9167 156.926 62.4413 156.412 61.9256C155.454 60.9646 154.777 59.8294 153.967 58.7492C153.16 57.6723 152.215 56.716 151.427 55.6225ZM110.515 56.7969C110.314 56.5968 110.516 56.1982 110.804 56.3C112.429 56.876 114.067 57.3743 115.775 57.6358C117.524 57.9034 119.29 57.7 121.049 57.8085C121.76 57.8522 122.244 58.9593 121.454 59.3038C117.94 60.8341 113.167 59.4464 110.515 56.7969ZM115.003 53.3643C114.724 53.1576 114.883 52.5903 115.263 52.7486C116.811 53.3934 118.377 53.5519 120.038 53.4856C120.652 53.4609 120.781 54.4257 120.183 54.5559C118.346 54.9555 116.504 54.4743 115.003 53.3643Z" fill="black"/>
<path fill-rule="evenodd" clip-rule="evenodd" d="M132.525 123.612C132.547 121.284 134.564 120.882 136.48 121.193C139.724 121.718 142.98 122.087 146.268 122.154L146.835 122.164C146.926 122.03 147.079 121.929 147.286 121.907C149.109 121.71 150.97 121.742 152.803 121.688C154.402 121.641 156.044 121.481 157.643 121.607L157.77 121.618C159.724 121.807 161.785 122.805 161.549 125.098C161.332 127.222 159.303 129.102 157.682 130.282C157.355 130.519 157.02 130.741 156.675 130.943C156.567 131.081 156.409 131.177 156.227 131.197C154.631 132.059 152.87 132.569 151.047 132.739C147.182 133.099 142.69 132.709 138.978 131.034C137.771 130.489 136.646 129.809 135.651 128.974C134.116 127.685 132.508 125.731 132.525 123.612ZM147.751 128.23C146.202 128.183 144.655 128.4 143.18 128.878C142.18 129.201 141.269 129.822 140.31 130.253C143.539 131.485 147.291 131.753 150.603 131.529C152.057 131.431 153.466 131.096 154.779 130.519C154.574 130.371 154.367 130.221 154.15 130.09C153.495 129.693 152.81 129.356 152.096 129.087C150.705 128.565 149.237 128.277 147.751 128.23ZM148.271 107.866C147.853 107.566 148.184 106.572 149.077 106.726C157.19 108.12 152.986 122.099 142.629 114.428C141.396 113.433 142.889 111.241 144.218 112.093L144.69 112.457C146.225 113.633 148.762 115.412 150.581 113.503C152.297 111.098 149.866 108.836 148.271 107.866ZM153.762 97.2865C155.487 95.8146 157.65 96.8994 158.919 98.3901L159.143 98.6567C159.397 98.9608 159.678 99.3151 159.847 99.6938C161.254 98.4954 163.162 97.6522 164.987 98.1995C166.758 98.7324 167.767 100.423 167.463 102.238C167.118 104.303 165.557 105.69 163.879 106.763L163.404 107.065C161.388 108.351 159.501 109.646 157.842 111.413C157.571 111.701 156.986 111.663 156.809 111.28L156.666 110.973L156.522 110.665C155.345 108.154 154.084 105.66 153.048 103.09C152.281 101.186 152.032 98.7617 153.762 97.2865ZM134.105 98.6198L134.368 98.3159C135.631 96.8449 137.772 95.86 139.46 97.2866C141.257 98.8062 140.905 101.319 140.104 103.257C139.14 105.595 138.014 107.881 136.932 110.174L136.7 110.665C136.603 110.87 136.508 111.075 136.413 111.28C136.236 111.663 135.649 111.701 135.38 111.413C133.772 109.701 131.954 108.435 130.011 107.19L129.425 106.816C127.719 105.734 126.107 104.337 125.757 102.239C125.457 100.427 126.46 98.7259 128.233 98.1994C130.062 97.6565 131.966 98.4934 133.375 99.6939C133.543 99.3055 133.832 98.9398 134.105 98.6198ZM136.417 88.0666C137.034 88.8681 136.375 90.1778 135.474 90.3849C134.358 90.6417 133.231 90.4855 132.135 90.804C131.131 91.0959 130.17 91.6807 129.309 92.2636C128.328 92.9281 127.424 93.6699 126.593 94.5151C126.1 95.0179 125.477 96.2091 124.715 96.2313C123.958 96.2535 124.975 93.884 125.059 93.679C125.656 92.2196 126.495 90.8767 127.544 89.7003C129.615 87.3791 134 84.9297 136.417 88.0666ZM159.541 87.4251L160.057 87.5688C161.337 87.9245 162.702 88.3616 163.799 89.1286L163.885 89.1896L164.018 89.2868C165.396 90.3142 167.344 92.3643 166.369 94.1528C166.301 94.276 166.158 94.2883 166.044 94.238C164.746 93.6692 163.783 92.5334 162.403 92.0583L162.148 91.9715C160.811 91.521 159.157 91.0472 157.717 91.0903C156.705 91.4194 155.339 91.1468 155.075 89.9145L155.063 89.8541L155.041 89.7265C154.889 88.8845 155.114 87.811 155.985 87.4052C157.177 86.8493 158.34 87.0967 159.541 87.4251Z" fill="black"/>
<path fill-rule="evenodd" clip-rule="evenodd" d="M129.449 129.598C131.16 125.59 134.893 122.644 139.191 121.566C142.347 120.777 145.66 120.803 148.877 121.116C150.563 121.279 152.371 121.412 153.96 122.038C155.317 122.573 156.422 123.585 157.254 124.772C158.243 126.179 158.916 127.789 159.389 129.439C159.456 129.674 159.519 129.91 159.578 130.148C159.372 131.393 158.936 132.453 157.783 133.235C156.658 134 155.316 134.313 153.978 134.424C153.847 134.361 153.72 134.296 153.604 134.229C151.518 133.035 150.051 130.213 147.419 130.595C145.07 130.936 143.524 133.893 142.127 135.626C137.644 136.149 133.164 134.801 129.516 132.236C129.33 131.359 129.32 130.473 129.449 129.598ZM162.625 126.557C162.266 125.551 161.815 124.575 161.279 123.657C159.509 120.619 156.792 118.198 153.566 116.814C145.934 113.546 136.06 115.85 129.897 121.211C127.792 123.044 125.663 125.737 125.019 128.634C124.827 128.672 124.646 128.772 124.496 128.913C120.044 126.108 115.458 123.41 111.87 119.523C109.265 116.698 107.452 113.355 106.342 109.682C106.252 109.38 105.764 109.424 105.779 109.759C105.783 109.837 105.787 109.915 105.792 109.993C105.745 109.849 105.526 109.923 105.509 110.063C104.912 114.525 104.165 119.256 104.853 123.741C105.264 126.418 106.48 128.377 108.104 130.493C109.845 132.761 111.815 134.87 113.83 136.893C115.109 138.177 116.444 139.658 118.01 140.6C119.831 141.694 121.896 142.525 123.84 143.369C125.816 144.23 127.823 145.026 129.867 145.716C133.954 147.099 138.178 148.056 142.476 148.475C145.917 148.809 149.85 149.173 153.148 147.878C155.675 146.886 157.716 145.092 159.334 142.933C161.096 140.583 162.488 137.905 163.258 135.082C164.058 132.149 162.794 127.03 162.625 126.557Z" fill="black"/>
</svg>
