<svg width="240" height="324" viewBox="0 0 240 324" fill="none" xmlns="http://www.w3.org/2000/svg">
<path fill-rule="evenodd" clip-rule="evenodd" d="M110.677 136.23C111.038 135.514 111.997 135.607 112.63 135.932C114.527 137.32 112.542 140.01 112.017 141.704C110.666 144.989 108.321 148.2 105.083 149.735C105.351 153.001 105.655 156.26 105.768 159.535C109.907 164.672 116.887 166.547 123.083 167.989C132.814 170.681 143.797 165.165 147.081 155.543C143.343 153.418 142.133 147.855 143.248 143.974C143.345 143.701 143.768 143.581 143.918 143.885C144.942 145.991 144.805 148.56 145.969 150.641C157.138 151.711 171.553 155.927 178.87 164.963C182.113 169.484 183.398 175.364 184.995 180.603C188.402 191.405 191.118 202.425 194.46 213.237L194.854 211.192C195.934 205.556 196.915 199.844 196.185 194.112L196.172 193.838C195.934 189.277 194.507 180.803 198.043 177.724C201.241 175.279 205.874 173.315 209.887 174.442C217.028 171.262 223.192 165.909 230.798 163.824C233.139 163.342 236.506 163.913 235.953 167.089C234.42 172.646 227.998 174.802 223.608 177.667C226.422 178.43 229.853 181.853 227.654 184.838C227.635 184.891 227.618 184.931 227.601 184.963C229.384 185.753 229.634 187.74 229.196 189.444C229.152 189.894 229.034 189.507 229.298 189.915C231.31 191.813 230.42 197.104 227.39 197.282C227.588 199.789 225.979 202.224 223.94 203.591C221.743 205.065 218.565 205.128 216.746 207.144C212.475 214.678 211.002 223.573 210.536 232.201C213.352 233.255 215.878 236.408 213.32 239.082C213.269 239.088 213.219 239.094 213.168 239.098C211.685 243.057 211.112 247.277 210.328 251.412C209.121 258.466 205.977 264.943 201.962 270.82C197.319 278.599 184.833 277.366 178.543 272.346C178.568 273.663 178.785 274.972 178.363 276.245C177.741 277.619 176.223 277.025 176.073 275.672C172.748 277.543 171.965 271.368 175.661 272.348C175.377 267.884 175.212 263.414 175.078 258.942C170.893 260.297 170.713 253.352 174.994 254.74L174.988 252.82C174.957 238.097 175.12 223.324 177.062 208.717C177.241 207.624 177.546 206.567 177.723 205.481C177.742 205.369 177.918 205.401 177.918 205.508C178.219 225.958 176.883 246.452 178.277 266.91C179.437 267.264 179.9 268.596 180.759 269.372C182.667 271.134 185.264 271.992 187.805 272.29C194.918 273.288 197.989 271.115 201.157 264.93C199.728 265.885 197.798 264.198 198.668 262.686L198.696 262.641C199.6 261.039 202.154 261.999 201.831 263.792C205.016 258.69 206.682 252.937 207.913 247.1L208.08 246.403C208.678 243.924 209.455 241.085 210.892 238.843C202.128 236.608 193.556 229.8 192.184 220.46C189.959 227.454 186.945 234.29 184.072 241.091C183.184 243.456 182.815 245.999 181.543 248.193C181.247 248.7 180.497 248.569 180.33 248.034C179.186 242.918 182.652 238.052 184.452 233.447C185.921 230.844 190.139 218.958 192.755 218.929C189.816 206.044 185.896 193.255 182.163 180.529C178.554 163.347 171.198 160.034 155.615 154.624C158.426 168.952 171.259 182.822 164.43 197.851L164.264 198.241C163.566 199.898 162.986 201.568 163.473 203.386C163.946 205.151 165.024 206.684 165.886 208.271C170.705 217.236 167.388 227.707 165.525 237.044C163.171 247.993 160.846 258.953 158.413 269.886C157.934 272.067 157.623 274.313 156.898 276.427C156.525 277.518 154.659 277.414 154.78 276.142C155.01 273.673 155.703 271.266 156.21 268.842C159.239 253.147 163.338 237.637 165.944 221.873C167.621 210.204 161.021 208.411 161.267 200.871C162.164 197.015 164.539 193.574 164.403 189.465C164.93 176.886 155.771 166.509 154.641 154.275L152.644 153.562C151.646 153.205 150.65 152.845 149.656 152.476C154.886 189.066 153.298 226.455 150.683 263.226C150.149 264.923 150.657 276.775 148.418 275.723C148.305 276.386 147.953 277.037 147.189 277.033C140.244 277.097 133.298 277.207 126.353 277.29C123.013 276.982 118.422 278.257 115.581 276.33C112.3 275.393 111.923 266.506 111.046 263.338L110.704 261.034C105.13 223.391 100.142 184.971 104.149 146.955C98.5743 147.169 97.4237 153.188 97.0103 157.57C95.9765 167.242 89.7298 175.571 89.4302 185.354C89.4048 187.728 89.8527 190.027 90.8011 192.206C93.3173 197.545 97.669 203.718 94.4165 209.681C90.57 214.323 90.9029 215.545 92.3144 221.281C96.2856 240.246 102.881 258.478 109.154 276.763C107.791 283.871 99.5921 257.486 98.8208 255.497C95.1914 257.323 93.2089 251.264 97.3717 250.832C94.6979 241.879 92.2373 232.859 90.1886 223.739L90.1344 223.482C89.2294 219.269 87.4494 214.335 90.4552 210.598C98.2058 202.757 85.3348 193.993 86.9583 184.494C85.5564 185.534 83.4342 184.44 83.4661 182.693C83.4025 180.727 86.0429 179.719 87.3135 181.22C88.6198 173.513 93.1648 166.786 94.5401 159.102L94.6022 158.741C95.0683 156.025 95.1997 153.168 96.533 150.693C94.718 151.872 92.7851 152.825 90.7971 153.666C94.3517 156.636 87.4683 159.347 88.0379 154.759C68.5447 160.401 64.1387 168.268 56.9816 186.337C58.3185 185.037 60.6086 186.719 59.8083 188.376C59.1699 190.122 56.3848 189.611 56.3858 187.751L56.0596 188.529C51.7196 198.91 47.7695 209.544 45.7844 220.654C49.6785 220.104 48.687 226.33 45.1588 224.574C43.7429 234.455 43.7205 244.475 43.8936 254.436C47.1781 252.713 47.277 258.568 43.9252 256.898C44.0478 265.061 44.2274 273.223 44.3626 281.385C44.39 283.123 41.7112 283.114 41.6689 281.385C41.356 268.844 40.7858 256.279 41.0569 243.733C40.8019 221.959 47.0592 200.972 56.3824 181.466C64.6318 159.007 76.0267 156.453 96.9914 149.923C98.9267 147.049 103.061 144.331 106.434 146.136C108.322 143.088 109.28 139.478 110.677 136.23ZM74.7577 214.506C74.8358 214.229 75.2309 214.298 75.2436 214.571C75.4189 218.094 75.2626 221.641 75.0217 225.179C74.8758 227.339 74.6964 229.496 74.5443 231.642C74.1408 237.302 73.8154 242.968 73.5682 248.639C73.6548 248.603 73.7436 248.571 73.8365 248.546C74.2633 248.429 74.6903 248.429 75.1168 248.546C75.4974 248.652 75.8301 248.838 76.1167 249.106L76.1774 249.165C76.4119 249.382 76.5788 249.64 76.676 249.938C76.8144 250.204 76.8845 250.487 76.8843 250.79L76.8828 250.866C76.8809 251.301 76.7732 251.705 76.5534 252.082C76.3401 252.443 76.0527 252.73 75.6915 252.946C75.3154 253.164 74.9117 253.271 74.4767 253.273C74.4302 253.278 74.3835 253.282 74.3372 253.284C74.0138 253.297 73.7119 253.229 73.4328 253.083L73.3908 253.071C73.2851 255.947 73.1985 258.826 73.1351 261.704C73.0781 264.213 73.002 266.722 72.9513 269.23L72.9278 270.485L72.8818 273.259C72.8669 274.399 72.8742 275.492 72.4866 276.567L72.4401 276.691C72.1612 277.41 71.9438 278.409 71.1976 278.809C70.602 279.128 69.7992 279.01 69.457 278.388C69.1696 277.868 69.4187 277.12 69.8436 276.769C69.8351 276.746 69.8225 276.725 69.8119 276.702C69.7464 276.511 69.6469 276.332 69.5879 276.14C69.4018 275.531 69.4527 274.882 69.4506 274.25C69.4506 273.134 69.4884 272.018 69.5182 270.904C69.5837 268.533 69.6598 266.164 69.7525 263.795C70.0665 255.847 70.6578 247.899 71.3351 239.973L71.5649 237.298C71.8711 233.741 72.1879 230.18 72.6365 226.641C72.6575 226.472 72.6788 226.303 72.702 226.134C72.4612 226.014 72.2372 225.847 72.0596 225.661C71.3478 224.913 70.9161 223.795 70.5113 222.832L70.4182 222.613C69.9788 221.586 69.5732 220.546 69.364 219.443L69.344 219.341C69.2486 218.871 69.0603 218.039 69.5584 217.811C69.8182 217.693 69.9828 217.777 70.0675 218.037C70.0783 218.071 70.0694 218.109 70.0506 218.139C70.2556 218.453 70.5767 218.747 70.7795 219.039L71.4737 220.032L71.8168 220.531C72.252 221.172 72.7168 221.784 73.1964 222.389C73.5744 219.734 74.0372 217.09 74.7577 214.506ZM103.224 273.66C104.092 272.98 105.506 273.35 105.506 274.605C105.506 275.867 104.09 276.23 103.224 275.55L103.181 275.518L103.139 275.484C102.668 275.116 102.652 274.156 103.104 273.756L103.139 273.726C103.167 273.703 103.194 273.682 103.224 273.66ZM65.3978 271.207L65.4724 271.209C65.8653 271.209 66.2308 271.308 66.571 271.507C66.7189 271.619 66.8646 271.733 67.0125 271.847C67.2829 272.117 67.4689 272.439 67.5724 272.809L67.6508 273.388C67.6611 273.688 67.5998 273.967 67.4625 274.227C67.3738 274.497 67.2238 274.732 67.0125 274.929C66.8139 275.142 66.5815 275.292 66.3113 275.379C66.0729 275.504 65.8187 275.568 65.5469 275.568L65.4724 275.567C65.0775 275.567 64.7118 275.467 64.3717 275.269C64.2238 275.157 64.078 275.042 63.9301 274.929C63.6618 274.658 63.4738 274.337 63.3705 273.967C63.3449 273.774 63.3198 273.58 63.2921 273.388C63.2817 273.087 63.3449 272.809 63.4801 272.549C63.5689 272.278 63.7189 272.044 63.9301 271.847C64.1289 271.634 64.3611 271.483 64.6315 271.397C64.8697 271.271 65.1257 271.207 65.3978 271.207ZM164.295 267.189L164.849 267.263C165.379 267.383 165.805 267.774 166.091 268.22C166.243 268.459 166.325 268.717 166.338 268.994C166.399 269.269 166.386 269.545 166.3 269.822C166.236 270.093 166.112 270.329 165.928 270.53C165.865 270.63 165.791 270.721 165.706 270.801C165.533 271.09 165.271 271.28 165.001 271.475C164.773 271.621 164.525 271.699 164.259 271.712C164.084 271.758 163.906 271.758 163.729 271.712C163.465 271.699 163.217 271.621 162.989 271.475C162.854 271.371 162.719 271.266 162.586 271.162C162.468 271.025 162.358 270.883 162.254 270.735C162.185 270.573 162.117 270.412 162.049 270.251C161.924 269.864 161.986 269.522 162.054 269.135C162.064 269.07 162.081 269.011 162.104 268.947L162.15 268.824C162.271 268.503 162.336 268.394 162.552 268.115L162.634 268.005C162.675 267.95 162.717 267.896 162.766 267.848C162.901 267.709 163.093 267.592 163.245 267.472C163.57 267.284 163.921 267.191 164.295 267.189ZM92.5668 265.835L92.6372 265.836C92.9435 265.838 93.231 265.914 93.497 266.069L93.8435 266.337C94.0548 266.551 94.2006 266.8 94.2829 267.09C94.302 267.241 94.3233 267.394 94.3442 267.544C94.3527 267.779 94.3043 267.998 94.1963 268.203C94.1289 268.415 94.0104 268.596 93.8435 268.753C93.6895 268.918 93.5055 269.036 93.2942 269.106C93.1098 269.202 92.9115 269.253 92.7008 269.253L92.6372 269.252C92.3287 269.252 92.0414 269.173 91.7752 269.019L91.4287 268.753C91.2175 268.539 91.0717 268.288 90.9893 267.998C90.9703 267.846 90.9491 267.696 90.928 267.544C90.9196 267.309 90.9682 267.09 91.0759 266.887C91.1456 266.675 91.2618 266.491 91.4287 266.337C91.583 266.17 91.7668 266.052 91.978 265.984C92.1625 265.887 92.3572 265.838 92.5668 265.835ZM78.6239 265.137C79.0652 265.132 79.5133 265.257 79.8746 265.513C80.2253 265.762 80.4913 266.031 80.6626 266.434C80.7091 266.544 80.7554 266.652 80.7957 266.762C80.9774 267.246 81.0112 267.732 80.7598 268.205C80.5168 268.664 79.9929 268.865 79.5237 269.002C79.1267 269.121 78.6767 269.14 78.2816 268.998C78.0851 268.928 77.8929 268.854 77.7154 268.746C77.3837 268.541 77.2042 268.298 76.9823 267.998C76.8091 267.702 76.7225 267.381 76.7225 267.039C76.7225 266.694 76.8091 266.375 76.9823 266.077C77.3223 265.496 77.952 265.141 78.6239 265.137ZM56.2294 265.545C56.7874 265.545 57.2773 265.802 57.6134 266.238C57.9534 266.679 58.078 267.229 57.928 267.777C57.7696 268.355 57.2902 268.863 56.6963 269.009C56.2571 269.116 55.8977 269.112 55.4604 269.038C55.0907 268.975 54.8078 268.755 54.5245 268.526C54.2013 268.262 54.102 267.781 54.1548 267.392C54.2055 267.003 54.3853 266.749 54.6578 266.519L54.6597 266.513L54.5583 266.591C54.5965 266.557 54.6344 266.521 54.6726 266.485C54.6851 266.464 54.6956 266.441 54.7062 266.417C54.8625 266.151 55.0738 265.942 55.3379 265.785C55.6146 265.625 55.9104 265.545 56.2294 265.545ZM186.284 259.143C186.59 259.06 186.898 259.06 187.205 259.143C187.431 259.196 187.627 259.299 187.794 259.453C187.964 259.564 188.102 259.705 188.206 259.88L188.24 259.94C188.481 260.35 188.519 260.819 188.415 261.275C188.287 261.839 187.767 262.353 187.205 262.486L187.186 262.49L187.167 262.495C186.939 262.567 186.708 262.577 186.48 262.524C186.25 262.514 186.036 262.446 185.84 262.319C185.591 262.159 185.382 261.952 185.221 261.702C185.094 261.504 185.027 261.29 185.016 261.06C184.976 260.908 184.976 260.755 185.016 260.603C185.027 260.373 185.094 260.159 185.221 259.961L185.491 259.612L185.519 259.589C185.735 259.373 185.99 259.225 186.284 259.143ZM165.013 247.958C167.783 247.958 167.779 252.257 165.013 252.257C162.244 252.257 162.248 247.958 165.013 247.958ZM63.6089 247.415C63.9006 247.349 64.1922 247.362 64.4816 247.453C64.657 247.527 64.8302 247.601 65.0035 247.673L65.4471 248.015C65.5295 248.085 65.5697 248.161 65.6457 248.26L65.7408 248.385C65.8782 248.569 65.8815 248.608 66.0323 249C66.1337 249.376 66.1337 249.752 66.0323 250.129C65.9835 250.31 65.9098 250.482 65.8147 250.64C65.7278 250.792 65.6238 250.926 65.5067 251.049L65.4471 251.109C65.2485 251.323 65.014 251.473 64.7436 251.562C64.5725 251.661 64.3887 251.71 64.1922 251.71C63.9006 251.775 63.6089 251.762 63.3197 251.671C63.1443 251.598 62.9711 251.524 62.7976 251.452L62.3542 251.109L62.0119 250.665L61.9028 250.405L61.7922 250.143L61.714 249.562C61.7035 249.26 61.7647 248.981 61.9018 248.719C61.9547 248.535 62.0478 248.372 62.1828 248.237C62.2802 248.072 62.411 247.941 62.576 247.844C62.711 247.708 62.8739 247.616 63.0577 247.563C63.2288 247.464 63.4126 247.415 63.6089 247.415ZM200.599 244.344C200.829 244.336 201.045 244.384 201.244 244.49C201.313 244.513 201.381 244.543 201.446 244.577C201.702 244.726 201.905 244.929 202.055 245.183C202.177 245.378 202.245 245.587 202.256 245.813C202.301 246.017 202.297 246.222 202.242 246.426L202.224 246.487C202.177 246.654 202.108 246.808 202.015 246.95C202.006 246.967 201.996 246.984 201.983 246.998C201.841 247.223 201.653 247.406 201.421 247.544C201.163 247.692 200.887 247.768 200.587 247.77C199.989 247.77 199.473 247.447 199.158 246.95C199.114 246.88 199.089 246.791 199.057 246.719C199.029 246.652 198.985 246.565 198.962 246.487C198.882 246.187 198.882 245.887 198.962 245.587C199.014 245.367 199.114 245.175 199.264 245.012C199.384 244.828 199.543 244.682 199.739 244.577C199.983 244.434 200.245 244.358 200.523 244.346L200.599 244.344ZM83.6582 242.241C83.9508 242.161 84.2417 242.155 84.5323 242.223L84.6049 242.241C84.8371 242.296 85.038 242.402 85.2111 242.558C85.4033 242.685 85.5577 242.852 85.6695 243.059C85.8303 243.336 85.9106 243.636 85.9125 243.957C85.9106 244.279 85.8303 244.579 85.6695 244.855C85.5111 245.124 85.2977 245.335 85.0296 245.494L84.7972 245.606C84.6028 245.728 84.3958 245.794 84.1716 245.804C84.0218 245.845 83.8716 245.845 83.7239 245.804C83.5716 245.804 83.4301 245.766 83.2993 245.69C83.1556 245.65 83.0329 245.578 82.9273 245.472C82.7435 245.354 82.6 245.198 82.4944 245.001L82.323 244.597L82.2641 244.149L82.323 243.704L82.4162 243.484C82.5005 243.181 82.6528 242.92 82.8744 242.698C83.0963 242.478 83.3582 242.325 83.6582 242.241ZM188.43 238.676C188.738 238.578 189.045 238.566 189.351 238.633C189.558 238.633 189.753 238.686 189.932 238.792C190.129 238.847 190.298 238.944 190.441 239.088C190.693 239.25 190.889 239.466 191.035 239.734L191.267 240.286C191.407 240.643 191.356 241.17 191.272 241.529C191.202 241.825 191.067 242.083 190.866 242.302C190.765 242.473 190.63 242.609 190.458 242.71C190.263 242.888 190.037 243.015 189.781 243.09L189.711 243.11L189.685 243.116C189.681 243.118 189.677 243.118 189.672 243.118C189.67 243.12 189.666 243.12 189.664 243.12C189.563 243.146 189.459 243.16 189.351 243.165C189.045 243.232 188.738 243.22 188.43 243.122C188.249 243.046 188.065 242.968 187.881 242.89C187.725 242.772 187.57 242.651 187.414 242.53C187.294 242.374 187.173 242.218 187.053 242.064C186.884 241.799 186.793 241.512 186.78 241.205C186.725 241.001 186.725 240.798 186.78 240.592C186.78 240.383 186.833 240.191 186.936 240.011C187.03 239.724 187.188 239.477 187.414 239.267C187.57 239.147 187.725 239.026 187.881 238.908C188.065 238.83 188.249 238.752 188.43 238.676ZM53.6838 231.109C54.0026 231.023 54.3218 231.023 54.6408 231.109L55.0695 231.289C55.2807 231.403 55.4478 231.557 55.5746 231.754C55.7352 231.927 55.8427 232.132 55.8976 232.367C56.0225 232.688 56.0077 233.197 55.9084 233.525C55.7964 233.897 55.6232 234.193 55.3549 234.472C54.9091 234.933 54.2244 235.066 53.6183 234.926C53.4512 234.888 53.2927 234.814 53.149 234.723C52.6908 234.44 52.3823 233.946 52.3845 233.398C52.3845 233.339 52.3887 233.28 52.3971 233.221C52.3676 233.1 52.3568 232.975 52.3612 232.844L52.4246 232.367L52.4286 232.354C52.5133 232.052 52.6654 231.79 52.8871 231.568C53.092 231.365 53.331 231.218 53.6042 231.13L53.6732 231.109H53.6838ZM213.104 183.651C212.527 178.917 210.357 173.824 203.739 176.604L203.247 176.788C201.609 177.409 199.701 178.223 198.704 179.656C198.018 180.643 198.25 182.556 198.155 183.708C197.723 187.453 197.955 191.193 198.405 194.922C198.985 203.663 197.148 212.72 193.49 220.664C197.151 226.59 202.05 232.116 208.733 234.586C209.015 227.849 210.334 221.236 211.737 214.662L211.792 214.375C212.354 211.411 212.635 208.369 214.581 205.903C218.539 201.604 223.984 204.037 226.589 197.13C226.042 196.854 226.344 195.907 227.004 196.089C229.288 196.494 229.66 192.257 228.096 191.236C226.466 190.242 228.107 188.408 227.413 187.085C227.027 186.514 226.192 186.495 225.814 185.838C224.811 183.418 229.829 181.867 223.928 179.139C222.72 178.71 221.37 178.976 220.152 178.971C218.36 179.139 216.936 180.402 215.297 180.799C217.081 185.421 212.579 189.872 208.515 186.18C206.304 188.271 203.831 193.037 209.206 190.816C211.837 189.059 214.102 186.788 217.156 185.707L217.221 185.687C218.355 185.315 223.316 182.904 223.07 184.991C221.212 186.785 218.147 186.764 215.994 188.22C213.011 189.6 211.103 192.945 207.531 192.899C206.707 197.901 212.381 194.858 214.494 193.478L215.08 193.16C218.06 191.55 221.086 190.057 224.561 190.038C225.52 190.031 225.516 191.511 224.561 191.523C220.032 191.552 216.345 194.384 212.551 196.49C212.177 199.41 216.451 198.131 218.073 197.701C219.774 197.462 222.505 195.622 223.993 196.594C224.575 198.09 222.013 197.978 221.122 198.432C225.193 200.389 221.626 201.621 220.534 198.614L220.215 198.723C217.488 199.64 210.877 201.526 211.663 196.906C210.666 197.348 209.449 197.612 208.346 197.367C205.597 201.436 201.211 199.861 207.586 197.088C206.149 196.42 205.669 193.839 207.049 192.878C202.031 192.572 205.757 187.305 207.834 185.549C207.638 185.351 207.448 185.149 207.271 184.944C206.073 185.515 204.814 185.861 203.468 185.984C202.179 186.1 201.892 183.906 203.164 183.727C204.527 183.534 205.782 183.171 206.982 182.486C208.8 181.7 209.421 185.076 211.241 185.196C212.234 185.392 212.905 184.521 213.104 183.651ZM170.855 227.208C171.294 227.208 171.685 227.392 172.004 227.683C172.323 227.975 172.46 228.413 172.479 228.831C172.488 229.055 172.441 229.264 172.34 229.459C172.274 229.659 172.163 229.833 172.004 229.981C171.708 230.274 171.271 230.456 170.855 230.456C170.416 230.456 170.025 230.272 169.705 229.981C169.387 229.687 169.249 229.251 169.23 228.831C169.222 228.609 169.268 228.4 169.37 228.205C169.428 228.025 169.525 227.864 169.659 227.728L169.705 227.683C170.001 227.387 170.439 227.208 170.855 227.208ZM184.17 217.184L184.241 217.185C184.613 217.188 184.957 217.28 185.278 217.466C185.417 217.574 185.557 217.68 185.694 217.788C185.95 218.046 186.125 218.348 186.223 218.697C186.322 219.06 186.322 219.426 186.223 219.789C186.189 219.999 186.111 220.202 185.988 220.377C185.806 220.679 185.566 220.922 185.261 221.102C184.946 221.286 184.606 221.376 184.241 221.379C183.875 221.376 183.535 221.286 183.22 221.102C182.916 220.922 182.675 220.679 182.496 220.377C182.371 220.202 182.293 219.999 182.259 219.789C182.16 219.426 182.16 219.06 182.259 218.697C182.349 218.373 182.507 218.089 182.734 217.844L182.787 217.788C182.973 217.587 183.193 217.446 183.448 217.363C183.673 217.245 183.914 217.185 184.17 217.184ZM82.5511 217.297C82.7077 217.255 82.8619 217.255 83.0182 217.297C83.2506 217.308 83.468 217.378 83.6689 217.505C83.7873 217.597 83.9056 217.689 84.0239 217.779L84.127 217.903C84.3475 218.172 84.3531 218.218 84.5223 218.627C84.5922 218.855 84.6028 219.083 84.552 219.312C84.552 219.466 84.5119 219.61 84.4356 219.743C84.3936 219.889 84.3218 220.016 84.214 220.121C84.1378 220.25 84.0366 220.353 83.9075 220.43C83.7429 220.58 83.5485 220.683 83.3246 220.736L82.8701 220.797C82.8112 220.789 82.7499 220.781 82.6908 220.774C82.6195 220.772 82.5502 220.764 82.4824 220.751L82.4138 220.736L82.3513 220.719C82.2686 220.695 82.188 220.663 82.1098 220.622C81.9619 220.58 81.833 220.506 81.723 220.396C81.533 220.273 81.3809 220.108 81.2711 219.903L81.2415 219.836C81.2013 219.764 81.1675 219.69 81.142 219.61C81.0704 219.483 81.0344 219.348 81.0323 219.202C80.9903 219.008 80.9931 218.815 81.0434 218.623L81.0619 218.559L81.2246 218.172C81.3091 218.041 81.3978 217.908 81.5117 217.8C81.5803 217.739 81.7481 217.609 81.8425 217.543L81.9004 217.505C82.1013 217.378 82.319 217.308 82.5511 217.297ZM57.0809 214.275C57.3851 213.077 58.957 212.699 59.8126 213.554C60.668 214.411 60.2901 215.983 59.0924 216.287L58.9548 216.321C57.7971 216.615 56.7534 215.569 57.0471 214.411L57.0809 214.275ZM202.089 204.5C202.08 204.382 202.232 204.34 202.308 204.409C203.327 205.323 203.975 206.417 205.211 207.125C206.454 207.835 207.734 207.778 209.029 208.237C209.468 208.393 209.47 208.981 209.029 209.135C206.578 209.991 202.275 207.089 202.089 204.5ZM86.9372 204.314C87.2099 204.23 87.4845 204.217 87.7571 204.278C87.943 204.278 88.116 204.325 88.2745 204.418C88.4498 204.466 88.6 204.555 88.7287 204.682C88.8831 204.773 89.0057 204.898 89.0984 205.052C89.2803 205.251 89.4029 205.483 89.466 205.749L89.5379 206.297L89.466 206.844C89.3963 207.007 89.3266 207.172 89.259 207.334L89.0702 207.59C88.9172 207.794 88.8927 207.797 88.5217 208.072C88.2853 208.222 88.0296 208.305 87.7571 208.315C87.5752 208.366 87.3935 208.366 87.2099 208.315C87.0261 208.315 86.8526 208.269 86.6923 208.176C86.5188 208.127 86.3669 208.038 86.2379 207.911C86.0141 207.766 85.8388 207.573 85.7097 207.334C85.64 207.172 85.5705 207.007 85.5029 206.844L85.4287 206.297L85.5029 205.749L85.5069 205.732C85.6041 205.39 85.7775 205.092 86.0266 204.84L86.4367 204.523C86.597 204.42 86.7639 204.367 86.9372 204.314ZM185.559 204.724C186.144 204.563 186.787 204.733 187.215 205.162C187.644 205.591 187.813 206.231 187.653 206.817C187.494 207.387 187.036 207.85 186.463 208.004C186.292 208.051 186.119 208.076 185.944 208.068C185.65 208.066 185.375 207.992 185.12 207.844L184.79 207.588C184.629 207.44 184.518 207.265 184.452 207.062C184.348 206.867 184.302 206.658 184.31 206.432L184.308 206.392C184.302 206.312 184.312 206.231 184.338 206.153C184.338 206.07 184.351 205.99 184.372 205.912C184.526 205.341 184.991 204.881 185.559 204.724ZM59.3985 199.001C59.5865 198.995 59.7619 199.033 59.9246 199.119C60.0957 199.174 60.2415 199.267 60.364 199.402C60.4992 199.525 60.5922 199.673 60.6471 199.842C60.7337 200.005 60.7717 200.18 60.7654 200.368C60.7654 200.616 60.702 200.846 60.5795 201.057C60.5077 201.151 60.4358 201.243 60.364 201.334C60.195 201.505 59.9943 201.622 59.7619 201.687L59.6267 201.734C59.4281 201.805 59.2337 201.81 59.0267 201.782C58.8091 201.753 58.6082 201.693 58.4309 201.558C58.2574 201.457 58.1203 201.319 58.0189 201.146L57.9027 200.871C57.8774 200.779 57.8668 200.639 57.8605 200.542C57.8605 200.527 57.8605 200.514 57.8584 200.499C57.8584 200.417 57.8837 200.216 57.9046 200.134C57.9513 199.96 58.0462 199.796 58.1541 199.656C58.2471 199.51 58.3739 199.396 58.5302 199.312L58.5441 199.301L58.5598 199.29C58.6082 199.257 58.6591 199.223 58.7098 199.187C58.921 199.064 59.1513 199.001 59.3985 199.001ZM168.495 197.5C168.833 197.5 169.148 197.587 169.439 197.756C169.45 197.76 169.46 197.764 169.469 197.769C169.748 197.934 169.97 198.156 170.135 198.434C170.304 198.724 170.388 199.037 170.388 199.371C170.388 199.707 170.304 200.017 170.135 200.307C169.97 200.586 169.748 200.808 169.469 200.973C169.46 200.979 169.45 200.983 169.439 200.988C169.148 201.157 168.833 201.241 168.495 201.243C168.159 201.241 167.844 201.157 167.553 200.988C166.982 200.654 166.625 200.03 166.625 199.371C166.625 198.711 166.982 198.088 167.553 197.756C167.844 197.587 168.159 197.5 168.495 197.5ZM80.7594 195.056L80.8169 195.055C81.0408 195.046 81.2498 195.093 81.442 195.197C81.6427 195.262 81.8181 195.374 81.9662 195.533L82.2746 195.79L82.3642 195.863C82.3789 195.875 82.3934 195.888 82.4075 195.901C82.6148 196.11 82.7563 196.355 82.8366 196.638C82.862 196.801 82.8829 196.961 82.9 197.124C82.9463 197.547 82.6972 197.98 82.4225 198.28C82.2746 198.439 82.0991 198.551 81.8965 198.618C81.7021 198.72 81.4908 198.766 81.2667 198.758C80.8082 198.718 80.3732 198.62 80.0437 198.265C80.0054 198.223 79.9695 198.179 79.9317 198.134L79.6676 197.83C79.4669 197.627 79.3273 197.388 79.2514 197.113C79.2301 196.968 79.2113 196.824 79.1922 196.68C79.173 196.247 79.3843 195.841 79.6676 195.533C79.9292 195.247 80.3728 195.072 80.7594 195.056ZM70.0951 190.606C72.2921 190.606 72.2879 194.015 70.0951 194.015C67.8998 194.015 67.9041 190.606 70.0951 190.606ZM180.563 185.826L180.632 185.827C180.996 185.83 181.336 185.92 181.651 186.104L182.06 186.419C182.31 186.673 182.483 186.969 182.58 187.311C182.603 187.491 182.627 187.67 182.652 187.848C182.663 188.127 182.603 188.387 182.477 188.628C182.396 188.877 182.257 189.095 182.06 189.279C181.877 189.475 181.661 189.615 181.41 189.695C181.169 189.822 180.909 189.881 180.632 189.871C180.267 189.868 179.927 189.778 179.612 189.594C179.475 189.488 179.339 189.382 179.202 189.279C178.972 189.045 178.807 188.775 178.708 188.465L178.684 188.387L178.611 187.848C178.6 187.571 178.659 187.311 178.786 187.07C178.866 186.819 179.006 186.603 179.202 186.419C179.386 186.222 179.604 186.083 179.853 186.003C180.073 185.887 180.31 185.827 180.563 185.826ZM170.667 179.445C170.863 179.438 171.045 179.478 171.216 179.567C171.391 179.624 171.544 179.724 171.672 179.861C171.945 180.079 172.112 180.514 172.112 180.867C172.112 181.22 171.945 181.655 171.672 181.873C171.495 182.048 171.286 182.171 171.045 182.239L170.667 182.29C170.299 182.306 169.925 182.114 169.663 181.873C169.61 181.825 169.56 181.776 169.507 181.729C169.268 181.509 169.165 181.182 169.15 180.867C169.143 180.7 169.18 180.544 169.255 180.398C169.304 180.246 169.389 180.117 169.507 180.005C169.56 179.958 169.61 179.91 169.663 179.861C169.949 179.597 170.282 179.464 170.667 179.445ZM233.367 168.076C234.755 166.385 233.947 165.18 231.86 165.599C228.267 166.085 224.885 168.357 221.72 169.987C218.265 171.812 214.705 173.317 211.181 175.032C212.635 175.925 213.717 177.323 214.543 178.918C216.192 177.666 218.299 177.067 220.357 176.989C224.09 173.412 230.272 172.593 233.367 168.076ZM69.3558 173.692C69.7322 173.694 70.0849 173.782 70.4153 173.959L70.4858 173.998L70.9379 174.349C71.1577 174.552 71.3119 174.793 71.4027 175.07C71.5422 175.336 71.6055 175.626 71.595 175.934C71.6055 176.243 71.5422 176.53 71.4027 176.796C71.3119 177.075 71.1577 177.314 70.9379 177.517C70.8133 177.68 70.6527 177.807 70.4605 177.9C70.2807 177.974 70.1034 178.05 69.9239 178.126C69.7232 178.189 69.4908 178.198 69.2732 178.208C68.8781 178.206 68.5107 178.107 68.168 177.908L67.7246 177.566C67.5112 177.367 67.3589 177.132 67.2701 176.86C67.1444 176.62 67.0807 176.363 67.0807 176.09L67.0823 176.014C67.0823 175.998 67.0823 175.979 67.0846 175.959C67.1098 175.761 67.1374 175.562 67.1645 175.364C67.2344 175.072 67.3675 174.816 67.5661 174.601C67.6168 174.499 67.6844 174.417 67.7713 174.349C68.0499 174.07 68.3793 173.88 68.7598 173.772C68.9584 173.747 69.157 173.719 69.3558 173.692ZM167.383 168.092L167.447 168.093C167.732 168.093 167.996 168.165 168.242 168.306C168.349 168.389 168.455 168.471 168.56 168.554C168.757 168.75 168.892 168.983 168.966 169.249L169.023 169.667C169.029 169.885 168.985 170.086 168.886 170.274C168.823 170.469 168.715 170.638 168.56 170.781C168.419 170.935 168.25 171.043 168.054 171.107C167.867 171.206 167.665 171.251 167.447 171.242C167.164 171.242 166.898 171.17 166.653 171.027C166.547 170.946 166.439 170.864 166.334 170.781C166.155 170.601 166.027 170.391 165.95 170.152L165.93 170.086L165.873 169.667C165.865 169.45 165.909 169.249 166.008 169.061C166.072 168.865 166.182 168.695 166.334 168.554C166.477 168.399 166.647 168.292 166.841 168.228C167.01 168.139 167.191 168.094 167.383 168.092ZM81.7043 165.803L81.778 165.804C82.1985 165.806 82.5893 165.912 82.9527 166.123C83.109 166.244 83.2656 166.364 83.4217 166.487C83.7111 166.776 83.9097 167.119 84.0219 167.514L84.1041 168.131C84.1168 168.452 84.0492 168.75 83.9034 169.027C83.8106 169.317 83.6499 169.566 83.4217 169.777C83.2128 170.004 82.9633 170.164 82.6738 170.257C82.3971 170.403 82.0992 170.471 81.778 170.458C81.3576 170.458 80.9668 170.352 80.6034 170.141C80.4473 170.02 80.2909 169.898 80.1325 169.777C79.8449 169.486 79.6464 169.143 79.5344 168.75L79.452 168.131C79.4393 167.812 79.5069 167.512 79.6527 167.235C79.7456 166.948 79.9062 166.696 80.1325 166.487C80.3437 166.259 80.5928 166.098 80.8823 166.005C81.1377 165.87 81.4112 165.804 81.7043 165.803ZM159.932 159.992C160.125 159.941 160.317 159.941 160.509 159.992C160.796 160.005 161.065 160.091 161.314 160.25L161.751 160.588C161.758 160.594 161.764 160.601 161.77 160.609C162.035 160.875 162.218 161.19 162.32 161.552L162.396 162.12C162.406 162.414 162.345 162.689 162.212 162.943C162.133 163.186 162.002 163.399 161.821 163.582L161.751 163.65C161.555 163.862 161.324 164.012 161.056 164.098C160.887 164.198 160.703 164.247 160.509 164.247C160.222 164.312 159.932 164.299 159.645 164.208C159.474 164.134 159.3 164.062 159.127 163.991L159.072 163.959C158.42 163.602 158.016 162.854 158.016 162.12C158.016 161.387 158.42 160.636 159.072 160.279C159.092 160.271 159.108 160.26 159.127 160.25C159.377 160.091 159.645 160.005 159.932 159.992Z" fill="black"/>
<path fill-rule="evenodd" clip-rule="evenodd" d="M126.923 49.9395C130.727 49.6709 134.6 50.3123 138.222 51.4597C144 53.2892 149.306 56.5178 153.665 60.7209C158.157 65.0525 161.48 70.3931 163.5 76.2917C165.937 83.4053 166.301 91.0008 166.987 98.4266C167.333 102.178 167.904 105.873 168.498 109.589L168.592 110.175C169.171 113.795 169.497 117.457 168.697 121.071C167.365 127.078 163.374 132.177 158.636 135.945C148.904 143.685 133.753 148.404 122.421 141.281C120.668 140.179 122.329 137.361 124.041 138.51C125.245 139.318 126.521 140.027 127.89 140.516C133.607 142.56 139.886 141.832 145.537 139.931C151.105 138.057 156.448 134.891 160.557 130.667C164.873 126.229 167.264 120.748 166.919 114.512C166.713 110.801 165.868 107.159 165.399 103.479C164.983 100.219 164.734 96.9416 164.447 93.6687L164.342 92.4915C163.733 85.8232 162.859 78.9721 159.826 72.9192C157.275 67.8269 153.539 63.2966 149.048 59.7979C144.345 56.135 138.729 53.5732 132.836 52.6177C125.906 51.4942 119.272 53.5373 113.491 57.3408C108.364 60.7139 103.956 65.2216 100.576 70.3363C98.9373 72.8163 97.541 75.4647 96.3353 78.1808C95.1991 80.7398 94.4157 83.4218 93.502 86.0595C94.2539 86.0371 95.0182 86.066 95.7944 86.1518C99.7756 86.5931 103.485 88.6572 105.846 91.9118C108.732 95.8887 107.952 100.771 109.079 105.293C109.166 105.644 109.018 105.988 108.717 106.182C107.008 107.287 104.721 107.324 103.067 106.08C101.632 105 100.958 103.048 101.539 101.342C101.615 101.12 101.938 101.159 101.947 101.397C102.057 104.3 104.749 106.536 107.388 105.154C106.256 101.254 106.852 96.8986 104.536 93.3758C100.438 87.141 91.958 86.8833 86.0018 90.3981C82.8671 92.2475 80.3859 95.0285 78.5383 98.1391L78.0061 99.0421C77.2979 100.249 76.5479 101.613 76.4009 102.942C76.3162 103.709 76.5991 104.429 77.4784 104.043C78.1897 103.731 78.7405 103.002 79.163 102.375C79.8837 101.306 81.5396 102.23 80.9444 103.368L80.9242 103.405C80.0579 104.94 79.5245 106.632 79.4266 108.395L79.4017 108.883C79.3854 109.239 79.3736 109.745 79.4489 109.763C79.5391 109.785 80.1659 109.061 80.2703 108.961C80.7731 108.478 81.2909 108.083 81.9909 107.955C82.911 107.786 83.8393 108.925 83.0406 109.671L83.0073 109.701C82.2944 110.321 82.3261 111.557 83.1135 112.137C84.2248 112.955 85.5929 111.62 85.7542 110.52L85.7597 110.48C85.9023 109.292 87.5516 109.25 87.6412 110.48C87.8358 113.149 84.659 115.386 82.2418 114.04C81.2861 113.508 80.6785 112.533 80.4881 111.489C80.183 111.65 79.8539 111.762 79.5059 111.792C78.3731 111.893 77.5678 111.096 77.3846 110.027C77.1712 108.781 77.2978 107.447 77.6259 106.153C77.0106 106.301 76.3635 106.244 75.713 105.869C73.7451 104.733 74.3102 102.206 75.0532 100.5C78.2254 93.2181 84.7975 86.6107 92.9398 86.0861C92.9844 84.8013 93.1585 83.5867 93.4432 82.3002C96.2282 69.7166 105.25 58.0644 116.996 52.6184C120.134 51.163 123.463 50.184 126.923 49.9395ZM96.1216 100.206L96.2332 100.181C97.5021 99.9075 100.842 99.5862 100.439 101.722C100.42 101.823 100.274 101.811 100.248 101.722C99.8538 100.379 97.1758 101.453 96.3939 101.777C95.316 102.222 94.2527 102.88 93.3726 103.644C91.4456 105.317 90.1539 107.674 89.9574 110.235C89.7626 112.775 90.4993 115.519 92.331 117.357C93.2289 118.257 94.375 118.869 95.6625 118.914C96.8192 118.954 98.0971 118.053 99.1645 118.581C99.3749 118.685 99.5416 118.97 99.5226 119.205C99.4866 119.65 99.2876 119.996 98.9914 120.265C100.778 123.523 102.241 126.971 104.52 129.933C105.664 131.419 106.96 132.795 108.428 133.967C109.125 134.524 109.884 135.013 110.666 135.442C111.582 135.946 112.375 136.262 113.03 137.116C113.587 137.844 113.029 139.251 112.11 139.377C109.945 139.672 107.84 137.921 106.251 136.609C104.663 135.298 103.29 133.681 102.156 131.966C99.9776 128.671 98.4876 124.785 97.8918 120.853C97.2001 121.073 96.4214 121.14 95.8355 121.141C94.2768 121.145 92.7884 120.584 91.5635 119.636C87.0791 116.166 86.5807 109.042 89.7453 104.55C91.2597 102.4 93.5608 100.812 96.1216 100.206ZM96.1497 108.469C97.1895 108.377 98.2285 108.542 99.2059 108.896L99.6088 109.042C100.46 109.354 101.366 109.72 101.98 110.358C102.92 111.334 101.984 113.024 100.647 112.65C99.1676 112.237 97.9655 110.991 96.4869 110.468C95.1652 110.001 93.6681 110.067 92.4952 110.871C92.3403 110.978 92.1366 110.768 92.2378 110.614C93.1351 109.247 94.5516 108.609 96.1497 108.469Z" fill="black"/>
<path fill-rule="evenodd" clip-rule="evenodd" d="M138.835 118.841C140.016 116.896 142.536 121.66 142.803 122.479C143.04 123.205 143.197 123.948 143.276 124.7C144.193 124.906 145.144 124.906 146.083 124.726C147.478 124.458 148.331 123.708 149.544 123.063C150.382 122.618 151.437 123.14 151.873 123.879C152.385 124.748 152.059 125.65 151.385 126.298C150.107 127.527 147.592 127.809 145.924 127.483C144.968 127.296 144.093 126.937 143.319 126.416C143.314 126.514 143.31 126.611 143.303 126.708L143.288 126.876C143.16 128.239 142.785 129.953 141.727 130.839C139.992 132.294 137.85 129.497 139.536 128.044L139.589 128C140.637 127.153 140.865 124.88 140.809 123.628C140.772 122.811 140.623 121.983 140.365 121.205L140.312 121.05C140.235 120.83 139.388 118.744 139.082 119.01L139.068 119.025C138.942 119.176 138.738 119 138.835 118.841ZM148.271 107.866C149.866 108.836 152.297 111.098 150.581 113.503C148.561 115.624 145.652 113.193 144.219 112.093C142.89 111.241 141.396 113.433 142.629 114.428C152.987 122.099 157.19 108.12 149.078 106.726C148.184 106.572 147.853 107.566 148.271 107.866ZM131.235 98.8993C132.794 98.6227 134.391 99.0105 135.682 99.9231L135.779 99.9935C137.022 100.903 138.413 102.5 137.7 104.067C137.414 104.697 136.556 104.795 136.012 104.51C135.107 104.035 134.942 102.866 134.134 102.219C133.472 101.689 132.579 101.367 131.726 101.445C129.72 101.627 128.487 103.605 127.864 105.31C127.785 105.528 127.465 105.613 127.339 105.379C125.871 102.633 128.47 99.3901 131.235 98.8993ZM156.209 97.8631C159.196 97.6169 162.692 100.714 161.905 103.868C161.528 105.381 159.284 105.338 158.885 103.868C158.666 103.059 158.688 102.344 158.106 101.672C157.625 101.117 156.943 100.795 156.209 100.845C155.4 100.899 154.654 101.304 154.088 101.872C153.576 102.385 153.27 103.136 152.739 103.59C152.609 103.702 152.434 103.709 152.305 103.59C151.392 102.748 151.94 100.996 152.519 100.117C153.347 98.8596 154.696 97.988 156.209 97.8631ZM125.548 93.3059C127.464 91.6092 130.945 89.9706 133.529 90.8056C135.014 91.2856 135.662 93.68 134.003 94.439C132.083 95.3178 129.869 94.9602 127.915 95.8711C127.094 96.2538 126.322 96.7321 125.751 97.4336C125.3 97.9865 124.842 98.7139 124.191 99.0327C124.02 99.1166 123.788 99.1187 123.651 98.9631C122.224 97.348 124.301 94.4094 125.548 93.3059ZM152.916 90.7214C154.1 90.389 155.414 90.3957 156.617 90.6045C157.819 90.8134 159.04 91.3119 160.022 92.0392L160.136 92.1243C161.208 92.9323 162.487 94.1079 162.418 95.5391C162.361 96.7343 161.104 97.5427 160.019 96.9163C159.134 96.4055 158.718 95.3821 157.969 94.7007C157.351 94.1383 156.625 93.6949 155.851 93.3842C154.991 93.0391 154.129 92.8774 153.206 92.862C152.495 92.8501 151.78 93.0835 151.082 93.1581C151.139 93.276 150.588 93.2211 150.272 93.1164C150.038 93.0167 150.037 92.7206 150.118 92.5285C150.52 91.5768 151.984 90.9826 152.916 90.7214Z" fill="black"/>
<path fill-rule="evenodd" clip-rule="evenodd" d="M157 133.092C156.262 132.851 155.538 132.57 154.81 132.299C151.09 130.43 146.596 130.091 142.695 131.665C140.78 132.438 138.994 133.826 137.073 134.736C136.617 134.906 136.156 135.061 135.691 135.191C135.406 135.092 135.121 134.986 134.838 134.88C132.8 134.112 130.883 133.164 129.021 132.121C128.823 131.841 128.617 131.57 128.395 131.309C129.742 131.117 131.061 130.799 132.254 130.471C135.917 129.468 139.369 127.832 143.02 126.783C146.419 125.805 150.108 125.27 153.522 126.485C155.143 127.062 156.569 128.073 158.145 128.753C158.96 129.104 159.938 129.449 160.891 129.499C160.276 130.972 159.499 132.348 158.436 133.494C157.95 133.39 157.469 133.244 157 133.092ZM164.927 121.554C164.6 121.825 163.254 122.7 162.818 123.222C162.705 123.179 162.593 123.135 162.481 123.09C162.289 122.854 162.006 122.75 161.718 122.757C159.705 121.82 157.912 120.496 156.313 118.837C155.176 117.659 154.012 116.427 152.493 115.745C150.704 114.937 148.944 115.309 147.064 115.432C145.063 115.565 143.088 114.996 141.089 115.269C139.627 115.47 138.258 116.089 137.075 116.962C134.66 118.744 132.995 121.246 130.955 123.404C128.639 125.851 125.791 127.415 122.624 128.214C122.586 128.189 122.546 128.164 122.506 128.14C120.171 126.027 118.063 123.641 116.198 121.098C114.376 118.615 109.574 107.436 108.414 106.456C107.933 106.048 107.405 105.872 106.9 105.887C105.985 105.908 105.14 106.545 104.762 107.546C104.119 109.25 104.44 111.452 104.491 113.234C104.555 115.415 104.698 117.594 104.926 119.764C105.152 121.91 105.452 124.049 105.826 126.173C106.014 127.246 106.224 128.318 106.454 129.385C106.526 129.721 106.617 130.021 106.726 130.3C106.838 130.827 106.959 131.351 107.088 131.871C107.929 135.275 109.255 138.685 111.788 141.197C114.425 143.816 118.008 145.556 121.336 147.111C124.505 148.593 127.826 149.909 131.233 150.941C134.193 152.283 137.362 153.344 140.544 153.902C144.047 154.517 147.729 154.555 151.112 153.337C152.774 152.739 154.346 151.905 155.772 150.865C157.794 149.814 159.613 148.371 161.102 146.46C163.77 143.036 165.043 138.881 165.601 134.596C165.743 133.499 166.279 129.296 166.322 128.642C166.458 126.528 166.594 124.415 166.73 122.302C166.794 121.304 165.571 121.019 164.927 121.554Z" fill="black"/>
</svg>
