<svg width="240" height="324" viewBox="0 0 240 324" fill="none" xmlns="http://www.w3.org/2000/svg">
<path fill-rule="evenodd" clip-rule="evenodd" d="M144.307 136.236C144.331 136.218 144.354 136.212 144.379 136.225C144.859 136.455 144.958 136.916 145.123 137.396C145.364 138.098 145.643 138.782 145.9 139.478C146.414 140.873 146.904 142.265 147.476 143.637C148.064 145.049 148.672 146.435 149.369 147.799C149.705 148.458 150.067 149.105 150.434 149.747C150.688 150.193 150.924 150.806 151.258 151.225C151.283 151.091 151.319 150.965 151.362 150.846C151.317 150.867 151.275 150.891 151.235 150.916C151.15 150.969 151.049 150.863 151.1 150.781C151.281 150.481 151.518 150.278 151.788 150.14C152.536 149.31 169.021 153.274 173.528 157.726C181.69 165.789 187.199 175.758 190.822 186.364C192.823 192.216 194.665 198.125 196.569 204.009C198.58 210.232 200.68 216.426 202.695 222.644C203.137 224.012 202.174 225.254 200.957 225.704C198.69 226.541 196.406 227.33 194.103 228.059C195.221 232.351 196.003 236.735 196.564 241.131C197.724 250.196 197.87 259.444 199.698 268.414C200.117 270.473 200.648 272.502 201.209 274.526L201.339 274.993C201.673 276.181 201.977 277.38 202.387 278.542C202.74 279.542 203.196 280.55 203.443 281.581C203.733 282.794 203.306 284.12 202.172 284.743C201.261 285.244 199.957 285.037 199.408 284.096C199.296 283.904 199.229 283.695 199.201 283.483C199.119 283.308 199.043 283.128 198.975 282.944C198.949 282.874 198.925 282.8 198.903 282.727L198.838 282.507C198.677 281.983 198.529 281.454 198.381 280.926C198.141 280.078 197.898 279.234 197.63 278.393L197.494 277.974C196.831 275.953 196.237 273.916 195.719 271.853C193.867 264.456 193.474 256.798 192.966 249.218L192.939 248.826C192.479 242.033 192.204 235.255 192.768 228.477L192.691 228.502L192.614 228.526C191.881 228.75 191.145 228.97 190.408 229.183C190.385 229.192 190.364 229.2 190.341 229.207C189.869 229.353 189.384 229.492 188.89 229.621L188.593 229.697L188.384 229.754L188.164 229.817C187.465 230.019 186.753 230.252 186.029 230.229C184.829 230.422 183.607 230.538 182.407 230.542C182.777 236.589 183.204 242.632 183.713 248.668C184.224 254.736 184.903 260.78 185.606 266.825C185.953 269.811 186.324 272.791 186.734 275.767C186.941 277.276 187.157 278.777 187.431 280.273C187.714 281.803 188.215 283.439 187.913 284.986C187.907 284.984 187.9 284.982 187.894 284.982C187.793 285.43 187.522 285.832 187.051 286.108C186.187 286.614 184.979 286.318 184.482 285.434C184.44 285.36 184.4 285.284 184.362 285.206C183.853 285.424 183.295 285.508 182.61 285.514L173.327 285.607C169.108 285.65 164.889 285.694 160.668 285.755C147.415 285.951 134.163 286.176 120.91 286.337L115.941 286.394C108.487 286.472 101.029 286.626 93.5757 286.624C89.8471 286.624 86.1222 286.611 82.3933 286.521C80.587 286.476 78.7849 286.406 76.9807 286.332L76.6621 286.318C75.2218 286.247 73.6925 286.113 72.2842 286.436C71.8955 287.193 70.9025 287.349 70.3828 286.575C69.1951 284.805 68.871 282.336 68.6516 280.173L68.5743 279.394C68.3314 276.97 68.118 274.545 67.9595 272.117C67.3976 263.513 67.1926 254.9 67.4504 246.279C67.5814 241.885 67.9849 237.517 68.4624 233.148C68.6124 231.785 68.7687 230.424 68.9377 229.065L68.9406 228.582C68.9409 228.427 68.9398 228.28 68.9356 228.141L68.8935 226.83C68.8585 225.737 68.826 224.643 68.8124 223.55L68.8067 222.894L68.8004 221.672C67.7567 221.573 66.6433 221.226 65.7433 221.059C64.2837 220.786 62.8279 220.493 61.3764 220.182C58.4694 219.556 55.594 218.817 52.7377 217.999L52.1302 217.824C49.4946 217.064 46.8227 216.254 44.3293 215.118C43.3532 214.672 42.3793 214.169 41.5236 213.51C41.4729 214.203 41.3948 214.894 41.3483 215.581C41.2555 216.94 41.1455 218.295 41.0546 219.654L40.9677 220.947C40.825 223.101 40.6965 225.253 40.6384 227.414C40.3807 236.841 40.3363 246.307 40.8349 255.727C41.0821 260.442 41.4349 265.157 41.944 269.853C42.1933 272.163 42.4574 274.48 42.7828 276.781C43.1187 279.146 43.725 281.497 43.9109 283.879C44.0884 286.176 40.5771 286.51 40.0004 284.409C39.3098 281.89 39.1338 279.173 38.7698 276.583L38.7286 276.295C38.325 273.544 38.0018 270.781 37.7229 268.015C36.7601 258.472 36.5102 248.881 37.0152 239.303C37.2552 234.715 37.8244 230.146 38.5133 225.607L38.5933 225.083C38.907 223.05 39.2005 221.018 39.5557 218.994L39.6919 218.235C40.0109 216.496 40.256 214.604 40.7736 212.865L40.6198 212.723C40.3321 212.455 40.0204 212.145 39.7933 211.81C39.0117 211.705 38.3462 211.142 38.4286 210.122C38.6969 206.767 39.9222 203.356 41.0145 200.19C42.1109 197.007 43.3828 193.884 44.8236 190.84C49.8919 180.144 57.1912 170.432 66.1173 162.652C70.8518 158.525 76.0405 154.864 81.7743 152.258C84.6011 150.971 87.525 149.976 90.5884 149.439C92.1053 149.172 93.637 148.965 95.1793 148.921C96.4305 148.182 97.916 148.493 99.1275 149.303L99.1933 149.348H99.1957L99.506 149.409C99.5821 149.424 99.58 149.544 99.506 149.561C99.5018 149.561 99.4955 149.563 99.4912 149.566C99.6898 149.722 99.8779 149.889 100.053 150.069C100.632 150.66 100.63 151.375 100.332 151.952C102.105 153.596 103.224 155.707 104.397 157.836C105.654 160.114 107.3 162.084 109.302 163.745C116.644 169.836 127.442 172.531 136.641 169.654C143.405 167.541 149.183 161.82 150.781 154.932C150.402 155.067 149.993 155.088 149.604 154.949C147.778 154.298 147.082 152.302 146.384 150.633L146.35 150.553C145.668 148.936 145.095 147.294 144.643 145.598C144.187 143.887 143.919 142.08 143.807 140.313C143.764 139.614 143.783 138.915 143.819 138.217L143.851 137.639C143.875 137.116 143.868 136.581 144.307 136.236ZM114.605 131.525C114.631 131.461 114.73 131.427 114.768 131.504C116.384 134.839 115.324 139.408 113.796 142.589C112.197 145.916 109.789 148.439 106.934 150.622C106.541 150.922 106.138 151.218 105.728 151.508C103.347 153.19 101.226 148.655 103.974 147.788C106.839 146.332 109.167 143.736 110.785 141.01C111.66 139.537 112.436 138.003 113.029 136.392C113.621 134.786 113.976 133.114 114.605 131.525Z" fill="black"/>
<path fill-rule="evenodd" clip-rule="evenodd" d="M126.195 40.0597C126.582 38.8508 127.676 38.1237 128.929 38.2738C130.038 38.4048 131.225 39.506 131.09 40.7212C131.065 40.9558 131.031 41.1756 130.991 41.3827L130.996 41.3846L131.001 41.3849L130.974 41.4652C130.891 41.8519 130.777 42.1986 130.608 42.5261C130.393 43.1539 130.186 43.7837 129.981 44.4156C130.277 44.4029 130.579 44.4198 130.885 44.4769C131.202 43.6653 131.521 42.8559 131.838 42.0422C132.178 41.1735 132.417 40.0576 133.089 39.3855C133.948 38.5274 135.44 38.3499 136.488 38.9628C137.595 39.6095 137.99 40.7593 137.749 41.9914C137.627 42.6199 137.207 43.0573 136.688 43.3322L136.632 43.361L136.232 44.3078C136.355 44.255 136.482 44.2064 136.619 44.1662C136.834 44.1028 137.046 44.0627 137.253 44.0458C137.823 43.0123 138.451 42.0083 139.099 41.0234C139.845 39.8906 141.303 39.4087 142.526 40.1252C143.62 40.7656 144.208 42.4479 143.424 43.5533C142.828 44.3924 142.264 45.2483 141.708 46.1128C141.803 46.1297 141.898 46.1508 141.989 46.1783C142.032 46.1212 142.076 46.0642 142.122 46.0071C142.729 45.2547 143.434 44.6904 144.159 44.0648C144.837 43.4772 145.15 42.5536 146.041 42.1077C147.163 41.5476 148.515 41.816 149.183 42.9319C150.615 45.3223 148.211 47.0681 146.673 48.5158C148.01 47.681 149.403 46.918 150.831 46.2586C151.634 45.8887 152.449 45.5316 153.277 45.223C154.505 44.7665 155.498 44.9125 156.506 45.7619C156.956 46.1424 157.179 46.9732 156.972 47.5267C156.571 48.5877 155.937 49.2323 154.826 49.5388C154.044 49.7543 153.244 49.9002 152.462 50.1263C151.152 50.5025 149.88 50.9611 148.646 51.5339C148.735 51.5889 148.82 51.648 148.898 51.7157C149.819 51.4177 150.757 51.1598 151.699 50.94C153.262 50.5734 154.852 50.3258 156.45 50.1709L156.981 50.1214C158.896 49.9376 161.199 49.5982 162.375 51.4324C162.761 52.0369 162.803 53.0345 162.375 53.6326C161.555 54.7824 160.739 55.0106 159.383 55.0317C160.718 55.1733 162.051 55.3488 163.378 55.5538C164.293 55.6933 165.207 55.8514 166.118 56.0268L166.572 56.116C167.682 56.3379 168.92 56.4668 169.872 57.1093C171.951 58.5127 170.975 61.2454 168.672 61.5371C167.559 61.6766 166.323 61.2053 165.231 60.9855C164.17 60.772 163.106 60.5839 162.037 60.4191C161.483 60.3324 160.929 60.2563 160.374 60.1866C161.504 60.3493 162.626 60.5797 163.718 60.9052L164.022 60.9968C166.133 61.6406 168.983 62.6659 169.642 64.9229C170.041 66.2946 168.949 67.4908 167.627 67.5712C166.397 67.6451 165.372 66.9117 164.329 66.3707C163.568 65.9776 162.795 65.6838 161.975 65.4323C161.128 65.1723 160.264 64.9568 159.394 64.7813C160.129 65.1867 160.846 65.6323 161.533 66.1308L161.849 66.3644C163.677 67.7268 166.464 69.8361 165.82 72.3899C165.617 73.1952 164.72 73.9645 163.858 73.8821C161.614 73.6728 160.376 71.2825 158.684 70.0017C158.242 69.6678 157.758 69.338 157.251 69.0168C159.816 72.0771 161.857 75.6151 163.41 79.2694C166.822 87.3087 167.869 94.7538 167.895 103.398L167.895 103.666C167.899 108.434 167.791 113.288 167.327 118.035C166.896 122.421 166.106 126.749 164.117 130.721C160.786 137.38 154.294 142.567 147.134 144.541C139.167 146.739 130.262 145.02 123.736 139.948C122.071 138.655 124.279 135.846 125.979 137.04C132.772 141.806 141.556 143.315 149.352 140.09C155.536 137.532 160.515 132.031 162.626 125.697C163.969 121.667 164.36 117.37 164.84 113.171L164.872 112.891C165.379 108.499 165.672 104.078 165.668 99.6562C165.662 91.4453 164.483 84.6863 160.872 77.2383C159.174 73.7299 156.97 70.4859 154.338 67.6388C153.539 67.8015 152.69 67.5733 151.883 67.4866C151.471 67.4422 151.059 67.4 150.647 67.3619C151.068 67.6341 151.481 67.9172 151.886 68.2068L152.418 68.5907C154.084 69.7836 156.196 71.1425 155.768 73.4488C155.652 74.0723 155.031 74.6451 154.429 74.7867C152.246 75.3066 150.746 73.1846 149.272 71.925C147.989 70.8302 146.648 69.8495 145.281 68.8667C144.97 68.6448 144.658 68.4229 144.343 68.2031C144.639 68.548 144.926 68.8984 145.207 69.2519L145.622 69.778C146.877 71.3495 148.687 73.3921 147.569 75.4292C147.252 76.004 146.576 76.3866 145.921 76.3739C143.669 76.3274 142.773 73.7701 141.717 72.1553C140.808 70.771 139.822 69.467 138.801 68.1629C138.52 67.8058 138.237 67.4486 137.95 67.0914C133.22 67.3366 128.506 67.9622 123.875 68.9618C120.694 69.6487 117.565 70.5387 114.459 71.5128L114.201 71.595C112.52 72.1363 110.788 72.8292 109.577 74.0173C109.404 74.8359 109.536 75.6993 109.702 76.5168L109.831 77.1425C110.362 79.7592 110.724 82.3274 110.453 85.0139C110.172 87.7847 109.338 90.2765 108.32 92.8508C107.838 94.0639 107.339 93.8441 107.168 95.146C107.037 96.1377 107.118 97.1614 107.208 98.1614L107.283 99.0091C107.47 101.23 107.565 103.651 106.11 105.483C105.884 105.764 105.4 105.652 105.239 105.371C105.176 105.259 105.108 105.151 105.034 105.048C104.333 104.031 103.258 103.452 102.028 103.228C101.872 103.201 101.933 102.991 102.064 102.974C103.103 102.852 104.088 103.112 104.925 103.649C104.528 102.276 101.456 102.944 100.447 103.21L100.412 103.22C99.1527 103.558 97.9612 104.107 96.9112 104.885C94.7985 106.449 93.5773 108.888 93.6386 111.515C93.6999 114.098 95.033 116.484 97.3231 117.72C98.4281 118.316 99.6851 118.604 100.936 118.591C102.241 118.578 103.403 118.006 104.711 118.086C105.467 118.132 106.046 118.944 105.609 119.652C105.317 120.126 104.937 120.497 104.498 120.783C105.569 123.254 106.936 125.61 108.512 127.785C109.384 128.992 110.373 130.105 111.461 131.122C112.31 131.917 114.151 132.836 114.047 134.161C114.011 134.639 113.764 134.931 113.329 135.108C111.976 135.662 110.33 133.756 109.425 132.837L109.353 132.764C108.225 131.64 107.196 130.397 106.3 129.078C104.711 126.737 103.725 124.097 103.317 121.324C101.147 121.977 98.2738 121.364 96.5034 120.563C90.9386 118.048 89.1196 110.551 92.502 105.559C93.1569 104.593 93.9766 103.767 94.9104 103.099C94.7055 102.987 94.5133 102.843 94.3421 102.662C93.3955 101.656 92.7262 100.343 92.062 99.133L91.9823 98.9884C91.3926 97.9232 90.8363 96.8413 90.3149 95.7427L90.121 95.3299C88.9569 92.8254 87.9365 91.7306 87.1062 89.0972C86.3076 86.5568 85.6781 83.9677 85.2703 81.3343L85.162 80.6372C84.9261 79.1092 84.7031 77.4752 84.8752 75.9237C83.69 76.3105 82.4985 76.5493 81.3259 75.9681C80.5527 75.5856 80.1259 74.4696 80.39 73.6686C80.5823 73.0789 80.9034 72.6161 81.3112 72.2526C81.0682 72.13 80.84 71.9736 80.6393 71.8003L80.464 71.6483C79.7541 71.031 79.7034 69.858 80.1344 69.0844C80.1766 69.0105 80.2189 68.9344 80.259 68.8604C80.6689 68.127 81.5161 67.6472 82.3527 67.6599C82.4879 67.662 82.6231 67.662 82.7604 67.6599C82.3696 67.5733 81.9872 67.4401 81.6238 67.2161C79.9844 66.2079 80.1914 63.4752 82.1752 62.9933C83.0076 62.7925 83.9266 62.875 84.8435 63.0905C84.8097 63.0715 84.7759 63.0525 84.7421 63.0314C84.0492 62.6065 83.4682 61.7759 83.5337 60.9242C83.6055 59.9816 83.9097 59.3095 84.7421 58.8149C85.4647 58.388 86.4872 58.3478 87.2055 58.8149C87.8288 59.2228 88.4393 59.673 89.0266 60.157C88.4372 59.4321 87.9259 58.6437 87.7189 57.8068C87.4633 56.7648 87.89 55.6299 88.8281 55.0804C89.5759 54.6429 90.3661 54.6915 91.0717 55.0296C91.0337 54.4822 91.1668 53.9243 91.5302 53.4297C92.2738 52.4154 93.6259 51.8319 94.8027 52.5716C94.9569 52.6688 95.164 52.8358 95.3647 53.0408C94.9738 51.796 95.3266 50.4898 96.6597 49.9276C97.4731 49.5831 98.5738 49.7564 99.2795 50.3503C98.8316 47.9261 102.408 46.1445 103.798 48.649C104.114 49.2163 104.426 49.8137 104.705 50.4249L104.808 50.6547L104.819 50.6505L104.748 50.4824L104.675 50.3144C104.289 49.4162 103.796 48.482 103.661 47.5077C103.463 46.0663 104.105 44.6988 105.672 44.4875C106.482 44.3776 107.382 44.7453 107.925 45.388C107.631 43.1517 110.128 41.5265 111.926 43.1961C112.777 43.9866 113.232 45.1427 113.772 46.1571C114.079 46.7299 114.391 47.3006 114.698 47.8754C114.776 47.7824 114.86 47.6894 114.949 47.5986C114.495 46.2375 114.142 44.8425 113.844 43.4392C113.561 42.1161 114.222 40.7424 115.587 40.3685C116.827 40.0259 118.38 40.7912 118.657 42.1121C118.851 43.0418 119.082 43.9614 119.335 44.8764C119.508 44.8341 119.679 44.8045 119.848 44.7834C119.863 44.6115 119.879 44.4386 119.896 44.2667L119.963 43.6554C120.111 42.2585 120.26 40.6638 120.989 39.4764C122.234 37.4474 125.424 38.2886 125.458 40.6874C125.477 41.928 124.972 43.1581 124.796 44.386C124.72 44.9207 124.676 45.4618 124.651 46.0029C124.991 44.2064 125.458 42.4332 125.998 40.6874C126.062 40.4782 126.129 40.2689 126.195 40.0597ZM98.671 109.336C101.47 108.903 104.029 110.465 105.687 112.652C105.989 113.052 105.791 113.616 105.518 113.952C105.322 114.199 105.058 114.229 104.76 114.267C104.417 114.311 103.984 114.034 103.834 113.736C102.767 111.606 100.864 110.26 98.671 109.431C98.6308 109.416 98.6182 109.345 98.671 109.336ZM102.552 71.1653L102.636 71.0743C103.203 70.4865 102.308 69.5887 101.74 70.1777C101.142 70.7978 100.745 71.5511 100.363 72.3145C99.999 73.0424 101.092 73.6853 101.458 72.9547L101.624 72.6226C101.885 72.1062 102.164 71.5961 102.552 71.1653ZM94.6901 69.959C95.4929 69.8237 95.1526 68.6015 94.3531 68.7363C93.3175 68.9109 92.2859 69.1094 91.25 69.2842C90.4474 69.4194 90.7878 70.6417 91.5872 70.507C92.6228 70.3322 93.6545 70.1338 94.6901 69.959ZM142.514 61.6147C141.739 61.3558 141.406 62.5801 142.177 62.8375C143.243 63.1932 144.3 63.5578 145.312 64.0518C146.042 64.4085 146.685 63.3152 145.951 62.9567C144.841 62.4146 143.684 62.0052 142.514 61.6147ZM94.5076 59.9712C93.7502 59.6681 93.4212 60.8942 94.1706 61.1941L96.9086 62.2895C97.666 62.5926 97.995 61.3668 97.2456 61.0669L94.5076 59.9712ZM152.075 56.9938L151.975 56.9307C151.288 56.4856 150.652 57.583 151.335 58.0257C151.736 58.2855 152.223 58.4617 152.59 58.7712L152.667 58.8396C153.26 59.3997 154.158 58.5049 153.564 57.9429C153.129 57.5321 152.578 57.3034 152.075 56.9938Z" fill="black"/>
<path fill-rule="evenodd" clip-rule="evenodd" d="M154.378 120.877L154.553 120.868C155.742 120.8 156.897 120.626 157.96 121.293C159.373 122.179 159.379 124.194 157.96 125.079C156.844 125.775 155.631 125.547 154.378 125.514C153.347 125.487 152.315 125.469 151.284 125.458C149.222 125.436 147.161 125.431 145.099 125.441C143.239 125.451 141.377 125.429 139.517 125.384L138.721 125.363C136.813 125.311 134.816 125.377 132.937 125.005L132.856 124.991L132.858 124.987C132.533 124.878 132.361 124.359 132.75 124.178C134.614 123.313 136.746 122.951 138.748 122.54C140.775 122.124 142.837 121.823 144.893 121.588C146.947 121.353 149.015 121.188 151.078 121.056C152.177 120.985 153.277 120.927 154.378 120.877ZM148.139 94.3054L148.275 94.2143C149.768 93.2279 151.914 92.2782 153.634 93.027C153.732 93.0692 153.814 93.1244 153.885 93.1878C154.308 93.1961 154.733 93.2311 155.159 93.2954C158.527 93.8033 161.64 96.0146 163.161 99.0591C164.891 102.52 164.069 106.166 161.009 108.52C159.505 109.676 157.738 110.509 155.835 110.696C155.213 110.758 154.554 110.77 153.957 110.581C154.24 111.183 154.455 111.812 154.566 112.476C154.944 114.748 154.043 116.621 151.928 117.602C150.069 118.465 147.496 118.795 145.658 117.707C144.104 116.787 144.613 113.742 146.658 114.015C148.038 114.199 149.282 114.66 150.647 114.071C151.758 113.591 151.084 111.973 150.749 111.121C150.188 109.698 149.363 108.358 148.694 106.977L148.571 106.717C148.15 105.816 147.628 104.864 147.228 103.893C147.008 105.034 146.613 106.153 146.148 107.189C145.043 109.647 142.906 111.151 140.36 111.856C137.742 112.58 134.669 112.748 131.97 112.659C129.225 112.568 126.335 111.849 124.326 109.858C120.647 106.212 121.704 99.832 125.576 96.7842C128.08 94.8125 131.609 93.4613 134.85 93.8113C136.473 93.4459 138.289 93.6534 139.913 94.0216C142.111 94.5197 144.209 95.586 145.646 97.2842C145.752 97.0171 145.875 96.7611 146.016 96.5168C145.952 96.4876 145.913 96.3938 145.976 96.3376C146.09 96.2346 146.208 96.1359 146.325 96.037C146.793 95.3806 147.398 94.8089 148.139 94.3054ZM121.515 111.396C121.383 111.208 121.642 110.964 121.827 111.084C123.347 112.064 124.938 112.956 126.681 113.475C128.383 113.983 130.153 113.93 131.863 114.364C132.506 114.527 132.404 115.363 131.863 115.567C129.981 116.281 127.857 115.682 126.07 114.925C124.256 114.157 122.659 113.015 121.515 111.396ZM131.716 95.7333L131.761 95.6786L131.651 95.7154C129.521 96.4327 127.767 97.6154 126.341 99.3419C123.911 102.284 123.882 106.962 127.515 108.951C129.474 110.023 131.786 110.073 133.961 109.96L134.401 109.936C136.31 109.831 138.258 109.674 140.101 109.158C142.11 108.594 143.506 107.38 144.275 105.422L144.339 105.257C145.106 103.242 145.505 101.001 144.081 99.1768C141.669 96.0875 136.096 95.4704 132.652 96.9471C131.827 97.3007 131.165 96.4377 131.716 95.7333ZM153.821 94.9044C153.764 94.9602 153.702 95.0111 153.634 95.0523C152.943 95.4672 152.165 95.4715 151.399 95.6617C150.693 95.8369 150.002 96.0508 149.352 96.3815C148.331 96.9004 147.278 97.5211 146.313 98.1981C146.52 98.5286 146.705 98.8776 146.864 99.247C147.302 100.268 147.45 101.343 147.404 102.423C148.076 103.005 148.638 103.729 149.233 104.383L149.758 104.961C150.371 105.636 150.979 106.319 151.548 107.029C151.887 107.45 152.231 107.882 152.561 108.326C152.604 108.193 152.665 108.063 152.751 107.94C153.073 107.476 153.569 107.242 154.137 107.376C154.634 107.494 154.966 107.719 155.485 107.722C156.121 107.726 156.734 107.589 157.335 107.393C158.518 107.007 159.677 106.314 160.542 105.415C162.494 103.388 161.464 100.53 159.941 98.5982C158.399 96.6413 156.184 95.3706 153.821 94.9044ZM136.435 99.7752C137.062 99.5943 137.994 99.8796 138.27 100.522L138.468 100.99C138.462 100.976 138.457 100.965 138.451 100.952C138.521 101.118 138.588 101.278 138.642 101.448L138.827 101.592C138.985 101.767 139.132 101.953 139.266 102.148C139.584 102.691 139.676 103.387 139.513 103.996C139.245 105.001 138.321 105.647 137.297 105.653C134.299 105.671 133.564 100.605 136.435 99.7752ZM154.522 98.8649C155.907 98.8029 156.83 100.027 156.94 101.284C157.003 102 156.859 102.782 156.653 103.467C156.348 104.488 155.375 105.127 154.326 104.987C153.491 104.874 152.754 104.239 152.546 103.423C152.272 102.751 152.117 102.01 152.104 101.284C152.078 99.9286 153.232 98.9226 154.522 98.8649ZM136.241 87.5514C137.646 87.3248 138.988 88.0079 139.193 89.5184C139.399 91.042 138.277 92.0489 136.87 92.1985C134.218 92.4805 131.51 92.5475 128.845 92.6639C127.733 92.7123 126.62 92.7329 125.508 92.7427L124.952 92.7468C123.917 92.7529 122.568 92.9573 121.632 92.4477C121.572 92.4148 121.574 92.3397 121.613 92.2924C122.27 91.483 123.628 91.1381 124.599 90.7816L124.682 90.751C125.911 90.2871 127.154 89.8528 128.414 89.4768L129.054 89.2868C131.407 88.5935 133.829 87.9412 136.241 87.5514ZM145.16 86.8103C146.028 86.4838 146.885 86.6873 147.475 87.2396C149.45 87.7896 151.482 88.211 153.47 88.6926L154.011 88.8255C156.503 89.4476 159.241 89.9269 161.558 91.0671C161.804 91.1882 161.649 91.5023 161.433 91.5287C158.851 91.8424 156.07 91.3438 153.504 91.0437C150.875 90.7362 148.232 90.2289 145.595 90.0302C143.703 89.8876 143.428 87.4619 145.16 86.8103Z" fill="black"/>
</svg>
