<svg width="240" height="324" viewBox="0 0 240 324" fill="none" xmlns="http://www.w3.org/2000/svg">
<path fill-rule="evenodd" clip-rule="evenodd" d="M112.327 135.035C112.898 132.468 116.982 133.569 116.282 136.126C115.199 140.08 112.951 143.817 109.778 146.44C107.327 148.465 103.987 150.271 100.674 150.605C100.985 150.908 101.282 151.231 101.595 151.54C102.301 152.241 103.051 152.892 103.824 153.518C105.413 154.803 107.065 155.959 108.869 156.927C116.075 160.795 124.216 161.687 132.265 160.786C136.085 160.359 139.961 159.634 143.553 158.237C145.218 157.591 146.836 156.741 148.264 155.667L148.638 155.387C149.389 154.819 150.391 154.019 150.861 153.144C149.432 153.465 147.626 151.943 146.635 151.058C145.552 150.086 144.639 148.832 143.965 147.547C142.644 145.026 141.945 141.773 143.052 139.07C143.126 138.89 143.363 138.92 143.384 139.115C143.711 142.266 144.561 145.22 146.821 147.554C147.825 148.587 149.027 149.454 150.339 150.056L150.523 150.141C151.082 150.399 151.671 150.703 151.906 151.256C151.997 151.246 152.088 151.254 152.175 151.278C152.253 151.299 152.325 151.322 152.394 151.347C152.238 151.041 152.156 150.68 152.17 150.252C152.226 148.598 154.497 148.547 154.811 150.02C154.754 149.826 154.678 150.014 154.822 150.073C154.82 150.056 154.816 150.037 154.811 150.02L154.816 150.036L154.824 150.073L154.822 150.073C154.828 150.1 154.832 150.127 154.835 150.155L154.838 150.192L154.836 150.161C154.835 150.139 154.832 150.118 154.829 150.1L154.824 150.073C154.845 150.083 154.875 150.09 154.908 150.09L154.922 150.095C154.975 150.118 155.162 150.205 155.217 150.227C155.595 150.367 156.018 150.411 156.404 150.531C157.243 150.789 157.983 151.216 158.494 151.943C158.862 152.465 159.066 153.064 159.151 153.685C162.863 155.471 166.376 157.791 169.319 160.664C175.888 167.072 180.468 175.092 184.226 183.394C186.139 187.621 187.844 191.937 189.511 196.265L189.774 196.948C191.561 201.6 193.142 206.303 193.53 211.303C193.566 211.751 193.418 212.172 193.163 212.521C193.254 212.897 193.3 213.273 193.287 213.641C193.285 213.698 193.281 213.755 193.277 213.812C193.877 213.801 194.464 214.053 195.022 214.759C195.248 214.687 195.493 214.678 195.734 214.757C197.202 215.226 197.439 216.839 197.716 218.189C198.001 219.584 198.125 221.013 198.127 222.435C198.127 222.944 197.836 223.587 197.342 223.805C196.412 224.214 195.411 224.483 194.449 224.855C193.727 225.134 193.002 225.398 192.271 225.646C192.677 226.353 192.808 227.338 193.027 228.085C193.372 229.249 193.649 230.418 193.881 231.61C195.457 239.715 196.549 247.907 198.024 256.029C198.761 260.098 199.619 264.139 200.494 268.18C200.925 270.166 201.383 272.149 201.875 274.123C202.138 275.175 202.41 276.228 202.691 277.274C202.773 277.58 202.855 277.885 202.939 278.189L203.086 278.722C203.407 278.899 203.682 279.168 203.872 279.535C204.567 280.88 204.168 282.395 202.835 283.152C201.385 283.976 199.655 283.198 198.856 281.86C198.294 280.916 198.111 279.665 197.834 278.614C197.521 277.435 197.223 276.249 196.936 275.063C194.984 267.008 193.677 258.812 192.692 250.585L192.622 249.997C192.121 245.762 191.637 241.516 191.325 237.261C191.17 235.171 191.048 233.081 190.972 230.986C190.934 229.908 190.995 228.824 191.056 227.748C191.084 227.277 191.124 226.804 191.139 226.332L191.144 226.265C191.147 226.218 191.153 226.155 191.157 226.089L191.162 226.009C189.704 226.466 188.225 226.846 186.732 227.167C183.554 227.854 180.303 228.237 177.06 228.042C177.512 233.415 178.101 238.774 178.925 244.098C179.72 249.226 180.637 254.342 181.672 259.428C182.19 261.983 182.749 264.532 183.339 267.072C183.656 268.429 184.017 269.777 184.302 271.141C184.471 271.952 184.524 272.631 184.184 273.39C184.558 274.41 184.891 275.435 185.218 276.401L185.316 276.689C185.895 278.38 186.994 280.108 185.846 281.77C185.253 282.627 184.285 283.118 183.311 283.148C183.294 283.158 183.275 283.171 183.256 283.181C182.732 283.462 182.128 283.517 181.554 283.397C180.681 283.568 179.806 283.733 178.93 283.883C176.764 284.257 174.588 284.566 172.408 284.826C168.256 285.32 164.077 285.591 159.901 285.741C144.609 286.292 129.301 285.324 114.003 285.603C106.209 285.745 98.4155 286.096 90.6345 286.561C86.7514 286.793 82.8662 287.043 78.981 287.235L77.7784 287.294C74.3039 287.46 70.8269 287.588 67.355 287.334C67.2873 287.33 67.2345 287.303 67.1986 287.265C66.0007 287.129 64.7967 286.026 64.9169 284.752C65.4345 279.324 65.9521 273.897 66.4719 268.467C67.3951 258.794 68.3268 249.12 69.269 239.449L69.4052 238.052C69.7218 234.794 70.0241 231.527 70.1775 228.255C69.4043 228.201 68.6333 228.131 67.862 228.046C59.5052 227.131 51.4939 224.602 43.8018 221.281L43.4902 221.146C42.7972 220.843 42.0388 220.541 41.2613 220.218C41.2742 221.695 41.2254 223.175 41.219 224.637C41.2085 227.066 41.2275 229.494 41.2338 231.92C41.2486 236.921 41.4388 241.924 41.6881 246.916C42.1254 255.733 42.6388 264.538 43.4162 273.334C43.6127 275.547 43.8791 277.756 44.0669 279.969C44.1791 281.273 43.9106 282.359 42.7171 283.044C42.1296 283.382 41.6754 283.241 41.0923 282.968C39.6683 282.3 39.6282 280.721 39.493 279.348C39.3897 278.312 39.2944 277.276 39.2014 276.239C39.0031 274.026 38.8317 271.813 38.6923 269.596C38.1411 260.787 37.9803 251.986 38.3606 243.166C38.5371 239.041 38.792 234.907 39.1303 230.789L39.2099 229.839C39.4888 226.548 39.6683 223.095 40.2451 219.783C37.919 218.751 35.6141 217.439 34.5451 215.257C33.1594 212.425 34.6824 210.003 36.8521 208.336C36.831 208.055 36.8521 207.776 36.9113 207.522C37.5345 204.823 38.5782 202.156 39.5859 199.582C40.6021 196.995 41.724 194.448 42.9578 191.956C47.9099 181.974 54.6747 172.852 62.7388 165.167C66.7444 161.351 71.1282 157.823 75.8078 154.864C78.1275 153.4 80.5064 152.047 82.9697 150.842L83.3339 150.665C85.0488 149.832 86.9722 148.947 88.8791 148.484C89.0775 148.336 89.2782 148.196 89.481 148.063C90.231 147.564 91.2493 147.925 91.693 148.638C91.9087 148.471 92.1578 148.323 92.443 148.19L92.7249 148.061C94.436 147.29 96.4905 146.569 98.3479 147.076C99.5014 147.391 100.41 148.241 100.818 149.323C101.754 148.828 102.673 148.319 103.57 147.695C105.013 146.698 106.321 145.459 107.496 144.159C109.851 141.545 111.563 138.483 112.327 135.035ZM194.065 217.462C193.904 217.509 193.735 217.525 193.56 217.504C193.877 217.541 193.242 217.729 193.068 217.818L193.055 217.826C192.738 218.007 192.419 218.183 192.096 218.352C191.342 218.749 190.571 219.106 189.787 219.442C188.242 220.1 186.647 220.605 185.01 220.975C183.408 221.336 181.729 221.547 180.087 221.581C178.989 221.602 177.685 221.552 176.549 221.228C176.68 223.221 176.825 225.212 176.988 227.201L179.233 226.686C181.478 226.171 183.72 225.643 185.935 225.001C187.598 224.519 189.237 223.955 190.858 223.346C191.707 223.027 192.55 222.689 193.382 222.325C193.797 222.144 194.185 221.929 194.569 221.711L194.897 221.524C194.821 220.634 194.682 219.762 194.479 218.882C194.373 218.417 194.194 217.94 194.065 217.462ZM40.3507 208.076C40.0655 209.002 39.6282 209.866 38.631 210.075C38.2782 210.149 37.9826 210.109 37.7374 209.989L37.6785 210.107C36.8586 211.791 36.6179 213.568 38.5043 214.865C39.3559 215.45 40.2831 215.957 41.2423 216.411C42.9575 217.228 44.7841 217.884 46.5063 218.552L46.8493 218.686C49.9296 219.895 53.0585 220.996 56.2359 221.917C59.4601 222.849 62.7409 223.597 66.0622 224.073C67.4627 224.272 68.874 224.411 70.2876 224.502C70.3106 222.6 70.3 220.696 70.2937 218.794C69.7909 218.73 69.2923 218.663 68.8108 218.605C67.3444 218.434 65.8824 218.225 64.4289 217.965C61.393 217.422 58.3888 216.672 55.4585 215.712C50.0289 213.93 44.9775 211.383 40.3507 208.076ZM99.8796 149.811C98.6458 148.505 96.2859 148.976 94.7967 149.61C94.3465 149.802 93.8923 149.997 93.4613 150.232L93.3778 150.278C92.8759 150.567 92.8784 150.739 93.1235 151.316C93.4423 152.074 93.8859 152.808 94.3085 153.511C96.1171 156.532 98.4979 159.161 101.217 161.382C110.847 169.244 124.68 172.018 136.723 169.384C142.502 168.122 148.077 165.573 152.331 161.393L152.719 161.008C154.434 159.29 156.789 156.805 156.624 154.26C156.546 153.036 155.547 152.966 154.526 152.73C154.108 152.632 153.708 152.495 153.362 152.301C153.641 153.503 152.156 155.291 151.389 156.042C149.781 157.616 147.846 158.846 145.799 159.766C141.903 161.518 137.665 162.346 133.446 162.87C128.658 163.466 123.768 163.413 119.016 162.532C114.882 161.765 110.806 160.313 107.249 158.051C105.618 157.016 104.01 155.834 102.649 154.459L102.36 154.166C101.378 153.171 100.235 151.967 99.6472 150.661C99.4233 150.663 99.2014 150.656 98.9796 150.641C98.8233 150.633 98.739 150.411 98.8951 150.329C99.0705 150.236 99.2458 150.143 99.4212 150.052C99.3918 149.954 99.3662 149.86 99.3451 149.762C99.3282 149.68 99.4148 149.604 99.4909 149.65C99.5965 149.714 99.6979 149.781 99.7972 149.853C99.8247 149.841 99.8521 149.826 99.8796 149.811Z" fill="black"/>
<path fill-rule="evenodd" clip-rule="evenodd" d="M100.826 17.5712C102.126 17.376 103.107 18.1824 103.574 19.3191L103.598 19.3803C103.748 19.7671 103.915 20.1433 104.095 20.5132C107.346 18.9175 111.985 19.3275 114.043 22.559C115.511 24.867 114.616 27.6061 114.062 30.0535L113.699 31.6661C114.401 32.1133 114.931 32.9141 114.906 33.7433L114.903 33.8071L114.755 36.0559C115.224 35.5803 115.653 35.0625 116.035 34.5109C116.3 34.0269 116.585 33.5514 116.891 33.0906C118.693 30.379 122.739 32.7356 121.252 35.6395C120.966 36.1996 120.645 36.7301 120.301 37.2415C119.912 37.9961 119.593 38.7717 119.348 39.5685C120.052 39.875 120.592 40.5555 120.65 41.5827C120.783 43.9815 119.523 45.983 117.521 47.2405C116.931 47.6104 116.323 47.6822 115.771 47.5449C115.674 47.6759 115.577 47.8069 115.484 47.9401C116.283 48.5889 117.003 49.3287 117.622 50.1487C119.485 49.8697 121.359 49.7387 123.233 49.7345C125.523 48.6122 128.266 48.6354 130.727 49.056C132.312 49.3266 133.833 49.8528 135.392 50.2311C137.035 50.6285 138.704 50.6433 140.367 50.9138C142.463 51.2541 144.301 52.222 145.457 53.767C146.726 53.8051 148.062 54.325 149.169 55.0309C151.746 56.6752 154.309 58.3428 156.88 59.9976C157.867 60.633 158.236 61.6472 158.054 62.7785L158.042 62.8509L157.955 63.3201L158.159 63.6088C158.945 64.7204 159.802 65.8847 160.311 67.1117C161.253 68.4707 162.104 69.8952 162.859 71.364C163.875 73.3381 164.714 75.4304 165.282 77.5778C165.423 78.1209 165.565 78.6683 165.658 79.2221C165.791 80.0041 165.586 80.6106 165.474 81.3609C165.335 82.312 165.284 83.2758 165.136 84.2289C165.037 84.8609 164.5 85.1716 163.938 85.1885C164.15 86.7968 164.302 88.4158 164.447 90.022C164.652 92.3173 164.792 94.6189 164.912 96.9205C165.533 97.823 166.803 98.5374 167.72 98.7846C168.99 99.1249 170.321 98.7551 171.521 98.3218C172.275 98.0491 172.894 98.9981 172.526 99.6321C171.371 101.623 168.899 101.615 167.027 100.733C166.235 100.361 165.54 99.8224 165.024 99.1207C165.056 99.7886 165.09 100.456 165.123 101.126L165.155 101.733C165.536 108.82 166.357 116.151 165.026 123.168C162.721 135.323 152.667 144.578 140.384 145.296C133.939 145.674 128.571 143.769 125.902 142.707C123.233 141.644 124.271 139.478 126.124 140.097C129.315 141.164 135.179 142.753 140.426 142.067C152.794 140.45 163.281 134.266 162.204 107.632C162.051 103.855 161.581 100.076 161.479 96.2992C161.382 92.6069 161.418 88.9125 161.255 85.2223L161.201 83.9632C161.137 82.4921 161.069 81.0141 160.959 79.5412C160.826 78.9705 160.716 78.3914 160.554 77.8314C160.112 76.3075 159.535 74.826 158.819 73.412C158.661 73.5325 158.483 73.6192 158.291 73.653C156.831 73.915 155.462 73.8411 154.095 73.2324C153.457 72.9513 152.895 72.5772 152.371 72.1143C152.122 71.8967 151.955 71.6853 151.824 71.4655C151.163 71.4761 150.502 71.2774 150.088 70.8019C149.615 70.2598 149.537 69.7 149.722 69.1818L149.741 69.1301L149.695 69.1132C149.137 70.5567 148.026 71.8269 146.807 72.685C144.88 74.0461 142.469 74.4392 140.158 74.4751C137.606 74.5132 134.914 74.1201 132.396 73.7185C131.731 73.6128 131.069 73.4923 130.421 73.3296C130.395 73.355 130.37 73.3846 130.342 73.4099C128.181 75.479 125.141 76.0116 122.399 74.8302C120.814 74.1475 119.485 73.0485 118.311 71.7889C118.294 72.4483 118.26 73.1077 118.203 73.7608L118.179 74.0201C118.062 75.2364 117.837 76.5266 116.919 77.4044C115.433 78.8268 113.278 78.2562 111.565 77.3305C111.567 77.3749 111.567 77.4213 111.567 77.4678C112.03 79.0403 112.495 80.6148 112.959 82.1894L113.059 82.5248C113.397 83.6429 113.768 84.7623 113.87 85.9324C114.064 88.1685 112.577 90.3771 110.092 89.6268C108.789 89.2347 107.745 88.1385 106.743 87.2605L106.112 86.7144C107.745 92.0552 108.878 97.5863 108.983 103.16C108.99 103.462 108.73 103.69 108.442 103.701C107.771 103.728 107.048 103.595 106.372 103.327C106.334 103.324 106.296 103.322 106.256 103.316C105.102 103.149 104.031 102.733 103.087 102.118C103.304 102.809 103.402 103.551 103.345 104.326C103.33 104.514 103.036 104.58 102.994 104.373C102.449 101.691 99.3115 99.6639 96.6073 100.177C93.7045 100.729 91.5664 103.227 91.0425 106.07C90.4805 109.124 91.5559 112.656 93.5481 115.012C94.465 116.098 95.6714 117.005 97.1038 117.233C97.7587 117.337 98.439 117.301 99.0749 117.115C99.3453 117.035 99.5988 116.923 99.8566 116.817C100.233 116.665 100.672 116.642 101.027 116.481C101.832 116.12 102.641 116.861 102.233 117.688C101.878 118.409 101.559 118.895 100.97 119.267C101.447 119.85 101.881 120.661 102.041 120.879C102.861 121.987 103.693 123.033 104.627 124.045C105.578 125.072 106.615 126.011 107.711 126.879L108.172 127.244C109.229 128.082 110.148 128.858 110.893 130.06C111.481 131.009 110.72 132.296 109.619 132.282C106.176 132.233 103.672 129.206 101.889 126.562C101.635 126.184 101.397 125.785 101.175 125.375C101.095 125.504 101.006 125.624 100.907 125.734L101.103 126.262C101.686 127.818 99.1742 128.834 98.4453 127.382C97.915 126.33 97.3002 125.328 96.6157 124.381C96.2122 124.324 95.8171 124.079 95.5974 123.762C95.0418 122.957 94.4185 122.143 93.8925 121.285C93.6009 121.008 93.3009 120.742 92.9946 120.482C92.9059 120.56 92.815 120.638 92.7284 120.721C92.3439 121.598 91.8685 122.399 91.2791 123.153L91.1527 123.314C90.0235 124.738 88.5527 126.195 86.7326 126.543C86.177 126.649 85.6425 125.958 86.1347 125.516C87.4087 124.371 88.915 123.591 90.0897 122.312C90.6684 121.682 91.1997 120.988 91.6567 120.261L91.7608 120.093C91.8368 119.968 91.915 119.844 91.9953 119.717C91.465 119.355 90.9347 118.992 90.4045 118.628C88.9447 119.876 87.0436 120.447 85.429 121.48L85.2685 121.585C83.8087 122.562 82.2707 120.402 83.4411 119.216C84.7313 117.914 85.8083 116.361 86.9513 114.914C86.4138 113.923 86.1595 112.752 86.0642 111.569C86.0266 111.234 85.9972 110.898 85.9678 110.563C85.1481 110.576 84.3242 110.295 83.627 109.811L83.3629 109.623C82.5157 109.893 81.6263 110.024 80.7749 110.001C78.7721 109.942 77.9523 107.653 79.2052 106.205C80.4833 104.726 82.7207 104.402 84.4932 105.121C84.5502 105.091 84.6094 105.06 84.6664 105.028C84.5819 104.639 84.6007 104.286 84.6968 103.976L84.669 103.788C84.2792 103.189 84.0229 102.506 83.9257 101.784C83.8488 101.213 83.8645 100.646 83.9967 100.081C84.0407 99.8936 84.1321 99.6989 84.2021 99.503C84.058 99.1391 83.9733 98.7629 83.9471 98.3846C83.9067 98.3366 83.8666 98.2873 83.8285 98.2341C82.949 96.9987 83.1267 95.5102 83.9637 94.5105C83.9676 94.4469 83.9735 94.3833 83.9821 94.3201C83.9331 94.2097 83.8881 94.0984 83.8471 93.9857C83.0293 93.1604 82.4289 92.1673 82.5409 90.9366C82.6066 90.2125 82.904 89.5607 83.3542 89.0735C83.2744 88.8372 83.2668 88.5635 83.3635 88.3351C82.645 86.4232 82.7359 84.1205 83.253 81.9823C83.139 81.6568 83.0798 81.3039 83.0925 80.9298C83.1516 79.3425 84.5249 77.8842 86.1516 77.9032C86.3475 77.9049 86.5309 77.9305 86.7071 77.9679L86.7094 77.9301C86.7717 77.4537 86.9027 77.0134 87.0939 76.6184C86.9999 76.5844 86.9128 76.5356 86.8366 76.4707C85.7942 77.027 84.6911 77.4522 83.5347 77.742C82.6843 77.955 81.8133 76.9881 82.3419 76.1896C82.5871 75.8191 82.8578 75.4864 83.1493 75.1825C82.7348 75.1848 82.314 75.2129 81.8883 75.2677C81.1235 75.367 80.2699 74.845 79.7735 74.1391C79.1566 74.7393 78.5376 75.3374 77.9185 75.9356C76.3509 77.4552 73.9826 76.3371 73.7354 74.3335C73.2685 74.2088 72.8333 73.9975 72.4509 73.6952C69.9791 74.7689 67.3192 75.3586 64.6002 75.4706C62.6481 75.5509 61.5073 73.2768 62.4199 71.6705C63.0326 70.5926 63.7932 69.6246 64.6699 68.7835C63.3094 69.1998 61.9045 69.4999 60.4699 69.6923C59.6946 69.7958 58.5981 69.1533 58.2876 68.4411C57.1002 65.702 57.2016 62.8466 58.5685 60.1815C58.6214 60.0758 58.6805 59.9744 58.7376 59.8729C58.8791 59.52 59.0333 59.1712 59.2002 58.8289C57.5185 57.0747 57.3728 54.4666 58.2791 52.2833C57.9157 51.6937 57.7763 50.9835 58.0235 50.341C58.727 48.4917 59.7411 46.784 61.0214 45.3172C60.8988 45.0805 60.7911 44.829 60.7002 44.5585C59.9798 42.371 60.8143 39.7312 62.4981 38.2074C63.5566 37.2479 64.7735 36.673 66.0728 36.3053C66.6199 35.3373 67.3235 34.4644 68.1432 33.7289C68.1749 33.6592 68.2066 33.5894 68.2425 33.5197C69.5185 31.1145 71.8425 29.8253 74.3333 29.5273C74.4305 28.5867 75.0643 27.6885 75.9854 27.3968C76.239 26.5831 76.6171 25.8054 77.1368 25.0995C77.9545 23.9878 79.3129 23.4636 80.5932 24.1928C81.2946 24.5922 81.9664 25.0509 82.596 25.5581C82.8788 25.4254 83.1994 25.3396 83.5611 25.3122L83.6523 25.3066L85.7354 25.2009C86.608 24.8141 87.4784 24.4084 88.3509 24.0131C88.8749 23.5799 89.4601 23.2185 90.0981 22.95C90.8207 22.6478 91.5601 22.4766 92.3016 22.4195C92.9038 22.223 93.5101 22.0497 94.127 21.9144C95.5763 21.5974 97.0932 21.4199 98.5974 21.4347C98.6282 21.0452 98.6435 20.651 98.6405 20.2522L98.6376 20.0524C98.6038 18.7738 99.6242 17.7529 100.826 17.5712ZM99.3664 119.875C99.1594 119.92 98.9502 119.956 98.7411 119.981C98.8045 120.137 98.8678 120.294 98.9291 120.45C99.0981 120.545 99.2692 120.636 99.4404 120.721C99.3897 120.433 99.3601 120.144 99.3664 119.875ZM88.5121 116.649L88.3717 116.907C88.3489 116.95 88.3265 116.991 88.3045 117.033C88.6023 117.009 88.9023 117.016 89.1981 117.05L89.1973 117.018C89.1592 117.005 89.1212 116.993 89.0849 116.976C88.8808 116.877 88.6911 116.768 88.5121 116.649ZM94.3784 104.844C96.2475 104.953 97.8311 105.24 99.531 106.058L99.677 106.129C101.179 106.875 103.664 108.253 103.454 110.229C103.395 110.791 102.988 111.383 102.345 111.339C100.585 111.218 99.5798 109.443 98.3883 108.336C97.1861 107.22 95.7094 106.072 94.2537 105.305C94.048 105.197 94.129 104.855 94.3529 104.844L94.3784 104.844ZM85.9023 78.8078C85.4545 78.8226 85.6045 79.258 85.8347 78.8945C85.8537 78.8649 85.877 78.8353 85.9023 78.8078ZM110.079 49.7425C105.837 49.8541 101.568 52.3596 98.3904 54.8923C95.6259 57.0956 93.2388 59.7163 91.1251 62.541C90.5813 63.9478 90.1144 65.3839 89.7199 66.8306C89.4601 67.7859 89.2974 68.7518 89.0798 69.7155L89.0122 70.011C88.8413 70.3305 88.7143 70.6744 88.6218 71.0297C89.0069 71.416 89.5066 71.6927 90.0567 71.8239C90.234 71.8662 90.3812 71.9577 90.4976 72.079C90.9404 71.3397 91.3275 70.5594 91.5527 69.7322L91.5609 69.694C92.4121 68.2993 93.3366 66.9479 94.3277 65.6428C97.0615 62.0393 100.072 58.7549 103.691 56.0221C106.435 53.9509 109.503 52.3277 112.765 51.2731C111.967 50.6287 111.06 50.1189 110.079 49.7425Z" fill="black"/>
<path fill-rule="evenodd" clip-rule="evenodd" d="M143.152 128.274C141.732 127.695 140.465 126.728 139.538 125.493C139.216 125.063 139.133 124.61 139.2 124.195C139.276 123.729 139.552 123.306 139.928 123.023C140.305 122.739 140.777 122.598 141.233 122.67C141.63 122.732 142.024 122.949 142.337 123.399L142.402 123.489C142.953 124.235 143.67 124.846 144.488 125.241C145.276 125.621 146.158 125.798 147.07 125.695C148.808 125.499 150.005 124.559 151.278 123.282C151.436 123.121 151.594 122.955 151.752 122.786C151.852 122.633 151.991 122.534 152.146 122.483C152.317 122.425 152.511 122.429 152.689 122.491C152.86 122.55 153.013 122.664 153.116 122.815C153.213 122.958 153.269 123.135 153.251 123.339C153.134 124.661 152.443 125.842 151.461 126.769C150.37 127.799 148.924 128.511 147.563 128.761C146.064 129.036 144.536 128.839 143.152 128.274ZM148.271 107.866C149.866 108.836 152.297 111.098 150.581 113.503C148.56 115.624 145.652 113.193 144.219 112.093C142.89 111.241 141.396 113.433 142.629 114.428C152.987 122.099 157.19 108.12 149.078 106.726C148.184 106.572 147.853 107.566 148.271 107.866ZM129.711 98.9429C129.887 96.7541 133.219 96.257 133.551 98.423C133.847 100.363 133.498 102.145 132.624 103.892C131.79 105.561 129.692 104.783 129.533 103.263C129.32 101.226 129.601 100.304 129.711 98.9429ZM155.076 97.9739C155.541 97.3652 156.212 96.9497 157.015 97.1845C159.526 97.9185 158.786 101.485 157.904 103.22C157.425 104.163 155.876 104.402 155.176 103.572C154.036 102.219 153.489 99.5157 154.94 98.1825C154.979 98.1136 155.023 98.044 155.076 97.9739ZM132.589 89.3654L132.986 89.2959C134.213 89.0836 135.738 88.8796 136.606 89.8665C137.067 90.3898 137.225 91.3624 136.606 91.8633C135.518 92.7446 134.314 92.4031 133.01 92.4777C131.935 92.5394 130.902 92.7174 129.867 93.0135C127.595 93.663 125.744 94.8486 123.804 96.1505C123.55 96.3213 123.29 95.9956 123.411 95.7574C124.531 93.563 126.701 91.7604 128.875 90.6616C130.036 90.0751 131.305 89.5885 132.589 89.3654ZM152.787 88.3823L153.091 88.4445C156.395 89.1353 160.687 90.5153 162.251 93.7615C162.311 94.2205 162.248 94.3189 162.197 94.3832L162.18 94.4046C162.137 94.4595 162.104 94.5351 161.905 94.5976C161.85 94.5844 161.794 94.5705 161.737 94.5557C161.02 94.3677 160.453 94.1087 159.904 93.84L159.308 93.5465C158.617 93.2076 157.92 92.881 157.181 92.6399C155.605 92.1255 153.983 91.7631 152.337 91.5696C151.98 91.5277 151.636 91.4072 151.365 91.2006C151.108 91.0046 150.911 90.7332 150.821 90.3724C150.705 89.9056 150.739 89.5521 150.989 89.1309C151.177 88.8146 151.447 88.5953 151.756 88.4694C152.071 88.3411 152.43 88.3108 152.787 88.3823Z" fill="black"/>
<path fill-rule="evenodd" clip-rule="evenodd" d="M172.803 91.775C172.629 91.7461 172.455 91.7188 172.281 91.6932C172.145 91.6161 171.985 91.5567 171.8 91.521C171.376 91.4134 170.956 91.3409 170.536 91.3018C164.508 89.9447 150.563 91.8716 149.987 97.0176C148.068 97.6586 146.407 97.0846 144.182 97.1416C142.488 90.0603 113.21 91.0598 111.802 95.3291C111.797 95.3276 111.791 95.3263 111.786 95.3246C110.433 94.9057 108.438 95.0068 106.89 94.9404C103.583 94.8711 100.273 95.1659 97.0378 95.8636C90.9797 96.8267 82.7117 97.9543 86.925 105.522C86.9259 105.524 86.9265 105.525 86.9276 105.526L86.9282 105.526C87.6543 106.27 88.8867 105.671 88.9325 104.663C87.516 101.077 90.7154 100.647 93.1771 99.6165C99.3024 97.4151 105.539 97.1099 111.874 97.7909C112.35 98.3522 113.073 98.8417 113.838 99.0979C118.073 99.8012 115.841 102.944 118.519 103.402C118.027 114.358 131.324 120.339 139.029 113.137C142.105 110.128 142.838 105.671 143.552 101.653C143.929 101.568 144.169 101.362 144.309 101.089C145.216 100.183 145.785 99.3466 147.579 99.0979C149.372 98.8493 150.753 99.3483 150.94 99.5011C150.987 99.596 151.037 99.6911 151.096 99.7862C151.178 99.9281 151.29 100.041 151.416 100.13C149.645 111.041 158.112 117.941 166.66 112.282C170.374 108.787 171.159 103.436 171.314 98.66C171.817 98.356 172.136 97.767 171.962 97.0264C171.722 96.0056 172.285 95.1217 173.182 94.6779C174.348 94.1016 174.141 91.9967 172.803 91.775ZM136.074 96.9512C135.013 96.7178 134.56 98.3542 135.625 98.5883C136.378 98.7541 137.017 99.1343 137.449 99.7784L137.494 99.8485C138.073 100.77 139.538 99.9193 138.955 98.9915C138.298 97.9474 137.279 97.2161 136.074 96.9512ZM167.149 95.9366C166.775 95.673 166.209 95.8687 165.992 96.2411C165.753 96.6512 165.909 97.1079 166.26 97.3762L166.295 97.4024C166.617 97.6289 166.93 98.035 166.969 98.4511L166.972 98.5032C167.015 99.5921 168.706 99.5976 168.664 98.5032C168.623 97.4325 168.003 96.538 167.149 95.9366Z" fill="black"/>
</svg>
