<svg width="240" height="324" viewBox="0 0 240 324" fill="none" xmlns="http://www.w3.org/2000/svg">
<path fill-rule="evenodd" clip-rule="evenodd" d="M110.677 136.23C111.038 135.514 111.997 135.607 112.63 135.932C114.527 137.32 112.542 140.01 112.017 141.704C110.666 144.989 108.321 148.2 105.083 149.735C105.351 153.001 105.655 156.259 105.768 159.535C109.907 164.672 116.887 166.547 123.083 167.989C132.814 170.681 143.797 165.165 147.081 155.543C143.343 153.418 142.133 147.855 143.248 143.974C143.345 143.701 143.768 143.581 143.918 143.885C144.942 145.991 144.805 148.56 145.969 150.641C157.138 151.711 171.553 155.927 178.87 164.963C182.113 169.484 183.398 175.363 184.995 180.603C188.402 191.404 191.118 202.425 194.46 213.237L194.854 211.191C195.934 205.556 196.915 199.843 196.185 194.112L196.172 193.838C195.934 189.277 194.507 180.803 198.043 177.724C201.241 175.279 205.874 173.315 209.887 174.441C217.028 171.262 223.192 165.909 230.798 163.824C233.139 163.342 236.506 163.912 235.953 167.089C234.42 172.645 227.998 174.802 223.608 177.667C226.422 178.43 229.853 181.853 227.654 184.838C227.635 184.891 227.618 184.931 227.601 184.963C229.384 185.753 229.634 187.74 229.196 189.444C229.152 189.894 229.034 189.507 229.298 189.915C231.31 191.813 230.42 197.104 227.39 197.282C227.588 199.789 225.979 202.224 223.94 203.591C221.743 205.064 218.565 205.128 216.746 207.144C212.475 214.678 211.002 223.573 210.536 232.201C213.352 233.255 215.878 236.407 213.32 239.082C213.269 239.088 213.219 239.094 213.168 239.098C211.685 243.057 211.112 247.277 210.328 251.411C209.121 258.466 205.977 264.943 201.962 270.82C197.319 278.599 184.833 277.366 178.543 272.346C178.568 273.663 178.785 274.972 178.363 276.245C177.741 277.618 176.223 277.025 176.073 275.672C172.748 277.543 171.965 271.368 175.661 272.348C175.377 267.884 175.212 263.413 175.078 258.942C170.893 260.297 170.713 253.351 174.994 254.74L174.988 252.82C174.957 238.097 175.12 223.324 177.062 208.717C177.241 207.624 177.546 206.567 177.723 205.481C177.742 205.369 177.918 205.4 177.918 205.508C178.219 225.958 176.883 246.452 178.277 266.91C179.437 267.264 179.9 268.596 180.759 269.372C182.667 271.134 185.264 271.991 187.805 272.29C194.918 273.288 197.989 271.115 201.157 264.929C199.728 265.885 197.798 264.198 198.668 262.686L198.696 262.64C199.6 261.039 202.154 261.999 201.831 263.792C205.016 258.69 206.682 252.937 207.913 247.1L208.08 246.403C208.678 243.924 209.455 241.085 210.892 238.842C202.128 236.608 193.556 229.8 192.184 220.46C189.959 227.453 186.945 234.29 184.072 241.091C183.184 243.456 182.815 245.999 181.543 248.193C181.247 248.7 180.497 248.569 180.33 248.034C179.186 242.918 182.652 238.052 184.452 233.446C185.921 230.844 190.139 218.958 192.755 218.929C189.816 206.044 185.896 193.254 182.163 180.529C178.554 163.347 171.198 160.034 155.615 154.624C158.426 168.952 171.259 182.822 164.43 197.851L164.264 198.241C163.566 199.898 162.986 201.568 163.473 203.386C163.946 205.151 165.024 206.683 165.886 208.271C170.705 217.236 167.388 227.707 165.525 237.044C163.171 247.993 160.846 258.953 158.413 269.886C157.934 272.066 157.623 274.313 156.898 276.427C156.525 277.517 154.659 277.414 154.78 276.142C155.01 273.673 155.703 271.266 156.21 268.841C159.239 253.147 163.338 237.637 165.944 221.873C167.621 210.204 161.021 208.411 161.267 200.871C162.164 197.015 164.539 193.574 164.403 189.465C164.93 176.886 155.771 166.508 154.641 154.275L152.644 153.562C151.646 153.205 150.65 152.845 149.656 152.476C154.886 189.066 153.298 226.455 150.683 263.226C150.149 264.923 150.657 276.775 148.418 275.723C148.305 276.385 147.953 277.037 147.189 277.033C140.244 277.097 133.298 277.207 126.353 277.29C123.013 276.982 118.422 278.257 115.581 276.329C112.3 275.393 111.923 266.506 111.046 263.338L110.704 261.034C105.13 223.391 100.142 184.971 104.149 146.955C98.5743 147.169 97.4237 153.187 97.0103 157.57C95.9765 167.242 89.7298 175.571 89.4302 185.354C89.4048 187.727 89.8527 190.027 90.8011 192.206C93.3173 197.545 97.669 203.718 94.4165 209.681C90.57 214.323 90.9029 215.544 92.3144 221.281C96.2856 240.246 102.881 258.478 109.154 276.763C107.791 283.87 99.5921 257.486 98.8208 255.497C95.1914 257.322 93.2089 251.264 97.3717 250.832C94.6979 241.879 92.2373 232.859 90.1886 223.739L90.1344 223.482C89.2294 219.269 87.4494 214.335 90.4552 210.597C98.2058 202.757 85.3348 193.992 86.9583 184.494C85.5564 185.534 83.4342 184.44 83.4661 182.693C83.4025 180.727 86.0429 179.719 87.3135 181.22C88.6198 173.513 93.1648 166.785 94.5401 159.102L94.6022 158.741C95.0683 156.025 95.1997 153.168 96.533 150.692C94.718 151.872 92.7851 152.825 90.7971 153.666C94.3517 156.636 87.4683 159.347 88.0379 154.759C68.5447 160.401 64.1387 168.268 56.9816 186.337C58.3185 185.037 60.6086 186.719 59.8083 188.376C59.1699 190.122 56.3848 189.611 56.3858 187.751L56.0596 188.529C51.7196 198.91 47.7695 209.544 45.7844 220.654C49.6785 220.104 48.687 226.329 45.1588 224.574C43.7429 234.455 43.7205 244.475 43.8936 254.436C47.1781 252.713 47.277 258.568 43.9252 256.898C44.0478 265.06 44.2274 273.223 44.3626 281.385C44.39 283.122 41.7112 283.114 41.6689 281.385C41.356 268.843 40.7858 256.279 41.0569 243.733C40.8019 221.959 47.0592 200.972 56.3824 181.466C64.6318 159.007 76.0267 156.453 96.9914 149.923C98.9267 147.049 103.061 144.331 106.434 146.136C108.322 143.088 109.28 139.477 110.677 136.23ZM74.7577 214.505C74.8358 214.229 75.2309 214.298 75.2436 214.571C75.4189 218.094 75.2626 221.64 75.0217 225.179C74.8758 227.339 74.6964 229.496 74.5443 231.642C74.1408 237.302 73.8154 242.968 73.5682 248.639C73.6548 248.603 73.7436 248.571 73.8365 248.546C74.2633 248.429 74.6903 248.429 75.1168 248.546C75.4974 248.652 75.8301 248.838 76.1167 249.106L76.1774 249.165C76.4119 249.382 76.5788 249.64 76.676 249.938C76.8144 250.203 76.8845 250.487 76.8843 250.79L76.8828 250.866C76.8809 251.301 76.7732 251.705 76.5534 252.081C76.3401 252.443 76.0527 252.73 75.6915 252.946C75.3154 253.164 74.9117 253.271 74.4767 253.273C74.4302 253.278 74.3835 253.282 74.3372 253.284C74.0138 253.297 73.7119 253.229 73.4328 253.083L73.3908 253.071C73.2851 255.947 73.1985 258.826 73.1351 261.704C73.0781 264.213 73.002 266.722 72.9513 269.23L72.9278 270.485L72.8818 273.259C72.8669 274.399 72.8742 275.491 72.4866 276.567L72.4401 276.691C72.1612 277.409 71.9438 278.409 71.1976 278.809C70.602 279.128 69.7992 279.01 69.457 278.388C69.1696 277.868 69.4187 277.12 69.8436 276.769C69.8351 276.746 69.8225 276.725 69.8119 276.702C69.7464 276.511 69.6469 276.332 69.5879 276.139C69.4018 275.531 69.4527 274.882 69.4506 274.25C69.4506 273.134 69.4884 272.018 69.5182 270.904C69.5837 268.533 69.6598 266.164 69.7525 263.794C70.0665 255.847 70.6578 247.899 71.3351 239.973L71.5649 237.298C71.8711 233.741 72.1879 230.18 72.6365 226.641C72.6575 226.472 72.6788 226.303 72.702 226.134C72.4612 226.013 72.2372 225.847 72.0596 225.661C71.3478 224.913 70.9161 223.795 70.5113 222.832L70.4182 222.613C69.9788 221.586 69.5732 220.546 69.364 219.443L69.344 219.341C69.2486 218.871 69.0603 218.039 69.5584 217.811C69.8182 217.693 69.9828 217.777 70.0675 218.037C70.0783 218.071 70.0694 218.109 70.0506 218.139C70.2556 218.453 70.5767 218.747 70.7795 219.039L71.4737 220.032L71.8168 220.531C72.252 221.171 72.7168 221.784 73.1964 222.389C73.5744 219.734 74.0372 217.09 74.7577 214.505ZM103.224 273.66C104.092 272.98 105.506 273.349 105.506 274.605C105.506 275.867 104.09 276.23 103.224 275.55L103.181 275.518L103.139 275.484C102.668 275.115 102.652 274.156 103.104 273.756L103.139 273.726C103.167 273.702 103.194 273.681 103.224 273.66ZM65.3978 271.207L65.4724 271.208C65.8653 271.208 66.2308 271.308 66.571 271.507C66.7189 271.619 66.8646 271.733 67.0125 271.847C67.2829 272.117 67.4689 272.439 67.5724 272.809L67.6508 273.387C67.6611 273.688 67.5998 273.967 67.4625 274.227C67.3738 274.497 67.2238 274.732 67.0125 274.928C66.8139 275.142 66.5815 275.292 66.3113 275.378C66.0729 275.504 65.8187 275.568 65.5469 275.568L65.4724 275.567C65.0775 275.567 64.7118 275.467 64.3717 275.268C64.2238 275.157 64.078 275.042 63.9301 274.928C63.6618 274.658 63.4738 274.336 63.3705 273.967C63.3449 273.774 63.3198 273.58 63.2921 273.387C63.2817 273.087 63.3449 272.809 63.4801 272.548C63.5689 272.278 63.7189 272.044 63.9301 271.847C64.1289 271.633 64.3611 271.483 64.6315 271.397C64.8697 271.271 65.1257 271.207 65.3978 271.207ZM164.295 267.189L164.849 267.263C165.379 267.383 165.805 267.774 166.091 268.22C166.243 268.459 166.325 268.717 166.338 268.994C166.399 269.268 166.386 269.545 166.3 269.822C166.236 270.092 166.112 270.329 165.928 270.53C165.865 270.63 165.791 270.72 165.706 270.801C165.533 271.09 165.271 271.28 165.001 271.475C164.773 271.621 164.525 271.699 164.259 271.712C164.084 271.758 163.906 271.758 163.729 271.712C163.465 271.699 163.217 271.621 162.989 271.475C162.854 271.371 162.719 271.266 162.586 271.162C162.468 271.025 162.358 270.883 162.254 270.735C162.185 270.572 162.117 270.412 162.049 270.251C161.924 269.864 161.986 269.522 162.054 269.135C162.064 269.07 162.081 269.011 162.104 268.947L162.15 268.824C162.271 268.503 162.336 268.394 162.552 268.114L162.634 268.005C162.675 267.95 162.717 267.896 162.766 267.848C162.901 267.709 163.093 267.592 163.245 267.472C163.57 267.284 163.921 267.191 164.295 267.189ZM92.5668 265.835L92.6372 265.836C92.9435 265.838 93.231 265.914 93.497 266.069L93.8435 266.337C94.0548 266.55 94.2006 266.8 94.2829 267.09C94.302 267.241 94.3233 267.394 94.3442 267.544C94.3527 267.778 94.3043 267.998 94.1963 268.203C94.1289 268.415 94.0104 268.596 93.8435 268.753C93.6895 268.918 93.5055 269.036 93.2942 269.106C93.1098 269.202 92.9115 269.252 92.7008 269.253L92.6372 269.251C92.3287 269.251 92.0414 269.173 91.7752 269.019L91.4287 268.753C91.2175 268.539 91.0717 268.288 90.9893 267.998C90.9703 267.846 90.9491 267.696 90.928 267.544C90.9196 267.309 90.9682 267.09 91.0759 266.886C91.1456 266.675 91.2618 266.491 91.4287 266.337C91.583 266.17 91.7668 266.052 91.978 265.984C92.1625 265.887 92.3572 265.838 92.5668 265.835ZM78.6239 265.136C79.0652 265.132 79.5133 265.257 79.8746 265.513C80.2253 265.762 80.4913 266.031 80.6626 266.434C80.7091 266.544 80.7554 266.652 80.7957 266.762C80.9774 267.246 81.0112 267.732 80.7598 268.205C80.5168 268.664 79.9929 268.865 79.5237 269.002C79.1267 269.12 78.6767 269.139 78.2816 268.998C78.0851 268.928 77.8929 268.854 77.7154 268.746C77.3837 268.541 77.2042 268.298 76.9823 267.998C76.8091 267.702 76.7225 267.381 76.7225 267.039C76.7225 266.694 76.8091 266.375 76.9823 266.077C77.3223 265.496 77.952 265.141 78.6239 265.136ZM56.2294 265.544C56.7874 265.544 57.2773 265.802 57.6134 266.237C57.9534 266.679 58.078 267.229 57.928 267.776C57.7696 268.355 57.2902 268.863 56.6963 269.008C56.2571 269.116 55.8977 269.112 55.4604 269.038C55.0907 268.975 54.8078 268.755 54.5245 268.526C54.2013 268.262 54.102 267.781 54.1548 267.392C54.2055 267.003 54.3853 266.749 54.6578 266.519L54.6597 266.512L54.5583 266.591C54.5965 266.557 54.6344 266.521 54.6726 266.485C54.6851 266.464 54.6956 266.441 54.7062 266.417C54.8625 266.151 55.0738 265.942 55.3379 265.785C55.6146 265.625 55.9104 265.544 56.2294 265.544ZM186.284 259.143C186.59 259.06 186.898 259.06 187.205 259.143C187.431 259.196 187.627 259.299 187.794 259.453C187.964 259.563 188.102 259.705 188.206 259.88L188.24 259.939C188.481 260.349 188.519 260.818 188.415 261.275C188.287 261.839 187.767 262.353 187.205 262.486L187.186 262.49L187.167 262.495C186.939 262.567 186.708 262.577 186.48 262.524C186.25 262.514 186.036 262.446 185.84 262.319C185.591 262.159 185.382 261.952 185.221 261.702C185.094 261.503 185.027 261.29 185.016 261.059C184.976 260.907 184.976 260.755 185.016 260.603C185.027 260.373 185.094 260.159 185.221 259.961L185.491 259.612L185.519 259.589C185.735 259.373 185.99 259.225 186.284 259.143ZM165.013 247.958C167.783 247.958 167.779 252.257 165.013 252.257C162.244 252.257 162.248 247.958 165.013 247.958ZM63.6089 247.415C63.9006 247.349 64.1922 247.362 64.4816 247.453C64.657 247.527 64.8302 247.601 65.0035 247.672L65.4471 248.015C65.5295 248.085 65.5697 248.161 65.6457 248.26L65.7408 248.385C65.8782 248.569 65.8815 248.608 66.0323 249C66.1337 249.376 66.1337 249.752 66.0323 250.129C65.9835 250.31 65.9098 250.481 65.8147 250.64C65.7278 250.792 65.6238 250.926 65.5067 251.049L65.4471 251.109C65.2485 251.323 65.014 251.473 64.7436 251.561C64.5725 251.661 64.3887 251.709 64.1922 251.709C63.9006 251.775 63.6089 251.762 63.3197 251.671C63.1443 251.597 62.9711 251.523 62.7976 251.452L62.3542 251.109L62.0119 250.665L61.9028 250.405L61.7922 250.143L61.714 249.562C61.7035 249.26 61.7647 248.981 61.9018 248.719C61.9547 248.535 62.0478 248.372 62.1828 248.237C62.2802 248.072 62.411 247.941 62.576 247.844C62.711 247.708 62.8739 247.616 63.0577 247.563C63.2288 247.463 63.4126 247.415 63.6089 247.415ZM200.599 244.344C200.829 244.336 201.045 244.384 201.244 244.49C201.313 244.513 201.381 244.542 201.446 244.576C201.702 244.726 201.905 244.929 202.055 245.183C202.177 245.377 202.245 245.587 202.256 245.813C202.301 246.017 202.297 246.222 202.242 246.426L202.224 246.487C202.177 246.654 202.108 246.808 202.015 246.95C202.006 246.967 201.996 246.984 201.983 246.998C201.841 247.223 201.653 247.406 201.421 247.544C201.163 247.692 200.887 247.768 200.587 247.77C199.989 247.77 199.473 247.447 199.158 246.95C199.114 246.88 199.089 246.791 199.057 246.719C199.029 246.652 198.985 246.565 198.962 246.487C198.882 246.187 198.882 245.887 198.962 245.587C199.014 245.367 199.114 245.175 199.264 245.012C199.384 244.828 199.543 244.682 199.739 244.576C199.983 244.434 200.245 244.358 200.523 244.346L200.599 244.344ZM83.6582 242.241C83.9508 242.161 84.2417 242.155 84.5323 242.223L84.6049 242.241C84.8371 242.296 85.038 242.402 85.2111 242.558C85.4033 242.685 85.5577 242.852 85.6695 243.059C85.8303 243.336 85.9106 243.636 85.9125 243.957C85.9106 244.278 85.8303 244.579 85.6695 244.855C85.5111 245.124 85.2977 245.335 85.0296 245.494L84.7972 245.606C84.6028 245.728 84.3958 245.794 84.1716 245.804C84.0218 245.845 83.8716 245.845 83.7239 245.804C83.5716 245.804 83.4301 245.766 83.2993 245.69C83.1556 245.65 83.0329 245.578 82.9273 245.472C82.7435 245.354 82.6 245.198 82.4944 245.001L82.323 244.597L82.2641 244.149L82.323 243.704L82.4162 243.484C82.5005 243.181 82.6528 242.919 82.8744 242.698C83.0963 242.477 83.3582 242.325 83.6582 242.241ZM188.43 238.676C188.738 238.578 189.045 238.565 189.351 238.633C189.558 238.633 189.753 238.686 189.932 238.792C190.129 238.847 190.298 238.944 190.441 239.088C190.693 239.25 190.889 239.466 191.035 239.734L191.267 240.286C191.407 240.643 191.356 241.169 191.272 241.529C191.202 241.824 191.067 242.083 190.866 242.302C190.765 242.473 190.63 242.609 190.458 242.71C190.263 242.888 190.037 243.015 189.781 243.09L189.711 243.109L189.685 243.116C189.681 243.118 189.677 243.118 189.672 243.118C189.67 243.12 189.666 243.12 189.664 243.12C189.563 243.145 189.459 243.16 189.351 243.164C189.045 243.232 188.738 243.22 188.43 243.122C188.249 243.046 188.065 242.968 187.881 242.89C187.725 242.772 187.57 242.651 187.414 242.53C187.294 242.374 187.173 242.218 187.053 242.063C186.884 241.799 186.793 241.512 186.78 241.205C186.725 241 186.725 240.798 186.78 240.592C186.78 240.383 186.833 240.191 186.936 240.011C187.03 239.724 187.188 239.477 187.414 239.267C187.57 239.147 187.725 239.026 187.881 238.908C188.065 238.83 188.249 238.752 188.43 238.676ZM53.6838 231.109C54.0026 231.022 54.3218 231.022 54.6408 231.109L55.0695 231.289C55.2807 231.403 55.4478 231.557 55.5746 231.754C55.7352 231.927 55.8427 232.132 55.8976 232.367C56.0225 232.688 56.0077 233.197 55.9084 233.525C55.7964 233.897 55.6232 234.193 55.3549 234.472C54.9091 234.932 54.2244 235.066 53.6183 234.926C53.4512 234.888 53.2927 234.814 53.149 234.723C52.6908 234.44 52.3823 233.945 52.3845 233.398C52.3845 233.339 52.3887 233.28 52.3971 233.221C52.3676 233.1 52.3568 232.975 52.3612 232.844L52.4246 232.367L52.4286 232.354C52.5133 232.052 52.6654 231.79 52.8871 231.568C53.092 231.365 53.331 231.218 53.6042 231.13L53.6732 231.109H53.6838ZM213.104 183.651C212.527 178.917 210.357 173.824 203.739 176.604L203.247 176.788C201.609 177.408 199.701 178.223 198.704 179.656C198.018 180.643 198.25 182.556 198.155 183.708C197.723 187.453 197.955 191.192 198.405 194.922C198.985 203.663 197.148 212.72 193.49 220.664C197.151 226.589 202.05 232.116 208.733 234.586C209.015 227.849 210.334 221.236 211.737 214.662L211.792 214.375C212.354 211.411 212.635 208.369 214.581 205.903C218.539 201.604 223.984 204.037 226.589 197.13C226.042 196.853 226.344 195.907 227.004 196.089C229.288 196.494 229.66 192.257 228.096 191.236C226.466 190.242 228.107 188.408 227.413 187.085C227.027 186.514 226.192 186.495 225.814 185.838C224.811 183.418 229.829 181.867 223.928 179.139C222.72 178.71 221.37 178.976 220.152 178.971C218.36 179.139 216.936 180.402 215.297 180.799C217.081 185.421 212.579 189.872 208.515 186.18C206.304 188.271 203.831 193.037 209.206 190.815C211.837 189.059 214.102 186.788 217.156 185.707L217.221 185.687C218.355 185.315 223.316 182.904 223.07 184.991C221.212 186.785 218.147 186.764 215.994 188.22C213.011 189.6 211.103 192.945 207.531 192.899C206.707 197.901 212.381 194.857 214.494 193.478L215.08 193.16C218.06 191.549 221.086 190.057 224.561 190.037C225.52 190.031 225.516 191.511 224.561 191.523C220.032 191.552 216.345 194.384 212.551 196.49C212.177 199.41 216.451 198.131 218.073 197.701C219.774 197.462 222.505 195.622 223.993 196.594C224.575 198.09 222.013 197.978 221.122 198.432C225.193 200.389 221.626 201.62 220.534 198.614L220.215 198.723C217.488 199.64 210.877 201.526 211.663 196.906C210.666 197.348 209.449 197.612 208.346 197.367C205.597 201.436 201.211 199.861 207.586 197.088C206.149 196.42 205.669 193.839 207.049 192.878C202.031 192.572 205.757 187.304 207.834 185.549C207.638 185.351 207.448 185.149 207.271 184.944C206.073 185.515 204.814 185.861 203.468 185.984C202.179 186.1 201.892 183.906 203.164 183.727C204.527 183.534 205.782 183.171 206.982 182.486C208.8 181.7 209.421 185.076 211.241 185.195C212.234 185.392 212.905 184.521 213.104 183.651ZM170.855 227.208C171.294 227.208 171.685 227.392 172.004 227.683C172.323 227.975 172.46 228.412 172.479 228.831C172.488 229.055 172.441 229.264 172.34 229.458C172.274 229.659 172.163 229.833 172.004 229.981C171.708 230.274 171.271 230.456 170.855 230.456C170.416 230.456 170.025 230.272 169.705 229.981C169.387 229.687 169.249 229.251 169.23 228.831C169.222 228.609 169.268 228.4 169.37 228.205C169.428 228.024 169.525 227.864 169.659 227.728L169.705 227.683C170.001 227.387 170.439 227.208 170.855 227.208ZM184.17 217.184L184.241 217.185C184.613 217.188 184.957 217.28 185.278 217.466C185.417 217.574 185.557 217.68 185.694 217.788C185.95 218.045 186.125 218.348 186.223 218.697C186.322 219.06 186.322 219.426 186.223 219.789C186.189 219.999 186.111 220.201 185.988 220.377C185.806 220.679 185.566 220.922 185.261 221.102C184.946 221.286 184.606 221.376 184.241 221.378C183.875 221.376 183.535 221.286 183.22 221.102C182.916 220.922 182.675 220.679 182.496 220.377C182.371 220.201 182.293 219.999 182.259 219.789C182.16 219.426 182.16 219.06 182.259 218.697C182.349 218.373 182.507 218.089 182.734 217.844L182.787 217.788C182.973 217.587 183.193 217.445 183.448 217.363C183.673 217.245 183.914 217.185 184.17 217.184ZM82.5511 217.297C82.7077 217.255 82.8619 217.255 83.0182 217.297C83.2506 217.308 83.468 217.378 83.6689 217.505C83.7873 217.597 83.9056 217.688 84.0239 217.779L84.127 217.903C84.3475 218.172 84.3531 218.218 84.5223 218.627C84.5922 218.855 84.6028 219.083 84.552 219.312C84.552 219.466 84.5119 219.61 84.4356 219.743C84.3936 219.889 84.3218 220.015 84.214 220.121C84.1378 220.25 84.0366 220.353 83.9075 220.43C83.7429 220.58 83.5485 220.683 83.3246 220.736L82.8701 220.797C82.8112 220.789 82.7499 220.78 82.6908 220.774C82.6195 220.772 82.5502 220.764 82.4824 220.751L82.4138 220.736L82.3513 220.719C82.2686 220.695 82.188 220.663 82.1098 220.622C81.9619 220.58 81.833 220.506 81.723 220.396C81.533 220.273 81.3809 220.108 81.2711 219.903L81.2415 219.836C81.2013 219.764 81.1675 219.69 81.142 219.61C81.0704 219.483 81.0344 219.348 81.0323 219.202C80.9903 219.008 80.9931 218.815 81.0434 218.623L81.0619 218.559L81.2246 218.172C81.3091 218.041 81.3978 217.908 81.5117 217.8C81.5803 217.739 81.7481 217.608 81.8425 217.543L81.9004 217.505C82.1013 217.378 82.319 217.308 82.5511 217.297ZM57.0809 214.275C57.3851 213.077 58.957 212.698 59.8126 213.554C60.668 214.411 60.2901 215.983 59.0924 216.287L58.9548 216.321C57.7971 216.615 56.7534 215.569 57.0471 214.411L57.0809 214.275ZM202.089 204.5C202.08 204.382 202.232 204.34 202.308 204.409C203.327 205.322 203.975 206.417 205.211 207.125C206.454 207.835 207.734 207.778 209.029 208.237C209.468 208.393 209.47 208.981 209.029 209.135C206.578 209.991 202.275 207.089 202.089 204.5ZM86.9372 204.314C87.2099 204.23 87.4845 204.217 87.7571 204.278C87.943 204.278 88.116 204.325 88.2745 204.418C88.4498 204.466 88.6 204.555 88.7287 204.682C88.8831 204.773 89.0057 204.897 89.0984 205.052C89.2803 205.25 89.4029 205.483 89.466 205.749L89.5379 206.297L89.466 206.844C89.3963 207.007 89.3266 207.172 89.259 207.334L89.0702 207.59C88.9172 207.794 88.8927 207.797 88.5217 208.072C88.2853 208.222 88.0296 208.304 87.7571 208.315C87.5752 208.366 87.3935 208.366 87.2099 208.315C87.0261 208.315 86.8526 208.269 86.6923 208.176C86.5188 208.127 86.3669 208.038 86.2379 207.911C86.0141 207.766 85.8388 207.573 85.7097 207.334C85.64 207.172 85.5705 207.007 85.5029 206.844L85.4287 206.297L85.5029 205.749L85.5069 205.732C85.6041 205.39 85.7775 205.092 86.0266 204.84L86.4367 204.523C86.597 204.42 86.7639 204.367 86.9372 204.314ZM185.559 204.724C186.144 204.563 186.787 204.732 187.215 205.162C187.644 205.591 187.813 206.231 187.653 206.817C187.494 207.387 187.036 207.85 186.463 208.004C186.292 208.051 186.119 208.076 185.944 208.068C185.65 208.066 185.375 207.991 185.12 207.844L184.79 207.588C184.629 207.44 184.518 207.265 184.452 207.062C184.348 206.867 184.302 206.658 184.31 206.432L184.308 206.392C184.302 206.311 184.312 206.231 184.338 206.153C184.338 206.07 184.351 205.99 184.372 205.912C184.526 205.341 184.991 204.88 185.559 204.724ZM59.3985 199.001C59.5865 198.994 59.7619 199.032 59.9246 199.119C60.0957 199.174 60.2415 199.267 60.364 199.402C60.4992 199.525 60.5922 199.673 60.6471 199.842C60.7337 200.005 60.7717 200.18 60.7654 200.368C60.7654 200.615 60.702 200.846 60.5795 201.057C60.5077 201.15 60.4358 201.243 60.364 201.334C60.195 201.505 59.9943 201.621 59.7619 201.687L59.6267 201.734C59.4281 201.805 59.2337 201.81 59.0267 201.782C58.8091 201.753 58.6082 201.693 58.4309 201.558C58.2574 201.457 58.1203 201.319 58.0189 201.146L57.9027 200.871C57.8774 200.778 57.8668 200.639 57.8605 200.541C57.8605 200.527 57.8605 200.514 57.8584 200.499C57.8584 200.417 57.8837 200.216 57.9046 200.134C57.9513 199.96 58.0462 199.795 58.1541 199.656C58.2471 199.51 58.3739 199.396 58.5302 199.311L58.5441 199.301L58.5598 199.29C58.6082 199.256 58.6591 199.223 58.7098 199.187C58.921 199.064 59.1513 199.001 59.3985 199.001ZM168.495 197.5C168.833 197.5 169.148 197.587 169.439 197.756C169.45 197.76 169.46 197.764 169.469 197.769C169.748 197.933 169.97 198.156 170.135 198.434C170.304 198.724 170.388 199.037 170.388 199.371C170.388 199.707 170.304 200.017 170.135 200.307C169.97 200.586 169.748 200.808 169.469 200.973C169.46 200.979 169.45 200.983 169.439 200.987C169.148 201.157 168.833 201.241 168.495 201.243C168.159 201.241 167.844 201.157 167.553 200.987C166.982 200.654 166.625 200.03 166.625 199.371C166.625 198.711 166.982 198.088 167.553 197.756C167.844 197.587 168.159 197.5 168.495 197.5ZM80.7594 195.056L80.8169 195.055C81.0408 195.046 81.2498 195.093 81.442 195.197C81.6427 195.262 81.8181 195.374 81.9662 195.533L82.2746 195.79L82.3642 195.863C82.3789 195.875 82.3934 195.888 82.4075 195.9C82.6148 196.109 82.7563 196.355 82.8366 196.638C82.862 196.801 82.8829 196.961 82.9 197.124C82.9463 197.547 82.6972 197.98 82.4225 198.28C82.2746 198.439 82.0991 198.551 81.8965 198.618C81.7021 198.72 81.4908 198.766 81.2667 198.758C80.8082 198.718 80.3732 198.62 80.0437 198.265C80.0054 198.223 79.9695 198.179 79.9317 198.134L79.6676 197.83C79.4669 197.627 79.3273 197.388 79.2514 197.113C79.2301 196.968 79.2113 196.824 79.1922 196.68C79.173 196.247 79.3843 195.841 79.6676 195.533C79.9292 195.247 80.3728 195.072 80.7594 195.056ZM70.0951 190.606C72.2921 190.606 72.2879 194.015 70.0951 194.015C67.8998 194.015 67.9041 190.606 70.0951 190.606ZM180.563 185.826L180.632 185.827C180.996 185.829 181.336 185.92 181.651 186.104L182.06 186.419C182.31 186.673 182.483 186.969 182.58 187.311C182.603 187.49 182.627 187.67 182.652 187.848C182.663 188.127 182.603 188.387 182.477 188.628C182.396 188.877 182.257 189.095 182.06 189.279C181.877 189.475 181.661 189.615 181.41 189.695C181.169 189.822 180.909 189.881 180.632 189.87C180.267 189.868 179.927 189.777 179.612 189.594C179.475 189.488 179.339 189.382 179.202 189.279C178.972 189.045 178.807 188.774 178.708 188.465L178.684 188.387L178.611 187.848C178.6 187.571 178.659 187.311 178.786 187.07C178.866 186.819 179.006 186.603 179.202 186.419C179.386 186.222 179.604 186.083 179.853 186.003C180.073 185.887 180.31 185.827 180.563 185.826ZM170.667 179.445C170.863 179.438 171.045 179.478 171.216 179.567C171.391 179.624 171.544 179.723 171.672 179.861C171.945 180.079 172.112 180.514 172.112 180.867C172.112 181.22 171.945 181.655 171.672 181.873C171.495 182.048 171.286 182.171 171.045 182.238L170.667 182.289C170.299 182.306 169.925 182.114 169.663 181.873C169.61 181.824 169.56 181.776 169.507 181.729C169.268 181.509 169.165 181.182 169.15 180.867C169.143 180.7 169.18 180.544 169.255 180.398C169.304 180.246 169.389 180.117 169.507 180.005C169.56 179.958 169.61 179.91 169.663 179.861C169.949 179.597 170.282 179.464 170.667 179.445ZM233.367 168.076C234.755 166.384 233.947 165.18 231.86 165.599C228.267 166.085 224.885 168.357 221.72 169.986C218.265 171.812 214.705 173.317 211.181 175.032C212.635 175.925 213.717 177.323 214.543 178.918C216.192 177.666 218.299 177.067 220.357 176.989C224.09 173.412 230.272 172.593 233.367 168.076ZM69.3558 173.692C69.7322 173.694 70.0849 173.782 70.4153 173.959L70.4858 173.998L70.9379 174.349C71.1577 174.552 71.3119 174.792 71.4027 175.07C71.5422 175.336 71.6055 175.625 71.595 175.934C71.6055 176.243 71.5422 176.53 71.4027 176.796C71.3119 177.075 71.1577 177.314 70.9379 177.517C70.8133 177.68 70.6527 177.807 70.4605 177.9C70.2807 177.974 70.1034 178.05 69.9239 178.126C69.7232 178.189 69.4908 178.198 69.2732 178.208C68.8781 178.206 68.5107 178.107 68.168 177.908L67.7246 177.566C67.5112 177.367 67.3589 177.132 67.2701 176.86C67.1444 176.62 67.0807 176.363 67.0807 176.089L67.0823 176.014C67.0823 175.998 67.0823 175.978 67.0846 175.959C67.1098 175.761 67.1374 175.562 67.1645 175.364C67.2344 175.072 67.3675 174.816 67.5661 174.6C67.6168 174.499 67.6844 174.417 67.7713 174.349C68.0499 174.07 68.3793 173.88 68.7598 173.772C68.9584 173.747 69.157 173.719 69.3558 173.692ZM167.383 168.092L167.447 168.093C167.732 168.093 167.996 168.165 168.242 168.306C168.349 168.389 168.455 168.471 168.56 168.554C168.757 168.75 168.892 168.983 168.966 169.249L169.023 169.667C169.029 169.885 168.985 170.086 168.886 170.274C168.823 170.468 168.715 170.638 168.56 170.781C168.419 170.935 168.25 171.043 168.054 171.107C167.867 171.206 167.665 171.25 167.447 171.242C167.164 171.242 166.898 171.17 166.653 171.026C166.547 170.946 166.439 170.864 166.334 170.781C166.155 170.601 166.027 170.391 165.95 170.152L165.93 170.086L165.873 169.667C165.865 169.45 165.909 169.249 166.008 169.061C166.072 168.865 166.182 168.695 166.334 168.554C166.477 168.399 166.647 168.292 166.841 168.228C167.01 168.139 167.191 168.094 167.383 168.092ZM81.7043 165.803L81.778 165.804C82.1985 165.806 82.5893 165.912 82.9527 166.123C83.109 166.244 83.2656 166.364 83.4217 166.487C83.7111 166.776 83.9097 167.119 84.0219 167.514L84.1041 168.131C84.1168 168.452 84.0492 168.75 83.9034 169.027C83.8106 169.317 83.6499 169.566 83.4217 169.777C83.2128 170.004 82.9633 170.164 82.6738 170.257C82.3971 170.403 82.0992 170.471 81.778 170.458C81.3576 170.458 80.9668 170.352 80.6034 170.141C80.4473 170.02 80.2909 169.898 80.1325 169.777C79.8449 169.486 79.6464 169.143 79.5344 168.75L79.452 168.131C79.4393 167.812 79.5069 167.512 79.6527 167.235C79.7456 166.948 79.9062 166.696 80.1325 166.487C80.3437 166.259 80.5928 166.098 80.8823 166.005C81.1377 165.87 81.4112 165.804 81.7043 165.803ZM159.932 159.992C160.125 159.941 160.317 159.941 160.509 159.992C160.796 160.004 161.065 160.091 161.314 160.25L161.751 160.588C161.758 160.594 161.764 160.601 161.77 160.609C162.035 160.875 162.218 161.19 162.32 161.552L162.396 162.12C162.406 162.414 162.345 162.689 162.212 162.942C162.133 163.186 162.002 163.398 161.821 163.582L161.751 163.65C161.555 163.862 161.324 164.012 161.056 164.098C160.887 164.198 160.703 164.246 160.509 164.246C160.222 164.312 159.932 164.299 159.645 164.208C159.474 164.134 159.3 164.062 159.127 163.991L159.072 163.959C158.42 163.602 158.016 162.854 158.016 162.12C158.016 161.387 158.42 160.636 159.072 160.279C159.092 160.271 159.108 160.26 159.127 160.25C159.377 160.091 159.645 160.004 159.932 159.992Z" fill="black"/>
<path fill-rule="evenodd" clip-rule="evenodd" d="M159.326 33.5531L159.447 33.4597C160.749 32.4375 161.977 31.0979 163.814 31.6002C165.32 32.0124 166.081 33.2593 166.404 34.7663C166.862 34.2865 167.308 33.7898 167.743 33.2762C168.926 31.8813 171.569 32.6041 171.922 34.3816C172.636 37.9619 172.672 41.6055 171.977 45.1922C171.871 45.7353 171.747 46.2764 171.601 46.8111C172.393 45.8241 173.131 44.7948 173.792 43.7106C174.508 42.5334 176.126 43.1167 176.238 44.3742C176.268 44.6997 176.285 45.0294 176.289 45.3612C176.794 45.5388 177.143 46.0587 177.009 46.697C176.274 50.2096 175.343 53.6736 174.223 57.0785C176.023 56.1232 178.04 55.5568 179.94 56.231C182.957 57.3046 183.675 60.5975 183.086 63.4317C182.344 66.9951 180.012 69.9772 177.003 71.9322C176.646 72.469 176.293 73.0101 175.957 73.5617C175.951 75.1194 175.668 76.6728 175.098 78.1163C174.455 79.7374 173.323 81.1386 171.929 82.2038C171.439 83.2714 170.141 84.0512 169.001 83.8351L168.941 83.8228L168.939 83.8249C169.231 84.8689 169.482 85.9236 169.7 86.9803C171.385 95.1676 170.531 103.69 168.995 111.831L168.945 112.091C167.566 119.336 165.96 126.839 162.84 133.566C160.017 139.649 155.232 144.998 148.393 146.325C140.348 147.887 131.443 145.412 124.524 141.285C122.017 139.788 124.315 135.845 126.812 137.366C130.417 139.56 134.331 141.092 138.472 141.9C142.343 142.652 146.671 142.908 150.383 141.348C155.553 139.175 158.625 133.868 160.569 128.872C161.714 125.924 162.571 122.88 163.37 119.824C164.399 115.895 165.358 111.941 166.079 107.942C167.42 100.484 167.855 92.7375 166.436 85.2578C165.983 82.8717 165.343 80.4707 164.509 78.1628C164.378 78.0001 164.253 77.8183 164.141 77.6196C163.269 76.0895 162.667 74.35 162.018 72.6952C161.45 71.7082 160.829 70.7592 160.169 69.8314C159.184 69.0737 158.245 68.2636 157.385 67.3797C159.883 65.762 162.086 63.7369 163.672 61.1571C163.934 60.7317 163.767 60.3251 163.458 60.0957C162.191 61.6802 160.552 63.0221 158.828 64.2109C157.945 64.9676 156.994 65.6473 155.997 66.2615C155.285 66.4024 154.565 66.4992 153.867 66.5787C151.879 66.8048 149.881 66.7203 147.903 66.4561C143.627 65.8855 125.543 60.9031 117.92 62.8399C116.332 63.2434 115.583 64.6681 114.743 66.0059C114.013 67.1696 113.086 68.1329 111.973 68.926L111.848 69.0135C109.672 70.5204 105.297 75.2876 103.458 79.5425C101.083 85.0359 98.8025 101.498 99.8525 101.64C102.599 102.012 104.12 103.457 106.357 105.009C106.505 105.11 106.419 105.385 106.229 105.315C104.752 104.782 103.155 104.467 101.606 104.21C100.205 103.975 98.7306 103.933 97.3785 104.434C95.3039 105.203 94.2919 106.942 93.8757 108.904C93.713 109.671 93.6412 110.472 93.6327 111.264L93.6315 111.494C93.6327 113.993 94.0984 116.763 95.9123 118.607C96.6834 119.391 97.7292 119.919 98.8236 120.065C100.021 120.226 100.761 119.685 101.862 119.404C103.129 119.08 104.118 119.915 104 121.004C104.268 121.238 104.528 121.485 104.786 121.737L104.786 121.738L104.788 121.739C104.957 121.815 105.117 121.917 105.263 122.039C105.502 122.242 105.702 122.464 105.863 122.703C106.22 122.773 106.562 122.971 106.843 123.335C107.422 124.081 107.957 124.835 108.453 125.605C109.343 126.549 110.228 127.496 111.1 128.458C112.151 129.614 113.173 130.796 114.202 131.971L114.717 132.558C115.273 133.19 115.826 133.822 116.38 134.456L116.545 134.642C117.102 135.266 117.529 135.726 117.588 136.624C117.631 137.29 116.914 137.742 116.321 137.59C115.405 137.354 114.981 136.635 114.432 135.922L113.604 134.859L112.824 133.858C112.438 133.359 112.047 132.862 111.658 132.366C111.542 133.281 110.574 134.018 109.691 134.059L109.485 134.067C107.412 134.136 104.891 133.843 103.313 132.38C102.603 133.097 101.72 133.661 100.632 133.999C98.1602 134.769 95.6334 133.406 94.6341 131.332C92.6968 132.163 90.5081 132.33 88.4144 131.719C87.2068 131.365 86.7892 129.859 87.6307 128.938L87.6687 128.897L87.6784 128.886C87.5047 128.661 87.4092 128.384 87.3938 128.083C87.375 127.717 87.6414 127.33 87.5865 126.988C87.3769 125.687 85.2549 126.651 84.5806 126.933C84.4517 126.987 84.3308 127.012 84.218 127.016C83.1754 127.32 82.0415 125.95 82.5877 124.818C83.8109 122.291 85.0046 119.744 86.2426 117.22C86.0863 117.273 85.9257 117.322 85.7672 117.362C83.5426 117.933 80.8447 116.838 81.3581 114.156C81.4764 113.526 82.0468 113.095 82.613 112.9C83.7158 112.52 84.544 112.795 85.3933 112.44C86.3503 112.042 87.3496 111.313 88.1905 110.626C89.0884 109.895 89.8637 109.073 90.5503 108.181C90.825 106.885 91.3003 105.647 92.0609 104.582C92.1074 104.518 92.1539 104.455 92.2025 104.393C87.325 103.23 87.9636 98.4314 85.8122 94.1787L85.6304 93.8262C84.1692 90.9815 82.8944 87.7743 83.6313 84.535C83.7623 83.9623 83.9525 83.4149 84.1975 82.9034C83.8067 82.952 83.4137 82.9964 83.0229 83.0408C82.125 83.1422 81.2123 81.984 81.5694 81.1323C81.7574 80.6863 81.9644 80.2552 82.1884 79.8367C82.8095 78.6827 83.5722 77.6344 84.4701 76.6876C82.9616 76.6474 81.451 76.6474 79.9595 76.4741C78.5503 76.3114 77.0694 75.5399 77.1127 73.9147C77.1564 72.365 78.5155 71.192 79.7757 70.436C81.016 68.7856 82.5894 67.414 84.3689 66.3946C84.0168 66.3154 83.6601 66.2568 83.2976 66.2207L83.1158 66.2046C82.0996 66.1243 81.187 65.8453 80.2658 65.4205C79.4419 65.0401 79.4546 63.8861 79.9933 63.3049C81.735 61.4213 84.3446 62.0347 86.3751 63.114C86.2337 62.9346 86.0788 62.7617 85.9101 62.5963L85.8072 62.4979C84.8096 61.5686 86.3068 60.0773 87.301 61.0035C87.6152 61.2962 87.8966 61.6143 88.1476 61.9514L88.1715 61.9015C89.4851 59.236 91.4063 56.8502 93.6794 54.9384L94.2136 54.4941C98.3126 51.0688 99.5774 49.4453 105.029 49.9497C104.796 48.9591 104.819 47.8447 104.871 46.9284L104.879 46.8048C105.088 43.3598 106.357 39.2363 109.717 37.6892C110.589 37.2898 111.578 37.9428 111.345 38.9425C111.183 39.6506 110.984 40.3396 110.737 41.0095C111.47 40.2381 112.256 39.5174 113.088 38.8538C116.481 36.1485 121.015 33.8215 125.475 34.5824C127.926 35.003 129.848 36.5416 131.9 37.8266C133.962 39.1201 136.264 39.8873 138.679 40.1641C142.053 40.553 145.44 40.162 148.776 39.5449C151.068 38.5452 153.293 37.3743 155.464 36.1126C156.8 35.3369 158.099 34.4894 159.326 33.5531ZM99.4237 108.377C100.138 108.194 100.938 108.196 101.655 108.375C103.503 108.84 105.223 110.387 105.331 112.338C105.379 113.219 104.669 114.063 103.846 114.289C102.912 114.547 102.109 114.09 101.564 113.359C100.979 112.577 100.833 111.729 100.117 111.019L99.9515 110.858C99.3427 110.276 98.4221 109.523 97.5772 109.658C97.4526 109.677 97.3596 109.508 97.4864 109.44C98.1751 109.064 98.6272 108.58 99.4237 108.377ZM109.026 99.19C109.352 98.9237 109.783 99.2361 109.629 99.6191L109.617 99.6465C109.231 100.462 109.685 101.42 110.154 102.102C110.557 102.692 109.795 103.252 109.258 102.999C107.75 102.282 107.828 100.162 109.026 99.19ZM114.54 74.6797C114.512 74.481 114.776 74.3986 114.844 74.5951C115.97 77.8647 116.293 80.7602 116.11 84.2179L116.092 84.5247C115.893 87.8552 115.31 91.3802 113.295 94.1154C112.829 94.7474 111.874 94.3754 112.028 93.5807C112.647 90.3999 113.836 87.3797 114.299 84.1608C114.783 80.7961 115 78.0465 114.54 74.6797ZM104.023 86.564C104.188 85.6911 105.529 84.7928 106.207 85.6699C106.436 85.9679 106.167 86.3336 105.893 86.4435C105.635 86.5449 105.405 86.4054 105.151 86.4562C104.946 86.4976 104.796 86.6255 104.696 86.8005L104.676 86.8387C104.477 87.2191 103.953 86.9359 104.023 86.564ZM103.474 79.6105C103.955 78.7186 105.065 78.1501 106.013 78.7059C106.326 78.8898 106.203 79.4245 105.823 79.4076L105.598 79.3985C104.921 79.3738 104.245 79.3875 103.677 79.8155C103.55 79.9106 103.41 79.731 103.474 79.6105ZM105.167 55.2529C102.465 54.0376 99.7783 55.1347 97.572 56.8458C97.3895 56.9874 97.301 57.1527 97.2815 57.3188C98.7545 56.745 100.323 56.3688 101.822 56.0583C103.048 55.8043 104.285 55.6329 105.524 55.5652C105.455 55.4407 105.341 55.3308 105.167 55.2529Z" fill="black"/>
<path fill-rule="evenodd" clip-rule="evenodd" d="M143.152 128.274C141.732 127.695 140.465 126.728 139.538 125.493C139.216 125.063 139.133 124.61 139.2 124.195C139.276 123.729 139.552 123.306 139.928 123.023C140.305 122.739 140.777 122.598 141.233 122.67C141.63 122.732 142.024 122.949 142.337 123.399L142.402 123.489C142.953 124.235 143.67 124.846 144.488 125.241C145.276 125.621 146.158 125.798 147.07 125.695C148.808 125.499 150.005 124.559 151.278 123.282C151.436 123.121 151.594 122.955 151.752 122.786C151.852 122.633 151.991 122.534 152.146 122.483C152.317 122.425 152.511 122.429 152.689 122.491C152.86 122.55 153.013 122.664 153.116 122.815C153.213 122.958 153.269 123.135 153.251 123.339C153.134 124.661 152.443 125.842 151.461 126.769C150.37 127.799 148.924 128.511 147.563 128.761C146.064 129.036 144.536 128.839 143.152 128.274ZM148.271 107.866C149.866 108.836 152.297 111.098 150.581 113.503C148.56 115.624 145.652 113.193 144.219 112.093C142.89 111.241 141.396 113.433 142.629 114.428C152.987 122.099 157.19 108.12 149.078 106.726C148.184 106.572 147.853 107.566 148.271 107.866ZM129.711 98.9429C129.887 96.7541 133.219 96.257 133.551 98.423C133.847 100.363 133.498 102.145 132.624 103.892C131.79 105.561 129.692 104.783 129.533 103.263C129.32 101.226 129.601 100.304 129.711 98.9429ZM155.076 97.9739C155.541 97.3652 156.212 96.9497 157.015 97.1845C159.526 97.9185 158.786 101.485 157.904 103.22C157.425 104.163 155.876 104.402 155.176 103.572C154.036 102.219 153.489 99.5157 154.94 98.1825C154.979 98.1136 155.023 98.044 155.076 97.9739ZM132.589 89.3654L132.986 89.2959C134.213 89.0836 135.738 88.8796 136.606 89.8665C137.067 90.3898 137.225 91.3624 136.606 91.8633C135.518 92.7446 134.314 92.4031 133.01 92.4777C131.935 92.5394 130.902 92.7174 129.867 93.0135C127.595 93.663 125.744 94.8486 123.804 96.1505C123.55 96.3213 123.29 95.9956 123.411 95.7574C124.531 93.563 126.701 91.7604 128.875 90.6616C130.036 90.0751 131.305 89.5885 132.589 89.3654ZM152.787 88.3823L153.091 88.4445C156.395 89.1353 160.687 90.5153 162.251 93.7615C162.311 94.2205 162.248 94.3189 162.197 94.3832L162.18 94.4046C162.137 94.4595 162.104 94.5351 161.905 94.5976C161.85 94.5844 161.794 94.5705 161.737 94.5557C161.02 94.3677 160.453 94.1087 159.904 93.84L159.308 93.5465C158.617 93.2076 157.92 92.881 157.181 92.6399C155.605 92.1255 153.983 91.7631 152.337 91.5696C151.98 91.5277 151.636 91.4072 151.365 91.2006C151.108 91.0046 150.911 90.7332 150.821 90.3724C150.705 89.9056 150.739 89.5521 150.989 89.1309C151.177 88.8146 151.447 88.5953 151.756 88.4694C152.071 88.3411 152.43 88.3108 152.787 88.3823Z" fill="black"/>
</svg>
