<svg width="240" height="324" viewBox="0 0 240 324" fill="none" xmlns="http://www.w3.org/2000/svg">
<path fill-rule="evenodd" clip-rule="evenodd" d="M184.39 193.752C182.869 195.965 181.471 198.243 180.208 200.613C179.557 201.835 178.949 203.082 178.402 204.353C178.289 201.603 178.264 198.821 177.942 196.098C177.919 195.901 177.592 195.806 177.557 196.045C177.202 198.515 177.144 201.048 177.01 203.543C176.855 203.496 176.684 203.469 176.496 203.469C174.671 203.469 172.873 203.618 171.054 203.766C170.239 203.832 169.387 203.882 168.555 204.012C169.224 203.273 169.848 202.492 170.423 201.677C171.01 200.847 171.68 199.548 170.658 198.75C169.529 197.869 167.314 199.022 166.222 199.47C165.669 199.697 165.126 199.944 164.593 200.207C163.918 198.317 161.852 198.067 160.081 198.327C158.818 198.514 157.592 198.946 156.361 199.275C154.798 199.693 153.229 200.086 151.654 200.455C148.817 201.119 145.962 201.699 143.093 202.202C143.017 202.114 142.911 202.045 142.771 202.01C141.789 201.764 140.705 201.952 139.697 201.971C138.661 201.99 137.624 201.988 136.588 201.967C134.738 201.929 132.888 201.914 131.038 201.882C130.512 201.563 129.845 201.105 129.682 200.505C129.478 199.755 130.115 198.925 130.41 198.288C131.545 195.838 131.942 193.098 131.497 190.43C131.417 189.955 131.254 189.435 131.018 188.948C133.045 189.165 135.046 189.312 137.085 189.379C141.155 189.511 145.226 189.65 149.298 189.68C157.441 189.741 165.583 189.741 173.726 189.682C178.33 189.648 182.923 189.606 187.521 189.371C187.146 189.846 186.782 190.331 186.426 190.824C186.353 190.802 186.257 190.842 186.268 190.933C186.271 190.965 186.275 190.997 186.279 191.028C185.63 191.935 185.005 192.857 184.39 193.752ZM175.336 277.968C173.443 277.908 171.552 277.848 169.659 277.787C165.945 277.669 162.231 277.551 158.517 277.433C151.16 277.198 143.802 276.972 136.443 276.769C129.102 276.567 121.757 276.352 114.414 276.582C107.054 276.811 99.7129 277.405 92.3667 277.882C88.2827 278.147 84.1957 278.377 80.1041 278.487C76.2073 278.591 72.276 278.433 68.3853 278.711C68.2545 277.749 68.3507 276.789 68.3365 275.831C69.6128 275.093 70.8654 274.31 72.1034 273.539C76.6169 270.731 80.8833 267.554 84.9075 264.081C85.5261 263.547 86.1326 263.001 86.7331 262.451C86.3152 263.364 86.6496 264.542 87.8473 264.928C89.3078 265.4 90.8031 265.232 92.32 265.197C93.8604 265.16 95.4007 265.126 96.9413 265.093C99.9521 265.03 102.963 264.972 105.974 264.922C111.856 264.823 117.739 264.75 123.621 264.703C135.456 264.607 147.283 264.768 159.117 264.982C162.444 265.042 165.768 265.117 169.096 265.041C170.76 265.004 172.432 264.992 174.095 264.902C175.427 264.83 176.767 264.641 178.099 264.472C178.267 266.793 178.443 269.113 178.639 271.432C178.768 272.963 178.901 274.494 179.033 276.025C179.086 276.656 179.09 277.301 179.179 277.901C177.901 277.971 176.63 278.009 175.336 277.968ZM176.637 212.433C176.59 214.21 176.566 215.987 176.553 217.765C176.399 217.677 176.226 217.613 176.031 217.583C173.962 217.267 171.748 217.507 169.654 217.542C167.63 217.576 165.6 217.565 163.578 217.66C161.552 217.756 159.527 217.87 157.502 217.975C156.551 218.025 155.611 218.067 154.668 218.196C154.022 218.284 153.196 218.278 152.506 218.462C155.401 215.657 158.281 212.835 161.169 210.022C161.255 209.937 161.318 209.848 161.361 209.757C163.287 208.583 165.135 207.263 166.809 205.75C168.136 206.262 169.647 206.326 171.054 206.441C172.874 206.588 174.67 206.738 176.496 206.738C176.62 206.738 176.735 206.726 176.844 206.704C176.755 208.613 176.687 210.522 176.637 212.433ZM101.458 246.944C105.878 248.356 110.668 248.34 115.266 248.623C120.169 248.925 125.064 249.175 129.972 249.367C139.775 249.748 149.571 250.265 159.372 250.677C164.97 250.912 170.567 251.172 176.163 251.454C176.56 251.474 176.939 251.372 177.273 251.185C177.461 254.872 177.681 258.557 177.937 262.24C177.969 262.7 178.005 263.16 178.037 263.621C175.404 263.291 172.79 262.974 170.136 262.75C167.157 262.498 164.178 262.286 161.194 262.088C155.38 261.703 149.556 261.186 143.73 260.998C131.855 260.614 119.954 260.744 108.075 260.829C104.714 260.853 101.353 260.885 97.9915 260.926C96.3111 260.947 94.6307 260.969 92.9503 260.993C91.2614 261.018 89.4464 260.842 87.8473 261.432C87.8321 261.438 87.8192 261.446 87.8042 261.451C92.6285 256.879 96.9504 251.825 101.458 246.944ZM116.997 232.325C124.385 233.67 131.888 233.578 139.376 233.711C147.038 233.848 154.71 233.757 162.374 233.773C166.727 233.782 171.117 233.973 175.455 233.586C175.967 233.54 176.365 233.346 176.648 233.07C176.727 237.685 176.872 242.298 177.071 246.91C176.79 246.79 176.483 246.717 176.163 246.698C166.371 246.122 156.578 245.599 146.774 245.28C136.978 244.96 127.169 244.582 117.367 244.7C112.584 244.758 107.526 244.452 102.808 245.495C104.601 243.589 106.432 241.719 108.348 239.928C111.141 237.317 114.121 234.871 116.997 232.325ZM122.641 226.892C122.651 226.881 122.656 226.868 122.663 226.857C122.69 226.876 122.723 226.89 122.765 226.889C129.68 226.733 137.438 228.916 143.906 225.566C146.793 224.071 149.185 221.708 151.506 219.437C151.507 219.453 151.509 219.47 151.51 219.487C151.525 219.671 151.603 219.893 151.79 219.975C152.553 220.31 153.446 220.332 154.265 220.451C155.207 220.588 156.132 220.668 157.083 220.726C159.178 220.851 161.273 220.984 163.368 221.103C165.46 221.221 167.56 221.231 169.654 221.283C171.754 221.335 173.953 221.59 176.031 221.29C176.222 221.263 176.392 221.203 176.543 221.119C176.546 223.809 176.57 226.498 176.595 229.186C176.6 229.624 176.608 230.062 176.613 230.5C176.333 230.243 175.947 230.063 175.455 230.019C171.601 229.68 167.718 229.831 163.85 229.844C160.053 229.856 156.255 229.869 152.457 229.882C144.789 229.907 137.127 229.982 129.459 230.128C125.731 230.199 122.019 230.513 118.345 231.117C119.832 229.761 121.278 228.365 122.641 226.892ZM62.5558 275.791C61.1401 276.224 59.7348 276.036 58.3163 276.333C58.2291 276.351 58.1486 276.385 58.0748 276.43C53.8271 274.614 50.9957 270.971 49.0579 266.888C47.0154 262.585 45.6075 257.985 44.6644 253.322C42.7199 243.708 42.7165 233.74 43.723 224.014C44.7119 214.459 46.67 204.955 49.4642 195.766C51.3827 189.456 53.8277 183.082 57.2226 177.329C61.1426 179.956 64.1828 183.739 67.0467 187.437C70.4691 191.856 73.5531 196.533 76.3138 201.392C76.0283 202.224 75.984 203.268 75.8471 204.012C75.5832 205.447 75.3449 206.899 75.1575 208.346C74.7572 211.439 74.3731 214.533 73.9638 217.625C73.1545 223.738 72.1881 229.834 71.1206 235.907C71.0342 236.399 71.1724 236.815 71.4265 237.128C69.3092 238.244 67.2195 239.41 65.1836 240.674C60.7074 243.452 56.5241 246.689 53.2398 250.841C53.1544 250.948 53.2881 251.093 53.3938 250.995C60.437 244.484 69.1873 240.397 77.7785 236.357C82.1688 234.293 86.5376 232.195 90.7499 229.782C95.1548 227.258 99.3557 224.406 103.382 221.315C107.98 217.786 112.307 213.928 116.364 209.788C116.842 209.3 116.727 208.69 116.367 208.304C116.488 208.266 116.586 208.16 116.593 207.984C116.69 205.281 117.502 202.978 119.09 200.79C120.564 198.76 122.443 197.087 124.137 195.25C124.89 194.434 125.609 193.584 126.252 192.677C126.913 191.743 127.316 190.713 127.892 189.737C128.564 188.597 129.137 189.18 129.448 190.211C129.802 191.381 129.78 192.75 129.638 193.953C129.488 195.225 129.1 196.465 128.543 197.615C128.019 198.696 127.415 199.794 127.767 201.033C128.347 203.067 130.831 204.245 132.713 204.704C134.809 205.214 137.001 205.115 139.124 204.85C141.781 204.519 144.426 204.033 147.054 203.517C150.096 202.92 153.121 202.23 156.121 201.451C157.532 201.085 158.933 200.603 160.357 200.3C160.865 200.192 161.805 200.029 162.402 200.294C154.73 204.869 146.365 207.917 137.87 210.574C136.814 210.903 137.247 212.498 138.328 212.234C147.454 210.001 156.04 205.858 164.212 201.321C164.337 201.251 164.443 201.143 164.521 201.016C165.343 200.727 166.179 200.475 167.031 200.268C167.412 200.176 169.371 199.529 169.616 199.777C169.963 200.129 168.762 201.272 168.462 201.604C166.327 203.971 163.787 205.902 161.037 207.499C158.248 209.118 155.281 210.41 152.3 211.628C148.96 212.993 145.43 214.066 142.183 215.635C140.894 216.258 141.799 218.375 143.157 217.946C144.908 217.392 146.61 216.579 148.311 215.888C149.757 215.301 151.202 214.714 152.64 214.108C153.642 213.684 154.637 213.247 155.623 212.79C154.146 214.18 152.67 215.57 151.194 216.96C148.637 219.368 146.208 222.111 143.083 223.799C139.996 225.468 136.473 225.662 133.037 225.626C131.311 225.608 129.594 225.553 127.868 225.623C126.052 225.696 124.44 225.975 122.719 226.547C122.687 226.557 122.664 226.576 122.645 226.598C122.585 226.524 122.482 226.488 122.377 226.55C117.701 229.316 113.439 232.904 109.34 236.45C105.115 240.104 101.139 243.991 97.3514 248.096C93.7258 252.026 90.1292 255.97 86.184 259.585C82.3319 263.115 78.2154 266.321 73.9169 269.287C71.5748 270.904 69.1748 272.46 66.6916 273.852C65.3646 274.595 64.0169 275.344 62.5558 275.791ZM62.949 169.398C64.6235 167.516 66.4258 165.772 68.3329 164.159C69.1744 164.408 70.0577 164.478 70.9478 164.487C72.306 164.5 73.6672 164.557 75.0255 164.543C77.6407 164.516 80.255 164.433 82.8709 164.419C88.2195 164.39 93.5699 164.389 98.9186 164.435C99.6193 164.441 100.125 164.142 100.437 163.706C101.52 164.934 102.636 166.134 103.761 167.314C105.589 169.233 107.538 171.063 109.613 172.73C109.209 172.733 108.805 172.737 108.403 172.734C106.553 172.722 104.703 172.71 102.853 172.7C99.1404 172.679 95.4278 172.664 91.7152 172.654C84.3343 172.635 76.9305 172.696 69.5591 173.074C67.5132 173.179 65.4512 173.222 63.4125 173.421C62.3067 173.53 61.2022 173.656 60.0975 173.773C59.8714 173.798 59.6547 173.828 59.4419 173.862C60.5238 172.307 61.6892 170.813 62.949 169.398ZM92.5102 152.626C92.4603 152.66 92.4064 152.69 92.3587 152.726C92.2501 152.807 92.2672 152.955 92.3953 153.004C92.5655 153.071 92.7445 153.121 92.9287 153.161C93.4881 153.973 93.9253 154.976 94.2305 155.485C95.1075 156.946 96.1159 158.338 97.1418 159.697C97.348 159.97 97.5582 160.24 97.7693 160.509C92.8013 160.497 87.8359 160.523 82.8709 160.711C80.2569 160.81 77.634 160.893 75.0255 161.089C73.9529 161.17 72.8809 161.305 71.8117 161.439C77.3764 157.415 83.6346 154.342 90.1178 152.061C90.1089 152.071 90.0998 152.078 90.091 152.088C89.9481 152.247 90.1613 152.452 90.3221 152.319C91.1655 151.622 91.8975 151.949 92.5102 152.626ZM117.612 199.925C117.471 200.139 117.332 200.36 117.197 200.587C116.871 200.262 116.416 200.044 115.83 200.026C109.322 199.823 102.817 199.646 96.305 199.641C93.0937 199.639 89.8533 199.531 86.646 199.69C85.0355 199.77 83.4257 199.865 81.816 199.956C80.6906 200.02 79.495 200.099 78.396 200.425C75.8631 195.993 73.0514 191.732 69.9808 187.658C76.9476 188.513 84.0337 188.422 91.04 188.659C98.9779 188.928 106.92 188.986 114.861 189.174C117.039 189.226 119.217 189.283 121.395 189.343C122.519 189.375 123.643 189.407 124.767 189.441C125.119 189.452 125.482 189.462 125.846 189.452C125.819 189.509 125.791 189.566 125.764 189.622C125.151 190.889 124.38 192.054 123.482 193.136C121.573 195.436 119.266 197.417 117.612 199.925ZM109.074 213.577C108.833 212.907 108.246 212.391 107.31 212.434C101.978 212.676 96.6354 212.844 91.3091 213.195C88.7145 213.367 86.1094 213.482 83.5191 213.709C82.183 213.826 80.8493 214.044 79.5189 214.217C78.6069 214.336 77.6519 214.474 76.7771 214.798C76.9467 212.925 77.0963 211.05 77.2262 209.172C77.3304 207.663 77.3621 206.141 77.3541 204.628C77.35 203.863 77.3241 203.093 77.2871 202.328C77.3657 202.344 77.4445 202.351 77.5218 202.342C77.6583 202.325 77.7857 202.309 77.904 202.277C79.13 202.757 80.5176 202.863 81.816 202.956C83.3562 203.066 84.8959 203.182 86.436 203.292C89.713 203.526 93.0208 203.511 96.305 203.618C102.77 203.829 109.236 203.951 115.703 204.125C115.403 205.412 115.392 206.735 115.872 207.982C115.538 207.871 115.153 207.922 114.824 208.247C112.961 210.088 111.043 211.863 109.074 213.577ZM90.2642 227.27C90.1326 226.906 89.8841 226.571 89.59 226.344C88.4593 225.473 86.3953 225.974 85.0381 226.041C83.4314 226.12 81.8245 226.198 80.2178 226.277C79.7302 226.301 77.2414 226.428 75.4136 226.817C75.7913 223.964 76.134 221.106 76.4403 218.242C76.5045 217.641 76.5641 217.04 76.6231 216.439C77.4842 216.716 78.4201 216.817 79.3083 216.86C80.6393 216.923 81.9764 217.03 83.3086 217.051C85.9704 217.093 88.6469 216.962 91.3091 216.917C96.1032 216.838 100.898 216.609 105.69 216.42C100.879 220.326 95.795 223.891 90.4922 227.134C90.4165 227.18 90.3398 227.224 90.2642 227.27ZM75.1222 228.963C75.5272 229.017 75.9288 229.035 76.236 229.066C77.7783 229.221 79.2964 229.363 80.8465 229.385C82.3835 229.408 83.9202 229.43 85.4572 229.453C85.784 229.457 86.1109 229.462 86.4377 229.467C82.3907 231.678 78.2194 233.659 74.1071 235.745C74.4694 233.487 74.8076 231.227 75.1222 228.963ZM119.221 178.606C128.444 182.527 140.274 182.882 148.2 176.369C148.988 176.585 149.859 176.657 150.554 176.726C152.117 176.883 153.665 177.028 155.235 177.077C158.295 177.173 161.358 177.316 164.42 177.353C170.613 177.43 176.807 177.466 183 177.521C183.527 177.526 183.949 177.365 184.269 177.107C184.896 178.171 185.48 179.261 186.012 180.38C186.789 182.011 187.447 183.696 187.988 185.419C187.872 185.399 187.752 185.385 187.623 185.383C179.483 185.242 171.338 185.477 163.197 185.511C155.054 185.545 146.912 185.51 138.769 185.568C136.516 185.584 134.279 185.584 132.032 185.751C130.862 185.839 129.678 185.877 128.519 186.066C128.39 186.086 128.258 186.105 128.125 186.124C126.573 185.216 124.645 185.406 122.871 185.372C120.833 185.334 118.795 185.299 116.758 185.269C112.753 185.21 108.748 185.166 104.743 185.139C96.7938 185.084 88.8643 185.288 80.9205 185.565C76.9681 185.702 73.0307 185.936 69.1292 186.545C68.8672 186.205 68.6078 185.865 68.3424 185.528C65.578 182.023 62.3008 177.536 57.7518 176.45C57.9263 176.165 58.1033 175.882 58.2831 175.602C61.4348 176.433 64.9117 176.391 68.1318 176.565C71.8436 176.766 75.5475 176.904 79.2637 176.996C86.6507 177.177 94.0362 177.291 101.425 177.403C103.475 177.435 105.526 177.467 107.576 177.502C108.682 177.52 109.788 177.541 110.895 177.558C111.513 177.568 112.065 177.566 112.654 177.361C113.199 177.171 113.731 176.886 114.258 176.65C114.442 176.567 114.592 176.445 114.714 176.301C116.162 177.167 117.662 177.943 119.221 178.606ZM155.261 165.568C156.421 165.89 157.618 165.944 158.844 166.036C160.454 166.158 162.06 166.179 163.674 166.189C166.248 166.206 168.822 166.188 171.395 166.117C172.5 166.086 173.145 165.346 173.337 164.499C173.364 164.521 173.391 164.542 173.418 164.564C176.549 167.144 179.386 170.096 181.79 173.363C176 173.382 170.21 173.385 164.42 173.424C161.358 173.445 158.295 173.571 155.235 173.65C153.734 173.688 152.254 173.813 150.759 173.955C150.73 173.958 150.699 173.96 150.668 173.963C150.827 173.78 150.984 173.595 151.138 173.404C152.924 171.189 154.394 168.459 155.261 165.568ZM192.906 281.851C193.417 280.445 193.218 278.937 193.189 277.458C193.16 275.941 193.143 274.425 193.138 272.908C193.128 269.942 193.108 266.976 193.076 264.01C193.009 258.011 192.94 252.006 192.704 246.01C192.238 234.156 191.339 222.332 189.872 210.557C189.16 204.833 188.275 199.122 187.074 193.479C187.091 193.456 187.108 193.433 187.124 193.41C188.32 191.812 189.68 190.335 190.854 188.726C190.959 188.583 191.002 188.4 191.001 188.215C191.044 188.194 191.087 188.172 191.131 188.147C192.105 187.592 191.225 186.079 190.251 186.641C190.363 186.577 188.746 182.423 188.574 182.004C187.958 180.502 187.266 179.033 186.485 177.61C186.014 176.751 185.51 175.91 184.981 175.085C184.889 174.469 184.556 173.897 183.985 173.592C182.982 172.154 181.898 170.772 180.743 169.456C176.015 164.066 170.109 159.716 163.656 156.617C162.724 156.169 161.764 155.796 160.807 155.405C159.789 154.988 158.845 154.444 157.841 154.007C156.208 153.295 154.596 153.336 152.992 154.089C152.855 154.154 152.953 154.365 153.093 154.328C154.125 154.059 155.183 154.014 156.218 154.306C157.233 154.593 158.004 155.226 158.89 155.755C160.468 156.696 162.232 157.31 163.85 158.189C165.989 159.352 168.08 160.628 170.079 162.03C168.007 162.14 165.934 162.219 163.86 162.274C162.32 162.315 160.78 162.322 159.242 162.411C158.147 162.475 157.008 162.457 155.914 162.634C156.178 160.82 156.178 158.989 155.849 157.221C155.849 157.221 155.848 157.22 155.848 157.219C155.769 156.794 155.672 156.371 155.553 155.953C155.301 155.064 154.49 154.93 153.902 155.267C153.844 155.224 153.785 155.182 153.729 155.136C153.024 154.564 152.39 153.879 151.838 153.159C150.693 151.664 149.767 149.933 149.065 148.188C148.355 146.421 147.852 144.573 147.359 142.736C147.112 141.815 146.844 140.899 146.593 139.979C146.374 139.179 146.214 138.295 145.812 137.566C145.737 137.43 145.51 137.455 145.474 137.611C145.261 138.524 145.374 139.565 145.413 140.496C145.456 141.529 145.515 142.553 145.653 143.578C145.938 145.706 146.397 147.798 147.134 149.819C147.84 151.756 148.772 153.564 150.038 155.197C150.879 156.281 152.074 157.717 153.458 158.302C153.638 160.337 153.618 162.375 153.137 164.391C152.508 167.029 151.304 169.536 149.65 171.685C146.181 176.189 140.815 178.735 135.217 179.259C129.425 179.802 123.497 178.506 118.293 175.958C112.504 173.123 107.702 168.75 103.388 164.029C100.902 161.308 98.3232 158.631 96.0187 155.752C95.6103 155.242 94.9567 154.206 94.1813 153.273C94.9704 153.266 95.7802 153.148 96.4786 153.058C97.9237 152.873 99.336 152.586 100.748 152.226C103.388 151.555 106.172 150.62 108.479 149.142C113.361 146.013 115.267 142.044 115.918 136.577C116.124 134.849 113.136 134.429 112.858 136.163C112.43 138.828 111.784 140.125 110.933 142.685C110.116 145.145 108.931 146.062 106.667 147.418C104.541 148.692 102.126 149.432 99.7839 150.196C98.4863 150.62 97.1733 151.006 95.8647 151.395C95.0317 151.643 94.0427 151.86 93.1976 152.242C92.7567 151.855 92.2968 151.563 91.8337 151.453C91.8677 151.396 91.8236 151.307 91.7382 151.324C91.6021 151.351 91.4665 151.381 91.3305 151.409C91.1938 151.419 91.0577 151.446 90.9219 151.495C82.7657 153.262 74.9331 157.024 68.2913 162.15C67.9564 162.29 67.6326 162.461 67.3243 162.678C67.1657 162.789 67.0605 162.966 67.0302 163.149C66.0318 163.965 65.0629 164.811 64.1268 165.687C56.5875 172.741 51.8105 182.125 48.4664 191.777C45.1721 201.286 42.9421 211.257 41.716 221.241C40.4659 231.417 40.3218 241.805 42.1349 251.924C43.1084 257.357 44.6845 262.697 47.0107 267.708C49.0998 272.209 52.5001 277.337 57.841 277.885C57.8581 277.902 57.8741 277.92 57.8933 277.936C59.9889 279.662 63.1089 278.47 65.2998 277.439C65.6471 277.275 65.9917 277.103 66.3348 276.927C66.1535 277.625 66.0717 278.356 66.0339 279.041C65.9551 280.463 67.9602 280.544 68.3399 279.363C71.5902 279.935 74.9467 279.943 78.2342 279.925C81.9075 279.905 85.5795 279.777 89.2486 279.605C96.5285 279.261 103.8 278.736 111.084 278.497C125.835 278.014 140.625 279.047 155.364 279.567C159.498 279.713 163.633 279.858 167.767 280.004C171.992 280.153 176.212 280.182 180.402 280.753C181.943 280.964 182.533 279.453 182.098 278.512C182.207 277.88 182.099 277.187 182.039 276.442C181.929 275.051 181.824 273.659 181.726 272.267C181.535 269.552 181.35 266.836 181.175 264.121C180.819 258.617 180.513 253.11 180.216 247.603C179.625 236.654 179.172 225.697 178.839 214.737C178.758 212.066 178.652 209.393 178.518 206.724C178.677 206.471 178.836 206.217 178.99 205.961C179.502 205.107 180.004 204.247 180.523 203.396C181.563 201.691 182.61 199.997 183.704 198.325C184.649 196.882 185.624 195.46 186.642 194.068C187.906 204.749 189.03 215.439 189.546 226.188C190.114 238.027 190.415 249.883 190.579 261.734C190.625 265.045 190.656 268.356 190.691 271.667C190.71 273.391 190.728 275.114 190.714 276.838C190.7 278.487 190.451 280.291 191.036 281.851C191.377 282.761 192.569 282.777 192.906 281.851Z" fill="black"/>
<path fill-rule="evenodd" clip-rule="evenodd" d="M147.084 47.5652C147.985 47.4209 148.71 48.6885 147.755 49.1586C143.693 51.1607 139.428 52.667 135.291 54.492C137.404 54.7456 139.559 55.1464 141.641 55.7667C144.037 54.7816 146.497 53.9835 149.03 53.4194L149.833 53.2413C152.413 52.6753 155.316 52.1399 157.822 53.0073C158.682 53.3051 158.63 54.3927 157.822 54.7078C156.367 55.2751 154.76 55.4239 153.221 55.6018C151.671 55.7808 150.137 55.9994 148.61 56.3219C147.497 56.5567 146.389 56.8295 145.292 57.1396C145.98 57.4611 146.651 57.8134 147.299 58.2037C150.787 60.3075 153.962 62.7095 156.618 65.8269C159.197 68.8524 161.226 72.2788 162.607 76.0083C162.968 76.9848 163.2 78.0225 163.35 79.0528C163.47 79.8779 163.395 80.6863 163.416 81.5003C163.459 81.5172 163.496 81.5499 163.508 81.5994C164.002 83.5613 164.065 85.6934 164.221 87.7106C164.383 89.8029 164.549 91.8947 164.687 93.9889C164.825 96.0724 164.804 98.2466 165.193 100.3C165.547 102.165 166.6 103.821 167.192 105.627C170.745 116.459 167.277 129.439 158.636 136.92C154.274 140.697 148.835 143.091 143.128 143.881C140.161 144.291 137.215 144.28 134.252 143.843C132.845 143.636 131.455 143.324 130.098 142.9L129.594 142.744C129.031 142.568 128.459 142.378 127.939 142.118C127.197 141.748 126.876 141.125 126.615 140.368C126.457 139.909 126.712 139.203 127.17 139.003L127.32 138.939C128.105 138.61 128.737 138.468 129.594 138.791C130.284 139.051 130.985 139.282 131.695 139.483C133.102 139.882 134.546 140.179 136.003 140.322C138.938 140.61 141.908 140.463 144.788 139.818C149.962 138.658 154.701 136.056 158.29 132.13C161.796 128.295 163.992 123.402 164.834 118.294C165.252 115.759 165.286 113.098 164.951 110.552C164.776 109.23 164.48 107.919 164.097 106.643C163.88 105.923 163.601 105.225 163.375 104.509C163.17 103.86 163.107 103.167 163.013 102.49L162.991 102.335C162.737 100.614 162.824 98.8616 162.826 97.1279C162.828 95.3841 162.818 93.6398 162.835 91.8959L162.852 89.9242C162.858 89.2668 162.865 88.6093 162.877 87.9521C162.637 87.9904 162.338 87.8135 162.315 87.5271C162.23 86.4674 161.99 85.4383 161.858 84.3845L161.822 84.1073C161.697 83.1388 161.545 82.1893 161.14 81.2933C160.319 79.4742 159.741 77.5548 158.962 75.7177C157.415 72.0681 155.109 68.7005 152.254 65.9516C148.827 62.6516 144.581 60.3082 140.03 58.9712C139.885 59.0318 139.739 59.0897 139.595 59.1516C136.713 60.3957 133.977 61.9962 131.38 63.7544C130.041 64.6607 128.752 65.639 127.522 66.6892C126.924 67.2005 126.323 67.7113 125.738 68.2384C125.488 68.4637 125.24 68.6922 124.995 68.9236C124.832 69.0775 124.67 69.2328 124.509 69.3895C124.138 69.6498 124.13 70.0163 124.485 70.4881C124.611 70.4361 124.692 70.6438 124.576 70.7055C123.874 71.0784 123.323 70.2816 123.472 69.6211C123.59 69.0981 124.075 68.618 124.416 68.2074L124.462 68.1518C124.992 67.4964 125.535 66.8456 126.112 66.2298C129.147 62.9855 132.731 60.3031 136.615 58.1665C134.982 57.8738 133.327 57.7056 131.672 57.6642C130.72 57.6407 129.771 57.6561 128.826 57.709C127.354 58.5096 125.9 59.3431 124.474 60.2276C123.284 60.9659 122.111 61.7324 120.959 62.5282C120.358 62.9426 119.765 63.3666 119.174 63.794C118.876 64.0097 118.421 64.2657 118.181 64.5364L118.163 64.5587C117.996 64.7775 117.512 65.7323 118.141 65.7058C118.208 65.7031 118.221 65.8071 118.157 65.8227C117.583 65.9622 117.509 65.3706 117.607 64.9245C117.852 63.8118 119.337 62.9127 120.172 62.2187L120.225 62.1737C121.914 60.738 123.659 59.3674 125.452 58.063C119.864 58.9215 114.547 61.1164 109.925 64.4872C103.985 68.8184 99.5208 74.9232 96.5464 81.6009C95.133 84.7741 93.9609 88.1557 93.5415 91.6142C93.1657 94.7139 93.5658 98.1139 95.9831 100.305C96.1147 100.292 96.2464 100.279 96.378 100.27L96.583 100.257C98.3047 100.165 101.895 100.282 101.779 102.653C101.775 102.752 101.625 102.813 101.576 102.708C101.012 101.481 99.3629 101.701 98.1878 101.895L97.5266 102.004C96.1537 102.232 94.7508 102.526 93.5438 103.24C92.3861 103.926 91.3718 105.021 91.1483 106.393C90.9277 107.745 91.8245 108.765 92.5973 109.759C93.4735 110.887 94.1778 112.053 94.2619 113.517C94.346 114.991 93.6241 116.475 93.8335 117.932C94.3006 121.187 99.0357 120.138 101.071 119.638C101.682 119.488 102.523 119.721 102.804 120.344C104.151 123.321 105.982 126.039 108.289 128.357C109.429 129.504 110.663 130.552 111.997 131.466C113.346 132.389 114.655 133.147 115.579 134.544C115.938 135.085 115.451 135.689 114.895 135.736C113.073 135.89 111.588 134.993 110.15 133.98C108.702 132.959 107.331 131.821 106.084 130.563C103.856 128.316 101.999 125.715 100.612 122.874L100.421 122.91C97.2954 123.485 93.8299 123.482 91.8009 120.623C90.8983 119.351 90.7978 117.861 91.0314 116.363C91.259 114.903 91.792 113.536 90.9681 112.173C90.2202 110.936 89.1556 109.917 88.7286 108.497C88.316 107.125 88.5497 105.671 89.1655 104.402C90.344 101.974 92.7754 100.776 95.3208 100.387C92.2557 98.5404 91.2279 94.7637 91.2226 91.312C91.2159 86.989 92.7433 82.6204 94.4751 78.7204C97.7419 71.3633 103.253 64.8807 109.979 60.4658C116.22 56.369 123.745 54.1612 131.219 54.2276C133.139 53.0764 135.111 52.0105 137.117 51.0187L137.546 50.8084C140.618 49.3144 143.683 48.1103 147.084 47.5652ZM94.6156 107.419C94.9876 106.51 96.6231 106.513 97.395 106.544L97.5369 106.551C99.8858 106.674 103.779 107.633 104.26 110.26C104.341 110.699 104.059 111.278 103.525 111.226C102.752 111.151 102.166 111.009 101.531 110.554L101.209 110.324C100.675 109.944 100.142 109.58 99.5563 109.267C98.8376 108.885 98.0964 108.608 97.3141 108.387C96.9934 108.296 96.6704 108.202 96.3482 108.116C96.135 108.06 95.9204 108.011 95.7045 107.968C95.4511 107.812 95.2864 107.909 95.2105 108.258C95.31 108.292 95.3009 108.465 95.1841 108.453C94.7204 108.403 94.435 107.859 94.6156 107.419ZM102.08 103.606C102.08 103.595 102.093 103.593 102.098 103.6L102.101 103.606V104.58C102.101 104.591 102.087 104.593 102.082 104.587L102.08 104.58V103.606Z" fill="black"/>
<path fill-rule="evenodd" clip-rule="evenodd" d="M143.152 128.274C141.732 127.695 140.465 126.728 139.538 125.493C139.216 125.063 139.133 124.61 139.2 124.195C139.276 123.729 139.552 123.306 139.928 123.023C140.305 122.739 140.777 122.598 141.233 122.67C141.63 122.732 142.024 122.949 142.337 123.399L142.402 123.489C142.953 124.235 143.67 124.846 144.488 125.241C145.276 125.621 146.158 125.798 147.07 125.695C148.808 125.499 150.005 124.559 151.278 123.282C151.436 123.121 151.594 122.955 151.752 122.786C151.852 122.633 151.991 122.534 152.146 122.483C152.317 122.425 152.511 122.429 152.689 122.491C152.86 122.55 153.013 122.664 153.116 122.815C153.213 122.958 153.269 123.135 153.251 123.339C153.134 124.661 152.443 125.842 151.461 126.769C150.37 127.799 148.924 128.511 147.563 128.761C146.064 129.036 144.536 128.839 143.152 128.274ZM148.271 107.866C149.866 108.836 152.297 111.098 150.581 113.503C148.56 115.624 145.652 113.193 144.219 112.093C142.89 111.241 141.396 113.433 142.629 114.428C152.987 122.099 157.19 108.12 149.078 106.726C148.184 106.572 147.853 107.566 148.271 107.866ZM129.711 98.9429C129.887 96.7541 133.219 96.257 133.551 98.423C133.847 100.363 133.498 102.145 132.624 103.892C131.79 105.561 129.692 104.783 129.533 103.263C129.32 101.226 129.601 100.304 129.711 98.9429ZM155.076 97.9739C155.541 97.3652 156.212 96.9497 157.015 97.1845C159.526 97.9185 158.786 101.485 157.904 103.22C157.425 104.163 155.876 104.402 155.176 103.572C154.036 102.219 153.489 99.5157 154.94 98.1825C154.979 98.1136 155.023 98.044 155.076 97.9739ZM132.589 89.3654L132.986 89.2959C134.213 89.0836 135.738 88.8796 136.606 89.8665C137.067 90.3898 137.225 91.3624 136.606 91.8633C135.518 92.7446 134.314 92.4031 133.01 92.4777C131.935 92.5394 130.902 92.7174 129.867 93.0135C127.595 93.663 125.744 94.8486 123.804 96.1505C123.55 96.3213 123.29 95.9956 123.411 95.7574C124.531 93.563 126.701 91.7604 128.875 90.6616C130.036 90.0751 131.305 89.5885 132.589 89.3654ZM152.787 88.3823L153.091 88.4445C156.395 89.1353 160.687 90.5153 162.251 93.7615C162.311 94.2205 162.248 94.3189 162.197 94.3832L162.18 94.4046C162.137 94.4595 162.104 94.5351 161.905 94.5976C161.85 94.5844 161.794 94.5705 161.737 94.5557C161.02 94.3677 160.453 94.1087 159.904 93.84L159.308 93.5465C158.617 93.2076 157.92 92.881 157.181 92.6399C155.605 92.1255 153.983 91.7631 152.337 91.5696C151.98 91.5277 151.636 91.4072 151.365 91.2006C151.108 91.0046 150.911 90.7332 150.821 90.3724C150.705 89.9056 150.739 89.5521 150.989 89.1309C151.177 88.8146 151.447 88.5953 151.756 88.4694C152.071 88.3411 152.43 88.3108 152.787 88.3823Z" fill="black"/>
<path fill-rule="evenodd" clip-rule="evenodd" d="M148.503 116.101C146.153 115.042 141.934 115.966 140.403 116.333C136.842 117.187 133.26 119.034 132.153 121.926C130.905 125.186 133.394 126.212 133.76 126.044C136.225 126.218 139.161 124.668 141.744 124.267C143.841 123.94 146.053 123.654 148.018 122.539C149.453 123.329 152.693 123.755 155.307 124.446C157.534 125.033 158.499 126.307 160.564 126.036C163.038 125.712 162.025 120.506 159.268 118.397C156.25 116.088 151.145 115.152 148.503 116.101ZM153.155 138.361C151.099 138.863 150.961 134.355 150.731 132.763C150.551 131.519 149.537 128.311 146.964 128.449C144.392 128.588 143.425 131.276 143.555 132.947C143.64 134.031 144.639 139.523 141.451 140.217C139.419 140.21 137.068 140.073 134.931 139.679C132.416 139.109 129.146 137.114 128.282 141.043C127.971 142.457 139.05 146.658 143.966 147.038C148.951 148.049 154.784 146.495 158.334 142.679C159.142 141.811 161.416 138.208 161.578 137.326C161.918 135.471 161.13 134.277 158.836 134.931C157.216 135.797 154.477 138.039 153.155 138.361Z" fill="black"/>
</svg>
