<svg width="259" height="324" viewBox="0 0 259 324" fill="none" xmlns="http://www.w3.org/2000/svg">
<path fill-rule="evenodd" clip-rule="evenodd" d="M33.3896 193.294C32.7431 193.214 32.1093 192.984 31.4797 192.802C30.5184 192.521 29.5762 192.193 28.6487 191.819C26.7346 191.052 24.8776 190.145 23.1368 189.035C20.3248 187.241 17.8403 184.942 15.9663 182.173L15.8377 181.98C14.7679 180.35 12.7944 176.73 15.0072 175.492C13.5811 174.3 12.2332 172.159 12.3092 170.506C12.417 168.169 15.2818 168.201 16.7627 169.192C17.7325 169.841 18.4592 170.749 19.1881 171.644C19.9951 172.637 20.8571 173.584 21.7529 174.495C21.9906 174.735 22.2306 174.972 22.4748 175.204L22.7205 175.435C22.6825 175.344 22.6487 175.251 22.6191 175.156C22.1247 173.615 22.7142 171.61 24.2543 170.904C25.1968 170.472 26.1756 170.735 27.089 171.102L27.2289 171.159C28.4585 171.669 29.7029 172.119 30.9832 172.48C36.2015 173.954 41.648 174.199 46.9951 174.934C49.055 175.22 51.1529 175.579 53.2022 176.107C53.9838 172.787 55.9 169.604 57.9789 166.985C67.9338 154.458 84.3514 150.318 99.3705 147.638C100.739 147.395 101.874 149.209 102.671 148.78C104.181 147.968 105.51 146.818 106.676 145.569C109.163 142.904 110.927 139.77 112.999 136.8C114.024 135.333 116.382 136.646 115.431 138.221L114.965 138.99C113.048 142.142 110.924 145.39 108.174 147.835C106.712 149.133 105.09 150.158 103.235 150.798C101.83 151.282 99.8586 151.69 98.3205 151.22L98.136 150.952C98.197 151.041 98.2585 151.131 98.3205 151.221C102.335 157.039 107.371 161.964 112.678 166.611C118.035 171.3 123.814 175.498 129.627 179.603L130.112 179.945C139.583 173.034 147.584 164.02 153.197 153.721C152.021 153.579 150.856 152.825 149.851 152.263C148.64 151.582 147.502 150.77 146.614 149.688C144.681 147.332 144.933 144.295 144.584 141.435C144.563 141.258 144.797 141.213 144.905 141.302C145.953 142.173 146.321 143.599 146.758 144.832C147.24 146.186 147.785 147.302 148.89 148.255C149.918 149.143 151.173 149.796 152.392 150.377C153.021 150.676 156.142 151.442 156.497 152.077C161.889 150.811 167.141 152.998 171.136 156.688C174.996 160.254 177.829 164.889 180.33 169.464C182.999 174.347 185.185 179.436 187.07 184.667C188.98 189.976 190.444 195.401 191.249 200.989C191.928 205.701 192.345 210.486 192.614 215.25L192.647 215.845C196.636 209.583 200.724 203.386 204.897 197.244C203.948 194.71 204.998 192.123 206.775 190.166C208.744 188 211.467 186.994 214.072 185.823L214.414 185.668C215.67 185.095 216.921 184.464 218.006 183.606C219.049 182.777 219.816 181.636 220.915 180.873C222.512 179.761 225.411 179.998 225.485 182.427C225.523 183.76 224.95 185.223 224.426 186.421C223.832 187.776 223.032 189.004 222.081 190.132C222.037 190.185 221.989 190.226 221.94 190.259L221.904 190.282C223.218 190.5 224.542 190.676 225.892 190.737C228.616 190.862 231.368 190.661 234.035 190.086C236.764 189.498 239.409 188.543 241.864 187.212C243.962 186.074 245.906 184.603 248.289 184.257C248.508 184.223 248.73 184.202 248.959 184.189C249.339 184.168 249.719 184.616 249.569 184.992C249.487 185.199 249.4 185.404 249.305 185.612C248.481 187.427 247.217 189.188 245.641 190.525L245.519 190.627C246.075 190.435 246.622 190.219 247.161 189.976C250.328 188.549 253.201 186.394 256.596 185.527C256.756 185.485 256.919 185.447 257.082 185.411C258.132 185.185 258.685 186.326 258.068 187.108C257.969 187.235 257.87 187.359 257.766 187.484C256.252 189.365 254.58 191.111 252.738 192.679C252.106 193.216 251.456 193.736 250.792 194.233C250.513 194.443 250.232 194.649 249.948 194.852L249.808 194.951C250.139 194.717 250.467 194.478 250.792 194.233C252.871 193.603 254.921 192.857 256.925 192.03C257.722 191.703 258.341 192.51 258.425 193.174C258.709 195.397 256.241 197.006 254.635 198.075C253.025 199.149 251.253 199.965 249.438 200.619C245.949 201.881 242.284 202.454 238.625 202.967L236.848 203.215C229.813 204.199 222.466 205.375 217.418 210.851C214.589 213.92 212.675 217.733 210.924 221.484C209.175 225.231 207.639 229.078 206.181 232.946C204.67 236.948 203.354 241.025 201.956 245.069C200.671 248.781 199.137 252.446 197.617 256.074L197.378 256.646C194.151 264.357 190.298 271.618 184.928 278.056C184.042 279.119 182.612 277.61 183.43 276.558C189.047 269.313 192.956 260.764 196.182 252.235C197.65 248.355 198.88 244.382 200.291 240.48L201.131 238.162C202.252 235.073 203.383 231.987 204.563 228.922C206.056 225.043 207.698 221.211 209.576 217.504L209.775 217.114C211.614 213.538 213.799 210.013 216.806 207.307C222.218 202.433 229.419 201.264 236.383 200.338L238.573 200.049C241.517 199.658 244.469 199.226 247.332 198.438C248.984 197.986 250.598 197.407 252.115 196.608C252.719 196.291 253.309 195.943 253.879 195.562C252.252 196.04 250.602 196.431 248.923 196.737C248.101 196.887 247.287 196.999 246.476 197.077C244.387 197.284 242.314 197.276 240.174 197.164C239.992 197.153 239.933 196.868 240.128 196.832C241.618 196.567 243.11 196.236 244.596 195.876L245.042 195.767C245.05 195.52 245.147 195.258 245.35 195.008C246.09 194.108 247.494 193.647 248.468 193.011C249.489 192.345 250.478 191.627 251.42 190.857C252.282 190.154 253.11 189.409 253.906 188.632L254.145 188.397C254.066 188.476 253.986 188.554 253.906 188.632C251.756 189.625 249.717 190.9 247.471 191.686C245.686 192.314 243.814 192.736 241.925 192.886L241.808 192.896L241.691 192.903C239.72 193.045 237.736 192.988 235.794 193.415C235.577 193.463 235.509 193.172 235.704 193.089C237.4 192.383 239.164 192.111 240.947 191.781C240.985 191.641 241.082 191.517 241.251 191.436L241.708 191.218C243.066 190.566 244.333 189.907 245.462 188.847C246.459 187.911 247.29 186.816 247.913 185.603C245.418 186.151 243.227 188.042 240.958 189.105C238.486 190.266 235.87 191.098 233.183 191.572L232.877 191.624C227.855 192.462 221.816 192.356 217.317 189.743C217.173 189.659 217.277 189.467 217.425 189.49C218.701 189.699 219.964 189.946 221.228 190.166C220.98 189.94 220.87 189.534 221.156 189.209C222.29 187.908 223.188 186.421 223.761 184.794L223.871 184.476C224.135 183.721 224.582 182.549 224.126 181.869C223.691 181.22 222.666 181.308 222.054 181.583C220.78 182.158 219.932 183.593 218.859 184.46C217.689 185.407 216.358 186.108 214.995 186.736L214.707 186.867C212.35 187.927 209.832 188.82 207.979 190.692C206.982 191.698 206.124 192.956 205.837 194.366C205.706 195.012 205.706 195.678 205.879 196.319C206.016 196.819 206.304 197.128 206.139 197.637C205.923 198.295 205.161 199.081 204.768 199.666C204.311 200.343 203.857 201.021 203.403 201.7C202.497 203.056 201.594 204.418 200.692 205.777C198.888 208.499 197.103 211.234 195.332 213.977C194.756 214.87 194.182 215.764 193.61 216.66L192.753 218.003L192.3 218.711L191.528 219.926C191.555 220.038 191.553 220.157 191.517 220.26C191.385 220.635 191.139 220.892 190.832 221.078L190.778 221.11C186.269 228.239 181.832 235.414 177.351 242.56C177.113 244.741 176.889 246.924 176.694 249.107C176.253 254.049 175.951 259.003 175.854 263.963C175.807 266.364 175.999 268.78 176.103 271.179C176.154 272.324 176.223 273.467 176.314 274.61L176.38 275.421C176.469 276.534 176.52 277.639 176.12 278.701C175.765 279.633 174.683 279.842 174.043 279.132C165.692 278.796 157.334 278.54 148.976 278.382C134.016 278.094 119.05 278.139 104.088 278.428C96.5733 278.574 89.0564 278.779 81.5437 279.033C77.8423 279.155 74.1388 279.329 70.4353 279.379C68.4399 279.406 65.2995 278.68 65.1385 276.434L65.1346 276.365C64.8853 276.433 64.6275 276.488 64.3635 276.528C64.2459 276.546 64.133 276.541 64.0287 276.517L63.9768 276.503C61.0025 277.41 57.24 276.116 54.4137 275.362L54.1804 275.3C51.4825 274.596 49.3149 273.59 47.5466 271.354C44.4515 267.438 43.3952 262.179 42.8459 257.333C42.3304 252.772 42.3008 248.127 42.9283 243.575C42.5585 239.865 42.9198 236.038 43.3402 232.35C43.5473 230.526 43.7902 228.704 44.0818 226.89C44.2445 225.878 44.4578 224.876 44.6754 223.876C44.7623 223.477 44.8347 223.047 44.9448 222.631L44.9944 222.454C44.6564 222.498 44.2867 222.425 43.9296 222.228C43.0804 221.761 42.8332 220.816 42.8184 219.912C42.7719 217.185 43.0973 214.381 43.3846 211.671C43.674 208.966 44.0712 206.25 44.5909 203.578L44.7254 202.89C45.1192 200.891 45.5698 198.828 46.3635 196.95C43.3825 196.443 40.41 195.904 37.5177 194.987C36.1065 194.537 34.7163 193.977 33.3896 193.294ZM188.98 221.668C188.933 221.679 188.889 221.691 188.844 221.704C187.653 222.038 186.449 222.321 185.249 222.625C183.174 223.147 181.146 223.731 179.217 224.637C178.813 229.74 178.214 234.825 177.644 239.913L177.531 240.931C178.406 239.307 179.301 237.697 180.237 236.105C183.087 231.255 186.003 226.442 188.98 221.668ZM45.7212 222.173C45.7276 222.78 45.6008 223.41 45.5332 223.993C45.4233 224.94 45.3346 225.891 45.2226 226.838C44.9945 228.74 44.8001 230.644 44.6585 232.555C44.5677 233.774 44.5085 234.998 44.4557 236.222C45.6536 231.743 47.2403 227.362 48.7487 222.974C48.4966 222.947 48.2388 222.886 47.9729 222.815L47.5253 222.695C47.2614 222.627 46.4052 222.416 45.7212 222.173ZM192.753 218.003L192.761 218.204C192.793 218.916 192.366 219.318 191.849 219.421C192.149 218.948 192.451 218.475 192.753 218.003ZM55.6825 184.246C56.9437 184.358 58.1797 184.627 59.3585 185.092L59.4723 185.136C60.3442 185.473 61.6191 185.896 61.9043 186.827C61.9846 187.091 61.7691 187.309 61.5219 187.33C60.5754 187.406 59.4599 186.391 58.5832 186.049C57.6071 185.669 56.5846 185.385 55.5494 185.235C53.2233 184.895 50.798 185.153 48.6092 186.001C48.4804 186.051 48.4001 185.846 48.5163 185.785C50.7219 184.584 53.1747 184.024 55.6825 184.246ZM28.9551 190.291C28.8092 190.162 28.6634 190.027 28.5198 189.892C27.3871 188.82 26.384 187.569 25.6414 186.194L25.4459 185.822C24.841 184.65 24.0982 182.981 25.5198 182.137C26.3691 181.632 27.3916 181.759 28.3381 182.065C28.3993 182.084 28.4606 182.105 28.5219 182.126C28.9444 182.275 29.3522 182.452 29.7155 182.621C31.2937 183.346 32.686 184.401 34.1437 185.331C35.7232 186.339 37.2829 186.983 39.1058 187.361L39.2775 187.395C40.9888 187.734 42.8437 187.951 44.0374 189.359C44.3374 189.714 44.0627 190.38 43.5451 190.204C40.2451 189.091 36.7529 188.845 33.7233 187.017C32.4684 186.26 31.281 185.392 29.9986 184.675C29.3184 184.295 28.616 183.962 27.8675 183.733L27.4586 183.613C27.2191 183.543 26.9331 183.474 26.7409 183.543C26.3749 183.669 26.4917 183.865 26.605 184.207L26.6162 184.242C27.5057 186.994 30.0409 189.297 32.3902 190.821C32.9289 191.172 33.4803 191.494 34.0423 191.792C37.8463 193.82 42.1026 194.764 46.283 195.885C46.283 195.885 48.7001 196.56 49.5008 196.813C50.3924 196.739 51.4086 197.054 52.0804 197.43C52.7332 197.796 53.2593 198.286 53.6565 198.863C53.6565 198.863 54.0388 199.182 54.1086 199.677C54.3093 200.136 54.4445 200.63 54.5121 201.146C54.5501 201.448 54.4741 201.68 54.3304 201.845C54.7625 208.48 52.9711 215.078 50.9514 221.383L50.7513 222.005L50.6227 222.399C48.4445 229.084 45.9452 235.721 44.8297 242.691C44.0839 247.347 44.1072 252.166 44.6543 256.843L44.6929 257.165C45.2321 261.588 46.2694 266.548 49.0804 270.107C50.5142 271.924 52.2129 272.731 54.3847 273.316L54.5036 273.347C56.4684 273.865 58.4966 274.599 60.5227 274.821C62.4029 275.025 63.979 274.326 65.6712 273.671L65.6733 273.669C69.2374 270.513 70.8557 265.918 72.0515 261.281C75.1508 249.281 74.7663 236.824 73.0085 224.648C72.0916 218.286 70.8452 211.98 69.6029 205.675C68.9818 202.524 68.3121 199.379 67.7564 196.217L67.4264 194.356C67.2443 193.323 67.0682 192.288 66.9177 191.248C66.7149 189.851 66.6536 188.478 66.5839 187.072C64.8769 184.242 62.3987 181.911 59.5276 180.239C57.4719 179.041 55.2959 178.21 53.0501 177.608C46.6297 175.877 39.6304 175.999 33.1698 174.668C30.9994 174.221 28.9392 173.558 26.8802 172.763L26.5994 172.654C25.655 172.286 24.6916 172.081 24.2226 173.195C23.8888 173.987 24.0874 174.812 24.5881 175.477C25.8156 177.109 28.2832 177.866 30.1402 178.453C31.2578 178.808 32.3987 179.089 33.5522 179.299C34.7057 179.508 35.8635 179.561 36.9705 179.969C37.3973 180.125 37.4818 180.803 36.9705 180.924C35.5677 181.251 34.1564 180.97 32.762 180.698C31.2304 180.395 29.7219 179.966 28.2557 179.423C27.9853 179.324 27.7054 179.218 27.4204 179.107L27.2057 179.022C27.4275 179.182 27.6494 179.341 27.8733 179.5C27.9325 179.542 27.8966 179.654 27.8184 179.626C24.3709 178.339 21.2341 176.018 18.8041 173.271L18.6832 173.134C17.8275 172.153 15.8775 169.185 14.2339 170.012C12.6904 170.787 15.3215 173.775 16.3213 174.996L16.4374 175.139C17.5741 175.169 18.6748 175.877 19.5959 176.447C21.1952 177.439 22.8663 178.293 24.5691 179.091C27.9536 180.683 31.5473 181.805 34.8959 183.477C34.9403 183.5 34.9065 183.557 34.8642 183.551C32.7325 183.211 30.6241 182.667 28.5642 181.993L28.4723 181.965L28.3804 181.934C27.0938 181.511 25.8241 181.034 24.5755 180.524C23.1874 179.958 21.8311 179.322 20.5149 178.601C19.3234 177.95 18.0008 176.777 16.6191 176.604C16.4712 176.585 16.3403 176.583 16.2262 176.593C14.6396 176.726 15.9515 179.356 16.3952 180.142C17.1199 181.433 17.9945 182.625 18.998 183.714C21.0325 185.924 23.498 187.676 26.1663 189.04C27.0769 189.505 28.0086 189.915 28.9551 190.291Z" fill="black"/>
<path fill-rule="evenodd" clip-rule="evenodd" d="M89.1501 61.0512C94.2381 55.6487 123.123 47.2924 137.737 49.0637L138.175 49.1205C139.341 49.2685 140.491 49.4925 141.625 49.7968C145.291 50.6534 149.078 51.9505 152.108 54.117C154.637 55.8894 162.615 58.7839 160.263 63.4205C161.135 65.073 161.461 67.1147 160.871 68.7423C160.797 69.3045 160.624 69.8223 160.402 70.3591C162.265 73.109 163.74 76.2188 164.934 79.1766C167.02 86.6206 168.318 94.3674 168.509 101.962C169.141 116.392 167.56 133.627 154.997 142.958C147.408 148.871 135.521 149.069 126.992 141.738C126.508 141.165 124.232 139.619 124.992 139.348C125.218 139.587 125.45 139.819 125.687 140.048C125.676 140.022 125.674 139.997 125.679 139.969L125.456 139.768C125.037 139.38 124.494 138.817 125.112 138.927C125.14 138.959 125.169 138.987 125.199 139.018C125.33 139.097 125.429 139.165 125.506 139.225L125.545 139.257L125.533 139.244C125.177 138.864 124.963 138.477 125.496 138.724L125.566 138.758C125.803 139.008 126.044 139.247 126.289 139.479C126.285 139.452 126.289 139.424 126.304 139.395L126.075 139.174C125.852 138.955 125.886 138.954 125.995 138.777C125.521 138.113 126.406 138.508 126.468 138.767C127.022 138.636 127.508 139.676 127.865 139.802C143.499 151.826 166.186 141.157 165.819 107.653L165.813 106.998C165.705 96.2844 164.804 85.2732 160.375 75.5752C159.944 74.6411 159.462 73.7323 158.932 72.853C158.567 72.1936 158.176 71.5511 157.755 70.9255C156.578 70.8304 155.416 70.6148 154.271 70.2809C153.878 70.1816 153.49 70.0717 153.101 69.9427C147.422 70.2526 141.87 70.5897 136.175 70.9092L134.396 71.0201C129.572 71.3303 124.583 71.8273 120.69 74.8123C116.871 77.5298 116.853 82.8886 113.583 85.8722C108.921 89.038 108.887 91.8927 107.989 96.5581C108.055 100.075 110.493 105.185 106.02 106.665C106.775 107.741 105.723 107.224 105.64 106.847C105.631 106.849 105.623 106.851 105.617 106.851C106.289 108.101 105.301 107.314 105.213 106.912C105.16 106.897 105.107 106.859 105.055 106.806C105.732 107.902 104.637 107.135 104.702 106.935C103.393 104.922 100.698 104.61 98.7987 105.143C98.7755 105.215 98.6912 105.221 98.6384 105.183C90.5623 106.934 92.646 123.66 100.922 122.043C101.276 121.97 101.268 122.141 101.338 122.157C101.147 121.655 101.686 121.859 101.68 121.965L101.713 121.963C101.739 121.961 101.729 121.958 101.748 121.965C101.563 120.938 102.603 122.425 102.521 122.487C102.553 122.468 102.589 122.457 102.621 122.453L102.585 122.355C102.412 121.895 102.427 122.086 102.428 121.823C102.299 121.497 102.289 121.64 102.32 121.427C102.775 121.074 102.91 122.146 103.062 122.224C102.801 121.861 103.009 121.564 103.255 121.761C105.119 125.684 107.526 129.369 110.638 132.272C110.979 132.54 111.323 132.805 111.68 133.054C113.003 134.207 115.034 134.949 116.273 135.971C116.273 135.988 116.264 136.009 116.252 136.03L116.28 136.055L116.309 136.083L116.74 136.29C116.867 136.398 116.981 136.518 117.082 136.651C117.19 136.776 117.285 136.913 117.365 137.059C117.405 137.237 117.317 137.311 117.148 137.235C117.073 137.209 117 137.18 116.926 137.152C116.93 137.158 116.932 137.163 116.936 137.167C116.961 137.204 117.125 137.584 116.936 137.522L116.913 137.514C116.809 137.475 116.706 137.433 116.605 137.393C116.725 137.543 116.835 137.706 116.932 137.843C117.036 137.951 117.099 138.078 117.124 138.222C117.12 138.302 117.076 138.336 116.995 138.325C116.873 138.285 116.752 138.243 116.632 138.198L116.666 138.264C116.751 138.431 116.873 138.713 116.657 138.619C116.473 138.562 116.296 138.496 116.119 138.424C116.104 138.454 116.074 138.465 116.015 138.437C115.451 138.236 114.906 137.991 114.384 137.702C113.926 137.368 113.463 137.04 113.002 136.708C112.569 136.448 112.151 136.159 111.752 135.833C109.08 134.107 106.741 131.914 104.886 129.472C101.782 132.16 95.5775 129.592 91.7394 127.487C88.3446 125.606 87.0102 122.128 86.6652 118.378C85.948 113.33 81.824 111.602 82.1109 100.525C82.1046 100.527 82.098 100.527 82.0896 100.527C81.9396 100.483 81.794 100.424 81.6567 100.348C81.5151 100.28 81.382 100.2 81.2572 100.102L81.103 99.889C81.0229 99.8446 80.9511 99.7981 80.8961 99.7516L80.8676 99.7883C80.7775 99.8972 80.8381 99.7334 80.8433 99.7009L80.5754 99.3364C79.9401 98.4687 79.2432 97.4952 78.6755 96.7166L78.6576 96.7482C78.6448 96.7721 78.638 96.7894 78.644 96.7969C77.293 94.855 76.0224 92.5095 75.6694 90.2387C75.2525 88.4896 75.4154 86.6872 75.779 85.067C77.338 79.3933 82.4447 66.5542 89.1501 61.0512ZM125.815 139.516L125.731 139.44L125.805 139.534C125.844 139.582 125.884 139.625 125.949 139.669C125.945 139.655 125.945 139.64 125.947 139.623C125.903 139.59 125.859 139.554 125.815 139.516ZM137.672 51.9146C127.762 51.0622 118.015 53.2463 108.558 55.8901L107.905 56.0776C102.528 57.6126 96.8424 58.9938 92.2982 62.2792C85.9494 67.1438 82.671 74.8826 79.81 82.0278C77.3118 87.3364 78.5889 93.3225 82.3537 97.0294C82.7454 93.3458 83.4132 89.7699 84.4568 86.2228C84.6747 85.6687 84.5099 85.4871 84.9793 85.4149C85.6883 94.9738 82.1963 102.036 89.1068 113.365C92.1054 118.711 88.6342 122.622 97.1018 125.435L97.331 125.522C99.0951 126.188 101.022 126.714 102.749 126.342L102.595 126.09C102.437 125.83 102.389 125.704 102.618 125.593C102.612 125.581 102.604 125.568 102.595 125.553C102.41 125.202 102.23 124.847 102.059 124.488C101.989 124.511 101.919 124.528 101.847 124.547C101.894 124.634 101.9 124.721 101.769 124.75C101.304 124.91 100.826 124.974 100.336 124.944L100.231 124.936C99.6785 124.902 99.3301 124.801 99.0185 124.708C98.9151 124.691 98.8116 124.674 98.71 124.653C97.7075 124.431 96.6463 123.865 95.9595 123.304C88.1304 118.856 88.9395 103.713 98.5898 102.281C98.7878 92.747 103.321 76.6616 110.844 67.5763C117.644 59.2193 136.209 55.5971 149.125 56.8743C149.314 56.9367 149.502 56.9997 149.69 57.0633C151.683 57.2404 153.582 58.1285 155.576 58.541C154.144 57.4676 152.52 56.7526 150.847 56.145C147.514 54.1052 143.692 53.0015 140 52.2231C139.236 52.035 138.46 51.9315 137.672 51.9146ZM98.1481 109.941C98.667 109.659 98.6076 109.931 98.727 109.852C102.459 109.547 106.484 112.816 108.57 115.542C108.405 115.713 107.959 115.205 107.881 115.125C107.871 115.136 107.858 115.144 107.845 115.148L107.903 115.23C108.749 116.444 107.073 115.016 106.916 114.722C106.888 114.736 106.861 114.745 106.829 114.738C106.962 114.869 107.368 115.209 107.438 115.451L107.545 115.54C108.56 116.409 108.476 117.063 107.324 115.829C107.351 115.886 107.361 115.939 107.342 115.981L107.382 116.008C107.949 116.404 108.414 117.507 107.23 116.374C107.354 117.202 106.057 115.602 106.016 115.613C103.772 113.852 100.47 112.139 97.6558 111.908L97.559 111.897C97.0426 111.831 96.7985 111.678 96.9798 111.34C96.3439 111.189 96.4928 110.875 96.7939 110.885C96.3454 110.59 96.7491 110.308 97.0094 110.418C96.8304 109.923 97.5481 110.253 97.6136 110.184C97.9861 109.609 98.0864 110.088 98.1481 109.941ZM90.3249 79.221C92.1175 78.5641 97.4125 80.5305 96.9889 83.1348C96.7366 83.7327 95.9055 84.0753 95.3214 83.7378L94.5589 83.2255C93.2321 82.3366 92.0355 81.5571 90.6109 80.7818C89.8356 80.397 89.5018 79.5799 90.3249 79.221ZM100.524 75.3509L99.8315 74.9002C96.0954 72.4541 90.8139 68.7477 100.18 72.5824C101.248 73.0404 102.666 73.3114 103.249 74.3284C104.164 76.2029 101.756 76.3288 100.524 75.3509ZM100.944 64.3757C100.644 63.2376 104.374 64.5731 105.46 64.9252L105.626 64.9877C106.682 65.3815 107.893 65.7468 108.525 66.6587C109.265 67.9188 107.767 68.1798 106.838 67.6106C104.936 66.3666 102.849 65.428 100.944 64.3757ZM110.43 59.074C108.33 56.7802 113.949 58.9776 114.791 59.5876L114.815 59.6056C115.443 60.0479 115.316 61.0007 114.726 61.2805C113.047 61.3124 111.811 59.9124 110.43 59.074ZM119.984 56.5608C116.646 54.1609 121.043 55.3024 122.571 56.2429C123.612 57.1613 122.539 58.7115 119.984 56.5608Z" fill="black"/>
<path fill-rule="evenodd" clip-rule="evenodd" d="M152.125 125.777C153.461 125.466 154.509 126.597 154.247 127.899C153.969 129.278 152.487 129.751 151.244 129.707C149.835 129.659 148.428 129.368 147.012 129.309C145.557 129.249 144.097 129.238 142.642 129.277C141.295 129.314 139.914 129.551 138.578 129.338C138.058 129.255 138.107 128.568 138.446 128.324C139.45 127.599 140.753 127.304 141.937 126.999C143.145 126.689 144.379 126.452 145.617 126.307C146.873 126.16 148.139 126.086 149.403 126.072C149.978 126.065 150.683 126.193 151.244 126.09C151.53 126.037 151.821 125.848 152.125 125.777ZM148.271 107.866C149.866 108.836 152.297 111.098 150.581 113.503C148.561 115.624 145.652 113.193 144.219 112.093C142.89 111.241 141.396 113.433 142.629 114.428C152.987 122.099 157.19 108.12 149.078 106.726C148.185 106.572 147.853 107.566 148.271 107.866ZM136.703 100.622C138.837 100.267 139.21 103.31 137.095 103.523C136.651 103.568 136.21 103.607 135.769 103.645C135.812 103.783 135.841 103.925 135.856 104.071C135.877 104.195 135.892 104.326 135.905 104.476C135.972 105.225 135.441 106.004 134.821 106.367C134.177 106.744 133.252 106.794 132.612 106.367C132.282 106.146 131.952 105.897 131.77 105.533C131.526 105.158 131.393 104.724 131.38 104.279C130.407 104.532 129.416 104.874 128.434 105.055C128.47 105.09 128.505 105.128 128.54 105.17C128.566 105.202 128.53 105.261 128.492 105.232L127.999 105.123C127.847 105.143 127.695 105.159 127.544 105.168L127.548 105.155C127.295 105.151 127.088 104.852 127.314 104.612C128.182 103.694 129.537 103.084 130.772 102.574L131.962 102.086C133.483 101.468 135.089 100.891 136.703 100.622ZM153.87 101.564C155.268 101.404 156.652 101.467 158.052 101.553C160.409 101.696 159.42 105.134 157.529 104.34C157.548 104.466 157.553 104.592 157.539 104.709C157.465 105.313 157.268 105.824 156.714 106.149C156.199 106.45 155.546 106.449 155.031 106.149C154.48 105.827 154.231 105.374 154.091 104.785C153.982 104.328 154.025 103.946 154.088 103.493C154.109 103.344 154.174 103.204 154.265 103.078C154.133 103.045 154.001 103.013 153.869 102.984C152.693 102.716 151.533 102.77 150.36 102.6C150.235 102.582 150.215 102.38 150.325 102.329C151.378 101.834 152.718 101.695 153.87 101.564ZM136.487 90.9473C137.294 90.6394 138.307 91.1515 138.719 91.8559C139.186 92.6552 138.987 93.578 138.41 94.2516C137.525 95.2848 135.84 95.9213 134.598 96.5109L134.499 96.5587C133.223 97.1741 131.913 97.7393 130.586 98.2317C129.28 98.7163 127.921 99.0959 126.567 99.4218C125.854 99.5936 125.125 99.7357 124.395 99.8253C123.819 99.8959 123.375 99.7378 122.824 99.7378C122.744 99.738 122.718 99.6313 122.784 99.5903C123.299 99.2665 123.681 98.8402 124.243 98.5403C124.827 98.2281 125.414 97.9212 126.003 97.6173C127.194 97.0031 128.341 96.3196 129.49 95.6317C130.701 94.9065 131.884 94.1429 133.035 93.3254C134.162 92.5255 135.2 91.4387 136.487 90.9473ZM150.861 90.2896C151.869 90.0941 152.866 90.5709 153.164 91.5979C153.45 92.5817 153.151 92.7926 153.914 93.4966C154.522 94.0577 155.177 94.5585 155.838 95.0516L156.812 95.7755C158.575 97.0811 160.352 98.3156 162.38 99.1965C162.551 99.2709 162.452 99.5256 162.289 99.529C159.067 99.5911 155.977 99.1547 153.068 97.7114C151.709 97.0372 150.344 96.1844 149.556 94.8385C148.644 93.28 148.671 90.7144 150.861 90.2896Z" fill="black"/>
</svg>
