<svg width="240" height="324" viewBox="0 0 240 324" fill="none" xmlns="http://www.w3.org/2000/svg">
<path fill-rule="evenodd" clip-rule="evenodd" d="M143.444 141.467C143.474 141.38 143.613 141.365 143.634 141.467C143.974 143.024 144.612 144.732 145.259 146.193C145.916 147.672 146.814 149.031 147.948 150.185C150.325 152.603 153.382 153.706 156.735 153.708L156.815 153.71C156.83 153.598 156.848 153.485 156.864 153.372L156.887 153.203C157.193 150.887 159.942 150.954 160.478 152.702C160.751 152.789 161.023 152.875 161.294 152.966L161.348 152.986C161.803 153.159 163.345 153.927 163.628 153.723C164.252 153.275 164.964 153.788 165.2 154.361C165.587 155.299 165.652 156.458 165.777 157.475L165.794 157.607L165.813 157.766C174.633 160.059 179.583 168.887 182.11 177.02C183.479 181.429 184.375 185.977 185.275 190.5C186.238 195.338 187.126 200.188 188.066 205.028C189.919 214.566 191.672 224.126 193.195 233.721L193.637 236.508C195.032 245.331 196.392 254.149 197.535 263.012C198.152 267.791 198.73 272.574 199.288 277.361C199.388 278.214 199.487 279.068 199.585 279.923L199.732 281.205C199.863 282.355 200.085 283.492 199.516 284.568C198.285 286.901 194.554 286.884 194.342 283.896C194.3 283.302 194.501 282.847 194.833 282.53L194.828 282.48C194.825 282.45 194.821 282.428 194.82 282.418C194.71 281.824 194.68 281.197 194.613 280.596C194.465 279.316 194.321 278.035 194.176 276.752C193.895 274.309 193.611 271.866 193.318 269.425C192.724 264.473 192.097 259.527 191.431 254.586L190.772 249.7C188.566 233.414 186.267 217.131 183.242 200.975C182.419 196.576 181.572 192.184 180.703 187.795C179.879 183.637 178.954 179.499 177.572 175.486C175.316 168.93 171.371 162.79 165.895 158.487C165.98 159.309 166.041 160.135 166.119 160.957C166.32 163.069 166.533 165.178 166.749 167.287C167.533 174.93 168.595 182.56 170.408 190.033C171.306 193.736 172.4 197.39 173.733 200.96C174.39 202.718 175.107 204.453 175.892 206.157C176.67 207.841 178.033 209.642 178.115 211.519C178.153 212.387 177.245 213.159 176.404 213.066C176.797 216.524 177.019 220.017 177.253 223.466C177.595 228.463 177.868 233.468 178.267 238.46C178.981 247.402 179.877 256.331 180.815 265.252C181.001 267.021 181.203 268.788 181.403 270.555L181.57 272.039C181.683 273.001 181.854 274.153 181.343 275.006C181.8 276.107 182.112 277.238 182.294 278.417C182.524 279.884 181.686 281.529 179.974 281.465C179.78 281.459 179.585 281.442 179.391 281.421C177.804 281.789 176.222 282.112 174.574 282.122C172.47 282.137 170.361 282.095 168.257 282.08C164.186 282.053 160.115 282.025 156.044 281.991C141.306 281.873 126.561 281.879 111.826 281.643L105.93 281.549C100.525 281.462 95.1188 281.362 89.7164 281.165C85.996 281.03 82.2758 280.892 78.5572 280.742L77.8002 280.713C74.5192 280.594 71.2344 280.533 67.9896 280.03C67.9083 280.016 67.8731 279.932 67.8857 279.858L67.8903 279.838L67.7488 279.806C67.6664 280.161 65.9551 278.669 65.9678 277.678C65.2579 276.754 65.5896 275.279 65.6657 274.21C65.7396 273.168 65.8326 272.123 65.915 271.082C66.0903 268.856 66.2403 266.628 66.4199 264.403C67.1446 255.429 67.7699 246.432 68.1756 237.439C68.3805 232.905 68.5453 228.37 68.7185 223.836C68.7965 221.772 68.9051 219.706 69.1075 217.652L69.1601 217.138C69.3819 215.055 69.3608 212.814 70.1277 210.851C70.1382 210.823 70.1741 210.823 70.1847 210.851C70.9601 212.762 71.034 214.983 71.1903 217.079C71.2178 217.071 71.2453 217.067 71.2748 217.06C72.346 216.551 73.4277 216.092 74.4417 215.463C74.5791 215.378 74.7122 215.289 74.8474 215.203C76.4425 210.32 78.291 205.519 79.9917 200.668C85.4868 184.984 88.5206 168.281 89.1925 151.673C85.0009 154.376 80.4359 156.479 75.9982 158.737L75.5826 158.95C71.2115 161.186 67.0263 163.724 63.9143 167.602C61.2016 170.98 59.4291 175.095 57.7706 179.062C55.9896 183.325 54.384 187.664 52.9157 192.043C49.9368 200.928 47.6298 210.031 45.8298 219.227C44.053 228.302 42.7833 237.445 41.934 246.652C41.5009 251.348 41.1058 256.048 40.7741 260.755C40.6051 263.137 40.4551 265.521 40.3157 267.907C40.2481 269.065 40.1974 270.226 40.1213 271.384C40.0748 272.052 40.0664 272.74 39.8467 273.374C39.6629 273.903 39.3375 274.345 39.0333 274.812C38.4777 275.664 37.0748 275.818 36.553 274.812L36.3271 274.376C36.028 273.796 35.7548 273.212 35.7143 272.542C35.6763 271.908 35.7544 271.246 35.7903 270.61C35.8601 269.323 35.9403 268.034 36.0206 266.747C36.1896 264.039 36.3777 261.332 36.5889 258.627C37.0094 253.208 37.5502 247.803 38.2305 242.41C40.6241 223.466 44.0805 204.622 50.6763 186.645C52.3072 182.2 54.1263 177.791 56.1798 173.524C58.1657 169.399 60.6777 165.504 64.3241 162.663C67.6808 160.048 71.5826 158.297 75.4594 156.598L75.9439 156.386C80.2896 154.486 84.627 152.44 89.165 151.028C89.0636 151.041 88.9643 151.054 88.8779 151.083C88.7784 151.115 88.7194 150.986 88.7807 150.916C89.0382 150.631 89.146 150.337 89.442 150.056C89.6463 149.862 89.8589 149.678 90.0776 149.501L90.3922 149.25C90.968 148.793 91.5733 148.326 92.2981 148.167C93.3229 147.943 93.8258 148.875 93.5382 149.604C93.6861 149.411 94.0833 149.468 94.1868 149.733C97.5587 158.432 99.7727 167.64 104.311 175.86C107.661 181.932 112.157 187.539 118.123 191.206C121.328 193.176 124.996 194.689 128.784 194.928C132.185 195.141 135.458 194.277 138.35 192.491C143.957 189.031 147.619 182.957 150.23 177.071C153.101 170.591 155.15 163.686 156.354 156.686C152.539 156.739 148.512 154.997 145.975 152.159C144.64 150.665 143.645 148.845 143.14 146.905C142.63 144.948 142.793 143.339 143.444 141.467ZM111.435 136.384C111.9 135.553 112.931 135.278 113.774 135.616C114.709 135.993 114.99 136.902 114.857 137.825C114.703 138.907 114.008 140.076 113.467 141.021C112.901 142.01 112.172 142.921 111.418 143.772C109.998 145.379 108.479 146.827 106.677 148.01C104.883 149.187 102.855 150.069 100.77 150.561L100.274 150.677C98.6524 151.048 96.3448 151.473 94.9938 150.591C94.9285 150.548 94.9304 150.462 94.9938 150.419C95.7248 149.91 96.7032 149.819 97.5438 149.579C98.4607 149.314 99.3799 149.014 100.256 148.638C101.987 147.894 103.643 146.913 105.118 145.742C106.599 144.567 108.031 143.166 109.022 141.549C109.521 140.738 109.945 139.886 110.353 139.028C110.765 138.167 110.972 137.212 111.435 136.384Z" fill="black"/>
<path fill-rule="evenodd" clip-rule="evenodd" d="M96.3471 45.9901C98.741 44.4388 101.813 43.8614 104.634 43.9744C106.138 44.0347 107.542 44.4098 108.929 44.9733C110.214 45.4957 111.348 46.2462 112.599 46.8181C112.675 46.8528 112.618 46.9595 112.546 46.945C111.064 46.6457 109.324 46.8265 107.821 47.0407L107.672 47.0623C106.195 47.2768 104.692 47.3877 103.236 47.7282C100.554 48.3553 98.0596 49.7217 96.5877 52.0983C94.6658 55.2022 94.1731 59.22 94.3787 62.8011C94.4827 64.613 94.8397 66.3955 95.3957 68.1229C95.7296 69.1596 96.5051 70.2026 96.8674 71.2904C97.1431 70.7755 97.4277 70.2658 97.7224 69.7621C96.3798 69.1291 96.0034 67.3698 95.9338 65.7822C95.727 65.5822 95.5939 65.2929 95.5895 65.0272C95.5777 64.3131 95.7456 63.6666 96.0312 63.075C96.1943 61.3994 96.54 59.7289 97.1349 58.1588C99.47 51.9943 105.63 46.4384 112.616 46.9872C114.536 47.1381 116.405 47.9537 117.397 49.6876C118.195 51.08 118.2 52.7596 117.65 54.2406C117.487 54.6802 117.275 55.0771 117.026 55.4391C117.78 55.2476 118.537 55.064 119.291 54.882C121.91 54.2505 124.542 53.7557 127.224 53.4805C130.876 53.106 134.603 53.6727 137.949 55.1308C138.867 55.3668 139.78 55.6205 140.688 55.8914C144.683 57.083 148.781 58.6394 152.008 61.3593C153.492 62.6107 154.555 64.0664 155.417 65.6651C158.647 68.546 161.736 71.8118 163.916 75.5476C168.409 83.2448 169.481 92.7659 169.666 101.516C169.836 109.555 169.13 117.676 167.624 125.574C166.94 129.159 165.835 132.49 163.599 135.43C161.11 138.703 157.789 141.282 154.063 143.013C146.478 146.536 137.089 147.049 129.716 142.684C127.499 141.371 129.495 137.949 131.735 139.228C139.015 143.383 148.305 142.434 155.309 138.029C158.267 136.168 160.817 133.623 162.437 130.507C163.62 128.23 164.127 125.62 164.567 123.079L164.801 121.719C166.158 113.904 166.771 105.888 166.445 97.9592C166.119 90.0505 164.865 81.4845 160.387 74.7608C158.025 71.2143 155.013 68.1075 151.849 65.2745C151.627 65.0754 151.404 64.8772 151.181 64.6796C149.945 63.9363 148.663 63.2872 147.402 62.7332L147.134 62.6172C146.409 62.3079 145.394 61.9083 144.453 61.5888C143.108 61.1321 141.74 60.7263 140.368 60.3606C139.648 60.1689 138.925 59.9931 138.2 59.8251C138.453 60.0569 138.704 60.2909 138.951 60.5308C140.12 61.6672 141.048 63.0177 142.156 64.2093C142.281 64.3437 142.123 64.5399 141.964 64.4581C140.278 63.5928 138.409 63.0327 136.649 62.3317C134.985 61.6689 133.368 60.9059 131.733 60.1746C131.323 59.9912 130.915 59.7953 130.508 59.6015C128.901 59.6179 127.293 59.6558 125.689 59.7473C127.628 61.128 129.399 62.7599 130.866 64.5494C130.987 64.6967 130.877 64.9328 130.673 64.8806C127.603 64.094 124.682 62.938 121.764 61.7266L120.368 61.1452C119.341 61.0932 118.313 61.0689 117.285 61.0841L116.787 61.0924C115.708 61.113 114.631 61.1557 113.561 61.3193C113.307 61.358 113.058 61.3948 112.81 61.4286C111.305 62.0432 109.856 62.7842 108.553 63.7608L108.892 63.7408C110.953 63.6235 113.054 63.801 115.05 64.3332C118.927 65.3677 122.236 67.8589 124.644 71.0353C124.716 71.1304 124.576 71.2627 124.481 71.198C121.452 69.1236 117.939 68.0787 114.34 67.5112C112.6 67.2367 110.808 67.1422 109.052 67.279C107.597 67.392 106.093 67.9046 104.646 67.6558C104.251 68.1472 103.873 68.6534 103.508 69.1708C103.7 69.1585 103.892 69.1473 104.086 69.1382C106.164 69.0406 108.28 69.1739 110.309 69.6524C114.362 70.6088 117.748 73.0427 120.847 75.7148C120.908 75.7676 120.829 75.8619 120.762 75.8239C117.403 73.8841 113.498 73.3043 109.692 72.9544C107.775 72.7781 105.837 72.6982 103.916 72.8512C103.036 72.9212 102.166 73.0664 101.288 73.1566C101.217 73.164 101.144 73.1659 101.071 73.1693C100.435 74.3689 99.8581 75.5901 99.338 76.8077C100.925 76.3816 102.638 76.158 104.277 76.2683C107.606 76.4926 110.908 78.0196 113.566 79.9727C113.649 80.0337 113.603 80.1965 113.49 80.1538C110.597 79.0605 107.73 79.0516 104.711 79.4735C103.295 79.6713 101.895 79.9397 100.527 80.3607C99.8398 80.5725 99.1601 80.8035 98.5077 81.1076C98.2115 81.2454 97.9231 81.406 97.6316 81.5576C97.3984 82.3497 97.1898 83.1493 97.0018 83.9537C101.936 84.232 106.585 86.5619 110.63 89.2359C110.728 89.3006 110.667 89.4807 110.546 89.435C108.131 88.5235 105.504 88.102 102.942 87.8567C100.703 87.6421 98.5046 87.7588 96.2776 87.8214C96.1582 88.6678 96.0617 89.5168 95.9917 90.3675C96.3498 90.4679 96.7012 90.5761 97.039 90.6778C98.15 91.0117 99.259 91.4612 100.296 91.9824C102.402 93.0411 104.108 94.4721 105.825 96.063C105.915 96.146 105.821 96.3274 105.7 96.2781C103.707 95.4722 101.529 94.9561 99.4314 94.4994C98.3457 94.2631 97.2596 94.045 96.1662 93.8448C96.0604 93.8254 95.9529 93.8091 95.8455 93.7931C95.8352 95.7325 95.9448 97.6725 96.1866 99.5967L96.2334 99.9573C96.3644 100.931 96.2573 101.873 95.6127 102.546C96.5043 101.953 97.5243 101.542 98.6548 101.385C101.632 100.971 104.388 102.16 106.262 104.462C106.349 104.57 106.214 104.711 106.108 104.616C104.29 102.998 101.488 102.711 99.2303 103.473C97.14 104.179 95.5686 105.862 94.9388 107.969C94.2695 110.208 94.576 112.68 95.7965 114.676C96.4046 115.671 97.2828 116.56 98.3818 116.997C98.5174 117.051 98.6556 117.096 98.7953 117.135C99.4586 116.893 100.173 117.002 100.855 117.31L100.943 117.352C101.378 117.349 101.812 117.336 102.233 117.34C103.052 117.347 103.446 118.218 103.102 118.866C103.297 119.223 103.44 119.625 103.612 119.975C103.921 120.607 104.245 121.235 104.571 121.858C105.032 122.387 105.472 122.935 105.77 123.573C105.893 123.835 106.009 124.118 106.098 124.403C106.354 124.788 106.614 125.171 106.88 125.553C107.742 126.784 108.65 127.951 109.657 129.07C110.262 129.742 110.958 130.342 111.599 130.986C111.793 131.012 111.983 131.144 112.043 131.334L112.096 131.516C112.302 131.749 112.5 131.988 112.677 132.244C113.072 132.81 112.964 133.384 112.617 133.799C113.166 137.226 112.792 140.872 112.058 144.195C111.583 146.343 111.028 148.488 110.284 150.559C109.906 151.612 109.447 152.624 108.814 153.549C108.467 154.056 108.015 154.646 107.508 155.128C107.431 155.69 107.331 156.246 107.187 156.792C105.486 163.259 98.5238 165.227 92.6941 166.053C91.5688 166.212 90.4553 165.941 89.8424 164.892C89.7008 164.65 89.6057 164.389 89.5546 164.121C89.3007 164.053 89.0565 163.934 88.8374 163.763C88.8008 164.168 88.7586 164.575 88.7051 164.986C88.5718 166.014 87.1853 166.323 86.8377 165.239C85.3711 160.665 84.5744 155.842 83.5694 151.142C82.5665 146.452 81.4466 141.786 80.4103 137.103L79.0982 131.193C75.8966 116.72 72.8979 102.063 73.6339 87.178C74.0357 79.0529 75.526 70.9489 78.7157 63.4404C81.3729 57.1855 85.8572 50.1583 93.1014 48.8794C93.1512 48.8708 93.1956 48.8759 93.237 48.8864C94.0973 47.7673 95.1251 46.7818 96.3471 45.9901ZM100.718 124.66C101.302 126.599 101.719 128.586 101.946 130.615C102.324 133.995 102.137 137.458 101.973 140.848C101.822 143.962 101.463 147.103 100.853 150.161C100.267 153.097 99.3488 155.975 97.9838 158.646C97.763 159.078 97.5257 159.499 97.2765 159.911C98.0313 159.66 98.7129 159.367 99.4227 158.96C100.316 158.449 101.134 157.79 101.581 157.094C102.299 155.978 102.54 154.739 102.645 153.409C102.915 149.989 103.04 146.559 103.212 143.133L103.25 142.387C103.529 137.034 103.894 131.545 103.348 126.187C102.581 125.985 101.889 125.589 101.25 125.092C101.074 124.955 100.896 124.81 100.718 124.66ZM94.8841 118.178C95.0453 119.806 95.1995 121.435 95.3391 123.065C95.8346 128.85 96.1407 134.667 95.8591 140.471C95.7124 143.494 95.4179 146.526 94.9088 149.51C94.6793 150.855 94.4019 152.2 94.0919 153.531L93.9874 153.974C93.6729 155.292 93.4724 156.939 92.465 157.898L92.4727 158.097C93.1798 157.023 93.8338 155.816 94.3022 154.692C96.3893 149.685 96.7707 144.235 97.1478 138.897C97.3802 135.607 97.5524 132.312 97.8213 129.025L97.9519 127.443C98.1018 125.602 98.2308 123.774 98.2132 121.935C97.8112 121.335 97.4846 120.705 97.2817 120.058C97.2492 119.954 97.2268 119.848 97.2112 119.743C96.361 119.34 95.5605 118.79 94.8841 118.178ZM106.308 129.634C106.728 131.03 107.07 132.444 107.314 133.863C107.702 136.123 107.935 138.397 108.038 140.679L108.252 139.873C108.791 137.857 109.364 135.838 110.075 133.881C108.951 133.094 108.012 131.858 107.195 130.825C106.89 130.439 106.594 130.041 106.308 129.634ZM90.2161 67.5522C89.7843 68.9467 89.4067 70.3571 89.0167 71.763C88.1003 75.0655 87.5053 78.4586 87.0925 81.8579C85.4453 95.4304 86.8172 109.058 88.6115 122.542C89.355 128.128 90.1633 133.707 90.8571 139.3C90.8755 138.752 90.8909 138.203 90.9008 137.654C91.1117 125.782 89.1141 114.076 88.3143 102.265L88.2662 101.545C87.9037 96.0225 87.682 90.3969 88.3381 84.8946C88.6758 82.0625 89.2706 79.291 90.0623 76.5543L90.5335 74.9469C90.852 73.866 91.1906 72.7564 91.5923 71.6803C91.5386 71.5772 91.4875 71.4732 91.44 71.369C90.8841 70.1466 90.4973 68.8616 90.2161 67.5522ZM91.6077 51.5532C87.4614 56.901 83.982 62.5819 81.8769 69.116C77.0592 84.0703 78.1348 100.061 80.9267 115.304C82.2422 122.486 83.9387 129.585 85.4867 136.717C83.8297 123.909 81.6929 111.13 81.3528 98.1991C81.1671 91.1417 81.5319 84.0513 82.8315 77.103L82.9084 76.6944C83.4653 73.7579 84.1552 70.6467 85.5676 68.0077C86.3345 66.5747 87.181 65.2375 88.185 63.9576C88.6084 63.4178 89.0837 62.985 89.588 62.5891C89.4401 58.9025 89.9974 54.9048 91.6077 51.5532ZM98.3725 108.533C100.435 108.614 102.496 109.189 104.121 110.53C105.391 111.579 103.579 113.352 102.319 112.333C100.948 111.224 99.7187 109.965 98.2576 108.957C98.0835 108.837 98.1312 108.523 98.3725 108.533ZM94.9504 103.034C94.4917 103.271 94.036 103.319 93.5165 103.191C93.4975 103.186 93.4792 103.181 93.4613 103.175L93.3551 103.141C93.4005 103.633 93.4483 104.125 93.4956 104.617C93.9148 104.026 94.4009 103.492 94.9504 103.034ZM92.8971 73.3415C92.7146 74.8675 92.5956 76.4008 92.5322 77.9365C92.4707 79.4326 92.445 80.9332 92.438 82.4344L92.4361 83.0778L92.4388 83.0656C93.1481 80.0386 94.1512 77.0596 95.4323 74.2089C95.2117 74.2457 94.9878 74.2398 94.7672 74.2132C94.2627 74.1521 93.7789 73.9283 93.346 73.6664C93.1882 73.5709 93.0401 73.4595 92.8971 73.3415ZM113.938 55.6547C113.057 56.0533 112.205 56.5115 111.32 56.901C109.566 57.6737 107.849 58.572 106.225 59.5917C104.582 60.6238 102.999 61.7103 101.543 62.9974C101.373 63.1483 101.204 63.3009 101.035 63.4533C101.001 63.7862 100.976 64.1203 100.965 64.4572C100.959 64.6384 100.959 64.8277 100.961 65.0224C103.708 61.6182 107.029 58.9323 111.243 57.2428C111.973 56.9499 112.716 56.6891 113.465 56.4477C113.643 56.2 113.803 55.9371 113.938 55.6547ZM113.86 52.3891C113.37 51.7386 111.962 51.7916 111.074 51.9366C109.638 52.1712 108.373 52.6734 107.143 53.4004C105.688 54.2594 104.433 55.4231 103.452 56.7918C103.935 56.5191 104.427 56.2619 104.93 56.0231L105.274 55.8604C107.178 54.9677 109.24 54.119 111.322 53.8422C112.285 53.7141 113.321 53.5287 114.295 53.6331C114.247 53.1599 114.106 52.7161 113.86 52.3891Z" fill="black"/>
<path fill-rule="evenodd" clip-rule="evenodd" d="M143.152 128.274C141.732 127.695 140.465 126.728 139.538 125.493C139.216 125.063 139.133 124.61 139.2 124.195C139.276 123.729 139.552 123.306 139.928 123.023C140.305 122.739 140.777 122.598 141.233 122.67C141.63 122.732 142.024 122.949 142.337 123.399L142.402 123.489C142.953 124.235 143.67 124.846 144.488 125.241C145.276 125.621 146.158 125.798 147.07 125.695C148.808 125.499 150.005 124.559 151.278 123.282C151.436 123.121 151.594 122.955 151.752 122.786C151.852 122.633 151.991 122.534 152.146 122.483C152.317 122.425 152.511 122.429 152.689 122.491C152.86 122.55 153.013 122.664 153.116 122.815C153.213 122.958 153.269 123.135 153.251 123.339C153.134 124.661 152.443 125.842 151.461 126.769C150.37 127.799 148.924 128.511 147.563 128.761C146.064 129.036 144.536 128.839 143.152 128.274ZM148.271 107.866C149.866 108.836 152.297 111.098 150.581 113.503C148.56 115.624 145.652 113.193 144.219 112.093C142.89 111.241 141.396 113.433 142.629 114.428C152.987 122.099 157.19 108.12 149.078 106.726C148.184 106.572 147.853 107.566 148.271 107.866ZM129.711 98.9429C129.887 96.7541 133.219 96.257 133.551 98.423C133.847 100.363 133.498 102.145 132.624 103.892C131.79 105.561 129.692 104.783 129.533 103.263C129.32 101.226 129.601 100.304 129.711 98.9429ZM155.076 97.9739C155.541 97.3652 156.212 96.9497 157.015 97.1845C159.526 97.9185 158.786 101.485 157.904 103.22C157.425 104.163 155.876 104.402 155.176 103.572C154.036 102.219 153.489 99.5157 154.94 98.1825C154.979 98.1136 155.023 98.044 155.076 97.9739ZM132.589 89.3654L132.986 89.2959C134.213 89.0836 135.738 88.8796 136.606 89.8665C137.067 90.3898 137.225 91.3624 136.606 91.8633C135.518 92.7446 134.314 92.4031 133.01 92.4777C131.935 92.5394 130.902 92.7174 129.867 93.0135C127.595 93.663 125.744 94.8486 123.804 96.1505C123.55 96.3213 123.29 95.9956 123.411 95.7574C124.531 93.563 126.701 91.7604 128.875 90.6616C130.036 90.0751 131.305 89.5885 132.589 89.3654ZM152.787 88.3823L153.091 88.4445C156.395 89.1353 160.687 90.5153 162.251 93.7615C162.311 94.2205 162.248 94.3189 162.197 94.3832L162.18 94.4046C162.137 94.4595 162.104 94.5351 161.905 94.5976C161.85 94.5844 161.794 94.5705 161.737 94.5557C161.02 94.3677 160.453 94.1087 159.904 93.84L159.308 93.5465C158.617 93.2076 157.92 92.881 157.181 92.6399C155.605 92.1255 153.983 91.7631 152.337 91.5696C151.98 91.5277 151.636 91.4072 151.365 91.2006C151.108 91.0046 150.911 90.7332 150.821 90.3724C150.705 89.9056 150.739 89.5521 150.989 89.1309C151.177 88.8146 151.447 88.5953 151.756 88.4694C152.071 88.3411 152.43 88.3108 152.787 88.3823Z" fill="black"/>
<path fill-rule="evenodd" clip-rule="evenodd" d="M169.071 112.228C168.371 111.288 167.112 110.054 165.839 110.12C165.676 110.129 165.615 110.305 165.713 110.424C166.13 110.933 166.699 111.295 167.116 111.814C167.61 112.429 167.966 113.17 168.198 113.92C168.534 115.009 168.627 116.241 168.327 117.349C167.798 119.301 166.126 120.732 164.301 121.462C162.494 122.186 160.321 122.433 158.613 121.373C156.091 119.809 153.952 117.554 150.783 117.509C150.042 117.499 149.519 117.838 149.208 118.323C148.895 117.856 148.38 117.525 147.657 117.517C144.104 117.477 141.452 119.923 138.47 121.449C136.455 122.48 133.847 122.16 131.768 121.478C129.807 120.836 127.678 119.546 126.938 117.51C126.53 116.385 126.621 115.071 127.04 113.963C127.316 113.234 127.742 112.529 128.269 111.956C128.815 111.362 129.533 110.988 130.092 110.425C130.206 110.309 130.116 110.13 129.966 110.12C127.59 109.959 125.445 112.797 124.996 114.856C124.554 116.884 125.213 118.906 126.546 120.453C129.258 123.599 134.278 124.636 138.185 123.712C141.347 122.964 144.351 121.241 147.657 121.488C148.381 121.543 148.902 121.241 149.216 120.782C149.53 121.254 150.053 121.562 150.783 121.492C153.864 121.193 156.614 123.376 159.605 123.909C161.986 124.333 164.558 123.761 166.599 122.478C168.732 121.136 170.233 118.984 170.332 116.419C170.389 114.943 169.956 113.416 169.071 112.228Z" fill="black"/>
<path fill-rule="evenodd" clip-rule="evenodd" d="M159.889 92.1487C164.848 92.1487 167.678 93.2155 168.715 93.2986L168.746 93.3008C169.177 93.3284 169.564 93.3645 169.97 93.5215C171.463 94.0967 171.706 95.6629 170.835 96.6499C170.774 98.6923 171.042 101.079 170.582 103.128C170.013 111.766 165.953 113.224 163.644 113.756C162.485 114.023 161.112 114.129 159.881 113.847C157.781 113.769 155.705 113.111 153.929 111.966C151.455 110.37 149.618 107.917 149.021 105.005C148.739 103.617 148.607 102.173 148.761 100.762L148.783 100.568C147.979 100.183 147.047 100.11 146.087 100.076C145.628 100.06 145.176 100.045 144.736 100.065C144.307 100.113 143.883 100.177 143.457 100.264C142.992 100.404 142.553 100.635 142.148 101.002L142.12 101.537C142.044 102.874 141.869 104.215 141.598 105.527C141.198 107.463 140.556 109.311 139.188 110.684C138.725 111.376 138.152 111.993 137.456 112.528C134.929 114.474 131.496 115.189 128.345 114.92C121.949 114.374 118.251 109.294 117.399 107.123L117.349 106.991C116.733 105.377 116.242 103.283 114.297 102.936L113.884 102.862C112.996 102.695 112.177 102.463 111.657 101.597C111.429 101.218 111.311 100.795 111.283 100.364C110.979 100.388 110.676 100.41 110.374 100.432C107.963 100.941 93.507 101.374 92.353 101.374C92.353 101.374 90.1349 102.308 89.1985 101.584C88.5494 101.081 88.3358 100.41 88.6931 99.6505C89.2323 98.5074 91.7196 97.8198 92.8241 97.6021C92.8241 97.6021 110.648 97.7502 111.93 97.5069C112.724 96.6881 114.144 96.8002 115.33 96.6707C116.312 95.9702 117.686 95.5009 118.772 95.1869C118.993 95.103 119.212 95.022 119.425 94.9456C121.414 94.2367 123.482 93.8613 125.582 93.6597C127.747 93.4538 129.918 93.547 132.071 93.842C132.978 93.9651 133.876 94.1243 134.769 94.3324C136.366 94.5431 137.955 94.8902 139.553 95.3019L139.873 95.3851C141.556 95.8265 143.285 96.2083 145.027 95.909C146.446 95.667 147.81 95.121 149.118 94.5305L149.288 94.4532C152.163 93.1398 156.654 92.1487 159.889 92.1487ZM134.596 96.9511C133.535 96.7176 133.082 98.3541 134.146 98.5881C134.9 98.7539 135.538 99.1341 135.97 99.7783L136.015 99.8483C136.595 100.77 138.059 99.9192 137.476 98.9914C136.82 97.9472 135.8 97.2159 134.596 96.9511ZM165.67 95.9364C165.296 95.6728 164.73 95.8685 164.513 96.241C164.274 96.6511 164.431 97.1077 164.781 97.3761L164.817 97.4022C165.138 97.6288 165.451 98.0349 165.49 98.451L165.494 98.503C165.536 99.592 167.227 99.5975 167.185 98.503C167.144 97.4324 166.524 96.5379 165.67 95.9364Z" fill="black"/>
</svg>
