<svg width="240" height="324" viewBox="0 0 240 324" fill="none" xmlns="http://www.w3.org/2000/svg">
<path fill-rule="evenodd" clip-rule="evenodd" d="M112.327 135.035C112.898 132.467 116.982 133.569 116.282 136.126C115.199 140.08 112.951 143.817 109.778 146.44C107.327 148.465 103.987 150.271 100.674 150.605C100.985 150.908 101.282 151.231 101.595 151.539C102.301 152.241 103.051 152.892 103.824 153.518C105.413 154.803 107.065 155.959 108.869 156.927C116.075 160.795 124.216 161.687 132.265 160.786C136.085 160.359 139.961 159.634 143.553 158.237C145.218 157.591 146.836 156.741 148.264 155.667L148.638 155.387C149.389 154.819 150.391 154.019 150.861 153.144C149.432 153.465 147.626 151.943 146.635 151.058C145.552 150.086 144.639 148.832 143.965 147.547C142.644 145.026 141.945 141.773 143.052 139.07C143.126 138.89 143.363 138.92 143.384 139.114C143.711 142.266 144.561 145.22 146.821 147.554C147.825 148.587 149.027 149.454 150.339 150.056L150.523 150.141C151.082 150.399 151.671 150.703 151.906 151.256C151.997 151.246 152.088 151.254 152.175 151.278C152.253 151.299 152.325 151.322 152.394 151.347C152.238 151.041 152.156 150.679 152.17 150.252C152.226 148.597 154.497 148.547 154.811 150.02C154.754 149.826 154.678 150.014 154.822 150.073C154.82 150.056 154.816 150.037 154.811 150.02L154.816 150.036L154.824 150.073L154.822 150.073C154.828 150.1 154.832 150.127 154.835 150.155L154.838 150.192L154.836 150.161C154.835 150.138 154.832 150.118 154.829 150.099L154.824 150.073C154.845 150.083 154.875 150.09 154.908 150.09L154.922 150.095C154.975 150.118 155.162 150.205 155.217 150.227C155.595 150.367 156.018 150.411 156.404 150.531C157.243 150.789 157.983 151.216 158.494 151.943C158.862 152.465 159.066 153.063 159.151 153.685C162.863 155.471 166.376 157.791 169.319 160.664C175.888 167.072 180.468 175.092 184.226 183.394C186.139 187.621 187.844 191.937 189.511 196.265L189.774 196.948C191.561 201.6 193.142 206.302 193.53 211.303C193.566 211.751 193.418 212.172 193.163 212.521C193.254 212.897 193.3 213.273 193.287 213.641C193.285 213.698 193.281 213.755 193.277 213.812C193.877 213.801 194.464 214.053 195.022 214.759C195.248 214.687 195.493 214.678 195.734 214.756C197.202 215.226 197.439 216.838 197.716 218.189C198.001 219.584 198.125 221.013 198.127 222.435C198.127 222.944 197.836 223.587 197.342 223.805C196.412 224.214 195.411 224.483 194.449 224.855C193.727 225.134 193.002 225.398 192.271 225.645C192.677 226.353 192.808 227.338 193.027 228.084C193.372 229.249 193.649 230.418 193.881 231.61C195.457 239.715 196.549 247.907 198.024 256.029C198.761 260.098 199.619 264.139 200.494 268.18C200.925 270.166 201.383 272.149 201.875 274.123C202.138 275.175 202.41 276.228 202.691 277.274C202.773 277.58 202.855 277.884 202.939 278.189L203.086 278.722C203.407 278.899 203.682 279.168 203.872 279.535C204.567 280.88 204.168 282.395 202.835 283.152C201.385 283.976 199.655 283.198 198.856 281.86C198.294 280.916 198.111 279.664 197.834 278.614C197.521 277.435 197.223 276.249 196.936 275.063C194.984 267.008 193.677 258.812 192.692 250.585L192.622 249.997C192.121 245.762 191.637 241.516 191.325 237.261C191.17 235.171 191.048 233.081 190.972 230.986C190.934 229.908 190.995 228.824 191.056 227.748C191.084 227.277 191.124 226.803 191.139 226.332L191.144 226.265C191.147 226.217 191.153 226.155 191.157 226.089L191.162 226.009C189.704 226.465 188.225 226.846 186.732 227.167C183.554 227.854 180.303 228.237 177.06 228.042C177.512 233.415 178.101 238.774 178.925 244.098C179.72 249.226 180.637 254.342 181.672 259.428C182.19 261.983 182.749 264.532 183.339 267.072C183.656 268.429 184.017 269.777 184.302 271.141C184.471 271.952 184.524 272.63 184.184 273.389C184.558 274.41 184.891 275.435 185.218 276.401L185.316 276.689C185.895 278.379 186.994 280.108 185.846 281.769C185.253 282.627 184.285 283.118 183.311 283.147C183.294 283.158 183.275 283.171 183.256 283.181C182.732 283.462 182.128 283.517 181.554 283.397C180.681 283.568 179.806 283.733 178.93 283.883C176.764 284.257 174.588 284.565 172.408 284.826C168.256 285.32 164.077 285.591 159.901 285.741C144.609 286.292 129.301 285.324 114.003 285.603C106.209 285.745 98.4155 286.096 90.6345 286.561C86.7514 286.793 82.8662 287.043 78.981 287.235L77.7784 287.294C74.3039 287.46 70.8269 287.588 67.355 287.334C67.2873 287.33 67.2345 287.302 67.1986 287.265C66.0007 287.129 64.7967 286.026 64.9169 284.752C65.4345 279.324 65.9521 273.897 66.4719 268.467C67.3951 258.794 68.3268 249.12 69.269 239.448L69.4052 238.052C69.7218 234.793 70.0241 231.527 70.1775 228.255C69.4043 228.201 68.6333 228.131 67.862 228.046C59.5052 227.131 51.4939 224.602 43.8018 221.281L43.4902 221.146C42.7972 220.843 42.0388 220.541 41.2613 220.218C41.2742 221.695 41.2254 223.175 41.219 224.637C41.2085 227.066 41.2275 229.494 41.2338 231.92C41.2486 236.921 41.4388 241.923 41.6881 246.916C42.1254 255.733 42.6388 264.538 43.4162 273.334C43.6127 275.547 43.8791 277.756 44.0669 279.969C44.1791 281.273 43.9106 282.359 42.7171 283.044C42.1296 283.382 41.6754 283.24 41.0923 282.968C39.6683 282.3 39.6282 280.721 39.493 279.347C39.3897 278.312 39.2944 277.276 39.2014 276.238C39.0031 274.026 38.8317 271.813 38.6923 269.595C38.1411 260.786 37.9803 251.986 38.3606 243.166C38.5371 239.041 38.792 234.907 39.1303 230.789L39.2099 229.839C39.4888 226.548 39.6683 223.094 40.2451 219.783C37.919 218.751 35.6141 217.439 34.5451 215.257C33.1594 212.425 34.6824 210.003 36.8521 208.336C36.831 208.055 36.8521 207.776 36.9113 207.522C37.5345 204.823 38.5782 202.156 39.5859 199.582C40.6021 196.995 41.724 194.448 42.9578 191.956C47.9099 181.974 54.6747 172.852 62.7388 165.167C66.7444 161.351 71.1282 157.823 75.8078 154.864C78.1275 153.4 80.5064 152.047 82.9697 150.842L83.3339 150.665C85.0488 149.832 86.9722 148.947 88.8791 148.484C89.0775 148.336 89.2782 148.196 89.481 148.063C90.231 147.564 91.2493 147.925 91.693 148.638C91.9087 148.471 92.1578 148.323 92.443 148.19L92.7249 148.061C94.436 147.29 96.4905 146.569 98.3479 147.076C99.5014 147.391 100.41 148.24 100.818 149.323C101.754 148.828 102.673 148.319 103.57 147.695C105.013 146.698 106.321 145.459 107.496 144.159C109.851 141.545 111.563 138.482 112.327 135.035ZM194.065 217.462C193.904 217.508 193.735 217.525 193.56 217.504C193.877 217.541 193.242 217.729 193.068 217.818L193.055 217.825C192.738 218.007 192.419 218.182 192.096 218.352C191.342 218.749 190.571 219.106 189.787 219.442C188.242 220.1 186.647 220.605 185.01 220.975C183.408 221.336 181.729 221.547 180.087 221.581C178.989 221.602 177.685 221.552 176.549 221.228C176.68 223.221 176.825 225.212 176.988 227.201L179.233 226.686C181.478 226.171 183.72 225.643 185.935 225.001C187.598 224.519 189.237 223.955 190.858 223.346C191.707 223.027 192.55 222.689 193.382 222.325C193.797 222.144 194.185 221.929 194.569 221.711L194.897 221.524C194.821 220.634 194.682 219.761 194.479 218.882C194.373 218.417 194.194 217.94 194.065 217.462ZM40.3507 208.076C40.0655 209.002 39.6282 209.866 38.631 210.075C38.2782 210.149 37.9826 210.109 37.7374 209.989L37.6785 210.107C36.8586 211.791 36.6179 213.568 38.5043 214.864C39.3559 215.45 40.2831 215.957 41.2423 216.411C42.9575 217.228 44.7841 217.884 46.5063 218.552L46.8493 218.686C49.9296 219.895 53.0585 220.996 56.2359 221.917C59.4601 222.849 62.7409 223.597 66.0622 224.073C67.4627 224.272 68.874 224.411 70.2876 224.502C70.3106 222.6 70.3 220.696 70.2937 218.793C69.7909 218.73 69.2923 218.662 68.8108 218.605C67.3444 218.434 65.8824 218.225 64.4289 217.965C61.393 217.422 58.3888 216.671 55.4585 215.712C50.0289 213.93 44.9775 211.383 40.3507 208.076ZM99.8796 149.811C98.6458 148.505 96.2859 148.976 94.7967 149.61C94.3465 149.802 93.8923 149.997 93.4613 150.231L93.3778 150.278C92.8759 150.567 92.8784 150.739 93.1235 151.315C93.4423 152.074 93.8859 152.808 94.3085 153.511C96.1171 156.532 98.4979 159.161 101.217 161.382C110.847 169.244 124.68 172.017 136.723 169.384C142.502 168.121 148.077 165.573 152.331 161.393L152.719 161.008C154.434 159.29 156.789 156.805 156.624 154.26C156.546 153.036 155.547 152.966 154.526 152.73C154.108 152.632 153.708 152.495 153.362 152.301C153.641 153.503 152.156 155.291 151.389 156.041C149.781 157.616 147.846 158.846 145.799 159.765C141.903 161.518 137.665 162.346 133.446 162.87C128.658 163.466 123.768 163.413 119.016 162.532C114.882 161.765 110.806 160.313 107.249 158.051C105.618 157.016 104.01 155.834 102.649 154.458L102.36 154.166C101.378 153.17 100.235 151.967 99.6472 150.66C99.4233 150.663 99.2014 150.656 98.9796 150.641C98.8233 150.633 98.739 150.411 98.8951 150.328C99.0705 150.235 99.2458 150.143 99.4212 150.052C99.3918 149.954 99.3662 149.859 99.3451 149.762C99.3282 149.68 99.4148 149.604 99.4909 149.65C99.5965 149.713 99.6979 149.781 99.7972 149.853C99.8247 149.84 99.8521 149.826 99.8796 149.811Z" fill="black"/>
<path fill-rule="evenodd" clip-rule="evenodd" d="M176.963 107.724C175.659 99.6295 175.298 91.3974 173.591 83.3661C171.986 75.8084 168.983 68.6667 163.738 62.9052C159.043 57.7504 152.974 53.9651 146.458 51.5663C133.765 46.8933 119.167 47.9501 106.888 53.4053C95.3947 58.5092 86.2278 67.9523 80.8848 79.2849C77.4137 86.6483 75.6686 94.4767 74.8933 102.557C74.0334 111.533 73.9405 120.602 73.5898 129.61C73.5475 130.721 73.4862 131.833 73.4714 132.945C73.4545 134.162 73.9468 135.229 74.3482 136.362C74.3757 136.442 74.4158 136.519 74.4644 136.591C74.1623 136.628 73.8602 136.673 73.5581 136.721C73.22 136.774 73.2348 137.324 73.5581 137.389C76.294 137.947 79.106 138.025 81.8883 138.163C84.7721 138.307 87.6602 138.385 90.5482 138.482C93.3644 138.577 96.1806 138.672 98.9968 138.767C100.476 138.818 101.955 138.869 103.433 138.917C104.137 138.941 104.84 138.966 105.546 138.989C105.897 139.002 106.25 139.012 106.6 139.025C106.886 139.034 107.35 139.215 107.38 139.006C107.433 139.038 107.49 139.065 107.551 139.084C107.619 139.12 107.684 139.163 107.748 139.209C108.092 139.446 108.614 139.416 108.962 139.209C108.994 139.19 109.028 139.169 109.062 139.148C109.321 138.993 109.503 138.769 109.605 138.516C111.05 140.262 113.608 138.3 112.129 136.453C111.335 135.46 103.433 111.106 106.704 92.5535L119.819 90.8162C122.217 90.5731 126.679 90.0891 126.679 90.0891C126.679 90.0891 127.771 86.5236 128.084 85.376C128.107 85.2915 128.131 85.2048 128.156 85.1203C128.469 85.6721 128.783 86.2214 129.1 86.7709L130.719 90.0616C130.719 90.0616 154.605 89.6622 160.461 89.7002C160.56 89.7002 161.031 96.8227 160.818 99.9592C160.387 106.257 159.928 112.551 159.29 118.833C158.883 122.855 157.902 126.799 156.44 130.506C154.13 136.362 147.424 141.928 140.885 141.928C136.815 141.928 127.617 138.63 126.278 137.964C124.938 137.298 124.14 139.116 125.361 139.843C127.834 141.316 134.649 144.44 140.885 144.44C149.94 144.44 156.776 135.844 157.615 134.612C165.861 134.16 174.295 134.369 182.53 135.187C183.221 135.255 183.817 134.422 183.595 133.786C180.637 125.317 178.387 116.582 176.963 107.724Z" fill="black"/>
<path fill-rule="evenodd" clip-rule="evenodd" d="M143.152 128.274C141.732 127.695 140.465 126.728 139.538 125.493C139.216 125.063 139.133 124.61 139.2 124.195C139.276 123.729 139.552 123.306 139.928 123.023C140.305 122.739 140.777 122.598 141.233 122.67C141.63 122.732 142.024 122.949 142.337 123.399L142.402 123.489C142.953 124.235 143.67 124.846 144.488 125.241C145.276 125.621 146.158 125.798 147.07 125.695C148.808 125.499 150.005 124.559 151.278 123.282C151.436 123.121 151.594 122.955 151.752 122.786C151.852 122.633 151.991 122.534 152.146 122.483C152.317 122.425 152.511 122.429 152.689 122.491C152.86 122.55 153.013 122.664 153.116 122.815C153.213 122.958 153.269 123.135 153.251 123.339C153.134 124.661 152.443 125.842 151.461 126.769C150.37 127.799 148.924 128.511 147.563 128.761C146.064 129.036 144.536 128.839 143.152 128.274ZM148.271 107.866C149.866 108.836 152.297 111.098 150.581 113.503C148.56 115.624 145.652 113.193 144.219 112.093C142.89 111.241 141.396 113.433 142.629 114.428C152.987 122.099 157.19 108.12 149.078 106.726C148.184 106.572 147.853 107.566 148.271 107.866ZM129.711 98.9429C129.887 96.7541 133.219 96.257 133.551 98.423C133.847 100.363 133.498 102.145 132.624 103.892C131.79 105.561 129.692 104.783 129.533 103.263C129.32 101.226 129.601 100.304 129.711 98.9429ZM155.076 97.9739C155.541 97.3652 156.212 96.9497 157.015 97.1845C159.526 97.9185 158.786 101.485 157.904 103.22C157.425 104.163 155.876 104.402 155.176 103.572C154.036 102.219 153.489 99.5157 154.94 98.1825C154.979 98.1136 155.023 98.044 155.076 97.9739ZM132.589 89.3654L132.986 89.2959C134.213 89.0836 135.738 88.8796 136.606 89.8665C137.067 90.3898 137.225 91.3624 136.606 91.8633C135.518 92.7446 134.314 92.4031 133.01 92.4777C131.935 92.5394 130.902 92.7174 129.867 93.0135C127.595 93.663 125.744 94.8486 123.804 96.1505C123.55 96.3213 123.29 95.9956 123.411 95.7574C124.531 93.563 126.701 91.7604 128.875 90.6616C130.036 90.0751 131.305 89.5885 132.589 89.3654ZM152.787 88.3823L153.091 88.4445C156.395 89.1353 160.687 90.5153 162.251 93.7615C162.311 94.2205 162.248 94.3189 162.197 94.3832L162.18 94.4046C162.137 94.4595 162.104 94.5351 161.905 94.5976C161.85 94.5844 161.794 94.5705 161.737 94.5557C161.02 94.3677 160.453 94.1087 159.904 93.84L159.308 93.5465C158.617 93.2076 157.92 92.881 157.181 92.6399C155.605 92.1255 153.983 91.7631 152.337 91.5696C151.98 91.5277 151.636 91.4072 151.365 91.2006C151.108 91.0046 150.911 90.7332 150.821 90.3724C150.705 89.9056 150.739 89.5521 150.989 89.1309C151.177 88.8146 151.447 88.5953 151.756 88.4694C152.071 88.3411 152.43 88.3108 152.787 88.3823Z" fill="black"/>
<path fill-rule="evenodd" clip-rule="evenodd" d="M172.803 91.775C172.629 91.7461 172.455 91.7188 172.281 91.6932C172.145 91.6161 171.985 91.5567 171.8 91.521C171.376 91.4134 170.956 91.3409 170.536 91.3018C164.508 89.9447 150.563 91.8716 149.987 97.0176C148.068 97.6586 146.407 97.0846 144.182 97.1416C142.488 90.0603 113.21 91.0598 111.802 95.3291C111.797 95.3276 111.791 95.3263 111.786 95.3246C110.433 94.9057 108.438 95.0068 106.89 94.9404C103.583 94.8711 100.273 95.1659 97.0378 95.8636C90.9797 96.8267 82.7117 97.9543 86.925 105.522C86.9259 105.524 86.9265 105.525 86.9276 105.526L86.9282 105.526C87.6543 106.27 88.8867 105.671 88.9325 104.663C87.516 101.077 90.7154 100.647 93.1771 99.6165C99.3024 97.4151 105.539 97.1099 111.874 97.7909C112.35 98.3522 113.073 98.8417 113.838 99.0979C118.073 99.8012 115.841 102.944 118.519 103.402C118.027 114.358 131.324 120.339 139.029 113.137C142.105 110.128 142.838 105.671 143.552 101.653C143.929 101.568 144.169 101.362 144.309 101.089C145.216 100.183 145.785 99.3466 147.579 99.0979C149.372 98.8493 150.753 99.3483 150.94 99.5011C150.987 99.596 151.037 99.6911 151.096 99.7862C151.178 99.9281 151.29 100.041 151.416 100.13C149.645 111.041 158.112 117.941 166.66 112.282C170.374 108.787 171.159 103.436 171.314 98.66C171.817 98.356 172.136 97.767 171.962 97.0264C171.722 96.0056 172.285 95.1217 173.182 94.6779C174.348 94.1016 174.141 91.9967 172.803 91.775ZM136.074 96.9512C135.013 96.7178 134.56 98.3542 135.625 98.5883C136.378 98.7541 137.017 99.1343 137.449 99.7784L137.494 99.8485C138.073 100.77 139.538 99.9193 138.955 98.9915C138.298 97.9474 137.279 97.2161 136.074 96.9512ZM167.149 95.9366C166.775 95.673 166.209 95.8687 165.992 96.2411C165.753 96.6512 165.909 97.1079 166.26 97.3762L166.295 97.4024C166.617 97.6289 166.93 98.035 166.969 98.4511L166.972 98.5032C167.015 99.5921 168.706 99.5976 168.664 98.5032C168.623 97.4325 168.003 96.538 167.149 95.9366Z" fill="black"/>
</svg>
