<svg width="240" height="324" viewBox="0 0 240 324" fill="none" xmlns="http://www.w3.org/2000/svg">
<path fill-rule="evenodd" clip-rule="evenodd" d="M70.3425 218.33C70.25 218.157 70.4647 218.001 70.6071 218.126C73.8422 220.966 75.5359 225.527 75.8911 229.743C76.2673 234.214 75.7339 238.843 75.53 243.311C75.3031 248.289 75.0992 253.269 74.8223 258.244C74.5411 263.292 74.2381 268.338 73.9785 273.387L73.3943 284.745C73.3322 285.955 73.4668 287.444 73.0024 288.573C72.2828 290.325 70.1454 290.053 69.6962 288.59L69.6821 288.542L69.6411 288.573C69.2448 287.254 69.5414 285.688 69.6086 284.324L70.2206 271.915C70.653 263.144 71.0387 254.373 71.5032 245.603L71.6611 242.68C71.8782 238.745 72.0447 234.82 72.1784 230.887L72.2218 229.575C72.3487 225.625 72.248 221.896 70.3425 218.33ZM148.767 145.517C150.569 145.346 151.93 145.944 153.567 146.573C154.28 146.848 154.955 147.164 155.638 147.492C156.495 147.903 157.045 148.629 157.572 149.397L157.854 149.81C160.049 153.028 161.526 156.74 163.193 160.243C165.142 164.341 167.11 168.43 169.018 172.548L169.959 174.576C170.43 175.59 170.899 176.605 171.361 177.623L172.16 179.395C172.962 181.192 173.681 183.094 172.538 184.947C171.475 186.672 169.589 188.006 168.097 189.338C166.852 190.451 165.606 191.563 164.36 192.674C166.936 195.254 168.664 198.502 169.681 201.986C171.124 201.384 172.887 201.269 174.379 201.008C176.469 200.644 176.725 203.809 174.753 203.77C173.296 203.741 171.588 203.89 170.094 203.583C170.353 204.728 170.542 205.89 170.661 207.055C171.289 213.162 169.917 219.305 168.486 225.213L168.369 225.699C166.815 232.094 165.342 238.506 164.023 244.955C162.702 251.417 161.514 257.906 160.459 264.417C159.385 271.045 158.626 277.709 157.809 284.371C157.686 285.379 157.051 286.244 155.938 286.244C155.01 286.244 153.949 285.377 154.066 284.371C154.908 277.116 156.103 269.899 157.29 262.693C159.335 250.284 161.908 237.983 164.869 225.763L165.386 223.635C166.718 218.115 167.927 212.428 167.259 206.735C166.714 202.099 164.777 197.156 160.947 194.277L160.831 194.19C159.936 193.534 159.592 192.279 160.473 191.415C161.034 190.865 161.595 190.316 162.157 189.767L165.528 186.474L166.207 185.809C166.774 185.256 167.343 184.706 167.93 184.172C168.285 183.85 169.247 183.235 169.317 182.704C169.363 182.358 168.953 181.75 168.787 181.431L168.026 179.895C167.594 179.019 167.176 178.136 166.754 177.255C165.879 175.43 164.993 173.61 164.137 171.776L158.999 160.762C157.55 157.655 156.258 154.374 154.363 151.502L153.99 150.942C153.678 150.47 153.402 150.016 153.205 149.44C153.016 148.885 152.778 148.276 152.427 147.802C151.607 146.691 150.038 146.061 148.725 145.828C148.535 145.795 148.604 145.533 148.767 145.517ZM109.249 142.624C109.363 142.624 109.38 142.787 109.275 142.819C107.691 143.295 106.178 144.064 104.943 145.173C104.353 145.704 103.758 146.307 103.393 147.022C103.254 147.295 103.176 147.584 103.12 147.884L103.102 147.984C103.008 148.525 102.873 148.826 102.598 149.26L102.551 149.333C100.982 151.757 99.8823 154.45 98.8768 157.145L96.6873 163.023L94.4992 168.902C93.7942 170.796 93.0887 172.69 92.3835 174.584C91.994 175.63 91.5934 176.672 91.193 177.713C91.0198 178.164 90.8335 178.612 90.675 179.069C90.6532 179.131 90.584 179.507 90.532 179.599L90.5497 179.63C90.9911 180.372 92.168 180.993 92.8352 181.532L95.1325 183.39C96.7705 184.715 98.4505 186.003 100.039 187.387C101.037 188.256 100.416 189.813 99.3034 190.176C97.4383 190.783 95.6111 191.511 93.7739 192.199C93.0318 192.476 92.259 192.718 91.5256 193.024L91.0791 193.217C90.9047 193.296 90.9885 193.295 90.9955 193.617C91.0025 193.955 91.0982 194.307 91.1531 194.638C91.7719 198.381 92.4279 202.118 93.1202 205.848C95.5692 219.039 98.4951 232.133 101.832 245.127C103.518 251.688 105.325 258.218 107.048 264.77C108.766 271.304 111.027 277.745 113.185 284.145C113.794 285.95 110.934 286.727 110.34 284.93C107.852 277.403 105.576 269.81 103.225 262.241C99.0494 248.79 95.7587 235.048 92.8483 221.272C91.4058 214.445 90.0864 207.591 88.8915 200.716C88.6652 199.414 88.4433 198.112 88.2261 196.809L87.9093 194.892C87.6922 193.526 87.5686 192.103 88.6301 191.021C89.6667 189.966 91.4461 189.592 92.8101 189.097L92.9092 189.061C93.7771 188.737 94.6513 188.425 95.5221 188.103C94.2393 187.092 92.9723 186.06 91.6927 185.05C90.6604 184.236 89.6119 183.438 88.5944 182.604C87.7555 181.917 87.0714 181.035 86.984 179.917C86.8947 178.775 87.384 177.715 87.7787 176.667L87.8166 176.566C88.204 175.52 88.5925 174.475 88.991 173.433L91.4565 166.982C93.0232 162.884 94.5239 158.752 96.1718 154.685C96.8237 153.076 97.5342 151.492 98.3738 149.97C98.7786 149.237 99.2128 148.519 99.6845 147.826C100.213 147.05 100.693 146.671 101.512 146.243C102.822 145.558 103.849 144.409 105.165 143.703C106.455 143.01 107.783 142.64 109.249 142.624ZM113.5 135.312C113.551 135.226 113.683 135.264 113.685 135.362C113.719 137.399 113.235 139.48 112.938 141.495C112.639 143.516 112.543 145.649 112.11 147.649C112.101 147.742 112.083 147.834 112.058 147.924L112.037 147.993C111.855 148.553 111.38 149.028 110.797 149.176C110.981 150.192 111.153 151.209 111.298 152.231C111.548 153.989 111.775 155.749 111.999 157.51L112.267 159.623C112.52 161.614 112.766 163.606 113.009 165.599C113.627 165.857 114.258 166.071 114.905 166.256C116.393 166.682 117.917 166.855 119.453 167.006C122.581 167.313 125.733 167.455 128.872 167.629L129.545 167.667C133.074 167.869 136.622 167.905 140.142 167.543C141.887 167.363 143.619 167.062 145.321 166.635C146.186 166.418 147.027 166.094 147.89 165.881C148.176 165.811 148.432 165.649 148.719 165.475C148.847 165.314 149.025 165.192 149.258 165.145L149.321 165.134L149.384 165.125L149.405 165.115L149.403 165.122C149.58 165.098 149.748 165.099 149.906 165.12C149.969 163.567 150.037 162.013 150.123 160.46C150.352 156.289 150.987 151.938 150.14 147.803C150.112 147.664 150.301 147.615 150.35 147.745C152.011 152.122 151.824 156.909 151.908 161.516C151.99 166.021 151.94 170.53 151.918 175.036C152.241 175.173 152.528 175.36 152.756 175.621C153.212 176.143 153.343 177.05 152.756 177.554C152.496 177.778 152.209 177.933 151.904 178.04C151.888 181.955 151.86 185.87 151.821 189.786C152.565 190.361 152.634 191.726 151.792 192.294C151.652 204.972 151.422 217.651 151.231 230.328L150.831 256.923C150.778 260.467 150.689 264.01 150.658 267.553L150.683 267.563L150.771 267.604C150.921 267.674 151.142 267.788 151.188 267.904C151.201 267.934 151.204 267.955 151.202 267.97C151.446 268.005 151.688 268.12 151.898 268.319C152.414 268.81 152.309 269.55 151.898 270.05L151.788 270.184C151.531 270.496 151.044 270.616 150.646 270.553C150.65 272.764 150.664 274.976 150.657 277.187C150.654 277.863 150.644 278.538 150.633 279.213L150.605 280.833C150.586 281.757 150.504 282.932 149.558 283.347C148.491 283.815 147.533 283.432 147.101 282.347C146.984 282.053 147.009 281.78 147.052 281.489C147.039 281.053 146.97 280.547 146.979 280.142L147.014 278.454C147.02 278.193 147.03 277.933 147.037 277.673L147.007 277.676C143.213 277.86 139.394 277.77 135.594 277.768L133.904 277.77C132.495 277.771 131.082 277.764 129.674 277.71L129.146 277.688C128.092 277.638 126.984 277.622 125.891 277.528C126.03 278.65 126.16 279.773 126.276 280.897C126.386 281.963 125.286 282.868 124.306 282.868C123.141 282.868 122.474 281.952 122.335 280.897C121.676 275.918 121.407 270.893 120.778 265.912C120.215 261.45 119.726 256.977 119.23 252.507L119.064 251.017C117.247 234.748 115.483 218.473 113.796 202.19L113.01 194.578C112.216 186.906 111.418 179.233 110.745 171.55C110.36 167.158 110.006 162.764 109.672 158.367C109.427 155.137 109.273 151.924 109.173 148.701C108.778 148.294 108.58 147.701 108.755 147.088C108.857 146.73 108.976 146.374 109.102 146.019C109.094 145.67 109.086 145.322 109.079 144.972C109.073 144.642 109.408 144.472 109.677 144.526C110.165 143.344 110.702 142.172 111.151 141.002C111.877 139.107 112.475 137.065 113.5 135.312ZM72.9592 155.792C80.5477 151.034 89.5807 147.611 98.6278 147.979C98.8336 147.988 98.8915 148.302 98.6779 148.349C93.8521 149.427 88.9733 150.74 84.4046 152.651C79.8227 154.567 75.4659 157.148 71.5856 160.249C64.4261 165.971 58.8613 173.413 55.1971 181.802C53.0508 186.716 51.5464 191.905 50.2327 197.095C48.8426 202.588 47.6969 208.139 46.7443 213.725C44.8627 224.758 43.7673 235.912 43.1844 247.085C42.5914 258.451 42.8358 269.825 42.4129 281.193C42.3398 283.162 39.5257 283.124 39.3827 281.193C38.4244 268.269 38.9553 255.138 39.8415 242.223C40.6384 230.613 42.0301 219.027 44.271 207.603L44.4662 206.613C46.5611 196.044 49.0879 185.219 54.1524 175.648C58.4762 167.476 65.1514 160.687 72.9592 155.792ZM178.337 206.304C178.377 206.191 178.526 206.192 178.566 206.304C179.431 208.726 179.462 211.46 179.692 214.014L179.71 214.21C179.931 216.539 180.097 218.871 180.251 221.205L180.309 222.08C180.928 231.602 181.703 241.112 182.87 250.584C184.033 260.019 185.606 269.389 187.306 278.74C187.496 279.781 187.035 280.842 185.943 281.142C184.981 281.406 183.746 280.813 183.543 279.778C182.487 274.411 181.633 269.036 180.872 263.622C179.531 254.089 178.53 244.511 177.887 234.906C177.564 230.081 177.365 225.258 177.286 220.424C177.25 218.18 177.308 215.932 177.428 213.691L177.456 213.174C177.588 210.883 177.575 208.488 178.337 206.304ZM96.3386 266.949C96.44 266.894 96.5655 267.007 96.5013 267.112C95.0319 269.501 93.0441 271.561 91.1228 273.591C89.1143 275.713 87.1554 277.899 85.1063 279.98C83.6258 281.483 81.2441 279.058 82.8067 277.679C85.0037 275.741 87.2999 273.899 89.536 272.003L90.5139 271.174C92.3472 269.625 94.235 268.089 96.3386 266.949ZM166.129 265.753C166.019 265.544 166.27 265.374 166.44 265.513C167.625 266.477 168.688 267.627 169.832 268.645C170.966 269.652 172.141 270.593 173.349 271.509C174.562 272.43 175.801 273.314 177.074 274.15C178.13 274.844 179.218 275.4 180.323 275.975C180.835 276.041 181.309 276.293 181.689 276.769C182.289 277.523 182.352 278.944 181.52 279.598L181.371 279.716C180.4 280.479 179.247 280.572 178.291 279.716C177.223 278.759 176.214 277.707 175.189 276.697L174.881 276.395C173.78 275.324 172.705 274.218 171.692 273.062L170.774 272.019C169.073 270.077 167.302 267.985 166.129 265.753ZM160.669 153.836C160.472 153.705 160.594 153.353 160.837 153.437L161.284 153.592C163.149 154.24 165.068 154.959 166.761 155.957C168.581 157.03 170.261 158.308 171.867 159.679C175.189 162.516 178.016 166.005 180.418 169.642C185.239 176.939 188.22 185.297 190.626 193.66C193.193 202.576 195.168 211.684 196.782 220.819C198.421 230.101 199.685 239.468 200.517 248.858C200.926 253.483 201.201 258.112 201.339 262.753C201.41 265.141 201.408 267.527 201.388 269.916C201.383 270.53 201.387 271.144 201.394 271.758L201.417 273.601C201.43 274.765 201.569 275.989 201.293 277.127C200.847 278.959 197.82 278.617 197.919 276.745C197.828 276.122 197.824 275.478 197.848 274.833C197.834 274.75 197.818 274.666 197.801 274.579C197.751 274.332 197.793 274.102 197.891 273.906C197.906 273.596 197.92 273.289 197.925 272.986C197.945 271.757 197.944 270.532 197.91 269.302C197.838 266.71 197.735 264.117 197.631 261.526C197.423 256.348 197.134 251.168 196.714 246.002C195.254 228.023 192.171 209.941 186.994 192.643C184.589 184.61 181.273 176.725 176.519 169.784C174.408 166.703 172.027 163.856 169.387 161.215C166.731 158.556 163.803 155.912 160.669 153.836ZM124.841 269.74L125.2 272.337C125.379 273.635 125.557 274.934 125.725 276.234C126.871 276.077 128.042 276.011 129.146 275.913C131.078 275.742 133.023 275.659 134.961 275.579C138.968 275.414 142.996 275.127 147.007 275.147C147.048 275.147 147.087 275.15 147.126 275.153L147.325 270.03L144.506 270.026C142.119 270.022 139.731 270.002 137.343 269.981C135.193 269.963 133.042 269.96 130.892 269.915L129.97 269.893C128.34 269.849 126.539 269.94 124.841 269.74ZM147.561 262.304C147.446 262.318 147.329 262.329 147.205 262.334C146.646 262.358 146.084 262.342 145.525 262.346C144.336 262.357 143.147 262.365 141.957 262.364C139.578 262.364 137.199 262.379 134.821 262.407C132.372 262.437 129.925 262.479 127.477 262.484C126.29 262.486 125.107 262.455 123.921 262.422C124.113 264.108 124.314 265.793 124.535 267.474C126.377 267.225 128.358 267.35 130.158 267.333L130.392 267.33C132.849 267.288 135.307 267.319 137.765 267.322C140.293 267.325 142.821 267.333 145.349 267.354L147.426 267.371L147.43 267.266C147.491 265.614 147.53 263.96 147.561 262.304ZM123.008 254.238C123.238 256.228 123.454 258.222 123.674 260.215C123.821 260.192 123.969 260.173 124.12 260.157C125.308 260.033 126.494 259.926 127.686 259.852C130.063 259.705 132.44 259.627 134.821 259.563C137.269 259.498 139.718 259.447 142.167 259.413C143.357 259.396 144.545 259.398 145.735 259.406C146.293 259.41 146.857 259.392 147.414 259.429C147.481 259.434 147.544 259.441 147.607 259.448L147.649 256.456C147.656 255.957 147.664 255.459 147.672 254.96C145.833 255.073 143.963 255.03 142.126 255.031L141.702 255.032C139.393 255.042 137.084 255.011 134.775 254.963C132.393 254.913 130.017 254.835 127.639 254.683C126.676 254.621 125.72 254.539 124.762 254.433L124.283 254.378C123.866 254.329 123.437 254.289 123.008 254.238ZM147.862 245.794C143.433 246.145 139.028 246.292 134.587 246.336L133.921 246.342C129.997 246.371 126.04 246.533 122.107 246.429C122.342 248.469 122.577 250.509 122.813 252.548C123.376 252.522 123.942 252.522 124.493 252.502C125.613 252.461 126.729 252.451 127.849 252.449C130.158 252.443 132.466 252.464 134.775 252.459C137.154 252.454 139.533 252.414 141.912 252.369C143.841 252.333 145.79 252.188 147.724 252.193L147.862 245.794ZM148.049 237.091C147.536 237.262 146.93 237.273 146.266 237.303L144.551 237.389C143.757 237.428 142.962 237.464 142.167 237.493C139.517 237.59 136.868 237.681 134.218 237.765C131.502 237.852 128.774 237.902 126.058 237.816C124.728 237.774 123.408 237.704 122.082 237.593C121.754 237.566 121.42 237.548 121.085 237.524C121.394 240.227 121.704 242.929 122.015 245.631C125.929 245.15 129.874 244.851 133.784 244.354L137.319 243.902C140.853 243.451 144.383 243.009 147.93 242.636L148.049 237.091ZM148.238 228.293C147.485 228.479 146.627 228.47 145.903 228.515L145.769 228.525C144.399 228.629 143.026 228.681 141.652 228.715C138.961 228.781 136.268 228.814 133.575 228.831L131.956 228.841C129.798 228.853 127.641 228.859 125.482 228.808C124.097 228.776 122.715 228.708 121.331 228.639C120.917 228.618 120.493 228.604 120.068 228.583C120.357 231.142 120.65 233.7 120.941 236.258C121.396 236.186 121.852 236.131 122.288 236.057C123.403 235.869 124.516 235.718 125.64 235.583C128.073 235.292 130.518 235.082 132.963 234.905C135.472 234.723 137.984 234.569 140.493 234.393L142.271 234.268C142.864 234.226 143.456 234.187 144.049 234.15C145.061 234.088 146.238 234.158 147.242 233.938C147.514 233.825 147.816 233.799 148.118 233.863L148.238 228.293ZM148.466 217.995C148.205 218.326 147.816 218.499 147.352 218.559C144.935 218.873 142.456 218.923 140.019 219.071L139.59 219.098C137.073 219.264 134.555 219.394 132.037 219.528C129.45 219.665 126.864 219.777 124.274 219.868C123.175 219.906 122.071 219.91 120.97 219.896L120.498 219.889C120.046 219.882 119.573 219.883 119.098 219.867C119.361 222.26 119.626 224.652 119.895 227.044C120.379 226.991 120.862 226.951 121.331 226.901C122.714 226.755 124.096 226.61 125.482 226.501C128.108 226.294 130.737 226.169 133.368 226.039C136.06 225.906 138.754 225.817 141.446 225.691C142.752 225.63 144.057 225.554 145.359 225.434C146.271 225.35 147.354 225.04 148.306 225.154C148.358 222.767 148.412 220.381 148.466 217.995ZM148.678 208.769C148.637 208.833 148.589 208.895 148.53 208.952C147.466 210.004 146.155 209.923 144.745 210.033L144.658 210.04C143.277 210.156 141.894 210.267 140.511 210.367C137.745 210.566 134.975 210.706 132.205 210.831C129.371 210.958 126.519 211.046 123.682 210.988C121.865 210.951 119.962 210.957 118.109 210.78C118.394 213.415 118.68 216.05 118.969 218.684C119.49 218.586 120.014 218.511 120.511 218.432C121.762 218.235 123.016 218.037 124.274 217.892C126.79 217.603 129.307 217.332 131.827 217.087C133.983 216.878 136.138 216.666 138.295 216.475L139.59 216.363C142.164 216.146 144.77 215.789 147.352 215.736C147.778 215.728 148.259 215.959 148.503 216.325C148.56 213.806 148.619 211.288 148.678 208.769ZM148.857 201.301C148.199 201.381 147.491 201.335 146.885 201.355C145.351 201.405 143.817 201.452 142.284 201.497L133.081 201.769C129.947 201.861 126.803 201.93 123.668 201.886C122.289 201.867 120.905 201.864 119.526 201.789L119.067 201.761C118.5 201.724 117.804 201.718 117.124 201.649L117.926 209.086C119.77 208.82 121.671 208.72 123.499 208.564L123.89 208.529C126.586 208.283 129.296 208.121 131.997 207.938C134.769 207.75 137.536 207.522 140.303 207.289C141.686 207.173 143.069 207.057 144.451 206.93L144.622 206.913C145.928 206.776 147.155 206.486 148.312 207.256C148.481 207.369 148.613 207.519 148.704 207.688C148.754 205.559 148.804 203.43 148.857 201.301ZM149.071 192.622C143.466 192.847 137.861 193.019 132.252 193.094C129.095 193.136 125.942 193.106 122.785 193.04C121.416 193.012 120.036 192.946 118.668 192.841L118.156 192.8C117.505 192.745 116.822 192.706 116.142 192.64C116.423 195.197 116.702 197.754 116.979 200.312C117.648 200.188 118.347 200.13 118.934 200.055L119.067 200.037C120.524 199.837 121.995 199.72 123.459 199.591C126.31 199.34 129.176 199.178 132.035 199.04C134.962 198.899 137.891 198.78 140.819 198.65L143.747 198.519C144.235 198.497 144.723 198.476 145.212 198.455C145.909 198.426 146.606 198.398 147.303 198.369C147.647 198.355 148.005 198.308 148.349 198.326L148.447 198.312C148.492 198.307 148.532 198.302 148.569 198.298C148.662 198.227 148.763 198.168 148.87 198.123L148.935 198.098L149.071 192.622ZM115.223 184.397C115.483 186.699 115.741 189.001 115.994 191.304C116.794 191.212 117.603 191.162 118.366 191.093C119.905 190.955 121.452 190.834 122.995 190.763L126.081 190.62C128.137 190.525 130.194 190.433 132.252 190.358C137.885 190.152 143.517 189.916 149.147 189.629C149.187 188.067 149.227 186.505 149.269 184.944C148.999 185.233 148.609 185.424 148.096 185.422C142.186 185.407 136.271 185.441 130.362 185.344C127.404 185.295 124.449 185.223 121.495 185.071C120.049 184.997 118.595 184.846 117.16 184.647C116.549 184.562 115.879 184.502 115.223 184.397ZM114.277 176.194C114.555 178.552 114.827 180.911 115.096 183.27C115.829 183.139 116.588 183.069 117.272 182.976C118.744 182.776 120.224 182.617 121.706 182.533C124.589 182.37 127.474 182.287 130.362 182.226C136.271 182.101 142.186 182.101 148.096 182.055C148.651 182.05 149.063 182.27 149.334 182.598C149.375 181.126 149.418 179.653 149.463 178.18C148.892 178.12 148.326 178.035 147.802 177.998C146.192 177.886 144.582 177.783 142.971 177.691C139.61 177.498 136.245 177.333 132.881 177.187C129.516 177.04 126.15 176.897 122.784 176.772L121.312 176.719C118.971 176.632 116.591 176.522 114.277 176.194ZM113.219 167.314C113.508 169.702 113.793 172.091 114.077 174.48L114.163 175.219C116.978 174.671 119.945 174.511 122.784 174.39C126.151 174.247 129.511 174.173 132.881 174.184C136.247 174.194 139.608 174.273 142.971 174.413C144.652 174.482 146.332 174.562 148.012 174.653C148.474 174.678 149.015 174.665 149.572 174.673C149.585 174.298 149.595 173.922 149.608 173.547C149.659 172.027 149.709 170.506 149.761 168.986C148.625 169.57 147.148 169.805 146.006 170.054L145.876 170.083C143.991 170.506 142.066 170.781 140.142 170.949C136.363 171.278 132.545 171.155 128.77 170.836L128.109 170.779C124.794 170.492 121.357 170.127 118.143 169.307C116.612 168.916 115.03 168.369 113.658 167.576C113.515 167.494 113.368 167.406 113.219 167.314ZM145.138 138.935C145.171 138.806 145.365 138.776 145.428 138.897C145.875 139.745 146.041 140.764 146.351 141.673C146.684 142.65 146.995 143.634 147.363 144.6C148.132 146.617 149.039 148.555 150.12 150.424C151.191 152.274 148.193 153.595 147.405 151.569C146.591 149.479 145.923 147.318 145.518 145.109C145.32 144.031 145.144 142.939 145.087 141.844C145.038 140.903 144.906 139.852 145.138 138.935Z" fill="black"/>
<path fill-rule="evenodd" clip-rule="evenodd" d="M116.179 42.0087C122.772 41.1014 131.873 44.0503 135.157 49.9965C150.834 46.2991 170.607 46.178 183.529 58.4864C197.012 73.0869 180.076 92.3378 168.847 96.678C169.664 100.653 168.39 126.117 159.37 137.476C152.211 147.1 135.54 151.542 127.826 140.046L127.766 139.952C126.94 138.624 127.652 138.667 128.5 139.654C136.054 146.299 146.324 146.413 154.238 139.4C169.071 126.582 167.542 95.1517 160.484 76.969C140.386 74.7608 118.867 80.8547 104.986 95.9893L105.925 101.642C106.084 102.606 106.266 103.568 106.405 104.534C106.494 105.154 106.503 105.769 106.075 106.271C104.658 107.926 102.272 105.439 100.308 104.45C99.7283 104.368 99.1475 104.337 98.5779 104.377C89.1432 105.593 91.0021 123.902 101.372 120.693C102.243 120.15 102.991 120.315 103.329 121.103C105.801 123.368 107.431 127.407 111.537 131.298C112.986 132.757 114.304 133.978 115.934 135.149C116.891 136.117 119.78 137.105 118.864 138.762C117.133 142.533 106.922 130.688 105.117 127.412C99.4604 129.646 93.1921 128.887 87.3305 128.341C56.4072 126.733 60.5354 94.1237 85.8825 73.5358C90.6537 70.0219 95.9179 67.1554 101.39 64.9495C102.137 64.6483 101.811 63.4212 101.053 63.7266C97.4322 65.1864 93.9026 66.9239 90.5379 68.9349L90.5329 67.7327C90.5279 65.7077 90.5597 63.5994 90.9113 61.7492C91.087 60.4672 91.3826 59.0979 91.8377 58.0677C92.4003 54.9095 101.213 44.0689 116.179 42.0087ZM98.1653 108.58C98.6427 108.127 99.5341 108.668 99.9591 108.654C101.046 108.803 102.079 109.262 102.884 109.829C103.416 110.127 103.789 110.407 104.1 110.664L104.108 110.662C104.106 110.662 104.103 110.664 104.101 110.665L104.13 110.685C104.583 111.007 106.243 112.822 105.195 112.334C105.116 112.232 105.036 112.135 104.956 112.039C104.947 112.052 104.935 112.065 104.921 112.078L104.979 112.165C105.871 113.506 104.332 112.093 104.095 111.718C104.084 111.727 104.071 111.733 104.059 111.74L104.367 112.115C104.41 112.168 104.444 112.211 104.472 112.247L104.537 112.31C105.568 113.323 105.6 114.235 104.403 112.737C104.45 112.807 104.488 112.882 104.493 112.949L104.564 113.039C105.504 114.251 104.739 113.821 104.272 113.303L104.233 113.258L104.241 113.271C104.676 113.94 103.813 113.47 103.661 113.112L103.655 113.096C103.489 112.96 103.386 112.808 103.351 112.77L103.345 112.763C102.537 111.935 101.365 111.234 100.37 110.915C100.225 110.888 100.079 110.866 99.9319 110.85C99.3334 110.717 98.7283 110.625 98.1169 110.576C98.0421 110.567 97.9662 110.512 97.9096 110.441C96.9851 110.41 97.2705 110.031 97.6541 109.96L97.6608 109.959L97.5847 109.953C96.9913 109.895 96.5861 109.682 97.1861 109.551L97.2621 109.536C97.2528 109.521 97.2446 109.507 97.2365 109.492C96.7227 109.436 97.058 108.936 97.3432 109.057C97.2232 108.664 97.7717 108.86 97.8401 108.802C97.8923 108.744 97.9572 108.693 97.9946 108.69C98.1598 108.574 98.0797 108.584 98.1653 108.58ZM101.309 102.226L101.189 102.296C101.091 102.353 100.991 102.391 100.89 102.413C101.032 102.474 101.173 102.539 101.312 102.609C101.309 102.524 101.308 102.438 101.308 102.353L101.309 102.226Z" fill="black"/>
<path fill-rule="evenodd" clip-rule="evenodd" d="M148.319 128.112C146.763 128.563 145.092 128.603 143.506 128.137C142.067 127.715 140.589 126.785 139.53 125.555C138.59 124.462 137.98 123.134 138.004 121.717C138.007 121.555 138.065 121.42 138.154 121.315C138.25 121.202 138.383 121.124 138.527 121.091C138.674 121.056 138.83 121.068 138.963 121.129C139.083 121.183 139.186 121.276 139.25 121.412C139.413 121.626 139.575 121.836 139.738 122.041C141.047 123.658 142.314 124.866 144.282 125.299C145.349 125.534 146.416 125.43 147.394 125.071C148.441 124.687 149.388 124.012 150.13 123.148C150.465 122.757 150.861 122.598 151.248 122.595C151.686 122.592 152.12 122.796 152.447 123.122C152.768 123.442 152.983 123.878 153.002 124.333C153.019 124.732 152.889 125.15 152.542 125.522C151.4 126.749 149.92 127.648 148.319 128.112ZM148.271 107.866C149.866 108.836 152.297 111.098 150.581 113.503C148.561 115.624 145.652 113.193 144.219 112.093C142.89 111.241 141.396 113.433 142.63 114.428C152.987 122.099 157.19 108.12 149.078 106.726C148.185 106.572 147.853 107.566 148.271 107.866ZM133.347 103.598C132.834 103.27 132.231 103.157 131.563 103.461C131.04 103.699 130.124 104.491 129.486 105.533C129.05 106.245 128.741 107.081 128.805 107.952C128.82 108.154 128.745 108.303 128.628 108.413C128.535 108.5 128.4 108.564 128.242 108.584C128.108 108.601 127.958 108.586 127.836 108.548C127.604 108.475 127.482 108.325 127.435 108.202C126.989 107.016 127.181 105.692 127.682 104.498C128.357 102.886 129.583 101.536 130.387 101.101C131.761 100.356 133.383 100.322 134.76 101.081C135.932 101.727 136.665 102.77 137.394 103.833C137.549 104.059 137.703 104.283 137.862 104.504C138.18 104.945 138.212 105.383 138.088 105.759C137.952 106.175 137.603 106.526 137.168 106.71C136.765 106.88 136.298 106.903 135.884 106.729C135.535 106.581 135.214 106.294 135.011 105.807C134.669 104.985 134.1 104.079 133.347 103.598ZM159.389 105.425C159.038 105.608 158.763 105.663 158.374 105.546C158.158 105.481 157.945 105.357 157.779 105.19C157.613 105.025 157.494 104.82 157.448 104.592C157.334 104.029 157.026 103.502 156.588 103.159C156.213 102.865 155.74 102.71 155.215 102.798C154.649 102.892 154.109 103.256 153.738 103.684C153.613 103.827 153.516 103.99 153.418 104.152C153.235 104.454 153.057 104.735 152.805 104.957C152.709 105.042 152.565 105.1 152.425 105.1C152.368 105.1 152.311 105.091 152.256 105.074C151.692 104.508 151.584 104.079 151.602 103.653C151.621 103.206 151.797 102.754 152.081 102.332C152.748 101.343 154.015 100.531 154.87 100.348C156.04 100.096 157.203 100.398 158.135 101.052C159.094 101.725 159.804 102.77 160.026 103.947C160.079 104.231 160.056 104.537 159.948 104.802C159.843 105.062 159.659 105.284 159.389 105.425ZM135.929 93.0475C135.226 93.7322 134.395 93.8382 133.554 93.9325C133.086 93.9855 132.713 94.0281 132.346 94.111C131.337 94.3388 130.34 94.682 129.43 95.1763C128.478 95.693 127.442 96.3162 126.696 97.1145C126.518 97.3044 126.351 97.5037 126.184 97.7035C126.031 97.8857 125.884 98.061 125.729 98.2301C125.551 98.4243 125.382 98.6279 125.214 98.8309C125.11 99.0022 125.09 99.0444 125.069 99.0882C125.037 99.1541 125 99.2279 124.959 99.307C124.901 99.4154 124.834 99.534 124.764 99.6416C124.647 99.8382 124.584 99.8923 124.53 99.9165C124.44 99.9566 124.355 99.9764 124.272 99.9657C124.194 99.9557 124.121 99.9184 124.049 99.8573C123.688 99.5525 123.582 99.0522 123.593 98.5212C123.609 97.7153 123.906 96.8231 124.18 96.2747C124.817 95.0003 125.7 93.6755 126.762 92.7244C127.974 91.6387 129.3 90.8168 130.823 90.2504C131.769 89.8983 132.865 89.5751 133.896 89.6159C134.638 89.6453 135.346 89.866 135.931 90.4171C136.29 90.7554 136.463 91.2366 136.463 91.7175C136.463 92.208 136.284 92.7013 135.929 93.0475ZM160.818 99.3172C160.773 99.3904 160.711 99.4409 160.642 99.4712C160.57 99.503 160.49 99.5122 160.413 99.4991C160.336 99.4862 160.263 99.4513 160.205 99.398C160.149 99.3469 160.107 99.2791 160.088 99.1961C159.621 97.1469 158.716 95.6223 156.783 94.6392C155.832 94.1555 154.739 93.8482 153.704 93.6032C153.403 93.532 153.085 93.4859 152.765 93.4392C151.762 93.2926 150.752 93.1248 150.098 92.3137C149.704 91.8251 149.538 91.2003 149.632 90.6288C149.72 90.0908 150.034 89.5974 150.606 89.3018C152.028 88.5661 153.795 89.288 155.232 89.903C155.338 89.9486 155.443 89.9934 155.545 90.0366C156.95 90.6297 158.231 91.4127 159.284 92.5323C160.12 93.4206 160.894 94.7338 161.206 96.0847C161.465 97.2085 161.404 98.3559 160.818 99.3172Z" fill="black"/>
<path fill-rule="evenodd" clip-rule="evenodd" d="M148.503 116.101C146.153 115.042 141.934 115.966 140.403 116.333C136.842 117.188 133.26 119.034 132.153 121.926C130.905 125.186 133.394 126.212 133.76 126.044C136.225 126.218 139.161 124.668 141.744 124.268C143.841 123.94 146.053 123.654 148.018 122.539C149.453 123.329 152.693 123.755 155.307 124.446C157.534 125.033 158.499 126.307 160.564 126.037C163.038 125.712 162.025 120.506 159.268 118.397C156.25 116.088 151.145 115.152 148.503 116.101ZM153.155 138.361C151.099 138.863 150.961 134.356 150.731 132.763C150.551 131.519 149.537 128.311 146.964 128.45C144.392 128.588 143.425 131.276 143.555 132.948C143.64 134.032 144.639 139.523 141.451 140.218C139.419 140.21 137.068 140.073 134.931 139.679C132.416 139.109 129.146 137.114 128.282 141.043C127.971 142.457 139.05 146.658 143.966 147.038C148.951 148.049 154.784 146.495 158.334 142.679C159.142 141.811 161.416 138.208 161.578 137.326C161.918 135.471 161.13 134.278 158.836 134.931C157.216 135.797 154.477 138.039 153.155 138.361Z" fill="black"/>
<path fill-rule="evenodd" clip-rule="evenodd" d="M163.095 111.465C159.925 112.993 155.501 110.74 153.369 108.379C152.593 107.52 151.995 105.061 152.293 103.502C153.102 99.2791 156.14 96.7446 159.347 95.8791C163.793 94.679 168.267 97.7191 167.745 101.307C167.251 104.707 166.502 109.638 163.095 111.465ZM141.514 103.353C141.26 107.955 137.566 111.983 133.15 113.177C126.036 115.163 122.52 110.16 120.928 104.77C120.769 104.235 120.397 102.6 121.395 101.198C125.321 95.6827 134.873 96.6228 139.644 98.1369C141.041 99.4729 141.612 101.401 141.514 103.353ZM166.54 95.4154C166.538 95.4181 166.536 95.4205 166.534 95.4232C166.517 95.4133 166.501 95.4031 166.485 95.3934C166.503 95.401 166.522 95.4076 166.54 95.4154ZM172.493 95.9474C172.079 91.2617 157.383 93.0559 155.665 93.4399C150.975 94.8196 146.925 98.5732 141.682 96.9232C136.25 90.8652 117.957 92.6025 114.122 95.6884C113.396 95.4035 112.513 95.5564 111.578 95.8252C106.775 95.6517 84.8487 97.308 89.3335 103.44C90.0142 103.913 90.6943 103.432 90.7131 102.459C114.093 94.0162 111.826 101.924 114.599 101.001C115.022 101.123 115.464 101.2 115.851 101.281C117.997 101.972 118.725 101.758 119.008 104.168C120.95 122.778 145.722 116.355 143.691 101.09C145.702 100.98 147.462 100.109 149.589 100.959C151.066 115.339 162.633 115.919 166.114 110.934C168.739 107.475 167.698 102.253 171.307 99.5316C172.731 100.724 172.823 96.6995 172.493 95.9474Z" fill="black"/>
</svg>
