<svg width="260" height="324" viewBox="0 0 260 324" fill="none" xmlns="http://www.w3.org/2000/svg">
<path fill-rule="evenodd" clip-rule="evenodd" d="M235.394 213.807C235.358 213.647 235.55 213.524 235.675 213.644C237.781 215.675 239.268 218.271 240.902 220.676C242.456 222.967 244.149 225.169 245.309 227.697C246.386 230.047 247.081 232.431 247.288 235.014C247.495 237.578 247.227 240.148 246.775 242.673C245.885 247.648 243.984 252.359 241.897 256.935C239.867 261.384 237.574 265.705 235.153 269.949L234.285 271.463C233.226 273.308 232.156 275.149 231.01 276.935C229.584 279.159 228.282 281.454 226.402 283.31C225.067 284.631 222.551 283.31 223.159 281.422C223.423 280.6 223.63 279.826 224.04 279.063C224.351 278.482 224.702 277.918 225.031 277.345C225.69 276.2 226.343 275.05 227.002 273.905C228.386 271.497 229.844 269.134 231.215 266.719C233.594 262.53 235.84 258.262 237.825 253.871L238.059 253.352C239.886 249.286 241.618 245.073 242.421 240.674C243.266 236.039 242.509 231.671 240.863 227.314C240.012 225.061 239.055 222.859 238.06 220.665L237.869 220.246C236.908 218.152 235.889 216.07 235.394 213.807ZM133.109 133.637C133.128 133.555 133.267 133.549 133.28 133.637C133.871 137.573 132.555 141.737 130.411 145.01C129.24 146.798 127.797 148.413 126.097 149.711L125.964 149.811C124.227 151.11 121.879 152.365 119.723 151.522C119.655 151.497 119.592 151.467 119.532 151.434C119.775 151.81 119.999 152.205 120.228 152.6C120.906 153.777 121.514 154.997 122.175 156.185C123.359 158.309 124.768 160.209 126.549 161.872C133.67 168.522 143.67 170.102 153.061 170.027L153.725 170.02C157.85 169.991 163.245 170.202 166.43 167.215C168.141 165.611 169.083 163.33 169.935 161.189C170.771 159.091 171.344 156.924 172.039 154.79C170.587 153.794 169.256 152.579 168.211 151.159C167.121 149.679 166.297 148.014 165.821 146.236L165.751 145.971C165.383 144.553 165.014 142.678 165.606 141.339C165.673 141.185 165.927 141.196 165.999 141.339C166.318 141.98 166.379 142.703 166.575 143.387C166.804 144.184 167.061 144.977 167.401 145.731C168.059 147.194 168.927 148.584 169.968 149.802C170.828 150.81 171.76 151.736 172.825 152.513C173.452 151.429 174.908 151.283 176.127 151.641C177.761 152.118 179.373 152.731 180.948 153.379L181.263 153.509C182.82 154.156 184.58 154.749 186.037 155.631C186.923 156.054 187.772 156.478 188.571 156.855C192.55 158.725 196.47 160.709 200.373 162.731L201.209 163.165C202.844 164.017 204.464 164.877 205.886 166.065C207.333 167.274 208.457 168.927 209.513 170.476C211.928 174.018 214.204 177.662 216.591 181.223C221.412 188.409 226.233 195.595 231.082 202.764C232.254 204.499 233.577 206.192 234.629 208.001C235.637 209.73 235.609 211.505 235.413 213.435L235.376 213.79C234.999 217.329 234.352 220.729 232.366 223.764C229.242 228.536 224.319 231.508 219.111 233.553C219.747 234.027 220.345 234.538 221.104 234.864C222.27 235.363 223.514 235.621 224.775 235.724C226.121 235.832 227.638 235.496 228.728 236.411C229.166 236.776 229.178 237.656 228.728 238.021C227.68 238.877 226.326 238.632 225.048 238.489L224.972 238.48C223.787 238.349 222.618 238.129 221.505 237.694C221.23 237.586 220.958 237.466 220.694 237.332C220.702 237.356 220.706 237.383 220.702 237.413C220.512 238.869 220.1 240.246 219.664 241.637L219.388 242.519C218.826 244.32 218.26 246.116 217.677 247.913C216.567 251.333 215.359 254.72 214.146 258.104L213.099 261.023C212.023 264.018 210.934 267.009 209.731 269.954C208.987 271.772 208.24 273.59 207.494 275.405C206.765 277.178 206.159 279.093 205.254 280.782C204.511 282.173 202.482 281.177 202.808 279.748C203.235 277.874 204.04 276.014 204.654 274.19C205.28 272.338 205.892 270.485 206.528 268.637C207.634 265.429 208.859 262.262 210.09 259.099L211.31 255.963C212.507 252.891 213.719 249.821 215.013 246.789L215.154 246.456C216.499 243.284 217.887 239.717 220.33 237.259C220.362 237.225 220.406 237.208 220.451 237.204C219.851 236.878 219.289 236.483 218.794 236.016L218.77 235.991C218.575 235.784 217.768 234.765 217.508 234.154C217.17 234.274 216.832 234.39 216.494 234.504C215.904 234.703 215.416 234.56 215.072 234.245L214.416 234.651C213.715 235.079 212.961 235.486 212.186 235.506C211.21 235.532 210.443 234.993 209.921 234.198C209.452 233.488 209.173 232.721 208.58 232.085C207.996 231.459 207.32 230.932 206.63 230.428L205.816 229.835C204.324 228.746 202.877 227.644 201.675 226.205C201.071 225.478 200.262 224.616 199.894 223.742C199.823 223.574 199.778 223.415 199.77 223.261C199.69 223.806 199.607 224.353 199.525 224.899C198.371 232.573 197.44 240.3 197.142 248.061C196.996 251.888 196.93 255.72 197.102 259.549C197.186 261.462 197.325 263.373 197.518 265.279C197.613 266.235 197.712 267.188 197.828 268.139L197.855 268.359C197.889 268.651 197.911 268.933 197.885 269.2C198.815 269.658 199.349 270.817 199.721 271.721C200.004 272.41 199.785 273.08 199.328 273.564C199.873 274.061 200.359 274.644 200.767 275.312C200.849 275.447 200.672 275.553 200.566 275.469C199.897 274.936 199.176 274.498 198.424 274.162C198.029 274.312 197.598 274.353 197.201 274.243C196.77 274.124 196.398 273.837 196.13 273.471C193.994 273.12 191.773 273.549 189.851 274.887C189.451 275.166 189.09 275.481 188.746 275.823C188.687 275.883 188.625 275.959 188.564 276.033L188.984 276.194C189.157 276.26 189.3 276.312 189.354 276.322C189.721 276.397 190.092 276.437 190.464 276.469L191.021 276.515C193.161 276.692 195.295 276.751 197.285 277.648C197.704 277.836 197.558 278.48 197.163 278.588C195.71 278.982 194.267 278.952 192.788 278.846L192.471 278.823C191.095 278.717 189.618 278.723 188.277 278.343C188.598 279.222 188.161 280.37 186.819 280.549C182.79 281.086 178.736 280.833 174.703 280.478C170.63 280.118 166.559 279.778 162.475 279.565C149.265 278.87 136.035 279.003 122.813 279.192L115.342 279.3C109.383 279.384 103.424 279.449 97.4652 279.404L94.6762 279.378C93.4975 279.366 92.3181 279.352 91.1408 279.317L90.4346 279.294C89.0318 279.243 87.1747 279.455 85.9557 278.624C84.9501 277.939 84.7261 276.684 85.3325 275.672C85.5078 275.38 85.7487 275.12 86.0001 274.866C86.5156 270.46 86.805 266.032 87.1008 261.606C88.1275 246.119 87.5275 230.711 85.1592 215.38C78.8043 217.322 72.5466 219.759 66.4494 222.373C63.1515 223.787 59.8705 225.254 56.6275 226.792C53.6677 228.198 50.6951 229.954 47.5325 230.867C47.245 231.122 46.843 231.244 46.4865 231.131L46.4402 231.115H46.4381C46.1128 231.191 45.7515 231.144 45.3966 230.931C45.3247 230.887 45.2529 230.843 45.1811 230.798L45.0733 230.73C43.9599 230.028 42.8402 229.164 42.0522 228.107C41.0951 228.995 40.0663 229.809 39.0543 230.633C37.9557 231.529 36.8613 232.429 35.7754 233.338C35.3444 233.699 34.8691 234.044 34.4888 234.46L34.4336 234.521C34.4247 234.531 34.4163 234.541 34.4085 234.551C36.0543 235.616 37.4951 237.233 38.786 238.639C40.1721 240.147 41.5103 241.704 42.8376 243.266L44.1225 244.782C53.2083 255.515 62.3871 266.637 74.1501 274.526C76.0092 275.773 74.2367 278.81 72.3902 277.536C68.8959 275.128 65.5895 272.455 62.4142 269.641C56.8494 264.715 51.8423 259.188 47.1543 253.429C44.7818 250.514 42.4789 247.528 40.2226 244.523L39.4568 243.503C38.4363 242.143 37.4212 240.78 36.4494 239.385L36.246 239.092C35.3936 237.862 34.4871 236.479 33.9374 235.063C33.7261 235.276 33.4874 235.455 33.1388 235.591C32.543 235.823 31.812 235.335 31.6663 234.754C31.3113 233.344 32.5367 232.505 33.5339 231.757C34.7444 230.852 35.9782 229.98 37.2142 229.111L37.6556 228.799C39.2012 227.702 40.7548 226.577 42.4388 225.71C42.4895 225.643 42.5508 225.579 42.6205 225.524C42.7008 225.461 42.7789 225.4 42.8592 225.338C40.848 222.075 38.6423 218.939 36.1811 215.975C34.3304 213.746 32.3656 211.618 30.2867 209.601L29.3528 208.697C27.9402 207.332 26.4714 205.948 24.9036 204.761L24.4128 205.318C23.7574 206.06 23.0956 206.795 22.3959 207.492C21.0184 208.861 19.6599 210.259 18.3078 211.656C16.0623 213.98 13.8929 216.375 11.7304 218.775L10.6494 219.974C8.39726 222.474 5.98458 224.928 3.9374 227.6L3.83516 227.735C2.9414 228.934 2.30518 230.261 2.7205 231.785C3.12122 233.253 4.07397 234.555 4.89518 235.824L4.97683 235.95C8.32965 241.175 11.9212 246.266 15.7684 251.138C23.4733 260.896 32.262 270.145 42.7494 276.929C44.2029 277.869 42.8444 280.207 41.3888 279.256C35.2642 275.251 29.6381 270.441 24.462 265.275C19.7106 260.535 15.405 255.314 11.3698 249.956C9.40289 247.342 7.51838 244.673 5.71205 241.944C3.96064 239.296 1.93458 236.572 0.664862 233.651C-0.000578566 232.114 -0.245701 230.451 0.299369 228.832C0.799241 227.344 1.78781 226.109 2.81623 224.946L2.91275 224.837C5.27683 222.181 7.68317 219.556 10.1106 216.956C12.5466 214.348 15.0944 211.833 17.6951 209.392C19.7381 207.471 21.8677 205.778 24.1451 204.21C23.9402 204.064 23.7353 203.924 23.5261 203.789C22.8902 203.375 22.7297 202.489 23.2874 201.927C24.8106 200.388 26.5663 199.05 28.2184 197.65C29.7712 196.333 31.324 195.014 32.8768 193.695C36.0374 191.015 39.198 188.333 42.3585 185.651C48.0353 180.834 53.6804 175.984 59.3381 171.146C61.6973 169.129 64.0784 167.138 66.4535 165.14L70.6732 161.588L72.737 159.855C73.7944 158.969 74.8744 158.092 76.0768 157.417C78.9062 155.827 82.3078 155.139 85.4251 154.297L85.6325 154.24C89.129 153.283 92.6444 152.382 96.179 151.579C99.7177 150.776 103.271 150.045 106.84 149.383C110.047 148.787 113.33 148.276 116.6 148.2C117.411 147.891 118.43 147.783 119.228 148.113C119.558 148.25 119.902 148.451 120.209 148.705C121.808 148.143 123.386 147.874 124.88 146.923C126.371 145.974 127.692 144.727 128.803 143.353C131.099 140.509 132.301 137.148 133.109 133.637ZM169.871 229.969C168.604 229.88 167.463 230.404 166.33 230.962C166.968 231.239 167.606 231.514 168.244 231.787L172.491 233.6C173.894 234.198 175.379 234.718 176.712 235.455C176.807 235.508 176.883 235.572 176.94 235.646C178.326 234.758 179.792 233.966 181.197 233.122C181.518 232.93 181.842 232.738 182.165 232.545C180.492 233.105 178.776 233.387 176.959 232.86C174.536 232.161 172.432 230.149 169.871 229.969ZM173.344 225.717L173.117 225.562C171.887 224.718 170.42 223.634 168.927 224.392C168.223 224.749 167.647 225.326 166.954 225.71C166.256 226.099 165.49 226.397 164.712 226.577C163.421 226.875 161.942 226.919 160.554 226.632L160.575 228.509C161.625 228.942 162.669 229.386 163.713 229.834C164.39 229.602 165.042 229.324 165.728 229.018L166.191 228.811C167.511 228.217 168.844 227.82 170.304 228.008C173.053 228.361 175.13 230.404 177.758 231.085C180.98 231.922 183.887 229.517 186.931 228.923C187.433 228.824 187.95 228.766 188.465 228.757L188.636 228.756L188.712 228.712C189.367 228.327 190.347 227.959 190.804 227.312C191.3 226.611 191.342 225.436 191.505 224.611C191.522 224.529 191.539 224.444 191.554 224.362C191.266 224.362 190.975 224.376 190.679 224.432C189.749 224.603 188.875 224.933 188.009 225.301C186.371 225.996 184.77 226.788 183.046 227.251C181.358 227.705 179.594 227.921 177.855 227.67C176.159 227.424 174.749 226.659 173.344 225.717ZM173.609 219.118L173.354 218.954C172.683 218.525 171.913 218.081 171.09 218.239C170.355 218.381 169.723 218.966 169.083 219.328C167.678 220.12 166.102 220.553 164.494 220.663C163.157 220.754 161.769 220.591 160.482 220.194L160.527 224.349C160.998 224.499 161.486 224.607 161.999 224.645C163.559 224.761 165.08 224.387 166.387 223.527L167.049 223.088C168.181 222.344 169.243 221.753 170.742 222.025C172.225 222.295 173.469 223.246 174.682 224.074L174.881 224.208C176.273 225.128 177.685 225.722 179.393 225.736C181.237 225.75 183.061 225.237 184.778 224.605C186.483 223.98 188.104 223.229 189.927 222.999C190.485 222.929 191.165 222.908 191.805 223.018C191.89 222.546 191.97 222.077 192.046 221.606C192.211 220.594 192.352 219.583 192.475 218.571C189.24 217.7 186.253 220.517 183.249 221.386C181.506 221.889 179.609 221.883 177.866 221.397C176.253 220.946 174.985 220.012 173.609 219.118ZM173.617 212.121C172.926 211.987 172.244 212.306 171.656 212.634C170.159 213.465 168.866 214.621 167.169 215.058C164.987 215.62 162.599 215.136 160.432 214.217C160.44 215.5 160.451 216.783 160.461 218.066C160.869 218.22 161.287 218.345 161.714 218.444C163.231 218.791 164.839 218.744 166.332 218.307C167.856 217.861 169.024 216.656 170.551 216.28C172.113 215.894 173.586 216.645 174.844 217.498L175.223 217.757C176.662 218.734 178.058 219.582 179.858 219.748C181.761 219.924 183.416 219.328 185.116 218.537L185.512 218.354C187.665 217.365 190.46 216.238 192.61 217.364C192.779 215.766 192.902 214.169 192.984 212.569C192.688 212.459 192.382 212.378 192.029 212.376C191.186 212.372 190.301 212.638 189.515 212.915C187.797 213.522 186.198 214.426 184.497 215.075C182.885 215.692 181.1 216.014 179.38 215.737C177.787 215.481 176.592 214.648 175.491 213.507L175.331 213.338C174.848 212.824 174.332 212.259 173.617 212.121ZM174.878 206.188C174.082 205.768 173.112 205.376 172.191 205.499C171.312 205.615 170.726 206.211 170.185 206.849L169.892 207.198C168.924 208.344 167.971 209.307 166.478 209.779C164.932 210.265 163.292 210.075 161.854 209.362C161.342 209.109 160.867 208.794 160.39 208.483L160.415 211.854C161.37 212.33 162.342 212.759 163.409 213.019C165.378 213.499 167.051 213.143 168.735 212.057L168.911 211.942C170.18 211.109 171.48 210.117 173.047 210.024C174.575 209.932 175.723 210.78 176.729 211.818L176.847 211.941C178.117 213.281 179.399 213.934 181.288 213.78C183.119 213.63 184.833 212.821 186.51 212.124L186.663 212.061C188.197 211.431 189.965 210.783 191.649 211.024C192.052 211.081 192.574 211.205 193.039 211.423C193.106 209.846 193.138 208.268 193.144 206.687C192.187 205.856 190.698 205.719 189.5 206.059C187.624 206.592 186.088 207.965 184.297 208.711C182.708 209.373 181.051 209.521 179.431 208.895C177.758 208.249 176.446 207.016 174.878 206.188ZM193.039 199.547C190.235 199.645 187.493 201.468 184.816 202.164C181.826 202.94 179.386 201.882 176.722 200.707L176.378 200.556C175.011 199.955 173.543 199.416 172.028 199.661C170.551 199.903 169.246 200.72 167.976 201.46L167.733 201.6C165.42 202.917 163.064 203.819 160.364 203.594C160.379 204.442 160.373 205.288 160.375 206.116C160.818 206.37 161.245 206.657 161.651 206.919L161.796 207.011C163.084 207.817 164.411 208.346 165.946 207.849C167.429 207.367 168.126 206.076 169.144 205.013C170.08 204.036 171.301 203.443 172.671 203.5C174.143 203.558 175.535 204.208 176.752 205C177.969 205.793 179.146 206.818 180.57 207.215C183.764 208.103 186.5 204.723 189.521 204.197C190.789 203.975 192.187 204.256 193.144 205.021C193.134 203.199 193.094 201.373 193.039 199.547ZM168.908 198.782C168.513 198.797 168.118 198.814 167.723 198.831C166.261 198.894 164.799 198.966 163.337 199.049C162.325 199.103 161.08 199.414 160.087 199.106C160.062 199.207 160.028 199.304 159.984 199.399C160.134 200.148 160.227 200.921 160.284 201.703C161.201 201.802 162.132 201.769 163.037 201.58C165.206 201.13 166.968 199.761 168.908 198.782ZM192.997 198.154C187.658 198.522 182.278 198.396 176.931 198.511L176.29 198.526C176.264 198.526 176.239 198.529 176.213 198.529C176.827 198.767 177.435 199.039 178.042 199.316L178.647 199.594C180.08 200.253 181.537 200.792 183.141 200.676C184.859 200.551 186.477 199.85 188.082 199.283C189.614 198.742 191.378 198.379 193.011 198.615C193.007 198.461 193.003 198.309 192.997 198.154Z" fill="black"/>
<path fill-rule="evenodd" clip-rule="evenodd" d="M196.558 83.3132C196.646 83.4803 196.711 83.6655 196.747 83.8669C196.862 84.5062 196.626 84.9951 196.317 85.4698C196.358 85.8007 196.381 86.1216 196.398 86.4037C196.497 87.988 196.134 90.1596 194.737 90.8064C194.716 90.8326 194.693 90.8586 194.67 90.8846C194.563 91.06 194.398 91.2117 194.182 91.3225C194.128 91.3599 194.074 91.3954 194.019 91.4258C194.005 91.4381 193.99 91.4491 193.974 91.4601C193.963 91.4681 193.952 91.4762 193.941 91.4848C193.958 91.4671 193.974 91.4489 193.991 91.4307C194.003 91.4175 194.015 91.4043 194.027 91.3912C193.255 91.6993 192.509 91.7629 191.713 91.6693C191.22 91.8473 190.727 91.9802 190.311 92.0831C189.011 92.4042 187.335 92.6612 186.069 92.1138C185.7 91.9544 185.394 91.7433 185.164 91.4916C185.183 92.4722 185.211 93.4527 185.254 94.4333C185.34 96.9125 185.336 99.3895 185.317 101.871C185.296 104.663 185.218 107.457 185.068 110.247C184.998 111.648 184.886 113.047 184.736 114.442C184.609 115.801 184.461 117.158 184.29 118.51C183.887 121.292 183.221 124.094 182.41 126.783C182.057 127.949 181.671 129.131 181.231 130.285C181.045 130.815 180.849 131.339 180.635 131.859C179.509 134.584 178.107 137.213 176.211 139.483C175.176 140.721 174.033 141.835 172.757 142.771C171.733 143.57 170.623 144.247 169.404 144.779C166.785 145.925 163.861 146.182 161.028 146.14C159.947 146.126 158.801 145.935 157.73 145.756L157.664 145.745C156.828 145.608 155.98 145.424 155.142 145.208C154.398 145.035 153.663 144.834 152.938 144.599C152.066 144.369 151.229 144.037 150.433 143.608L149.021 143.078C148.432 142.856 147.859 142.592 147.304 142.289L145.77 141.573C145.134 141.266 144.515 140.93 143.911 140.561C143.847 140.527 143.776 140.47 143.748 140.406C143.683 140.37 143.617 140.335 143.551 140.299C143.46 140.25 143.368 140.2 143.277 140.148C143.252 140.136 143.271 140.062 143.304 139.99C143.277 139.933 143.281 139.869 143.357 139.812C143.414 139.768 143.505 139.781 143.6 139.81C143.592 139.804 143.585 139.798 143.579 139.791C143.546 139.773 143.513 139.755 143.48 139.738C143.408 139.699 143.337 139.661 143.266 139.622C143.161 139.565 143.144 139.417 143.243 139.339C143.271 139.318 143.302 139.307 143.334 139.305C143.332 139.305 143.33 139.303 143.328 139.303C143.309 139.29 143.323 139.231 143.351 139.166C143.298 139.098 143.281 139.016 143.374 138.944C143.502 138.844 143.787 139.008 143.921 139.084C143.931 139.09 143.94 139.095 143.949 139.1C144.032 139.146 144.116 139.191 144.199 139.235C144.25 139.262 144.3 139.289 144.35 139.316C144.359 139.297 144.376 139.28 144.403 139.263C144.207 139.159 144.012 139.054 143.818 138.948L143.818 138.948C143.697 138.885 143.541 138.751 143.7 138.627C143.826 138.525 144.154 138.699 144.31 138.787C144.329 138.773 144.35 138.766 144.376 138.762C144.308 138.724 144.236 138.688 144.169 138.648C143.978 138.542 144.107 138.212 144.304 138.322C144.315 138.33 144.327 138.337 144.339 138.343C144.35 138.35 144.362 138.357 144.373 138.365C144.508 138.353 144.694 138.457 144.79 138.511L144.804 138.519C145.466 138.935 146.154 139.299 146.869 139.612C147.35 139.84 147.834 140.066 148.32 140.286C148.797 140.522 149.29 140.728 149.795 140.901C151.064 141.395 152.347 141.856 153.642 142.283C155.457 142.78 157.335 143.179 159.219 143.336C159.464 143.355 159.709 143.371 159.954 143.38C160.222 143.378 160.489 143.376 160.757 143.375C161.026 143.373 161.294 143.372 161.562 143.369C162.51 143.271 163.459 143.175 164.405 143.079L164.685 143.05C165.048 143 165.403 142.936 165.754 142.862C165.938 142.818 166.121 142.771 166.303 142.718C166.345 142.713 166.387 142.705 166.43 142.698C166.451 142.694 166.472 142.69 166.493 142.687C166.939 142.568 167.376 142.427 167.814 142.262C168.088 142.15 168.361 142.032 168.631 141.907C169.525 141.49 170.404 140.941 171.232 140.311C171.751 139.794 172.269 139.278 172.788 138.762C173.307 138.246 173.825 137.73 174.344 137.213L175.292 135.919C176.518 134.167 177.488 132.214 178.292 130.221L179.573 126.531C179.706 126.087 179.833 125.643 179.953 125.197C180.196 124.2 180.439 123.202 180.682 122.207C180.762 121.841 180.84 121.478 180.916 121.114C181.383 118.851 181.641 116.553 181.863 114.256C182.269 110.075 182.378 105.882 182.408 101.685C182.427 99.176 182.406 96.6673 182.355 94.1607C182.326 92.7066 182.304 91.2525 182.283 89.7984C182.256 88.2556 182.226 86.7106 182.186 85.1678C182.184 85.1339 182.197 85.1043 182.214 85.079C182.209 84.8972 182.207 84.7155 182.205 84.5316C182.203 84.4111 182.25 84.3583 182.317 84.3477C182.304 83.2466 182.296 82.1476 182.294 81.0485C182.294 80.9767 182.328 80.9302 182.372 80.9027V80.6237C182.188 79.8586 181.939 79.1083 181.616 78.394C181.506 78.1361 181.383 77.8846 181.248 77.6395C181.081 77.2717 180.864 76.9378 180.597 76.6313C180.376 76.2572 180.103 75.9254 179.786 75.6295C179.722 75.583 179.657 75.5365 179.592 75.49C179.527 75.4435 179.462 75.397 179.397 75.3505C179.29 75.2935 179.131 75.1941 178.992 75.08C178.866 75.0029 178.741 74.9252 178.616 74.8475C178.491 74.7698 178.365 74.6922 178.24 74.615C178.094 74.5389 178.189 74.3487 178.292 74.298V74.2917C178.269 74.2811 178.244 74.2684 178.216 74.2452C177.912 73.9577 177.595 73.6872 177.266 73.4336C177.207 73.4568 177.137 73.4484 177.084 73.404C176.89 73.2222 176.691 73.0468 176.488 72.8777C176.034 72.5797 175.559 72.3071 175.062 72.0662C174.266 71.6899 173.45 71.3666 172.614 71.0918C172.451 71.0383 172.287 70.9899 172.124 70.9417L172.071 70.9259C171.972 70.9212 171.874 70.9163 171.775 70.9113C171.616 70.9034 171.458 70.8954 171.3 70.8885C161.726 70.4683 152.128 70.6448 142.577 71.4156C140.224 71.6056 137.873 71.832 135.527 72.0943C135.085 72.1438 134.624 72.1823 134.153 72.2216C132.429 72.3656 130.582 72.5199 129.09 73.2632C129.01 73.3034 128.934 73.3459 128.859 73.3896C128.988 74.2141 129.296 75.0217 129.596 75.8062C129.642 75.9254 129.687 76.0442 129.732 76.1623C130.252 77.5437 130.718 78.9517 130.672 80.4477C130.64 81.4909 130.415 82.494 130.093 83.4742C129.927 84.8719 129.492 86.2218 129.03 87.548C126.755 94.0732 125.517 100.754 125.644 107.681C125.647 107.866 125.604 108.028 125.531 108.166L125.535 108.193C125.575 108.487 125.615 108.781 125.663 109.074C125.853 110.241 124.314 110.822 123.783 110.048C123.747 110.083 123.698 110.108 123.652 110.111C123.517 110.124 123.295 109.902 123.232 109.801C123.15 109.648 123.063 109.501 122.97 109.359C122.957 109.353 122.947 109.348 122.936 109.344C122.953 109.38 122.971 109.416 122.988 109.452C123.029 109.535 123.069 109.618 123.107 109.697C123.2 109.883 122.843 109.974 122.738 109.803C122.642 109.653 122.547 109.509 122.452 109.372C122.397 109.412 122.336 109.422 122.296 109.357C121.956 108.795 121.563 108.313 121.132 107.903C120.454 107.349 119.712 107.013 118.869 106.816C118.206 106.721 117.526 106.717 116.869 106.793C116.114 106.882 115.32 107.07 114.638 107.414C114.082 107.797 113.524 108.18 112.966 108.562C112.829 108.706 112.698 108.856 112.576 109.012C112.189 109.513 111.878 110.048 111.623 110.616C111.612 110.652 111.602 110.688 111.591 110.722C111.435 111.2 111.333 111.69 111.289 112.193C111.286 112.511 111.283 112.829 111.28 113.146C111.278 113.464 111.275 113.781 111.272 114.099C111.357 114.926 111.568 115.729 111.891 116.492C112.043 116.942 112.282 117.344 112.605 117.699C112.778 117.999 112.975 118.272 113.195 118.525C113.64 118.821 114.126 119.073 114.644 119.271L114.644 119.271C114.771 119.305 114.897 119.339 115.026 119.364C115.692 119.62 116.38 119.757 117.092 119.776C117.992 119.838 118.873 119.759 119.735 119.542C120.268 119.447 120.783 119.292 121.282 119.079C121.759 118.838 122.209 118.548 122.63 118.21C122.676 118.181 122.746 118.198 122.822 118.236C122.838 118.224 122.855 118.212 122.871 118.2C122.947 118.145 123.024 118.09 123.099 118.028C123.141 117.999 123.179 118.035 123.198 118.073L123.223 118.054C123.39 117.94 123.849 118.297 123.642 118.508C123.73 118.563 123.819 118.629 123.9 118.696C124.267 118.711 125.009 119.387 124.869 119.493C124.662 119.673 124.445 119.838 124.223 119.994C124.419 120.14 124.677 120.366 124.557 120.457C124.341 120.662 124.107 120.839 123.857 120.992C123.688 121.121 123.515 121.243 123.333 121.355C123.137 121.471 122.936 121.571 122.729 121.664C123.09 122.363 123.435 123.069 123.756 123.788C123.969 124.297 124.216 124.79 124.502 125.263C124.865 125.984 125.3 126.66 125.809 127.29C126.223 127.987 126.709 128.628 127.265 129.213C127.952 129.995 128.689 130.731 129.473 131.411C129.785 131.633 130.104 131.849 130.436 132.047C131.283 132.686 132.185 133.233 133.142 133.69C133.254 133.751 133.343 133.886 133.212 133.992C133.208 133.994 133.204 133.994 133.2 133.998C133.512 134.176 133.827 134.351 134.144 134.524L134.154 134.53C134.282 134.599 134.519 134.727 134.334 134.877C134.211 134.979 133.833 134.797 133.607 134.679C133.625 134.688 133.644 134.699 133.664 134.71C133.678 134.717 133.692 134.726 133.707 134.734C133.71 134.735 133.714 134.737 133.718 134.74C133.812 134.79 134.166 134.98 133.93 135.103C133.806 135.125 133.688 135.103 133.573 135.042C133.455 134.998 133.337 134.949 133.221 134.898C133.225 134.937 133.204 134.972 133.142 135.002C133.094 135.01 133.047 135.01 133.001 135.006C133.259 135.152 133.516 135.296 133.776 135.437C133.852 135.478 134.211 135.676 133.975 135.799C133.859 135.822 133.747 135.803 133.639 135.744C133.442 135.67 133.248 135.583 133.06 135.488C133.038 135.475 133.016 135.463 132.994 135.451C132.971 135.439 132.949 135.427 132.927 135.414C132.893 135.414 132.859 135.41 132.826 135.404C133.033 135.516 133.242 135.623 133.453 135.729C133.578 135.797 133.787 135.934 133.607 136.074C133.483 136.169 133.147 135.997 132.948 135.885C132.935 135.9 132.921 135.917 132.9 135.934C132.77 136.032 132.462 135.855 132.307 135.765C132.285 135.752 132.266 135.741 132.251 135.733C131.203 135.171 130.191 134.59 129.217 133.924C128.621 133.542 128.04 133.14 127.472 132.703C126.384 131.861 125.395 130.883 124.489 129.851C123.87 129.146 123.534 128.748 122.934 127.892C121.971 126.514 121.244 125.077 120.545 123.553C120.534 123.53 120.555 123.471 120.587 123.412C120.443 123.059 120.304 122.701 120.164 122.332C119.801 122.38 119.435 122.414 119.074 122.435C118.223 122.484 117.397 122.408 116.596 122.232C115.626 122.108 114.667 121.833 113.818 121.402C113.309 121.146 112.819 120.873 112.354 120.569C111.938 120.347 111.536 120.093 111.152 119.797C109.514 118.546 108.625 116.604 108.407 114.588C108.24 113.7 108.204 112.787 108.304 111.906C108.376 111.265 108.519 110.631 108.728 110.02C109.115 108.666 109.835 107.412 110.879 106.463C111.054 106.284 111.238 106.113 111.435 105.952C112.016 105.476 112.675 105.094 113.376 104.815C113.511 104.749 113.649 104.688 113.786 104.631L113.619 104.246C113.56 104.263 113.355 104.229 113.33 104.158C113.288 104.045 113.248 103.93 113.209 103.816C113.184 103.744 113.159 103.673 113.133 103.602C113.095 103.625 113.047 103.638 112.994 103.64V103.853C112.996 103.915 112.88 104.295 112.816 104.096C112.776 103.985 112.739 103.873 112.701 103.76C112.677 103.688 112.653 103.616 112.628 103.545C112.576 103.511 112.535 103.471 112.521 103.424C112.517 103.412 112.513 103.4 112.508 103.388C112.505 103.381 112.503 103.374 112.5 103.367C112.496 103.366 112.492 103.365 112.488 103.364C112.487 103.364 112.486 103.363 112.485 103.363V103.428C112.487 103.469 112.381 103.773 112.362 103.714C111.997 102.708 111.699 101.681 111.466 100.636C111.308 100.062 111.183 99.4804 111.088 98.8907C110.985 98.3602 110.894 97.8276 110.816 97.2908L110.797 97.1577C110.796 97.1524 110.795 97.1476 110.794 97.1429C110.792 97.1381 110.791 97.1333 110.79 97.1281C110.784 97.071 110.778 97.0118 110.769 96.9548C110.685 96.3482 110.615 95.7395 110.562 95.1266C110.45 93.8669 110.406 92.6009 110.419 91.3371C110.401 91.3437 110.385 91.3519 110.368 91.3603C110.359 91.3653 110.349 91.3703 110.338 91.3751C109.789 91.6089 109.209 91.7999 108.619 91.9521C107.604 93.4197 105.984 94.4128 104.041 94.5173C103.384 94.5528 102.694 94.4727 102.056 94.2869C101.989 94.3021 101.921 94.3144 101.85 94.3237C101.516 94.3673 101.248 94.2958 100.97 94.2219C100.814 94.1805 100.656 94.1383 100.481 94.1151C100.418 94.1067 100.356 94.0987 100.294 94.0908C99.5962 94.0011 99.0009 93.9245 98.5377 93.5087C98.382 93.5123 98.2332 93.4897 98.0919 93.4474C96.7552 93.768 95.3349 93.0613 94.8648 91.5801C94.063 91.1101 93.4242 90.4128 92.9946 89.6038C92.1673 88.5428 91.5058 87.2419 91.0956 85.8751C91.093 85.87 91.0904 85.8649 91.0878 85.8598C91.0838 85.8522 91.0798 85.8445 91.0761 85.8365C90.868 85.385 90.7689 84.9008 90.7605 84.4151C90.5391 83.0316 90.5974 81.6464 91.0184 80.4289C91.0007 79.7688 91.1558 79.0809 91.4397 78.4567C91.7839 77.6999 92.3087 76.8298 92.9896 76.3251C92.9913 75.5494 93.3244 74.6956 93.7611 74.1169C94.6326 72.961 95.8964 72.35 97.2642 72.2617C97.9596 70.4781 100.067 70.0615 101.885 70.6552C102.64 69.8833 103.746 69.5147 104.85 69.646C105.783 69.7569 106.581 70.2035 107.241 70.819C107.415 70.8686 107.589 70.9204 107.762 70.9743C108.34 70.7205 109.015 70.663 109.632 70.8221C110.702 71.098 111.399 71.9087 111.882 72.8386C112.036 72.9447 112.187 73.0542 112.333 73.1686C112.495 73.2408 112.641 73.3374 112.774 73.4511C112.967 73.5541 113.131 73.7233 113.231 73.9689C113.503 74.25 113.757 74.5474 113.981 74.8663C114.149 74.4777 114.323 74.0917 114.501 73.7086C114.793 73.7963 115.145 73.6828 115.292 73.2935L115.329 73.1944C116.266 70.7066 117.934 66.2774 119.508 64.2217C117.647 65.4891 115.375 66.1572 113.118 66.09C113.022 66.0871 112.924 66.083 112.826 66.0778C111.613 66.287 110.38 66.3064 109.249 66.0794C108.487 65.8028 107.745 65.4731 107.026 65.1C106.851 65.0092 106.677 64.9136 106.504 64.8173C106.45 64.7716 106.399 64.7221 106.348 64.6727C106.327 64.6532 106.307 64.6338 106.287 64.6146C106.138 64.6254 105.983 64.6137 105.817 64.5698C105.194 64.4051 104.618 63.9907 104.257 63.4581C104.19 63.3589 104.136 63.2569 104.087 63.1539C103.696 62.7705 103.356 62.3362 103.107 61.8283C102.813 61.2344 102.633 60.5666 102.614 59.8987C102.492 59.2435 102.5 58.5693 102.728 57.9437C102.744 57.9011 102.762 57.8593 102.78 57.8174C102.79 57.7927 102.801 57.768 102.811 57.7429C102.816 57.7256 102.82 57.708 102.825 57.6903C102.831 57.6647 102.838 57.639 102.847 57.614C102.913 57.391 102.998 57.1924 103.101 57.0043C103.14 56.8109 103.202 56.6192 103.291 56.4326C103.3 56.3423 103.313 56.2521 103.327 56.1623C102.656 54.8952 102.894 53.2382 103.899 52.2083C103.76 51.5426 103.901 50.8366 104.306 50.2459C104.604 49.8118 105.017 49.4692 105.486 49.2314C105.534 49.2067 105.664 49.1642 105.818 49.1154C105.992 48.9622 106.174 48.8172 106.374 48.6895C106.422 47.451 107.658 46.7366 108.728 46.1181C108.779 46.0882 108.831 46.0585 108.882 46.0291C109.23 45.8267 109.483 45.5359 109.736 45.2449C110.001 44.9394 110.267 44.6337 110.644 44.43C111.303 44.0739 112.114 43.992 112.874 43.9152C113.042 43.8982 113.208 43.8815 113.369 43.8621C115.466 43.6093 117.699 43.414 119.807 43.6425C120.977 43.7693 121.946 44.3347 122.347 45.2608C123.354 45.3798 124.251 46.1064 124.961 46.8538C125.847 47.7864 126.601 48.7794 126.861 50.005C127.035 50.0986 127.192 50.2132 127.334 50.3425C127.329 51.2044 127.217 52.0678 126.979 52.8813C127.049 53.3676 126.902 53.8319 126.655 54.2529C126.692 54.6515 126.665 55.044 126.582 55.4352C127.064 56.2901 126.613 57.5821 125.938 58.4298L125.933 58.9079C125.973 58.887 126.012 58.8623 126.049 58.8312C127.99 57.1789 129.965 56.7235 132.099 56.2315C133.331 55.9475 134.615 55.6512 135.977 55.1053C139.332 54.4575 142.755 54.0452 146.191 53.908C146.172 53.9051 146.153 53.9026 146.133 53.9C146.107 53.8966 146.081 53.8932 146.055 53.889C144.324 53.6053 142.661 52.8929 141.23 51.8693C140.852 51.7734 140.493 51.6024 140.172 51.3164C139.859 51.0387 139.643 50.7183 139.519 50.3746C139.462 50.314 139.406 50.2529 139.351 50.1908C138.278 49.927 137.46 48.9977 137.597 47.7761C136.917 46.9711 136.667 45.9771 136.897 44.9421C136.517 44.3002 136.484 43.491 136.767 42.8132C136.17 42.0878 136.124 41.0581 136.592 40.2374C136.165 39.6298 136.07 38.8246 136.598 38.1049C136.846 37.7651 137.191 37.5507 137.567 37.4472C137.673 37.0556 137.889 36.6918 138.227 36.4109C138.402 36.2666 138.584 36.1594 138.771 36.0795C138.841 35.6752 139.069 35.2918 139.509 34.9902C139.708 34.8535 139.912 34.7652 140.115 34.7161C140.307 34.2406 140.642 33.8236 141.114 33.5528C141.683 33.2263 142.345 33.183 142.948 33.3542C143.735 32.1634 145.464 31.7018 146.662 32.5851C147.659 31.9675 148.914 32.0977 149.811 32.8486C150.895 32.2076 152.241 32.4663 153.092 33.3601C154.454 32.6153 156.253 33.1654 156.982 34.5766C158.357 34.424 159.653 35.3244 160.019 36.6276C160.079 36.6758 160.138 36.7255 160.196 36.7752L160.212 36.7886C161.036 36.8281 161.819 37.1511 162.28 37.9174C162.511 38.3002 162.617 38.7499 162.602 39.1906C163.094 39.4569 163.492 39.8938 163.663 40.46C163.822 40.9909 163.762 41.5161 163.552 41.9737C164.238 42.7035 164.419 43.841 163.933 44.7576C164.134 45.1025 164.239 45.5102 164.222 45.934C164.198 46.5615 163.907 47.0672 163.512 47.499C164.009 48.3972 163.815 49.5495 163.006 50.1793C162.542 51.827 161.366 52.9233 159.564 53.5958C158.659 53.9336 157.713 54.1937 156.748 54.3848C160.609 54.9045 164.407 55.818 168.056 57.1799C168.254 57.2541 168.423 57.2251 168.551 57.1387C168.586 57.1573 168.622 57.1752 168.657 57.1932C168.702 57.216 168.747 57.2389 168.792 57.2632C169.797 57.8148 170.782 58.4129 171.741 59.0533C171.741 58.9476 171.743 58.842 171.747 58.7342C171.729 57.8645 171.82 57.0079 172.051 56.1821C171.749 55.7702 171.523 55.3006 171.4 54.8166C171.093 53.6089 171.677 51.8904 172.726 51.4779C173.094 50.4579 173.93 49.7199 174.954 49.4295C175.036 49.3561 175.122 49.2849 175.219 49.2188C175.434 49.0704 175.67 48.9692 175.913 48.9104C176.039 48.3577 176.347 47.849 176.858 47.492C177.58 46.988 178.433 46.9332 179.183 47.2082C179.325 47.1602 179.47 47.1186 179.616 47.0824C180.823 46.0548 182.704 46.1305 183.766 47.3329C184.494 46.9996 185.353 46.9848 186.1 47.4333C186.697 47.7921 187.068 48.3708 187.214 49.0059C188.344 49.0406 189.378 49.7909 189.704 50.9106C190.745 51.0286 191.597 51.8439 191.778 52.8703C192.443 52.9628 193.056 53.2752 193.43 53.8964C193.602 54.1836 193.696 54.4979 193.72 54.8126C194.056 54.9738 194.357 55.2179 194.585 55.5369C194.983 56.0957 195.06 56.7481 194.914 57.3621C194.928 57.3899 194.942 57.4175 194.956 57.445C194.977 57.4849 194.997 57.5247 195.016 57.5654C195.125 57.7962 195.212 58.0437 195.289 58.295C195.64 58.8003 195.801 59.4181 195.769 60.0386C195.844 60.3011 195.916 60.5643 195.976 60.8287C196.212 61.8664 196.301 62.9717 196.138 64.0285C196.058 64.54 195.942 65.043 195.777 65.5312C195.76 65.6242 195.733 65.7108 195.701 65.7933C195.61 66.1779 195.494 66.5562 195.346 66.9261C194.991 67.3974 194.619 67.8561 194.228 68.2999C193.899 68.7944 193.523 69.251 193.098 69.6694C192.792 69.9717 192.456 70.2528 192.099 70.5064C191.39 71.0747 190.597 71.5179 189.751 71.8062C189.6 71.7745 189.448 71.7498 189.296 71.7255C188.335 72.2547 186.823 72.3145 185.899 72.3109C184.88 72.3071 183.947 72.0497 183.171 71.5634C183.261 71.7424 183.351 71.9216 183.441 72.1012C183.435 72.1047 183.428 72.1081 183.422 72.1115C183.406 72.1207 183.389 72.1298 183.375 72.1408C183.207 71.8628 183.02 71.616 182.799 71.4384C182.498 71.1956 182.013 71.1738 181.804 71.5667C181.8 71.5734 181.797 71.5804 181.793 71.5873L181.793 71.5874C181.682 71.7969 181.697 71.9979 181.782 72.1619C181.807 72.1969 181.831 72.2322 181.855 72.2675L181.875 72.2963C181.881 72.3035 181.887 72.3109 181.893 72.3181C181.898 72.3237 181.903 72.3292 181.909 72.3344L181.903 72.335C182.191 72.5673 182.475 73.1362 182.745 73.6893C182.927 74.0125 183.1 74.3403 183.262 74.6738C183.357 74.8137 183.526 74.9365 183.705 74.9722C183.67 75.2385 183.792 75.5139 183.993 75.6504C184.046 75.5439 184.11 75.4349 184.193 75.3224C185.101 74.0886 186.885 73.5562 188.228 74.1201C188.496 74.0748 188.765 74.0374 189.037 74.0161C189.924 73.9575 190.823 74.0273 191.699 74.2109C191.971 74.3741 192.231 74.5578 192.473 74.7672C192.678 74.9447 192.868 75.1307 193.045 75.3231C193.183 75.426 193.318 75.535 193.45 75.6487C193.987 75.9377 194.382 76.4918 194.713 77.0434C194.976 77.4152 195.205 77.8102 195.404 78.2287C196.325 79.8054 197.388 81.7629 196.558 83.3132ZM122.683 113.782C123.021 114.173 123.285 114.609 123.475 115.089C123.551 115.243 123.458 115.336 123.302 115.308C123.232 115.298 123.137 115.247 123.04 115.18C123.047 115.197 123.055 115.214 123.063 115.231C123.071 115.248 123.079 115.265 123.086 115.283C123.168 115.446 123.099 115.562 122.911 115.501C122.9 115.494 122.89 115.488 122.881 115.482C122.978 115.655 123.067 115.833 123.143 116.019C123.225 116.183 123.152 116.298 122.966 116.234C122.868 116.179 122.775 116.116 122.687 116.046C122.698 116.07 122.709 116.094 122.72 116.118C122.749 116.182 122.779 116.246 122.805 116.312C122.89 116.479 122.792 116.566 122.628 116.528C122.486 116.45 122.355 116.357 122.233 116.249C122.22 116.239 122.208 116.229 122.197 116.218C122.191 116.213 122.186 116.208 122.18 116.202C122.235 116.34 122.131 116.424 121.994 116.397C121.799 116.359 121.434 116.031 121.345 115.858C121.342 115.853 121.339 115.847 121.337 115.842C121.334 115.837 121.331 115.832 121.328 115.826C121.225 115.757 121.113 115.659 121.028 115.566C120.961 115.664 120.83 115.735 120.771 115.617C120.593 115.133 120.316 114.719 119.938 114.37C119.723 114.055 119.461 113.787 119.154 113.565C118.99 113.425 118.818 113.292 118.643 113.165C118.333 113.024 118.009 112.916 117.671 112.844C117.633 112.832 117.594 112.823 117.555 112.814C117.525 112.807 117.496 112.799 117.466 112.791L117.442 112.787C117.3 112.761 117.16 112.735 117.018 112.715C116.408 112.631 115.795 112.616 115.183 112.671C115.073 112.675 114.967 112.59 114.921 112.493C114.783 112.5 114.648 112.506 114.511 112.519C114.285 112.527 114.333 112.208 114.504 112.176C114.72 112.136 114.935 112.106 115.147 112.081C115.142 112.062 115.14 112.041 115.145 112.024C114.758 112.005 114.373 112.013 113.985 112.054C113.816 112.062 114.016 111.749 114.109 111.732C114.131 111.728 114.153 111.725 114.175 111.721C114.196 111.718 114.217 111.715 114.238 111.711C114.234 111.705 114.232 111.701 114.23 111.694H114.219C113.987 111.705 113.828 111.335 114.107 111.284C114.141 111.278 114.174 111.273 114.206 111.268C114.242 111.263 114.277 111.257 114.312 111.251C114.299 111.215 114.297 111.183 114.31 111.153C114.19 111.151 114.071 111.151 113.951 111.151C113.982 111.149 114.01 111.082 114.039 111.013C114.07 110.937 114.103 110.859 114.143 110.853L114.329 110.828C114.333 110.75 114.452 110.568 114.502 110.557C114.904 110.49 115.297 110.443 115.685 110.428C115.723 110.34 115.778 110.221 115.831 110.221C116.273 110.215 116.697 110.219 117.12 110.264C117.137 110.251 117.154 110.244 117.168 110.247C117.238 110.264 117.302 110.278 117.369 110.295C117.604 110.329 117.838 110.378 118.077 110.447C118.641 110.614 119.205 110.879 119.693 111.206C120.154 111.515 120.612 111.836 121.014 112.221C121.155 112.341 121.288 112.472 121.415 112.607C121.62 112.776 121.818 112.95 122.009 113.121C122.241 113.334 122.467 113.554 122.683 113.782Z" fill="black"/>
<path fill-rule="evenodd" clip-rule="evenodd" d="M162.166 128.274C160.746 127.695 159.478 126.728 158.552 125.493C158.23 125.063 158.146 124.61 158.214 124.195C158.29 123.729 158.566 123.306 158.942 123.023C159.319 122.739 159.791 122.598 160.247 122.67C160.643 122.732 161.038 122.949 161.35 123.399L161.416 123.489C161.966 124.235 162.684 124.846 163.502 125.241C164.29 125.621 165.172 125.798 166.084 125.695C167.821 125.499 169.019 124.559 170.292 123.282C170.449 123.121 170.607 122.955 170.766 122.786C170.866 122.633 171.005 122.534 171.16 122.483C171.331 122.425 171.525 122.429 171.702 122.491C171.874 122.55 172.027 122.664 172.129 122.815C172.227 122.958 172.282 123.135 172.264 123.339C172.148 124.661 171.457 125.842 170.475 126.769C169.384 127.799 167.938 128.511 166.577 128.761C165.077 129.036 163.549 128.839 162.166 128.274ZM167.284 107.866C168.88 108.836 171.311 111.098 169.594 113.503C167.574 115.624 164.666 113.193 163.232 112.093C161.903 111.241 160.41 113.433 161.643 114.428C172 122.099 176.203 108.12 168.091 106.726C167.198 106.572 166.866 107.566 167.284 107.866ZM148.724 98.9429C148.901 96.7541 152.233 96.257 152.564 98.423C152.861 100.363 152.512 102.145 151.638 103.892C150.803 105.561 148.705 104.783 148.547 103.263C148.334 101.226 148.615 100.304 148.724 98.9429ZM174.09 97.9739C174.554 97.3652 175.225 96.9497 176.029 97.1845C178.54 97.9185 177.8 101.485 176.918 103.22C176.439 104.163 174.89 104.402 174.19 103.572C173.049 102.219 172.503 99.5157 173.953 98.1825C173.992 98.1136 174.036 98.044 174.09 97.9739ZM151.603 89.3654L151.999 89.2959C153.226 89.0836 154.752 88.8796 155.62 89.8665C156.08 90.3898 156.239 91.3624 155.62 91.8633C154.532 92.7446 153.328 92.4031 152.024 92.4777C150.949 92.5394 149.916 92.7174 148.88 93.0135C146.609 93.663 144.758 94.8486 142.818 96.1505C142.563 96.3213 142.303 95.9956 142.425 95.7574C143.545 93.563 145.715 91.7604 147.889 90.6616C149.049 90.0751 150.319 89.5885 151.603 89.3654ZM171.801 88.3823L172.105 88.4445C175.408 89.1353 179.7 90.5153 181.265 93.7615C181.324 94.2205 181.261 94.3189 181.21 94.3832L181.193 94.4046C181.151 94.4595 181.117 94.5351 180.918 94.5976C180.863 94.5844 180.807 94.5705 180.751 94.5557C180.034 94.3677 179.467 94.1087 178.917 93.84L178.322 93.5465C177.631 93.2076 176.934 92.881 176.195 92.6399C174.619 92.1255 172.997 91.7631 171.35 91.5696C170.993 91.5277 170.65 91.4072 170.379 91.2006C170.121 91.0046 169.925 90.7332 169.835 90.3724C169.719 89.9056 169.752 89.5521 170.003 89.1309C170.191 88.8146 170.46 88.5953 170.77 88.4694C171.085 88.3411 171.444 88.3108 171.801 88.3823Z" fill="black"/>
</svg>
