<svg width="240" height="324" viewBox="0 0 240 324" fill="none" xmlns="http://www.w3.org/2000/svg">
<path fill-rule="evenodd" clip-rule="evenodd" d="M134.835 170.259C134.854 170.067 135.112 170.068 135.132 170.259L135.427 173.105C135.785 176.582 136.13 180.052 136.381 183.545C136.693 187.901 136.902 192.255 137.002 196.621C137.353 211.825 137.423 227.037 137.452 242.244C139.508 242.102 141.564 241.965 143.621 241.832C145.017 241.742 146.412 241.655 147.808 241.57L151.368 241.354L152.833 241.264C153.823 241.203 154.948 240.954 155.641 241.831C155.918 242.182 156.057 242.639 155.798 243.056C155.202 244.018 154.287 243.984 153.252 244.026C152.275 244.065 151.298 244.104 150.321 244.142C148.227 244.223 146.134 244.3 144.04 244.359C141.842 244.42 139.646 244.47 137.449 244.508C137.427 250.928 137.161 257.34 136.874 263.753L136.744 266.639C136.393 274.443 136.015 282.254 135.478 290.048C135.434 290.686 134.532 290.685 134.488 290.048C133.883 281.271 133.484 272.475 133.089 263.686C132.802 257.314 132.635 250.94 132.556 244.565C132.265 244.566 131.975 244.57 131.685 244.572C123.44 244.607 115.197 244.643 106.951 244.566C106.965 244.582 106.979 244.599 106.988 244.62C107.584 246.029 107.641 247.827 107.627 249.34C107.61 251.074 107.376 252.787 106.977 254.474C105.547 260.516 101.857 265.928 97.654 270.402L97.5168 270.547C96.5255 271.595 95.3883 272.648 94.7796 273.983C94.1579 275.345 93.9421 276.939 93.6353 278.404L93.5995 278.572L92.3999 284.115C92.0188 285.876 91.9106 288.443 90.5175 289.713C89.2178 290.899 87.496 290.28 86.8843 288.754C86.4067 287.563 86.8824 286.255 87.1653 285.064L89.3818 275.744C89.7459 274.224 90.1439 272.694 90.9299 271.328C91.735 269.93 92.9154 268.916 94.1198 267.879C96.4005 265.915 98.4941 263.666 100.265 261.231C102.035 258.797 103.547 256.114 104.608 253.293C105.139 251.881 105.575 250.414 105.875 248.935C106.16 247.531 106.158 246.077 106.463 244.689C106.484 244.593 106.565 244.527 106.658 244.498C106.636 244.436 106.669 244.352 106.756 244.347L113.499 243.913C119.493 243.527 125.487 243.13 131.475 242.677L132.534 242.6C132.451 234.094 132.521 225.587 132.675 217.078C132.815 209.275 132.818 201.47 133.05 193.668C133.166 189.796 133.414 185.933 133.691 182.069C133.974 178.117 134.427 174.199 134.835 170.259ZM71.5195 215.501C71.4476 215.068 71.9925 214.8 72.2437 215.196C75.115 219.724 76.4995 224.641 77.083 229.94C77.5985 234.616 77.4466 239.359 77.1899 244.048C76.9161 249.048 76.5966 254.048 76.2736 259.045L75.7773 266.71L74.5319 285.923C74.4428 287.298 74.1309 288.547 72.948 289.186C72.7983 289.311 72.6421 289.424 72.4602 289.521C71.8211 289.863 70.9735 289.69 70.604 289.034L70.7522 289.131C70.8812 289.213 70.7363 289.099 70.3173 288.791L69.9618 288.331C69.7034 287.943 69.5384 287.561 69.4721 287.099C69.369 286.381 69.5025 285.594 69.5494 284.873L70.3657 272.274C71.0006 262.479 71.7419 252.688 72.3007 242.888C72.561 238.321 72.7433 233.749 72.6199 229.174C72.497 224.624 72.2652 219.997 71.5195 215.501ZM96.359 131.161L96.5183 131.134C102.221 130.186 108.423 130.364 113.635 133.114C113.678 133.137 113.659 133.208 113.61 133.206L111.933 133.139C106.622 132.931 101.327 132.808 96.1049 134.056L95.5703 134.185C93.6896 134.644 91.7257 135.206 90.2152 136.448C88.7714 137.636 88.0524 139.468 87.3611 141.155L87.2687 141.378C86.5673 143.044 85.6796 144.624 84.1423 145.665C82.1511 147.014 79.7564 146.849 77.4732 147.032C73.4532 147.356 70.1665 150.27 68.5313 153.837C67.5411 155.996 67.1187 158.417 67.0351 160.779C66.9922 161.981 66.9861 163.231 67.1462 164.425C67.1973 164.807 67.6693 166.198 67.9099 166.165C68.4447 166.091 68.9335 166.37 69.1002 166.797C70.4211 165.521 71.7799 164.281 73.1826 163.086C76.6788 160.107 80.4447 157.408 84.4106 155.088C87.4374 153.317 90.6301 151.563 93.9362 150.237C93.6742 150.231 93.4159 150.283 93.1659 150.413C93.0565 150.47 92.9477 150.333 93.0341 150.242C94.0754 149.146 95.3228 148.99 96.5802 149.282C96.8485 149.197 97.1171 149.114 97.3866 149.036C97.5208 148.997 97.5876 149.182 97.4781 149.253L97.1692 149.451C98.541 149.91 99.8878 150.814 100.954 151.527C104.017 153.575 106.713 156.078 109.446 158.535L109.943 158.98C112.349 161.129 114.815 163.217 117.549 164.941C118.979 165.843 120.482 166.678 122.058 167.298C123.41 167.831 125.611 168.167 126.245 169.596C126.807 170.28 126.572 171.153 125.913 171.613C124.801 172.837 122.578 172.046 121.253 171.537C119.656 170.922 118.109 170.183 116.633 169.317C113.769 167.635 111.127 165.543 108.667 163.318C106.097 160.994 103.674 158.525 101.174 156.128C100.091 155.089 99.0334 154.027 97.9489 152.99L97.4042 152.473C96.8507 151.954 96.062 151.145 95.2188 150.655C93.6303 151.603 92.0173 152.511 90.4431 153.484C88.2457 154.841 86.113 156.296 84.0132 157.799C79.9708 160.693 76.1401 163.934 72.5838 167.408C66.0616 173.778 60.5048 181.053 55.6505 188.756L55.2819 189.343C52.5234 193.752 49.9148 198.303 48.0652 203.174C46.03 208.535 45.0402 214.173 44.5025 219.863C43.9689 225.513 43.7889 231.191 43.1925 236.836C42.5809 242.625 41.3758 248.286 40.0051 253.937L39.6782 255.277C38.4379 260.337 37.1578 265.398 36.5202 270.578C36.1799 273.345 35.9752 276.15 36.0214 278.939C36.0679 281.745 36.5086 284.488 36.8642 287.265C37.0004 288.328 35.9542 289.216 35.0181 289.357C33.9415 289.518 33.0166 288.831 32.6819 287.831C31.6387 284.712 31.4492 281.264 31.4819 277.99C31.5149 274.667 31.9389 271.365 32.5355 268.099C33.7089 261.674 35.5197 255.383 37.0345 249.035C38.3695 243.44 39.2654 237.836 39.7484 232.104C40.2497 226.157 40.5499 220.191 41.4645 214.287C42.3673 208.459 44.0659 202.892 46.6275 197.578C48.9599 192.739 51.8673 188.185 54.9155 183.77C58.6171 178.41 62.6826 173.309 67.2269 168.661C66.8187 168.644 66.3996 168.512 66.0147 168.272C64.8371 167.537 64.2886 166.099 64.12 164.787C63.7254 161.717 63.8206 158.511 64.6099 155.509C65.8833 150.667 69.1879 146.364 73.9773 144.619C75.2101 144.169 76.5206 144.005 77.8271 143.973C79.0668 143.942 80.4208 144.104 81.617 143.711C83.521 143.085 84.3371 140.841 85.052 139.141L85.0849 139.063C86.0016 136.896 87.1019 135.038 89.0874 133.685C91.2057 132.242 93.8598 131.585 96.359 131.161ZM150.549 139.731C152.262 139.136 154.405 139.676 156.081 140.195C157.948 140.774 159.674 141.841 161.153 143.108C162.714 144.443 164.003 146.093 164.915 147.935L165.002 148.113C165.834 149.822 166.782 152.168 166.362 154.046C166.35 154.099 166.336 154.151 166.321 154.2C169.721 155.875 172.861 157.972 175.596 160.631C178.78 163.726 181.477 167.248 183.758 171.053C192.82 186.166 194.415 204.317 195.486 221.552L195.752 225.922C196.334 235.359 197.014 244.773 198.78 254.08L198.909 254.751C200.798 264.495 203.501 274.313 203.227 284.309C203.145 287.304 198.721 287.283 198.592 284.309C198.109 273.113 195.498 262.303 193.729 251.283C190.617 231.893 192.177 211.904 187.767 192.708C186.037 185.175 183.357 177.868 179.529 171.144C177.639 167.822 175.475 164.613 172.942 161.747C170.761 159.281 168.496 156.908 165.948 154.835C165.134 155.651 163.507 155.235 163.082 154.046C162.79 153.229 162.875 152.273 162.688 151.417C162.514 150.622 162.274 149.835 161.955 149.087C161.318 147.596 160.383 146.164 159.304 144.957C158.139 143.652 156.799 142.569 155.3 141.674C153.791 140.773 152.14 140.504 150.549 139.845C150.495 139.823 150.49 139.751 150.549 139.731ZM157.207 243.355C157.21 243.276 157.302 243.239 157.359 243.292C157.96 243.845 158.323 244.638 158.766 245.319C159.276 246.103 159.811 246.872 160.373 247.62C161.498 249.12 162.75 250.534 164.013 251.919C165.187 253.207 166.439 254.44 167.737 255.603C169.144 256.863 170.72 257.988 171.998 259.383C174.664 262.294 175.095 266.291 175.658 270.043L175.72 270.449C176.063 272.675 176.37 274.908 176.647 277.144C176.782 278.232 176.916 279.32 177.026 280.411L177.06 280.756C177.158 281.823 177.184 282.906 176.571 283.839C175.915 284.837 174.424 285.187 173.537 284.23C172.014 282.586 172.3 279.667 172.101 277.552C171.938 275.804 171.752 274.057 171.544 272.313L171.438 271.442C171.193 269.458 170.994 267.435 170.541 265.485C170.141 263.769 169.379 262.473 168.128 261.23C166.869 259.977 165.56 258.808 164.397 257.459C163.164 256.028 162.052 254.494 161.05 252.892C160.192 251.523 159.505 250.032 158.876 248.544L158.771 248.296C158.163 246.844 157.159 244.954 157.207 243.355ZM179.203 180.997C179.216 180.795 179.515 180.791 179.519 180.997C179.557 182.739 179.594 184.48 179.63 186.222C179.92 200.256 179.741 214.323 181.149 228.309C181.813 234.903 183.035 241.401 184.449 247.871C185.173 251.182 185.932 254.485 186.654 257.796C187.357 261.023 188.111 264.266 188.669 267.523C189.217 270.724 189.708 273.95 189.928 277.192L189.955 277.615C190.05 279.186 190.503 281.496 189.638 282.888C188.702 284.396 186.908 284.423 185.904 282.984C184.962 281.632 185.196 279.228 185.03 277.615C184.861 275.973 184.682 274.328 184.478 272.689C184.082 269.492 183.559 266.302 183.016 263.127C181.884 256.514 180.243 249.985 179.031 243.383C177.789 236.618 176.907 229.804 176.869 222.916C176.832 215.97 177.567 209.037 177.938 202.106C178.315 195.066 178.744 188.032 179.203 180.997ZM112.932 137.346C113.309 136.077 114.638 135.284 115.935 135.64C117.123 135.967 118.104 137.41 117.64 138.645C117.133 139.992 116.247 141.14 115.5 142.365C114.81 143.496 113.803 144.387 113.1 145.498L113.875 146.334C114.262 146.75 114.651 147.165 115.044 147.572L116.395 148.972C117.447 150.059 118.506 151.142 119.594 152.192C122.796 155.281 126.047 158.268 129.632 160.913C130.448 161.515 131.271 162.114 132.116 162.674L132.432 162.883C133.012 163.263 133.659 163.637 134.36 163.572C136.062 163.416 137.601 161.607 138.771 160.481L138.832 160.423C141.732 157.662 144.417 154.645 146.764 151.4C147.285 150.679 147.79 149.946 148.282 149.204C147.147 147.878 147.418 145.289 147.355 143.681C147.311 142.55 147.308 141.419 147.302 140.287L147.298 140.059C147.285 139.326 147.252 138.624 147.727 138.021C147.754 137.986 147.812 137.987 147.847 138.005C148.498 138.347 148.698 138.918 148.976 139.559L149.005 139.625C149.343 140.394 149.667 141.171 149.994 141.944C150.337 142.754 150.652 143.576 150.97 144.395C151.118 144.777 151.26 145.159 151.398 145.544C151.483 145.79 151.57 146.035 151.66 146.279L151.681 146.298C151.799 146.398 151.899 146.504 151.986 146.614C152.349 146.795 152.638 147.126 152.773 147.613C153.068 148.672 152.458 149.536 151.914 150.376C149.704 153.792 147.185 157.046 144.385 159.999C142.994 161.465 141.531 162.866 140.007 164.195L139.741 164.426C138.373 165.602 136.887 166.716 135.06 166.992C132.921 167.313 131.181 166.249 129.543 165.024L129.38 164.901C127.828 163.726 126.307 162.509 124.834 161.236C121.83 158.642 118.972 155.856 116.436 152.8C113.969 149.827 111.53 146.503 110.009 142.926C109.917 142.708 110.16 142.48 110.351 142.662C111.094 143.369 111.809 144.115 112.515 144.87C112.535 143.758 112.33 142.637 112.444 141.518C112.583 140.158 112.543 138.656 112.932 137.346Z" fill="black"/>
<path fill-rule="evenodd" clip-rule="evenodd" d="M163.204 81.3987C163.209 81.299 163.352 81.2765 163.379 81.375C163.926 83.3163 164.236 85.2939 164.664 87.2654C165.076 89.1643 165.465 91.0688 165.789 92.9845C166.399 96.6 166.914 100.225 167.393 103.859L167.512 104.768C168.344 111.163 169.718 117.825 168.516 124.257C167.491 129.746 164.053 134.169 159.623 137.412C155.429 140.483 150.343 142.454 145.293 143.574C139.873 144.777 133.449 145.136 129.039 141.16C127.274 139.568 129.68 136.409 131.596 137.846C136.093 141.218 141.813 140.224 146.888 138.882L147.041 138.841C151.495 137.654 155.978 135.856 159.514 132.821C163.423 129.466 165.356 124.809 165.579 119.702C165.705 116.833 165.437 113.967 165.149 111.115L165.117 110.798C164.786 107.536 164.438 104.275 164.118 101.012C163.825 98.0363 163.573 95.0434 163.44 92.0544L163.378 90.5468C163.248 87.5074 163.074 84.4235 163.204 81.3987ZM110.463 56.1441C117.781 52.3328 126.191 50.9687 134.335 52.2478C142.164 53.4775 149.349 57.5189 154.72 63.3139C157.342 66.1433 159.669 69.416 161.156 72.9914C161.895 74.7676 162.474 76.6205 162.782 78.5235C162.94 79.5019 163.096 80.5155 163.126 81.5074C163.153 82.4257 162.884 83.2869 162.915 84.2205C162.92 84.3665 162.697 84.3946 162.663 84.2547C162.408 83.2138 161.795 82.4267 161.411 81.438C161.123 80.6998 160.797 79.9791 160.465 79.2605L160.18 78.6448C159.353 76.8553 158.363 75.1394 157.384 73.4296C155.414 69.9858 152.885 66.8561 149.924 64.2153C144.724 59.5787 138.054 56.5858 131.093 56.0468C123.867 55.4872 116.539 57.2101 110.368 61.0267C104.198 64.843 99.532 70.7756 97.1096 77.6063C95.8874 81.0532 95.2124 84.6446 95.0554 88.2964C94.976 90.1448 95.0501 92.0087 95.1796 93.8536L95.244 94.7334C95.3193 95.7884 95.371 96.8394 95.2134 97.8688C96.3264 97.5216 97.493 97.3777 98.6639 97.5495C100.404 97.8048 101.443 98.5183 102.224 100.073C102.264 100.155 102.183 100.236 102.102 100.195C101.09 99.6902 99.4529 99.9561 98.3814 100.221C97.2663 100.497 96.262 100.976 95.3144 101.624C93.5615 102.822 92.1875 104.679 91.8503 106.809C91.5243 108.867 92.3687 110.95 93.7872 112.425C94.5173 113.185 95.3901 113.841 96.3672 114.25C97.553 114.747 98.7268 114.732 99.776 115.552C100.425 116.059 100.268 116.927 99.8279 117.49C102.041 119.918 104.004 122.574 106.218 125.011C107.243 126.141 108.261 127.272 109.244 128.439L109.611 128.878C110.593 130.063 112.154 131.315 112.603 132.805C112.882 133.732 111.889 134.945 110.886 134.522C109.347 133.874 108.248 132.188 107.209 130.894L107.141 130.81C106.05 129.47 105.082 128.054 104.197 126.571L103.906 126.083C102.305 123.39 100.718 120.597 99.6974 117.638C99.63 117.707 99.5586 117.77 99.4834 117.824C98.0129 118.87 95.8753 118.066 94.4068 117.386C93.0205 116.745 91.7495 115.781 90.7589 114.618C88.6044 112.09 87.6112 108.816 88.3308 105.535C88.9403 102.755 90.866 100.051 93.3906 98.6455C92.2253 97.3035 91.7427 95.4943 91.4216 93.7255C91.0117 91.4677 90.93 89.1538 91.0413 86.8642C91.2634 82.3039 92.4365 77.8087 94.2501 73.6329C97.4947 66.161 103.231 59.911 110.463 56.1441ZM95.061 106.004C96.597 105.716 98.0283 105.647 99.5097 106.297C101.117 107.002 102.248 108.167 103.299 109.532C104.495 111.085 101.429 112.781 100.656 110.72L100.634 110.656C100.427 110.046 100.056 109.456 99.5862 108.913C99.4453 109.129 99.2568 109.319 99.0354 109.428C98.7673 109.56 98.3579 109.469 98.2934 109.126C98.222 108.746 98.301 108.285 98.5203 107.963L98.5503 107.919C97.4847 107.062 96.2029 106.435 95.061 106.233C94.947 106.213 94.9482 106.025 95.061 106.004Z" fill="black"/>
<path fill-rule="evenodd" clip-rule="evenodd" d="M143.152 128.274C141.732 127.695 140.465 126.728 139.538 125.493C139.216 125.063 139.133 124.61 139.2 124.195C139.276 123.729 139.552 123.306 139.928 123.023C140.305 122.739 140.777 122.598 141.233 122.67C141.63 122.732 142.024 122.949 142.337 123.399L142.402 123.489C142.953 124.235 143.67 124.846 144.488 125.241C145.276 125.621 146.158 125.798 147.07 125.695C148.808 125.499 150.005 124.559 151.278 123.282C151.436 123.121 151.594 122.955 151.752 122.786C151.852 122.633 151.991 122.534 152.146 122.483C152.317 122.425 152.511 122.429 152.689 122.491C152.86 122.55 153.013 122.664 153.116 122.815C153.213 122.958 153.269 123.135 153.251 123.339C153.134 124.661 152.443 125.842 151.461 126.769C150.37 127.799 148.924 128.511 147.563 128.761C146.064 129.036 144.536 128.839 143.152 128.274ZM148.271 107.866C149.866 108.836 152.297 111.098 150.581 113.503C148.56 115.624 145.652 113.193 144.219 112.093C142.89 111.241 141.396 113.433 142.629 114.428C152.987 122.099 157.19 108.12 149.078 106.726C148.184 106.572 147.853 107.566 148.271 107.866ZM129.711 98.9429C129.887 96.7541 133.219 96.257 133.551 98.423C133.847 100.363 133.498 102.145 132.624 103.892C131.79 105.561 129.692 104.783 129.533 103.263C129.32 101.226 129.601 100.304 129.711 98.9429ZM155.076 97.9739C155.541 97.3652 156.212 96.9497 157.015 97.1845C159.526 97.9185 158.786 101.485 157.904 103.22C157.425 104.163 155.876 104.402 155.176 103.572C154.036 102.219 153.489 99.5157 154.94 98.1825C154.979 98.1136 155.023 98.044 155.076 97.9739ZM132.589 89.3654L132.986 89.2959C134.213 89.0836 135.738 88.8796 136.606 89.8665C137.067 90.3898 137.225 91.3624 136.606 91.8633C135.518 92.7446 134.314 92.4031 133.01 92.4777C131.935 92.5394 130.902 92.7174 129.867 93.0135C127.595 93.663 125.744 94.8486 123.804 96.1505C123.55 96.3213 123.29 95.9956 123.411 95.7574C124.531 93.563 126.701 91.7604 128.875 90.6616C130.036 90.0751 131.305 89.5885 132.589 89.3654ZM152.787 88.3823L153.091 88.4445C156.395 89.1353 160.687 90.5153 162.251 93.7615C162.311 94.2205 162.248 94.3189 162.197 94.3832L162.18 94.4046C162.137 94.4595 162.104 94.5351 161.905 94.5976C161.85 94.5844 161.794 94.5705 161.737 94.5557C161.02 94.3677 160.453 94.1087 159.904 93.84L159.308 93.5465C158.617 93.2076 157.92 92.881 157.181 92.6399C155.605 92.1255 153.983 91.7631 152.337 91.5696C151.98 91.5277 151.636 91.4072 151.365 91.2006C151.108 91.0046 150.911 90.7332 150.821 90.3724C150.705 89.9056 150.739 89.5521 150.989 89.1309C151.177 88.8146 151.447 88.5953 151.756 88.4694C152.071 88.3411 152.43 88.3108 152.787 88.3823Z" fill="black"/>
<path fill-rule="evenodd" clip-rule="evenodd" d="M152.746 131.526C150.778 129.772 148.573 126.247 145.746 129.036C145.047 129.824 144.764 131.591 143.695 131.938C142.275 132.398 140.868 130.896 140.384 129.742C138.405 123.33 146.588 121.571 151.25 122.607C153.527 123.543 155.205 127.309 155.306 129.275C155.372 130.596 154.254 132.538 152.746 131.526ZM167.589 121.643C167.57 121.558 167.543 121.481 167.511 121.411C166.641 121.082 165.952 121.417 165.527 122.044C165.541 122.2 165.587 122.358 165.616 122.512C165.288 123.204 164.992 124.06 164.547 124.658C164.459 124.665 164.368 124.656 164.281 124.63C156.905 125.401 160.506 117.681 153.024 115.763C147.241 114.809 136.789 115.902 134.061 121.923C131.91 131.542 120.97 124.84 117.378 119.838C113.545 115.285 111.067 109.723 108.677 104.325C108.172 103.182 106.597 103.999 106.768 105.095C104.559 109.528 104.633 114.851 104.086 119.707C103.155 129.394 102.249 142.979 111.246 148.894C122.969 162.15 152.242 166.827 165.762 154.648C170.443 144.581 169.866 132.301 167.589 121.643Z" fill="black"/>
</svg>
