<svg width="240" height="324" viewBox="0 0 240 324" fill="none" xmlns="http://www.w3.org/2000/svg">
<path fill-rule="evenodd" clip-rule="evenodd" d="M143.444 141.467C143.474 141.38 143.613 141.365 143.634 141.467C143.974 143.024 144.612 144.732 145.259 146.193C145.916 147.672 146.814 149.031 147.948 150.185C150.325 152.603 153.382 153.706 156.735 153.708L156.815 153.71C156.83 153.598 156.848 153.485 156.864 153.372L156.887 153.203C157.193 150.887 159.942 150.954 160.478 152.702C160.751 152.789 161.023 152.876 161.294 152.966L161.348 152.986C161.803 153.159 163.345 153.927 163.628 153.723C164.252 153.275 164.964 153.789 165.2 154.361C165.587 155.299 165.652 156.458 165.777 157.476L165.794 157.607L165.813 157.766C174.633 160.059 179.583 168.887 182.11 177.02C183.479 181.429 184.375 185.977 185.275 190.5C186.238 195.338 187.126 200.188 188.066 205.028C189.919 214.566 191.672 224.126 193.195 233.721L193.637 236.508C195.032 245.331 196.392 254.149 197.535 263.012C198.152 267.791 198.73 272.574 199.288 277.361C199.388 278.215 199.487 279.068 199.585 279.923L199.732 281.205C199.863 282.355 200.085 283.492 199.516 284.568C198.285 286.901 194.554 286.884 194.342 283.896C194.3 283.302 194.501 282.848 194.833 282.531L194.828 282.48C194.825 282.45 194.821 282.428 194.82 282.418C194.71 281.825 194.68 281.197 194.613 280.596C194.465 279.316 194.321 278.035 194.176 276.752C193.895 274.309 193.611 271.866 193.318 269.425C192.724 264.473 192.097 259.527 191.431 254.586L190.772 249.7C188.566 233.414 186.267 217.131 183.242 200.975C182.419 196.576 181.572 192.185 180.703 187.795C179.879 183.638 178.954 179.499 177.572 175.486C175.316 168.93 171.371 162.79 165.895 158.487C165.98 159.309 166.041 160.135 166.119 160.958C166.32 163.069 166.533 165.178 166.749 167.288C167.533 174.93 168.595 182.56 170.408 190.033C171.306 193.736 172.4 197.39 173.733 200.96C174.39 202.718 175.107 204.453 175.892 206.157C176.67 207.841 178.033 209.642 178.115 211.519C178.153 212.388 177.245 213.159 176.404 213.066C176.797 216.524 177.019 220.017 177.253 223.467C177.595 228.463 177.868 233.468 178.267 238.46C178.981 247.402 179.877 256.332 180.815 265.253C181.001 267.021 181.203 268.788 181.403 270.555L181.57 272.039C181.683 273.001 181.854 274.153 181.343 275.006C181.8 276.108 182.112 277.238 182.294 278.418C182.524 279.884 181.686 281.529 179.974 281.465C179.78 281.459 179.585 281.442 179.391 281.421C177.804 281.789 176.222 282.112 174.574 282.123C172.47 282.137 170.361 282.095 168.257 282.08C164.186 282.053 160.115 282.025 156.044 281.992C141.306 281.873 126.561 281.88 111.826 281.643L105.93 281.549C100.525 281.462 95.1188 281.362 89.7164 281.165C85.996 281.03 82.2758 280.893 78.5572 280.742L77.8002 280.714C74.5192 280.594 71.2344 280.533 67.9896 280.03C67.9083 280.016 67.8731 279.932 67.8857 279.858L67.8903 279.838L67.7488 279.806C67.6664 280.161 65.9551 278.669 65.9678 277.678C65.2579 276.754 65.5896 275.279 65.6657 274.21C65.7396 273.168 65.8326 272.124 65.915 271.082C66.0903 268.856 66.2403 266.628 66.4199 264.403C67.1446 255.429 67.7699 246.432 68.1756 237.439C68.3805 232.905 68.5453 228.37 68.7185 223.836C68.7965 221.772 68.9051 219.706 69.1075 217.652L69.1601 217.138C69.3819 215.055 69.3608 212.814 70.1277 210.851C70.1382 210.824 70.1741 210.824 70.1847 210.851C70.9601 212.762 71.034 214.983 71.1903 217.08C71.2178 217.071 71.2453 217.067 71.2748 217.061C72.346 216.551 73.4277 216.093 74.4417 215.463C74.5791 215.378 74.7122 215.289 74.8474 215.203C76.4425 210.321 78.291 205.519 79.9917 200.668C85.4868 184.984 88.5206 168.281 89.1925 151.673C85.0009 154.376 80.4359 156.479 75.9982 158.738L75.5826 158.95C71.2115 161.186 67.0263 163.724 63.9143 167.602C61.2016 170.98 59.4291 175.095 57.7706 179.062C55.9896 183.325 54.384 187.664 52.9157 192.043C49.9368 200.928 47.6298 210.031 45.8298 219.227C44.053 228.302 42.7833 237.445 41.934 246.652C41.5009 251.348 41.1058 256.048 40.7741 260.755C40.6051 263.137 40.4551 265.521 40.3157 267.907C40.2481 269.065 40.1974 270.226 40.1213 271.384C40.0748 272.052 40.0664 272.741 39.8467 273.375C39.6629 273.903 39.3375 274.345 39.0333 274.812C38.4777 275.664 37.0748 275.818 36.553 274.812L36.3271 274.376C36.028 273.796 35.7548 273.212 35.7143 272.542C35.6763 271.908 35.7544 271.247 35.7903 270.61C35.8601 269.323 35.9403 268.034 36.0206 266.747C36.1896 264.039 36.3777 261.332 36.5889 258.627C37.0094 253.208 37.5502 247.804 38.2305 242.41C40.6241 223.467 44.0805 204.623 50.6763 186.645C52.3072 182.2 54.1263 177.791 56.1798 173.524C58.1657 169.399 60.6777 165.504 64.3241 162.663C67.6808 160.048 71.5826 158.297 75.4594 156.598L75.9439 156.386C80.2896 154.486 84.627 152.44 89.165 151.028C89.0636 151.041 88.9643 151.054 88.8779 151.083C88.7784 151.115 88.7194 150.986 88.7807 150.916C89.0382 150.631 89.146 150.337 89.442 150.056C89.6463 149.862 89.8589 149.678 90.0776 149.501L90.3922 149.25C90.968 148.793 91.5733 148.326 92.2981 148.167C93.3229 147.943 93.8258 148.875 93.5382 149.604C93.6861 149.412 94.0833 149.469 94.1868 149.733C97.5587 158.432 99.7727 167.64 104.311 175.86C107.661 181.932 112.157 187.539 118.123 191.206C121.328 193.176 124.996 194.689 128.784 194.928C132.185 195.141 135.458 194.277 138.35 192.491C143.957 189.031 147.619 182.957 150.23 177.071C153.101 170.591 155.15 163.686 156.354 156.686C152.539 156.739 148.512 154.997 145.975 152.159C144.64 150.665 143.645 148.845 143.14 146.905C142.63 144.948 142.793 143.339 143.444 141.467ZM111.435 136.384C111.9 135.553 112.931 135.278 113.774 135.617C114.709 135.993 114.99 136.902 114.857 137.825C114.703 138.907 114.008 140.076 113.467 141.021C112.901 142.01 112.172 142.921 111.418 143.773C109.998 145.379 108.479 146.827 106.677 148.01C104.883 149.187 102.855 150.069 100.77 150.561L100.274 150.677C98.6524 151.048 96.3448 151.473 94.9938 150.591C94.9285 150.549 94.9304 150.462 94.9938 150.42C95.7248 149.91 96.7032 149.819 97.5438 149.579C98.4607 149.314 99.3799 149.014 100.256 148.638C101.987 147.894 103.643 146.913 105.118 145.742C106.599 144.568 108.031 143.166 109.022 141.549C109.521 140.738 109.945 139.886 110.353 139.028C110.765 138.168 110.972 137.212 111.435 136.384Z" fill="black"/>
<path fill-rule="evenodd" clip-rule="evenodd" d="M133.554 39.0318L133.909 38.8766C135.134 38.3462 136.471 37.8376 137.811 38.1276C139.355 38.4615 140.248 39.7899 140.63 41.238C141.072 42.9132 141.27 44.6964 141.391 46.4206C141.517 48.2063 141.468 49.9882 141.334 51.7711C141.222 53.2622 140.99 54.9902 140.435 56.4354C140.459 56.4143 140.487 56.3986 140.521 56.395C142.704 56.1712 144.717 56.3016 146.802 57.0052C148.745 57.6606 150.628 58.5802 152.318 59.742C155.97 62.2511 158.795 66.0406 160.764 69.9639C164.762 77.9346 165.606 86.9513 166.726 95.6679L166.76 95.9319C167.363 100.593 168.164 105.184 169.449 109.705L169.671 110.476C170.85 114.612 171.554 118.636 170.614 122.918C168.795 131.199 162.385 137.449 154.97 141.057C151.184 142.899 147.088 144.259 142.95 145.042C138.707 145.846 134.114 145.981 130.244 143.785C128.326 142.696 130.015 139.915 131.954 140.859C135.955 142.807 140.489 142.166 144.642 141.095C148.773 140.029 152.825 138.538 156.485 136.322C162.766 132.52 168.051 125.957 168.224 118.335C168.322 114.046 166.49 109.95 165.606 105.81C164.828 102.161 164.345 98.4583 163.889 94.7564L163.551 92.0066C162.57 84.1205 161.342 76.0022 157.293 69.0325C153.72 62.8803 147.565 57.9882 140.481 56.6869C140.438 56.6793 140.41 56.6588 140.393 56.6328C140.177 57.8001 138.891 58.8885 138.068 59.5602C136.902 60.5125 135.489 61.2026 133.952 61.1717C130.989 61.1124 128.445 58.8135 126.413 56.8883C126.184 56.6715 126.432 56.3688 126.693 56.4081C129.05 56.763 131.071 58.6789 133.488 58.6503C134.731 58.6355 135.684 57.9681 136.496 57.0806C136.799 56.7488 137.066 56.3483 137.354 55.9801C137.425 55.013 137.699 54.0647 137.821 53.102C137.936 52.2037 138.034 51.2918 138.092 50.3868C138.21 48.54 138.173 46.6795 137.969 44.8397C137.881 44.05 137.77 43.253 137.597 42.4753L137.517 42.1248C137.41 41.643 137.34 41.204 136.758 41.2535C135.464 41.3629 134.017 42.1528 132.885 42.7488C128.498 45.0603 125.308 48.6345 122.953 52.8333C123.101 52.9073 123.242 53.0048 123.374 53.1316C123.64 53.3867 123.776 53.836 123.654 54.1917C123.184 55.5663 121.513 55.6065 120.337 56.1448C119.056 56.7311 117.853 57.4847 116.713 58.3103C114.47 59.9351 112.409 61.8441 110.449 63.7967C107.363 66.8714 104.497 70.1438 101.729 73.5011L101.14 74.8172C100.552 76.1331 99.9772 77.4535 99.5013 78.8241C98.7268 81.053 98.078 83.3316 97.5792 85.6381C97.0772 87.9596 96.75 90.3343 96.626 92.7063C96.5153 94.8227 96.796 96.9377 96.7842 99.0419C96.9722 99.3938 97.0403 99.7905 96.9518 100.195C97.5437 100.362 98.1171 100.618 98.6556 100.97C98.7868 101.057 98.7036 101.262 98.5487 101.224C97.8659 101.056 97.1829 101.018 96.514 101.084C96.1591 101.521 95.5844 101.8 95.0269 101.788L94.789 101.783C94.6147 101.779 94.4419 101.751 94.275 101.703C93.334 102.137 92.4682 102.762 91.7353 103.508C89.9732 105.303 89.1222 107.654 89.2472 110.166C89.371 112.644 90.6902 114.879 92.8751 116.069C93.8497 116.599 94.9327 116.879 96.0406 116.899C97.1064 116.919 98.5052 116.595 99.3809 117.289C99.4794 117.367 99.5442 117.471 99.5841 117.586C99.6452 117.328 99.7101 117.071 99.7808 116.815C99.8349 116.619 100.161 116.596 100.201 116.815L100.252 117.1C100.986 121.238 101.244 125.498 104.159 128.81C105.523 130.36 107.167 131.757 108.853 132.943L109.132 133.138C109.853 133.635 110.631 134.118 111.49 134.299C112.444 134.499 113.234 134.444 114.111 134.969C114.524 135.215 114.777 135.76 114.625 136.233C113.652 139.266 109.814 137.904 107.879 136.704C106.804 136.038 105.757 135.232 104.784 134.344C103.936 134.861 102.929 135.195 102.063 135.324C100.728 135.524 99.3106 135.246 98.2464 134.384C97.1206 133.472 96.7354 132.144 96.9266 130.735C97.0217 130.034 97.2036 129.35 97.3995 128.671L97.5615 128.117C97.7977 127.309 97.9823 126.475 98.4585 125.77C98.6989 125.414 99.2696 125.448 99.3932 125.892C99.676 126.909 99.5536 128.057 99.4804 129.117L99.4646 129.36C99.4166 130.157 99.0771 131.379 99.7756 131.97C100.617 132.681 101.538 132.356 102.433 131.866C102.342 131.755 102.252 131.643 102.163 131.531C99.2647 127.845 98.5439 123.257 99.3378 118.773C98.5897 119.754 96.6397 119.967 95.6049 119.89C93.9803 119.771 92.3816 119.277 90.9978 118.408C88.0994 116.589 86.4693 113.399 86.4 110.006C86.3324 106.711 87.806 103.379 90.5233 101.46C91.2412 100.953 92.0398 100.559 92.8734 100.3C92.4682 98.6904 92.4253 96.9121 92.5132 95.1721C91.5412 95.3044 90.4889 95.1326 89.61 94.8333L89.4736 94.7856C88.1191 94.3003 86.3988 93.3249 86.1452 91.8023C85.833 89.9298 88.143 88.8536 89.4832 88.1056C90.1101 87.7559 90.7512 87.4287 91.4166 87.1587L91.617 87.0795C92.1915 86.8584 92.8677 86.4461 93.4508 86.7745C93.4925 86.798 93.5026 86.8426 93.4965 86.8863C93.3811 87.699 92.0497 88.3905 91.4577 88.903C91.0031 89.2963 90.5637 89.7081 90.142 90.1369C89.8686 90.415 89.4575 91.1178 89.1068 91.3149C89.2696 91.4001 89.4649 91.6098 89.6009 91.6903C89.9841 91.9162 90.3883 92.0756 90.8208 92.1787C91.4637 92.3326 92.1076 92.2667 92.7513 92.2521C93.0127 89.6892 93.4872 87.1824 94.2511 84.7204C95.5325 80.5898 97.6327 76.2383 100.629 72.9727C102.826 68.8552 105.663 65.0942 108.904 61.731C110.983 59.5742 113.179 57.4814 115.614 55.7288C116.694 54.952 117.829 54.252 119.034 53.6881L119.435 53.5043C120.104 53.1946 120.917 52.7926 121.694 52.6776C122.195 50.685 123.09 48.7792 124.175 47.0519C125.67 44.6718 127.637 42.6644 129.94 41.0605C131.075 40.2688 132.286 39.588 133.554 39.0318ZM93.617 108.433C95.5486 107.136 97.9176 106.628 100.226 106.819C101.371 106.914 102.504 107.183 103.577 107.593L104.019 107.768C105.044 108.179 106.144 108.686 106.181 109.926C106.195 110.416 105.833 110.806 105.396 110.958C104.329 111.329 103.465 110.441 102.584 109.968C101.695 109.49 100.749 109.175 99.7757 108.92C99.6823 108.896 99.5887 108.874 99.4953 108.851C99.546 108.953 99.5748 109.066 99.5648 109.187C99.5408 109.477 99.4565 109.692 99.3745 109.964C99.3498 110.046 99.2896 110.55 99.2279 110.612C99.2479 110.783 99.25 110.945 99.2553 111.117C99.2701 111.626 99.2074 112.057 98.9475 112.507C98.3002 113.63 96.4497 113.734 95.83 112.507C95.2104 111.281 95.6946 110.081 96.6362 109.199C96.8929 108.959 97.2352 108.715 97.607 108.546C96.3014 108.427 94.9812 108.483 93.6768 108.655C93.5496 108.672 93.5302 108.492 93.617 108.433ZM93.7325 67.2948C96.3818 66.8442 99.1486 66.7544 101.822 67.0209C101.968 67.0357 102.023 67.2576 101.859 67.2934C97.7935 68.1863 93.5787 68.4881 89.9511 70.725L89.7841 70.8297C89.436 71.0512 88.6076 71.4694 88.4352 71.8634C88.2317 72.3284 88.7827 72.9261 89.039 73.2617C89.6151 74.0154 90.3309 74.6733 91.121 75.1968C91.9558 75.7497 92.8532 76.1764 93.8185 76.4459C94.277 76.574 94.7525 76.6391 95.2057 76.7849C95.7216 76.9506 95.8881 77.215 96.2789 77.5606C96.7294 77.9583 96.5781 78.7217 96.0924 79.0072L95.956 79.0865C95.3178 79.4519 94.963 79.5596 94.1523 79.4166C93.5181 79.3046 92.9124 79.0829 92.3187 78.8365C91.228 78.3834 90.2325 77.7901 89.3139 77.0515L89.1767 76.9396C87.5365 75.5832 84.7572 72.6162 86.5879 70.4562C88.2036 68.5503 91.3788 67.6951 93.7325 67.2948ZM100.257 46.7442C102.798 43.7498 106.387 45.7944 108.933 47.5847C111.677 49.5139 114.058 51.7895 115.983 54.539C116.106 54.7138 115.869 54.9264 115.699 54.8237C113.564 53.5363 111.407 52.304 109.218 51.1109C108.319 50.621 107.419 50.1429 106.499 49.6952L106.007 49.4586C105.239 49.0793 104.136 48.387 103.317 48.8384C101.55 49.8125 102.641 53.003 103.005 54.5481L103.038 54.6939L104.148 59.7788L104.654 62.0681C104.834 62.214 104.983 62.409 105.089 62.6605C105.375 63.3405 105.142 64.259 104.449 64.6157C102.403 65.6687 101.711 63.6123 101.326 62.0669C101.013 60.8114 100.696 59.5568 100.38 58.3024L99.8553 56.2293C99.0524 53.0911 97.9125 49.5072 100.257 46.7442Z" fill="black"/>
<path fill-rule="evenodd" clip-rule="evenodd" d="M143.152 128.274C141.732 127.695 140.465 126.728 139.538 125.493C139.216 125.063 139.133 124.61 139.2 124.195C139.276 123.729 139.552 123.306 139.928 123.023C140.305 122.739 140.777 122.598 141.233 122.67C141.63 122.732 142.024 122.949 142.337 123.399L142.402 123.489C142.953 124.235 143.67 124.846 144.488 125.241C145.276 125.621 146.158 125.798 147.07 125.695C148.808 125.499 150.005 124.559 151.278 123.282C151.436 123.121 151.594 122.955 151.752 122.786C151.852 122.633 151.991 122.534 152.146 122.483C152.317 122.425 152.511 122.429 152.689 122.491C152.86 122.55 153.013 122.664 153.116 122.815C153.213 122.958 153.269 123.135 153.251 123.339C153.134 124.661 152.443 125.842 151.461 126.769C150.37 127.799 148.924 128.511 147.563 128.761C146.064 129.036 144.536 128.839 143.152 128.274ZM148.271 107.866C149.866 108.836 152.297 111.098 150.581 113.503C148.56 115.624 145.652 113.193 144.219 112.093C142.89 111.241 141.396 113.433 142.629 114.428C152.987 122.099 157.19 108.12 149.078 106.726C148.184 106.572 147.853 107.566 148.271 107.866ZM129.711 98.9429C129.887 96.7541 133.219 96.257 133.551 98.423C133.847 100.363 133.498 102.145 132.624 103.892C131.79 105.561 129.692 104.783 129.533 103.263C129.32 101.226 129.601 100.304 129.711 98.9429ZM155.076 97.9739C155.541 97.3652 156.212 96.9497 157.015 97.1845C159.526 97.9185 158.786 101.485 157.904 103.22C157.425 104.163 155.876 104.402 155.176 103.572C154.036 102.219 153.489 99.5157 154.94 98.1825C154.979 98.1136 155.023 98.044 155.076 97.9739ZM132.589 89.3654L132.986 89.2959C134.213 89.0836 135.738 88.8796 136.606 89.8665C137.067 90.3898 137.225 91.3624 136.606 91.8633C135.518 92.7446 134.314 92.4031 133.01 92.4777C131.935 92.5394 130.902 92.7174 129.867 93.0135C127.595 93.663 125.744 94.8486 123.804 96.1505C123.55 96.3213 123.29 95.9956 123.411 95.7574C124.531 93.563 126.701 91.7604 128.875 90.6616C130.036 90.0751 131.305 89.5885 132.589 89.3654ZM152.787 88.3823L153.091 88.4445C156.395 89.1353 160.687 90.5153 162.251 93.7615C162.311 94.2205 162.248 94.3189 162.197 94.3832L162.18 94.4046C162.137 94.4595 162.104 94.5351 161.905 94.5976C161.85 94.5844 161.794 94.5705 161.737 94.5557C161.02 94.3677 160.453 94.1087 159.904 93.84L159.308 93.5465C158.617 93.2076 157.92 92.881 157.181 92.6399C155.605 92.1255 153.983 91.7631 152.337 91.5696C151.98 91.5277 151.636 91.4072 151.365 91.2006C151.108 91.0046 150.911 90.7332 150.821 90.3724C150.705 89.9056 150.739 89.5521 150.989 89.1309C151.177 88.8146 151.447 88.5953 151.756 88.4694C152.071 88.3411 152.43 88.3108 152.787 88.3823Z" fill="black"/>
<path fill-rule="evenodd" clip-rule="evenodd" d="M166.773 116.395C166.491 115.554 165.042 115.627 165.131 116.618C165.234 117.749 164.846 119.012 163.762 119.561C162.628 120.136 161.351 119.619 160.658 118.632C160.056 117.774 159.641 116.841 158.884 116.093C158.18 115.397 157.323 114.861 156.386 114.542C155.657 114.294 154.9 114.228 154.165 114.31C152.336 113.896 150.216 114.837 149.076 116.264C149.002 116.356 148.934 116.45 148.868 116.545C148.755 116.392 148.637 116.239 148.511 116.089C148.188 115.702 147.787 115.619 147.425 115.724C145.363 114.19 142.473 113.987 140.131 115.371C138.255 116.481 136.702 118.116 134.395 118.243C132.567 118.344 130.577 117.3 130.448 115.291C130.38 114.242 128.951 113.367 128.149 114.339C126.464 116.381 126.127 119.094 127.059 121.564C128.043 124.17 130.048 126.005 132.587 127.085C135.328 128.251 138.541 128.656 141.506 128.564C144.463 128.472 147.151 127.334 148.933 124.915C149.146 124.626 149.333 124.333 149.497 124.036C151.227 126.24 153.939 127.166 156.702 127.233C159.592 127.302 163.008 126.795 165.052 124.55C167.021 122.385 167.701 119.167 166.773 116.395Z" fill="black"/>
</svg>
