<svg width="240" height="324" viewBox="0 0 240 324" fill="none" xmlns="http://www.w3.org/2000/svg">
<path fill-rule="evenodd" clip-rule="evenodd" d="M180.777 201.058C180.737 201.098 180.695 201.138 180.655 201.18C180.701 201.115 180.741 201.047 180.777 200.98V201.058ZM146.991 191.192C145.43 193.187 143.778 197.247 142.261 199.278C142.043 199.57 141.83 199.861 141.619 200.155C140.989 201.036 141.83 202.385 142.865 202.328C144.934 202.218 147 202.064 149.066 201.907C144.822 206.639 141.298 212.517 137.4 217.53C137.136 217.866 136.876 218.205 136.616 218.543C135.629 219.83 136.618 220.413 137.966 220.066C138.245 219.995 138.524 219.923 138.803 219.853C140.763 219.35 142.722 218.847 144.682 218.346C145.766 218.067 146.856 217.723 147.955 217.509C148.407 217.423 148.84 217.494 149.267 217.518C149.062 217.83 148.774 218.395 148.717 218.481C148.077 219.479 147.433 220.472 146.784 221.461C145.521 223.385 144.251 225.306 142.935 227.193C137.801 234.552 132.264 241.578 126.775 248.669C125.393 250.452 123.993 252.217 122.569 253.965C122.575 253.954 122.579 253.944 122.586 253.933C123.868 251.435 125.15 248.939 126.433 246.441C128.871 241.694 131.286 236.934 133.749 232.2C133.876 231.953 134.005 231.708 134.134 231.46C134.645 230.48 133.806 229.461 132.756 229.668C127.634 230.678 122.561 231.918 117.551 233.387C117.326 233.628 116.994 233.698 116.698 233.64C116.497 233.7 116.295 233.758 116.093 233.819C116.155 233.693 116.218 233.567 116.279 233.441C116.074 233.263 115.973 232.988 116.106 232.644C118.988 225.203 122.941 218.019 127.624 211.44C127.435 211.444 127.247 211.446 127.058 211.452C121.918 211.591 116.875 212.329 111.921 213.73C111.898 213.271 112.174 212.562 112.324 212.223C112.924 210.873 113.613 209.554 114.258 208.224C115.576 205.494 116.894 202.765 118.212 200.035C119.501 197.367 120.779 194.692 121.992 191.987C122.628 190.568 123.264 189.148 123.898 187.728C124.415 186.572 124.823 185.407 125.252 184.224C126.511 184.594 142.679 184.674 146.609 184.946C147.572 185.014 148.538 185.075 149.503 185.128C150.272 185.173 151.356 185.342 151.886 184.646L152.087 184.815C150.342 186.903 148.669 189.049 146.991 191.192ZM83.8667 152.396C83.947 152.361 84.0251 152.325 84.1033 152.289C84.1435 152.346 84.192 152.399 84.2427 152.451C84.3695 152.58 84.4942 152.72 84.6251 152.847C84.3716 152.698 84.1181 152.548 83.8667 152.396ZM196.861 271.173C196.715 268.094 196.553 265.014 196.379 261.935C196.037 255.916 195.684 249.897 195.213 243.886C194.256 231.706 193.365 219.53 191.93 207.394C191.328 202.307 190.487 197.258 189.644 192.206C189.752 192.109 189.862 192.012 189.97 191.917C189.853 193.299 191.729 194.174 192.659 192.796C192.729 192.692 192.796 192.589 192.864 192.481C193.669 191.179 195.524 184.792 195.395 184.251C195.162 183.277 194.516 182.41 194.011 181.552C193.57 180.802 193.124 180.051 192.672 179.308C191.77 177.817 190.84 176.342 189.866 174.899C187.848 171.91 185.643 169.04 183.044 166.532C180.355 163.932 177.268 161.795 174.08 159.857C172.548 158.927 170.968 158.084 169.358 157.297C167.77 156.524 166.031 155.668 164.32 155.228C164.222 155.203 164.123 155.338 164.212 155.41C164.666 155.77 165.141 156.108 165.625 156.433C164.315 155.979 162.965 155.651 161.605 155.535C158.97 154.609 156.304 153.762 153.682 152.796C151.105 151.845 148.565 150.775 146.852 148.522C145.388 146.597 144.462 144.24 143.75 141.945C142.969 139.415 142.658 136.786 141.936 134.252C141.879 134.047 141.543 134.024 141.498 134.252C140.983 136.911 141.006 139.899 141.3 142.583C141.608 145.398 142.4 148.161 144.124 150.45C146.127 153.111 148.844 154.592 151.901 155.774C154.367 156.729 156.864 157.701 159.389 158.555C159.059 158.771 158.725 158.986 158.381 159.191C157.012 160.005 155.588 160.728 154.132 161.377C151.474 162.562 148.675 163.45 145.859 164.171C140.617 165.506 135.243 166.185 129.839 166.274C119.026 166.453 108.093 164.188 98.2033 159.813C95.4188 158.581 92.6998 157.226 90.0082 155.803C89.1674 155.359 88.3223 154.911 87.4815 154.451C87.5512 154.447 87.623 154.44 87.6927 154.434C89.5709 154.256 91.4258 153.895 93.2427 153.383C96.9632 152.333 100.529 150.695 104.032 149.082C107.003 147.715 110.062 146.157 111.877 143.308C112.846 141.785 113.292 139.997 113.653 138.247C114.057 136.298 114.532 134.341 114.826 132.373C114.929 131.684 114.775 130.752 114.036 130.427C113.74 130.297 113.497 130.192 113.165 130.192C112.432 130.192 111.68 130.725 111.505 131.456C111.072 133.28 110.81 135.154 110.47 136.997C110.176 138.591 109.908 140.254 109.048 141.655C107.546 144.109 104.6 145.365 102.112 146.559C98.9575 148.072 95.8012 149.547 92.5244 150.775C91.0815 151.316 89.6132 151.807 88.1237 152.208C88.1829 151.843 88.1322 151.458 87.9167 151.168C87.5575 150.691 87.1498 150.374 86.6871 150.008C86.1843 149.611 85.5082 149.404 84.9146 149.579C84.9146 149.581 84.9125 149.579 84.9125 149.579C84.6716 149.526 84.4054 149.547 84.1308 149.672C83.2815 150.061 82.4343 150.454 81.5871 150.854C69.3991 156.59 57.5575 163.327 48.5892 173.588C47.2963 175.068 46.0857 176.624 44.9512 178.227C43.8484 179.785 42.4836 181.476 42.1794 183.408C42.154 183.568 42.3885 183.642 42.4287 183.477C42.5005 183.179 42.5977 182.888 42.7181 182.605C42.4667 183.484 42.4815 184.418 42.8364 185.337C43.2568 186.419 44.028 187.136 45.0019 187.421C44.0237 191.71 43.3667 196.055 42.8385 200.449C42.0801 206.779 41.5413 213.124 41.1357 219.485C40.3244 232.181 39.9632 244.94 40.2251 257.659C40.2991 261.254 40.4216 264.85 40.6075 268.443C40.7005 270.239 40.8019 272.033 40.9181 273.83C41.0322 275.597 40.9392 277.543 42.4794 278.475C42.4984 278.545 42.5195 278.613 42.5385 278.682C42.9125 279.986 44.5794 279.568 44.7357 278.384C44.7378 278.372 44.7399 278.357 44.742 278.344C46.0012 277.383 45.8111 275.781 45.7181 274.244C45.6188 272.585 45.5132 270.928 45.4244 269.271C45.2554 266.092 45.1118 262.914 44.9829 259.733C44.7315 253.443 44.5899 247.145 44.5434 240.851C44.4505 228.26 45.1773 215.689 46.0392 203.135C46.4005 197.883 46.823 192.654 46.9519 187.404C47.6258 187.053 47.8329 186.056 47.4949 185.384C55.4765 190.832 62.8836 197.346 68.8308 204.917C69.8237 206.181 70.7723 207.483 71.6808 208.808C71.9765 209.239 72.2575 209.687 72.5406 210.135C72.266 211.384 72.0526 212.654 71.7737 213.853C71.1991 216.328 70.9561 218.895 70.6266 221.411C69.9568 226.519 69.4857 231.674 69.0864 236.81C68.3005 246.952 67.7174 257.093 67.5336 267.265C67.4322 273.018 67.297 278.807 67.5505 284.558C67.3625 285.682 68.3744 286.781 69.4329 286.923C70.3604 287.047 71.2265 286.566 71.6322 285.79C74.5223 286.149 77.4885 286.314 80.3596 286.335C84.228 286.363 88.0963 286.359 91.9646 286.276C99.7033 286.107 107.44 285.909 115.177 285.678C130.65 285.222 146.123 284.763 161.598 284.304C165.889 284.177 170.18 284.051 174.471 283.924C176.406 283.867 178.819 284.425 180.344 282.931C180.606 282.673 180.809 282.37 180.953 282.047C181.409 282.161 181.969 282.049 182.269 281.696C182.829 281.035 183.241 280.422 183.22 279.505C183.201 278.646 182.964 277.742 182.841 276.892C182.609 275.297 182.385 273.701 182.172 272.103C181.751 268.945 181.358 265.784 180.997 262.62C180.258 256.15 179.586 249.666 179.062 243.175C178.022 230.34 177.729 217.437 177.765 204.562C177.769 203.41 177.775 202.258 177.781 201.106C177.83 201.168 177.883 201.224 177.94 201.273C177.986 201.313 178.033 201.353 178.079 201.396C178.62 201.871 179.52 202.117 180.169 201.666C180.965 201.151 181.515 200.377 182.136 199.678C182.789 198.944 183.46 198.23 184.139 197.52C185.453 196.146 186.811 194.829 188.197 193.527C188.309 193.424 188.421 193.318 188.533 193.216C188.541 197.315 188.537 201.411 188.647 205.507C188.812 211.591 189.141 217.67 189.443 223.746C190.043 235.778 190.665 247.806 191.262 259.836C191.429 263.195 191.588 266.555 191.755 269.913C191.839 271.594 191.922 273.274 192.002 274.954C192.044 275.863 192.086 276.774 192.129 277.683C192.175 278.659 192.114 279.703 192.443 280.631C193.193 282.753 196.434 283.053 197.058 280.631C197.448 279.112 197.148 277.353 197.079 275.793C197.007 274.255 196.935 272.714 196.861 271.173Z" fill="black"/>
<path fill-rule="evenodd" clip-rule="evenodd" d="M174.051 155.064C173.361 152.974 172.494 150.947 171.685 148.899C171.514 147.878 171.4 146.849 171.371 145.811C171.259 142.104 171.952 138.366 172.729 134.756C174.309 127.42 175.985 120.16 176.825 112.689C178.328 99.325 177.434 85.4287 171.358 73.2296C166.093 62.6621 157.171 54.0199 145.647 50.7821C142.24 49.8244 138.733 49.2963 135.203 49.0853C134.766 49.0158 134.329 48.9477 133.895 48.8822C128.984 48.1417 124.013 47.7726 119.049 48.092C110.818 48.6218 102.664 50.9881 95.8092 55.6683C88.9073 60.3807 84.0033 66.9884 81.7214 75.0478C79.3476 83.4321 79.5489 92.5123 75.4497 100.373C74.2387 102.695 72.8251 104.903 71.477 107.147C67.9001 111.14 64.0166 115.579 63.1656 121.068C62.1156 127.853 66.0177 133.587 69.7106 138.881C73.0487 143.662 77.5782 150.265 74.143 156.151C72.5226 158.928 69.9261 161.005 67.9761 163.537C65.9543 166.167 64.3761 169.185 63.5606 172.41C62.0289 178.467 63.4381 184.78 67.5346 189.514C69.6684 191.979 72.4085 193.608 75.3747 194.879C78.4106 196.176 81.3768 197.408 83.8867 199.617C85.0339 200.625 86.0839 201.731 87.0768 202.889C88.0022 204.336 89.0796 205.689 90.2944 206.928C91.6318 208.291 94.2515 206.425 93.024 204.82C92.9332 204.702 92.8444 204.586 92.7536 204.468C91.8557 203.297 90.9536 202.126 90.0092 200.993C87.193 196.529 86.1092 191.064 87.5099 185.85C87.8733 184.495 88.3846 183.21 89.0207 181.997C89.1557 182.35 89.3036 182.698 89.4599 183.043C90.0684 184.379 90.9221 185.961 92.0078 187.314C92.0501 188.242 92.1897 189.162 92.4599 190.062C94.1332 195.644 99.7275 198.398 104.773 200.541C105.267 200.752 105.755 200.955 106.235 201.156C107.553 201.707 108.947 199.828 108.125 198.695C107.91 198.398 107.701 198.093 107.502 197.785C105.136 194.12 104.01 189.736 104.648 185.37C105.32 180.752 108.041 176.931 110.743 173.264C113.397 169.658 116.247 165.979 117.434 161.58C118.748 156.721 117.552 151.877 115.524 147.405C113.667 143.313 111.193 139.541 109.119 135.561C109.829 136.27 110.562 136.955 111.317 137.616C112.166 138.36 113.038 139.211 114.045 139.735C114.789 140.122 115.534 139.195 114.945 138.568C114.17 137.744 113.179 137.107 112.319 136.372C111.494 135.666 110.692 134.932 109.91 134.178C108.947 133.25 108.031 132.279 107.148 131.277C106.442 129.476 105.859 127.627 105.385 125.75C104.741 123.21 104.145 120.507 104.192 117.873C104.238 115.172 105.641 113.28 107.509 111.467C108.3 110.699 109.098 109.94 109.895 109.18C111.593 107.933 113.194 106.541 114.75 105.152C117.522 102.677 120.203 100.06 122.763 97.3675C123.45 96.6451 124.131 95.9146 124.804 95.1758C127.154 92.763 129.396 90.2437 131.509 87.6373C133.609 86.8722 135.626 85.8599 137.519 84.6678C136.695 85.5027 135.863 86.3269 135.035 87.1575C133.19 89.009 131.274 90.8689 129.136 92.3777C128.916 92.5343 129.049 92.8661 129.32 92.8133C132.039 92.2701 134.582 91.3655 136.957 89.9241C139.372 88.4574 141.499 86.4643 143.485 84.4649C144.609 83.9577 145.693 83.3046 146.684 82.6621C146.737 82.6283 146.79 82.5924 146.842 82.5584C145.866 85.6527 144.434 89.1569 141.381 90.2602C141.282 90.2961 141.288 90.461 141.406 90.4546C143.978 90.3037 146.045 89.1461 147.677 87.4589C148.99 86.5142 150.242 85.513 151.437 84.4231C152.595 83.3672 153.692 82.2348 154.733 81.0622C153.278 83.9469 151.647 86.7676 150.039 89.5564C149.954 89.7043 150.132 89.9051 150.284 89.8015C153.679 87.5021 156.254 84.5347 158.361 81.0261C158.672 80.5095 158.968 79.9845 159.258 79.4555C159.039 80.2834 158.801 81.106 158.546 81.9243C158.083 83.4057 157.628 84.8904 157.164 86.3709C156.915 87.1692 156.61 87.9493 156.276 88.716C156.037 89.2647 155.724 89.8123 155.675 90.414C155.672 90.454 155.716 90.4802 155.751 90.4715C157.104 90.1329 158.365 88.5884 159.33 87.6316C159.867 87.0988 160.37 86.514 160.833 85.8973C160.919 89.4494 160.978 93.002 160.9 96.5648C160.755 103.108 160.332 109.649 159.791 116.172C159.313 121.937 158.961 127.988 155.745 132.999C153.256 136.878 149.221 139.562 144.837 140.862C144.451 140.978 144.062 141.081 143.671 141.174C137.325 142.681 131.004 140.974 125.392 137.956C123.706 137.049 122.266 139.509 123.892 140.521C129.981 144.313 137.699 145.604 144.59 143.905C144.373 152.048 148.385 159.773 152.375 166.68C154.609 170.546 156.844 174.386 158.422 178.577C159.761 182.136 160.672 185.829 160.978 189.626C161.342 194.103 160.985 198.605 160.359 203.043C160.325 203.284 160.292 203.527 160.256 203.768C160.116 204.721 160.972 205.52 161.899 205.032C166 202.876 167.768 198.281 168.844 194.033C169.849 190.053 170.532 185.995 170.912 181.91C171.47 183.451 171.922 185.03 172.273 186.64C172.321 186.87 172.368 187.101 172.414 187.331C172.68 188.678 174.717 188.582 175.042 187.331C175.101 187.105 175.159 186.879 175.211 186.651C176.891 179.856 177.343 172.769 176.456 165.822C175.989 162.168 175.209 158.562 174.051 155.064Z" fill="black"/>
<path fill-rule="evenodd" clip-rule="evenodd" d="M143.152 128.274C141.732 127.695 140.465 126.728 139.538 125.493C139.216 125.063 139.133 124.61 139.2 124.195C139.276 123.729 139.552 123.306 139.928 123.023C140.305 122.739 140.777 122.598 141.233 122.67C141.63 122.732 142.024 122.949 142.337 123.399L142.402 123.489C142.953 124.235 143.67 124.846 144.488 125.241C145.276 125.621 146.158 125.798 147.07 125.695C148.808 125.499 150.005 124.559 151.278 123.282C151.436 123.121 151.594 122.955 151.752 122.786C151.852 122.633 151.991 122.534 152.146 122.483C152.317 122.425 152.511 122.429 152.689 122.491C152.86 122.55 153.013 122.664 153.116 122.815C153.213 122.958 153.269 123.135 153.251 123.339C153.134 124.661 152.443 125.842 151.461 126.769C150.37 127.799 148.924 128.511 147.563 128.761C146.064 129.036 144.536 128.839 143.152 128.274ZM148.271 107.866C149.866 108.836 152.297 111.098 150.581 113.503C148.56 115.624 145.652 113.193 144.219 112.093C142.89 111.241 141.396 113.433 142.629 114.428C152.987 122.099 157.19 108.12 149.078 106.726C148.184 106.572 147.853 107.566 148.271 107.866ZM129.711 98.9429C129.887 96.7541 133.219 96.257 133.551 98.423C133.847 100.363 133.498 102.145 132.624 103.892C131.79 105.561 129.692 104.783 129.533 103.263C129.32 101.226 129.601 100.304 129.711 98.9429ZM155.076 97.9739C155.541 97.3652 156.212 96.9497 157.015 97.1845C159.526 97.9185 158.786 101.485 157.904 103.22C157.425 104.163 155.876 104.402 155.176 103.572C154.036 102.219 153.489 99.5157 154.94 98.1825C154.979 98.1136 155.023 98.044 155.076 97.9739ZM132.589 89.3654L132.986 89.2959C134.213 89.0836 135.738 88.8796 136.606 89.8665C137.067 90.3898 137.225 91.3624 136.606 91.8633C135.518 92.7446 134.314 92.4031 133.01 92.4777C131.935 92.5394 130.902 92.7174 129.867 93.0135C127.595 93.663 125.744 94.8486 123.804 96.1505C123.55 96.3213 123.29 95.9956 123.411 95.7574C124.531 93.563 126.701 91.7604 128.875 90.6616C130.036 90.0751 131.305 89.5885 132.589 89.3654ZM152.787 88.3823L153.091 88.4445C156.395 89.1353 160.687 90.5153 162.251 93.7615C162.311 94.2205 162.248 94.3189 162.197 94.3832L162.18 94.4046C162.137 94.4595 162.104 94.5351 161.905 94.5976C161.85 94.5844 161.794 94.5705 161.737 94.5557C161.02 94.3677 160.453 94.1087 159.904 93.84L159.308 93.5465C158.617 93.2076 157.92 92.881 157.181 92.6399C155.605 92.1255 153.983 91.7631 152.337 91.5696C151.98 91.5277 151.636 91.4072 151.365 91.2006C151.108 91.0046 150.911 90.7332 150.821 90.3724C150.705 89.9056 150.739 89.5521 150.989 89.1309C151.177 88.8146 151.447 88.5953 151.756 88.4694C152.071 88.3411 152.43 88.3108 152.787 88.3823Z" fill="black"/>
</svg>
