<svg width="260" height="324" viewBox="0 0 260 324" fill="none" xmlns="http://www.w3.org/2000/svg">
<path fill-rule="evenodd" clip-rule="evenodd" d="M235.394 213.807C235.358 213.646 235.55 213.524 235.675 213.644C237.781 215.675 239.268 218.271 240.902 220.676C242.456 222.967 244.149 225.169 245.309 227.697C246.386 230.047 247.081 232.431 247.288 235.014C247.495 237.578 247.227 240.148 246.775 242.673C245.885 247.648 243.984 252.359 241.897 256.935C239.867 261.383 237.574 265.705 235.153 269.948L234.285 271.463C233.226 273.308 232.156 275.148 231.01 276.935C229.584 279.159 228.282 281.454 226.402 283.31C225.067 284.63 222.551 283.31 223.159 281.422C223.423 280.6 223.63 279.826 224.04 279.063C224.351 278.482 224.702 277.918 225.031 277.345C225.69 276.2 226.343 275.05 227.002 273.904C228.386 271.497 229.844 269.134 231.215 266.719C233.594 262.53 235.84 258.262 237.825 253.871L238.059 253.352C239.886 249.285 241.618 245.073 242.421 240.674C243.266 236.039 242.509 231.67 240.863 227.314C240.012 225.061 239.055 222.859 238.06 220.665L237.869 220.246C236.908 218.152 235.889 216.07 235.394 213.807ZM133.109 133.637C133.128 133.555 133.267 133.549 133.28 133.637C133.871 137.573 132.555 141.736 130.411 145.01C129.24 146.798 127.797 148.413 126.097 149.711L125.964 149.811C124.227 151.11 121.879 152.365 119.723 151.522C119.655 151.496 119.592 151.467 119.532 151.433C119.775 151.809 119.999 152.205 120.228 152.6C120.906 153.777 121.514 154.997 122.175 156.184C123.359 158.308 124.768 160.208 126.549 161.872C133.67 168.522 143.67 170.102 153.061 170.026L153.725 170.02C157.85 169.991 163.245 170.202 166.43 167.215C168.141 165.611 169.083 163.33 169.935 161.189C170.771 159.09 171.344 156.924 172.039 154.789C170.587 153.794 169.256 152.579 168.211 151.158C167.121 149.679 166.297 148.014 165.821 146.236L165.751 145.971C165.383 144.553 165.014 142.678 165.606 141.339C165.673 141.185 165.927 141.195 165.999 141.339C166.318 141.98 166.379 142.702 166.575 143.387C166.804 144.184 167.061 144.976 167.401 145.731C168.059 147.194 168.927 148.584 169.968 149.802C170.828 150.81 171.76 151.735 172.825 152.513C173.452 151.429 174.908 151.283 176.127 151.64C177.761 152.118 179.373 152.731 180.948 153.379L181.263 153.509C182.82 154.155 184.58 154.749 186.037 155.631C186.923 156.053 187.772 156.478 188.571 156.854C192.55 158.724 196.47 160.709 200.373 162.731L201.209 163.165C202.844 164.017 204.464 164.877 205.886 166.065C207.333 167.274 208.457 168.927 209.513 170.476C211.928 174.018 214.204 177.662 216.591 181.223C221.412 188.409 226.233 195.595 231.082 202.764C232.254 204.499 233.577 206.192 234.629 208.001C235.637 209.73 235.609 211.505 235.413 213.435L235.376 213.789C234.999 217.329 234.352 220.728 232.366 223.764C229.242 228.536 224.319 231.507 219.111 233.553C219.747 234.027 220.345 234.538 221.104 234.864C222.27 235.363 223.514 235.621 224.775 235.724C226.121 235.832 227.638 235.496 228.728 236.411C229.166 236.776 229.178 237.656 228.728 238.021C227.68 238.877 226.326 238.632 225.048 238.488L224.972 238.48C223.787 238.349 222.618 238.129 221.505 237.694C221.23 237.586 220.958 237.465 220.694 237.332C220.702 237.356 220.706 237.383 220.702 237.413C220.512 238.869 220.1 240.246 219.664 241.637L219.388 242.519C218.826 244.32 218.26 246.116 217.677 247.912C216.567 251.332 215.359 254.72 214.146 258.103L213.099 261.023C212.023 264.018 210.934 267.009 209.731 269.954C208.987 271.772 208.24 273.589 207.494 275.405C206.765 277.178 206.159 279.093 205.254 280.782C204.511 282.172 202.482 281.177 202.808 279.748C203.235 277.874 204.04 276.014 204.654 274.19C205.28 272.338 205.892 270.485 206.528 268.637C207.634 265.428 208.859 262.262 210.09 259.099L211.31 255.963C212.507 252.891 213.719 249.821 215.013 246.788L215.154 246.456C216.499 243.284 217.887 239.717 220.33 237.259C220.362 237.225 220.406 237.208 220.451 237.203C219.851 236.878 219.289 236.483 218.794 236.016L218.77 235.991C218.575 235.784 217.768 234.764 217.508 234.154C217.17 234.274 216.832 234.39 216.494 234.504C215.904 234.703 215.416 234.559 215.072 234.244L214.416 234.651C213.715 235.079 212.961 235.485 212.186 235.506C211.21 235.532 210.443 234.993 209.921 234.198C209.452 233.488 209.173 232.721 208.58 232.084C207.996 231.459 207.32 230.931 206.63 230.428L205.816 229.835C204.324 228.745 202.877 227.644 201.675 226.205C201.071 225.478 200.262 224.615 199.894 223.742C199.823 223.574 199.778 223.415 199.77 223.261C199.69 223.806 199.607 224.353 199.525 224.899C198.371 232.573 197.44 240.3 197.142 248.06C196.996 251.888 196.93 255.72 197.102 259.549C197.186 261.462 197.325 263.373 197.518 265.279C197.613 266.234 197.712 267.188 197.828 268.139L197.855 268.359C197.889 268.65 197.911 268.932 197.885 269.2C198.815 269.658 199.349 270.817 199.721 271.721C200.004 272.41 199.785 273.08 199.328 273.564C199.873 274.061 200.359 274.644 200.767 275.312C200.849 275.447 200.672 275.553 200.566 275.468C199.897 274.936 199.176 274.498 198.424 274.162C198.029 274.312 197.598 274.352 197.201 274.243C196.77 274.124 196.398 273.837 196.13 273.471C193.994 273.12 191.773 273.549 189.851 274.887C189.451 275.166 189.09 275.481 188.746 275.823C188.687 275.883 188.625 275.959 188.564 276.033L188.984 276.194C189.157 276.26 189.3 276.311 189.354 276.322C189.721 276.397 190.092 276.437 190.464 276.469L191.021 276.515C193.161 276.692 195.295 276.751 197.285 277.647C197.704 277.835 197.558 278.48 197.163 278.588C195.71 278.982 194.267 278.952 192.788 278.846L192.471 278.822C191.095 278.717 189.618 278.723 188.277 278.343C188.598 279.222 188.161 280.37 186.819 280.549C182.79 281.086 178.736 280.833 174.703 280.477C170.63 280.118 166.559 279.778 162.475 279.565C149.265 278.869 136.035 279.003 122.813 279.192L115.342 279.3C109.383 279.384 103.424 279.449 97.4652 279.404L94.6762 279.378C93.4975 279.366 92.3181 279.352 91.1408 279.317L90.4346 279.294C89.0318 279.243 87.1747 279.454 85.9557 278.624C84.9501 277.939 84.7261 276.684 85.3325 275.671C85.5078 275.38 85.7487 275.12 86.0001 274.866C86.5156 270.46 86.805 266.032 87.1008 261.606C88.1275 246.118 87.5275 230.711 85.1592 215.379C78.8043 217.322 72.5466 219.759 66.4494 222.373C63.1515 223.787 59.8705 225.254 56.6275 226.792C53.6677 228.198 50.6951 229.954 47.5325 230.867C47.245 231.122 46.843 231.244 46.4865 231.131L46.4402 231.114H46.4381C46.1128 231.19 45.7515 231.144 45.3966 230.931C45.3247 230.887 45.2529 230.843 45.1811 230.798L45.0733 230.73C43.9599 230.028 42.8402 229.164 42.0522 228.107C41.0951 228.995 40.0663 229.808 39.0543 230.632C37.9557 231.529 36.8613 232.429 35.7754 233.338C35.3444 233.699 34.8691 234.044 34.4888 234.46L34.4336 234.521C34.4247 234.531 34.4163 234.541 34.4085 234.551C36.0543 235.616 37.4951 237.233 38.786 238.638C40.1721 240.147 41.5103 241.703 42.8376 243.266L44.1225 244.782C53.2083 255.515 62.3871 266.637 74.1501 274.526C76.0092 275.773 74.2367 278.81 72.3902 277.535C68.8959 275.128 65.5895 272.454 62.4142 269.641C56.8494 264.715 51.8423 259.188 47.1543 253.429C44.7818 250.514 42.4789 247.528 40.2226 244.522L39.4568 243.503C38.4363 242.143 37.4212 240.779 36.4494 239.385L36.246 239.092C35.3936 237.862 34.4871 236.479 33.9374 235.062C33.7261 235.276 33.4874 235.455 33.1388 235.591C32.543 235.823 31.812 235.335 31.6663 234.754C31.3113 233.344 32.5367 232.505 33.5339 231.757C34.7444 230.852 35.9782 229.979 37.2142 229.111L37.6556 228.799C39.2012 227.702 40.7548 226.577 42.4388 225.71C42.4895 225.643 42.5508 225.579 42.6205 225.524C42.7008 225.461 42.7789 225.399 42.8592 225.338C40.848 222.075 38.6423 218.938 36.1811 215.975C34.3304 213.746 32.3656 211.617 30.2867 209.601L29.3528 208.696C27.9402 207.332 26.4714 205.947 24.9036 204.761L24.4128 205.318C23.7574 206.059 23.0956 206.795 22.3959 207.492C21.0184 208.861 19.6599 210.259 18.3078 211.655C16.0623 213.98 13.8929 216.375 11.7304 218.774L10.6494 219.974C8.39726 222.474 5.98458 224.928 3.9374 227.599L3.83516 227.735C2.9414 228.934 2.30518 230.261 2.7205 231.784C3.12122 233.253 4.07397 234.555 4.89518 235.823L4.97683 235.95C8.32965 241.175 11.9212 246.266 15.7684 251.138C23.4733 260.896 32.262 270.144 42.7494 276.929C44.2029 277.869 42.8444 280.207 41.3888 279.256C35.2642 275.251 29.6381 270.441 24.462 265.275C19.7106 260.534 15.405 255.314 11.3698 249.956C9.40289 247.342 7.51838 244.673 5.71205 241.944C3.96064 239.296 1.93458 236.572 0.664862 233.651C-0.000578566 232.114 -0.245701 230.451 0.299369 228.832C0.799241 227.344 1.78781 226.108 2.81623 224.946L2.91275 224.837C5.27683 222.181 7.68317 219.556 10.1106 216.956C12.5466 214.348 15.0944 211.833 17.6951 209.392C19.7381 207.471 21.8677 205.777 24.1451 204.209C23.9402 204.064 23.7353 203.924 23.5261 203.789C22.8902 203.375 22.7297 202.489 23.2874 201.927C24.8106 200.388 26.5663 199.05 28.2184 197.649C29.7712 196.332 31.324 195.014 32.8768 193.695C36.0374 191.015 39.198 188.333 42.3585 185.651C48.0353 180.834 53.6804 175.984 59.3381 171.146C61.6973 169.129 64.0784 167.138 66.4535 165.14L70.6732 161.588L72.737 159.854C73.7944 158.968 74.8744 158.092 76.0768 157.417C78.9062 155.827 82.3078 155.139 85.4251 154.296L85.6325 154.24C89.129 153.283 92.6444 152.382 96.179 151.579C99.7177 150.776 103.271 150.045 106.84 149.383C110.047 148.787 113.33 148.276 116.6 148.2C117.411 147.891 118.43 147.783 119.228 148.113C119.558 148.25 119.902 148.451 120.209 148.705C121.808 148.142 123.386 147.874 124.88 146.923C126.371 145.974 127.692 144.727 128.803 143.353C131.099 140.509 132.301 137.148 133.109 133.637ZM169.871 229.969C168.604 229.88 167.463 230.404 166.33 230.962C166.968 231.239 167.606 231.514 168.244 231.786L172.491 233.6C173.894 234.198 175.379 234.718 176.712 235.455C176.807 235.508 176.883 235.572 176.94 235.646C178.326 234.758 179.792 233.966 181.197 233.122C181.518 232.93 181.842 232.738 182.165 232.545C180.492 233.105 178.776 233.386 176.959 232.86C174.536 232.161 172.432 230.149 169.871 229.969ZM173.344 225.716L173.117 225.562C171.887 224.718 170.42 223.633 168.927 224.391C168.223 224.749 167.647 225.325 166.954 225.71C166.256 226.099 165.49 226.397 164.712 226.577C163.421 226.875 161.942 226.919 160.554 226.631L160.575 228.508C161.625 228.942 162.669 229.386 163.713 229.834C164.39 229.602 165.042 229.323 165.728 229.018L166.191 228.811C167.511 228.217 168.844 227.82 170.304 228.008C173.053 228.36 175.13 230.404 177.758 231.085C180.98 231.922 183.887 229.517 186.931 228.923C187.433 228.824 187.95 228.766 188.465 228.757L188.636 228.756L188.712 228.711C189.367 228.327 190.347 227.959 190.804 227.312C191.3 226.61 191.342 225.435 191.505 224.611C191.522 224.529 191.539 224.444 191.554 224.362C191.266 224.362 190.975 224.376 190.679 224.431C189.749 224.603 188.875 224.932 188.009 225.3C186.371 225.995 184.77 226.788 183.046 227.251C181.358 227.705 179.594 227.921 177.855 227.669C176.159 227.424 174.749 226.659 173.344 225.716ZM173.609 219.118L173.354 218.954C172.683 218.525 171.913 218.081 171.09 218.239C170.355 218.381 169.723 218.966 169.083 219.327C167.678 220.12 166.102 220.553 164.494 220.663C163.157 220.754 161.769 220.591 160.482 220.194L160.527 224.349C160.998 224.499 161.486 224.607 161.999 224.645C163.559 224.761 165.08 224.387 166.387 223.527L167.049 223.088C168.181 222.343 169.243 221.753 170.742 222.024C172.225 222.295 173.469 223.246 174.682 224.074L174.881 224.208C176.273 225.128 177.685 225.721 179.393 225.736C181.237 225.75 183.061 225.237 184.778 224.605C186.483 223.979 188.104 223.229 189.927 222.999C190.485 222.929 191.165 222.908 191.805 223.018C191.89 222.546 191.97 222.077 192.046 221.606C192.211 220.593 192.352 219.583 192.475 218.571C189.24 217.7 186.253 220.517 183.249 221.386C181.506 221.889 179.609 221.883 177.866 221.396C176.253 220.946 174.985 220.012 173.609 219.118ZM173.617 212.12C172.926 211.987 172.244 212.306 171.656 212.634C170.159 213.465 168.866 214.621 167.169 215.058C164.987 215.62 162.599 215.136 160.432 214.217C160.44 215.5 160.451 216.783 160.461 218.066C160.869 218.22 161.287 218.345 161.714 218.444C163.231 218.791 164.839 218.744 166.332 218.307C167.856 217.86 169.024 216.656 170.551 216.28C172.113 215.894 173.586 216.645 174.844 217.498L175.223 217.757C176.662 218.734 178.058 219.582 179.858 219.748C181.761 219.923 183.416 219.327 185.116 218.537L185.512 218.354C187.665 217.364 190.46 216.238 192.61 217.364C192.779 215.766 192.902 214.169 192.984 212.568C192.688 212.458 192.382 212.378 192.029 212.376C191.186 212.372 190.301 212.638 189.515 212.915C187.797 213.522 186.198 214.426 184.497 215.075C182.885 215.692 181.1 216.013 179.38 215.737C177.787 215.481 176.592 214.648 175.491 213.507L175.331 213.338C174.848 212.824 174.332 212.259 173.617 212.12ZM174.878 206.188C174.082 205.767 173.112 205.376 172.191 205.499C171.312 205.615 170.726 206.211 170.185 206.849L169.892 207.198C168.924 208.344 167.971 209.307 166.478 209.779C164.932 210.265 163.292 210.074 161.854 209.362C161.342 209.109 160.867 208.794 160.39 208.483L160.415 211.854C161.37 212.329 162.342 212.759 163.409 213.019C165.378 213.498 167.051 213.143 168.735 212.057L168.911 211.942C170.18 211.109 171.48 210.117 173.047 210.024C174.575 209.932 175.723 210.78 176.729 211.818L176.847 211.941C178.117 213.28 179.399 213.934 181.288 213.779C183.119 213.63 184.833 212.821 186.51 212.124L186.663 212.061C188.197 211.431 189.965 210.782 191.649 211.023C192.052 211.08 192.574 211.205 193.039 211.423C193.106 209.846 193.138 208.267 193.144 206.687C192.187 205.856 190.698 205.719 189.5 206.059C187.624 206.591 186.088 207.965 184.297 208.711C182.708 209.373 181.051 209.521 179.431 208.895C177.758 208.248 176.446 207.016 174.878 206.188ZM193.039 199.547C190.235 199.644 187.493 201.468 184.816 202.164C181.826 202.94 179.386 201.882 176.722 200.707L176.378 200.555C175.011 199.955 173.543 199.416 172.028 199.661C170.551 199.902 169.246 200.72 167.976 201.46L167.733 201.6C165.42 202.917 163.064 203.819 160.364 203.594C160.379 204.442 160.373 205.287 160.375 206.116C160.818 206.369 161.245 206.657 161.651 206.919L161.796 207.011C163.084 207.817 164.411 208.346 165.946 207.849C167.429 207.367 168.126 206.076 169.144 205.013C170.08 204.036 171.301 203.442 172.671 203.499C174.143 203.558 175.535 204.207 176.752 205C177.969 205.792 179.146 206.817 180.57 207.215C183.764 208.102 186.5 204.723 189.521 204.197C190.789 203.975 192.187 204.256 193.144 205.021C193.134 203.199 193.094 201.373 193.039 199.547ZM168.908 198.782C168.513 198.797 168.118 198.814 167.723 198.831C166.261 198.894 164.799 198.966 163.337 199.048C162.325 199.103 161.08 199.414 160.087 199.105C160.062 199.207 160.028 199.304 159.984 199.399C160.134 200.147 160.227 200.921 160.284 201.703C161.201 201.802 162.132 201.768 163.037 201.58C165.206 201.13 166.968 199.761 168.908 198.782ZM192.997 198.154C187.658 198.522 182.278 198.396 176.931 198.511L176.29 198.526C176.264 198.526 176.239 198.529 176.213 198.529C176.827 198.766 177.435 199.039 178.042 199.316L178.647 199.594C180.08 200.253 181.537 200.792 183.141 200.676C184.859 200.551 186.477 199.85 188.082 199.283C189.614 198.742 191.378 198.378 193.011 198.615C193.007 198.461 193.003 198.309 192.997 198.154Z" fill="black"/>
<path fill-rule="evenodd" clip-rule="evenodd" d="M130.873 43.1346C130.615 40.2239 133.296 38.0339 135.785 38.849C136.241 38.9059 136.685 39.05 137.082 39.2924C138.227 39.9922 138.478 41.1208 138.179 42.0964C138.716 42.5024 139.14 43.0528 139.353 43.7166C139.572 44.4006 139.549 45.064 139.343 45.642C140.123 46.158 140.714 46.9364 140.851 47.9007C140.916 48.3587 140.89 48.8129 140.781 49.2304C141.963 49.6317 142.927 50.5308 142.913 51.8913C143.599 51.9352 144.286 51.9449 144.986 51.906C145.085 51.6243 145.208 51.3496 145.389 51.0966C145.756 50.5869 146.276 50.2368 146.853 50.0185L146.932 49.9895L146.93 49.8348C146.489 49.3455 146.282 48.7284 146.752 48.0563C146.833 47.9411 146.931 47.846 147.041 47.7644C147.08 47.4728 147.143 47.1841 147.22 46.9002C146.831 46.357 146.873 45.4558 147.526 45.1862C147.435 44.6565 147.43 44.1072 147.528 43.5537C147.931 41.2859 150.119 39.7414 152.374 39.828C152.656 39.8388 152.931 39.8813 153.196 39.9489C153.745 40.0064 154.291 40.1292 154.828 40.3118C155.448 40.5227 155.607 41.0405 155.471 41.4782C156.313 42.6041 156.552 44.1336 155.704 45.5083C155.672 45.5605 155.636 45.6101 155.601 45.6602C155.771 45.7881 155.919 45.9567 156.029 46.1734C156.305 46.7187 156.237 47.4106 155.816 47.8657C155.704 47.987 155.559 48.0781 155.4 48.1366L155.398 48.1814C155.343 48.9116 155.227 49.6438 155.008 50.3334C155.9 51.1625 156.493 52.2909 156.598 53.5068C156.93 53.5377 157.263 53.5738 157.594 53.6114C157.643 53.2781 157.846 52.978 158.152 52.7455C158.409 52.5511 158.683 52.3955 158.965 52.2791C159.1 51.5801 159.432 50.9106 159.992 50.3793C160.2 50.1823 160.427 50.0085 160.669 49.8591C160.656 49.1014 160.825 48.3444 161.244 47.6275C161.593 47.0313 162.101 46.5988 162.681 46.3236C163.103 45.474 163.885 44.7808 165.024 44.3868C165.875 44.0926 166.775 44.4423 167.422 44.9922L167.566 45.119C168.16 45.6429 168.374 46.6056 168.156 47.3483C168.053 47.6972 167.881 48.1049 167.632 48.4361C167.895 49.5979 167.371 50.5671 166.568 51.1118C166.842 51.5024 167.073 51.9356 167.268 52.3983C167.605 53.1982 167.226 54.1943 166.619 54.8246C166.885 55.2486 167.057 55.7431 167.12 56.2398C167.391 56.2556 167.66 56.3038 167.926 56.3793C168.07 55.8906 168.34 55.4364 168.754 55.0655C168.936 54.7111 169.151 54.3812 169.392 54.0927C169.772 53.6374 170.265 53.3094 170.802 53.1758C170.873 53.007 170.975 52.8453 171.102 52.6976C170.974 51.2164 171.955 49.6871 173.466 49.6858C173.573 49.3405 173.703 48.9989 173.859 48.6639C174.165 48.0068 174.814 47.6133 175.518 47.484C175.931 46.4767 176.743 45.7441 178.136 45.622C181.249 45.3493 183.207 49.1249 182.447 51.8357C182.221 52.6409 181.692 53.3819 180.989 53.8369C180.805 53.9559 180.62 54.0424 180.433 54.1138C180.245 54.3757 179.993 54.6084 179.669 54.798C179.597 54.84 179.523 54.8778 179.447 54.9117C179.454 56.1214 178.62 57.1053 177.584 57.4183C177.65 58.181 177.455 58.9457 176.876 59.5366L176.835 59.5763L176.751 59.6518L176.744 59.6852C176.95 60.2161 176.928 60.8009 176.632 61.2822C176.658 61.7243 176.737 62.1565 176.885 62.5674C177.457 63.0305 177.962 63.5624 178.414 64.1398C178.715 63.8668 179.17 63.7436 179.564 63.8928C179.673 63.8556 179.785 63.8315 179.893 63.8207C180.073 63.8025 180.249 63.8032 180.422 63.8158C180.502 63.6998 180.593 63.5895 180.698 63.4861C181.433 62.7593 182.499 62.7743 183.346 63.2258C183.498 63.1152 183.668 63.0176 183.862 62.9358C186.021 62.0255 187.435 64.7657 187.646 66.4736C187.761 67.4054 186.959 67.9801 186.136 68.0285C185.969 68.5934 185.433 69.0001 184.833 69.1381C184.94 69.8359 184.477 70.5482 183.847 70.8137C183.566 70.9322 183.294 70.9646 183.038 70.9301L183.05 71.0954C183.1 71.7508 182.768 72.168 182.315 72.3529C182.235 72.6776 182.013 72.913 181.736 73.0337C182.796 75.4904 183.633 78.0642 184.308 80.6028C185.422 84.7934 186.171 89.0604 186.674 93.366C187.557 100.935 187.592 108.66 186.707 116.232C186.257 120.085 185.509 123.852 183.978 127.43C182.702 130.415 180.926 133.006 178.882 135.513C174.822 140.491 169.011 144.159 162.606 145.07C159.244 145.548 155.795 145.393 152.514 144.476C149.247 143.564 145.764 141.999 143.706 139.221C143.149 138.468 143.42 137.248 144.041 136.627C144.749 135.919 145.768 135.873 146.633 136.293C148.167 137.037 149.546 138.054 151.105 138.764C152.513 139.405 154.034 139.816 155.55 140.106C158.551 140.68 161.815 140.533 164.807 139.732C170.234 138.28 175.015 134.774 178.05 130.046C181.636 124.461 182.916 117.916 183.502 111.394C184.143 104.255 184.076 97.0175 183.226 89.8988C182.804 86.3686 182.155 82.8701 181.387 79.4004C180.84 76.9299 180.222 74.4759 179.642 72.0139C179.115 71.5111 178.606 70.9918 178.115 70.4537L178.1 70.4527C178.038 70.4681 177.974 70.4797 177.904 70.485C174.99 70.7073 171.831 70.4146 169.345 68.7344C168.334 68.0515 167.479 67.1871 166.843 66.1918C165.95 65.5724 165.136 64.7908 164.524 63.8877C164.091 63.4117 163.68 62.9144 163.289 62.399C162.317 61.1144 161.8 59.7662 161.22 58.284C161.207 58.2499 161.198 58.2165 161.191 58.1838C161.08 58.0022 161.001 57.8034 160.963 57.6026C159.67 57.4489 158.37 57.347 157.084 57.2858C156.629 57.2642 156.172 57.2471 155.715 57.2323C155.835 57.6789 155.907 58.1421 155.923 58.6179C156.292 58.6344 156.668 58.6773 157.053 58.7388C158.858 59.0264 160.016 59.9513 161.112 61.4005C162.18 62.8111 163.031 64.5076 163.663 66.1576C164.05 67.1679 163.533 68.2846 162.683 68.935C160.477 69.1224 158.31 69.5967 156.28 70.5364C156.208 70.5695 156.156 70.6277 156.122 70.6961C154.501 71.1793 152.868 71.6212 151.235 71.9964C149.659 72.3586 148.068 72.5093 146.484 72.1096C145.803 71.9378 145.136 71.6834 144.481 71.398C144.129 71.4407 143.748 71.3735 143.361 71.1512C142.774 70.8149 142.183 70.4472 141.602 70.0515C140.574 69.5587 139.564 69.0292 138.599 68.4241L138.593 68.4167C137.824 67.4828 136.726 66.5313 135.497 65.8108C135.361 65.603 135.241 65.3845 135.145 65.1509C134.616 63.864 134.837 62.3074 135.952 61.4223C135.969 61.1169 136.102 60.8178 136.396 60.578C136.63 60.388 136.87 60.2075 137.116 60.0354C137.065 59.9972 137.013 59.9602 136.961 59.9211C136.86 59.8444 136.762 59.7617 136.667 59.6765C135.923 60.0849 135.171 60.4845 134.403 60.8405C134.384 60.8546 134.365 60.8696 134.345 60.8829C132.9 61.8317 131.532 62.9214 130.069 63.8357C129.719 64.0545 129.37 64.2667 129.024 64.4795C128.894 64.6568 128.767 64.8367 128.645 65.0199C128.592 65.3018 128.513 65.5834 128.414 65.8575C128.605 66.0099 128.761 66.2107 128.867 66.4486C129.321 66.6217 129.749 66.8413 130.148 67.1032L130.502 67.2602C130.957 66.8954 131.438 66.5657 131.954 66.2916C133.575 66.3969 135.326 67.5455 136.557 68.7166C136.643 68.8139 136.728 68.9119 136.808 69.0115C136.886 69.0745 136.965 69.1414 137.043 69.2072C137.171 69.3443 137.29 69.48 137.399 69.6121C137.521 69.7607 137.659 69.8425 137.799 69.8767C138.554 70.5852 139.26 71.3824 139.744 72.2107C140.52 73.5405 139.976 75.1981 139.408 76.503C139.315 76.716 139.217 76.9257 139.114 77.133C138.028 78.597 136.998 80.1021 135.969 81.6075C135.275 82.2781 134.586 82.953 133.927 83.6547C133.819 83.7269 133.706 83.7963 133.581 83.8605C131.664 84.8478 129.809 83.7364 127.982 83.0443L127.778 82.9688C125.896 82.2878 123.552 81.8402 123.433 79.3877C123.417 79.0536 123.43 78.7112 123.463 78.365C123.926 77.1362 124.458 75.93 125.05 74.7551C124.93 74.626 124.823 74.4829 124.733 74.3233C124.542 74.0816 124.383 73.8207 124.261 73.5456C123.387 75.2207 122.554 77.0174 121.43 78.4871C120.811 79.2973 120.039 79.5891 119.22 79.5872C118.875 79.7616 118.488 79.8201 118.116 79.7762L118.155 80.2245C118.189 80.5984 118.229 80.9719 118.287 81.3385C119.078 81.3256 119.906 81.5426 120.643 81.8345C122.808 82.6907 124.894 83.8764 126.982 84.9042C127.99 85.4004 129.376 85.8164 130.2 86.5914C130.831 87.1859 130.759 87.9222 130.519 88.6882C130.478 88.8188 130.433 88.9484 130.39 89.0783L130.387 89.1208C129.714 89.9694 129.253 90.982 128.918 92.0273C128.371 92.9572 127.99 94.0009 127.73 95.0236C127.52 95.8546 127.37 96.7025 127.273 97.5585L127.247 97.7921L127.233 97.8196L127.226 98.0214C127.088 99.5285 127.104 101.055 127.23 102.55C127.265 102.966 127.308 103.383 127.362 103.798C127.127 104.534 126.01 104.637 125.431 104.185C124.793 103.688 124.124 103.236 123.428 102.828C122.481 103.26 121.384 103.333 120.325 102.979C120.25 102.954 120.178 102.924 120.105 102.895C119.311 102.994 118.526 103.179 117.773 103.398L117.548 103.465C116.348 103.826 115.204 104.278 114.301 105.195C112.696 106.825 112.179 109.459 112.507 111.664C112.825 113.809 114.069 116.261 116.311 116.885C117.229 117.14 118.218 117.133 119.11 116.776C119.449 116.641 119.74 116.444 120.026 116.229C120.377 115.964 120.654 115.667 121.071 115.499C121.451 115.346 122.108 115.358 122.294 115.349C122.874 115.321 123.365 115.775 123.536 116.295C124.056 117.88 123.274 119.045 122.018 119.824C122.547 120.624 123.042 121.46 123.565 122.216C124.542 123.629 125.575 124.994 126.644 126.337C127.742 127.717 128.913 129.03 130.188 130.247C130.764 130.797 131.358 131.328 131.969 131.839L132.306 132.118C132.877 132.594 133.375 133.079 133.355 133.911C133.345 134.376 133.036 134.809 132.578 134.933C130.958 135.371 129.261 133.247 128.206 132.158L128.123 132.073C126.846 130.781 125.659 129.393 124.585 127.927C123.478 126.417 122.572 124.748 121.841 123.027C121.501 122.227 121.133 121.313 120.872 120.388C119.465 120.934 117.831 121.129 116.712 121.001C115.679 120.883 114.737 120.586 113.886 120.153C113.712 120.543 113.478 120.906 113.193 121.208C112.139 122.328 110.604 122.647 109.117 122.633C107.213 122.616 105.505 121.415 105.435 119.388C105.391 118.075 106.071 116.948 107.064 116.179C107.432 115.27 108.131 114.521 109.144 114.277C108.474 112.204 108.356 109.92 108.859 107.827C109.358 105.755 110.496 103.792 112.179 102.499L112.275 102.427L112.234 102.448C111.837 102.667 111.449 102.904 111.056 103.13L110.879 103.231C109.132 104.218 107.108 105.066 105.074 104.538C101.845 103.7 101.566 99.6716 104.344 98.0816C105.304 97.5321 106.413 97.3248 107.508 97.1874C107.681 96.9617 107.887 96.7601 108.114 96.5969C108.148 95.8565 108.52 95.1164 109.179 94.6514C109.85 94.1772 110.604 94.1302 111.307 94.3479C111.568 94.1514 111.852 93.9793 112.164 93.8449C112.435 93.7278 112.71 93.6429 112.985 93.5841C112.98 93.363 112.977 93.142 112.974 92.9207C112.93 92.7146 112.903 92.4986 112.876 92.2739C112.826 92.2655 112.776 92.2575 112.727 92.2469C112.012 92.0905 111.365 91.7695 110.803 91.3366C109.903 91.9054 108.811 92.1205 107.512 91.7359C106.306 91.3787 105.17 90.2564 104.608 88.9669C103.838 88.812 103.09 88.5869 102.436 88.16C101.223 88.4483 99.9169 87.9821 99.4255 86.7266C99.0611 85.7959 99.4992 84.6706 100.281 84.0936C100.508 83.9256 100.754 83.9571 100.95 84.0871C100.996 83.936 101.05 83.7863 101.117 83.6401C101.144 83.5811 101.173 83.5236 101.203 83.4664C101.174 82.2333 101.621 81.0413 102.74 80.3798C103.57 79.8888 104.561 79.8354 105.453 80.119C105.944 79.6618 106.565 79.3127 107.336 79.121C108.692 78.7837 110.12 79.1683 111.086 80.186C111.295 80.1245 111.511 80.0807 111.732 80.053C111.813 79.4854 112.006 78.9394 112.409 78.5134C112.698 78.2075 113.044 77.9641 113.419 77.7933C113.59 77.1501 113.87 76.5744 114.34 76.0925C114.11 75.8987 113.902 75.6806 113.724 75.438C113.527 75.405 113.331 75.3625 113.14 75.3013C112.119 74.9734 111.416 74.3301 110.939 73.5282C110.055 73.7546 109.119 73.6717 108.199 73.0945C107.534 72.6771 107.033 72.0097 106.769 71.264L106.013 70.9992C105.301 70.7473 104.791 70.2768 104.499 69.717C104.128 69.8503 103.72 69.8455 103.387 69.5885C101.437 68.0828 102.769 65.588 104.856 65.0926C105.705 64.8912 106.446 65.006 107.106 65.313C107.575 64.861 108.163 64.5215 108.836 64.3685C109.621 64.1901 110.449 64.321 111.174 64.6676L111.361 64.665C112.091 64.1229 113.027 63.8801 114.172 64.142C115.467 64.4385 116.351 65.164 116.949 66.109C117.142 65.9351 117.359 65.7818 117.595 65.6531C118.265 65.2883 118.981 65.1983 119.666 65.3124C119.897 64.9836 120.134 64.6591 120.377 64.3404C119.798 63.8879 119.402 63.186 119.381 62.4072C119.206 62.2981 119.037 62.1741 118.875 62.0599C118.082 61.5013 117.41 60.8009 117.104 59.8594C116.952 59.3897 116.896 58.9003 116.914 58.4095C116.828 58.3909 116.744 58.371 116.659 58.3469C113.29 57.3773 111.893 52.7312 114.556 50.2376C115.954 48.9281 118.08 49.6697 119.464 50.6367C120.407 51.2961 121.156 52.1159 121.836 53.0218C121.867 53.0283 121.898 53.0304 121.931 53.0382C122.906 53.2688 123.681 53.8946 124.254 54.6948C125.266 54.519 126.344 54.7145 127.304 55.4172C128.003 55.9295 128.443 56.5636 128.671 57.2526C129.581 56.7779 130.516 56.3617 131.473 55.9942C131.535 55.8435 131.601 55.6926 131.677 55.5427C131.824 55.2517 132.016 54.9987 132.24 54.7848C131.997 54.5126 131.781 54.2085 131.608 53.8701C130.784 52.2651 131.082 50.6407 131.992 49.4117C131.594 48.5156 131.471 47.4994 131.707 46.5327C131.751 46.3532 131.806 46.1808 131.87 46.0149C131.318 45.154 130.964 44.1632 130.873 43.1346ZM116.097 108.059C116.682 107.917 116.819 107.731 117.476 107.784C117.984 107.826 118.504 107.913 118.998 108.041C120.174 108.345 121.272 108.961 122.239 109.687C123.61 110.715 121.969 112.627 120.876 111.53L120.843 111.496C120.11 110.709 119.286 110.094 118.363 109.546C117.896 109.268 117.413 109.067 116.925 108.834C116.587 108.672 116.392 108.408 116.074 108.24C115.999 108.201 116.016 108.079 116.097 108.059ZM119.242 92.5679C118.919 92.454 118.548 92.6973 118.462 93.0107C118.369 93.3484 118.566 93.6539 118.871 93.7776L118.905 93.7906C119.318 93.9366 119.696 94.1792 120.017 94.4762L120.085 94.5407C120.671 95.1096 121.568 94.2139 120.982 93.6439C120.484 93.1606 119.895 92.7983 119.242 92.5679ZM134.406 69.4857C134.072 68.7557 133.008 69.3686 133.297 70.0917L133.311 70.1257C133.612 70.7831 133.489 71.5461 133.161 72.1654L133.129 72.2248C132.73 72.9379 133.825 73.5781 134.223 72.8648C134.815 71.8064 134.913 70.5945 134.406 69.4857ZM143.611 60.3974L143.596 60.3243C143.446 59.5231 142.225 59.8623 142.374 60.6612C142.623 61.9896 143.588 62.8622 144.825 63.2955C145.596 63.5656 145.928 62.341 145.162 62.0726C144.342 61.7856 143.794 61.2416 143.611 60.3974ZM163.586 59.1144L163.371 59.1051L163.535 59.3215C163.551 59.2519 163.568 59.1828 163.586 59.1144Z" fill="black"/>
<path fill-rule="evenodd" clip-rule="evenodd" d="M163.285 120.836C165.254 120.13 167.344 120.396 169.331 121.129L169.509 121.196C171.334 121.892 173.564 123.101 174.311 124.989C174.459 125.363 174.528 125.746 174.538 126.127C174.782 126.151 175.023 126.183 175.263 126.225C175.757 126.312 175.733 127.096 175.263 127.199C174.965 127.265 174.662 127.312 174.356 127.348C174.073 128.229 173.487 129.028 172.747 129.588C171.015 130.9 168.628 131.147 166.534 131.348C164.219 131.569 161.893 131.515 159.586 131.235L158.774 131.131C156.885 130.885 154.779 130.57 153.173 129.559C151.661 128.607 150.628 126.771 151.267 124.987C151.923 123.16 154.168 122.384 155.835 121.798C158.23 120.955 160.779 120.625 163.285 120.836ZM159.943 126.959C159.966 127.492 159.986 128.027 160.008 128.561C160.014 128.725 159.967 128.873 159.887 129.001C161.032 129.135 162.188 129.199 163.34 129.198C163.129 128.561 163.118 127.829 163.106 127.149C162.051 127.097 160.997 127.036 159.943 126.959ZM164.184 127.199L164.276 127.544C164.419 128.085 164.548 128.641 164.529 129.175C165.066 129.154 165.602 129.122 166.134 129.076L166.814 129.018C166.968 129.005 167.125 128.991 167.282 128.976C167.317 128.423 167.382 127.862 167.44 127.309C166.354 127.28 165.269 127.244 164.184 127.199ZM168.49 127.333C168.54 127.822 168.586 128.322 168.605 128.817C169.477 128.681 170.333 128.469 171.063 128.096C171.431 127.908 171.726 127.68 171.945 127.428C171.207 127.411 170.471 127.373 169.757 127.362C169.616 127.359 169.476 127.357 169.335 127.353L168.49 127.333ZM153.341 126.208C153.398 127.229 155.01 127.957 155.841 128.196C156.633 128.425 157.439 128.611 158.253 128.758C158.238 128.69 158.23 128.623 158.236 128.561C158.287 127.985 158.338 127.41 158.393 126.835L157.956 126.8C156.419 126.682 154.822 126.587 153.341 126.208ZM163.402 122.321C163.531 123.6 163.71 124.871 163.949 126.133L164.386 126.142C165.435 126.159 166.485 126.166 167.535 126.167C167.537 126.115 167.54 126.064 167.542 126.013C167.581 124.945 167.566 123.877 167.527 122.81C166.194 122.516 164.798 122.42 163.402 122.321ZM168.075 122.944C168.192 124.016 168.289 125.089 168.378 126.164L169.297 126.163C169.451 126.162 169.604 126.162 169.757 126.16C170.618 126.152 171.503 126.096 172.387 126.072C172.322 125.611 172.05 125.141 171.549 124.714C170.489 123.81 169.314 123.277 168.075 122.944ZM162.582 122.076C161.569 122.185 160.563 122.363 159.572 122.612C159.831 123.362 159.782 124.221 159.836 125.005C159.861 125.35 159.881 125.696 159.899 126.041C160.959 126.067 162.019 126.092 163.079 126.114C163.045 124.843 163.067 123.573 163.139 122.303L163.023 122.294C162.852 122.282 162.698 122.197 162.582 122.076ZM158.901 122.792C158.437 122.924 157.978 123.072 157.522 123.236L157.026 123.416C155.829 123.852 154.245 124.484 153.577 125.46C153.465 125.624 153.398 125.783 153.364 125.936C155.043 125.781 156.783 125.937 158.476 126.001C158.499 125.78 158.523 125.558 158.548 125.337L158.587 125.005C158.673 124.288 158.673 123.492 158.901 122.792ZM167.284 107.444C168.88 108.414 171.311 110.676 169.594 113.081C167.574 115.201 164.666 112.77 163.232 111.67C161.903 110.818 160.41 113.01 161.643 114.005C172 121.676 176.203 107.697 168.091 106.303C167.198 106.149 166.866 107.144 167.284 107.444ZM147.73 95.6811C149.997 91.7394 155.606 91.694 158.815 94.704C161.879 97.5782 162.258 102.482 159.811 105.843C157.203 109.425 152.136 110.416 148.028 109.14C144.176 107.943 142.106 103.762 143.426 99.9324C144.14 97.8607 145.784 96.4284 147.73 95.6811ZM145.617 89.079C147.533 87.3823 151.015 85.7437 153.599 86.5787C155.084 87.0587 155.732 89.4531 154.073 90.212C152.153 91.0908 149.939 90.7332 147.985 91.6441C147.164 92.0269 146.392 92.5052 145.821 93.2067C145.37 93.7596 144.912 94.487 144.261 94.8057C144.09 94.8896 143.858 94.8918 143.721 94.7362C142.294 93.1211 144.371 90.1824 145.617 89.079ZM172.986 86.4945C174.17 86.162 175.484 86.1688 176.687 86.3776C177.889 86.5864 179.11 87.085 180.092 87.8123L180.206 87.8974C181.278 88.7054 182.557 89.8809 182.488 91.3122C182.431 92.5074 181.174 93.3158 180.089 92.6894C179.204 92.1785 178.788 91.1552 178.039 90.4738C177.421 89.9114 176.695 89.468 175.921 89.1573C175.061 88.8122 174.199 88.6505 173.276 88.635C172.565 88.6232 171.849 88.8565 171.152 88.9311C171.209 89.0491 170.658 88.9941 170.342 88.8895C170.108 88.7898 170.107 88.4937 170.188 88.3015C170.59 87.3498 172.054 86.7557 172.986 86.4945ZM174.275 93.1825C176.259 92.7885 178.464 93.2199 180.124 94.3831C183.101 96.469 184.436 100.783 183.053 104.156C181.68 107.505 177.928 109.635 174.35 108.995C170.697 108.342 167.872 104.663 168.266 100.955C168.433 99.3773 169.121 97.955 170.139 96.8798C170.147 96.8428 170.156 96.8054 170.17 96.767C170.886 94.8612 172.243 93.5863 174.275 93.1825ZM156.124 96.2131C153.85 94.8435 150.506 95.6082 148.552 97.2616C148.164 97.59 147.727 97.4938 147.489 97.2072C146.163 98.2779 145.227 99.7758 145.076 101.6C144.807 104.871 147.136 107.023 150.273 107.27C153.48 107.523 156.799 106.628 158.309 103.554C159.613 100.901 158.656 97.7375 156.124 96.2131ZM177.654 96.3546C175.873 95.6561 173.319 96.0689 171.764 97.2643C170.581 98.7911 170.005 100.886 170.46 102.602C171.117 105.08 173.494 107.01 176.105 106.735C178.521 106.481 180.705 104.546 180.964 102.089C181.214 99.7261 179.917 97.2423 177.654 96.3546ZM176.143 100.063C176.549 99.7731 177.033 100.099 177.182 100.485L177.267 100.66C177.312 100.754 177.358 100.851 177.36 100.854L177.376 100.901C177.397 100.941 177.423 100.979 177.447 101.017C177.466 101.03 177.624 101.228 177.645 101.254C177.9 101.568 178.035 101.856 178.027 102.27C178.012 103.088 177.249 103.664 176.457 103.466C175.606 103.253 175.244 102.372 175.322 101.564C175.383 100.924 175.616 100.439 176.143 100.063ZM153.039 100.219C153.415 99.8773 153.994 99.8486 154.365 100.219C154.568 100.422 154.65 100.649 154.796 100.885L154.866 100.994C155.018 101.227 155.176 101.451 155.217 101.738C155.314 102.412 155.105 103.039 154.441 103.319C153.781 103.598 153.17 103.313 152.768 102.771C152.292 102.128 152.436 100.767 153.039 100.219Z" fill="black"/>
</svg>
