<svg width="240" height="324" viewBox="0 0 240 324" fill="none" xmlns="http://www.w3.org/2000/svg">
<path fill-rule="evenodd" clip-rule="evenodd" d="M44.6256 211.468C44.9825 210.445 46.6147 210.888 46.2553 211.917C44.408 217.21 45.7185 222.971 47.7156 228.024C48.1164 229.038 46.4812 229.473 46.0859 228.473C43.9851 223.158 42.6853 217.027 44.6256 211.468ZM57.012 241.704C62.2219 242.437 67.436 242.889 72.6818 243.255C72.9163 243.272 73.1191 243.236 73.2944 243.16C73.1381 245.563 73.0113 247.968 72.912 250.373C71.4818 250.333 70.0219 250.428 68.6043 250.39C66.7515 250.339 64.9008 250.246 63.0522 250.105C59.4733 249.834 55.9008 249.403 52.362 248.807C51.0395 248.585 49.3599 248.45 47.8536 248.01C46.4296 247.594 45.162 246.905 44.4965 245.607C43.9303 244.508 43.8268 243.162 43.8268 241.947C43.8268 241.11 43.9705 240.26 44.0571 239.417C44.1649 239.341 44.262 239.25 44.3402 239.149C45.912 239.645 47.543 239.994 49.1402 240.332C51.7409 240.886 54.3796 241.334 57.012 241.704ZM54.0737 222.162C54.1025 223.777 54.5493 225.244 55.4187 226.604C56.0068 227.525 54.5434 228.372 53.9592 227.458C52.9358 225.857 52.4174 224.059 52.3836 222.162C52.3642 221.071 54.0543 221.075 54.0737 222.162ZM187.622 239.784C188.327 239.824 189.037 239.848 189.745 239.886C190.369 240.42 191.233 240.693 192.022 240.523C192.049 240.592 192.074 240.668 192.097 240.757C192.236 241.3 192.306 241.883 192.386 242.437C192.466 242.982 192.528 243.532 192.57 244.081C192.591 244.358 192.724 244.984 192.555 245.225C192.403 245.442 192.067 245.423 191.835 245.451C191.209 245.518 190.575 245.55 189.946 245.603C188.756 245.707 187.567 245.81 186.38 245.914C185.216 246.015 183.937 245.984 182.799 246.29C182.604 244.005 182.427 241.721 182.262 239.434C184.026 239.694 185.87 239.687 187.622 239.784ZM39.7092 235.995C40.4191 237.367 41.074 238.715 42.4325 239.539C42.6099 239.645 42.8085 239.702 43.0113 239.717C42.8592 240.37 42.7641 241.038 42.6796 241.655C42.4937 243.014 42.4536 244.419 42.7937 245.759C43.1254 247.063 43.6747 248.228 44.7522 249.063C45.2529 249.452 45.8001 249.748 46.3747 249.982C46.2775 250.255 46.2205 250.526 46.2501 250.824C46.1127 251.514 46.0219 252.218 45.9226 252.892C45.705 254.389 45.4874 255.887 45.3163 257.392C44.974 260.385 44.7057 263.378 44.4796 266.381C44.2536 269.376 44.0909 272.375 43.9557 275.376C43.886 276.91 43.8247 278.445 43.7677 279.981C43.7106 281.56 43.455 283.175 44.1522 284.64C44.7142 285.823 46.6134 285.755 47.1965 284.64C47.936 283.221 47.7184 281.537 47.7374 279.981C47.7564 278.517 47.7818 277.05 47.8134 275.585C47.8768 272.586 47.9698 269.589 48.0437 266.59C48.1156 263.663 48.2043 260.738 48.2634 257.811C48.293 256.278 48.2951 254.746 48.3036 253.214C48.3078 252.364 48.3437 251.458 48.2803 250.572C48.8085 250.696 49.3409 250.802 49.867 250.91C53.8832 251.734 57.9416 252.334 62.0254 252.706C64.0768 252.892 66.1346 253.023 68.1923 253.098C69.705 253.152 71.2726 253.258 72.8085 253.201C72.6881 256.87 72.6332 260.541 72.6395 264.213C72.6437 266.861 72.6796 269.509 72.7451 272.157C72.7811 273.55 72.8106 274.943 72.8529 276.335C72.8719 276.961 72.8719 277.593 72.9142 278.216C72.9268 278.411 72.9543 278.599 72.9902 278.785C72.8508 279.18 72.7346 279.571 72.6395 279.937C72.1747 281.712 72.1747 283.418 72.3818 285.227C72.5592 286.761 73.8501 288.184 75.555 287.645C75.8318 287.558 76.1085 287.467 76.3832 287.374C78.893 287.66 81.4177 287.725 83.9635 287.774C87.6839 287.846 91.4064 287.869 95.1289 287.888C102.43 287.926 109.734 287.945 117.037 287.966C131.714 288.008 146.391 288.048 161.068 288.091C165.141 288.104 169.214 288.114 173.287 288.127C175.396 288.133 177.5 288.135 179.606 288.216C180.589 288.254 181.573 288.306 182.556 288.321C183.694 288.34 184.702 288.012 185.79 287.715C186.405 287.543 186.648 286.926 186.517 286.404C187.501 286.639 188.695 286.14 189.031 285.031C189.276 284.225 189.185 283.352 188.82 282.606V282.604C188.114 278.147 187.218 273.71 186.515 269.251C185.744 264.367 185.002 259.472 184.349 254.569C183.859 250.866 183.456 253.491 183.107 249.771C184.626 249.889 186.344 249.426 187.848 249.23C188.928 249.09 190.016 248.978 191.097 248.83C191.017 249.921 191.04 251.033 191.011 252.079C190.954 254.156 190.979 256.225 191.032 258.303C191.133 262.312 191.359 259.979 191.721 263.971C192.086 267.993 192.534 272.001 193.077 276.004C193.356 278.064 193.654 280.123 193.968 282.179C194.114 283.139 194.264 284.096 194.418 285.056C194.602 286.186 194.661 287.258 195.509 288.108C196.153 288.752 197.469 288.697 197.896 287.799C198.437 286.664 198.192 285.692 197.991 284.5C197.828 283.542 197.672 282.585 197.518 281.628C197.188 279.575 196.875 277.521 196.582 275.465C196.016 271.502 195.481 267.533 195.004 263.559C194.522 259.554 194.023 261.894 193.55 257.889C193.311 255.868 193.073 253.852 192.794 251.838C192.652 250.802 192.563 249.699 192.378 248.632C192.437 248.623 192.496 248.613 192.555 248.602C193.84 248.367 194.936 247.642 195.259 246.319C195.568 245.053 195.2 243.597 194.94 242.355C194.718 241.296 194.518 239.945 193.837 239.038C196.237 235.98 197.798 232.132 198.794 228.432C199.878 224.401 200.332 220.194 200.428 216.029C200.54 211.203 200.176 206.406 199.35 201.687C199.33 200.687 199.284 199.688 199.21 198.69C198.483 188.892 195.432 177.295 185.761 172.717C185.723 172.698 185.682 172.681 185.642 172.664C184.884 171.757 183.937 170.941 183.173 170.179C181.818 168.826 180.403 167.532 178.903 166.34C175.932 163.98 172.675 162.094 169.288 160.397C165.863 158.679 162.388 157.066 159.042 155.192C156.126 153.556 153.502 151.586 151.011 149.362C148.212 146.862 146.22 143.491 145.438 139.812C145.398 139.619 145.113 139.672 145.109 139.856C144.904 146.6 149.454 152.56 154.692 156.331C160.954 160.835 168.515 162.967 174.866 167.334C176.444 168.418 177.921 169.642 179.325 170.941C177.173 170.722 174.982 170.861 172.964 171.457C172.17 171.408 171.371 171.394 170.575 171.356C168.754 171.265 166.93 171.18 165.107 171.1C161.391 170.935 157.673 170.785 153.954 170.654C146.659 170.396 139.362 170.202 132.065 170.073C117.401 169.813 102.718 169.762 88.0557 170.187C84.0796 170.301 63.1726 169.509 61.2374 169.732C64.0832 167.268 67.2057 165.256 70.6388 163.601C74.9339 161.536 79.3726 160.158 83.9592 158.899C93.405 156.305 103.214 153.805 110.773 147.217C112.651 145.579 114.32 143.696 115.687 141.61C116.993 139.619 118.444 137.07 118.48 134.642C118.506 132.918 116.106 132.29 115.252 133.767C114.722 134.682 114.46 135.686 114.027 136.646C113.596 137.597 113.085 138.514 112.516 139.391C111.399 141.116 110.013 142.654 108.504 144.043C105.289 147.006 101.393 149.177 97.362 150.819C88.2099 154.545 78.2001 156.117 69.5275 161.029C65.7332 163.178 62.1015 166.144 59.8219 169.927C59.4543 169.984 59.0888 170.052 58.7233 170.128C58.9958 169.783 59.2705 169.439 59.5473 169.096C59.7289 168.872 59.448 168.577 59.2261 168.775C54.9142 172.613 50.9423 176.758 47.3423 181.276C43.8987 185.601 40.6874 190.132 38.4141 195.196C34.3282 204.293 33.4282 214.697 35.5388 224.424C36.1134 227.074 36.9247 229.669 37.9578 232.178C38.4902 233.474 39.067 234.75 39.7092 235.995Z" fill="black"/>
<path fill-rule="evenodd" clip-rule="evenodd" d="M162.428 83.5493C162.348 83.0905 162.98 82.7483 163.224 83.2133C165 86.5908 165.711 90.5025 166.34 94.2333C166.975 98.0033 167.395 101.789 167.418 105.616C167.436 108.56 167.169 111.538 166.667 114.484L166.728 114.694C166.841 115.079 166.955 115.464 167.07 115.848L167.243 116.425C167.578 117.532 167.895 118.644 168.239 119.748C168.958 122.053 169.714 124.364 170.641 126.595C171.545 128.771 172.645 130.87 173.952 132.832C175.212 134.723 177.211 136.322 178.099 138.422C178.408 139.154 177.951 140.122 177.096 140.005C177.041 140.072 176.956 140.121 176.841 140.131C176.178 140.189 175.556 140.133 174.894 140.071C174.524 140.037 174.525 139.531 174.894 139.497C175.175 139.47 175.449 139.447 175.723 139.431C173.83 138.309 172.479 136.118 171.399 134.324C170.012 132.02 168.964 129.502 168.109 126.955C167.232 124.341 166.611 121.672 166.111 118.962C166.054 118.65 166 118.338 165.947 118.025C165.316 120.708 164.504 123.342 163.541 125.873L163.406 126.225C161.187 131.981 158.181 137.792 153.181 141.596C152.954 141.769 152.723 141.933 152.489 142.093L152.773 142.256C153.057 142.418 153.335 142.573 153.608 142.7C154.618 143.172 155.715 143.531 156.8 143.786C159.041 144.312 161.394 144.161 163.68 144.235C164.429 144.259 164.856 145.383 164.089 145.749C161.565 146.951 158.838 146.696 156.231 145.85C154.942 145.431 153.732 144.844 152.612 144.079C152.149 143.762 151.612 143.372 151.158 142.92C146.158 145.719 139.943 146.032 134.378 145.031C131.486 144.511 128.684 143.561 126.218 141.936C123.846 140.373 122.156 138.394 120.949 135.831C120.842 135.604 121.139 135.321 121.322 135.543C125.113 140.149 131.638 142.071 137.377 142.437C140.44 142.632 143.573 142.47 146.517 141.553C149.31 140.683 151.707 139.089 153.708 136.968C157.764 132.67 160.195 126.823 161.94 121.258C163.839 115.204 164.743 108.835 164.93 102.5C165.024 99.29 164.905 96.0532 164.401 92.8789C163.901 89.7309 162.974 86.684 162.428 83.5493ZM105.586 56.2786C105.854 56.1421 106.044 56.4974 105.816 56.6722C101.088 60.2991 96.8544 64.8981 93.4277 69.7657C87.108 78.7433 83.0551 89.132 81.1887 99.9269C80.0868 106.302 79.799 112.773 79.9091 119.233C79.9527 121.799 80.0992 124.358 80.2622 126.917L80.4461 129.754C80.5316 131.075 80.6029 132.386 80.5478 133.714L80.5328 134.02C80.4453 135.566 80.5972 137.124 80.2097 138.631C80.0109 139.404 78.921 139.526 78.5263 138.851C78.449 138.719 78.3768 138.583 78.3066 138.445C77.3817 139.954 76.1838 141.303 74.8547 142.508C75.49 142.373 76.1314 142.287 76.7899 142.366C77.8338 142.491 78.7701 142.894 79.4327 143.601C80.0904 143.304 80.7666 143.1 81.5443 143.096C82.117 143.093 82.5466 143.77 82.2197 144.274C81.5677 145.278 80.658 145.841 79.6243 146.398C78.8917 146.792 78.0174 146.455 77.7468 145.675L77.7313 145.627C77.4269 144.641 75.8078 144.8 75.0438 144.953L74.819 144.999C73.397 145.295 72.0083 145.674 70.5597 145.283C69.6252 145.031 69.381 143.624 70.2818 143.156C73.1276 141.681 75.5166 139.7 77.9718 137.71C77.4297 136.38 77.1218 134.895 76.7669 133.543C76.2673 131.64 76.1213 129.592 75.9408 127.637C75.598 123.921 75.4672 120.164 75.5039 116.433C75.6284 103.83 77.7829 91.1888 83.2862 79.777C85.6972 74.7779 88.8645 70.1521 92.6084 66.0576C96.3301 61.9872 100.677 58.773 105.586 56.2786ZM101.18 117.996C101.034 117.793 101.319 117.526 101.519 117.657C105.846 120.5 108.849 124.818 110.786 129.56C112.704 134.256 113.882 140.008 111.99 144.904C111.689 145.684 110.247 145.974 110.099 144.904C109.44 140.128 109.338 135.346 107.888 130.703C106.45 126.1 103.991 121.886 101.18 117.996ZM97.8249 133.5C97.8486 133.415 97.9863 133.43 97.9804 133.521C97.872 135.205 97.7985 136.91 97.5868 138.584C97.4839 139.398 97.3479 140.207 97.2321 141.019C97.1133 141.852 97.1313 142.692 96.6473 143.403C96.0059 144.346 94.3018 144.081 94.3591 142.784C94.3986 141.889 94.8097 141.314 95.1948 140.528C95.4419 140.025 95.6572 139.504 95.8647 138.981L96.1732 138.197C96.7863 136.641 97.373 135.111 97.8249 133.5ZM90.0767 129.039C90.1029 128.906 90.3165 128.938 90.3102 129.07C90.1946 131.454 89.9259 133.811 89.505 136.159C89.3131 137.23 89.0894 138.295 88.8527 139.356L88.7506 139.811C88.4975 140.929 88.3342 142.243 87.7671 143.242C87.2005 144.24 85.8552 143.515 86.0294 142.509C86.2331 141.334 86.9537 140.153 87.3727 139.025C87.7593 137.983 88.0973 136.923 88.4132 135.858C89.078 133.616 89.6233 131.333 90.0767 129.039ZM104.505 135.656L104.556 135.604C104.753 135.39 105.046 135.533 105.14 135.759C105.525 136.685 105.333 137.777 105.305 138.76L105.3 138.974C105.28 139.97 105.294 140.903 104.843 141.822C104.295 142.938 102.851 142.245 102.739 141.252C102.617 140.168 103.129 139.107 103.46 138.092C103.67 137.447 103.823 136.777 104.143 136.191C103.869 136.238 103.596 136.333 103.347 136.401C103.235 136.431 103.192 136.267 103.299 136.229C103.712 136.082 104.179 135.972 104.505 135.656ZM162.109 138.942C161.977 138.794 162.142 138.598 162.313 138.677C164.371 139.639 166.296 140.264 168.566 140.469C169.55 140.558 169.556 142.104 168.566 142.014C166.197 141.801 163.713 140.738 162.109 138.942ZM89.7133 106.459C91.5249 102.382 97.2562 98.7657 101.099 102.557C101.171 102.628 101.098 102.782 100.993 102.739C98.603 101.748 95.6765 103.008 94.0221 104.811C92.7095 106.241 91.9208 108.077 91.7643 110.013C91.6077 111.95 92.0706 113.972 93.3566 115.47C94.0312 116.256 94.9422 117 96.0141 117.094C97.0964 117.19 97.9986 116.427 99.0217 116.22C99.7931 116.064 100.375 116.548 100.451 117.309C100.618 118.988 98.9469 120.114 97.4987 120.388C95.9408 120.682 94.3508 120.361 93.0084 119.516C88.6728 116.788 87.7375 110.905 89.7133 106.459ZM130.392 66.5005C131.18 65.7472 132.52 66.4961 132.229 67.5706C131.611 69.8574 130.297 71.7902 128.841 73.6247C127.441 75.3897 125.94 77.0858 124.332 78.6643C122.735 80.2326 120.999 81.6837 119.175 82.9799L118.625 83.3692C117.332 84.281 115.963 85.2031 114.516 85.8598C114.166 88.8715 113.482 91.8431 112.448 94.6881C111.452 97.4276 110.184 100.075 108.648 102.553L108.428 102.908C107.016 105.17 105.319 107.699 102.924 108.94C102.852 108.977 102.78 109 102.709 109.013C103.245 109.371 103.698 109.82 103.967 110.466C104.262 111.173 103.646 111.841 103.055 112.074C101.805 112.568 100.586 111.732 99.4627 110.84C99.4152 110.947 99.3704 111.055 99.3319 111.164C99.0807 111.876 99.0068 112.604 98.359 113.077C98.0512 113.301 97.672 113.1 97.4783 112.846C96.8432 112.011 97.5007 110.874 98.059 110.191C98.1364 110.097 98.2162 110.008 98.2984 109.922C98.0624 109.748 97.8321 109.594 97.609 109.476C96.2973 108.781 94.3528 108.658 93.5975 110.196C93.5396 110.314 93.3577 110.253 93.3577 110.131C93.3596 108.242 95.2946 107.215 96.9738 107.076C98.2006 106.974 99.3872 107.404 100.491 107.905L100.698 108C101.108 108.191 101.532 108.371 101.937 108.573C101.871 108.399 101.872 108.194 101.976 107.991C103.246 105.51 105.427 103.493 106.999 101.195C108.559 98.9151 109.898 96.4755 110.967 93.9281C112.004 91.4555 112.817 88.9053 113.385 86.3042C113.198 86.3429 112.987 86.1761 113 85.9806C113.032 85.5076 113.263 85.0816 113.669 84.9C114.117 82.4534 114.345 79.9654 114.332 77.4573C114.331 77.2629 114.612 77.2698 114.629 77.4573C114.827 79.6873 114.843 81.939 114.677 84.1776C115.733 83.205 116.848 82.2803 117.865 81.2819C119.396 79.7796 120.877 78.2372 122.306 76.6375C123.764 75.0054 125.142 73.3134 126.402 71.523L127.061 70.5841C128.075 69.1448 129.117 67.7204 130.392 66.5005ZM128.404 50.4324C137.099 49.8894 146.385 50.9584 154.195 55.0415C158.484 57.2837 161.8 60.6727 164.169 64.8902C165.583 67.4087 166.656 70.1974 167.063 73.0646C167.48 76.0106 166.99 78.6375 165.11 80.9793C164.363 81.9092 163.105 80.8704 163.289 79.9189C164.415 74.0975 162.589 68.3458 159.351 63.5264C154.652 56.5328 146.446 53.4262 138.457 52.0403C134.531 51.3598 130.55 51.0753 126.568 51.2137C123.531 51.3194 120.417 51.6024 117.536 52.6243C117.414 52.6674 117.366 52.478 117.483 52.4334C120.92 51.1203 124.756 50.6602 128.404 50.4324ZM141.299 63.5959C141.747 63.312 142.295 63.6033 142.448 64.0638C142.991 65.6874 141.854 67.8324 141.093 69.2375C140.233 70.8274 139.126 72.3141 137.983 73.7105C135.696 76.5033 132.691 78.8336 129.393 80.2983C129.191 80.3881 128.956 80.1442 129.141 79.9717C131.693 77.5947 134.006 75.0462 136.009 72.1873C136.993 70.7824 137.814 69.3004 138.598 67.7781C139.299 66.4157 139.959 64.4459 141.299 63.5959ZM155.923 65.5085C156.209 64.5092 157.838 64.6794 157.771 65.7587C157.596 68.5471 156.281 71.346 154.853 73.7091C153.381 76.1424 151.518 78.3108 149.383 80.1836C149.277 80.276 149.133 80.1337 149.229 80.0295C151.071 78.0116 152.56 75.7129 153.662 73.2114C154.763 70.7134 155.178 68.1071 155.923 65.5085ZM147.825 65.057C148.137 64.1882 149.628 64.2526 149.537 65.2889C149.285 68.1375 147.614 71.1228 146.066 73.4755C144.424 75.9718 142.328 78.1709 139.985 80.0179C139.897 80.087 139.773 79.9724 139.859 79.8917C141.963 77.9082 143.67 75.6169 145.021 73.0613C145.71 71.7573 146.289 70.3993 146.745 68.9966C147.168 67.6989 147.366 66.3361 147.825 65.057Z" fill="black"/>
<path fill-rule="evenodd" clip-rule="evenodd" d="M133.556 121.88C135.088 121.584 136.994 122.228 138.522 122.511L138.636 122.531C140.489 122.855 142.338 123.247 144.212 123.438C146 123.62 147.827 123.653 149.616 123.448C150.475 123.349 151.326 123.18 152.161 122.955C152.518 122.858 152.872 122.75 153.222 122.631L153.261 122.616C153.518 122.509 154.213 122.109 154.205 122.332C154.401 122.107 154.67 121.947 154.965 121.869C155.382 121.759 155.918 121.862 156.267 122.157C156.721 121.798 157.402 122.056 157.706 122.486C158.228 123.225 158.059 124.091 157.991 124.948L157.985 125.023C157.928 125.831 157.84 126.633 157.732 127.435L157.685 127.779C157.516 128.965 157.47 130.92 156.034 131.309C154.897 131.617 153.858 130.447 153.126 129.519L152.725 129.005C152.25 128.403 151.819 127.783 151.472 127.098C151.313 126.786 151.16 126.466 151.028 126.143C151.011 126.102 150.999 126.066 150.986 126.029C148.88 126.312 146.723 126.272 144.611 125.993C143.273 125.817 141.956 125.562 140.658 125.22L140.073 126.278C139.388 127.513 138.693 128.743 137.963 129.95L137.906 130.042C137.222 131.13 136.077 132.22 134.724 131.405C133.513 130.675 133.461 129.016 133.333 127.777C133.248 126.95 133.179 126.117 133.146 125.286L133.134 124.929C133.112 124.123 132.981 123.188 133.291 122.434C133.336 122.324 133.494 122.239 133.589 122.355C134.236 123.142 134.432 124.363 134.712 125.329C135.023 126.405 135.474 127.579 135.636 128.695L135.682 128.616C135.841 128.313 136.004 128.012 136.167 127.711L136.657 126.808C137.097 125.993 137.544 125.183 137.996 124.375C137.48 124.181 136.969 123.973 136.46 123.762L135.305 123.278C134.646 123 133.973 122.685 133.477 122.178C133.389 122.088 133.42 121.906 133.556 121.88ZM155.468 124.857C154.33 125.32 153.152 125.654 151.954 125.876C152.031 125.955 152.108 126.034 152.18 126.117C152.462 126.444 152.761 126.757 153.062 127.068L153.243 127.253C153.704 127.727 154.397 128.506 155.103 128.959L155.142 128.754C155.148 128.719 155.153 128.688 155.155 128.665L155.231 127.992C155.243 127.88 155.255 127.768 155.266 127.656C155.327 127.05 155.375 126.442 155.426 125.835C155.452 125.515 155.459 125.186 155.468 124.857ZM141.999 85.7855C144.71 84.6273 147.927 85.1741 150.262 86.9236C152.651 88.7139 153.695 91.6246 153.834 94.5286C155.723 92.9147 158.444 94.1363 160.035 95.6485C161.871 97.3937 162.8 100.027 162.372 102.527C161.946 105.018 160.144 107.215 157.706 107.956C156.539 108.311 155.24 108.319 154.066 107.989C153.668 107.877 153.179 107.703 152.728 107.461C152.754 107.564 152.78 107.668 152.805 107.772C153.39 110.251 153.722 113.037 152.844 115.488C151.432 119.428 146.417 121.633 143.286 118.136C142.057 116.764 141.101 114.614 141.175 112.742C141.215 111.759 141.771 110.621 142.921 110.688C143.813 110.739 144.235 111.486 144.007 112.276L143.993 112.321C143.51 113.831 144.335 116.013 145.531 117.043C147.364 118.623 149.88 117.248 150.883 115.396C152.051 113.238 151.909 110.47 151.535 108.122C151.168 105.816 150.351 103.707 149.483 101.573C149.39 101.59 149.297 101.605 149.202 101.618C147.475 101.853 143.962 101.941 142.055 100.69C142.26 102.621 141.858 104.609 140.761 106.244C139.539 108.066 137.698 109.031 135.555 109.326C133.474 109.614 131.062 109.672 129.008 109.179C124.632 108.128 123.09 102.725 124.413 98.8239C125.196 96.5166 127.38 94.4413 129.807 93.9172C131.058 93.0942 132.737 92.8505 134.181 92.9627C136.337 93.1307 138.46 94.0626 139.904 95.6991C140.455 96.3242 140.909 97.032 141.258 97.7895C141.376 97.6969 141.513 97.6274 141.668 97.5911C141.909 97.5344 142.12 97.5217 142.356 97.605C142.474 97.6466 142.644 97.7937 142.746 97.8893L142.979 98.1632C143.265 98.4964 143.537 98.7759 144.045 98.983C145.464 99.5606 147.388 99.686 148.895 99.5678C152.74 99.2669 152.255 94.1718 151.308 91.5543C150.186 88.4533 146.971 86.5243 143.7 87.0751C142.294 87.3116 140.953 88.06 139.924 89.0379C138.776 90.1298 138.284 91.4486 137.595 92.8306C137.554 92.9124 137.414 92.8946 137.396 92.8044C136.83 89.8903 139.515 86.8473 141.999 85.7855ZM121.52 109.28C121.403 109.143 121.557 108.901 121.724 109.015C122.949 109.848 124.312 110.449 125.794 110.612C126.49 110.688 127.191 110.693 127.884 110.586C128.475 110.495 129.007 110.315 129.597 110.478C129.91 110.564 129.967 110.928 129.776 111.157C128.885 112.217 126.693 111.934 125.498 111.65C123.952 111.282 122.55 110.491 121.52 109.28ZM162.762 107.344C163.364 106.971 164.08 107.709 163.724 108.306C162.81 109.837 160.163 109.961 158.626 109.595C158.506 109.567 158.534 109.378 158.655 109.381C159.538 109.403 160.336 109.233 161.097 108.773C161.747 108.379 162.134 107.733 162.762 107.344ZM133.404 95.1067L133.283 95.1077C131.878 95.1303 130.592 95.6661 129.239 95.9493C129.127 95.973 129.014 95.9609 128.912 95.9237C127.264 97.0238 126.128 98.7535 125.974 101.03C125.867 102.606 126.252 104.324 127.187 105.617C128.252 107.09 129.968 107.317 131.657 107.361L131.829 107.365C135.023 107.427 138.537 107.238 139.675 103.666C140.518 101.022 139.618 97.8128 137.271 96.2291C136.131 95.46 134.77 95.1054 133.404 95.1067ZM159.136 97.0027L159.042 96.8932C157.789 95.4554 155.803 94.1458 153.845 94.8699L153.85 95.1121C153.851 95.1525 153.852 95.1929 153.852 95.2332C153.846 98.01 152.77 100.601 150.126 101.416C150.836 102.428 151.405 103.551 151.862 104.717C152.023 104.612 152.219 104.545 152.446 104.522C153.377 104.428 153.91 105.302 154.717 105.628C155.472 105.934 156.329 106.013 157.127 105.855C158.871 105.51 160.096 104.004 160.524 102.334C161.009 100.446 160.369 98.4671 159.136 97.0027ZM132.578 99.3396C133.16 98.3564 134.595 98.4987 135.17 99.3655L135.198 99.4087L135.204 99.4007C136.162 100.643 135.699 102.605 134.308 103.304C133.192 103.864 131.772 103.717 131.03 102.627C130.864 102.382 130.757 102.095 130.718 101.804C130.691 101.606 130.707 101.408 130.751 101.211L130.74 101.257C130.762 101.158 130.797 101.002 130.806 100.965C130.904 100.565 131.139 100.135 131.433 99.8445C131.736 99.5457 132.157 99.3639 132.578 99.3396ZM156.487 98.3183C157.002 98.3183 157.459 98.5339 157.831 98.8757C158.361 99.362 158.434 100.062 158.32 100.726C158.285 100.929 158.237 101.125 158.186 101.324L158.143 101.505C158.135 101.535 158.127 101.565 158.118 101.594C158.086 101.717 158.036 101.831 157.976 101.94C157.755 102.76 156.863 103.168 156.077 102.989C155.707 102.904 155.337 102.597 155.149 102.275C155.087 102.169 155.043 102.063 155.013 101.957L154.859 101.594C154.831 101.507 154.813 101.413 154.79 101.324C154.738 101.125 154.689 100.929 154.653 100.726C154.532 100.04 154.628 99.3893 155.142 98.8757C155.487 98.5305 155.999 98.3183 156.487 98.3183ZM145.137 91.1993C146.031 91.0793 146.942 91.4961 147.404 92.2863C147.806 92.9732 147.804 93.8974 147.404 94.5843L147.37 94.6424C146.633 95.9076 144.914 96.0699 143.88 95.0924L143.83 95.0451C143.165 94.4167 143.015 93.3745 143.36 92.5583C143.674 91.8118 144.334 91.3073 145.137 91.1993Z" fill="black"/>
<path fill-rule="evenodd" clip-rule="evenodd" d="M166.084 109.758C164.662 111.67 162.025 112.279 159.592 112.068C154.346 111.563 152.695 105.603 152.523 100.97C156.041 101.96 152.226 94.9491 164.251 94.1781C168.49 93.8247 167.321 96.3858 169.194 98.2571C169.156 102.184 168.502 106.452 166.084 109.758ZM141.097 105.245C138 119.755 121.04 116.304 119.258 103.224C120.904 102.063 120.47 99.1945 122.514 98.1553C125.753 96.0849 129.802 96.1734 133.481 96.222C138.183 96.5452 139.522 98.4936 141.938 100.619C141.821 102.039 141.486 103.722 141.097 105.245ZM172.803 91.775C172.629 91.7461 172.455 91.7188 172.281 91.6932C172.145 91.6161 171.985 91.5567 171.8 91.521C171.376 91.4134 170.956 91.3409 170.536 91.3018C164.508 89.9447 150.563 91.8716 149.987 97.0176C148.068 97.6586 146.407 97.0846 144.182 97.1416C142.488 90.0603 113.21 91.0598 111.802 95.3291C111.797 95.3276 111.791 95.3263 111.786 95.3246C110.433 94.9057 108.438 95.0068 106.89 94.9404C103.583 94.8711 100.273 95.1659 97.0378 95.8636C90.9797 96.8267 82.7117 97.9543 86.925 105.522C86.9259 105.524 86.9265 105.525 86.9276 105.526L86.9282 105.526C87.6543 106.27 88.8867 105.671 88.9325 104.663C87.516 101.077 90.7154 100.647 93.1771 99.6165C99.3024 97.4151 105.539 97.1099 111.874 97.7909C112.35 98.3522 113.073 98.8417 113.838 99.0979C118.073 99.8012 115.841 102.944 118.519 103.402C118.027 114.358 131.324 120.339 139.029 113.137C142.105 110.128 142.838 105.671 143.552 101.653C143.929 101.568 144.169 101.362 144.309 101.089C145.216 100.183 145.785 99.3466 147.579 99.0979C149.372 98.8493 150.753 99.3483 150.94 99.5011C150.987 99.596 151.037 99.6911 151.096 99.7862C151.178 99.9281 151.29 100.041 151.416 100.13C149.645 111.041 158.112 117.941 166.66 112.282C170.374 108.787 171.159 103.436 171.314 98.66C171.817 98.356 172.136 97.767 171.962 97.0264C171.722 96.0056 172.285 95.1217 173.182 94.6779C174.348 94.1016 174.141 91.9967 172.803 91.775Z" fill="black"/>
</svg>
