<?xml version="1.0" encoding="UTF-8"?>
<svg id="Layer_2" data-name="Layer 2" xmlns="http://www.w3.org/2000/svg" width="437.48" height="437.63" viewBox="0 0 437.48 437.63">
  <defs>
    <style>
      .cls-1 {
        fill: none;
      }
    </style>
  </defs>
  <g id="Layer_1-2" data-name="Layer 1">
    <g>
      <circle class="cls-1" cx="218.59" cy="218.77" r="130.52"/>
      <path d="M73.37,144.75l3.57-5.83,11.09,6.79,6.32-10.32-11.09-6.79,3.57-5.83,27.24,16.69-3.57,5.83-11.24-6.89-6.32,10.32,11.24,6.89-3.57,5.83-27.25-16.69Z"/>
      <path d="M90.99,117.2l4.46-5.36,4.15,3.45-4.46,5.36-4.15-3.45ZM97.52,122.45l4.31-5.19,18.55,15.42-4.31,5.19-18.55-15.42Z"/>
      <path d="M123.96,128.83l-2.03,2.11-4.96-4.77,5.05-5.25,4.44,4.27,3.49,7.67-2.56,2.66-3.44-6.68Z"/>
      <path d="M115.11,93.43l5.37-4.24,19.8,25.08-5.37,4.24-19.8-25.08Z"/>
      <path d="M130.8,90.02l-2.42,1.64-3.85-5.71,6.04-4.08,3.45,5.11,1.8,8.23-3.06,2.06-1.96-7.25Z"/>
      <path d="M139.62,84.69l5.54-2.48,1.72,3.52c0-1.54.37-2.91,1.1-4.09.74-1.18,1.76-2.07,3.08-2.66,1.56-.7,3.05-.9,4.47-.59,1.42.3,2.69,1.06,3.82,2.26-.13-1.68.17-3.15.89-4.39.73-1.24,1.83-2.2,3.3-2.86,2.3-1.03,4.43-1.12,6.39-.27,1.96.85,3.54,2.62,4.74,5.3l6.34,14.17-6.16,2.76-5.57-12.44c-.78-1.75-1.63-2.93-2.55-3.54-.91-.61-1.95-.66-3.1-.14-1.12.5-1.79,1.35-1.99,2.54-.21,1.19.07,2.62.81,4.3l5.54,12.36-5.54,2.48-5.54-12.36c-.78-1.75-1.63-2.95-2.54-3.59-.91-.64-1.94-.71-3.09-.19-1.12.5-1.79,1.35-1.99,2.54-.21,1.19.07,2.62.81,4.29l5.54,12.36-6.16,2.76-9.86-22.01Z"/>
      <path d="M266.4,63.43l7.68,2.58.75,33.96-6.74-2.26-.06-7.19-11.65-3.91-4.38,5.7-6.7-2.25,21.09-26.62ZM268.04,84.58l-.08-13.04-7.94,10.34,8.02,2.69Z"/>
      <path d="M277.65,95.26l11.78-22.79,6,3.1-11.45,22.15c-.32.61-.41,1.13-.27,1.56.13.42.5.79,1.08,1.09l1.44.75-2.31,4.48-3.56-1.84c-3.73-1.93-4.63-4.76-2.7-8.49Z"/>
      <path d="M298.45,86.27l5.71,3.6-12.88,20.4-5.71-3.6,12.88-20.4ZM302.8,79.12l5.9,3.72-2.88,4.57-5.9-3.72,2.88-4.57Z"/>
      <path d="M321.57,93l5.2,4.44-20.75,24.29-5.2-4.44,20.75-24.29Z"/>
      <path d="M327.41,107.48l3.84,4.71-2.95,2.58c1.49-.4,2.9-.4,4.24,0,1.33.4,2.46,1.16,3.37,2.28,1.08,1.32,1.66,2.71,1.74,4.16.08,1.45-.32,2.87-1.18,4.28,1.59-.56,3.08-.66,4.47-.28s2.6,1.19,3.62,2.45c1.59,1.95,2.23,3.98,1.93,6.1-.31,2.11-1.6,4.1-3.88,5.96l-12.03,9.82-4.27-5.23,10.56-8.62c1.49-1.21,2.41-2.34,2.76-3.38.35-1.04.13-2.05-.67-3.03-.78-.95-1.77-1.37-2.98-1.26-1.21.11-2.52.75-3.93,1.9l-10.49,8.57-3.84-4.71,10.49-8.57c1.49-1.21,2.42-2.35,2.81-3.39.38-1.05.18-2.06-.62-3.04-.78-.95-1.77-1.37-2.97-1.26-1.21.11-2.52.75-3.93,1.91l-10.49,8.57-4.27-5.23,18.69-15.25Z"/>
      <path d="M332.57,152c.37-1.9,1.47-3.3,3.3-4.2,1.86-.91,3.6-1.05,5.24-.41,1.63.64,3.29,2.05,4.96,4.23l4.8,6.31c2.83-1.39,3.63-3.32,2.42-5.8-1.1-2.23-2.78-3.05-5.05-2.43l-2.69-6.2c2.57-.76,4.89-.58,6.96.54,2.07,1.12,3.8,3.1,5.19,5.92,1.59,3.23,2.02,6.05,1.29,8.44-.73,2.4-2.57,4.32-5.54,5.78l-7.39,3.63c-.59.29-.95.58-1.07.88-.12.29-.08.66.13,1.09l.3.61-4.16,2.04c-.43-.46-.86-1.15-1.31-2.06-1.32-2.69-.92-4.84,1.2-6.45-1.44,0-2.81-.48-4.13-1.46-1.31-.98-2.41-2.37-3.3-4.17-1.12-2.29-1.5-4.38-1.13-6.29ZM341.72,160.72c1.34.48,2.77.34,4.31-.41l1.05-.52-3.47-4.41c-1.37-1.77-2.74-2.31-4.11-1.64-.73.36-1.17.88-1.34,1.56-.17.68-.02,1.48.42,2.4.75,1.53,1.8,2.54,3.14,3.02Z"/>
      <path d="M365.51,167.49l1.36,5.92-3.79,1.01c1.51.3,2.78.92,3.8,1.88,1.02.95,1.69,2.13,2.01,3.53.38,1.67.29,3.17-.29,4.5-.57,1.33-1.56,2.43-2.96,3.31,1.68.2,3.05.78,4.13,1.73s1.8,2.22,2.16,3.8c.56,2.46.24,4.56-.98,6.32-1.21,1.76-3.25,2.96-6.12,3.62l-15.13,3.47-1.51-6.58,13.29-3.05c1.87-.43,3.2-1.03,3.97-1.81.78-.78,1.02-1.78.74-3.01-.28-1.2-.98-2.01-2.11-2.45s-2.59-.45-4.37-.04l-13.2,3.03-1.36-5.92,13.2-3.03c1.87-.43,3.21-1.03,4.02-1.8.81-.77,1.07-1.77.79-3-.27-1.2-.98-2.01-2.11-2.45s-2.59-.45-4.37-.04l-13.2,3.03-1.51-6.58,23.51-5.39Z"/>
      <path d="M348.94,211.29l-.15-2.92,6.88-.36.38,7.28-6.16.32-7.98-2.69-.19-3.68,7.23,2.05Z"/>
      <path d="M380.81,229.05l-.58,6.82-31.84-2.7.58-6.82,31.84,2.7Z"/>
      <path d="M352.71,246.31l24.94,6-1.58,6.56-24.24-5.83c-.67-.16-1.2-.13-1.58.11-.38.23-.65.67-.8,1.31l-.38,1.58-4.9-1.18.94-3.89c.98-4.08,3.51-5.63,7.6-4.65Z"/>
      <path d="M343.46,260.92c1.66-1.33,3.57-2.1,5.71-2.31,2.14-.21,4.38.16,6.71,1.12,2.33.95,4.19,2.26,5.56,3.93,1.38,1.66,2.2,3.55,2.45,5.65.26,2.1-.07,4.27-.99,6.52-.92,2.25-2.21,4.03-3.87,5.35-1.66,1.32-3.56,2.08-5.71,2.31-2.15.22-4.39-.14-6.72-1.1-2.33-.95-4.19-2.26-5.57-3.91-1.38-1.65-2.2-3.54-2.45-5.65-.25-2.11.08-4.29,1-6.54.92-2.25,2.21-4.04,3.87-5.37ZM344.71,272.59c.86,1.34,2.38,2.46,4.54,3.34,2.17.89,4.03,1.15,5.58.8,1.55-.35,2.65-1.31,3.29-2.86.64-1.55.53-3.01-.33-4.37-.86-1.35-2.37-2.47-4.53-3.36-2.17-.88-4.03-1.15-5.59-.78-1.56.37-2.66,1.33-3.29,2.88-.64,1.55-.52,3,.34,4.34Z"/>
      <path d="M356.99,288.97l-3.7,6.02-17.75-4.2,11.77,13.94-3.67,5.98-15.94-20.14,4.12-6.71,25.17,5.11Z"/>
      <path d="M320.89,301.75c1.99-.68,4.03-.76,6.12-.24,2.09.52,4.08,1.62,5.96,3.29,1.88,1.68,3.2,3.52,3.96,5.53.76,2.01.92,4.04.47,6.09-.45,2.05-1.48,3.99-3.1,5.8-1.58,1.77-3.35,2.97-5.33,3.6-1.97.63-4.01.65-6.12.06-2.11-.59-4.15-1.78-6.15-3.55l-1.01-.9,11.27-12.62c-1.43-1.19-2.81-1.76-4.14-1.71-1.33.05-2.54.69-3.62,1.9-1.56,1.75-1.83,3.51-.81,5.31l-4.83,4.8c-1.35-2.09-1.86-4.34-1.51-6.75.34-2.41,1.48-4.7,3.42-6.87,1.62-1.81,3.42-3.06,5.41-3.73ZM327.27,320.59c1.25-.05,2.36-.61,3.31-1.69.94-1.05,1.37-2.23,1.28-3.53-.08-1.3-.68-2.57-1.79-3.8l-6.68,7.49c1.34,1.07,2.63,1.58,3.88,1.53Z"/>
      <path d="M306.48,317.9c2.46-.04,4.52.85,6.18,2.68l-5.25,4.39c-1.81-1.63-3.8-1.6-5.97.11-.97.76-1.59,1.5-1.86,2.23-.27.73-.16,1.4.32,2.01.33.42.7.69,1.11.79.41.1.96.04,1.67-.2.71-.23,1.67-.68,2.86-1.35,2.27-1.24,4.16-2.06,5.67-2.47,1.51-.4,2.79-.42,3.84-.06,1.04.36,2.01,1.11,2.9,2.24,1.46,1.87,1.9,3.91,1.32,6.14-.58,2.23-2.24,4.41-4.98,6.56-2.58,2.01-5.05,3-7.43,2.96-2.38-.04-4.46-.96-6.25-2.76l5.15-4.37c.86.85,1.78,1.31,2.76,1.38.99.07,1.95-.27,2.9-1.01.92-.72,1.49-1.47,1.7-2.24.21-.78.06-1.5-.46-2.16-.54-.69-1.2-1-1.99-.93-.79.06-1.92.52-3.39,1.37-2.25,1.31-4.17,2.17-5.73,2.6-1.57.43-2.91.47-4.02.12-1.11-.35-2.11-1.09-3-2.22-1.42-1.82-1.77-3.82-1.05-6.01.73-2.19,2.41-4.32,5.06-6.39,2.83-2.22,5.48-3.35,7.95-3.39Z"/>
      <path d="M279.44,335.63c1.77.33,3.41,1.2,4.91,2.61,1.5,1.42,2.77,3.29,3.81,5.62,1.04,2.33,1.57,4.52,1.6,6.58.03,2.06-.42,3.86-1.35,5.41s-2.31,2.73-4.12,3.54c-1.56.7-3.06.99-4.49.87-1.43-.12-2.69-.62-3.78-1.52l4.58,10.27-6.16,2.75-13.02-29.18,5.92-2.64,1.57,3.19c.08-1.45.57-2.76,1.46-3.95.9-1.19,2.12-2.13,3.65-2.81,1.83-.82,3.64-1.06,5.41-.74ZM271.44,345.26c-.28,1.5.07,3.37,1.06,5.59s2.14,3.73,3.45,4.52c1.31.8,2.7.86,4.18.2,1.45-.65,2.33-1.77,2.64-3.37.3-1.6,0-3.44-.94-5.52-.92-2.05-2.08-3.51-3.49-4.35-1.41-.85-2.83-.96-4.26-.32-1.48.66-2.36,1.74-2.64,3.25Z"/>
      <path d="M254.75,345.4c2.02.59,3.74,1.69,5.15,3.31,1.42,1.62,2.41,3.66,2.99,6.11.58,2.45.61,4.72.08,6.8s-1.56,3.84-3.1,5.26c-1.54,1.43-3.5,2.42-5.86,2.98-2.31.54-4.45.51-6.43-.1-1.98-.61-3.66-1.76-5.05-3.46-1.39-1.69-2.39-3.84-3-6.43l-.31-1.32,16.47-3.89c-.49-1.8-1.29-3.06-2.42-3.78-1.13-.72-2.48-.89-4.05-.52-2.28.54-3.51,1.83-3.71,3.88l-6.71,1.17c.09-2.49.97-4.62,2.63-6.4s3.91-3,6.74-3.67c2.36-.56,4.56-.54,6.58.04ZM249.18,364.49c1.05.68,2.28.85,3.68.52,1.37-.32,2.4-1.04,3.07-2.16.68-1.12.91-2.5.71-4.14l-9.77,2.31c.48,1.64,1.25,2.8,2.3,3.48Z"/>
      <path d="M233.69,350.38c2.04,1.38,3.22,3.29,3.54,5.73l-6.82.6c-.55-2.37-2.2-3.49-4.96-3.33-1.23.07-2.16.32-2.8.76-.64.44-.93,1.05-.89,1.83.03.54.18.97.45,1.28.27.32.77.58,1.49.8.72.21,1.76.39,3.12.53,2.57.28,4.59.69,6.06,1.22,1.47.54,2.53,1.25,3.18,2.15.65.89,1.01,2.06,1.09,3.5.13,2.37-.68,4.3-2.43,5.79-1.75,1.49-4.36,2.33-7.84,2.53-3.26.18-5.86-.43-7.78-1.83s-3.1-3.34-3.54-5.84l6.73-.64c.21,1.19.71,2.09,1.48,2.71.77.62,1.75.9,2.95.83,1.17-.06,2.06-.35,2.68-.87.62-.51.9-1.19.86-2.03-.05-.87-.41-1.5-1.09-1.9-.68-.4-1.87-.67-3.56-.82-2.6-.22-4.66-.6-6.19-1.15-1.53-.55-2.65-1.28-3.37-2.2-.71-.92-1.11-2.1-1.18-3.54-.13-2.31.73-4.15,2.58-5.53,1.85-1.38,4.45-2.16,7.8-2.34,3.6-.2,6.41.39,8.46,1.77Z"/>
      <path d="M210.97,381.68l-6.96-.48.37-5.39,6.96.48-.37,5.39ZM211.41,373.32l-6.73-.46,1.65-24.06,6.73.46-1.65,24.06Z"/>
      <path d="M201.39,342.91c1.58,1.55,2.43,3.42,2.56,5.59l-6.89-.92c-.09-.88-.43-1.59-1-2.14-.58-.55-1.52-.96-2.85-1.23-3.26-.68-5.22.56-5.87,3.7l-.52,2.51c.82-.99,1.91-1.69,3.26-2.08,1.35-.39,2.79-.43,4.32-.12,1.94.4,3.56,1.23,4.86,2.48,1.3,1.25,2.19,2.84,2.67,4.76s.48,4.03,0,6.32c-.46,2.23-1.29,4.14-2.49,5.71-1.2,1.57-2.64,2.7-4.33,3.38-1.69.68-3.49.82-5.4.42-1.67-.35-3.04-1.02-4.09-2.02-1.05-1-1.76-2.21-2.14-3.64l-.76,3.66-6.48-1.34,4.4-21.28c.64-3.08,2.17-5.22,4.59-6.4,2.42-1.18,5.39-1.41,8.92-.68,3.23.67,5.64,1.78,7.22,3.33ZM187.5,353.78c-1.15,1.02-1.94,2.59-2.38,4.7-.41,2-.29,3.68.38,5.04.67,1.36,1.75,2.2,3.25,2.51,1.56.32,2.91-.03,4.05-1.05,1.15-1.02,1.93-2.54,2.35-4.57.42-2.03.3-3.74-.36-5.13-.66-1.39-1.75-2.25-3.28-2.56-1.53-.32-2.86.03-4.01,1.05Z"/>
      <path d="M169.39,365.77l-5.61-2.32,1.39-3.71c-2.31,2.29-5.09,2.76-8.33,1.42-2.38-.99-3.93-2.51-4.63-4.57-.71-2.06-.52-4.4.56-7l5.93-14.35,6.24,2.58-5.08,12.27c-.78,1.89-1.1,3.39-.97,4.52.13,1.13.83,1.95,2.07,2.46,1.3.54,2.5.47,3.59-.22,1.1-.68,2.01-1.91,2.74-3.69l5.07-12.27,6.24,2.58-9.22,22.29Z"/>
      <path d="M147.09,330.36c.65,2.35.12,4.64-1.58,6.85-1.24,1.62-2.71,2.7-4.39,3.24-1.68.54-3.94.65-6.76.34.14,1.69.1,3.12-.12,4.28-.21,1.16-.72,2.27-1.53,3.31-1.52,1.97-3.4,3.03-5.64,3.16-2.24.13-4.57-.73-7-2.6-2.45-1.88-3.91-3.9-4.38-6.04s-.01-4.12,1.38-5.92c1.12-1.45,2.5-2.36,4.15-2.74,1.65-.38,3.86-.37,6.63.02l-.16-8.07c-1.25.44-2.53,1.46-3.84,3.07l-5.01-4.7c1.14-1.28,2.44-2.36,3.91-3.24,1.47-.88,2.96-1.46,4.46-1.74l-.39-6.66,6.31,4.86.08,1.82c1.19.08,2.53.46,4.01,1.13,1.49.67,2.97,1.58,4.45,2.71,2.95,2.27,4.75,4.58,5.4,6.93ZM124.91,339.49c-.82.18-1.48.59-1.97,1.24-.47.62-.66,1.24-.56,1.87.1.63.48,1.19,1.12,1.68.71.55,1.41.78,2.1.71.69-.08,1.27-.44,1.77-1.08.38-.5.64-1.08.77-1.74s.15-1.55.07-2.67c-1.37-.18-2.47-.19-3.29,0ZM133.8,326.09l.25,9.27c1.32.11,2.41.02,3.27-.27.86-.28,1.58-.81,2.17-1.57.66-.86.84-1.79.55-2.82-.29-1.02-1.07-2.01-2.33-2.98-1.43-1.1-2.73-1.64-3.9-1.64Z"/>
      <path d="M116.62,302.64c.26,2.62-.25,5.17-1.53,7.67-1.28,2.5-3.3,4.75-6.06,6.77-2.71,1.98-5.45,3.22-8.21,3.71-2.76.49-5.37.23-7.83-.8-2.46-1.03-4.58-2.76-6.37-5.21-4.76-6.52-4.37-12.69,1.18-18.53l4.41,5.58c-1.42,1.52-2.21,3.1-2.39,4.73-.18,1.64.31,3.24,1.46,4.82,1.49,2.04,3.45,3.04,5.89,3.03,2.44-.02,5.02-1.02,7.73-3,2.71-1.98,4.43-4.13,5.16-6.44.72-2.31.36-4.46-1.09-6.45-1.24-1.69-2.7-2.68-4.37-2.97s-3.5.1-5.49,1.14l-4-5.94c3.59-1.8,6.97-2.34,10.16-1.62,3.18.72,5.98,2.73,8.39,6.02,1.73,2.38,2.73,4.87,2.99,7.48Z"/>
      <path d="M101.4,278.84c-.18,2.12-.92,4.03-2.25,5.73-1.32,1.7-3.13,3.07-5.43,4.11-2.3,1.04-4.52,1.49-6.68,1.34-2.15-.14-4.09-.84-5.79-2.1s-3.05-2.99-4.06-5.2c-1-2.21-1.41-4.38-1.23-6.48.18-2.11.93-4.02,2.25-5.73,1.32-1.71,3.12-3.09,5.42-4.13,2.3-1.04,4.52-1.49,6.67-1.36,2.15.13,4.08.83,5.79,2.1,1.71,1.27,3.06,3.01,4.07,5.22,1,2.21,1.41,4.38,1.24,6.5ZM92.06,271.73c-1.57-.3-3.41.04-5.55,1-2.13.96-3.6,2.13-4.42,3.5-.81,1.37-.87,2.82-.18,4.35.69,1.53,1.83,2.45,3.4,2.76,1.57.31,3.42-.02,5.56-.98,2.13-.96,3.6-2.14,4.41-3.53.81-1.38.86-2.84.17-4.37-.69-1.53-1.82-2.44-3.39-2.74Z"/>
      <path d="M92.55,257.15c-.64,1.68-1.8,3.13-3.47,4.35-1.67,1.22-3.74,2.12-6.22,2.72-2.48.6-4.73.72-6.76.38-2.03-.35-3.72-1.12-5.07-2.32-1.35-1.2-2.26-2.76-2.73-4.69-.4-1.66-.41-3.19-.04-4.57.38-1.39,1.1-2.53,2.18-3.44l-10.94,2.63-1.58-6.56,31.06-7.47,1.52,6.3-3.42.96c1.41.34,2.62,1.06,3.62,2.16,1,1.1,1.7,2.47,2.1,4.1.47,1.95.38,3.77-.26,5.45ZM84.54,247.53c-1.43-.55-3.32-.54-5.69.03s-4.05,1.42-5.08,2.56c-1.02,1.14-1.34,2.5-.96,4.07.37,1.55,1.31,2.61,2.83,3.21,1.52.59,3.38.62,5.6.09,2.19-.53,3.83-1.41,4.92-2.64s1.46-2.61,1.09-4.13c-.38-1.58-1.28-2.64-2.71-3.19Z"/>
      <path d="M87.46,231.11c-.95,1.88-2.35,3.36-4.2,4.46-1.86,1.09-4.04,1.7-6.56,1.82-2.52.12-4.75-.27-6.7-1.17-1.95-.9-3.48-2.24-4.61-4.02-1.12-1.78-1.74-3.88-1.85-6.31-.11-2.37.31-4.47,1.28-6.3.96-1.83,2.41-3.27,4.32-4.33,1.92-1.05,4.21-1.64,6.88-1.77l1.35-.06.8,16.9c1.86-.15,3.24-.71,4.16-1.68.91-.97,1.33-2.27,1.26-3.89-.11-2.34-1.15-3.79-3.14-4.36l.08-6.81c2.43.55,4.37,1.8,5.81,3.76,1.45,1.96,2.24,4.39,2.38,7.3.11,2.43-.3,4.58-1.25,6.46ZM69.71,222.13c-.86.91-1.25,2.09-1.18,3.53.07,1.41.59,2.55,1.56,3.42.97.87,2.29,1.36,3.94,1.46l-.48-10.02c-1.7.17-2.98.71-3.84,1.62Z"/>
    </g>
  </g>
</svg>