<svg width="251" height="251" viewBox="0 0 251 251" fill="none" xmlns="http://www.w3.org/2000/svg">
<path d="M251 133.637C251 104.974 227.775 81.7511 199.109 81.7511H192.561L174.235 33.4682C166.603 13.3308 147.312 0.0235526 125.783 0H125.712C104.206 0 84.9386 13.2601 77.2362 33.3505L58.7221 81.7511H51.8912C23.225 81.7511 0 104.974 0 133.637C0 151.396 8.92727 167.059 22.5184 176.409L20.9402 180.554C10.6939 207.31 24.0966 237.316 50.8784 247.561C77.6366 257.783 107.645 244.405 117.892 217.626L125.547 197.63L133.085 217.508C140.952 238.235 160.667 251 181.608 251C187.732 251 193.95 249.917 200.004 247.608C226.786 237.434 240.283 207.475 230.107 180.672L228.482 176.409C242.073 167.059 251 151.396 251 133.637Z" fill="black"/>
</svg>
