<svg width="32" height="32" viewBox="0 0 32 32" fill="none" xmlns="http://www.w3.org/2000/svg"><path d="M2.316 26.947L29.684 5.053C28.973 4.405 28.037 4 27 4H5C2.791 4 1 5.791 1 8V24C1 25.172 1.513 26.216 2.316 26.947Z" fill="#f8d047"/><path d="M29.684 5.05298L2.31599 26.947C3.02699 27.595 3.96299 28 4.99999 28H27C29.209 28 31 26.209 31 24V7.99998C31 6.82798 30.487 5.78398 29.684 5.05298Z" fill="#ed7135"/><path d="M27.084 10.2051C26.344 10.2201 25.854 10.1341 25.076 10.3951C25.369 9.93911 26.117 10.0141 26.285 9.50111C25.79 9.80411 25.268 9.41711 24.891 9.96411C25.08 9.16411 25.528 8.56111 25.666 7.89111C24.955 8.51411 24.81 9.74211 24.147 10.1901C23.494 10.3401 23.005 9.37711 22.458 9.65211C21.242 9.55511 20.018 8.23011 18.781 8.53911C19.175 8.50911 19.489 8.63611 19.733 8.80211C19.505 8.84311 19.224 8.60211 19.073 8.77011C19.395 8.79011 19.684 8.91511 19.531 9.22011C18.799 8.70311 17.947 8.76011 17.429 9.20611C17.81 9.00911 18.166 9.17111 18.463 9.29611C18.24 9.48111 17.841 9.27611 17.713 9.53111C17.835 9.47411 17.992 9.47011 18.231 9.51611C18.19 9.60411 18.166 9.72311 18.178 9.88611C17.111 9.00611 15.571 10.6051 16.977 10.3851C15.943 10.0131 17.642 9.77911 18.637 10.4571C18.289 10.3831 17.583 10.5251 17.439 10.0951C17.382 10.2631 17.39 10.4121 17.511 10.5031C16.881 10.7831 15.742 10.7091 15.453 11.3071C15.917 10.8491 16.653 11.2161 17.169 11.1131C17.123 11.2071 17.108 11.2951 17.125 11.3631C16.969 11.3851 16.876 11.7271 16.953 11.8471C16.852 12.3271 15.454 13.1911 16.788 12.5941C16.754 13.0471 16.231 13.2071 16.498 13.7201C16.535 13.2891 16.876 13.2391 17.212 13.1611C17.121 13.4001 17.34 13.7391 17.605 13.6861C17.496 13.8791 17.6 14.2251 17.854 14.2761C17.735 14.6221 17.261 14.2681 17.128 14.6131C17.488 14.4971 17.711 14.9871 18.09 14.8091C18.042 14.9601 18.075 15.0511 18.174 15.2011C17.935 15.1751 17.56 15.2901 17.447 15.0121C17.263 15.3331 17.839 15.3351 17.833 15.5661C17.791 15.4341 17.552 15.3341 17.45 15.4571C17.389 15.0801 16.927 15.0531 16.744 15.1631C16.824 14.9231 16.351 14.7451 16.244 14.8971C16.124 14.5171 15.706 14.2361 15.541 13.9371C15.359 14.1921 15.694 14.2901 15.617 14.5601C15.523 14.4571 15.314 14.4151 15.212 14.5351C15.148 14.3811 14.859 14.3121 14.75 14.4711C14.684 14.3251 14.399 14.2781 14.295 14.4251C14.192 13.9691 13.588 14.2101 13.441 13.8531C13.324 14.1711 13.803 14.2021 13.73 14.5201C13.437 14.3191 13.026 14.5701 13.128 14.9171C12.916 14.7171 12.499 14.9151 12.566 15.2121C12.248 14.9461 11.537 15.2751 11.391 15.5341C11.598 15.4161 11.843 15.4941 12.051 15.5511C11.962 15.6821 11.848 15.9161 11.967 16.0861C11.631 16.0861 11.52 16.5271 11.65 16.7821C11.239 16.8841 10.944 17.4771 10.472 17.3241C10.678 17.6891 11.127 17.3461 11.409 17.3871C11.29 17.4671 11.172 17.9081 11.317 18.0601C11.152 18.1421 11.004 18.3851 11.025 18.5251C10.758 18.5541 10.638 18.8811 10.365 18.7851C10.407 18.9091 10.578 18.9861 10.776 19.0281C10.647 19.1161 10.543 19.2691 10.365 19.1991C10.37 19.2981 10.417 19.4011 10.514 19.4771C10.322 19.4671 10.089 19.5721 9.91399 19.5001C9.91199 19.5941 9.935 19.6981 9.994 19.7951C9.669 19.7111 9.20899 19.6371 9.02999 19.9061C9.19499 19.8891 9.358 19.9421 9.40699 20.0331C8.55199 20.1871 7.281 19.2651 6.757 19.9011C7.335 19.8621 8.14799 20.0981 8.679 20.3451C8.183 20.3781 7.03 20.5481 6.712 20.9131C7.137 20.8821 7.741 20.7501 8.113 20.7331C7.259 21.2311 6.227 21.4931 5.403 22.0061C5.994 22.1351 6.695 21.6361 7.304 21.5011C6.49 21.8961 5.81099 22.5891 4.89799 22.9531C6.37499 22.9601 7.875 21.8541 9.017 21.0991C8.699 21.2731 8.69 21.7341 8.274 21.7851C8.802 21.9721 9.05 21.2361 9.604 21.2901C9.321 21.7451 8.93 21.5341 8.805 22.0121C10.342 21.6981 10.874 19.8761 12.401 19.8921C12.404 19.9481 12.406 20.0061 12.4 20.0621C12.395 20.1601 12.375 20.2591 12.341 20.3511C11.86 20.2561 11.782 20.3341 12.148 20.5991C11.924 20.6611 11.883 20.9691 11.613 21.0281C11.741 21.1971 12.059 21.0871 12.177 20.9571C12.184 21.0831 12.325 21.1941 12.253 21.3281C12.486 21.3481 12.378 20.9351 12.634 20.9331C12.545 21.0321 12.631 21.2061 12.788 21.1841C12.709 21.2641 12.766 21.3661 12.877 21.3691C12.805 21.5071 12.883 21.6711 12.834 21.8431C11.615 21.9811 12.415 24.1241 13.332 24.1071C14.232 24.0951 14.648 22.6401 14.161 22.0171C14.24 22.0271 14.324 22.0041 14.388 21.9541C14.438 22.0511 14.562 22.1171 14.687 22.1111C14.835 22.3441 15.026 22.5611 14.929 22.8921C15.424 22.3411 14.829 21.0361 14.115 21.5181C14.023 21.4321 13.892 21.4071 13.797 21.4211C13.824 21.2071 13.784 21.1111 13.625 21.0781C13.371 20.6031 13.127 20.2021 13.383 19.6461C16.186 21.5631 16.662 17.6401 14.228 18.4581C14.273 18.3921 14.286 18.2671 14.253 18.2071C14.347 18.1631 14.443 18.0441 14.46 17.9511C14.59 17.9731 14.781 17.8751 14.899 17.9111C14.458 17.2841 13.568 17.8661 13.691 18.5291C13.049 18.9411 13.201 17.9241 13.228 17.5941C13.319 17.5401 13.319 17.3091 13.275 17.2431C13.355 17.2191 13.443 17.0861 13.437 16.9921C13.587 17.0111 13.708 16.8291 13.718 16.7061C13.87 16.7891 14.118 16.7181 14.175 16.5501C14.287 16.6411 14.591 16.6441 14.666 16.5211C15.836 16.9231 17.087 17.2121 18.375 17.3671C18.299 17.5211 18.29 17.6391 18.347 17.7281C18.053 17.7851 17.763 17.5971 17.541 17.7551C17.803 17.7781 17.719 17.9461 18.06 17.9811C17.704 18.0201 17.764 18.5051 17.432 18.4831C17.738 18.8221 17.914 18.2871 18.189 18.3191C18.18 18.4541 18.304 18.5871 18.177 18.7771C18.378 18.7841 18.479 18.5601 18.522 18.4031C18.63 18.5031 18.744 18.7801 18.981 18.6701C18.984 18.8461 19.294 18.9691 19.425 18.9031C19.487 19.0721 19.834 19.1351 19.953 19.0361C19.983 19.1351 20.113 19.1841 20.221 19.2161L20.219 19.2221C20.456 19.3041 20.679 19.1071 20.871 19.2431C20.969 19.2951 21.06 19.3871 21.171 19.3761C20.403 20.7631 23.732 21.6841 23.762 19.9311C23.594 19.2661 23.596 18.1141 22.594 18.4431C22.571 18.4131 22.534 18.4081 22.488 18.4181C22.61 18.3311 22.653 18.2231 22.616 18.0991C22.918 18.1111 22.93 17.7291 23.276 17.8601C22.974 17.5021 21.976 17.6321 22.011 18.1521C21.838 18.0831 21.636 18.2371 21.645 18.4221C21.537 18.3961 21.387 18.4481 21.307 18.5971C20.905 18.3551 20.479 18.2171 20.031 18.2771C19.98 18.1581 19.768 18.0191 19.61 18.0651C20.177 17.0531 20.427 15.7051 20.975 14.9661C21.421 14.8031 21.493 15.4131 21.092 15.5151C21.248 15.6261 21.456 15.5371 21.57 15.3901C21.448 15.7121 21.513 16.0971 21.855 16.1781C21.703 15.9291 21.98 15.7961 21.929 15.5811C22.115 15.6781 22.256 15.9141 22.241 16.0721C22.489 15.8341 22.17 15.5121 22.15 15.2521C22.587 15.3361 22.961 15.0261 23.266 14.8271C23.347 14.7711 23.431 14.7391 23.496 14.7281C27.518 16.7701 25.17 10.1531 23.48 13.8481C22.228 14.0501 20.642 13.8411 19.781 12.7271C20.434 12.6561 20.702 13.4581 21.265 13.3591C20.83 13.2361 20.819 12.7091 20.331 12.6261C21.054 12.1141 22.09 12.2871 22.607 12.9891C22.442 13.0791 22.383 13.3551 22.167 13.3401C22.366 13.4651 22.578 13.4241 22.743 13.2671C22.699 13.4481 22.743 13.6161 22.972 13.6891C22.824 13.5251 23.011 13.4011 23.108 13.2771C23.178 13.4011 23.351 13.4841 23.26 13.6451C23.512 13.6091 23.573 13.1621 23.376 13.0071C23.569 12.7841 23.348 12.4721 23.107 12.3911C23.604 11.9741 23.83 12.7581 23.606 13.2011C23.857 13.0401 23.857 12.7451 23.858 12.4931C24.534 12.9011 26.183 11.8071 26.317 12.8621C26.637 12.4511 26.149 12.2091 25.636 12.1571C25.654 11.8801 25.311 11.5771 25.073 11.7991C25.355 11.7601 25.431 12.1681 25.096 12.2841C25.172 11.9791 24.824 11.7251 24.547 11.8771C25.017 12.0331 24.665 12.4761 24.263 12.3921C24.27 12.0231 24.675 11.7241 24.391 11.3301C24.491 11.3161 24.488 11.2181 24.401 11.1701C24.524 11.1891 24.581 11.0771 24.463 11.0111C24.539 11.0211 24.623 10.9781 24.58 10.9051C25.361 10.6071 26.462 10.5521 27.101 10.2001L27.082 10.2061L27.084 10.2051ZM22.165 11.6561C22.304 11.2481 22.939 11.0491 22.751 11.6131C22.931 11.2881 23.597 11.2511 23.16 11.6841C23.32 11.7241 23.524 11.6001 23.69 11.6121C23.509 12.4101 22.626 11.6651 22.162 11.6631C22.162 11.6611 22.164 11.6581 22.165 11.6561Z" fill="#fff"/></svg>