<svg width="32" height="32" viewBox="0 0 32 32" fill="none" xmlns="http://www.w3.org/2000/svg"><path d="M1 15H31V22H1V15Z" fill="#dd4446"/><path d="M1 9H31V16H1V9Z" fill="#fff"/><path d="M5 4H27C29.208 4 31 5.792 31 8V10H1V8C1 5.792 2.792 4 5 4Z" fill="#f8d448"/><path d="M27 28L5 28C2.792 28 1 26.208 1 24V22L31 22V24C31 26.208 29.208 28 27 28Z" fill="#163aa0"/><path d="M2.316 26.947L16 16L2.316 5.05298C1.513 5.78498 1 6.82898 1 7.99998V24C1 25.172 1.513 26.216 2.316 26.947Z" fill="#439543"/><path d="M4.957 16.5351C4.661 14.0731 6.417 11.8371 8.879 11.5401C8.07 11.3161 7.216 11.3161 6.407 11.5401C3.945 12.2231 2.502 14.7721 3.185 17.2351C3.868 19.6971 6.417 21.1401 8.88 20.4571C6.825 20.2101 5.205 18.5901 4.958 16.5351H4.957Z" fill="#fff"/><path d="M9.094 12.711 8.88 12.053 8.666 12.711H7.974L8.534 13.118 8.32 13.776 8.88 13.37 9.44 13.776 9.226 13.118 9.786 12.711H9.094ZM8.88 14.094 8.666 14.752H7.974L8.534 15.159 8.32 15.818 8.88 15.411 9.44 15.818 9.226 15.159 9.786 14.752H9.094L8.88 14.094ZM8.88 16.135 8.666 16.794H7.974L8.534 17.2 8.32 17.859 8.88 17.452 9.44 17.859 9.226 17.201 9.786 16.794H9.093L8.88 16.135ZM9.093 18.835 8.88 18.177 8.666 18.835H7.974L8.534 19.242 8.32 19.9 8.88 19.493 9.44 19.9 9.226 19.242 9.786 18.835H9.093Z" fill="#fff"/></svg>