<svg width="32" height="32" viewBox="0 0 32 32" fill="none" xmlns="http://www.w3.org/2000/svg"><path d="M1 24C1 26.209 2.791 28 5 28H27C29.209 28 31 26.209 31 24V15H1V24Z" fill="#4fac3f"/><path d="M27 4H5C2.791 4 1 5.791 1 8V16H31V8C31 5.791 29.209 4 27 4Z" fill="#7cb2e3"/><path d="M2.433 27.0441L19 16.0001L2.433 4.95605C1.564 5.69005 1 6.77405 1 8.00005V24.0001C1 25.2271 1.564 26.3111 2.433 27.0441Z" fill="#fff"/><path d="M9.467 16.5529L11.562 15.0299H8.972L8.172 12.5669L7.371 15.0299H4.781L6.877 16.5529L6.076 19.0159L8.172 17.4939L10.267 19.0159L9.467 16.5529Z" fill="#c62d25"/></svg>