<svg width="32" height="32" viewBox="0 0 32 32" fill="none" xmlns="http://www.w3.org/2000/svg"><path d="M29.684 26.947L2.31599 5.053C3.02699 4.405 3.96299 4 4.99999 4H27C29.209 4 31 5.791 31 8V24C31 25.172 30.487 26.216 29.684 26.947Z" fill="#be2a2c"/><path d="M2.316 5.05298L29.684 26.947C28.973 27.595 28.037 28 27 28H5C2.791 28 1 26.209 1 24V7.99998C1 6.82798 1.513 5.78398 2.316 5.05298Z" fill="currentColor"/><path d="M24.782 14.792C24.685 13.514 24.26 13.331 24.195 13.136C24.129 12.939 24.3 13.188 24.444 13.241C24.588 13.294 24.418 12.966 24.378 12.821C24.338 12.676 24.811 13.123 24.929 13.162C25.047 13.201 24.654 12.087 24.536 12.008C24.418 11.929 24.654 12.034 24.733 12.06C24.812 12.086 24.012 10.841 23.842 10.841C23.672 10.841 23.986 10.775 24.078 10.775C24.17 10.775 23.16 9.96202 22.99 9.96202C22.82 9.96202 23.357 9.75202 23.409 9.73902C23.501 9.75202 22.242 9.07002 21.115 9.75202C21.049 9.70002 21.646 9.28702 21.666 9.11002C21.256 8.78402 21.608 8.91702 21.784 8.58602C21.705 8.48102 21.561 8.52002 21.482 8.49402C21.525 8.29002 22.026 7.90302 21.443 8.00902C21.4 7.97602 21.783 7.47402 21.312 7.65502C21.246 7.64202 21.653 7.07802 21.574 6.99902C18.742 8.23102 20.409 9.81202 19.555 10.381C19.159 10.358 18.844 9.86902 18.519 9.71202C18.335 9.66002 17.916 9.81702 17.759 9.83002C17.602 9.84302 16.985 9.71202 16.946 9.75102C17.042 9.85902 17.833 10.098 17.955 10.354C18.06 10.419 19.043 10.708 18.729 11.114C17.784 11.311 17.302 10.034 16.094 11.625C15.836 12.01 14.709 13.844 15.832 12.647C15.573 13.421 15.915 12.827 16.33 12.713C16.369 12.818 16.251 12.923 16.291 13.08C16.343 13.132 16.579 12.818 16.737 12.752C16.763 12.87 16.593 13.093 16.685 13.237C16.751 13.25 17.144 12.791 17.275 12.739C17.406 12.687 17.209 13.172 17.275 13.211C17.674 12.968 18.012 12.119 17.917 13.198C18.061 13.093 18.428 12.595 18.468 12.516C18.354 13.346 19.322 14.356 19.923 14.679C20.002 14.535 19.897 14.233 19.962 14.246C20.146 14.443 20.486 14.731 20.565 14.731C20.644 14.731 20.513 14.416 20.617 14.416C20.827 14.613 21.43 15.386 22.61 15.74C22.531 15.517 22.361 15.32 22.348 15.216C22.427 15.229 22.702 15.36 22.754 15.347C22.806 15.334 22.177 14.56 22.216 14.456C22.36 14.443 22.426 14.535 22.478 14.469C22.412 14.364 21.862 13.748 21.862 13.604C21.862 13.46 22.032 13.63 22.085 13.604C22.138 13.578 21.875 13.027 21.928 12.962C22.018 12.848 22.806 13.632 22.781 13.143C23.171 13.462 23.936 14.073 24.46 14.85C24.388 16.05 23.347 16.918 22.046 16.41C22.626 17.232 24.619 16.88 24.763 15.388C25.655 17.192 24.109 18.349 23.016 18.049C24.615 19.03 26.355 16.678 24.783 14.789L24.782 14.792Z" fill="#f4d24b"/><path d="M8.83 12.291 9.191 13.329 10.29 13.351 9.414 14.015 9.732 15.067 8.83 14.439 7.928 15.067 8.246 14.015 7.37 13.351 8.469 13.329 8.83 12.291ZM5.454 16.894 5.815 17.932 6.914 17.954 6.038 18.618 6.356 19.67 5.454 19.042 4.552 19.67 4.87 18.618 3.994 17.954 5.093 17.932 5.454 16.894ZM8.83 23.032 9.191 24.07 10.29 24.092 9.414 24.756 9.732 25.808 8.83 25.18 7.928 25.808 8.246 24.756 7.37 24.092 8.469 24.07 8.83 23.032ZM11.899 16.587 12.26 17.625 13.359 17.647 12.483 18.311 12.801 19.363 11.899 18.735 10.997 19.363 11.315 18.311 10.439 17.647 11.538 17.625 11.899 16.587ZM10.365 20.424 10.545 20.943 11.094 20.954 10.656 21.286 10.815 21.812 10.364 21.498 9.913 21.812 10.072 21.286 9.634 20.954 10.183 20.943 10.363 20.424H10.365Z" fill="#fff"/></svg>