<svg width="32" height="32" viewBox="0 0 32 32" fill="none" xmlns="http://www.w3.org/2000/svg"><path d="M2.316 26.947L29.684 5.053C28.973 4.405 28.037 4 27 4H5C2.791 4 1 5.791 1 8V24C1 25.172 1.513 26.216 2.316 26.947Z" fill="#214fb5"/><path d="M29.684 5.05298L2.31604 26.947C3.02704 27.595 3.96304 28 5.00004 28H27C29.209 28 31 26.209 31 24V7.99998C31 6.82798 30.487 5.78398 29.684 5.05298Z" fill="#2e5a34"/><path d="M28.8251 4.45998L1.65906 26.192C2.03606 26.766 2.56206 27.224 3.17606 27.541L30.3411 5.80798C29.9641 5.23398 29.4381 4.77598 28.8241 4.45898L28.8251 4.45998Z" fill="#f6d44a"/><path d="M9.166 10.909 8.798 9.775 8.43 10.909H7.238L8.202 11.609 7.834 12.743 8.798 12.042 9.762 12.743 9.394 11.609 10.358 10.909H9.166ZM11.44 8.834 11.072 9.967 12.036 9.267 13 9.967 12.632 8.834 13.596 8.133H12.404L12.036 7 11.668 8.133H10.476L11.44 8.834ZM12.404 13.684 12.036 12.551 11.668 13.684H10.476L11.44 14.385 11.072 15.518 12.036 14.818 13 15.518 12.632 14.385 13.596 13.684H12.404ZM5.928 13.684 5.56 12.551 5.192 13.684H4L4.964 14.385 4.596 15.518 5.56 14.818 6.524 15.518 6.156 14.385 7.12 13.684H5.928ZM5.56 7 5.192 8.133H4L4.964 8.834 4.596 9.967 5.56 9.267 6.524 9.967 6.156 8.834 7.12 8.133H5.928L5.56 7Z" fill="#fff"/></svg>