<svg width="24" height="24" viewBox="0 0 24 24" fill="none" xmlns="http://www.w3.org/2000/svg">
<path d="M13.18 11.8601C12.78 11.8601 12.42 11.6401 12.25 11.2801L10.8 8.3901L10.38 9.1701C10.15 9.6001 9.68997 9.8701 9.19997 9.8701H8.46997C8.05997 9.8701 7.71997 9.5301 7.71997 9.1201C7.71997 8.7101 8.05997 8.3701 8.46997 8.3701H9.10997L9.89997 6.9101C10.09 6.5701 10.47 6.3401 10.83 6.3601C11.22 6.3601 11.57 6.5901 11.75 6.9301L13.18 9.7901L13.52 9.1001C13.75 8.6401 14.2 8.3601 14.72 8.3601H15.53C15.94 8.3601 16.28 8.7001 16.28 9.1101C16.28 9.5201 15.94 9.8601 15.53 9.8601H14.82L14.11 11.2701C13.93 11.6401 13.58 11.8601 13.18 11.8601Z" fill="#292D32"/>
<path d="M2.74994 18.6498C2.33994 18.6498 1.99994 18.3098 1.99994 17.8998V12.1998C1.94994 9.4898 2.95994 6.9298 4.83994 5.0098C6.71994 3.0998 9.23994 2.0498 11.9499 2.0498C17.4899 2.0498 21.9999 6.5598 21.9999 12.0998V17.7998C21.9999 18.2098 21.6599 18.5498 21.2499 18.5498C20.8399 18.5498 20.4999 18.2098 20.4999 17.7998V12.0998C20.4999 7.3898 16.6699 3.5498 11.9499 3.5498C9.63994 3.5498 7.49994 4.43981 5.90994 6.0598C4.30994 7.68981 3.45994 9.85981 3.49994 12.1798V17.8898C3.49994 18.3098 3.16994 18.6498 2.74994 18.6498Z" fill="#292D32"/>
<path d="M5.94 12.4502H5.81C3.71 12.4502 2 14.1602 2 16.2602V18.1402C2 20.2402 3.71 21.9502 5.81 21.9502H5.94C8.04 21.9502 9.75 20.2402 9.75 18.1402V16.2602C9.75 14.1602 8.04 12.4502 5.94 12.4502Z" fill="#292D32"/>
<path d="M18.19 12.4502H18.06C15.96 12.4502 14.25 14.1602 14.25 16.2602V18.1402C14.25 20.2402 15.96 21.9502 18.06 21.9502H18.19C20.29 21.9502 22 20.2402 22 18.1402V16.2602C22 14.1602 20.29 12.4502 18.19 12.4502Z" fill="#292D32"/>
</svg>
