<svg width="24" height="24" viewBox="0 0 24 24" fill="none" xmlns="http://www.w3.org/2000/svg">
<path d="M14.1612 9.35882C14.5597 8.96035 14.7589 8.76112 14.867 8.52315C14.9547 8.32999 14.9986 8.11984 14.9957 7.90771C14.9921 7.64638 14.8894 7.38399 14.6841 6.85923L12 0L9.31597 6.8592C9.11062 7.38397 9.00795 7.64636 9.00432 7.9077C9.00137 8.11983 9.04533 8.32999 9.13306 8.52315C9.24114 8.76113 9.44037 8.96036 9.83885 9.35883L11.4502 10.9702C11.6467 11.1667 11.7449 11.2649 11.8589 11.3C11.9509 11.3283 12.0492 11.3283 12.1412 11.3C12.2551 11.2649 12.3534 11.1666 12.5499 10.9701L14.1612 9.35882Z" fill="black"/>
<path d="M14.1612 14.6412C14.5597 15.0396 14.7589 15.2389 14.867 15.4768C14.9547 15.67 14.9986 15.8802 14.9957 16.0923C14.9921 16.3536 14.8894 16.616 14.6841 17.1408L12 24L9.31597 17.1408C9.11062 16.616 9.00795 16.3536 9.00432 16.0923C9.00137 15.8802 9.04533 15.67 9.13306 15.4768C9.24114 15.2389 9.44037 15.0396 9.83885 14.6412L11.4502 13.0298C11.6467 12.8333 11.7449 12.7351 11.8589 12.7C11.9509 12.6717 12.0492 12.6717 12.1412 12.7C12.2551 12.7351 12.3534 12.8334 12.5499 13.0299L14.1612 14.6412Z" fill="black"/>
<path d="M24 12L17.1408 14.6841C16.616 14.8894 16.3536 14.9921 16.0923 14.9957C15.8802 14.9986 15.67 14.9547 15.4768 14.867C15.2389 14.7589 15.0396 14.5597 14.6412 14.1612L13.0299 12.5499C12.8334 12.3534 12.7351 12.2551 12.7 12.1412C12.6717 12.0492 12.6717 11.9509 12.7 11.8589C12.7351 11.7449 12.8333 11.6467 13.0298 11.4502L14.6412 9.83885C15.0396 9.44037 15.2389 9.24114 15.4768 9.13306C15.67 9.04533 15.8802 9.00137 16.0923 9.00432C16.3536 9.00795 16.616 9.11062 17.1408 9.31597L24 12Z" fill="black"/>
<path d="M9.35882 14.1612C8.96035 14.5597 8.76112 14.7589 8.52315 14.867C8.32999 14.9547 8.11984 14.9986 7.90771 14.9957C7.64638 14.9921 7.38399 14.8894 6.85923 14.6841L0 12L6.8592 9.31597C7.38397 9.11062 7.64636 9.00795 7.9077 9.00432C8.11983 9.00137 8.32999 9.04533 8.52315 9.13306C8.76113 9.24114 8.96036 9.44037 9.35883 9.83885L10.9702 11.4502C11.1667 11.6467 11.2649 11.7449 11.3 11.8589C11.3283 11.9509 11.3282 12.0492 11.3 12.1412C11.2649 12.2551 11.1666 12.3534 10.9701 12.5499L9.35882 14.1612Z" fill="black"/>
</svg>
