<svg width="357" height="713" viewBox="0 0 357 713" fill="none" xmlns="http://www.w3.org/2000/svg">
<path d="M229.242 22.7988C257.039 50.5953 257.44 95.4132 230.446 123.701L201.931 152.231V180.567C201.931 193.688 191.295 204.324 178.175 204.324C165.054 204.324 154.418 193.688 154.418 180.567V152.231L125.904 123.701C98.9096 95.4132 99.3109 50.5953 127.107 22.7988C155.311 -5.40493 201.038 -5.40493 229.242 22.7988Z" fill="#F4ADB3"/>
<path d="M16.864 263.245C33.5892 298.784 75.5876 314.329 111.317 298.524L137.485 286.218C145.363 282.513 154.418 288.262 154.418 296.967V340.908C154.418 354.028 165.054 364.664 178.175 364.664C191.295 364.664 201.931 354.028 201.931 340.908V296.967C201.931 288.262 210.987 282.514 218.865 286.218L245.032 298.524C280.762 314.329 322.76 298.784 339.485 263.245C356.456 227.185 340.98 184.196 304.921 167.226C269.382 150.501 227.111 165.291 209.653 200.242L188.921 244.264C184.64 253.354 171.709 253.354 167.428 244.264L146.697 200.242C129.238 165.291 86.9679 150.501 51.4288 167.226C15.3691 184.196 -0.10608 227.185 16.864 263.245Z" fill="#F4ADB3"/>
<path d="M111.317 475.511C75.5876 491.316 33.5892 475.771 16.864 440.232C-0.10608 404.172 15.3691 361.183 51.4288 344.213C86.9679 327.488 129.238 342.278 146.697 377.229L167.428 421.251C171.709 430.341 184.64 430.341 188.921 421.251L209.653 377.229C227.111 342.278 269.382 327.488 304.921 344.213C340.98 361.183 356.456 404.172 339.485 440.232C322.76 475.771 280.762 491.316 245.032 475.511L218.865 463.205C210.987 459.5 201.931 465.249 201.931 473.954V517.894C201.931 531.015 191.295 541.651 178.175 541.651C165.054 541.651 154.418 531.015 154.418 517.894V473.954C154.418 465.249 145.363 459.5 137.485 463.205L111.317 475.511Z" fill="#F4ADB3"/>
<path d="M111.317 646.559C75.5876 662.364 33.5892 646.819 16.864 611.28C-0.10608 575.22 15.3691 532.231 51.4288 515.261C86.9679 498.536 129.238 513.326 146.697 548.277L167.428 592.299C171.709 601.389 184.64 601.389 188.921 592.299L209.653 548.277C227.111 513.326 269.382 498.536 304.921 515.261C340.98 532.231 356.456 575.22 339.485 611.28C322.76 646.819 280.762 662.364 245.032 646.559L218.865 634.253C210.987 630.548 201.931 636.296 201.931 645.002V688.942C201.931 702.063 191.295 712.699 178.175 712.699C165.054 712.699 154.418 702.063 154.418 688.942V645.002C154.418 636.296 145.363 630.548 137.485 634.253L111.317 646.559Z" fill="#F4ADB3"/>
</svg>
