<svg width="24" height="24" viewBox="0 0 24 24" fill="none" xmlns="http://www.w3.org/2000/svg">
<path d="M22 22.75H5C2.93 22.75 1.25 21.07 1.25 19V2C1.25 1.59 1.59 1.25 2 1.25C2.41 1.25 2.75 1.59 2.75 2V19C2.75 20.24 3.76 21.25 5 21.25H22C22.41 21.25 22.75 21.59 22.75 22C22.75 22.41 22.41 22.75 22 22.75Z" fill="#292D32"/>
<path d="M5.00007 17.7501C4.83007 17.7501 4.65007 17.6901 4.51007 17.5701C4.20007 17.3001 4.16007 16.8301 4.43007 16.5101L9.02007 11.1501C9.52007 10.5701 10.2401 10.2201 11.0001 10.1901C11.7601 10.1701 12.5101 10.4501 13.0501 10.9901L14.0001 11.9401C14.2501 12.1901 14.5701 12.3101 14.9301 12.3101C15.2801 12.3001 15.6001 12.1401 15.8301 11.8701L20.4201 6.51007C20.6901 6.20007 21.1601 6.16007 21.4801 6.43007C21.7901 6.70007 21.8301 7.17007 21.5601 7.49007L16.9701 12.8501C16.4701 13.4301 15.7501 13.7801 14.9901 13.8101C14.2201 13.8301 13.4801 13.5501 12.9401 13.0101L12.0001 12.0601C11.7501 11.8101 11.4201 11.6801 11.0701 11.6901C10.7201 11.7001 10.4001 11.8601 10.1701 12.1301L5.58007 17.4901C5.42007 17.6601 5.21007 17.7501 5.00007 17.7501Z" fill="#292D32"/>
</svg>
