<svg width="446" height="446" viewBox="0 0 446 446" fill="none" xmlns="http://www.w3.org/2000/svg">
<path d="M155.123 230.46C171.165 206.842 155.903 184.451 131.394 195.591C109.448 205.617 93.5172 229.011 89.2839 257.531C85.9418 279.7 135.405 259.313 155.123 230.46ZM108.668 246.613C116.466 228.343 127.718 214.196 140.195 206.954C146.88 203.055 147.659 203.501 146.434 210.519C144.874 218.652 124.71 242.937 113.013 250.401C104.992 255.526 104.881 255.526 108.668 246.613Z" fill="black"/>
<path d="M323.453 173.867C298.61 180.662 273.879 202.386 273.879 217.648C273.879 224.778 280.786 230.014 283.682 224.889C284.573 223.329 285.465 223.441 291.703 226.56C308.525 235.027 337.936 220.767 348.964 199.043C357.654 181.999 343.84 168.296 323.453 173.867ZM334.928 188.015C330.471 200.938 293.263 225.112 290.144 216.98C288.473 212.747 311.644 194.477 327.241 187.681C336.487 183.559 336.376 183.67 334.928 188.015Z" fill="black"/>
<path d="M134.068 276.024C120.699 280.814 98.9758 305.1 98.9758 315.349C98.9758 316.129 97.1934 320.473 95.0767 324.929C83.4908 349.104 110.116 357.905 134.291 337.964C171.611 307.105 171.499 262.656 134.068 276.024ZM147.436 290.84C139.527 317.02 104.323 339.189 108.891 334.956C107.331 335.513 105.66 334.177 105.994 332.506C108.779 318.803 127.606 295.854 142.869 287.721C148.55 284.713 149.219 285.159 147.436 290.84Z" fill="black"/>
<path d="M328.8 237.256C299.947 246.28 264.298 280.926 272.765 291.621C284.685 306.771 326.572 290.618 350.19 261.653C364.672 243.828 352.418 229.792 328.8 237.256ZM340.275 251.293C334.036 262.878 286.467 293.848 281.454 290.618C278.112 288.501 280.674 284.379 284.796 285.047C288.918 285.827 289.141 285.604 295.825 278.14C304.292 268.671 318.44 256.194 329.692 249.955C339.718 244.497 341.946 248.285 340.275 251.293Z" fill="black"/>
<path d="M309.305 151.81C348.853 128.192 352.641 88.9786 314.541 98.3365C289.698 104.464 267.306 127.969 262.404 137.662C257.502 147.576 259.731 154.261 267.752 152.924C269.311 152.701 270.537 152.812 270.537 153.258C270.537 161.725 294.265 160.834 309.305 151.81ZM293.263 128.303C305.628 117.831 325.124 107.138 325.124 110.814C325.124 117.052 298.165 141.895 285.576 147.131C277.666 150.361 283.236 136.77 293.263 128.303Z" fill="black"/>
<path d="M177.515 239.817C178.406 238.815 182.974 230.46 183.419 229.791C184.645 233.69 187.875 236.809 191.775 237.923C204.697 241.711 221.074 232.019 239.344 209.293C246.251 200.714 249.927 193.919 250.373 188.683C253.046 158.381 176.958 181.665 173.839 230.459C173.393 237.7 175.51 243.048 177.515 239.817ZM202.804 205.17C219.068 188.794 238.675 177.877 236.559 186.344C234.776 193.697 224.973 204.614 214.835 213.081C208.04 218.874 195.562 228.008 192.889 225.223C188.767 220.878 202.692 205.282 202.804 205.17Z" fill="black"/>
<path d="M191.217 174.424C211.047 174.424 244.914 142.563 244.914 123.959C244.914 112.039 228.649 105.355 213.164 110.813C171.499 125.519 154.677 174.424 191.217 174.424ZM191.329 156.823C195.117 143.677 205.143 131.98 218.845 124.516C226.978 120.06 227.201 120.06 225.641 124.516C221.408 137.216 187.987 168.631 191.329 156.823Z" fill="black"/>
<path d="M224.861 248.174C199.35 257.086 167.489 296.856 178.629 305.657C180.189 306.883 181.414 308.666 181.414 309.668C181.414 333.62 235.556 309.556 249.593 279.477C259.953 257.642 246.362 240.598 224.861 248.174ZM236.559 265.886C232.103 279.589 203.249 306.66 193.223 306.994C186.427 307.217 195.005 295.074 196.676 292.512C202.135 283.934 221.074 267.112 231.768 261.208C238.564 257.42 239.121 258.088 236.559 265.886Z" fill="black"/>
</svg>
