<svg width="446" height="446" viewBox="0 0 446 446" fill="none" xmlns="http://www.w3.org/2000/svg">
<path d="M164.614 161.958C173.303 144.802 181.993 138.564 194.136 140.792C219.981 145.582 229.339 139.455 239.699 111.047C247.609 89.3234 252.622 82.7509 264.096 79.5202C279.693 75.0641 259.417 64.1471 244.935 71.6111C234.352 77.0698 230.119 83.0851 224.214 101.244C215.079 129.206 209.063 134.33 190.236 130.431C167.622 125.641 153.585 134.219 145.564 157.502C141.331 169.422 156.259 178.334 164.614 161.958Z" fill="black"/>
<path d="M252.956 209.304C249.837 210.752 243.375 215.32 238.697 219.33C225.885 230.471 223.991 230.693 213.965 222.561C195.25 207.299 168.29 206.63 157.818 221.224C148.795 233.59 159.601 240.163 171.632 229.579C184.444 218.328 192.576 217.771 204.942 227.463C224.103 242.502 239.031 242.613 255.073 228.02C269.109 215.208 275.237 214.094 281.698 223.118C287.379 231.028 300.302 235.929 300.302 230.136C300.414 215.877 268.664 201.952 252.956 209.304Z" fill="black"/>
<path d="M233.572 325.831C220.872 325.831 220.984 325.943 217.53 312.463C211.626 289.514 186.003 274.809 164.057 281.716C144.561 287.843 159.044 297.089 171.298 292.967C187.451 287.62 196.029 292.633 199.928 309.566C203.271 324.383 212.071 332.85 227.556 335.746C234.018 336.971 239.922 336.971 246.16 336.86C259.195 336.749 259.863 344.881 259.64 357.247C259.195 379.416 277.019 383.983 277.353 362.26C277.687 338.308 262.648 325.831 233.572 325.831Z" fill="black"/>
</svg>
