<svg width="446" height="446" viewBox="0 0 446 446" fill="none" xmlns="http://www.w3.org/2000/svg">
<path d="M125.656 231.42C111.953 235.43 116.075 243.897 110.839 241.223C104.155 237.769 93.2372 240.889 90.2293 247.35C85.3276 257.71 97.2477 277.986 115.295 289.015C117.857 290.575 121.868 293.137 124.096 294.585C136.016 302.272 144.26 286.341 144.817 254.034C145.151 235.987 138.244 227.632 125.656 231.42ZM128.552 282.331L127.104 287.232C109.391 269.408 99.5875 260.384 99.4761 251.472C99.3647 244.231 101.927 244.565 108.611 252.92C112.51 257.822 114.849 259.716 117.078 260.05C126.992 261.387 120.642 250.024 125.767 240.555C127.326 237.547 129.22 238.549 131.894 243.674C134.456 249.021 132.897 267.737 128.552 282.331Z" fill="black"/>
<path d="M328.41 171.818C323.396 173.155 322.282 173.043 320.165 171.595C317.492 169.813 310.251 169.59 306.017 171.261C293.429 176.274 288.861 202.565 296.548 225.403C302.341 242.67 309.471 240.665 328.41 216.713C352.027 186.746 352.027 165.58 328.41 171.818ZM334.314 189.531C329.523 200.894 310.473 222.061 309.137 217.27C307.465 210.809 306.909 193.876 308.134 186.858C310.585 173.712 315.932 170.593 315.932 182.402C315.932 188.417 320.5 190.311 324.287 185.855C325.179 184.741 327.518 181.955 329.412 179.727C335.316 172.709 338.547 179.393 334.314 189.531Z" fill="black"/>
<path d="M226.921 158.784C224.024 160.344 222.464 160.567 221.016 159.787C207.091 152.434 194.614 166.359 200.184 182.736C214.332 223.732 225.473 223.62 246.416 182.29C255.44 164.354 243.409 149.872 226.921 158.784ZM239.955 171.038C238.952 174.937 234.608 180.396 230.04 187.192C221.908 199.669 223.133 199.334 219.123 190.311C215.446 182.178 209.876 177.611 208.873 174.046C207.537 169.033 209.765 158.45 218.343 168.142C222.687 173.044 227.144 173.378 228.592 168.476C232.38 156.222 241.514 165.134 239.955 171.038Z" fill="black"/>
<path d="M302.787 137.506C342.223 101.969 353.475 68.8814 325.29 71.1095L318.272 71.6665L315.487 67.4334C310.473 59.9694 301.895 57.1838 292.983 60.3031C277.498 65.7619 271.816 81.693 274.713 111.438C278.501 149.537 283.96 154.44 302.787 137.506ZM286.187 91.942C286.967 70.3298 295.211 58.8551 304.235 66.6533C309.025 70.7752 310.696 77.4596 307.688 80.2447C295.657 91.4964 292.649 106.424 302.452 106.424C310.473 106.424 318.16 96.3984 319.943 83.8098C321.391 72.6695 330.415 73.0031 330.415 84.2548C330.415 90.0478 327.629 94.8385 316.378 108.653C309.471 117.119 290.198 136.949 289.529 136.169C288.304 134.832 285.853 103.305 286.187 91.942Z" fill="black"/>
<path d="M338.658 278.543C335.316 279.211 334.982 278.988 334.982 276.649C334.982 270.299 325.178 266.512 316.823 269.52C299.11 275.981 284.182 306.394 287.858 328.563C290.309 343.603 356.149 307.062 356.149 290.574C356.149 282.442 348.016 276.649 338.658 278.543ZM298.441 323.215C297.55 322.324 306.463 294.25 309.916 287.232C315.598 275.535 322.616 271.302 322.616 279.657C322.616 280.994 320.945 284.336 319.051 286.898C311.921 296.144 312.256 295.921 313.592 297.258C316.155 299.82 324.844 296.256 330.637 290.24C337.322 283.333 345.008 283.333 345.008 290.351C345.008 295.253 301.338 326.111 298.441 323.215Z" fill="black"/>
<path d="M205.977 282.664C210.544 280.882 221.797 250.803 221.908 240.331C221.908 227.408 210.656 221.058 198.847 227.408C197.176 228.299 195.728 229.525 195.728 229.971C195.728 230.528 192.386 230.861 188.375 230.75C174.784 230.527 171.888 237.545 178.349 255.259C185.479 274.865 196.731 286.118 205.977 282.664ZM191.161 240.665C195.171 247.349 202.412 246.013 202.412 238.66C202.412 232.867 207.426 229.302 208.651 234.315C209.877 239.328 201.855 266.845 199.182 266.845C197.288 266.845 188.709 247.906 188.152 242.447C187.484 235.763 188.041 235.429 191.161 240.665Z" fill="black"/>
<path d="M211.882 335.248C210.099 336.027 207.871 337.586 207.091 338.478C205.977 339.926 204.418 340.149 200.073 339.592C179.909 337.141 176.233 357.862 193.834 375.464C209.765 391.394 218.343 389.835 224.693 369.894C233.271 343.045 227.812 328.118 211.882 335.248ZM210.099 373.904C200.853 361.538 191.384 349.952 193.055 345.496C194.392 342.154 198.736 345.384 201.298 351.623C204.083 358.196 212.995 357.416 212.104 350.732C210.767 340.483 217.006 335.136 218.677 345.051C219.903 352.403 210.768 372.01 210.099 373.904Z" fill="black"/>
<path d="M169.549 103.529C162.976 107.205 163.087 107.204 161.305 102.526C158.854 95.73 150.276 93.5023 141.698 97.4014C125.767 104.754 127.215 132.048 145.262 159.007C148.716 164.132 149.05 178.725 166.986 160.566C176.789 150.651 191.718 134.164 195.84 128.148C209.431 108.207 191.384 91.2743 169.549 103.529ZM190.827 114.223C189.824 121.91 162.307 154.885 154.732 157.447C152.726 158.115 144.037 130.265 142.7 119.236C140.918 103.64 148.716 93.9477 152.95 106.648C153.952 109.767 154.732 114.223 154.732 116.674C154.62 124.806 162.419 125.14 166.206 117.119C173.448 101.634 192.721 99.5177 190.827 114.223Z" fill="black"/>
</svg>
