<svg width="446" height="446" viewBox="0 0 446 446" fill="none" xmlns="http://www.w3.org/2000/svg">
<path d="M198.95 170.126C206.86 163.999 250.975 134.032 258.996 129.464C265.792 125.676 267.352 124.229 268.8 120.442C272.699 110.081 278.715 76.2138 281.054 51.2596C282.279 38.8939 274.481 32.2104 264.789 37.4464C262.673 38.5604 256.657 41.5683 251.421 44.1305C246.185 46.5814 231.034 56.162 217.666 65.297C187.699 85.9064 188.59 75.6574 183.465 127.126C182.351 139.046 173.551 189.844 198.95 170.126ZM203.518 100.5C203.518 96.9348 207.306 93.816 231.369 77.5513C243.289 69.4189 254.874 61.3972 256.991 59.6148C262.227 55.3815 262.45 55.4933 261.336 62.2889C255.431 98.2719 251.421 107.296 247.522 117.879C222.791 130.468 194.94 151.41 193.937 150.853C193.492 150.185 203.518 109.746 203.518 100.5Z" fill="black"/>
<path d="M188.813 288.102C197.168 288.102 251.31 239.642 256.434 235.966C267.017 228.391 280.163 168.456 272.03 164.668C268.688 163.109 269.357 162.997 261.336 165.003C257.882 165.894 243.511 172.355 229.363 179.485C197.168 195.638 200.51 190.18 196.722 199.76C186.808 224.714 180.458 273.842 177.895 277.964C175.333 281.64 182.351 288.102 188.813 288.102ZM198.393 251.34C202.738 237.637 207.306 218.476 210.536 205.33C251.198 186.949 258.105 181.712 258.105 184.051C258.105 186.836 253.76 192.742 248.636 228.168C239.055 234.072 219.003 245.88 206.414 255.349C193.157 265.264 193.937 265.599 198.393 251.34Z" fill="black"/>
<path d="M154.835 213.35C145.589 197.643 129.658 214.243 127.43 215.914C102.587 234.629 92.3383 246.549 79.1928 258.024C72.3972 264.04 76.185 262.369 65.936 298.686C54.573 339.013 60.9229 347.591 93.2296 323.194C113.282 308.044 114.396 308.265 136.454 292.446C145.923 285.762 144.92 278.966 150.045 260.696C156.172 238.973 158.177 218.92 154.835 213.35ZM126.093 278.299C124.868 285.986 114.173 285.317 93.8979 299.8C79.1928 310.383 86.2113 306.371 89.8876 277.63L91.2244 267.159C129.101 236.969 137.79 226.163 137.79 230.173C137.79 230.173 126.984 272.729 126.093 278.299Z" fill="black"/>
<path d="M365.72 81.7835C348.675 92.2554 304.449 125.454 300.327 129.019C296.873 131.915 293.531 134.366 292.974 134.366C288.852 134.366 291.971 150.074 288.852 176.365C284.062 217.138 286.624 226.383 327.286 202.209C334.639 197.864 345.667 192.518 352.017 190.178C371.29 183.049 369.953 184.386 370.733 173.357C371.067 168.121 373.073 157.426 374.966 149.405C379.534 130.912 383.099 110.302 384.213 97.4909C385.884 79.3323 376.749 74.988 365.72 81.7835ZM363.938 114.536C360.595 131.915 351.906 167.117 351.46 171.016C350.903 175.584 334.416 179.371 312.915 191.626C301.775 197.976 302.666 198.979 305.006 182.826C307.345 167.118 308.793 151.633 309.796 141.05C309.796 141.05 351.795 111.528 356.696 107.852C367.502 99.7198 366.834 99.2742 363.938 114.536Z" fill="black"/>
<path d="M323.833 219.477C298.878 235.297 283.282 245.768 281.945 245.768C277.935 245.768 265.235 303.475 266.572 315.395C267.017 319.071 268.02 329.32 268.02 329.989C269.245 339.235 294.757 326.981 331.074 299.464C341.211 291.778 342.548 291.109 346.781 291.332C353.577 291.666 355.471 287.99 357.922 270.277C366.054 210.008 357.922 197.865 323.833 219.477ZM337.869 280.972C337.758 281.083 330.74 284.759 322.162 289.327C290.969 305.703 281.945 314.392 282.948 310.159C283.505 307.931 288.184 274.956 289.855 261.81C290.3 258.58 291.08 256.909 292.863 256.017C294.2 255.349 342.103 227.276 342.103 227.276C342.214 227.387 339.986 280.972 337.869 280.972Z" fill="black"/>
<path d="M240.281 271.501C235.825 274.286 212.876 290.774 199.619 300.8C180.012 315.617 177.227 319.851 170.766 344.917C168.649 353.16 165.641 363.966 164.081 368.868C150.713 411.312 165.418 413.205 174.887 406.855C181.572 402.288 221.342 369.091 230.032 360.847C236.493 354.609 238.721 353.16 240.838 353.606C247.633 354.943 249.973 349.149 254.206 319.961C257.659 296.01 260.89 258.69 240.281 271.501ZM240.726 294.006C239.612 301.47 233.597 337.23 233.597 340.683C233.597 342.577 178.675 380.788 179.566 377.446C187.81 344.917 186.473 323.75 190.15 323.75C192.043 323.75 196.722 320.631 224.016 301.135C243.289 287.321 241.618 287.99 240.726 294.006Z" fill="black"/>
<path d="M88.3279 220.927C92.5612 218.699 104.036 208.114 119.409 195.749C158.066 164.445 159.737 162.218 165.53 133.253C171.88 101.169 174.665 62.3998 149.265 83.0093C141.912 89.025 99.9139 120.998 93.7867 125.231C85.2087 131.247 75.8508 198.868 72.5087 213.573C71.2833 219.255 81.8666 224.157 88.3279 220.927ZM104.704 139.38C145.589 108.521 151.159 104.065 151.159 105.959C151.159 107.296 143.583 141.274 142.915 147.958C142.246 155.311 119.186 171.24 91.8927 194.3C88.3278 197.197 92.3383 192.519 104.704 139.38Z" fill="black"/>
</svg>
