<svg width="446" height="446" viewBox="0 0 446 446" fill="none" xmlns="http://www.w3.org/2000/svg">
<path fill-rule="evenodd" clip-rule="evenodd" d="M294.269 105.828C273.659 112.178 160.139 138.246 112.904 158.967C94.8576 166.876 98.311 166.988 105.664 185.258C113.35 204.53 115.355 208.095 122.931 216.673C148.33 245.415 173.508 245.191 176.071 246.082C171.615 248.088 164.929 251.541 150.781 257.223C138.304 262.236 138.638 261.68 142.537 274.38C157.02 320.835 208.265 353.14 254.497 339.661C259.064 338.324 255.722 328.187 239.346 330.861C214.281 334.983 185.651 323.063 167.715 301.116C163.259 295.658 148.888 267.249 150.002 266.135C159.249 257.334 327.021 209.209 327.578 209.989C333.148 216.228 332.367 249.426 326.352 268.03C319.667 288.639 292.486 316.267 269.203 325.848C260.737 329.301 264.523 336.208 274.995 336.208C289.923 336.208 325.683 305.795 336.823 283.849C345.513 266.582 348.409 237.06 342.95 221.464C333.927 195.618 333.704 195.507 309.975 203.082C293.376 208.43 292.262 208.541 296.05 204.53C314.543 185.035 324.459 140.363 319.223 117.302C315.324 99.1434 306.189 102.151 294.269 105.828ZM307.08 127.106C307.08 162.198 291.928 210.101 256.057 219.681C195.119 235.946 187.767 244.078 157.354 225.697C139.752 215.002 116.582 184.478 116.582 171.667C116.47 163.2 268.758 124.877 294.826 117.413C307.971 113.625 307.08 112.958 307.08 127.106Z" fill="black"/>
</svg>
