<svg width="446" height="446" viewBox="0 0 446 446" fill="none" xmlns="http://www.w3.org/2000/svg">
<path d="M206.204 122.102C211.065 117.848 228.079 115.011 237.802 127.569C242.055 133.241 247.727 142.355 256.436 156.939C266.766 174.156 276.489 189.55 277.907 191.171C280.54 194.209 314.366 173.751 337.051 155.319C379.992 120.48 375.738 169.499 375.738 169.701V245.049C445.618 243.226 449.264 240.39 428.401 274.014L409.765 304.194C396.599 325.461 354.268 332.753 378.979 292.648C397.411 262.468 395.183 265.304 398.424 259.633C394.981 260.24 379.992 262.873 368.041 265.304C341.912 270.773 341.912 257.202 341.507 246.264C341.102 235.529 341.305 219.123 341.305 181.651C267.577 228.237 266.766 235.732 232.333 175.778C220.382 155.118 220.18 154.711 217.344 159.37C173.187 232.288 172.783 232.491 122.55 207.577C106.751 199.677 93.383 193.601 93.1805 193.804C92.9779 194.209 94.8007 207.172 97.4338 222.769C105.131 268.342 105.536 267.33 74.1406 265.709C62.3927 265.102 51.2522 263.886 49.2267 263.279C46.9987 262.468 52.6705 273.001 63.2031 289.813C85.281 343.691 50.6448 328.297 37.2765 307.232C0.412372 248.898 -16.3995 236.745 51.2522 247.075C62.595 248.695 68.0643 248.898 67.8617 247.48C67.8617 246.264 64.6209 230.263 60.7725 212.033C54.4934 182.056 39.0994 142.558 122.753 185.296C140.577 194.411 156.781 200.893 156.781 200.893C156.781 200.893 198.709 128.786 206.204 122.102Z" fill="black"/>
<path d="M190.607 258.62C197.898 243.631 203.366 229.25 219.368 232.896C228.28 234.922 237.194 243.633 247.119 259.837C261.5 283.131 259.272 282.116 278.919 273.609C312.34 259.228 324.493 263.279 322.468 289.002C318.822 337.817 279.323 333.766 285.196 305.814C288.64 288.597 290.262 289.813 272.438 296.092C246.106 305.206 237.194 302.978 225.649 283.736C217.344 269.963 218.56 269.963 208.837 285.762C196.075 306.827 188.986 303.789 166.301 297.712L167.111 305.612C169.137 326.879 147.666 320.195 132.88 294.876C119.512 271.786 132.272 264.899 166.301 276.849C173.592 279.483 179.669 281.103 180.074 280.698C180.277 279.888 184.935 270.165 190.607 258.62Z" fill="black"/>
</svg>
