<svg width="446" height="446" viewBox="0 0 446 446" fill="none" xmlns="http://www.w3.org/2000/svg">
<path fill-rule="evenodd" clip-rule="evenodd" d="M196.899 125.33C171.276 134.465 156.125 156.076 159.69 177.911C160.804 185.041 160.359 185.487 147.882 191.726C104.212 213.783 118.026 284.636 164.37 276.837C166.598 276.615 167.934 277.506 167.712 279.288C165.261 291.765 178.852 311.818 195.562 319.839C213.832 328.751 274.213 332.539 284.462 277.506C286.021 268.594 287.136 267.257 294.042 265.252C337.044 252.775 333.479 187.269 289.364 176.129C284.239 174.792 283.348 173.232 282.234 162.315C278.892 129.117 237.227 110.848 196.899 125.33ZM239.01 145.829C244.803 152.736 249.259 174.125 246.139 179.249C243.689 183.483 251.487 190.389 260.399 191.726C283.793 195.29 294.042 217.572 282.234 238.292C277.109 247.204 273.322 250.101 257.725 256.117C249.704 259.236 249.259 259.904 249.259 269.485C249.259 309.367 210.044 318.056 203.583 279.734C201.355 266.143 197.79 263.246 183.308 261.91C150.333 258.79 149.664 207.767 182.417 200.638C190.437 198.855 192.666 195.291 194.671 180.363C200.018 145.383 223.413 126.89 239.01 145.829Z" fill="black"/>
</svg>
