<svg width="446" height="446" viewBox="0 0 446 446" fill="none" xmlns="http://www.w3.org/2000/svg">
<path fill-rule="evenodd" clip-rule="evenodd" d="M375.71 143.97C329.526 154.847 343.73 164.993 369.217 157.525C411.261 145.188 436.342 164.262 424.005 199.326C415.239 224.164 373.113 253.628 329.85 265.153C284.721 277.166 205.908 277.978 152.905 266.452C147.792 265.316 100.309 256.387 92.0294 254.683C57.3706 247.459 38.5398 246.485 25.0659 251.517C6.8844 258.335 1.60847 285.608 15.894 298.919C22.2251 304.844 23.6861 303.87 19.79 296.484C3.80003 266.127 38.3774 250.219 92.8411 262.881C120.357 269.293 141.542 272.296 156.314 275.705C288.78 306.305 438.209 260.283 437.884 188.531C437.803 161.502 404.038 137.314 375.71 143.97Z" fill="black"/>
</svg>
