<svg width="446" height="446" viewBox="0 0 446 446" fill="none" xmlns="http://www.w3.org/2000/svg">
<path fill-rule="evenodd" clip-rule="evenodd" d="M247.918 98.1898C254.714 98.9697 264.406 102.535 269.53 105.654C279.668 111.781 277.44 131.5 263.292 159.684C241.011 204.023 259.059 222.627 324.118 222.961C342.276 223.072 351.411 228.42 355.867 241.899C367.453 276.657 328.797 348.623 300.389 345.17C290.363 343.944 286.018 340.268 266.857 316.65C239.34 282.896 209.262 282.116 162.584 313.754C128.495 336.814 102.761 335.033 90.7291 308.519C76.9152 277.995 95.5194 256.605 152.558 237.443C200.015 221.513 206.699 217.614 214.72 200.903C221.516 186.644 220.848 167.483 212.715 147.319C202.578 122.253 203.135 108.328 221.516 102.312C227.309 100.418 225.192 97.7449 217.951 97.7449C197.899 97.7449 189.432 117.797 197.23 139.409C216.503 192.771 207.702 207.476 144.871 227.417C75.8013 249.252 51.6267 288.244 86.7185 321.331C113.456 346.507 144.425 346.841 179.294 322.109C213.161 298.158 233.547 295.595 248.141 313.197C275.323 345.949 289.583 355.53 311.529 355.53C352.971 355.641 387.728 276.658 370.572 241.678C361.326 222.851 343.167 213.046 317.433 212.935C301.503 212.935 279.445 210.929 277.663 209.481C267.302 201.015 269.642 182.746 284.904 152.556C296.601 129.273 297.158 116.572 286.798 103.092C281.562 96.2964 266.077 90.1693 253.154 89.7237C238.338 89.0553 229.648 96.0732 247.918 98.1898Z" fill="black"/>
</svg>
