<svg width="446" height="446" viewBox="0 0 446 446" fill="none" xmlns="http://www.w3.org/2000/svg">
<path d="M216.875 249.343C219.549 243.439 209.968 238.76 201.613 241.991C196.711 243.884 182.563 255.47 182.897 257.253C185.014 268.17 210.971 262.155 216.875 249.343Z" fill="black"/>
<path d="M287.838 225.279C271.017 232.298 173.651 303.038 167.301 312.73C163.847 317.966 174.765 322.979 181.895 319.526C190.25 315.627 261.77 260.705 292.963 233.634C297.308 229.958 293.074 223.163 287.838 225.279Z" fill="black"/>
<path d="M72.943 219.376C57.2353 229.848 54.3388 233.858 60.1317 236.755C71.4948 242.548 78.8475 233.858 92.7728 224.835C102.242 218.596 85.5315 210.909 72.943 219.376Z" fill="black"/>
<path d="M121.849 241.1C133.769 235.307 150.813 223.498 170.977 206.788C179.555 199.658 197.157 186.734 210.079 178.045C233.14 162.56 235.702 160.332 232.026 158.995C228.906 157.769 228.238 158.105 190.361 180.942C152.373 203.891 124.522 221.938 111.6 232.187C95.335 244.999 106.141 248.786 121.849 241.1Z" fill="black"/>
<path d="M115.387 206.008C123.631 201.44 139.45 190.3 173.205 166.683C219.883 134.042 248.959 115.215 253.415 110.424L256.757 106.859C251.967 102.96 249.07 99.3952 233.697 107.416C212.976 118.111 140.787 169.467 113.716 191.97C98.4543 204.447 102.91 212.915 115.387 206.008Z" fill="black"/>
<path d="M101.351 277.194C89.7649 286.44 89.4306 286.886 93.7753 290.117C102.242 296.355 133.435 281.204 128.421 273.183C123.631 265.497 114.162 266.834 101.351 277.194Z" fill="black"/>
<path d="M373.173 88.5885C365.152 92.599 199.83 204.336 148.92 243.215C127.196 259.814 141.01 262.376 156.049 255.135C175.322 245.889 184.791 233.077 319.7 143.398C373.73 107.416 388.769 95.718 388.769 89.4795C388.769 85.6918 379.857 85.2464 373.173 88.5885Z" fill="black"/>
<path d="M296.305 189.63C306.22 180.607 330.617 162.337 337.524 157.435C340.42 155.096 332.845 153.647 328.946 155.764C262.661 192.081 202.17 240.765 222.222 240.765C230.578 240.765 270.237 213.582 296.305 189.63Z" fill="black"/>
<path d="M330.84 189.854C302.766 205.562 297.419 211.131 306.777 215.587C314.129 219.041 316.358 218.038 336.521 202.776C362.924 182.724 352.898 177.489 330.84 189.854Z" fill="black"/>
<path d="M198.828 340.805C186.239 348.937 184.234 353.839 192.032 357.626C200.387 361.748 212.865 356.178 218.769 345.818C221.777 340.359 205.735 336.349 198.828 340.805Z" fill="black"/>
<path d="M329.169 240.988C316.915 249.9 288.284 271.958 258.428 291.899C217.098 319.527 208.965 328.55 221.554 332.227C229.241 334.455 246.285 322.646 276.81 293.236C287.838 282.541 316.469 258.59 331.62 246.892C339.863 240.542 337.413 234.972 329.169 240.988Z" fill="black"/>
</svg>
