<svg width="446" height="446" viewBox="0 0 446 446" fill="none" xmlns="http://www.w3.org/2000/svg">
<path d="M297.484 330.898C296.927 330.898 293.139 326.776 289.128 321.763C276.429 305.609 266.959 302.156 259.495 310.845L255.373 315.636L252.811 308.06C247.575 292.464 236.435 286.894 229.751 296.586C223.735 305.275 221.841 311.18 221.173 311.737C221.062 311.959 218.722 311.068 216.048 309.843C203.906 304.273 199.338 309.063 180.4 324.325L177.392 320.649C161.238 300.93 147.647 301.376 126.481 322.32C119.128 329.561 116.343 331.789 115.675 330.675C98.6301 300.485 80.1376 292.13 70.8912 310.623C62.8702 326.664 59.5278 337.693 61.0874 344.155C62.9813 352.621 76.2386 355.072 78.2438 339.253C78.8009 335.02 84.7049 318.866 86.8215 315.413C88.2697 313.185 88.7156 313.853 100.413 333.571C109.771 349.279 120.576 363.539 131.717 344.489C151.769 310.4 163.801 305.832 173.938 328.336C177.949 337.359 188.866 339.476 192.765 332.012C195.662 326.33 201.789 319.423 206.802 316.304L210.701 313.965L215.046 318.532C222.733 326.33 231.199 328.67 235.544 316.193C237.995 309.063 238.663 309.508 241.114 319.535C245.57 338.362 260.387 346.16 269.076 325.773C272.752 317.195 272.641 317.195 277.988 324.993C284.115 333.906 290.354 337.025 296.815 334.685C298.709 333.906 299.266 330.898 297.484 330.898Z" fill="black"/>
<path d="M363.768 216.153C353.073 210.806 342.824 210.583 335.472 215.596C331.461 218.27 330.459 218.604 329.679 217.267C323.329 206.016 313.748 199.888 306.841 202.785C304.056 203.899 302.274 211.473 299.6 220.831C293.696 216.486 279.102 209.023 271.75 209.246C261.501 209.58 255.039 219.717 250.695 223.839L248.355 218.603C239.22 197.993 224.515 200.11 211.481 223.839L205.577 234.646L202.457 228.185C190.203 202.228 175.832 203.341 160.347 231.414L154.443 241.997C145.085 227.07 133.499 202.116 116.232 205.013C108.099 206.35 101.861 216.041 92.7262 237.764C79.0237 270.516 102.752 263.275 106.762 253.138C118.46 223.393 123.027 218.493 129.043 228.742C136.953 242.221 148.093 258.932 149.987 260.491C155.891 265.17 165.137 264.725 166.92 259.934C178.84 228.296 182.516 228.852 184.076 226.067C189.869 240.772 192.988 249.128 195.773 254.141C200.006 261.717 211.592 269.515 220.282 249.351C229.974 226.848 233.539 219.941 234.318 222.28C241.448 246.789 254.482 250.911 265.734 232.084C271.861 221.835 275.872 218.603 277.097 217.155C299.712 235.536 296.815 233.642 299.377 234.756C308.178 238.544 317.09 232.529 317.202 220.721C317.202 219.718 318.539 220.832 320.21 223.172C326.782 232.418 336.363 233.976 344.607 227.181C351.625 221.388 353.965 220.497 358.978 221.945C371.232 225.176 374.24 221.389 363.768 216.153Z" fill="black"/>
<path d="M359.423 137.502L355.079 137.614C347.169 123.243 343.381 115.668 339.26 111.769C333.801 106.644 319.764 101.965 316.088 126.139C313.414 143.963 312.523 146.527 309.849 145.524C305.727 143.853 294.587 142.85 289.908 143.742C285.229 144.633 285.007 144.521 282.779 140.956C277.431 132.156 263.617 131.487 251.14 139.397C248.132 141.291 245.681 142.626 245.57 142.515C245.459 142.292 243.788 138.727 241.894 134.717C236.435 122.908 231.979 123.466 219.39 123.466V113.55C219.39 85.2544 200.006 88.1511 187.864 102.633C181.959 109.763 174.829 121.015 166.363 136.5L158.676 150.426C148.873 150.426 148.984 150.983 143.414 145.413C137.844 139.842 134.168 139.063 125.812 142.07C123.25 143.073 120.911 143.742 120.799 143.742C117.012 143.742 127.595 104.973 103.42 104.862C95.0651 104.862 90.2749 110.543 71.782 142.07C49.0559 180.839 76.0155 173.597 79.1347 166.356C81.9198 159.895 95.845 137.502 99.6327 131.375C100.301 136.276 101.081 142.182 101.192 150.537C101.415 166.579 117.457 168.584 127.149 153.879C133.054 144.967 141.743 147.751 140.072 158.111C139.626 160.562 142.077 163.794 144.305 163.794C148.761 163.794 158.787 170.144 165.36 167.804C170.262 166.133 174.161 160.118 181.514 146.861C183.742 142.739 188.198 135.052 191.985 128.479C193.879 125.137 199.004 126.473 199.004 130.261C201.232 138.95 193.322 152.988 210.033 152.988C214.489 152.988 218.611 150.871 221.619 146.861C225.852 141.068 225.295 140.845 230.531 149.423C236.658 159.561 246.461 160.451 258.827 151.761C266.514 146.414 267.182 146.08 268.296 148.085C271.527 154.212 281.999 156.886 292.693 154.212C299.377 152.541 300.157 152.541 306.953 154.769C323.775 160.339 330.347 156.219 332.464 139.063L333.244 132.713L336.029 136.835C342.602 146.638 349.174 151.65 356.304 151.984C357.195 151.984 383.264 149.423 384.712 147.195C387.72 142.628 373.015 137.056 359.423 137.502Z" fill="black"/>
</svg>
