<svg width="24" height="24" viewBox="0 0 24 24" fill="none" xmlns="http://www.w3.org/2000/svg">
<path d="M20.25 5.25H3.75C2.50736 5.25 1.5 6.25736 1.5 7.5V16.5C1.5 17.7426 2.50736 18.75 3.75 18.75H20.25C21.4926 18.75 22.5 17.7426 22.5 16.5V7.5C22.5 6.25736 21.4926 5.25 20.25 5.25Z" fill="#E6E6E6"/>
<path d="M6.63517 9.65996C6.83827 9.40593 6.97605 9.06483 6.93975 8.71631C6.64245 8.73108 6.27967 8.91243 6.0696 9.16668C5.88097 9.38441 5.7141 9.73976 5.7576 10.0737C6.09135 10.1026 6.42472 9.90686 6.63517 9.65996Z" fill="#1A1A1A"/>
<path d="M6.93593 10.1389C6.45128 10.11 6.03923 10.414 5.80778 10.414C5.57618 10.414 5.22181 10.1534 4.83848 10.1605C4.33958 10.1678 3.87661 10.4499 3.62341 10.8986C3.10261 11.7962 3.48601 13.1276 3.99241 13.8586C4.23833 14.2202 4.53473 14.6185 4.92526 14.6042C5.29426 14.5897 5.43886 14.3652 5.88736 14.3652C6.33556 14.3652 6.46583 14.6042 6.85643 14.5969C7.26151 14.5896 7.51471 14.235 7.76063 13.8731C8.04278 13.4608 8.15828 13.0627 8.16548 13.0409C8.15821 13.0336 7.38443 12.7367 7.37723 11.8466C7.36996 11.1014 7.98473 10.7468 8.01368 10.7249C7.66651 10.2113 7.12396 10.1534 6.93593 10.1389Z" fill="#1A1A1A"/>
<path d="M11.156 9.13013C12.2093 9.13013 12.9428 9.8562 12.9428 10.9134C12.9428 11.9744 12.1943 12.7043 11.1295 12.7043H9.96315V14.559H9.12053V9.13013H11.156ZM9.96323 11.9969H10.9301C11.6638 11.9969 12.0814 11.602 12.0814 10.9172C12.0814 10.2325 11.6639 9.84128 10.934 9.84128H9.9633L9.96323 11.9969Z" fill="#1A1A1A"/>
<path d="M13.163 13.434C13.163 12.7417 13.6935 12.3166 14.6342 12.2639L15.7176 12.2V11.8953C15.7176 11.4551 15.4204 11.1917 14.9239 11.1917C14.4535 11.1917 14.16 11.4174 14.0886 11.7711H13.3211C13.3663 11.0562 13.9757 10.5295 14.9539 10.5295C15.9132 10.5295 16.5264 11.0374 16.5264 11.8312V14.5588H15.7476V13.908H15.7289C15.4994 14.3482 14.999 14.6266 14.4798 14.6266C13.7048 14.6266 13.163 14.145 13.163 13.434ZM15.7175 13.0766V12.7644L14.7431 12.8245C14.2577 12.8584 13.9832 13.0729 13.9832 13.4115C13.9832 13.7575 14.2691 13.9833 14.7055 13.9833C15.2735 13.9833 15.7175 13.592 15.7175 13.0766Z" fill="#1A1A1A"/>
<path d="M17.2616 16.0149V15.3565C17.3217 15.3715 17.4571 15.3715 17.5249 15.3715C17.9011 15.3715 18.1042 15.2136 18.2284 14.8072C18.2284 14.7996 18.2999 14.5665 18.2999 14.5626L16.8703 10.6011H17.7506L18.7515 13.8216H18.7664L19.7673 10.6011H20.6251L19.1427 14.7658C18.8042 15.7252 18.4129 16.0337 17.5928 16.0337C17.525 16.0337 17.3217 16.0262 17.2616 16.0149Z" fill="#1A1A1A"/>
</svg>
