<svg width="24" height="24" viewBox="0 0 24 24" fill="none" xmlns="http://www.w3.org/2000/svg">
<path d="M20.25 5.25H3.75C2.50736 5.25 1.5 6.25736 1.5 7.5V16.5C1.5 17.7426 2.50736 18.75 3.75 18.75H20.25C21.4926 18.75 22.5 17.7426 22.5 16.5V7.5C22.5 6.25736 21.4926 5.25 20.25 5.25Z" fill="#1434CB"/>
<path d="M10.044 9.46802L7.91551 14.5455H6.52726L5.47951 10.4933C5.41576 10.2443 5.36101 10.1528 5.16751 10.047C4.85176 9.87527 4.32976 9.71477 3.87151 9.61502L3.90226 9.46802H6.13726C6.42226 9.46802 6.67801 9.65777 6.74326 9.98552L7.29676 12.924L8.66326 9.46802H10.044Z" fill="white"/>
<path d="M15.4845 12.8873C15.4905 11.547 13.632 11.4727 13.6448 10.8742C13.6485 10.692 13.8225 10.4985 14.202 10.449C14.3903 10.425 14.9093 10.4055 15.4973 10.6762L15.7275 9.59925C15.4118 9.48525 15.0045 9.375 14.499 9.375C13.2 9.375 12.2865 10.065 12.2798 11.0535C12.2715 11.7847 12.9323 12.192 13.4295 12.4357C13.9418 12.6847 14.1135 12.8445 14.1113 13.0665C14.1075 13.407 13.7025 13.5577 13.326 13.5637C12.6653 13.5742 12.282 13.3852 11.9768 13.2427L11.7383 14.3558C12.0458 14.4968 12.612 14.619 13.1985 14.625C14.5793 14.625 15.4815 13.9433 15.486 12.8873" fill="white"/>
<path d="M19.0672 9.46802H17.9467C17.694 9.46802 17.4817 9.61427 17.3872 9.84002L15.4162 14.5455H16.7955L17.0692 13.7873H18.7545L18.9135 14.5455H20.1285L19.0672 9.46802ZM17.4472 12.747L18.1387 10.8405L18.5362 12.747H17.4472Z" fill="white"/>
<path d="M11.9205 9.46802L10.8345 14.5455H9.52126L10.6073 9.46802H11.9205Z" fill="white"/>
</svg>
