<svg width="24" height="24" viewBox="0 0 24 24" fill="none" xmlns="http://www.w3.org/2000/svg">
<path d="M19.36 4.63984L5.83005 18.1698L4.73005 17.3498C4.08005 16.8598 3.55005 15.7998 3.55005 14.9798V6.88984C3.55005 5.75984 4.41005 4.51984 5.46005 4.11984L10.96 2.05984C11.53 1.84984 12.47 1.84984 13.04 2.05984L18.54 4.11984C18.83 4.22984 19.11 4.40984 19.36 4.63984Z" fill="#292D32"/>
<path d="M20.45 14.9798C20.45 15.7998 19.92 16.8598 19.27 17.3498L13.77 21.4598C12.79 22.1798 11.21 22.1798 10.23 21.4598L8.46999 20.1498C7.97999 19.7898 7.92999 19.0698 8.35999 18.6398L18.74 8.25983C19.37 7.62983 20.45 8.07983 20.45 8.96983V14.9798Z" fill="#292D32"/>
<path d="M21.77 2.22988C21.47 1.92988 20.98 1.92988 20.68 2.22988L2.23 20.6899C1.93 20.9899 1.93 21.4799 2.23 21.7799C2.38 21.9199 2.57 21.9999 2.77 21.9999C2.97 21.9999 3.16 21.9199 3.31 21.7699L21.77 3.30988C22.08 3.00988 22.08 2.52988 21.77 2.22988Z" fill="#292D32"/>
</svg>
