<svg width="32" height="25" viewBox="0 0 32 25" fill="none" xmlns="http://www.w3.org/2000/svg">
<g filter="url(#filter0_d_2066_1183)">
<g clip-path="url(#clip0_2066_1183)">
<path d="M28 13.7469C27.9514 14.6345 27.5704 15.4685 26.9365 16.0747C26.3026 16.6809 25.4649 17.0124 24.5984 17H16.4224C16.2424 16.9983 16.0704 16.924 15.9434 16.7931C15.8165 16.6623 15.7448 16.4854 15.744 16.3008V7.27037C15.7381 7.11541 15.778 6.96223 15.8585 6.83099C15.9391 6.69975 16.0564 6.59658 16.1952 6.53507C16.1952 6.53507 16.9472 6 18.5312 6C19.4989 5.99881 20.4488 6.26652 21.28 6.7747C21.9288 7.16626 22.4913 7.6917 22.932 8.31775C23.3726 8.94381 23.6818 9.65687 23.84 10.4118C24.1221 10.33 24.414 10.2891 24.7072 10.2904C25.1469 10.2875 25.5827 10.3756 25.9885 10.5493C26.3943 10.723 26.7618 10.9788 27.0691 11.3014C27.3764 11.624 27.6173 12.0068 27.7772 12.427C27.9371 12.8472 28.0129 13.2961 28 13.7469ZM14.7232 7.84154C14.7273 7.80348 14.7235 7.76495 14.7121 7.72848C14.7007 7.69201 14.6819 7.65842 14.657 7.62989C14.6321 7.60136 14.6016 7.57855 14.5675 7.56292C14.5335 7.5473 14.4965 7.53923 14.4592 7.53923C14.4219 7.53923 14.385 7.5473 14.3509 7.56292C14.3168 7.57855 14.2863 7.60136 14.2614 7.62989C14.2365 7.65842 14.2177 7.69201 14.2063 7.72848C14.1949 7.76495 14.1911 7.80348 14.1952 7.84154C13.9712 10.878 13.7984 13.724 14.1952 16.7505C14.2024 16.8172 14.2333 16.8788 14.282 16.9236C14.3307 16.9684 14.3938 16.9931 14.4592 16.9931C14.5246 16.9931 14.5877 16.9684 14.6364 16.9236C14.6851 16.8788 14.716 16.8172 14.7232 16.7505C15.1488 13.6977 14.9696 10.9042 14.7232 7.84154ZM13.072 8.89198C13.0647 8.82193 13.0323 8.75715 12.9812 8.71008C12.9301 8.663 12.8639 8.63696 12.7952 8.63696C12.7265 8.63696 12.6603 8.663 12.6092 8.71008C12.5581 8.75715 12.5258 8.82193 12.5184 8.89198C12.2224 11.5038 12.2224 14.142 12.5184 16.7538C12.5285 16.8213 12.5618 16.8828 12.6122 16.9273C12.6627 16.9718 12.7271 16.9962 12.7936 16.9962C12.8601 16.9962 12.9245 16.9718 12.975 16.9273C13.0255 16.8828 13.0587 16.8213 13.0688 16.7538C13.3995 14.1442 13.4005 11.5018 13.072 8.89198ZM11.4112 8.62609C11.404 8.55856 11.3727 8.49614 11.3234 8.4508C11.2741 8.40546 11.2102 8.38039 11.144 8.38039C11.0778 8.38039 11.0139 8.40546 10.9646 8.4508C10.9153 8.49614 10.884 8.55856 10.8768 8.62609C10.624 11.3966 10.496 13.9833 10.8768 16.7472C10.8768 16.8195 10.9048 16.8888 10.9546 16.9399C11.0044 16.991 11.072 17.0197 11.1424 17.0197C11.2128 17.0197 11.2804 16.991 11.3302 16.9399C11.38 16.8888 11.408 16.8195 11.408 16.7472C11.8016 13.9472 11.68 11.4327 11.4112 8.62609ZM9.76 9.41719C9.76 9.34232 9.73101 9.27052 9.6794 9.21757C9.62779 9.16463 9.55779 9.13489 9.4848 9.13489C9.41182 9.13489 9.34182 9.16463 9.29021 9.21757C9.2386 9.27052 9.2096 9.34232 9.2096 9.41719C8.90399 11.8538 8.90399 14.3205 9.2096 16.7571C9.21687 16.8255 9.24848 16.8887 9.29838 16.9346C9.34829 16.9805 9.41297 17.0059 9.48 17.0059C9.54704 17.0059 9.61172 16.9805 9.66162 16.9346C9.71153 16.8887 9.74314 16.8255 9.7504 16.7571C10.0816 14.3225 10.0848 11.8527 9.76 9.41719ZM8.0928 11.2522C8.0928 11.1782 8.06415 11.1072 8.01314 11.0549C7.96213 11.0025 7.89294 10.9731 7.8208 10.9731C7.74867 10.9731 7.67948 11.0025 7.62847 11.0549C7.57746 11.1072 7.5488 11.1782 7.5488 11.2522C7.1552 13.1429 7.3408 14.863 7.5648 16.7768C7.57447 16.8393 7.60556 16.8962 7.65249 16.9373C7.69942 16.9784 7.7591 17.001 7.8208 17.001C7.88251 17.001 7.94219 16.9784 7.98912 16.9373C8.03605 16.8962 8.06714 16.8393 8.0768 16.7768C8.3232 14.8368 8.512 13.1561 8.0928 11.2522ZM6.4384 10.9633C6.43101 10.8924 6.39832 10.8268 6.34663 10.7792C6.29494 10.7315 6.2279 10.7052 6.1584 10.7052C6.08891 10.7052 6.02187 10.7315 5.97018 10.7792C5.91849 10.8268 5.8858 10.8924 5.8784 10.9633C5.5296 12.8935 5.6448 14.5939 5.888 16.5207C5.9136 16.8129 6.3968 16.8096 6.4288 16.5207C6.6976 14.5643 6.8224 12.9132 6.4384 10.9633ZM4.768 11.9087C4.76061 11.8378 4.72792 11.7722 4.67623 11.7246C4.62454 11.6769 4.5575 11.6506 4.488 11.6506C4.41851 11.6506 4.35147 11.6769 4.29978 11.7246C4.24809 11.7722 4.2154 11.8378 4.208 11.9087C3.888 13.2053 3.9872 14.2787 4.2304 15.5786C4.23753 15.6445 4.26807 15.7053 4.31619 15.7495C4.36431 15.7937 4.42662 15.8181 4.4912 15.8181C4.55579 15.8181 4.6181 15.7937 4.66622 15.7495C4.71434 15.7053 4.74488 15.6445 4.752 15.5786C5.0336 14.2525 5.1712 13.202 4.768 11.9087Z" fill="currentColor"/>
</g>
</g>
<defs>
<filter id="filter0_d_2066_1183" x="0" y="0" width="32" height="32" filterUnits="userSpaceOnUse" color-interpolation-filters="sRGB">
<feFlood flood-opacity="0" result="BackgroundImageFix"/>
<feColorMatrix in="SourceAlpha" type="matrix" values="0 0 0 0 0 0 0 0 0 0 0 0 0 0 0 0 0 0 127 0" result="hardAlpha"/>
<feOffset dy="4"/>
<feGaussianBlur stdDeviation="2"/>
<feComposite in2="hardAlpha" operator="out"/>
<feColorMatrix type="matrix" values="0 0 0 0 0 0 0 0 0 0 0 0 0 0 0 0 0 0 0.25 0"/>
<feBlend mode="normal" in2="BackgroundImageFix" result="effect1_dropShadow_2066_1183"/>
<feBlend mode="normal" in="SourceGraphic" in2="effect1_dropShadow_2066_1183" result="shape"/>
</filter>
<clipPath id="clip0_2066_1183">
<rect width="24" height="11" fill="white" transform="translate(4 6)"/>
</clipPath>
</defs>
</svg>
