<svg width="24" height="24" viewBox="0 0 24 24" fill="none" xmlns="http://www.w3.org/2000/svg"><g clip-path="url(#clip0_2066_1139)" fill="currentColor"><path fill-rule="evenodd" clip-rule="evenodd" d="M1.878 9.781C1.832 9.781 1.82 9.758 1.843 9.723L2.087 9.411C2.11 9.377 2.168 9.354 2.214 9.354H6.354C6.4 9.354 6.412 9.388 6.388 9.423L6.191 9.723C6.168 9.758 6.11 9.792 6.075 9.792L1.878 9.781ZM.128 10.842C.081 10.842.07 10.819.093 10.785L.336 10.473C.359 10.439.417 10.415.464 10.415H5.751C5.797 10.415 5.82 10.45 5.809 10.485L5.716 10.762C5.704 10.808 5.658 10.831 5.612 10.831L.128 10.842ZM2.933 11.904C2.887 11.904 2.875 11.869 2.899 11.835L3.061 11.546C3.084 11.512 3.13 11.477 3.177 11.477H5.496C5.542 11.477 5.565 11.512 5.565 11.558L5.542 11.835C5.542 11.881 5.496 11.915 5.461 11.915L2.933 11.904ZM14.968 9.573C14.238 9.758 13.739 9.896 13.02 10.081 12.846 10.127 12.835 10.138 12.684 9.965 12.51 9.769 12.383 9.642 12.139 9.527 11.409 9.169 10.701 9.273 10.041 9.7 9.252 10.208 8.846 10.958 8.858 11.892 8.87 12.815 9.507 13.577 10.423 13.704 11.212 13.808 11.872 13.531 12.394 12.942 12.499 12.815 12.591 12.677 12.707 12.515 12.29 12.515 11.768 12.515 10.47 12.515 10.226 12.515 10.168 12.365 10.249 12.169 10.4 11.812 10.678 11.212 10.841 10.912 10.875 10.842 10.957 10.727 11.13 10.727H15.351C15.328 11.038 15.328 11.35 15.281 11.662 15.154 12.492 14.841 13.254 14.33 13.923 13.496 15.019 12.406 15.7 11.026 15.885 9.89 16.035 8.835 15.815 7.907 15.123 7.049 14.477 6.562 13.623 6.435 12.562 6.284 11.304 6.655 10.173 7.42 9.181 8.243 8.108 9.333 7.427 10.667 7.185 11.757 6.988 12.8 7.115 13.739 7.75 14.354 8.154 14.794 8.708 15.084 9.377 15.154 9.481 15.107 9.538 14.968 9.573Z"/><path d="M18.8058 15.9538C17.7507 15.9307 16.7884 15.6307 15.9768 14.9384C15.2927 14.3499 14.8638 13.5999 14.7246 12.7115C14.5159 11.4076 14.8753 10.2538 15.6637 9.22686C16.5101 8.11917 17.5304 7.54224 18.9101 7.29994C20.0927 7.09224 21.2058 7.20763 22.2145 7.8884C23.1304 8.51147 23.6985 9.35378 23.8493 10.4615C24.0464 12.0192 23.5942 13.2884 22.5159 14.373C21.7507 15.1461 20.8116 15.6307 19.7333 15.8499C19.4203 15.9076 19.1072 15.9192 18.8058 15.9538ZM21.5652 11.2922C21.5536 11.1422 21.5536 11.0269 21.5304 10.9115C21.3217 9.76917 20.2666 9.12301 19.1652 9.37686C18.0869 9.61917 17.3913 10.2999 17.1362 11.3846C16.9275 12.2846 17.3681 13.1961 18.2029 13.5653C18.8406 13.8422 19.4782 13.8076 20.0927 13.4961C21.0087 13.023 21.5072 12.2846 21.5652 11.2922Z"/></g><defs><clipPath id="clip0_2066_1139"><path fill="#fff" transform="translate(0 7)" d="M0 0H24V9H0z"/></clipPath></defs></svg>