<svg width="24" height="24" viewBox="0 0 24 24" fill="none" xmlns="http://www.w3.org/2000/svg"><path d="M23.98 12.24H.02C.039 13.234.179 14.199.426 15.12H23.574C23.821 14.199 23.961 13.234 23.98 12.24ZM23.434 15.6H.566C.831 16.444 1.186 17.248 1.62 18H22.38C22.814 17.248 23.17 16.444 23.434 15.6ZM22.087 18.48H1.913C2.357 19.172 2.87 19.815 3.443 20.4H20.557C21.13 19.815 21.643 19.172 22.087 18.48ZM20.06 20.88H3.94C4.655 21.531 5.448 22.096 6.304 22.56H17.696C18.552 22.096 19.346 21.531 20.06 20.88ZM16.704 23.04H7.296C8.74 23.658 10.33 24 12 24 13.67 24 15.26 23.658 16.704 23.04ZM23.98 11.76H.02C.045 10.459.277 9.208.685 8.04H23.315C23.723 9.208 23.955 10.459 23.98 11.76ZM23.136 7.56C21.373 3.131 17.052 0 12 0 6.948 0 2.627 3.131.864 7.56H23.136Z" fill="currentColor"/></svg>