<svg width="24" height="24" viewBox="0 0 24 24" fill="none" xmlns="http://www.w3.org/2000/svg"><path d="M16.68 4.68C16.68 7.265 14.585 9.36 12 9.36 9.415 9.36 7.32 7.265 7.32 4.68 7.32 2.095 9.415 0 12 0 14.585 0 16.68 2.095 16.68 4.68ZM16.68 19.32C16.68 21.905 14.585 24 12 24 9.415 24 7.32 21.905 7.32 19.32 7.32 16.735 9.415 14.64 12 14.64 14.585 14.64 16.68 16.735 16.68 19.32ZM19.32 16.68C16.735 16.68 14.64 14.585 14.64 12 14.64 9.415 16.735 7.32 19.32 7.32 21.905 7.32 24 9.415 24 12 24 14.585 21.905 16.68 19.32 16.68ZM4.68 16.68C2.095 16.68 0 14.585 0 12 0 9.415 2.095 7.32 4.68 7.32 7.265 7.32 9.36 9.415 9.36 12 9.36 14.585 7.265 16.68 4.68 16.68Z" fill="currentColor"/></svg>