<svg width="500" height="500" viewBox="0 0 500 500" fill="none" xmlns="http://www.w3.org/2000/svg">
<path d="M56.144 0H0V9.77298C3.65071 8.07012 6.74956 7.15799 10.1157 7.15799C21.8683 7.15799 32.3066 10.3782 43.6436 16.0467C48.0048 18.2273 51.9523 20.5234 56.1747 22.9795L56.1757 22.98L56.1771 22.9809C58.4096 24.2795 60.719 25.6227 63.2071 27.0173C70.0636 30.8604 77.6359 34.6899 86.3351 37.2081C95.5947 39.8885 107.154 39.4375 117.155 36.0038C127.119 32.5825 137.61 25.3857 141.131 12.8654C142.308 8.67926 142.587 4.2933 142.255 0H122.149C122.548 2.93623 122.426 5.50157 121.878 7.45053C120.805 11.2652 117.195 14.8439 110.66 17.0878C104.161 19.3192 96.823 19.423 91.8963 17.9968C85.3793 16.1103 79.3673 13.1477 72.9857 9.57086C71.081 8.50324 69.0622 7.33066 66.9661 6.11319L66.9649 6.11251L66.9615 6.11053C63.5103 4.10589 59.8497 1.97967 56.144 0Z" fill="#2E3120"/>
<path d="M203.025 0C205.586 3.66836 208.333 6.90699 210.877 9.56842C215.801 14.7206 221.793 16.8649 227.908 16.7228C233.47 16.5936 238.618 14.5902 242.656 12.6575C245.588 11.254 248.691 9.49181 251.334 7.9903C252.276 7.45583 253.159 6.9542 253.955 6.51375C257.478 4.56525 259.71 3.56407 261.209 3.2291C266.177 2.1183 271.823 1.54258 276.485 2.29505C280.996 3.02316 283.251 4.69235 284.407 7.0258C292.204 22.7665 304.945 39.6956 325.506 45.5553C340.49 49.8258 354.448 44.1948 364.735 38.0336C369.631 35.1017 373.677 31.804 377.223 28.7967C377.933 28.1941 378.616 27.6103 379.28 27.0426L379.289 27.0347C382.066 24.6593 384.513 22.5674 387.276 20.567L395.377 14.7035L384.734 0H381.581L375.549 4.3659C372.063 6.88918 368.871 9.6222 366.056 12.0327C365.448 12.5533 364.858 13.0588 364.286 13.544C360.923 16.3962 357.894 18.8181 354.459 20.8755C345.8 26.0616 337.962 28.3089 330.987 26.3212C319.015 22.9092 309.997 12.8824 303.27 0H203.025Z" fill="#2E3120"/>
<path d="M422.404 0C424.742 4.87668 427.928 9.39032 432.079 13.2547C438.724 19.4414 448.837 21.4686 456.718 21.9961C465.005 22.5507 473.982 21.6411 480.437 19.3681C485.443 17.6055 490.37 14.8995 494.274 12.7559C495.529 12.0663 496.679 11.4349 497.691 10.9119C498.489 10.5 499.256 10.12 500 9.77284V0H475.14C474.701 0.173964 474.253 0.341735 473.794 0.503418C470.568 1.63937 464.449 2.46877 458.054 2.04073C453.557 1.73977 450.216 0.904647 448.067 0H422.404Z" fill="#2E3120"/>
<path d="M500 53.4655C490.436 47.4941 477.52 43.9616 465.591 45.2727C454.792 46.4596 445.355 52.7503 438.696 59.5744C432.127 66.3063 426.683 75.1817 425.455 83.6028C423.386 97.7839 427.075 117.199 442.141 128.79C450.349 135.104 460.489 138.102 469.032 140.378C470.511 140.772 471.944 141.145 473.335 141.508H473.338C480.654 143.415 486.8 145.016 492.146 147.655C495.623 149.37 498.171 151.366 500 153.451V129.239C492.879 125.892 484.825 123.811 477.899 122.022C476.616 121.691 475.372 121.369 474.18 121.052C465.537 118.75 459.023 116.544 454.336 112.938C446.784 107.128 443.851 96.0481 445.245 86.4902C445.653 83.6943 448.173 78.4995 453.01 73.5421C457.758 68.677 463.169 65.6593 467.776 65.153C475.987 64.2505 485.857 67.4309 491.72 72.046C492.106 72.3498 492.716 73.0443 493.454 74.7003C494.067 76.0767 494.491 77.4168 495.047 79.1717V79.1734C495.221 79.7225 495.408 80.3122 495.617 80.9564L498.708 90.4668L500 90.0468V53.4655Z" fill="#2E3120"/>
<path d="M500 176.732C497.738 179.855 494.517 183.009 490.505 185.504C483.849 189.643 476.135 191.291 468.559 188.871C462.672 186.992 460.651 183.765 459.838 180.074C458.85 175.586 459.663 169.749 461.576 164.231L464.851 154.782L445.954 148.232L442.679 157.681C440.146 164.989 438.21 174.857 440.306 184.375C442.578 194.69 449.473 203.771 462.474 207.923C476.35 212.355 489.684 209.216 500 203.134V176.732Z" fill="#2E3120"/>
<path d="M500 310.807C498.386 307.13 497.33 302.92 497.33 299.584C497.33 298.129 497.552 296.549 497.951 294.256C497.989 294.042 498.028 293.819 498.069 293.587L498.087 293.486C498.44 291.492 498.904 288.873 499.078 286.198C499.767 275.612 498.398 264.939 491.722 255.016C487.841 249.248 481.732 242.183 472.479 239.685C465.412 237.778 457.56 238.836 452.7 239.491L452.688 239.492C452.165 239.563 451.676 239.629 451.227 239.685C444.651 240.518 439.159 240.499 433.921 238.951C428.737 237.42 424.827 234.024 422.97 228.12C419.702 217.734 411.194 204.144 396.453 202.19C385.895 200.792 376.088 206.175 369.519 212.751C362.832 219.444 357.616 229.17 357.616 239.662C357.616 250.663 361.254 262.18 365.713 271.308C367.977 275.943 370.588 280.242 373.328 283.797C375.908 287.147 379.205 290.634 383.056 292.689C388.175 295.419 393.439 296.821 398.155 297.746C400.514 298.208 402.851 298.571 404.993 298.896L405.736 299.009C407.645 299.298 409.383 299.561 411.092 299.869C416.694 300.877 422.208 302.511 427.594 304.742C436.983 308.633 443.085 316.916 445.055 330.008C445.149 351.146 449.348 366.462 456.721 378.346C464.122 390.274 474.134 397.747 483.579 404C487.015 406.275 491.431 407.694 495.526 408.546C496.963 408.844 498.461 409.094 500 409.287V389.045C499.865 389.019 499.731 388.992 499.598 388.964C496.635 388.348 495.029 387.594 494.619 387.323C485.778 381.47 478.767 375.943 473.716 367.802C468.723 359.754 465.053 348.147 465.053 329.279V328.589L464.959 327.906C462.369 309.218 452.872 293.568 435.25 286.266C428.589 283.506 421.698 281.456 414.634 280.185C412.632 279.825 410.603 279.518 408.727 279.234L407.996 279.123C405.859 278.798 403.899 278.491 402.002 278.119C398.205 277.375 395.112 276.451 392.469 275.042C392.472 275.044 392.473 275.044 392.472 275.043L392.469 275.042L392.467 275.04C392.421 275.01 392.09 274.799 391.498 274.236C390.852 273.621 390.062 272.748 389.172 271.592C387.385 269.273 385.458 266.162 383.683 262.529C380.063 255.118 377.616 246.661 377.616 239.662C377.616 235.674 379.782 230.776 383.667 226.887C387.67 222.881 391.625 221.726 393.826 222.017C396.903 222.425 401.454 226.373 403.892 234.122C407.871 246.773 417.093 254.834 428.255 258.132C437.244 260.787 445.849 260.526 453.739 259.527L454.429 259.44C460.44 258.677 464.284 258.189 467.268 258.995C469.447 259.583 472.091 261.667 475.128 266.181C478.504 271.199 479.637 276.962 479.12 284.901C479.023 286.402 478.764 287.878 478.392 289.998C478.346 290.262 478.298 290.538 478.248 290.824C477.84 293.168 477.33 296.243 477.33 299.584C477.33 306.66 479.438 313.907 481.965 319.468C485.587 327.438 493.122 332.79 498.596 335.438C499.06 335.663 499.528 335.913 500 336.185V310.807Z" fill="#2E3120"/>
<path d="M500 434.018C498.054 433.273 495.865 432.32 493.341 431.125C487.327 428.276 479.373 424.942 470.946 423.317C462.569 421.701 452.601 421.56 443.486 426.468C428.589 434.49 420.115 450.957 417.85 466.897C416.308 477.75 417.458 489.687 422.402 500H448.058C446.961 499.538 446.176 499.057 445.707 498.621C439.01 492.385 435.982 481.456 437.651 469.71C439.326 457.918 445.332 448.189 452.968 444.078C456.433 442.212 461.136 441.793 467.158 442.955C473.129 444.106 479.301 446.604 484.779 449.199C489.962 451.655 494.936 453.723 500 454.976V434.018Z" fill="#2E3120"/>
<path d="M500 488.51C495.649 489.671 491.843 491.426 488.51 493.148C486.543 494.164 484.84 495.1 483.277 495.958C480.348 497.567 477.911 498.906 475.15 500H500V488.51Z" fill="#2E3120"/>
<path d="M384.732 500L383.65 498.505L381.584 500H384.732Z" fill="#2E3120"/>
<path d="M303.269 500C302.95 499.39 302.637 498.773 302.329 498.151C297.318 488.036 287.995 483.897 279.672 482.553C271.5 481.234 263.06 482.324 256.844 483.714C252.241 484.743 247.757 487.089 244.275 489.015C243.044 489.696 241.906 490.343 240.824 490.957L240.814 490.963L240.81 490.965C238.407 492.33 236.279 493.539 234.021 494.62C230.803 496.16 228.735 496.701 227.444 496.731C226.706 496.748 226.209 496.667 225.336 495.753C218.557 488.66 213.2 479.751 212.965 472.625C212.893 470.472 213.218 468.266 213.793 465.177C213.851 464.864 213.913 464.537 213.978 464.198L213.979 464.189C214.496 461.465 215.164 457.937 215.326 454.235C215.718 445.279 214.206 436.898 212.037 429.06L209.371 419.422L190.095 424.755L192.761 434.393C194.6 441.037 195.614 447.209 195.345 453.361C195.25 455.543 194.86 457.622 194.317 460.524L194.315 460.533C194.255 460.85 194.194 461.178 194.131 461.516C193.54 464.691 192.826 468.769 192.975 473.287C193.302 483.15 197.771 492.478 203.023 500H303.269Z" fill="#2E3120"/>
<path d="M142.254 500C141.936 495.902 141.061 491.889 139.878 488.214C137.436 480.627 133.264 473.168 127.965 467.869C125.53 465.434 122.358 462.707 119.622 460.356C118.154 459.094 116.811 457.939 115.776 456.996C112.175 453.717 109.641 450.852 108.06 447.69C107.362 446.294 107.081 444.5 107.079 440.794C107.079 440.358 107.085 439.872 107.091 439.342C107.13 436.127 107.187 431.327 106.039 426.737C104.645 421.157 101.35 415.244 97.5925 410.439C93.921 405.746 88.6825 400.668 82.4975 398.278C75.5155 395.581 68.0946 397.013 62.7383 398.972C57.1672 401.009 51.7867 404.349 48.0446 408.091C45.0082 411.127 41.8114 414.975 39.0113 418.345C37.6552 419.978 36.3918 421.498 35.285 422.76C31.3509 427.246 27.9339 430.373 24.2411 432.17C17.3176 435.538 12.9972 436.42 9.25198 436.244C6.63353 436.12 3.77344 435.461 0 434.017V454.976C2.7285 455.65 5.483 456.088 8.31021 456.221C16.6077 456.613 24.368 454.349 32.9904 450.154C40.3572 446.57 45.9102 440.977 50.3212 435.948C52.2578 433.74 53.8743 431.782 55.3673 429.973C57.6928 427.155 59.7186 424.701 62.1868 422.233C63.6366 420.783 66.4399 418.914 69.6072 417.755C72.9893 416.518 74.8614 416.769 75.2895 416.934C76.6199 417.448 79.1461 419.318 81.8392 422.761C84.4458 426.094 86.1162 429.506 86.6365 431.587C87.1106 433.484 87.1015 435.344 87.0857 438.602V438.603C87.0825 439.273 87.0789 440.002 87.0792 440.802C87.0808 444.87 87.2343 450.76 90.1714 456.634C93.393 463.077 98.0641 467.917 102.309 471.783C104.38 473.669 106.114 475.143 107.7 476.492C109.852 478.322 111.734 479.923 113.822 482.011C116.437 484.626 119.161 489.124 120.84 494.343C121.479 496.327 121.909 498.231 122.149 500H142.254Z" fill="#2E3120"/>
<path d="M56.1367 500C54.9565 499.37 53.7718 498.754 52.5879 498.162C39.4504 491.593 25.9065 487.162 10.1157 487.162C6.45212 487.162 3.08873 487.686 0 488.51V500H56.1367Z" fill="#2E3120"/>
<path d="M0 409.287C3.0589 409.672 6.27627 409.836 9.47902 409.724C14.2394 409.559 19.4184 408.77 24.1407 406.854C28.871 404.935 33.8317 401.58 36.7625 395.928C42.8905 384.111 42.3574 374.088 41.8116 363.826L41.8096 363.789C40.9865 348.312 34.2889 338.175 24.1656 329.606C23.7835 329.283 23.3828 328.941 22.9649 328.585L22.9638 328.584C18.9271 325.141 13.2838 320.327 7.30727 317.435C3.95647 315.814 1.08351 313.197 0.172699 311.193C0.114453 311.065 0.0568798 310.936 0 310.807V336.185C3.11936 337.986 6.42571 340.788 10.382 344.141L10.3975 344.154C10.6763 344.391 10.9583 344.63 11.2438 344.871C18.1122 350.685 21.3676 356.009 21.8378 364.851C22.3831 375.102 22.409 380.162 19.0077 386.721C18.9458 386.84 18.5231 387.55 16.6215 388.321C14.7118 389.096 12.0102 389.624 8.78363 389.737C5.76294 389.842 2.67569 389.568 0 389.045V409.287Z" fill="#2E3120"/>
<path d="M0 203.133C0.358381 202.921 0.713119 202.706 1.06411 202.488C11.2985 196.124 19.4726 186.223 22.4925 176.017C25.0557 167.354 24.835 158.161 21.1128 149.74C17.38 141.294 10.4679 134.395 0.995872 129.72C0.66611 129.557 0.334082 129.397 0 129.24V153.453C1.25774 154.888 2.17509 156.366 2.82006 157.825C4.41359 161.43 4.68883 165.697 3.31439 170.342C2.73848 172.289 1.61332 174.501 0 176.729V203.133Z" fill="#2E3120"/>
<path d="M0 90.0463L17.7266 84.2861L14.6361 74.7756C14.5355 74.4658 14.4216 74.1033 14.2948 73.6995L14.2944 73.6982C13.7089 71.8337 12.8464 69.0873 11.7214 66.5619C10.2849 63.3373 8.0066 59.4154 4.08907 56.3314C2.81249 55.3264 1.44449 54.3688 0 53.4668V90.0463Z" fill="#2E3120"/>
<path d="M194.102 143.709C195.979 142.5 199.906 142.14 205.914 143.497C216.208 145.821 220.981 151.199 221.548 156.628C222.112 162.016 222.066 167.482 222.014 173.634L222.009 174.242C221.958 180.438 221.922 187.328 222.803 194.331C224.122 204.822 226.735 221.181 244.501 228.499C248.502 230.148 254.082 231.286 259.178 231.801C264.041 232.293 270.439 232.434 275.509 230.749C285.615 227.388 290.259 219.129 292.621 212.483C293.811 209.135 294.589 205.75 295.186 202.939C295.366 202.088 295.526 201.316 295.672 200.606C296.057 198.742 296.354 197.303 296.715 195.983C298.489 189.478 301.911 180.21 306.898 174.124C309.314 171.174 311.577 169.618 313.556 169.006C315.261 168.479 317.777 168.323 321.707 170.262C328.108 173.422 331.816 179.044 333.251 185.994C334.73 193.155 333.617 201.181 330.666 207.47C321.514 226.968 299.379 237.378 272.211 242.89C261.036 245.158 249.944 246.428 238.382 247.751H238.381C232.801 248.39 227.112 249.041 221.251 249.823C212.029 251.053 201.231 252.731 191.167 256.079C181.125 259.419 170.88 264.718 163.6 273.818C158.358 280.372 155.84 288.081 157.229 296.215C158.561 304.011 163.229 310.701 169.274 316.181C175.184 321.539 183.71 324.144 191.689 325.546C200.021 327.01 209.472 327.438 218.712 327.274C237.117 326.948 256.18 324.234 266.573 321.522C281.157 317.717 324.442 308.588 339.003 306.936L348.939 305.809L346.685 285.937L336.749 287.064C320.826 288.87 276.499 298.263 261.524 302.17C252.929 304.412 235.476 306.974 218.357 307.278C209.834 307.429 201.77 307.011 195.15 305.848C188.176 304.623 184.311 302.818 182.708 301.365C178.669 297.703 177.27 294.759 176.944 292.847C176.675 291.273 176.908 289.199 179.218 286.312C183.133 281.417 189.316 277.772 197.479 275.057C205.62 272.349 214.807 270.86 223.896 269.647C228.957 268.972 234.217 268.368 239.583 267.752H239.586H239.588C251.611 266.372 264.164 264.931 276.188 262.491C304.548 256.736 335.323 244.619 348.771 215.967C353.471 205.953 355.231 193.537 352.838 181.948C350.4 170.147 343.489 158.71 330.559 152.328C322.691 148.444 314.896 147.66 307.652 149.897C300.682 152.051 295.358 156.651 291.428 161.448C283.72 170.855 279.407 183.437 277.42 190.718C276.879 192.701 276.398 195.035 275.975 197.085L275.974 197.092C275.852 197.686 275.734 198.256 275.621 198.787C275.062 201.423 274.503 203.739 273.776 205.785C272.302 209.931 270.786 211.243 269.198 211.77C268.334 212.058 265.48 212.337 261.19 211.903C257.132 211.492 253.657 210.641 252.118 210.007C245.754 207.385 243.978 202.427 242.646 191.835C241.955 186.339 241.956 180.716 242.008 174.407L242.017 173.44C242.067 167.583 242.124 161.09 241.44 154.548C239.612 137.067 224.903 127.28 210.319 123.988C203.606 122.472 192.457 120.979 183.271 126.896C173.447 133.224 167.546 142.816 164.704 152.261C160.626 165.813 157.594 178.87 154.975 192.538C153.559 199.926 151.922 207.359 150.041 214.6C149.922 215.059 149.798 215.573 149.689 216.02L149.626 216.282C149.493 216.826 149.367 217.336 149.231 217.843C149.11 218.294 148.99 218.708 148.871 219.084L148.848 219.061C147.285 217.538 145.9 215.165 145.196 213.435C142.654 207.185 141.701 200.434 140.539 192.204C140.407 191.275 140.274 190.327 140.135 189.359C138.843 180.368 137.087 169.764 131.506 159.927C126.577 151.238 117.027 140.506 101.584 140.506C91.6349 140.506 83.9751 145.796 78.8011 151.27C73.6095 156.764 69.9889 163.367 67.8479 168.505C60.1907 186.878 61.6571 206.965 62.8516 223.326L62.8517 223.327C62.9205 224.269 62.9883 225.199 63.0535 226.115C64.4678 246 71.9573 265.171 78.6014 282.179L78.6022 282.181C79.1637 283.618 79.7192 285.04 80.2644 286.446L83.881 295.769L102.527 288.536L98.9106 279.213C98.425 277.961 97.9401 276.716 97.4576 275.476C90.584 257.824 84.1918 241.408 83.0031 224.696L82.9156 223.468C81.6528 205.765 80.5325 190.059 86.3089 176.198C87.8235 172.564 90.2785 168.244 93.337 165.008C96.4133 161.752 99.1784 160.506 101.584 160.506C106.463 160.506 110.684 163.755 114.11 169.796C117.645 176.027 119.048 183.224 120.338 192.203C120.471 193.13 120.603 194.083 120.739 195.058C121.834 202.942 123.129 212.264 126.669 220.97C128.079 224.436 130.805 229.401 134.884 233.38C138.982 237.376 146.02 241.727 154.914 239.406C162.105 237.53 165.393 231.515 166.801 228.213C168.041 225.307 168.843 221.945 169.228 220.33C169.3 220.031 169.357 219.792 169.4 219.626C171.404 211.905 173.133 204.046 174.617 196.302C177.139 183.144 180.019 170.775 183.856 158.024C185.622 152.155 189.061 146.957 194.102 143.709Z" fill="#2E3120"/>
<path d="M329.746 91.2385L337.5 72.8025L346.718 76.6792C377.638 89.6827 409.692 120.209 404.109 160.951L402.751 170.858L382.937 168.143L384.294 158.236C388.066 130.71 366.295 106.609 338.964 95.1152L329.746 91.2385Z" fill="#2E3120"/>
<path fill-rule="evenodd" clip-rule="evenodd" d="M332.343 363.413L332.605 363.387C352.614 361.365 365.788 360.034 379.754 368.905C383.992 371.597 387.641 376.431 390.261 382.866C392.857 389.244 394.116 396.433 394.116 402.686C394.116 412.62 388.096 423.595 379.608 430.871C372.323 437.115 366.15 440.778 360.644 441.839C355.866 442.759 350.425 441.952 343.498 436.209C342.688 435.538 341.894 434.887 341.117 434.251C336.802 430.715 333.04 427.633 330.374 424.118C327.653 420.529 327.244 418.07 328.4 415.178C329.593 412.197 332.622 408.523 337.071 405.457C341.508 402.399 346.124 400.799 349.473 400.679C352.181 400.583 354.987 400.756 357.146 401.353C358.561 401.744 359.083 402.13 359.221 402.258L363.644 411.102L381.532 402.158L377.06 393.214C373.663 386.42 367.332 383.418 362.474 382.075C357.52 380.706 352.418 380.562 348.759 380.692C340.583 380.984 332.336 384.431 325.722 388.988C319.121 393.538 312.912 400.047 309.831 407.75C305.214 419.291 309.079 429.136 314.438 436.203C318.683 441.8 324.614 446.622 328.828 450.048L328.83 450.05C329.515 450.607 330.154 451.126 330.734 451.607C341.617 460.628 352.997 463.68 364.428 461.478C375.131 459.416 384.553 452.974 392.624 446.056C404.305 436.043 414.116 419.915 414.116 402.686C414.116 394.018 412.418 384.251 408.785 375.326C405.176 366.458 399.325 357.642 390.477 352.022C370.584 339.387 351.038 341.392 332.733 343.269L331.142 343.432C330.872 343.46 330.602 343.487 330.333 343.514C310.779 345.489 293.673 351.955 278.376 365.102C266.176 375.586 254.882 386.747 248.683 404.367L245.364 413.8L264.23 420.438L267.549 411.005C271.943 398.517 279.859 390.197 291.411 380.27C303.206 370.134 316.306 365.033 332.343 363.413ZM359.263 402.302C359.262 402.302 359.255 402.295 359.244 402.279C359.258 402.293 359.263 402.301 359.263 402.302Z" fill="#2E3120"/>
<path d="M61.8936 317.686H71.8936C96.2307 317.686 113.745 332.229 123.925 351.175C127.92 358.61 130.716 366.957 133.114 374.919C133.909 377.561 134.654 380.13 135.383 382.648C136.947 388.044 138.443 393.206 140.229 398.342C145.413 413.25 151.738 423.746 163.294 428.724L172.478 432.68L164.566 451.048L155.382 447.092C135.784 438.65 126.984 421.148 121.338 404.911C119.375 399.265 117.633 393.258 115.997 387.614L115.995 387.609V387.607V387.606L115.991 387.595C115.3 385.209 114.627 382.888 113.964 380.687C111.628 372.933 109.298 366.207 106.307 360.641C98.6163 346.328 86.9768 337.686 71.8936 337.686H61.8936V317.686Z" fill="#2E3120"/>
<path fill-rule="evenodd" clip-rule="evenodd" d="M157.43 83.7336C146.298 72.1967 133.444 59.5238 114.045 54.6953C104.698 52.3686 91.6914 49.2071 78.772 53.6765C66.6946 57.8545 59.3056 66.1462 54.1249 74.8114C51.58 79.068 49.4911 83.5401 47.6387 87.7231C47.012 89.1382 46.4244 90.491 45.8543 91.8036L45.8536 91.8053L45.8525 91.8077L45.8517 91.8097L45.8505 91.8124L45.8464 91.8219C44.6563 94.562 43.5422 97.1272 42.3076 99.7192C39.1779 106.291 35.6611 116.933 42.9954 127.298C46.0095 131.557 50.6025 134.129 54.5456 135.475C58.5149 136.83 63.5883 137.547 68.4132 136.242C75.5682 134.307 82.4683 128.707 86.0997 125.405C88.7942 122.954 90.5287 119.934 91.4728 118.29L91.5684 118.123L91.6475 117.986C92.8286 115.942 93.2052 115.444 93.4923 115.178C94.7245 114.04 95.9989 113.626 98.5585 114.199C101.591 114.878 105.217 116.79 109.153 119.419C109.778 119.836 110.47 120.364 111.542 121.18L111.781 121.362C112.868 122.189 114.283 123.26 115.818 124.252C118.663 126.09 123.537 128.762 129.527 128.244C138.217 127.492 147.497 123.258 153.725 116.976C157.049 113.625 160.149 108.648 161.626 103.295C163.079 98.029 163.477 90.0005 157.43 83.7336ZM109.215 74.1032C122.293 77.3586 131.563 85.7641 142.525 97.0909C142.5 97.3145 142.447 97.6105 142.346 97.9757C142.118 98.8046 141.705 99.7688 141.139 100.729C140.57 101.695 139.971 102.443 139.523 102.895C136.802 105.639 132.188 107.827 128.18 108.28C127.969 108.197 127.488 107.98 126.671 107.452C125.855 106.926 124.993 106.284 123.895 105.448L123.579 105.207C122.64 104.491 121.438 103.574 120.262 102.788C115.833 99.8296 109.69 96.1965 102.929 94.6825C95.6954 93.0627 87.1523 93.8072 79.9208 100.488C77.1925 103.008 75.4531 106.03 74.4805 107.72C74.4287 107.81 74.3791 107.896 74.3316 107.978C73.763 108.962 73.4239 109.54 73.0881 110.033C72.7856 110.477 72.6434 110.609 72.6434 110.609C69.2487 113.696 65.4277 116.303 63.2489 116.92C63.2071 116.924 63.0323 116.941 62.7117 116.916C62.2336 116.879 61.6348 116.762 61.0063 116.548C60.3759 116.332 59.8637 116.07 59.5158 115.838C59.376 115.745 59.2904 115.675 59.247 115.638C58.7315 114.872 58.6224 114.284 58.6782 113.489C58.7577 112.359 59.2183 110.725 60.3644 108.319C61.7505 105.408 63.0975 102.309 64.3591 99.4051L64.3606 99.4017C64.8991 98.1625 65.422 96.9591 65.9258 95.8215C67.6962 91.8237 69.3898 88.2542 71.2909 85.0745C75.0023 78.8668 79.1591 74.7055 85.3106 72.5774C91.8715 70.3078 99.259 71.6252 109.215 74.1032Z" fill="#2E3120"/>
<path d="M157.151 334.148L162.495 342.599C171.441 356.745 182.229 365.685 197.976 374.32C200.981 375.969 205.619 376.408 210.234 375.268L219.943 372.87L224.738 392.287L215.03 394.684C206.996 396.669 196.918 396.55 188.359 391.856C170.5 382.063 156.807 371.023 145.592 353.289L140.247 344.837L157.151 334.148Z" fill="#2E3120"/>
<path d="M30.3662 218.388L25.022 209.936L8.11768 220.625L13.4619 229.077C17.7043 235.787 19.3059 242.619 21.2758 251.022C21.6951 252.81 22.131 254.67 22.6126 256.615C25.4187 267.945 26.235 275.965 21.2191 283.256L15.5514 291.495L32.029 302.83L37.6967 294.592C48.152 279.393 44.8634 263.263 42.0261 251.807C41.6781 250.402 41.334 248.904 40.9729 247.332C39.0246 238.851 36.5823 228.219 30.3662 218.388Z" fill="#2E3120"/>
<path d="M234.597 59.9177C225.877 57.3414 219.71 55.7205 212.518 56.1436C208.95 56.3535 205.166 57.4314 200.805 59.1757C198.637 60.0428 196.449 61.0227 194.111 62.0868C193.781 62.237 193.446 62.3895 193.108 62.5438C191.116 63.4525 188.993 64.4204 186.887 65.3129L177.68 69.2143L169.877 50.7993L179.084 46.8978C180.92 46.1202 182.763 45.2798 184.766 44.3663C185.114 44.2075 185.467 44.0465 185.826 43.8832C188.185 42.8097 190.741 41.6607 193.378 40.606C198.626 38.5067 204.696 36.5691 211.343 36.1781C222.412 35.5271 231.634 38.1877 240.264 40.7374C250.898 43.8794 259.9 47.8327 269.396 53.3463C273.337 55.6347 276.875 57.5273 280.148 58.6185L289.635 61.7808L283.31 80.7544L273.824 77.5922C268.433 75.7952 263.354 72.9652 259.353 70.6421C251.164 65.8871 243.625 62.5852 234.597 59.9177Z" fill="#2E3120"/>
</svg>
