<svg width="300" height="300" viewBox="0 0 300 300" fill="none" xmlns="http://www.w3.org/2000/svg">
<path fill-rule="evenodd" clip-rule="evenodd" d="M168.69 19.6647C155.568 16.1625 138.682 16.1065 125.495 19.532C117.075 21.719 111.671 25.2061 105.699 31.0585C124.897 24.2149 144.489 25.7645 163.719 30.544C173.221 32.9058 182.134 36.0291 190.851 40.3091C196.041 42.8572 200.581 46.0145 204.764 49.1175C206.013 50.0434 207.213 50.9513 208.389 51.8412C211.273 54.0229 214.014 56.0959 216.964 58.0577C231.877 67.9742 243.992 79.6066 255.013 92.1039C254.747 89.0346 254.343 85.9619 253.838 82.9106C252.4 74.2211 250.22 66.7262 245.109 60.147C238.126 51.1586 228.551 45.6925 217.448 39.354C216.444 38.7805 215.427 38.1998 214.398 37.6088C209.209 34.6276 203.773 32.555 197.824 30.2869C195.701 29.4774 193.513 28.6431 191.247 27.7336C191.004 27.6362 190.762 27.539 190.52 27.4419C183.1 24.4624 176.032 21.6244 168.69 19.6647ZM266.32 105.588C266.855 97.3915 266.128 89.1839 264.846 81.4392C263.32 72.2245 260.819 62.8995 254.234 54.4227C245.906 43.7034 234.438 37.1795 223.619 31.0248C222.535 30.4087 221.459 29.7962 220.392 29.1835C214.343 25.7082 207.679 23.1704 201.499 20.8166C199.534 20.0683 197.618 19.3385 195.786 18.6031C195.468 18.4754 195.148 18.3472 194.829 18.2187C187.591 15.3113 179.921 12.2305 171.859 10.0786C156.693 6.03095 137.635 5.96918 122.404 9.92529C111.025 12.8811 103.815 17.9169 96.5139 25.2773C91.1615 30.6733 86.923 36.8436 83.4059 43.3078C76.0938 48.8242 69.6496 55.1138 63.6331 60.986C63.2435 61.3663 62.8557 61.7448 62.4695 62.1213C53.9359 70.4405 48.5675 80.4689 45.2158 90.9096C44.3854 93.4964 43.7108 95.8766 43.0613 98.1688C42.0909 101.593 41.1763 104.82 39.8811 108.246C39.4331 109.431 38.9608 110.643 38.479 111.881C36.2335 117.647 33.7811 123.944 32.6123 130.442C30.8 140.519 31.1464 151.351 31.4684 161.421C31.5886 165.178 31.7053 168.829 31.7053 172.294C31.7053 192.73 35.8053 213.061 50.3691 230.51C54.9799 236.034 60.4401 241.527 67.4258 245.626C68.3931 249.12 69.4051 252.588 70.4162 256.052C70.8927 257.684 71.3691 259.316 71.8405 260.95C74.3969 269.81 78.3416 275.105 84.2714 281.438C85.0582 282.279 85.7127 283.032 86.3843 283.805C86.6241 284.081 86.866 284.359 87.1169 284.645C88.019 285.672 89.035 286.791 90.2369 287.829C92.8671 290.099 95.9919 291.643 100.6 292.574C120.287 296.555 141.256 293.863 159.603 289.489C162.538 288.79 165.29 287.883 167.849 286.991C168.649 286.712 169.416 286.439 170.165 286.173C171.895 285.559 173.526 284.98 175.239 284.434C176.079 284.166 176.927 283.9 177.782 283.633C183.437 281.863 189.381 280.002 195.243 276.754C207.023 270.226 216.402 261.044 225.015 252.611C225.288 252.344 225.56 252.078 225.831 251.812C237.323 240.568 248.617 227.825 257.011 214.154C258.203 212.213 259.449 210.222 260.722 208.189C266.676 198.681 273.197 188.265 277.321 177.829C282.666 164.302 283.665 150.983 282.644 137.132C281.858 126.462 275.48 117.131 269.608 109.71C268.516 108.331 267.421 106.956 266.32 105.588ZM254.895 108.481C241.723 92.3648 228.059 77.8757 210.344 66.0961C207.094 63.9353 203.942 61.5508 200.958 59.2935C199.84 58.4481 198.746 57.6206 197.68 56.8293C193.64 53.8327 189.755 51.166 185.515 49.0845C177.628 45.2121 169.523 42.3621 160.752 40.1821C140.3 35.0989 121.263 34.3671 103.109 43.1615C99.3301 44.9924 95.7859 47.1756 92.3908 49.6126C91.0568 52.197 89.814 54.8713 88.6376 57.613C87.0577 61.2951 85.6335 65.0032 84.28 68.7177C87.3907 64.9755 90.7482 61.4815 94.2253 58.2919C103.451 49.8289 115.043 47.5533 126.314 46.9301C138.321 46.2661 147.485 51.1465 155.719 56.1459C158.541 57.8588 160.758 60.0506 162.563 62.0826C163.473 63.1065 164.328 64.1476 165.11 65.1068C165.198 65.2152 165.286 65.3224 165.372 65.4283C166.07 66.2857 166.706 67.0659 167.348 67.8093C168.038 68.6088 168.806 69.4553 169.616 70.3472C172.588 73.6217 176.115 77.509 178.391 81.9392C182.912 90.7409 183.432 101.503 178.746 110.596C177.308 113.387 176.163 116.347 174.91 119.585C174.62 120.335 174.324 121.1 174.017 121.881C172.446 125.883 170.62 130.223 167.951 134.186C163.067 141.436 156.989 149.036 150.875 155.504C150.526 155.874 150.178 156.246 149.831 156.618C145.593 161.152 141.325 165.719 132.435 167.611L132.427 167.613C130.041 168.121 126.347 168.907 122.601 169.301C119.102 169.67 114.412 169.844 110.586 168.316C104.851 166.026 99.8094 162.885 96.1796 158.567C92.4991 154.189 90.5187 148.892 90.4473 142.735C90.324 132.092 90.7765 121.493 94.243 110.591C95.0128 108.169 95.7891 105.758 96.5632 103.352C99.1385 95.3514 101.69 87.4228 103.906 79.4602C105.662 73.1467 108.639 66.5815 113.182 61.042C115.005 58.8189 118.488 58.3447 120.962 59.9827C123.436 61.6208 123.964 64.7509 122.141 66.974C118.669 71.2084 116.204 76.4887 114.702 81.8856C112.432 90.0434 109.803 98.2114 107.217 106.246C106.452 108.623 105.691 110.988 104.943 113.338C101.928 122.821 101.455 132.253 101.575 142.631C101.624 146.814 102.922 149.997 105.06 152.54C107.248 155.143 110.563 157.364 115.106 159.178C115.98 159.527 118.031 159.714 121.305 159.369C124.327 159.051 127.431 158.399 129.871 157.88C135.098 156.768 137.15 154.591 141.652 149.817C141.891 149.562 142.138 149.3 142.393 149.031C148.117 142.975 153.85 135.808 158.43 129.008C160.461 125.994 161.973 122.5 163.523 118.554C163.787 117.879 164.055 117.187 164.327 116.482C165.588 113.219 166.954 109.681 168.647 106.395C171.825 100.227 171.582 92.5457 168.287 86.1298C166.657 82.9564 164.346 80.4003 161.563 77.3217C160.613 76.2702 159.607 75.1579 158.555 73.9392C157.811 73.0776 157.079 72.1783 156.393 71.3361C156.305 71.2287 156.219 71.1222 156.133 71.0169C155.352 70.0592 154.618 69.1677 153.867 68.3222C152.35 66.6154 150.954 65.3211 149.489 64.4318C141.453 59.5528 135.01 56.4681 126.998 56.9112C116.804 57.4748 108.557 59.4356 102.175 65.2897C87.152 79.0705 75.8463 97.876 77.3634 116.28C77.4635 117.493 77.5473 118.661 77.6283 119.789C78.062 125.83 78.415 130.745 80.7428 135.586C83.9668 142.291 87.9231 148.906 92.183 155.269C93.5646 157.332 94.8058 159.295 95.9931 161.172C99.3158 166.427 102.216 171.013 106.587 175.268C114.637 183.105 123.915 191.175 134.163 197.142C139.883 200.472 145.798 203.085 151.881 204.657C152.201 203.856 152.516 203.046 152.829 202.226C153.306 200.973 153.785 199.677 154.274 198.355C155.473 195.111 156.731 191.709 158.163 188.398C158.79 186.951 159.406 185.599 159.991 184.314C162.365 179.097 164.232 174.996 164.232 170.22C164.232 167.458 166.724 165.22 169.797 165.22C172.87 165.22 175.361 167.458 175.361 170.22C175.361 177.165 172.444 183.487 169.986 188.816C169.472 189.929 168.978 190.999 168.535 192.023C167.208 195.089 166.093 198.108 164.933 201.246C164.423 202.624 163.906 204.026 163.357 205.465C163.252 205.741 163.146 206.019 163.038 206.297C164.216 206.335 165.4 206.33 166.589 206.28C171.602 206.066 176.732 205.617 181.254 204.374C185.739 203.141 189.2 201.245 191.428 198.39C204.604 181.508 226.293 170.291 236.628 151.348C237.141 150.408 237.69 149.402 238.307 148.314C238.956 147.171 239.6 146.045 240.238 144.931C245.533 135.673 250.327 127.291 253.078 117.691C253.937 114.692 254.529 111.613 254.895 108.481ZM158.751 216.039C161.487 216.304 164.276 216.389 167.115 216.268C172.356 216.045 178.617 215.556 184.51 213.936C190.44 212.306 196.417 209.414 200.54 204.132C211.108 190.59 226.229 178.643 238.698 166.872C242.639 163.152 244.95 158.874 246.942 155.187C247.379 154.379 247.8 153.599 248.22 152.859C248.857 151.738 249.501 150.614 250.147 149.487C255.383 140.347 260.773 130.939 263.855 120.184C263.874 120.118 263.893 120.051 263.912 119.984C268.033 125.794 271.09 131.693 271.54 137.793C272.496 150.764 271.519 162.627 266.834 174.483C263.062 184.028 257.129 193.516 251.193 203.006C249.877 205.112 248.56 207.217 247.267 209.324C239.46 222.038 228.801 234.122 217.635 245.048L217.243 245.432C208.313 254.17 199.848 262.453 189.402 268.242C184.645 270.878 179.922 272.363 174.211 274.158C173.338 274.433 172.441 274.715 171.518 275.009C169.61 275.618 167.688 276.3 165.882 276.941C165.175 277.192 164.486 277.437 163.822 277.668C161.373 278.522 159.079 279.268 156.749 279.824C139.117 284.027 120.184 286.284 103.043 282.818C100.191 282.242 98.9549 281.488 97.9466 280.617C97.3292 280.084 96.7067 279.422 95.8537 278.451C95.6643 278.235 95.4612 278.001 95.2454 277.753C94.5478 276.95 93.7172 275.994 92.7874 275.001C87.4763 269.328 84.6071 265.352 82.613 258.44C82.1283 256.76 81.6439 255.1 81.1638 253.454C80.8699 252.446 80.5775 251.443 80.2876 250.445C82.2762 250.794 84.2487 250.999 86.1668 251.118C89.6678 251.336 93.3215 251.275 96.6097 251.22C97.7182 251.201 98.7852 251.183 99.7908 251.177C124.238 251.026 145.512 238.489 156.832 219.5C157.517 218.351 158.154 217.196 158.751 216.039ZM147.521 213.923C140.616 211.994 134.123 209.034 128.112 205.534C116.706 198.893 106.687 190.109 98.4098 182.051C93.0916 176.874 89.3171 170.894 85.8324 165.374C84.7553 163.668 83.7058 162.005 82.6471 160.424C78.2098 153.796 74.0002 146.776 70.527 139.553C69.2798 136.959 68.4516 134.317 67.8808 131.699C67.8687 141.58 68.2745 151.348 68.6851 161.23C68.9518 167.651 69.2205 174.119 69.3779 180.698C69.7153 194.792 71.2528 208.925 73.5769 222.947C74.49 228.456 75.7169 233.782 77.1165 239.108C79.9775 240.331 83.2308 240.912 86.9345 241.142C89.9082 241.327 92.8325 241.278 95.9716 241.226C97.1821 241.206 98.4245 241.185 99.714 241.177C119.783 241.053 137.479 230.786 147.023 214.778C147.192 214.494 147.358 214.209 147.521 213.923ZM63.4314 229.15C63.1216 227.586 62.8331 226.01 62.5696 224.42C60.1915 210.072 58.6012 195.511 58.2518 180.913C58.1026 174.678 57.8413 168.357 57.5782 161.994C57.1096 150.661 56.6354 139.191 56.7784 127.822C56.9626 113.173 62.302 97.2368 67.0893 84.2503C68.1787 81.2953 69.2696 78.171 70.392 74.9561C71.4041 72.0576 72.4418 69.0856 73.5273 66.0976C72.7987 66.8058 72.0691 67.5173 71.3374 68.2308C71.1093 68.4533 70.8809 68.6759 70.6524 68.8988C63.5834 75.7901 58.9175 84.3081 55.9085 93.6812C55.288 95.6142 54.6764 97.7526 54.0413 99.9736C52.9565 103.767 51.803 107.8 50.4182 111.463C49.9002 112.833 49.3807 114.171 48.8703 115.485C46.6463 121.213 44.5953 126.495 43.5985 132.037C41.966 141.114 42.2655 150.456 42.5771 160.172C42.7045 164.148 42.834 168.186 42.834 172.294C42.834 191.601 46.7176 209.468 59.272 224.51C60.6238 226.129 62.0041 227.682 63.4314 229.15Z" fill="#665F4F"/>
</svg>
