<svg width="300" height="600" viewBox="0 0 300 600" fill="none" xmlns="http://www.w3.org/2000/svg">
<path d="M29.5504 57.0606C30.2815 55.3524 35.0059 46.8708 36.8049 43.6626C37.2641 42.5338 37.8521 41.4439 38.5679 40.4108C47.3233 27.7854 59.1104 35.0039 59.9271 35.5124C63.525 37.7528 67.7092 41.7706 67.7839 49.8479C67.8605 57.8985 61.7611 63.86 58.7566 70.8829C55.9482 77.4442 51.7371 84.0395 49.9489 91.1093C50.4009 92.6632 50.6431 94.3127 50.6431 96.021C50.6431 105.315 43.4678 112.861 34.6304 112.861C29.319 112.861 26.1514 111.005 24.0058 109.352C20.5519 106.691 16.1408 101.783 17.4707 90.5932C18.8663 78.8551 24.9989 67.6993 29.5504 57.0606Z" fill="#CF6F49"/>
<path fill-rule="evenodd" clip-rule="evenodd" d="M14.6536 125.048C10.8566 133.822 9.74194 152.72 12.6349 169.037C14.8211 181.37 19.4401 191.996 24.5769 197.399C30.8265 203.972 40.974 203.972 47.2236 197.399C53.4724 190.826 53.4724 180.154 47.2236 173.583C45.367 171.631 44.9087 167.319 44.1181 162.864C42.5506 154.02 41.7456 143.754 43.803 138.998C47.464 130.538 43.9048 120.544 35.8606 116.695C27.8165 112.845 18.3137 116.588 14.6536 125.048Z" fill="#CF6F49"/>
<path fill-rule="evenodd" clip-rule="evenodd" d="M70.9408 234.688C70.5131 226.538 64.4849 219.7 56.5236 218.874C51.4166 218.345 47.8726 220.01 45.2723 221.913C41.7877 224.46 39.3513 228.11 38.4653 232.96C37.8242 236.469 39.3603 243.412 40.2274 245.54C43.3157 253.118 48.2157 259.161 53.998 264.345C59.5381 269.31 66.1498 273.169 70.9219 278.189C77.1715 284.761 87.319 284.761 93.5677 278.189C99.8173 271.616 99.8173 260.944 93.5677 254.373C89.6357 250.236 84.7861 246.613 79.9222 242.891C76.6889 240.417 73.1828 238.115 70.9408 234.688Z" fill="#CF6F49"/>
<path fill-rule="evenodd" clip-rule="evenodd" d="M139.152 259.839C134.267 259.573 123.891 258.921 121.555 258.071C113.201 255.037 104.077 259.705 101.191 268.491C98.3041 277.275 102.743 286.872 111.097 289.907C117.254 292.144 139.008 296.252 151.49 292.044C162.741 288.251 169.365 280.134 169.365 267.617C169.365 258.322 162.19 250.776 153.352 250.776C147.182 250.776 141.822 254.454 139.152 259.839Z" fill="#CF6F49"/>
<path fill-rule="evenodd" clip-rule="evenodd" d="M168.711 225.834C165.218 228.162 162.578 231.903 161.633 236.485C159.762 245.569 165.255 254.542 173.892 256.511C180.153 257.937 188.153 256.238 194.284 247.124C200.886 237.31 206.823 209.701 206.823 202.851C206.823 193.557 199.648 186.01 190.81 186.01C181.972 186.01 174.797 193.557 174.797 202.851C174.797 205.983 170.331 220.634 168.711 225.834Z" fill="#CF6F49"/>
<path fill-rule="evenodd" clip-rule="evenodd" d="M163.556 181.218C172.51 187.748 180.107 183.307 181.746 182.274C189.327 177.494 191.791 167.143 187.247 159.17C185.722 156.496 183.601 154.427 181.167 153.042C178.044 150.628 164.11 140.193 154.33 138.23C145.186 136.396 136.692 138.468 129.966 145.54C123.718 152.113 123.718 162.785 129.966 169.357C138.321 178.143 152.402 173.084 163.556 181.218Z" fill="#CF6F49"/>
<path fill-rule="evenodd" clip-rule="evenodd" d="M93.6677 205.259C94.3241 204.434 97.0127 201.116 98.9719 199.478C100.402 198.283 102.396 197.006 103.91 196.099C106.017 196.457 108.226 196.371 110.423 195.774C118.981 193.451 124.134 184.259 121.926 175.259C119.824 166.698 112.96 158.966 99.6283 161.847C92.9969 163.28 81.0793 170.084 72.8641 178.968C65.7383 186.674 61.7153 195.878 61.7153 203.67C61.7153 212.965 68.8906 220.511 77.728 220.511C86.0557 220.511 92.9078 213.81 93.6677 205.259Z" fill="#CF6F49"/>
<path fill-rule="evenodd" clip-rule="evenodd" d="M64.6497 331.804C65.1647 325.998 66.599 309.461 67.0798 300.771C67.2914 300.319 67.4814 299.85 67.6534 299.369C70.7553 290.666 66.5558 280.951 58.2803 277.688C52.9373 275.582 48.204 276.393 44.0225 278.976C41.9831 280.236 39.9824 282.079 38.3788 284.671C36.6186 287.519 35.223 292.651 35.223 296.485C35.223 303.798 31.4629 328.813 32.7451 338.518C34.6143 352.668 43.9766 356.725 50.6017 356.725C59.4391 356.725 66.6143 349.179 66.6143 339.884C66.6143 336.956 65.9021 334.203 64.6497 331.804Z" fill="#CF6F49"/>
<path fill-rule="evenodd" clip-rule="evenodd" d="M104.55 409.706C103.426 408.206 100.336 404 98.451 400.686C94.2462 393.287 89.8432 381.989 88.6835 378.934C88.4854 374.889 86.9088 370.907 83.9573 367.836C77.6744 361.3 67.5269 361.358 61.3115 367.966C59.282 370.124 56.9194 373.592 56.5826 379.181C56.4674 381.085 56.8068 385.376 58.6688 390.954C61.9886 400.901 70.7566 419.769 79.0547 430.229C86.0517 439.048 94.1823 442.699 100.022 442.699C108.86 442.699 116.035 435.153 116.035 425.858C116.035 418.217 111.186 411.757 104.55 409.706Z" fill="#CF6F49"/>
<path fill-rule="evenodd" clip-rule="evenodd" d="M145.092 459.755C144.228 458.474 143.174 457.303 141.941 456.286C134.988 450.549 124.913 451.828 119.459 459.141C114.583 465.676 115.115 471.335 116.402 475.717C117.592 479.771 120.673 484.256 125.875 486.991C134.273 491.407 146.076 502.114 152.822 509.208C159.071 515.781 169.219 515.781 175.468 509.208C181.717 502.637 181.717 491.965 175.468 485.392C167.948 477.482 155.401 466.37 145.092 459.755Z" fill="#CF6F49"/>
<path fill-rule="evenodd" clip-rule="evenodd" d="M270.376 566.041C271.138 566.16 271.917 566.221 272.708 566.221C287.86 566.221 288.766 550.676 288.777 549.55C288.815 545.591 287.924 540.193 282.248 535.805C281.914 535.547 279.539 533.241 274.444 532.62C273.032 532.447 262.268 531.612 258.707 530.863C255.3 530.146 235.267 522.146 230.191 520.106C227.602 516.043 223.361 513.193 218.374 512.704C209.574 511.841 201.764 518.655 200.944 527.909C200.475 533.196 202.424 541.465 211.246 547.655C221.086 554.559 246.979 562.744 252.427 563.89C256.175 564.679 268.106 565.827 270.376 566.041Z" fill="#CF6F49"/>
</svg>
