<svg width="500" height="500" viewBox="0 0 500 500" fill="none" xmlns="http://www.w3.org/2000/svg">
<path d="M288.275 414.71C286.385 417.362 284.813 420.255 282.489 422.575C279.745 425.315 277.996 427.765 274.765 429.108C272.345 430.113 271.01 431.897 268.95 433.407C265.762 435.743 260.748 433.822 258.064 431.392C255.619 429.178 254.122 426.682 250.675 425.974C248.477 425.523 246.275 425.36 244.046 425.204C240.473 424.954 236.788 424.423 233.207 424.501C230.75 424.555 230.182 425.031 228.912 427.18C227.154 430.158 225.806 433.445 223.633 436.167C222.29 437.85 221.24 439.397 219.019 439.241C214.857 438.95 210.609 437.908 206.564 436.964C202.336 435.977 197.839 434.502 194.096 432.29L194.05 432.264C191.841 430.959 189.729 429.711 187.34 428.755C185.499 428.018 183.563 426.984 182.087 425.63C181.124 424.748 181.73 422.527 181.825 421.407C181.987 419.512 182.431 417.609 182.847 415.757C183.504 412.837 183.863 409.858 184.591 406.954C185.604 402.912 186.479 398.84 187.68 394.849C188.452 392.279 189.374 389.623 189.749 386.96C189.93 385.672 190.334 384.449 190.515 383.171C190.727 381.679 192.882 380.143 193.81 379.071C198.155 374.05 202.228 368.848 207.133 364.354C212.561 359.382 219.374 357.662 226.304 355.913L226.665 355.822C228.843 355.272 230.922 354.644 233.185 354.774C234.665 354.859 236.083 355.228 237.559 355.331C239.891 355.494 242.081 356.076 244.292 356.804C247.494 357.859 250.835 358.572 254.11 359.371C256.787 360.024 259.504 360.796 262.22 361.261C263.781 361.528 265.315 362.285 266.874 362.394C270.293 362.633 272.986 361.604 276.201 360.429C278.555 359.569 280.758 360.351 283.114 360.718C285.773 361.132 288.457 361.457 291.103 361.945C293.623 362.411 296.009 363.173 298.388 364.098C300.595 364.956 302.97 365.068 305.096 366.127C308.131 367.638 309.666 369.434 310.027 372.848C310.251 374.961 310.171 377.117 310.092 379.235L310.088 379.341C309.985 382.118 310.305 384.855 309.94 387.628C309.618 390.075 309.75 393.655 308.526 395.897C305.282 401.841 300.047 406.091 293.972 408.899C291.121 410.217 290.091 412.161 288.275 414.71Z" fill="#2E3120"/>
<path d="M385.576 293.898C382.952 295.827 380.556 298.085 377.624 299.563C374.161 301.309 371.735 303.09 368.245 303.356C365.632 303.556 363.807 304.834 361.379 305.625C357.621 306.848 353.458 303.458 351.667 300.311C350.036 297.444 349.393 294.605 346.339 292.856C344.392 291.741 342.351 290.899 340.282 290.054C336.966 288.701 333.631 287.046 330.205 286.002C327.854 285.286 327.166 285.56 325.288 287.206C322.687 289.485 320.381 292.187 317.467 294.094C315.665 295.274 314.184 296.415 312.123 295.574C308.26 293.998 304.55 291.68 301.002 289.52C297.294 287.263 293.483 284.457 290.617 281.187L290.582 281.147C288.891 279.217 287.275 277.373 285.303 275.718C283.785 274.443 282.269 272.856 281.289 271.11C280.65 269.971 281.919 268.051 282.359 267.016C283.105 265.266 284.121 263.597 285.095 261.967C286.631 259.399 287.902 256.681 289.5 254.15C291.725 250.626 293.828 247.031 296.215 243.614C297.751 241.415 299.457 239.179 300.645 236.766C301.219 235.6 301.984 234.564 302.556 233.406C303.223 232.055 305.75 231.269 306.966 230.54C312.662 227.127 318.156 223.457 324.219 220.72C330.928 217.692 337.937 218.186 345.067 218.688L345.439 218.714C347.679 218.872 349.851 218.925 351.959 219.755C353.339 220.298 354.571 221.091 355.941 221.65C358.105 222.533 360.004 223.77 361.877 225.153C364.589 227.155 367.541 228.876 370.402 230.657C372.741 232.113 375.082 233.696 377.516 234.985C378.916 235.727 380.137 236.925 381.584 237.515C384.757 238.81 387.637 238.673 391.058 238.561C393.563 238.479 395.411 239.911 397.535 240.995C399.932 242.218 402.38 243.365 404.742 244.656C406.99 245.884 409.018 247.354 410.989 248.975C412.818 250.48 415.039 251.328 416.728 252.998C419.14 255.381 420.037 257.567 419.314 260.923C418.867 263 418.117 265.023 417.381 267.011L417.344 267.11C416.379 269.716 415.828 272.416 414.615 274.937C413.545 277.16 412.553 280.602 410.69 282.35C405.752 286.984 399.452 289.386 392.803 290.157C389.683 290.518 388.098 292.044 385.576 293.898Z" fill="#2E3120"/>
<path d="M441.085 350.318C438.5 347.279 435.746 344.378 433.191 341.318C427.091 334.015 420.725 329.461 414.246 323.023C412.46 321.248 409.728 320.248 407.787 318.63C406.9 317.889 405.899 317.399 405.034 316.595C404.277 315.89 403.593 315.117 402.844 314.405C401.952 313.557 400.195 312.588 399.117 313.383C396.03 315.662 392.623 318.428 390.181 321.387C388.214 323.771 386.122 326.073 383.85 328.164C382.278 329.61 380.053 330.712 378.805 332.444C377.209 334.658 375.119 336.533 373.284 338.552C370.808 341.278 368.793 344.086 366.76 347.14C363.193 352.499 362.45 360.025 355.818 362.482C353.959 363.171 351.936 363.26 350.049 363.873C348.01 364.535 346.131 365.628 344.251 366.64C339.514 369.191 334.578 371.362 329.407 372.904C328.048 373.309 324.873 373.882 324.166 375.434C323.69 376.478 324.491 378.743 324.686 379.813C325.123 382.207 325.643 384.8 325.779 387.228C325.886 389.138 325.737 391.034 326.11 392.928C326.382 394.308 327.446 394.906 328.492 395.707C330.024 396.881 331.54 398.059 333.185 399.074C337.66 401.837 342.892 403.411 348.071 404.147C354.356 405.04 360.578 406.438 366.648 408.286C369.27 409.084 371.827 409.878 374.517 410.422C375.321 410.584 376.455 411.146 377.201 410.596C378.889 409.35 379.878 407.39 381.187 405.776C382.551 404.094 383.838 402.271 385.34 400.712C386.67 399.331 388.35 398.191 389.825 396.967C391.405 395.655 393.154 394.558 394.651 393.144C396.201 391.68 397.612 390 399.07 388.439C405.896 381.132 414.257 375.949 422.789 370.862C427.837 367.853 432.695 364.303 437.045 360.339C438.61 358.914 440.004 357.318 441.566 355.89C442.118 355.385 442.837 354.691 442.974 353.912C443.227 352.47 441.921 351.3 441.085 350.318Z" fill="#2E3120"/>
<path d="M408.649 432.511C408.841 426.861 412.475 421.193 415.386 416.581C419.024 410.815 421.082 404.68 422.136 402.748C423.082 401.013 424.089 398.962 424.136 396.942C424.159 395.935 424.749 395.127 424.997 394.136C425.259 393.087 425.224 391.958 425.636 390.942C426.476 388.866 427.797 389.136 429.691 389.136C431.978 389.136 434.232 389.386 436.538 389.386C442.228 389.386 447.845 389.338 453.455 388.248C458.604 387.246 464.104 388.051 469.302 388.331C472.898 388.525 476.551 388.886 480.149 388.886C482.89 388.886 485.664 389.533 488.33 390.136C490.118 390.541 491.66 391.016 492.747 392.498C493.758 393.877 493.386 396.519 493.386 398.136C493.386 400.504 493.394 402.929 493.941 405.248C494.688 408.414 494.636 411.405 494.636 414.65C494.636 417.709 494.414 420.357 493.024 423.136C492.225 424.735 491.932 425.149 490.358 426.011C487.612 427.515 484.972 429.051 482.386 430.831C480.389 432.205 477.45 433.114 476.024 435.15C475.37 436.086 475.006 437.168 474.524 438.192C473.731 439.88 472.573 441.389 471.636 442.998C470.323 445.249 468.83 447.336 467.399 449.511C466.158 451.399 465.348 453.406 464.344 455.414C462.584 458.933 460.448 462.533 457.858 465.511C454.341 469.556 449.938 472.906 445.691 476.136C444.52 477.027 441.464 480.105 439.774 479.623C438.334 479.211 437.068 477.707 435.83 476.886C433.861 475.582 431.803 474.433 430.024 472.859C427.922 470.997 426.479 468.594 424.899 466.303C422.926 463.442 420.65 460.841 419.024 457.748C417.452 454.755 416.187 451.612 414.58 448.636C412.008 443.874 408.458 438.153 408.649 432.511Z" fill="#2E3120"/>
<path d="M136.679 285.012C139.209 290.067 138.724 296.783 138.369 302.225C137.926 309.029 139.049 315.401 139.046 317.602C139.044 319.578 139.138 321.861 140.062 323.658C140.522 324.554 140.39 325.546 140.646 326.534C140.916 327.581 141.486 328.557 141.61 329.646C141.863 331.871 140.574 332.264 138.909 333.169C136.9 334.262 134.8 335.119 132.774 336.22C127.776 338.937 122.863 341.663 118.456 345.3C114.41 348.639 109.194 350.56 104.493 352.796C101.241 354.344 97.8599 355.77 94.6981 357.489C92.29 358.798 89.5445 359.555 86.914 360.298C85.1498 360.797 83.5684 361.116 81.9059 360.333C80.3581 359.604 79.424 357.106 78.6513 355.684C77.5204 353.604 76.3546 351.478 74.7668 349.702C72.5986 347.277 71.2158 344.624 69.6656 341.773C68.2048 339.086 67.1345 336.653 67.0279 333.548C66.9666 331.761 67.0259 331.258 67.9975 329.748C69.6917 327.116 71.2776 324.505 72.6997 321.706C73.7975 319.546 75.9456 317.343 76.2253 314.873C76.3538 313.738 76.1567 312.614 76.0903 311.484C75.9809 309.622 76.278 307.743 76.3332 305.883C76.4104 303.278 76.726 300.731 76.9436 298.137C77.1325 295.885 76.8858 293.735 76.8088 291.491C76.6739 287.559 76.8316 283.376 77.6845 279.522C78.8426 274.289 81.111 269.243 83.2989 264.376C83.9024 263.034 85.1175 258.87 86.832 258.488C88.2943 258.161 90.1251 258.878 91.6043 259.007C93.9576 259.213 96.3141 259.239 98.6286 259.773C101.365 260.404 103.78 261.827 106.262 263.085C109.363 264.656 112.605 265.854 115.51 267.795C118.321 269.674 120.933 271.831 123.767 273.677C128.301 276.633 134.152 279.964 136.679 285.012Z" fill="#2E3120"/>
<path d="M398.302 153.055C403.851 151.971 410.191 154.238 415.339 156.037C421.776 158.286 428.216 158.91 430.336 159.503C432.239 160.035 434.464 160.555 436.443 160.146C437.429 159.943 438.349 160.336 439.37 160.354C440.451 160.374 441.544 160.086 442.626 160.259C444.838 160.61 444.872 161.958 445.298 163.804C445.812 166.033 446.075 168.285 446.594 170.532C447.873 176.076 449.183 181.539 451.508 186.76C453.641 191.551 454.094 197.092 454.99 202.22C455.61 205.767 456.079 209.407 456.888 212.914C457.505 215.585 457.498 218.432 457.51 221.166C457.518 222.999 457.402 224.608 456.202 226.001C455.086 227.297 452.428 227.527 450.852 227.891C448.545 228.424 446.184 228.977 444.048 230.032C441.131 231.471 438.204 232.093 435.042 232.823C432.062 233.51 429.431 233.89 426.411 233.161C424.673 232.742 424.204 232.55 423.01 231.209C420.927 228.872 418.837 226.645 416.521 224.525C414.733 222.889 413.186 220.229 410.882 219.298C409.823 218.87 408.686 218.759 407.581 218.521C405.757 218.127 404.026 217.338 402.248 216.786C399.759 216.014 397.39 215.028 394.949 214.124C392.83 213.339 390.693 213.001 388.51 212.474C384.686 211.551 380.698 210.278 377.213 208.424C372.481 205.907 368.226 202.37 364.124 198.959C362.993 198.018 359.306 195.732 359.397 193.977C359.474 192.481 360.655 190.909 361.176 189.519C362.004 187.307 362.661 185.043 363.795 182.956C365.136 180.489 367.153 178.542 369.03 176.488C371.374 173.922 373.397 171.119 376.045 168.84C378.608 166.634 381.385 164.695 383.923 162.46C387.985 158.883 392.762 154.138 398.302 153.055Z" fill="#2E3120"/>
<path d="M141.645 92.9898C146.576 86.798 148.496 84.0528 153.617 78.0175C156.125 75.062 160.166 73.2235 162.367 72.5175C165.364 71.5562 169.017 72.8535 171.867 73.7675C178.811 75.9947 183.273 82.5103 188.117 87.5175C190.02 89.4843 191.509 91.7355 193.617 93.5175C196.052 95.5758 198.818 97.159 201.339 99.1009C204.537 101.564 205.982 104.886 205.561 108.907C205.126 113.072 201.187 113.69 197.811 114.824C195.048 115.751 192.217 116.743 189.617 118.074C186.846 119.491 184.485 121.554 181.867 123.212C179.057 124.993 176.042 126.424 173.228 128.212C170.811 129.749 168.779 130.852 165.895 131.157C160.058 131.773 155.509 129.186 150.673 126.268C148.273 124.82 145.753 123.511 143.284 122.185C141.111 121.018 138.966 119.958 137.367 118.018C134.886 115.008 132.592 111.829 133.478 107.712C133.954 105.5 135.222 103.375 136.367 101.462C138.081 98.5981 139.557 95.6115 141.645 92.9898Z" fill="#2E3120"/>
<path d="M458.174 314.215C464.73 309.78 467.616 308.079 474.031 303.443C477.173 301.173 479.32 297.287 480.195 295.147C481.387 292.234 480.377 288.491 479.688 285.579C478.007 278.483 471.858 273.528 467.243 268.309C465.43 266.259 463.302 264.599 461.689 262.359C459.826 259.772 458.463 256.891 456.723 254.226C454.516 250.847 451.316 249.147 447.275 249.254C443.089 249.365 442.166 253.243 440.774 256.521C439.634 259.204 438.425 261.948 436.897 264.438C435.268 267.09 433.028 269.283 431.171 271.764C429.177 274.427 427.516 277.322 425.514 279.988C423.794 282.279 422.536 284.218 422.008 287.071C420.94 292.842 423.166 297.578 425.699 302.627C426.955 305.132 428.065 307.746 429.195 310.311C430.189 312.568 431.079 314.789 432.889 316.534C435.697 319.241 438.688 321.775 442.861 321.212C445.103 320.91 447.32 319.81 449.317 318.818C452.305 317.332 455.397 316.093 458.174 314.215Z" fill="#2E3120"/>
<path d="M53.9632 84.3872C44.468 84.3508 35.9733 85.7603 26.5188 86.79C23.6364 87.2017 18.9892 87.4004 16.102 87.6927C13.9572 87.9099 11.6853 88.1372 9.53263 88.1372C8.5289 88.1372 8.76873 89.6878 8.76873 90.3872C8.76873 96.4284 8.83611 102.26 9.76874 108.248C10.4914 112.889 11.2985 117.416 11.6436 122.109C11.8843 125.383 12.1129 128.491 12.6436 131.734C13.1771 134.995 15.5801 136.216 18.5743 137.137C22.9486 138.483 27.5118 139.159 31.9215 140.401C40.978 142.952 49.3275 147.256 58.2132 150.248C61.6499 151.406 65.0133 152.771 68.4355 153.971C70.9249 154.844 73.3837 155.629 75.5743 157.137C79.1164 159.577 82.9895 161.547 86.4077 164.165C90.9292 167.628 94.7648 171.978 99.0743 175.693C103.133 179.191 107.268 182.092 111.824 184.887C115.844 187.353 121.47 187.845 125.769 185.637C127.557 184.719 129.012 183.604 130.949 182.873C134.473 181.544 137.899 179.81 140.963 177.582C142.063 176.781 143.061 175.174 143.394 173.846C143.848 172.028 144.329 171.04 145.407 169.443C145.821 168.831 148.406 166.303 147.602 165.498C145.535 163.431 142.883 162.143 140.269 160.901C133.965 157.907 126.562 157.193 120.88 152.943C117.029 150.063 113.52 146.397 109.949 143.179C105.224 138.92 101.14 133.87 96.9077 129.137C94.1806 126.088 91.0706 123.543 87.8382 121.054C84.9835 118.856 82.8076 116.301 80.5188 113.54C78.0875 110.607 75.1843 108.078 73.0743 104.887C71.3634 102.3 69.7284 99.5229 68.5743 96.6372C67.2632 93.3595 66.4321 89.9851 64.8937 86.79C63.3666 83.618 56.566 84.3971 53.9632 84.3872Z" fill="#2E3120"/>
<path d="M96.8577 396.039C97.1146 406.496 99.0009 415.805 100.481 426.182C101.044 429.343 101.419 434.454 101.845 437.624C102.162 439.978 102.495 442.473 102.563 444.843C102.594 445.949 104.368 445.634 105.171 445.611C112.111 445.412 118.807 445.147 125.657 443.923C130.965 442.975 136.139 441.938 141.52 441.404C145.272 441.031 148.835 440.678 152.544 439.987C156.272 439.292 157.6 436.606 158.564 433.279C159.972 428.417 160.605 423.37 161.893 418.473C164.539 408.417 169.22 399.081 172.377 389.198C173.599 385.375 175.061 381.627 176.332 377.819C177.256 375.048 178.08 372.315 179.744 369.853C182.435 365.873 184.576 361.543 187.476 357.693C191.312 352.6 196.189 348.233 200.32 343.366C204.211 338.782 207.413 334.133 210.48 329.024C213.187 324.516 213.574 318.304 210.903 313.643C209.792 311.704 208.466 310.138 207.565 308.029C205.927 304.192 203.827 300.476 201.172 297.176C200.218 295.99 198.34 294.944 196.804 294.622C194.702 294.181 193.551 293.684 191.683 292.548C190.967 292.113 187.981 289.349 187.083 290.261C184.773 292.605 183.377 295.568 182.033 298.488C178.792 305.527 178.204 313.703 173.501 320.1C170.314 324.435 166.214 328.42 162.629 332.457C157.885 337.8 152.213 342.463 146.91 347.28C143.493 350.383 140.667 353.891 137.91 357.532C135.475 360.748 132.609 363.228 129.509 365.839C126.216 368.613 123.403 371.893 119.804 374.321C116.886 376.29 113.747 378.182 110.469 379.547C106.745 381.098 102.895 382.124 99.2738 383.923C95.6783 385.709 96.7873 393.173 96.8577 396.039Z" fill="#2E3120"/>
<path d="M233.335 39.7878C229.852 41.5235 225.479 40.7592 220.946 44.3984C218.489 46.3714 218.929 46.9511 218.791 48.8074C218.171 57.1253 219.485 65.6274 220.504 73.8699C221.634 83.0078 220.315 92.0285 220.37 101.19C220.405 107.244 221.78 113.199 222.578 119.166L222.589 119.248C223.06 122.77 223.527 126.256 224.976 129.506C226.509 132.942 228.304 136.388 229.435 139.982C230.83 144.419 232.058 148.888 233.355 153.352C234.012 155.614 234.815 157.701 235.244 160.032C235.813 163.121 236.3 166.223 236.963 169.294C237.903 173.643 238.918 177.935 240.183 182.204C241.073 185.205 242.059 188.141 242.628 191.223C243.767 197.401 245.477 203.437 248.185 209.12C249.282 211.422 249.843 213.828 250.579 216.255C250.929 217.411 251.058 218.864 251.661 219.914C252.264 220.963 253.164 221.01 254.328 221.222C255.562 221.446 256.677 221.541 257.947 221.404C260.656 221.111 263.404 221.737 266.065 221.408C266.521 221.352 268.222 221.428 268.141 220.773C267.968 219.374 268.702 217.544 268.828 216.14C269.16 212.449 270.676 208.61 271.64 205.045C272.551 201.679 273.417 198.389 274.031 194.953C274.675 191.348 275.82 187.854 276.416 184.246C277.277 179.035 277.5 173.73 278.304 168.506C279.017 163.877 279.721 159.231 280.562 154.624C281.582 149.041 284.268 143.824 284.886 138.206C285.487 132.733 284.597 127.465 283.892 122.025C283.381 118.069 282.778 114.086 282.117 110.153C281.476 106.34 280.254 102.681 279.439 98.9104C278.421 94.2034 278.064 89.3588 277.127 84.6278C276.329 80.5941 275.285 76.5996 274.122 72.6562C272.904 68.5285 271.309 64.5492 269.634 60.5878C268.482 57.8615 267.688 55.0846 266.707 52.3011C265.157 47.9085 263.132 43.9042 262.312 39.2837C261.851 36.6833 259.554 33.7532 257.879 31.8408C257.232 31.1021 256.09 30.7359 255.139 31.074C253.206 31.7616 251.26 32.4353 249.274 33.1008C243.725 34.9601 238.567 37.1807 233.335 39.7878Z" fill="#2E3120"/>
<path d="M173.895 195.001C178.814 195.798 183.714 196.691 188.608 197.631C198.816 199.59 203.142 199.878 208.747 202.516C209.978 203.168 218.849 205.186 220.099 205.863C221.943 206.861 224.085 207.336 225.837 208.564C227.379 209.646 228.535 210.977 229.943 212.137C231.398 213.335 232.575 215.034 234.239 215.975C235.083 216.452 235.327 218.085 235.444 219.071C236.104 224.617 236.537 230.161 237.02 235.743C237.323 239.238 237.728 242.97 237.144 246.462C236.725 248.966 235.659 250.991 234.192 253.063C233.366 254.23 232.328 254.893 231.34 255.873C230.852 256.357 230.385 256.988 229.667 257.116C227.871 257.438 225.435 256.724 223.692 256.311L223.652 256.302C221.914 255.89 220.109 255.462 218.422 254.878C216.145 254.09 214.061 252.944 211.832 252.067C210.869 251.689 210.064 251.665 209.072 251.94C206.731 252.59 204.374 253.444 202.112 254.335C199.503 255.363 197.775 256.41 195.692 258.31C191.84 261.821 187.894 265.206 184.341 269.031C182.343 271.182 180.441 273.422 178.429 275.56C177.185 276.882 176.239 278.827 174.436 279.451C172.569 280.098 171.384 279.939 169.511 279.522C163.799 278.251 160.119 274.116 155.462 270.927C152.994 269.237 150.28 267.486 147.595 266.165C143.837 264.316 139.622 264.356 135.765 262.965C132.373 261.741 128.967 258.841 127.8 255.361C127.469 254.375 127.061 253.255 127.169 252.206C127.307 250.852 128.159 250.083 128.727 248.89C129.459 247.353 129.973 245.869 130.984 244.458C132.228 242.721 133.4 240.946 134.279 238.987C136.048 235.042 137.967 231.194 140.615 227.757C142.111 225.814 143.792 224.121 144.695 221.794C145.452 219.846 145.479 217.706 146.108 215.722C147.43 211.551 148.576 207.425 150.534 203.48C151.499 201.535 152.551 199.651 153.381 197.643C153.772 196.699 154.204 195.521 155.209 195.089C156.219 194.655 157.643 194.572 158.73 194.327C160.328 193.966 162.094 193.589 163.736 193.614C167.062 193.664 170.617 194.47 173.895 195.001Z" fill="#2E3120"/>
<path d="M294.749 112.343C294.926 108.612 295.33 104.955 295.859 101.258C296.138 99.313 300.135 84.2009 302.819 83.1169C303.745 83.2147 304.831 82.5298 305.722 82.3406C307.218 82.023 308.73 81.822 310.238 81.5693C315.637 80.6641 320.645 79.0984 326.173 79.1772C329.738 79.2281 333.124 79.8385 336.617 80.5163C338.669 80.9147 340.766 81.2751 342.703 82.091C346.732 83.7872 347.892 88.2535 348.379 92.2343C349.75 103.465 349.405 114.945 350.022 126.234C350.315 131.6 350.823 136.969 351.632 142.283C352.123 145.508 353.218 148.58 353.824 151.771C354.347 154.522 354.866 157.309 355.301 160.077C355.529 161.521 355.984 163.196 355.774 164.662C355.474 166.756 353.735 167.308 352.114 168.486C350.502 169.658 348.613 170.39 347.009 171.577C345.601 172.618 344.516 174.247 342.923 175.001C340.442 176.175 338.112 175.797 335.932 174.137C334.317 172.909 333.625 170.299 332.833 168.523C331.797 166.201 330.812 163.995 329.524 161.793C325.01 154.08 319.144 148.118 312.982 141.698C309.566 138.139 305.581 135.157 302.313 131.46C300.022 128.869 296.846 125.678 295.733 122.336C294.574 118.853 294.579 115.908 294.749 112.343Z" fill="#2E3120"/>
<path d="M97.3228 200.28C98.807 203.708 100.056 207.169 101.209 210.721C101.816 212.589 104.886 227.917 102.954 230.072C102.08 230.392 101.406 231.486 100.689 232.048C99.4867 232.993 98.2178 233.839 96.9761 234.73C92.528 237.921 88.7217 241.534 83.7246 243.898C80.5015 245.423 77.193 246.367 73.759 247.297C71.7407 247.844 69.6999 248.444 67.6011 248.566C63.2374 248.818 60.2278 245.319 58.0375 241.96C51.8583 232.483 47.1103 222.025 41.5831 212.162C38.9559 207.474 36.1339 202.878 33.0666 198.464C31.2052 195.785 28.8687 193.51 26.9183 190.912C25.2367 188.673 23.5436 186.399 21.9329 184.107C21.0926 182.911 19.9457 181.607 19.4883 180.198C18.8351 178.187 20.1529 176.925 21.0892 175.153C22.0203 173.391 23.3934 171.902 24.3104 170.13C25.1154 168.574 25.3724 166.634 26.4698 165.256C28.1797 163.109 30.4382 162.421 33.1269 162.95C35.1176 163.342 36.8888 165.38 38.3822 166.625C40.335 168.253 42.1911 169.8 44.3178 171.209C51.7684 176.145 59.6611 178.913 68.0212 181.961C72.6553 183.651 77.5477 184.572 82.1093 186.451C85.3078 187.768 89.565 189.233 92.0366 191.743C94.6116 194.359 95.9048 197.005 97.3228 200.28Z" fill="#2E3120"/>
<path d="M182.871 151.754C182.244 149.526 182.751 144.509 182.871 142.184C184.787 138.295 191.695 141.504 196.704 141.545C199.47 141.568 202.396 141.878 205.149 142.184C207.585 142.455 210.085 142.811 212.107 144.309C215.597 146.894 215.215 151.726 215.788 155.573C216.466 160.13 216.336 164.6 215.218 169.073C214.716 171.083 214.509 174.469 213.093 176.143C212.693 176.616 211.785 176.894 211.26 177.157C209.286 178.143 207.35 179.24 205.343 180.157C201.44 181.938 197.44 183.372 193.593 185.295C191.902 186.141 190.396 187.045 188.482 187.045C186.962 187.045 187.048 185.979 186.982 184.559C186.619 176.756 185.873 169.09 184.787 161.351C184.331 158.097 183.762 154.919 182.871 151.754Z" fill="#2E3120"/>
<path d="M348.893 315.9C351.207 315.911 355.891 317.78 358.093 318.536C361.303 321.449 356.316 327.206 354.897 332.01C354.113 334.663 353.009 337.39 351.957 339.952C351.026 342.22 349.995 344.524 347.998 346.056C344.551 348.699 340.012 347.001 336.156 346.492C331.588 345.889 327.327 344.533 323.335 342.226C321.541 341.19 318.343 340.059 317.124 338.236C316.779 337.721 316.762 336.772 316.654 336.195C316.249 334.025 315.728 331.863 315.4 329.68C314.762 325.438 314.485 321.197 313.696 316.97C313.349 315.111 312.894 313.415 313.421 311.574C313.84 310.113 314.842 310.489 316.224 310.817C323.826 312.617 331.401 314.012 339.139 315.099C342.393 315.557 345.605 315.885 348.893 315.9Z" fill="#2E3120"/>
<path d="M337.848 70.3597C335.603 69.8 331.497 66.8715 329.538 65.615C327.111 62.0223 333.323 57.6144 335.842 53.285C337.233 50.894 338.953 48.5074 340.584 46.2684C342.027 44.2866 343.576 42.2928 345.879 41.2793C349.854 39.5304 353.861 42.2575 357.486 43.6679C361.78 45.3385 365.597 47.6671 368.927 50.856C370.424 52.2889 373.262 54.147 374.013 56.2066C374.225 56.789 374.017 57.7149 373.985 58.3015C373.863 60.5049 373.856 62.7296 373.656 64.9271C373.268 69.1995 372.53 73.3851 372.293 77.6791C372.189 79.5672 372.228 81.3229 371.279 82.9854C370.525 84.3057 369.641 83.7017 368.376 83.0553C361.419 79.5015 354.392 76.3481 347.133 73.4538C344.081 72.2369 341.039 71.1551 337.848 70.3597Z" fill="#2E3120"/>
<path d="M326.612 198.822C327.443 200.981 327.404 206.024 327.5 208.35C325.953 212.4 318.777 209.846 313.786 210.27C311.029 210.504 308.088 210.467 305.319 210.418C302.867 210.375 300.346 210.252 298.193 208.948C294.478 206.699 294.41 201.852 293.483 198.075C292.384 193.601 292.098 189.138 292.796 184.58C293.11 182.533 293.001 179.142 294.256 177.344C294.61 176.836 295.488 176.475 295.987 176.164C297.861 174.998 299.686 173.727 301.599 172.628C305.32 170.492 309.17 168.692 312.822 166.42C314.427 165.421 315.842 164.381 317.748 164.203C319.262 164.062 319.275 165.132 319.472 166.539C320.558 174.275 322.013 181.839 323.812 189.444C324.569 192.641 325.431 195.753 326.612 198.822Z" fill="#2E3120"/>
<path d="M222.954 308.759C221.545 305.3 220.371 301.813 219.294 298.237C218.728 296.356 215.991 280.965 217.969 278.852C218.85 278.551 219.547 277.472 220.275 276.926C221.499 276.008 222.785 275.189 224.046 274.325C228.562 271.23 232.446 267.701 237.493 265.445C240.748 263.99 244.076 263.118 247.529 262.263C249.559 261.76 251.612 261.204 253.713 261.128C258.082 260.97 261.015 264.533 263.132 267.939C269.104 277.547 273.625 288.106 278.938 298.086C281.463 302.829 284.185 307.485 287.156 311.965C288.959 314.684 291.246 317.009 293.139 319.648C294.772 321.923 296.416 324.233 297.976 326.559C298.79 327.773 299.909 329.102 300.336 330.52C300.945 332.545 299.6 333.778 298.626 335.529C297.657 337.271 296.252 338.73 295.297 340.481C294.458 342.019 294.16 343.954 293.033 345.308C291.277 347.417 289.004 348.056 286.327 347.469C284.346 347.034 282.619 344.958 281.153 343.681C279.236 342.011 277.413 340.425 275.318 338.97C267.976 333.874 260.145 330.936 251.853 327.708C247.256 325.918 242.385 324.891 237.865 322.914C234.696 321.528 230.471 319.971 228.054 317.408C225.537 314.738 224.301 312.064 222.954 308.759Z" fill="#2E3120"/>
<path d="M74.163 435.415C73.4739 439.087 72.5715 442.654 71.5389 446.243C70.9956 448.131 64.9594 462.55 62.1519 463.255C61.2484 463.031 60.078 463.56 59.1694 463.625C57.6439 463.734 56.1185 463.725 54.5909 463.768C49.1185 463.922 43.9425 464.785 38.4781 463.947C34.9535 463.407 31.6837 462.336 28.3175 461.185C26.3389 460.508 24.3119 459.863 22.5049 458.789C18.7479 456.555 18.2124 451.971 18.2779 447.962C18.4628 436.65 20.3828 425.326 21.3239 414.059C21.7712 408.704 22.0054 403.316 21.9349 397.941C21.8922 394.679 21.2296 391.486 21.0674 388.242C20.9276 385.445 20.7975 382.613 20.7461 379.812C20.7193 378.35 20.4988 376.628 20.9083 375.205C21.4932 373.172 23.2916 372.864 25.0592 371.92C26.817 370.981 28.7885 370.516 30.5402 369.561C32.0782 368.723 33.3773 367.258 35.058 366.731C37.6768 365.909 39.933 366.604 41.8648 368.547C43.2951 369.986 43.6218 372.666 44.1624 374.534C44.8693 376.976 45.5415 379.297 46.515 381.655C49.9256 389.916 54.9165 396.627 60.1375 403.833C63.0315 407.828 66.5696 411.33 69.2978 415.44C71.2108 418.322 73.9186 421.919 74.5614 425.383C75.231 428.991 74.8214 431.908 74.163 435.415Z" fill="#2E3120"/>
<path d="M428.336 123.174C426.474 126.412 424.445 129.482 422.286 132.529C421.15 134.132 410.694 145.752 407.812 145.49C407.033 144.981 405.753 145.094 404.874 144.855C403.398 144.455 401.961 143.943 400.505 143.48C395.288 141.82 390.117 140.926 385.235 138.332C382.086 136.659 379.353 134.57 376.555 132.372C374.911 131.08 373.21 129.802 371.859 128.192C369.049 124.843 370.056 120.34 371.441 116.576C375.349 105.959 380.898 95.9026 385.504 85.5774C387.693 80.6698 389.692 75.6609 391.399 70.5636C392.435 67.4703 392.864 64.2374 393.781 61.1216C394.572 58.4351 395.383 55.7188 396.259 53.0577C396.716 51.6693 397.076 49.9706 397.933 48.7623C399.156 47.0364 400.955 47.3392 402.935 47.0313C404.904 46.7251 406.919 46.9364 408.887 46.613C410.616 46.329 412.325 45.3754 414.086 45.4321C416.829 45.5204 418.73 46.9207 419.912 49.3928C420.788 51.2231 420.211 53.8611 420.105 55.8024C419.967 58.3411 419.836 60.7536 419.977 63.3007C420.47 72.2245 422.967 80.2071 425.518 88.7322C426.932 93.4577 429.116 97.9313 430.335 102.712C431.19 106.064 432.559 110.353 432.023 113.834C431.464 117.462 430.115 120.08 428.336 123.174Z" fill="#2E3120"/>
<path d="M465.861 77.7238C473.012 79.0242 476.067 79.3851 483.173 80.9066C486.654 81.6517 489.896 84.1227 491.423 85.5966C493.503 87.6037 494.04 91.1227 494.538 93.8251C495.752 100.41 492.419 106.85 490.472 112.944C489.707 115.337 488.533 117.52 488.007 119.999C487.399 122.863 487.32 125.789 486.844 128.672C486.24 132.328 484.18 134.94 480.745 136.346C477.186 137.803 474.975 134.885 472.592 132.646C470.641 130.813 468.61 128.954 466.404 127.428C464.054 125.803 461.359 124.788 458.88 123.391C456.22 121.891 453.752 120.073 451.083 118.573C448.79 117.285 447.015 116.121 445.516 113.919C442.482 109.465 442.6 104.661 442.86 99.481C442.989 96.9108 442.954 94.3037 442.954 91.7298C442.954 89.4655 442.88 87.2692 443.755 85.1334C445.113 81.8186 446.688 78.5826 450.403 77.5112C452.4 76.9356 454.67 77.0386 456.714 77.1338C459.776 77.2763 462.833 77.1732 465.861 77.7238Z" fill="#2E3120"/>
<path d="M340.492 500H267.491C267.805 499.324 268.128 498.653 268.447 497.988C268.803 497.245 269.156 496.511 269.489 495.788C271.573 491.261 273.746 486.779 275.961 482.316C277.011 480.2 277.896 478.354 278.685 476.709C281.368 471.114 282.935 467.846 286.059 464.219C286.531 463.72 287.818 461.524 289.122 459.301C290.463 457.013 291.821 454.696 292.322 454.177C292.925 453.552 293.454 452.854 293.986 452.154C294.738 451.163 295.492 450.168 296.461 449.371C297.334 448.654 298.256 448.094 299.177 447.535C299.791 447.163 300.404 446.79 301.002 446.371C301.596 445.956 302.25 445.6 302.906 445.242C303.958 444.67 305.018 444.092 305.85 443.26C306.535 442.575 308.174 442.776 309.155 442.927C313.716 443.629 318.233 444.479 322.772 445.333C323.728 445.513 324.684 445.693 325.641 445.871C325.908 445.921 326.175 445.971 326.444 446.02C329.659 446.614 333.042 447.24 336.002 448.621C338.303 449.695 339.969 451.265 341.572 453.233C342.165 453.96 342.524 454.717 342.893 455.495C343.087 455.902 343.283 456.315 343.516 456.733C343.577 456.841 343.642 456.949 343.708 457.059C344.008 457.559 344.322 458.082 344.266 458.677C344.118 460.259 343.082 462.099 342.246 463.584C342.122 463.804 342.003 464.016 341.891 464.219L341.872 464.255C341.009 465.819 340.114 467.444 339.1 468.913C338.318 470.045 337.442 471.085 336.565 472.125C335.906 472.907 335.246 473.689 334.627 474.51C334.005 475.336 333.766 476.106 333.766 477.135C333.766 479.565 333.958 482.064 334.211 484.483C334.503 487.271 335.05 489.217 336.322 491.733C336.816 492.71 337.304 493.689 337.791 494.668C338.68 496.453 339.567 498.236 340.492 500Z" fill="#2E3120"/>
<path d="M367.858 440.761C368.123 438.463 370.497 434.013 371.49 431.908C374.739 429.037 379.912 434.627 384.531 436.566C387.081 437.637 389.67 439.034 392.101 440.362C394.253 441.537 396.43 442.815 397.732 444.968C399.98 448.684 397.794 453.009 396.863 456.786C395.761 461.26 393.946 465.346 391.214 469.06C389.986 470.729 388.51 473.784 386.565 474.795C386.015 475.08 385.07 474.993 384.484 475.037C382.283 475.201 380.076 475.481 377.871 475.567C373.585 475.735 369.339 475.543 365.05 475.863C363.164 476.004 361.428 476.269 359.657 475.543C358.251 474.966 358.735 474.011 359.213 472.673C361.838 465.316 364.057 457.94 365.99 450.368C366.802 447.184 367.482 444.028 367.858 440.761Z" fill="#2E3120"/>
<path d="M64.6694 0C64.6547 0.096173 64.64 0.192231 64.6253 0.288161C64.6104 0.385828 64.5955 0.483368 64.5806 0.580758C64.3792 1.90157 64.2377 3.22987 64.0962 4.55797C63.9208 6.20499 63.7454 7.85172 63.4556 9.48358C63.2395 10.7006 63.0357 11.9195 62.832 13.138C62.3489 16.0275 61.8661 18.9154 61.2195 21.7752C61.1121 22.2505 60.9999 22.7291 60.8872 23.21C60.3793 25.3771 59.8597 27.594 59.7056 29.7891C59.6599 30.441 59.5571 31.0805 59.4544 31.719C59.3528 32.3509 59.2514 32.9817 59.2056 33.6225C59.1283 34.7052 58.0469 35.8811 57.1304 36.8779C56.7745 37.2649 56.4434 37.6249 56.2056 37.9419C55.293 39.1587 54.3954 40.3839 53.4987 41.6079C50.4802 45.7278 47.4724 49.8332 43.9417 53.553C38.8744 58.8918 32.1982 61.0829 25.4073 63.3117L25.0529 63.428C24.8107 63.5075 24.57 63.5879 24.33 63.6681C22.4551 64.2942 20.6314 64.9032 18.6223 64.928C17.8569 64.9375 17.1027 64.8705 16.3483 64.8035C15.6419 64.7408 14.9354 64.678 14.2195 64.678C11.8826 64.678 9.65704 64.2504 7.40007 63.678C4.97325 63.0625 2.48231 62.6404 0 62.231V0H64.6694Z" fill="#2E3120"/>
<path d="M500 339.98V374.131C493.259 370.289 486.429 366.837 479.359 363.631C476.367 362.274 473.378 361.052 470.228 360.109C468.407 359.565 465.407 357.366 463.341 355.852C462.891 355.522 462.486 355.225 462.146 354.984C460.596 352.442 463.133 349.705 465.755 346.877C466.951 345.587 468.164 344.278 469.016 342.96C470.516 340.636 472.345 338.332 474.078 336.171C475.611 334.258 477.251 332.338 479.599 331.433C482.824 330.189 485.938 331.779 488.867 333.275C489.618 333.658 490.357 334.035 491.082 334.357C494.366 335.813 497.341 337.656 500 339.98Z" fill="#2E3120"/>
<path d="M460.94 6.46889C460.464 7.31349 459.988 8.15815 459.483 8.98355C459.253 9.35858 459.038 9.72068 458.831 10.0702C457.562 12.2081 456.571 13.8768 454.205 15.178C448.341 18.4036 443.415 23.0085 440.594 29.1641C439.817 30.8604 439.811 33.2182 439.805 35.326C439.803 36.1038 439.801 36.8475 439.761 37.5113C439.655 39.2369 439.81 40.9304 439.965 42.6281C440.061 43.6773 440.157 44.7281 440.191 45.7891L440.195 45.8947C440.264 48.0129 440.335 50.1694 440.705 52.2613C441.304 55.6424 442.96 57.3267 446.094 58.6225C447.326 59.1317 448.615 59.3382 449.909 59.5455C450.92 59.7075 451.935 59.87 452.927 60.178C455.365 60.9345 457.798 61.5287 460.344 61.8169C462.072 62.0125 463.811 62.1389 465.549 62.2651C466.501 62.3341 467.451 62.4032 468.4 62.4836C468.9 62.5259 469.394 62.5871 469.884 62.6478C471.725 62.8756 473.509 63.0964 475.316 62.2891C475.407 62.2487 475.497 62.2084 475.587 62.1683C478.594 60.8234 481.155 59.678 484.483 59.678C485.371 59.678 486.266 59.8872 487.162 60.0968C487.843 60.2561 488.525 60.4155 489.205 60.4836C491.228 60.6859 493.265 61.0552 495.284 61.4216C496.001 61.5517 496.716 61.6813 497.427 61.803C498.136 61.9242 498.847 62.0412 499.559 62.1585C499.706 62.1827 499.853 62.2068 500 62.2311V0H465.332C465.129 0.24169 464.92 0.486328 464.705 0.733539C463.19 2.4744 462.065 4.47145 460.94 6.46889Z" fill="#2E3120"/>
<path d="M340.49 0C341.474 1.87657 342.5 3.73128 343.614 5.54256C344.329 6.70677 345.069 7.85611 345.809 9.00541C346.659 10.3252 347.509 11.6449 348.322 12.987C348.598 13.4427 348.933 13.8879 349.271 14.3377C350.084 15.4207 350.918 16.5301 351.002 17.8759C351.126 19.8483 350.655 20.9468 349.752 22.6398C347.763 26.3702 344.617 28.6787 341.396 31.0428C340.158 31.951 338.909 32.8675 337.711 33.8759C335.422 35.8017 333.008 37.9477 331.016 40.1815C329.432 41.9584 328.396 44.0409 327.361 46.1217C326.576 47.7013 325.791 49.2799 324.766 50.7231C322.68 53.6631 318.974 56.1691 315.308 56.362C315.244 56.3654 315.18 56.3689 315.115 56.3724C314.125 56.4263 313.021 56.4864 312.1 56.1259C311.26 55.7972 310.751 55.2357 310.213 54.6422C309.94 54.3399 309.658 54.0293 309.322 53.737C308.977 53.437 308.631 53.1532 308.289 52.8723C307.357 52.1077 306.452 51.3648 305.655 50.3759C304.315 48.712 302.919 47.1076 301.266 45.737C297.938 42.9763 294.745 40.0973 292.141 36.6259C291.802 36.1735 291.478 35.7151 291.156 35.2593C290.082 33.739 289.027 32.2469 287.489 31.0981C286.571 30.413 285.539 29.9234 284.507 29.4337C283.656 29.0298 282.804 28.6259 282.016 28.112C281.441 27.7368 280.866 27.366 280.292 26.9962C277.209 25.01 274.168 23.051 271.405 20.5704C270.932 20.1451 270.465 19.714 269.999 19.2834C268.875 18.2454 267.754 17.21 266.544 16.2648C266.497 16.2277 266.448 16.1903 266.4 16.1525C265.622 15.5482 264.71 14.8405 264.572 13.8204C264.475 13.1028 264.572 12.2534 264.666 11.4392C264.714 11.0166 264.762 10.6035 264.78 10.2231C264.86 8.58747 264.97 6.78472 265.433 5.20923C265.945 3.4668 266.693 1.71884 267.493 0H340.49Z" fill="#2E3120"/>
<path d="M420.635 3.20335C421.546 4.3737 422.534 5.64363 423.781 7.20932C424.913 8.63001 425.803 10.1945 426.696 11.763C427.031 12.3513 427.366 12.9401 427.714 13.5222C428.567 14.9476 429.512 16.5309 429.867 18.1792C430.527 21.2467 428.818 23.6149 426.969 25.858C425.864 27.1986 424.409 27.9756 422.912 28.7747C422.795 28.8372 422.678 28.8997 422.56 28.9627C422.237 29.1361 421.913 29.3091 421.589 29.4824C420.064 30.2964 418.529 31.1158 417.055 32.0053C413.451 34.1793 410.061 36.1073 405.712 35.6481C403.563 35.4211 402.049 34.5989 400.248 33.4541C399.193 32.7833 398.1 32.18 397.007 31.5771C395.929 30.9821 394.851 30.3874 393.811 29.7285C393.06 29.2525 392.337 28.7318 391.614 28.2112C390.46 27.38 389.306 26.5489 388.036 25.8994C386.099 24.9081 383.99 24.1692 381.931 23.4778C381.605 23.3683 381.272 23.2654 380.938 23.1622C378.699 22.4695 376.439 21.7705 376.156 19.0692C375.842 16.0735 376.92 13.598 379.302 11.7629C380.107 11.1427 380.946 10.5717 381.784 10.0008C382.902 9.23972 384.019 8.47896 385.056 7.60258C386.011 6.79493 386.796 5.85795 387.583 4.918C388.091 4.3126 388.599 3.70596 389.154 3.13186C389.93 2.32966 390.693 1.4755 391.464 0.612318C391.646 0.408528 391.829 0.204233 392.012 0H418.118C418.989 1.08861 419.777 2.10188 420.635 3.20335Z" fill="#2E3120"/>
<path d="M233.445 0C233.09 0.311564 232.772 0.651958 232.506 1.0315C232.039 1.69898 231.72 2.44106 231.4 3.18335C231.272 3.48153 231.144 3.77974 231.006 4.07316C230.508 5.13258 229.867 6.12132 229.226 7.10839C228.846 7.69429 228.466 8.27959 228.117 8.87873C227.193 10.4644 226.179 11.9683 225.161 13.4788C224.733 14.1134 224.304 14.7492 223.881 15.3926C222.992 16.7445 222.324 18.157 221.648 19.5876C221.38 20.1549 221.111 20.7251 220.825 21.2954C219.066 24.8143 216.929 28.4139 214.339 31.3926C210.822 35.4371 206.419 38.7874 202.173 42.0176C201.946 42.1901 201.648 42.4446 201.304 42.7394C199.869 43.9669 197.618 45.8929 196.256 45.5037C195.316 45.2351 194.45 44.5009 193.617 43.7953C193.175 43.4198 192.741 43.0525 192.311 42.7676C191.798 42.4275 191.279 42.098 190.76 41.7688C189.288 40.8351 187.821 39.9039 186.506 38.7399C184.765 37.1989 183.477 35.2865 182.189 33.3742C181.921 32.9764 181.653 32.5787 181.381 32.1843C180.733 31.2454 180.053 30.3346 179.374 29.4252C177.984 27.5631 176.598 25.707 175.506 23.6287C174.762 22.2123 174.086 20.7624 173.411 19.3125C172.66 17.6988 171.908 16.0851 171.061 14.5176C170.782 14.0011 170.492 13.4733 170.196 12.9355C168.022 8.98574 165.553 4.49888 165.174 0H233.445Z" fill="#2E3120"/>
<path d="M418.122 500H392.007C394.658 497.045 397.462 494.101 401.262 492.882C401.383 492.843 401.506 492.803 401.63 492.763C403.694 492.096 406.235 491.275 408.341 491.951C409.981 492.477 412.992 493.846 414.861 496.049C416.165 497.585 417.19 498.836 418.122 500Z" fill="#2E3120"/>
<path d="M500 495.397V500H465.328C465.659 499.605 465.976 499.218 466.286 498.84C468.027 496.714 469.52 494.891 471.955 493.674C473.49 492.906 474.537 491.838 475.625 490.729C476.198 490.145 476.782 489.549 477.455 488.979C480.473 486.426 485.608 487.992 488.455 490.229C489.101 490.737 489.69 491.266 490.264 491.782C491.993 493.337 493.586 494.769 496.205 495.118C497.473 495.287 498.735 495.363 500 495.397Z" fill="#2E3120"/>
<path d="M500 186.767V301.937C499.706 301.513 499.417 301.086 499.132 300.655C496.864 297.226 494.696 293.713 492.75 290.09C491.684 288.106 490.732 286.062 489.781 284.018C488.694 281.684 487.608 279.352 486.354 277.112C485.577 275.725 484.74 274.375 483.903 273.027C482.709 271.103 481.516 269.181 480.499 267.148C478.714 263.581 476.971 259.95 475.322 256.318C475.047 255.712 474.77 255.109 474.494 254.508C472.493 250.155 470.534 245.891 469.631 241.138C469.048 238.074 469.103 234.941 469.159 231.802C469.204 229.253 469.249 226.7 468.953 224.174C468.447 219.86 467.818 215.547 467.19 211.247C467.141 210.911 467.092 210.575 467.043 210.239C466.68 207.748 466.186 205.277 465.691 202.807C465.148 200.092 464.604 197.378 464.236 194.637C463.982 192.746 463.879 190.84 463.777 188.933C463.683 187.187 463.589 185.439 463.378 183.702C462.958 180.237 462.822 176.837 462.706 173.352C462.671 172.279 462.673 171.17 462.675 170.048C462.681 167.31 462.686 164.492 462.144 161.92C462.031 161.386 461.987 160.765 461.942 160.13C461.87 159.122 461.795 158.078 461.442 157.289C461.224 156.8 462.267 156.428 462.893 156.205C463.039 156.153 463.163 156.109 463.242 156.073C464.488 155.516 465.827 155.189 467.173 154.861C468.471 154.544 469.774 154.225 471.004 153.698C472.178 153.195 473.272 152.959 474.518 152.812C474.637 152.798 474.754 152.783 474.868 152.768C475.871 152.639 476.657 152.538 477.451 153.28C478.036 153.828 478.475 154.606 478.9 155.36C479.117 155.745 479.33 156.123 479.558 156.461C479.883 156.946 480.2 157.432 480.515 157.916C481.569 159.536 482.61 161.135 483.937 162.582C488.193 167.222 491.595 172.491 494.496 178.065C495.651 180.284 497.033 182.336 498.424 184.401C498.775 184.922 499.127 185.445 499.476 185.971C499.652 186.236 499.826 186.501 500 186.767Z" fill="#2E3120"/>
<path d="M0 301.937V186.767C2.25527 190.225 4.32045 193.765 6.3385 197.371C7.38601 199.243 8.35882 201.153 9.33186 203.063C9.78412 203.95 10.2364 204.838 10.6963 205.723C11.452 207.175 12.344 208.465 13.2491 209.772C13.6539 210.357 14.0614 210.946 14.4604 211.555C15.1828 212.658 15.9 213.762 16.617 214.866C18.4289 217.656 20.2392 220.443 22.1268 223.189C23.7063 225.487 25.6098 227.601 27.495 229.694C28.1571 230.429 28.8168 231.162 29.4595 231.899C31.7976 234.581 33.2654 237.778 34.7479 241.007L34.7824 241.082C35.5336 242.718 36.3337 244.338 37.1347 245.96C39.0124 249.761 40.8946 253.572 42.1621 257.621C43.1469 260.768 43.9565 263.949 44.7644 267.124C46.2017 272.772 47.6341 278.401 50.0399 283.782C50.4485 284.695 50.8623 285.612 51.2773 286.53C54.3057 293.236 57.4003 300.088 59.023 307.242C59.0886 307.531 59.1588 307.785 59.2233 308.018C59.5629 309.248 59.7424 309.898 58.2539 312.089C56.2297 315.068 53.7682 316.412 51.5173 317.642C50.1356 318.397 48.8333 319.108 47.7601 320.128C43.5224 324.153 39.2414 327.788 34.4809 331.192C32.7771 332.41 31.1141 333.625 29.4672 334.849C28.6572 335.451 27.458 335.435 26.623 334.918C24.4615 333.581 21.4067 331.453 20.2035 329.101C18.713 326.189 16.7501 323.735 14.7598 321.246C13.8952 320.165 13.0255 319.078 12.187 317.943C11.6058 317.157 11.0447 316.366 10.4849 315.576C9.35481 313.982 8.23053 312.396 6.95918 310.879C4.52823 307.978 2.15291 305.045 0 301.937Z" fill="#2E3120"/>
<path d="M0 374.131V339.979C0.751592 340.636 1.4778 341.332 2.17841 342.068C2.55466 342.463 3.02256 342.893 3.5197 343.349C4.90963 344.623 6.52804 346.108 7.01043 347.649C7.14673 348.084 7.04657 348.695 6.96046 349.22C6.92958 349.408 6.9005 349.586 6.88479 349.74C6.80127 350.56 6.73354 351.383 6.66578 352.207C6.55205 353.59 6.43821 354.974 6.2495 356.343C6.008 358.096 5.70762 359.831 5.40742 361.566C4.97975 364.036 4.55246 366.505 4.29635 369.018C4.2731 369.247 4.25204 369.473 4.23116 369.697C4.0799 371.324 3.93779 372.851 3.03687 374.272C2.2858 375.456 1.50037 375 0.414591 374.369C0.323245 374.316 0.229772 374.262 0.134016 374.207C0.089348 374.182 0.044676 374.156 0 374.131Z" fill="#2E3120"/>
<path d="M64.6687 500H0V495.397C0.954648 495.422 1.91089 495.424 2.87229 495.424C3.98557 495.424 5.11164 495.45 6.24214 495.476C8.74793 495.535 11.2754 495.594 13.7334 495.368C16.1804 495.143 16.7141 494.629 17.8306 492.396C18.3539 491.349 18.8278 490.271 19.3023 489.191C20.2304 487.078 21.1611 484.96 22.4695 483.063C22.5532 482.941 22.6356 482.821 22.7172 482.701C23.8268 481.076 24.7845 479.674 26.8584 479.674C30.7559 479.674 34.7746 480.323 38.6306 480.946C38.9018 480.989 39.1722 481.033 39.4417 481.076C43.7282 481.765 48.3167 482.924 52.2056 484.868L52.2531 484.892C54.5482 486.039 56.7415 487.136 59.1917 487.924C61.0793 488.53 63.0827 489.427 64.6501 490.674C65.4656 491.322 65.3444 492.891 65.2533 494.069C65.2303 494.368 65.2091 494.641 65.2056 494.868C65.1794 496.576 64.9272 498.306 64.6687 500Z" fill="#2E3120"/>
<path d="M134.403 500H79.2659C79.2601 498.846 79.2935 497.656 79.1698 496.515C78.6502 495.51 77.9373 492.3 79.2429 487.5C80.8749 481.5 83.2502 482.5 83.7502 478.375C84.5075 472.128 88.5243 468.059 94.3752 465.25C97.5002 463.75 104.125 463.375 106.125 463.875C108.125 464.375 118.5 465.25 121.875 470.875C125.25 476.5 124 480.375 128.25 483.25C135.399 488.086 134.403 494.537 134.403 500Z" fill="#2E3120"/>
<path d="M233.439 500H165.174C165.128 499.463 165.113 498.925 165.131 498.388C165.319 492.829 168.839 487.253 171.725 482.683C171.772 482.607 171.82 482.532 171.867 482.458C174.386 478.466 176.147 474.297 177.342 471.469C177.873 470.211 178.293 469.219 178.617 468.624C179.563 466.89 180.57 464.839 180.617 462.819C180.631 462.206 180.855 461.667 181.084 461.116C181.232 460.761 181.381 460.401 181.478 460.013C181.583 459.593 181.641 459.16 181.698 458.727C181.784 458.078 181.87 457.428 182.117 456.819C182.868 454.964 184.002 454.982 185.586 455.007C185.775 455.01 185.97 455.013 186.173 455.013C187.314 455.013 188.447 455.075 189.582 455.138C190.722 455.2 191.864 455.263 193.02 455.263C198.709 455.263 204.327 455.215 209.936 454.124C213.953 453.343 218.183 453.661 222.317 453.972C223.483 454.059 224.641 454.146 225.784 454.208C226.914 454.269 228.049 454.346 229.187 454.424C231.67 454.593 234.163 454.763 236.631 454.763C239.29 454.763 241.98 455.372 244.574 455.959C244.653 455.977 244.732 455.995 244.811 456.013C246.6 456.418 248.141 456.892 249.228 458.374C250.039 459.479 249.961 461.394 249.897 462.944C249.882 463.329 249.867 463.691 249.867 464.013C249.867 466.381 249.876 468.806 250.423 471.124C251.123 474.095 251.12 476.912 251.117 479.93C251.117 480.128 251.117 480.327 251.117 480.527C251.117 483.586 250.896 486.234 249.506 489.013C248.706 490.612 248.414 491.026 246.839 491.888C244.093 493.392 241.453 494.928 238.867 496.708C238.202 497.165 237.432 497.571 236.649 497.985C235.516 498.582 234.355 499.195 233.439 500Z" fill="#2E3120"/>
<path d="M134.404 0H79.2659C76.831 14.25 73.7082 28.6214 73.8337 35.4034C73.9097 39.5064 74.8881 44.0322 76.8314 47.6654C78.4844 50.7558 82.0014 52.5831 84.8812 54.3198C88.776 56.6685 93.0265 58.4494 96.7686 61.0387C99.5391 62.9558 102.767 65.2156 104.482 68.1969C105.941 70.7314 106.814 73.5696 107.519 76.3889C108.143 78.8847 108.933 81.3291 109.793 83.7539C110.265 85.0851 110.876 87.1655 112.377 87.7335C114.517 88.5433 117.445 88.3745 119.665 88.1987C123.229 87.9164 127.212 85.9377 130.156 84.0252C133.108 82.1077 135.837 79.5617 137.366 76.3372C139.297 72.2651 139.766 67.6385 140.364 63.2353C141.226 56.8859 142.776 50.0803 146.476 44.7194C149.561 40.249 155.518 38.9465 158.428 34.2663C159.73 32.1715 160.289 30.1554 160.314 27.7025C160.344 24.791 160.605 21.6549 160.211 18.7611C159.47 13.3302 154.547 10.2797 149.964 8.25633C147.039 6.96477 135.539 3.27638 134.404 0Z" fill="#2E3120"/>
</svg>
