<svg width="500" height="500" viewBox="0 0 500 500" fill="none" xmlns="http://www.w3.org/2000/svg">
<path d="M134.872 141.063C136.839 132.213 141.803 133.563 150.817 133.563C154.055 133.563 154.499 134.379 157.817 134.563C161.072 134.744 162.817 135.813 165.817 140.341C168.878 142.142 165.818 150.362 165.039 152.785C163.341 158.066 161.644 158.659 157.317 161.063C153.666 163.091 145.468 161.563 141.372 161.563C137.043 161.563 133.817 156.449 133.817 152.619C133.817 149.026 134.09 144.58 134.872 141.063Z" fill="#2E3120"/>
<path d="M51.7772 184.063C53.7438 175.213 58.7078 176.563 67.7217 176.563C70.9601 176.563 71.4046 177.379 74.7217 177.563C77.9771 177.744 79.7217 178.813 82.7217 183.341C85.783 185.142 82.7227 193.362 81.9439 195.785C80.2465 201.066 78.5489 201.659 74.2217 204.063C70.571 206.091 62.3736 204.563 58.2772 204.563C53.9484 204.563 50.7217 199.449 50.7217 195.619C50.7217 192.026 50.9956 187.58 51.7772 184.063Z" fill="#2E3120"/>
<path d="M100.553 423.353C102.52 414.503 107.484 415.853 116.498 415.853C119.736 415.853 120.181 416.668 123.498 416.853C126.753 417.033 128.498 418.103 131.498 422.63C134.559 424.431 131.499 432.652 130.72 435.075C129.023 440.356 127.325 440.949 122.998 443.353C119.347 445.381 111.15 443.853 107.053 443.853C102.725 443.853 99.4973 438.739 99.4973 434.908C99.4973 431.315 99.7712 426.87 100.553 423.353Z" fill="#2E3120"/>
<path d="M307.418 431.798C309.385 422.949 314.349 424.298 323.363 424.298C326.601 424.298 327.046 425.114 330.363 425.298C333.618 425.479 335.363 426.548 338.363 431.076C341.424 432.877 338.364 441.098 337.585 443.521C335.887 448.801 334.19 449.394 329.863 451.798C326.212 453.826 318.014 452.298 313.918 452.298C309.589 452.298 306.363 447.184 306.363 443.354C306.363 439.761 306.636 435.316 307.418 431.798Z" fill="#2E3120"/>
<path d="M56.2038 237.296C58.1703 228.447 63.1343 229.796 72.1482 229.796C75.3866 229.796 75.8312 230.612 79.1482 230.796C82.4036 230.977 84.1482 232.046 87.1482 236.574C90.2095 238.375 87.1493 246.595 86.3704 249.018C84.673 254.299 82.9754 254.892 78.6482 257.296C74.9975 259.324 66.8001 257.796 62.7038 257.796C58.375 257.796 55.1482 252.682 55.1482 248.852C55.1482 245.259 55.4221 240.814 56.2038 237.296Z" fill="#2E3120"/>
<path d="M429.151 371.896C431.117 363.047 436.081 364.396 445.095 364.396C448.334 364.396 448.778 365.212 452.095 365.396C455.35 365.577 457.095 366.646 460.095 371.174C463.156 372.975 460.096 381.196 459.317 383.619C457.62 388.9 455.922 389.492 451.595 391.896C447.944 393.925 439.747 392.396 435.651 392.396C431.322 392.396 428.095 387.283 428.095 383.452C428.095 379.859 428.369 375.414 429.151 371.896Z" fill="#2E3120"/>
<path d="M399.222 455.29C401.189 446.44 406.153 447.79 415.167 447.79C418.405 447.79 418.85 448.606 422.167 448.79C425.422 448.971 427.167 450.04 430.167 454.568C433.228 456.369 430.168 464.589 429.389 467.012C427.692 472.293 425.994 472.886 421.667 475.29C418.016 477.318 409.819 475.79 405.722 475.79C401.394 475.79 398.167 470.676 398.167 466.846C398.167 463.253 398.441 458.807 399.222 455.29Z" fill="#2E3120"/>
<path d="M466.689 136.327C468.656 127.477 473.62 128.827 482.634 128.827C485.872 128.827 486.317 129.642 489.634 129.827C492.889 130.007 494.634 131.077 497.634 135.604C500.695 137.405 497.635 145.626 496.856 148.049C495.159 153.33 493.461 153.923 489.134 156.327C485.483 158.355 477.286 156.827 473.189 156.827C468.86 156.827 465.634 151.713 465.634 147.882C465.634 144.29 465.908 139.844 466.689 136.327Z" fill="#2E3120"/>
<path d="M140.365 282.619C142.332 273.77 147.296 275.119 156.31 275.119C159.548 275.119 159.993 275.935 163.31 276.119C166.565 276.3 168.31 277.369 171.31 281.897C174.371 283.698 171.311 291.918 170.532 294.341C168.835 299.622 167.137 300.215 162.81 302.619C159.159 304.647 150.962 303.119 146.865 303.119C142.536 303.119 139.31 298.005 139.31 294.175C139.31 290.582 139.584 286.137 140.365 282.619Z" fill="#2E3120"/>
<path d="M208.365 218.619C210.332 209.77 215.296 211.119 224.31 211.119C227.548 211.119 227.993 211.935 231.31 212.119C234.565 212.3 236.31 213.369 239.31 217.897C242.371 219.698 239.311 227.918 238.532 230.341C236.835 235.622 235.137 236.215 230.81 238.619C227.159 240.647 218.962 239.119 214.865 239.119C210.536 239.119 207.31 234.005 207.31 230.175C207.31 226.582 207.584 222.137 208.365 218.619Z" fill="#2E3120"/>
<path d="M249.365 184.063C251.332 175.213 256.296 176.563 265.31 176.563C268.548 176.563 268.993 177.379 272.31 177.563C275.565 177.744 277.31 178.813 280.31 183.341C283.371 185.142 280.311 193.362 279.532 195.785C277.835 201.066 276.137 201.659 271.81 204.063C268.159 206.091 259.962 204.563 255.865 204.563C251.536 204.563 248.31 199.449 248.31 195.619C248.31 192.026 248.584 187.58 249.365 184.063Z" fill="#2E3120"/>
<path d="M290.365 141.063C292.332 132.213 297.296 133.563 306.31 133.563C309.548 133.563 309.993 134.379 313.31 134.563C316.565 134.744 318.31 135.813 321.31 140.341C324.371 142.142 321.311 150.362 320.532 152.785C318.835 158.066 317.137 158.659 312.81 161.063C309.159 163.091 300.962 161.563 296.865 161.563C292.536 161.563 289.31 156.449 289.31 152.619C289.31 149.026 289.584 144.58 290.365 141.063Z" fill="#2E3120"/>
<path d="M363.897 212.689C365.863 203.839 370.827 205.189 379.841 205.189C383.08 205.189 383.524 206.005 386.841 206.189C390.097 206.37 391.841 207.439 394.841 211.967C397.903 213.768 394.842 221.988 394.064 224.411C392.366 229.692 390.669 230.285 386.341 232.689C382.691 234.717 374.493 233.189 370.397 233.189C366.068 233.189 362.841 228.075 362.841 224.245C362.841 220.652 363.115 216.206 363.897 212.689Z" fill="#2E3120"/>
<path d="M397.231 16.7114C399.197 7.8619 404.161 9.21141 413.175 9.21141C416.414 9.21141 416.858 10.0271 420.175 10.2114C423.43 10.3923 425.175 11.4614 428.175 15.9892C431.236 17.79 428.176 26.0106 427.397 28.4336C425.7 33.7145 424.002 34.3074 419.675 36.7114C416.024 38.7396 407.827 37.2114 403.731 37.2114C399.402 37.2114 396.175 32.0975 396.175 28.267C396.175 24.6743 396.449 20.2288 397.231 16.7114Z" fill="#2E3120"/>
<path d="M34.0622 401.338C36.0287 392.488 40.9927 393.838 50.0066 393.838C53.245 393.838 53.6896 394.654 57.0066 394.838C60.262 395.019 62.0066 396.088 65.0066 400.616C68.0679 402.416 65.0076 410.637 64.2288 413.06C62.5314 418.341 60.8338 418.934 56.5066 421.338C52.8559 423.366 44.6585 421.838 40.5622 421.838C36.2334 421.838 33.0066 416.724 33.0066 412.893C33.0066 409.301 33.2805 404.855 34.0622 401.338Z" fill="#2E3120"/>
<path d="M266.032 362.338C267.999 353.488 272.963 354.838 281.977 354.838C285.215 354.838 285.66 355.654 288.977 355.838C292.232 356.019 293.977 357.088 296.977 361.616C300.038 363.416 296.978 371.637 296.199 374.06C294.501 379.341 292.804 379.934 288.477 382.338C284.826 384.366 276.629 382.838 272.532 382.838C268.203 382.838 264.977 377.724 264.977 373.893C264.977 370.301 265.25 365.855 266.032 362.338Z" fill="#2E3120"/>
<path d="M450.685 297.761C451.095 299.22 451.534 300.844 452.698 301.886C457.781 306.433 464.644 305.511 467.685 305.511C470.03 305.511 473.215 305.675 475.31 304.566C477.448 303.434 479.213 300.483 480.198 298.372C480.826 297.027 482.267 295.374 482.31 293.872C482.346 292.583 482.316 291.494 481.935 290.275C481.389 288.529 480.986 287.007 479.948 285.497C478.693 283.67 476.246 283.107 474.365 282.066C472.021 280.77 470.321 280.261 467.643 280.261C464.753 280.261 461.93 280.567 459.06 280.747C456.158 280.928 454.974 281.616 453.185 283.872C451.592 285.88 450.854 288.207 450.365 290.705C449.961 292.772 450.12 295.754 450.685 297.761Z" fill="#2E3120"/>
<path d="M192.339 193.989C192.749 195.448 193.188 197.072 194.353 198.114C199.435 202.661 206.299 201.739 209.339 201.739C211.685 201.739 214.869 201.904 216.964 200.795C219.103 199.662 220.867 196.712 221.853 194.6C222.48 193.255 223.921 191.602 223.964 190.1C224.001 188.812 223.97 187.723 223.589 186.503C223.043 184.757 222.641 183.235 221.603 181.725C220.347 179.898 217.901 179.335 216.019 178.295C213.675 176.998 211.975 176.489 209.297 176.489C206.408 176.489 203.584 176.796 200.714 176.975C197.812 177.157 196.628 177.845 194.839 180.1C193.246 182.109 192.508 184.435 192.019 186.934C191.615 189.001 191.774 191.982 192.339 193.989Z" fill="#2E3120"/>
<path d="M274.339 50.9644C274.749 52.4234 275.188 54.0473 276.353 55.0894C281.435 59.6365 288.299 58.7144 291.339 58.7144C293.685 58.7144 296.869 58.879 298.964 57.7699C301.103 56.6376 302.867 53.6866 303.853 51.5755C304.48 50.2303 305.921 48.5775 305.964 47.0755C306.001 45.7867 305.97 44.6978 305.589 43.4782C305.043 41.7322 304.641 40.2101 303.603 38.7005C302.347 36.8736 299.901 36.3106 298.019 35.2699C295.675 33.9733 293.975 33.4644 291.297 33.4644C288.408 33.4644 285.584 33.7711 282.714 33.9505C279.812 34.1318 278.628 34.8197 276.839 37.0755C275.246 39.084 274.508 41.4101 274.019 43.9088C273.615 45.9757 273.774 48.9572 274.339 50.9644Z" fill="#2E3120"/>
<path d="M200.675 53.5647C201.085 55.0237 201.524 56.6476 202.689 57.6897C207.771 62.2368 214.635 61.3147 217.675 61.3147C220.021 61.3147 223.205 61.4793 225.3 60.3703C227.439 59.2379 229.204 56.287 230.189 54.1758C230.817 52.8306 232.257 51.1778 232.3 49.6758C232.337 48.3871 232.306 47.2982 231.925 46.0786C231.379 44.3326 230.977 42.8105 229.939 41.3008C228.683 39.4739 226.237 38.9109 224.356 37.8703C222.012 36.5736 220.312 36.0647 217.633 36.0647C214.744 36.0647 211.921 36.3714 209.05 36.5508C206.149 36.7321 204.964 37.4201 203.175 39.6758C201.582 41.6844 200.845 44.0104 200.356 46.5091C199.951 48.5761 200.111 51.5575 200.675 53.5647Z" fill="#2E3120"/>
<path d="M33.5516 226.644C33.9619 228.103 34.4008 229.727 35.5654 230.769C40.6475 235.316 47.5113 234.394 50.5516 234.394C52.8974 234.394 56.0817 234.559 58.1766 233.45C60.3154 232.317 62.0802 229.366 63.0654 227.255C63.6932 225.91 65.1336 224.257 65.1766 222.755C65.2134 221.466 65.1827 220.378 64.8016 219.158C64.2559 217.412 63.8533 215.89 62.8154 214.38C61.5595 212.553 59.1133 211.99 57.2321 210.95C54.8882 209.653 53.1881 209.144 50.5099 209.144C47.6203 209.144 44.797 209.451 41.9266 209.63C39.0252 209.811 37.8406 210.499 36.0516 212.755C34.4585 214.764 33.721 217.09 33.2321 219.588C32.8277 221.655 32.987 224.637 33.5516 226.644Z" fill="#2E3120"/>
<path d="M183.024 460.62C183.435 462.079 183.874 463.703 185.038 464.745C190.12 469.293 196.984 468.37 200.024 468.37C202.37 468.37 205.554 468.535 207.649 467.426C209.788 466.294 211.553 463.343 212.538 461.231C213.166 459.886 214.606 458.233 214.649 456.731C214.686 455.443 214.655 454.354 214.274 453.134C213.729 451.388 213.326 449.866 212.288 448.356C211.032 446.53 208.586 445.967 206.705 444.926C204.361 443.629 202.661 443.12 199.983 443.12C197.093 443.12 194.27 443.427 191.399 443.606C188.498 443.788 187.313 444.476 185.524 446.731C183.931 448.74 183.194 451.066 182.705 453.565C182.3 455.632 182.46 458.613 183.024 460.62Z" fill="#2E3120"/>
<path d="M54.3384 329.938C54.7488 331.397 55.1876 333.021 56.3523 334.063C61.4344 338.61 68.2982 337.688 71.3384 337.688C73.6843 337.688 76.8685 337.853 78.9634 336.744C81.1022 335.611 82.8671 332.661 83.8523 330.549C84.4801 329.204 85.9205 327.551 85.9634 326.049C86.0002 324.761 85.9695 323.672 85.5884 322.452C85.0428 320.706 84.6402 319.184 83.6023 317.674C82.3463 315.847 79.9002 315.284 78.019 314.244C75.6751 312.947 73.975 312.438 71.2968 312.438C68.4071 312.438 65.5839 312.745 62.7134 312.924C59.812 313.106 58.6274 313.794 56.8384 316.049C55.2454 318.058 54.5079 320.384 54.019 322.883C53.6146 324.95 53.7739 327.931 54.3384 329.938Z" fill="#2E3120"/>
<path d="M385.203 357.951C385.613 359.41 386.053 361.034 387.218 362.076C392.3 366.623 399.163 365.701 402.203 365.701C404.549 365.701 407.733 365.866 409.828 364.757C411.967 363.624 413.733 360.673 414.718 358.562C415.346 357.217 416.785 355.564 416.828 354.062C416.865 352.774 416.834 351.685 416.453 350.465C415.907 348.719 415.506 347.197 414.468 345.687C413.212 343.86 410.765 343.297 408.883 342.257C406.54 340.96 404.84 340.451 402.162 340.451C399.273 340.451 396.448 340.758 393.578 340.937C390.677 341.119 389.492 341.807 387.703 344.062C386.11 346.071 385.372 348.397 384.883 350.896C384.479 352.963 384.638 355.944 385.203 357.951Z" fill="#2E3120"/>
<path d="M274.339 295.844C274.749 297.303 275.188 298.927 276.353 299.969C281.435 304.516 288.299 303.594 291.339 303.594C293.685 303.594 296.869 303.759 298.964 302.65C301.103 301.517 302.867 298.567 303.853 296.455C304.48 295.11 305.921 293.457 305.964 291.955C306.001 290.667 305.97 289.578 305.589 288.358C305.043 286.612 304.641 285.09 303.603 283.58C302.347 281.753 299.901 281.19 298.019 280.15C295.675 278.853 293.975 278.344 291.297 278.344C288.408 278.344 285.584 278.651 282.714 278.83C279.812 279.012 278.628 279.7 276.839 281.955C275.246 283.964 274.508 286.29 274.019 288.789C273.615 290.856 273.774 293.837 274.339 295.844Z" fill="#2E3120"/>
<path d="M13.1282 34.8896C13.5386 36.3487 13.9774 37.9726 15.1421 39.0146C20.2242 43.5618 27.088 42.6396 30.1282 42.6396C32.4741 42.6396 35.6583 42.8043 37.7532 41.6952C39.892 40.563 41.6569 37.6119 42.6421 35.5008C43.2699 34.1556 44.7103 32.5027 44.7532 31.0008C44.79 29.712 44.7593 28.6231 44.3782 27.4035C43.8326 25.6575 43.43 24.1354 42.3921 22.6258C41.1361 20.7989 38.69 20.2359 36.8088 19.1952C34.4649 17.8986 32.7648 17.3896 30.0866 17.3896C27.1969 17.3896 24.3737 17.6964 21.5032 17.8758C18.6018 18.0571 17.4172 18.745 15.6282 21.0008C14.0352 23.0093 13.2976 25.3354 12.8088 27.8341C12.4044 29.901 12.5637 32.8825 13.1282 34.8896Z" fill="#2E3120"/>
<path d="M236.325 436.831C236.735 438.29 237.174 439.913 238.339 440.956C243.421 445.503 250.285 444.581 253.325 444.581C255.671 444.581 258.855 444.745 260.95 443.636C263.089 442.504 264.854 439.553 265.839 437.442C266.467 436.096 267.907 434.444 267.95 432.942C267.987 431.653 267.956 430.564 267.575 429.344C267.029 427.598 266.627 426.076 265.589 424.567C264.333 422.74 261.887 422.177 260.005 421.136C257.662 419.839 255.961 419.331 253.283 419.331C250.394 419.331 247.57 419.637 244.7 419.817C241.799 419.998 240.614 420.686 238.825 422.942C237.232 424.95 236.494 427.276 236.005 429.775C235.601 431.842 235.76 434.823 236.325 436.831Z" fill="#2E3120"/>
<path d="M105.489 319.093C105.899 320.552 106.338 322.176 107.502 323.218C112.585 327.765 119.448 326.843 122.489 326.843C124.834 326.843 128.019 327.007 130.114 325.898C132.252 324.766 134.017 321.815 135.002 319.704C135.63 318.359 137.071 316.706 137.114 315.204C137.15 313.915 137.12 312.826 136.739 311.607C136.193 309.861 135.79 308.339 134.752 306.829C133.496 305.002 131.05 304.439 129.169 303.398C126.825 302.102 125.125 301.593 122.447 301.593C119.557 301.593 116.734 301.899 113.864 302.079C110.962 302.26 109.778 302.948 107.989 305.204C106.396 307.212 105.658 309.539 105.169 312.037C104.765 314.104 104.924 317.086 105.489 319.093Z" fill="#2E3120"/>
<path d="M79.5757 393.531C79.9861 394.99 80.4249 396.614 81.5896 397.656C86.6717 402.203 93.5355 401.281 96.5757 401.281C98.9216 401.281 102.105 401.445 104.2 400.336C106.339 399.204 108.104 396.253 109.089 394.142C109.717 392.797 111.157 391.144 111.2 389.642C111.237 388.353 111.206 387.264 110.825 386.045C110.28 384.299 109.877 382.777 108.839 381.267C107.583 379.44 105.137 378.877 103.256 377.836C100.912 376.54 99.2123 376.031 96.5341 376.031C93.6444 376.031 90.8212 376.337 87.9507 376.517C85.0493 376.698 83.8647 377.386 82.0757 379.642C80.4827 381.65 79.7452 383.977 79.2563 386.475C78.8519 388.542 79.0112 391.524 79.5757 393.531Z" fill="#2E3120"/>
<path d="M242.536 269.336C242.946 270.795 243.385 272.419 244.55 273.461C249.632 278.008 256.496 277.086 259.536 277.086C261.882 277.086 265.066 277.251 267.161 276.141C269.3 275.009 271.065 272.058 272.05 269.947C272.678 268.602 274.118 266.949 274.161 265.447C274.198 264.158 274.167 263.069 273.786 261.85C273.24 260.104 272.838 258.582 271.8 257.072C270.544 255.245 268.098 254.682 266.217 253.641C263.873 252.345 262.173 251.836 259.494 251.836C256.605 251.836 253.781 252.143 250.911 252.322C248.01 252.503 246.825 253.191 245.036 255.447C243.443 257.456 242.705 259.782 242.217 262.28C241.812 264.347 241.972 267.329 242.536 269.336Z" fill="#2E3120"/>
<path d="M310.229 238.346C310.639 239.805 311.078 241.429 312.242 242.471C317.325 247.018 324.188 246.096 327.229 246.096C329.574 246.096 332.759 246.261 334.854 245.152C336.992 244.019 338.757 241.068 339.742 238.957C340.37 237.612 341.811 235.959 341.854 234.457C341.89 233.169 341.86 232.08 341.479 230.86C340.933 229.114 340.53 227.592 339.492 226.082C338.236 224.255 335.79 223.692 333.909 222.652C331.565 221.355 329.865 220.846 327.187 220.846C324.297 220.846 321.474 221.153 318.604 221.332C315.702 221.514 314.518 222.202 312.729 224.457C311.136 226.466 310.398 228.792 309.909 231.291C309.505 233.358 309.664 236.339 310.229 238.346Z" fill="#2E3120"/>
<path d="M368.7 262.651C369.11 264.11 369.549 265.734 370.714 266.776C375.796 271.323 382.659 270.401 385.7 270.401C388.045 270.401 391.23 270.566 393.325 269.457C395.463 268.324 397.228 265.373 398.214 263.262C398.841 261.917 400.282 260.264 400.325 258.762C400.361 257.474 400.331 256.385 399.95 255.165C399.404 253.419 399.001 251.897 397.964 250.387C396.708 248.56 394.261 247.997 392.38 246.957C390.036 245.66 388.336 245.151 385.658 245.151C382.768 245.151 379.945 245.458 377.075 245.637C374.173 245.819 372.989 246.507 371.2 248.762C369.607 250.771 368.869 253.097 368.38 255.596C367.976 257.663 368.135 260.644 368.7 262.651Z" fill="#2E3120"/>
<path d="M417.86 128.583C418.27 130.042 418.709 131.666 419.874 132.708C424.956 137.256 431.82 136.333 434.86 136.333C437.206 136.333 440.39 136.498 442.485 135.389C444.624 134.257 446.389 131.306 447.374 129.195C448.002 127.849 449.442 126.197 449.485 124.695C449.522 123.406 449.491 122.317 449.11 121.097C448.564 119.351 448.162 117.829 447.124 116.32C445.868 114.493 443.422 113.93 441.54 112.889C439.197 111.592 437.496 111.083 434.818 111.083C431.929 111.083 429.105 111.39 426.235 111.57C423.334 111.751 422.149 112.439 420.36 114.695C418.767 116.703 418.029 119.029 417.54 121.528C417.136 123.595 417.295 126.576 417.86 128.583Z" fill="#2E3120"/>
<path d="M442.293 434.078C442.703 435.537 443.142 437.161 444.307 438.203C449.389 442.75 456.253 441.828 459.293 441.828C461.639 441.828 464.823 441.993 466.918 440.884C469.057 439.751 470.822 436.8 471.807 434.689C472.435 433.344 473.875 431.691 473.918 430.189C473.955 428.901 473.924 427.812 473.543 426.592C472.998 424.846 472.595 423.324 471.557 421.814C470.301 419.987 467.855 419.424 465.974 418.384C463.63 417.087 461.93 416.578 459.251 416.578C456.362 416.578 453.539 416.885 450.668 417.064C447.767 417.246 446.582 417.934 444.793 420.189C443.2 422.198 442.463 424.524 441.974 427.023C441.569 429.09 441.729 432.071 442.293 434.078Z" fill="#2E3120"/>
<path d="M72.1822 15.924C72.4486 14.5385 75.0016 8.31299 83.3766 5.79904C87.6874 5.18322 92.2492 5.63529 96.2933 7.36848C98.5875 8.35174 101.261 9.54606 102.641 11.7018C104.095 13.9743 104.377 15.9311 104.377 18.5768C104.377 21.5216 104.005 24.0858 103.266 26.9379C102.741 28.9617 100.978 30.0363 99.1544 31.049C94.9996 33.3573 91.0604 36.1409 86.0711 36.0629C83.5271 36.0232 79.1606 35.0543 77.3905 33.0629C76.079 31.5875 75.5736 29.7671 75.0016 27.924C74.2219 25.4115 73.0744 23.1796 72.1266 20.7574C71.5518 19.2885 71.8943 17.4207 72.1822 15.924Z" fill="#2E3120"/>
<path d="M323.01 53.9143C323.276 52.5288 325.829 46.3032 334.204 43.7893C338.515 43.1735 343.077 43.6255 347.121 45.3587C349.415 46.342 352.088 47.5363 353.468 49.6921C354.922 51.9645 355.204 53.9213 355.204 56.5671C355.204 59.5118 354.832 62.0761 354.093 64.9282C353.568 66.9519 351.805 68.0265 349.982 69.0393C345.827 71.3475 341.888 74.1311 336.898 74.0532C334.354 74.0134 329.988 73.0446 328.218 71.0532C326.906 69.5778 326.401 67.7574 325.829 65.9143C325.049 63.4017 323.902 61.1698 322.954 58.7476C322.379 57.2787 322.722 55.411 323.01 53.9143Z" fill="#2E3120"/>
<path d="M181.388 365.151C181.655 363.765 184.208 357.54 192.583 355.026C196.893 354.41 201.455 354.862 205.499 356.595C207.794 357.578 210.467 358.773 211.847 360.928C213.301 363.201 213.583 365.158 213.583 367.803C213.583 370.748 213.211 373.312 212.472 376.164C211.947 378.188 210.183 379.263 208.36 380.276C204.206 382.584 200.266 385.367 195.277 385.289C192.733 385.25 188.367 384.281 186.597 382.289C185.285 380.814 184.78 378.994 184.208 377.151C183.428 374.638 182.281 372.406 181.333 369.984C180.758 368.515 181.1 366.647 181.388 365.151Z" fill="#2E3120"/>
<path d="M363.98 299.745C364.246 298.359 366.799 292.134 375.174 289.62C379.485 289.004 384.047 289.456 388.091 291.189C390.385 292.173 393.058 293.367 394.438 295.523C395.892 297.795 396.174 299.752 396.174 302.398C396.174 305.342 395.802 307.907 395.063 310.759C394.538 312.783 392.775 313.857 390.952 314.87C386.797 317.178 382.858 319.962 377.869 319.884C375.325 319.844 370.958 318.875 369.188 316.884C367.877 315.408 367.371 313.588 366.799 311.745C366.019 309.232 364.872 307 363.924 304.578C363.349 303.109 363.692 301.242 363.98 299.745Z" fill="#2E3120"/>
<path d="M363.208 113.349C363.474 111.963 366.027 105.738 374.402 103.224C378.713 102.608 383.275 103.06 387.319 104.793C389.613 105.777 392.286 106.971 393.666 109.127C395.12 111.399 395.402 113.356 395.402 116.002C395.402 118.946 395.03 121.511 394.291 124.363C393.766 126.386 392.003 127.461 390.18 128.474C386.025 130.782 382.086 133.566 377.096 133.488C374.552 133.448 370.186 132.479 368.416 130.488C367.104 129.012 366.599 127.192 366.027 125.349C365.247 122.836 364.1 120.604 363.152 118.182C362.577 116.713 362.92 114.846 363.208 113.349Z" fill="#2E3120"/>
<path d="M213.949 98.0854C214.215 96.6999 216.768 90.4744 225.143 87.9604C229.454 87.3446 234.016 87.7967 238.06 89.5299C240.354 90.5131 243.028 91.7074 244.407 93.8632C245.862 96.1357 246.143 98.0925 246.143 100.738C246.143 103.683 245.772 106.247 245.032 109.099C244.508 111.123 242.744 112.198 240.921 113.21C236.766 115.519 232.827 118.302 227.838 118.224C225.294 118.185 220.927 117.216 219.157 115.224C217.846 113.749 217.34 111.929 216.768 110.085C215.989 107.573 214.841 105.341 213.893 102.919C213.319 101.45 213.661 99.5821 213.949 98.0854Z" fill="#2E3120"/>
<path d="M451.374 98.0854C451.641 96.6999 454.194 90.4744 462.569 87.9604C466.88 87.3446 471.441 87.7967 475.486 89.5299C477.78 90.5131 480.453 91.7074 481.833 93.8632C483.287 96.1357 483.569 98.0925 483.569 100.738C483.569 103.683 483.197 106.247 482.458 109.099C481.933 111.123 480.17 112.198 478.347 113.21C474.192 115.519 470.253 118.302 465.263 118.224C462.719 118.185 458.353 117.216 456.583 115.224C455.271 113.749 454.766 111.929 454.194 110.085C453.414 107.573 452.267 105.341 451.319 102.919C450.744 101.45 451.087 99.5821 451.374 98.0854Z" fill="#2E3120"/>
<path d="M82.3589 68.2585C82.6254 66.873 85.1784 60.6475 93.5534 58.1335C97.8641 57.5177 102.425 57.9698 106.47 59.703C108.764 60.6862 111.437 61.8805 112.817 64.0363C114.271 66.3088 114.553 68.2655 114.553 70.9113C114.553 73.8561 114.181 76.4203 113.442 79.2724C112.917 81.2962 111.154 82.3708 109.331 83.3835C105.176 85.6917 101.237 88.4754 96.2478 88.3974C93.7039 88.3577 89.3374 87.3888 87.5673 85.3974C86.2558 83.922 85.7504 82.1016 85.1784 80.2585C84.3986 77.746 83.2512 75.5141 82.3034 73.0918C81.7286 71.623 82.0711 69.7552 82.3589 68.2585Z" fill="#2E3120"/>
<path d="M141.891 23.5632C142.245 23.515 142.594 23.4671 142.935 23.4177C144.052 23.1697 145.346 22.7282 146.127 23.1188C147.104 23.6072 148.044 23.5633 149.127 23.5633C150.99 23.5633 152.811 24.3207 154.641 24.5494C155.861 24.7019 157.704 24.9474 158.627 25.9244C161.14 28.5846 160.873 34.6752 159.752 37.8133C158.531 41.2336 156.52 44.4792 155.627 48.0494C155.24 49.5994 153.682 49.8453 152.502 50.5633C150.053 52.0539 148.242 52.5633 145.322 52.5633C142.685 52.5633 140.544 51.9349 138.072 51.0077C135.684 50.1125 133.947 48.6832 131.877 47.1883C127.834 44.2682 128.53 39.0106 128.627 34.6188C128.687 31.9327 129.445 29.4327 131.266 27.4383C133.837 24.6223 138.154 24.0727 141.891 23.5632Z" fill="#2E3120"/>
<path d="M198.568 127.023C198.921 126.975 199.27 126.927 199.612 126.878C200.728 126.63 202.022 126.188 202.804 126.579C203.78 127.067 204.72 127.023 205.804 127.023C207.666 127.023 209.488 127.781 211.318 128.009C212.537 128.162 214.381 128.407 215.304 129.384C217.816 132.045 217.549 138.135 216.429 141.273C215.207 144.694 213.196 147.939 212.304 151.509C211.916 153.059 210.358 153.305 209.179 154.023C206.73 155.514 204.918 156.023 201.998 156.023C199.361 156.023 197.221 155.395 194.748 154.468C192.361 153.572 190.624 152.143 188.554 150.648C184.51 147.728 185.206 142.471 185.304 138.079C185.363 135.393 186.122 132.893 187.943 130.898C190.514 128.082 194.83 127.533 198.568 127.023Z" fill="#2E3120"/>
<path d="M76.507 271.741C76.8609 271.693 77.2097 271.645 77.5512 271.596C78.6676 271.348 79.9619 270.906 80.7431 271.297C81.7198 271.785 82.6597 271.741 83.7431 271.741C85.6057 271.741 87.4272 272.499 89.257 272.727C90.4769 272.88 92.3204 273.125 93.2431 274.102C95.7555 276.763 95.4888 282.853 94.3681 285.991C93.1466 289.412 91.1356 292.657 90.2431 296.227C89.8556 297.777 88.2976 298.023 87.1181 298.741C84.6691 300.232 82.8577 300.741 79.9375 300.741C77.3009 300.741 75.1602 300.113 72.6875 299.186C70.3002 298.29 68.563 296.861 66.4931 295.366C62.45 292.446 63.1455 287.189 63.2431 282.797C63.3028 280.111 64.061 277.611 65.882 275.616C68.4531 272.8 72.7695 272.251 76.507 271.741Z" fill="#2E3120"/>
<path d="M205.873 409.538C206.227 409.489 206.576 409.441 206.917 409.392C208.034 409.144 209.328 408.703 210.109 409.093C211.086 409.582 212.026 409.538 213.109 409.538C214.972 409.538 216.793 410.295 218.623 410.524C219.843 410.676 221.687 410.922 222.609 411.899C225.122 414.559 224.855 420.65 223.734 423.788C222.513 427.208 220.502 430.454 219.609 434.024C219.222 435.574 217.664 435.82 216.484 436.538C214.035 438.028 212.224 438.538 209.304 438.538C206.667 438.538 204.526 437.909 202.054 436.982C199.666 436.087 197.929 434.658 195.859 433.163C191.816 430.243 192.512 424.985 192.609 420.593C192.669 417.907 193.427 415.407 195.248 413.413C197.819 410.597 202.136 410.047 205.873 409.538Z" fill="#2E3120"/>
<path d="M40.9643 77.4036C41.3182 77.3553 41.6669 77.3074 42.0085 77.258C43.1249 77.01 44.4191 76.5685 45.2004 76.9592C46.1771 77.4475 47.117 77.4036 48.2004 77.4036C50.063 77.4036 51.8845 78.161 53.7143 78.3897C54.9341 78.5422 56.7777 78.7878 57.7004 79.7647C60.2128 82.4249 59.9461 88.5155 58.8254 91.6536C57.6038 95.0739 55.5929 98.3196 54.7004 101.89C54.3129 103.44 52.7549 103.686 51.5754 104.404C49.1264 105.894 47.315 106.404 44.3948 106.404C41.7582 106.404 39.6174 105.775 37.1448 104.848C34.7575 103.953 33.0202 102.524 30.9504 101.029C26.9072 98.1086 27.6028 92.8509 27.7004 88.4592C27.7601 85.773 28.5183 83.273 30.3393 81.2786C32.9103 78.4626 37.2268 77.9131 40.9643 77.4036Z" fill="#2E3120"/>
<path d="M355.17 338.914C355.524 338.866 355.873 338.818 356.214 338.769C357.331 338.521 358.625 338.079 359.406 338.47C360.383 338.958 361.323 338.914 362.406 338.914C364.269 338.914 366.09 339.671 367.92 339.9C369.14 340.053 370.983 340.298 371.906 341.275C374.419 343.935 374.152 350.026 373.031 353.164C371.81 356.584 369.799 359.83 368.906 363.4C368.519 364.95 366.961 365.196 365.781 365.914C363.332 367.405 361.521 367.914 358.601 367.914C355.964 367.914 353.823 367.286 351.351 366.359C348.963 365.463 347.226 364.034 345.156 362.539C341.113 359.619 341.808 354.361 341.906 349.97C341.966 347.284 342.724 344.783 344.545 342.789C347.116 339.973 351.432 339.424 355.17 338.914Z" fill="#2E3120"/>
<path d="M246.937 311.451C247.291 311.403 247.64 311.355 247.981 311.305C249.098 311.057 250.392 310.616 251.173 311.007C252.15 311.495 253.09 311.451 254.173 311.451C256.036 311.451 257.857 312.208 259.687 312.437C260.907 312.59 262.75 312.835 263.673 313.812C266.185 316.472 265.919 322.563 264.798 325.701C263.576 329.121 261.566 332.367 260.673 335.937C260.285 337.487 258.728 337.733 257.548 338.451C255.099 339.942 253.288 340.451 250.367 340.451C247.731 340.451 245.59 339.823 243.117 338.895C240.73 338 238.993 336.571 236.923 335.076C232.88 332.156 233.575 326.898 233.673 322.507C233.733 319.82 234.491 317.32 236.312 315.326C238.883 312.51 243.199 311.96 246.937 311.451Z" fill="#2E3120"/>
<path d="M111.897 203.311C112.251 203.263 112.6 203.215 112.942 203.166C114.058 202.918 115.352 202.476 116.133 202.867C117.11 203.355 118.05 203.311 119.133 203.311C120.996 203.311 122.818 204.069 124.647 204.297C125.867 204.45 127.711 204.695 128.633 205.672C131.146 208.333 130.879 214.423 129.758 217.561C128.537 220.982 126.526 224.227 125.633 227.797C125.246 229.347 123.688 229.593 122.508 230.311C120.059 231.802 118.248 232.311 115.328 232.311C112.691 232.311 110.551 231.683 108.078 230.756C105.691 229.861 103.953 228.431 101.883 226.936C97.8408 224.016 98.5364 218.759 98.634 214.367C98.6937 211.681 99.4519 209.181 101.272 207.186C103.843 204.37 108.16 203.821 111.897 203.311Z" fill="#2E3120"/>
<path d="M339.144 86.356C339.498 86.3077 339.847 86.2598 340.188 86.2104C341.305 85.9624 342.599 85.5209 343.38 85.9115C344.357 86.3999 345.297 86.356 346.38 86.356C348.243 86.356 350.064 87.1134 351.894 87.3421C353.114 87.4946 354.957 87.7402 355.88 88.7171C358.392 91.3773 358.126 97.4679 357.005 100.606C355.784 104.026 353.773 107.272 352.88 110.842C352.493 112.392 350.935 112.638 349.755 113.356C347.306 114.847 345.495 115.356 342.574 115.356C339.938 115.356 337.797 114.728 335.324 113.8C332.937 112.905 331.2 111.476 329.13 109.981C325.087 107.061 325.782 101.803 325.88 97.4115C325.94 94.7254 326.698 92.2254 328.519 90.231C331.09 87.415 335.406 86.8654 339.144 86.356Z" fill="#2E3120"/>
<path d="M472.062 447.829C472.416 447.781 472.765 447.733 473.106 447.683C474.223 447.435 475.517 446.994 476.298 447.384C477.275 447.873 478.215 447.829 479.298 447.829C481.161 447.829 482.982 448.586 484.812 448.815C486.032 448.967 487.876 449.213 488.798 450.19C491.311 452.85 491.044 458.941 489.923 462.079C488.702 465.499 486.691 468.745 485.798 472.315C485.411 473.865 483.853 474.111 482.673 474.829C480.224 476.32 478.413 476.829 475.493 476.829C472.856 476.829 470.715 476.201 468.243 475.273C465.855 474.378 464.118 472.949 462.048 471.454C458.005 468.534 458.701 463.276 458.798 458.884C458.858 456.198 459.616 453.698 461.437 451.704C464.008 448.888 468.325 448.338 472.062 447.829Z" fill="#2E3120"/>
<path d="M148.631 114.305C147.621 112.285 147.247 109.084 147.826 106.833C149.687 99.5945 155.372 100.576 158.159 100.069C159.545 99.8172 160.522 98.9008 161.964 98.6386C163.825 98.3003 166.384 98.4098 168.256 98.597C168.918 98.6632 169.685 98.8138 170.27 99.1386C170.585 99.3136 170.912 99.791 171.27 99.8331C172.013 99.9205 172.595 100.333 173.409 100.333C174.707 100.333 175.767 100.555 177.02 100.833C178.315 101.121 179.642 102.71 180.27 103.833C180.728 104.653 181.02 104.862 181.02 105.833V107.833C181.02 109.836 180.408 111.631 180.02 113.569C179.451 116.413 178.948 119.048 178.02 121.833C177.49 123.422 176.875 126.379 174.895 126.819C171.983 127.466 167.663 128.013 164.77 127.083C163.17 126.569 161.709 125.947 160.006 125.847L159.969 125.845C158.476 125.757 157.491 125.699 156.52 124.458C154.926 122.422 152.619 121.141 151.076 119.083C149.98 117.622 149.432 115.908 148.631 114.305Z" fill="#2E3120"/>
<path d="M24.4209 276.085C23.4109 274.065 23.0364 270.864 23.6153 268.612C25.4767 261.374 31.1619 262.355 33.9487 261.849C35.3345 261.597 36.3121 260.68 37.7542 260.418C39.6152 260.08 42.174 260.189 44.0459 260.376C44.7078 260.442 45.4749 260.593 46.0598 260.918C46.3746 261.093 46.7022 261.57 47.0598 261.612C47.8024 261.7 48.3845 262.112 49.1987 262.112C50.4967 262.112 51.5572 262.334 52.8098 262.612C54.1049 262.9 55.4321 264.489 56.0598 265.612C56.5182 266.433 56.8098 266.642 56.8098 267.612V269.612C56.8098 271.615 56.1974 273.41 55.8098 275.349C55.241 278.192 54.7381 280.827 53.8098 283.612C53.2803 285.201 52.665 288.158 50.6848 288.599C47.7727 289.246 43.4526 289.792 40.5598 288.862C38.9602 288.348 37.4985 287.726 35.7959 287.626L35.7593 287.624C34.2655 287.536 33.281 287.478 32.3098 286.237C30.7159 284.201 28.4086 282.92 26.8653 280.862C25.7698 279.402 25.2222 277.687 24.4209 276.085Z" fill="#2E3120"/>
<path d="M46.7737 57.2997C45.7637 55.2798 45.3892 52.0787 45.9681 49.8275C47.8294 42.5889 53.5147 43.5703 56.3014 43.0636C57.6873 42.8116 58.6649 41.8952 60.107 41.633C61.968 41.2947 64.5268 41.4042 66.3987 41.5914C67.0606 41.6576 67.8277 41.8081 68.4125 42.133C68.7274 42.3079 69.055 42.7854 69.4125 42.8275C70.1552 42.9149 70.7372 43.3275 71.5514 43.3275C72.8494 43.3275 73.91 43.5491 75.1625 43.8275C76.4577 44.1153 77.7849 45.7043 78.4125 46.8275C78.8709 47.6478 79.1625 47.8568 79.1625 48.8275V50.8275C79.1625 52.8299 78.5502 54.6255 78.1625 56.5636C77.5938 59.4072 77.0909 62.0425 76.1625 64.8275C75.6331 66.4159 75.0178 69.3735 73.0375 69.8136C70.1255 70.4607 65.8054 71.0073 62.9125 70.0775C61.313 69.5633 59.8513 68.9415 58.1487 68.8414L58.112 68.8392C56.6183 68.7514 55.6338 68.6936 54.6625 67.4525C53.0687 65.4159 50.7614 64.1352 49.2181 62.0775C48.1226 60.6168 47.5749 58.9023 46.7737 57.2997Z" fill="#2E3120"/>
<path d="M192.873 324.198C191.863 322.178 191.488 318.977 192.067 316.725C193.928 309.487 199.614 310.468 202.4 309.962C203.786 309.71 204.764 308.793 206.206 308.531C208.067 308.193 210.626 308.302 212.498 308.489C213.16 308.556 213.927 308.706 214.512 309.031C214.826 309.206 215.154 309.683 215.512 309.725C216.254 309.813 216.836 310.225 217.65 310.225C218.948 310.225 220.009 310.447 221.262 310.725C222.557 311.013 223.884 312.602 224.512 313.725C224.97 314.546 225.262 314.755 225.262 315.725V317.725C225.262 319.728 224.649 321.523 224.262 323.462C223.693 326.305 223.19 328.94 222.262 331.725C221.732 333.314 221.117 336.271 219.137 336.712C216.225 337.359 211.904 337.905 209.012 336.975C207.412 336.461 205.95 335.839 204.248 335.739L204.211 335.737C202.717 335.649 201.733 335.592 200.762 334.35C199.168 332.314 196.86 331.033 195.317 328.975C194.222 327.515 193.674 325.8 192.873 324.198Z" fill="#2E3120"/>
<path d="M238.262 475.316C237.252 473.296 236.878 470.095 237.457 467.843C239.318 460.605 245.003 461.586 247.79 461.079C249.176 460.828 250.153 459.911 251.596 459.649C253.457 459.311 256.015 459.42 257.887 459.607C258.549 459.673 259.316 459.824 259.901 460.149C260.216 460.324 260.544 460.801 260.901 460.843C261.644 460.931 262.226 461.343 263.04 461.343C264.338 461.343 265.398 461.565 266.651 461.843C267.946 462.131 269.273 463.72 269.901 464.843C270.359 465.664 270.651 465.873 270.651 466.843V468.843C270.651 470.846 270.039 472.641 269.651 474.579C269.082 477.423 268.579 480.058 267.651 482.843C267.122 484.432 266.506 487.389 264.526 487.829C261.614 488.477 257.294 489.023 254.401 488.093C252.802 487.579 251.34 486.957 249.637 486.857L249.601 486.855C248.107 486.767 247.122 486.709 246.151 485.468C244.557 483.432 242.25 482.151 240.707 480.093C239.611 478.633 239.063 476.918 238.262 475.316Z" fill="#2E3120"/>
<path d="M119.749 369C118.739 366.98 118.364 363.779 118.943 361.527C120.805 354.289 126.49 355.27 129.277 354.764C130.662 354.512 131.64 353.595 133.082 353.333C134.943 352.995 137.502 353.104 139.374 353.291C140.036 353.358 140.803 353.508 141.388 353.833C141.702 354.008 142.03 354.485 142.388 354.527C143.13 354.615 143.712 355.027 144.527 355.027C145.825 355.027 146.885 355.249 148.138 355.527C149.433 355.815 150.76 357.404 151.388 358.527C151.846 359.348 152.138 359.557 152.138 360.527V362.527C152.138 364.53 151.525 366.326 151.138 368.264C150.569 371.107 150.066 373.742 149.138 376.527C148.608 378.116 147.993 381.073 146.013 381.514C143.101 382.161 138.781 382.707 135.888 381.777C134.288 381.263 132.826 380.641 131.124 380.541L131.087 380.539C129.593 380.451 128.609 380.394 127.638 379.152C126.044 377.116 123.736 375.835 122.193 373.777C121.098 372.317 120.55 370.602 119.749 369Z" fill="#2E3120"/>
<path d="M74.6338 149.375C73.6238 147.355 73.2493 144.154 73.8282 141.902C75.6896 134.664 81.3748 135.645 84.1615 135.139C85.5474 134.887 86.525 133.97 87.9671 133.708C89.8281 133.37 92.3869 133.479 94.2588 133.666C94.9207 133.733 95.6878 133.883 96.2727 134.208C96.5875 134.383 96.9151 134.86 97.2727 134.902C98.0153 134.99 98.5973 135.402 99.4115 135.402C100.71 135.402 101.771 135.624 103.023 135.902C104.318 136.19 105.646 137.779 106.273 138.902C106.732 139.723 107.023 139.932 107.023 140.902V142.902C107.023 144.905 106.411 146.7 106.023 148.639C105.454 151.482 104.951 154.117 104.023 156.902C103.494 158.491 102.878 161.448 100.898 161.889C97.9856 162.536 93.6655 163.082 90.7727 162.152C89.1731 161.638 87.7114 161.016 86.0088 160.916L85.9721 160.914C84.4784 160.826 83.4939 160.769 82.5227 159.527C80.9288 157.491 78.6215 156.21 77.0782 154.152C75.9827 152.692 75.4351 150.977 74.6338 149.375Z" fill="#2E3120"/>
<path d="M44.6985 442.51C43.6885 440.49 43.314 437.289 43.8929 435.038C45.7543 427.799 51.4395 428.78 54.2262 428.274C55.6121 428.022 56.5897 427.105 58.0318 426.843C59.8928 426.505 62.4516 426.614 64.3235 426.802C64.9854 426.868 65.7525 427.018 66.3374 427.343C66.6522 427.518 66.9798 427.996 67.3374 428.038C68.08 428.125 68.662 428.538 69.4762 428.538C70.7743 428.538 71.8348 428.759 73.0874 429.038C74.3825 429.326 75.7097 430.915 76.3374 432.038C76.7957 432.858 77.0874 433.067 77.0874 434.038V436.038C77.0874 438.04 76.475 439.836 76.0874 441.774C75.5186 444.617 75.0157 447.253 74.0874 450.038C73.5579 451.626 72.9426 454.584 70.9624 455.024C68.0503 455.671 63.7302 456.218 60.8373 455.288C59.2378 454.774 57.7761 454.152 56.0735 454.052L56.0368 454.049C54.5431 453.962 53.5586 453.904 52.5873 452.663C50.9935 450.626 48.6862 449.345 47.1429 447.288C46.0474 445.827 45.4997 444.112 44.6985 442.51Z" fill="#2E3120"/>
<path d="M123.654 78.3302C122.644 76.3104 122.269 73.1092 122.848 70.858C124.71 63.6194 130.395 64.6008 133.182 64.0941C134.567 63.8421 135.545 62.9257 136.987 62.6636C138.848 62.3252 141.407 62.4347 143.279 62.6219C143.941 62.6881 144.708 62.8386 145.293 63.1636C145.607 63.3385 145.935 63.8159 146.293 63.858C147.035 63.9454 147.617 64.358 148.432 64.358C149.73 64.358 150.79 64.5796 152.043 64.858C153.338 65.1458 154.665 66.7348 155.293 67.858C155.751 68.6783 156.043 68.8873 156.043 69.858V71.858C156.043 73.8604 155.43 75.6561 155.043 77.5941C154.474 80.4378 153.971 83.073 153.043 85.858C152.513 87.4464 151.898 90.404 149.918 90.8441C147.006 91.4912 142.686 92.0378 139.793 91.108C138.193 90.5939 136.731 89.972 135.029 89.8719L134.992 89.8697C133.498 89.782 132.514 89.7241 131.543 88.483C129.949 86.4464 127.641 85.1657 126.098 83.108C125.003 81.6473 124.455 79.9328 123.654 78.3302Z" fill="#2E3120"/>
<path d="M152.744 189.284C151.734 187.264 151.36 184.063 151.939 181.812C153.8 174.574 159.485 175.555 162.272 175.048C163.658 174.796 164.635 173.88 166.078 173.618C167.939 173.279 170.497 173.389 172.369 173.576C173.031 173.642 173.798 173.793 174.383 174.118C174.698 174.293 175.026 174.77 175.383 174.812C176.126 174.899 176.708 175.312 177.522 175.312C178.82 175.312 179.881 175.534 181.133 175.812C182.428 176.1 183.755 177.689 184.383 178.812C184.842 179.632 185.133 179.841 185.133 180.812V182.812C185.133 184.815 184.521 186.61 184.133 188.548C183.564 191.392 183.061 194.027 182.133 196.812C181.604 198.401 180.988 201.358 179.008 201.798C176.096 202.445 171.776 202.992 168.883 202.062C167.284 201.548 165.822 200.926 164.119 200.826L164.083 200.824C162.589 200.736 161.604 200.678 160.633 199.437C159.039 197.401 156.732 196.12 155.189 194.062C154.093 192.601 153.546 190.887 152.744 189.284Z" fill="#2E3120"/>
<path d="M411.817 78.3302C410.807 76.3104 410.432 73.1092 411.011 70.858C412.872 63.6194 418.558 64.6008 421.344 64.0941C422.73 63.8421 423.708 62.9257 425.15 62.6636C427.011 62.3252 429.57 62.4347 431.442 62.6219C432.103 62.6881 432.871 62.8386 433.455 63.1636C433.77 63.3385 434.098 63.8159 434.455 63.858C435.198 63.9454 435.78 64.358 436.594 64.358C437.892 64.358 438.953 64.5796 440.205 64.858C441.501 65.1458 442.828 66.7348 443.455 67.858C443.914 68.6783 444.205 68.8873 444.205 69.858V71.858C444.205 73.8604 443.593 75.6561 443.205 77.5941C442.637 80.4378 442.134 83.073 441.205 85.858C440.676 87.4464 440.061 90.404 438.08 90.8441C435.168 91.4912 430.848 92.0378 427.955 91.108C426.356 90.5939 424.894 89.972 423.192 89.8719L423.155 89.8697C421.661 89.782 420.677 89.7241 419.705 88.483C418.112 86.4464 415.804 85.1657 414.261 83.108C413.165 81.6473 412.618 79.9328 411.817 78.3302Z" fill="#2E3120"/>
<path d="M299.321 195.87C298.311 193.85 297.937 190.649 298.515 188.398C300.377 181.159 306.062 182.141 308.849 181.634C310.235 181.382 311.212 180.466 312.654 180.204C314.515 179.865 317.074 179.975 318.946 180.162C319.608 180.228 320.375 180.379 320.96 180.704C321.275 180.879 321.602 181.356 321.96 181.398C322.703 181.485 323.285 181.898 324.099 181.898C325.397 181.898 326.457 182.12 327.71 182.398C329.005 182.686 330.332 184.275 330.96 185.398C331.418 186.218 331.71 186.427 331.71 187.398V189.398C331.71 191.4 331.098 193.196 330.71 195.134C330.141 197.978 329.638 200.613 328.71 203.398C328.18 204.986 327.565 207.944 325.585 208.384C322.673 209.031 318.353 209.578 315.46 208.648C313.86 208.134 312.399 207.512 310.696 207.412L310.659 207.41C309.166 207.322 308.181 207.264 307.21 206.023C305.616 203.986 303.309 202.706 301.765 200.648C300.67 199.187 300.122 197.473 299.321 195.87Z" fill="#2E3120"/>
<path d="M417.752 261.772C416.742 259.752 416.367 256.551 416.946 254.299C418.807 247.061 424.493 248.042 427.279 247.536C428.665 247.284 429.643 246.367 431.085 246.105C432.946 245.767 435.505 245.876 437.377 246.063C438.039 246.129 438.806 246.28 439.391 246.605C439.705 246.78 440.033 247.257 440.391 247.299C441.133 247.387 441.715 247.799 442.529 247.799C443.827 247.799 444.888 248.021 446.141 248.299C447.436 248.587 448.763 250.176 449.391 251.299C449.849 252.12 450.141 252.329 450.141 253.299V255.299C450.141 257.302 449.528 259.097 449.141 261.036C448.572 263.879 448.069 266.514 447.141 269.299C446.611 270.888 445.996 273.845 444.016 274.286C441.104 274.933 436.783 275.479 433.891 274.549C432.291 274.035 430.829 273.413 429.127 273.313L429.09 273.311C427.596 273.223 426.612 273.165 425.641 271.924C424.047 269.888 421.739 268.607 420.196 266.549C419.101 265.089 418.553 263.374 417.752 261.772Z" fill="#2E3120"/>
<path d="M356.284 394.521C355.274 392.501 354.899 389.3 355.478 387.049C357.34 379.81 363.025 380.792 365.812 380.285C367.197 380.033 368.175 379.117 369.617 378.854C371.478 378.516 374.037 378.626 375.909 378.813C376.571 378.879 377.338 379.03 377.923 379.354C378.238 379.529 378.565 380.007 378.923 380.049C379.665 380.136 380.247 380.549 381.062 380.549C382.36 380.549 383.42 380.771 384.673 381.049C385.968 381.337 387.295 382.926 387.923 384.049C388.381 384.869 388.673 385.078 388.673 386.049V388.049C388.673 390.051 388.06 391.847 387.673 393.785C387.104 396.629 386.601 399.264 385.673 402.049C385.143 403.637 384.528 406.595 382.548 407.035C379.636 407.682 375.316 408.229 372.423 407.299C370.823 406.785 369.361 406.163 367.659 406.063L367.622 406.061C366.128 405.973 365.144 405.915 364.173 404.674C362.579 402.637 360.272 401.357 358.728 399.299C357.633 397.838 357.085 396.124 356.284 394.521Z" fill="#2E3120"/>
<path d="M74.0305 467.603C75.365 464.467 78.0896 462.788 80.9333 461.159C87.7227 457.269 92.6479 461.159 98.9194 461.159C102.177 461.159 104.659 462.634 106.295 465.465C107.792 468.054 108.072 469.796 107.795 472.77C107.523 475.692 106.32 478.425 105.045 481.034C103.937 483.3 102.21 485.287 99.9333 486.465C96.8971 488.035 94.2985 488.409 90.9055 488.409C84.8903 488.409 78.7441 488.045 75.35 482.52C72.4163 477.744 71.805 472.833 74.0305 467.603Z" fill="#2E3120"/>
<path d="M94.0205 254.593C95.355 251.457 98.0796 249.777 100.923 248.148C107.712 244.258 112.637 248.148 118.909 248.148C122.166 248.148 124.649 249.623 126.285 252.454C127.782 255.043 128.062 256.785 127.785 259.759C127.513 262.681 126.31 265.414 125.035 268.023C123.927 270.289 122.199 272.277 119.923 273.454C116.887 275.024 114.288 275.398 110.895 275.398C104.88 275.398 98.734 275.035 95.34 269.509C92.4063 264.734 91.795 259.823 94.0205 254.593Z" fill="#2E3120"/>
<path d="M452.811 331.155C454.145 328.019 456.87 326.34 459.713 324.711C466.503 320.821 471.428 324.711 477.699 324.711C480.956 324.711 483.438 326.186 485.074 329.016C486.571 331.605 486.851 333.348 486.574 336.322C486.303 339.244 485.1 341.977 483.824 344.586C482.717 346.851 480.989 348.839 478.713 350.016C475.677 351.587 473.079 351.961 469.686 351.961C463.67 351.961 457.524 351.597 454.13 346.072C451.196 341.296 450.585 336.385 452.811 331.155Z" fill="#2E3120"/>
<path d="M337.65 464.189C338.984 461.053 341.709 459.374 344.552 457.744C351.342 453.855 356.267 457.744 362.538 457.744C365.795 457.744 368.277 459.22 369.913 462.05C371.41 464.639 371.69 466.381 371.413 469.355C371.142 472.277 369.939 475.011 368.663 477.619C367.556 479.885 365.828 481.873 363.552 483.05C360.516 484.62 357.918 484.994 354.525 484.994C348.509 484.994 342.363 484.631 338.969 479.105C336.035 474.33 335.424 469.419 337.65 464.189Z" fill="#2E3120"/>
<path d="M420.167 169.503C421.501 166.367 424.226 164.687 427.07 163.058C433.859 159.168 438.784 163.058 445.056 163.058C448.312 163.058 450.794 164.533 452.431 167.364C453.928 169.953 454.207 171.695 453.931 174.669C453.659 177.591 452.456 180.324 451.181 182.933C450.073 185.199 448.345 187.187 446.07 188.364C443.033 189.934 440.435 190.308 437.042 190.308C431.027 190.308 424.88 189.944 421.486 184.419C418.553 179.643 417.941 174.733 420.167 169.503Z" fill="#2E3120"/>
<path d="M175.177 79.1154C175.139 76.3757 176.281 74.1926 178.177 72.2266C182.3 67.9509 188.229 66.7266 193.927 66.7266C195.993 66.7266 198.134 66.7349 200.177 67.0321C201.654 67.2469 204.354 67.3557 205.122 68.9766C205.354 69.4661 205.012 69.9209 204.941 70.3793C204.826 71.1314 204.927 71.9649 204.927 72.7266V78.3516C204.927 81.6334 204.601 84.7961 203.677 87.9627C203.097 89.9521 202.639 91.4912 200.788 92.6016C199.56 93.3385 197.649 95.2266 196.233 95.2266C194.155 95.2266 192.281 95.1072 190.233 94.7821C187.747 94.3875 185.269 94.2824 182.83 93.7404C181.63 93.4738 179.488 92.0426 178.802 90.9766C177.843 89.4836 176.914 87.6198 176.622 85.8654C176.44 84.7758 176.457 83.6597 176.177 82.5877C175.855 81.3518 175.196 80.4445 175.177 79.1154Z" fill="#2E3120"/>
<path d="M55.9511 116.365C55.9125 113.625 57.0552 111.442 58.9511 109.476C63.074 105.2 69.0023 103.976 74.7011 103.976C76.7671 103.976 78.9075 103.984 80.9511 104.281C82.4279 104.496 85.1277 104.605 85.8955 106.226C86.1274 106.715 85.7855 107.17 85.7149 107.629C85.5992 108.381 85.7011 109.214 85.7011 109.976V115.601C85.7011 118.883 85.3746 122.045 84.4511 125.212C83.8708 127.201 83.4128 128.74 81.5622 129.851C80.3339 130.588 78.4224 132.476 77.0066 132.476C74.9291 132.476 73.0548 132.356 71.0066 132.031C68.5205 131.637 66.0428 131.532 63.6038 130.99C62.4041 130.723 60.2613 129.292 59.5761 128.226C58.6163 126.733 57.6879 124.869 57.3955 123.115C57.2139 122.025 57.2307 120.909 56.9511 119.837C56.6287 118.601 55.9698 117.694 55.9511 116.365Z" fill="#2E3120"/>
<path d="M103.658 180.819C103.62 178.079 104.763 175.896 106.658 173.93C110.781 169.654 116.71 168.43 122.408 168.43C124.474 168.43 126.615 168.438 128.658 168.736C130.135 168.951 132.835 169.059 133.603 170.68C133.835 171.17 133.493 171.624 133.422 172.083C133.307 172.835 133.408 173.669 133.408 174.43V180.055C133.408 183.337 133.082 186.5 132.158 189.666C131.578 191.656 131.12 193.195 129.27 194.305C128.041 195.042 126.13 196.93 124.714 196.93C122.636 196.93 120.762 196.811 118.714 196.486C116.228 196.091 113.75 195.986 111.311 195.444C110.111 195.177 107.969 193.746 107.283 192.68C106.324 191.187 105.395 189.323 105.103 187.569C104.921 186.479 104.938 185.363 104.658 184.291C104.336 183.055 103.677 182.148 103.658 180.819Z" fill="#2E3120"/>
<path d="M83.5168 346.219C83.4782 343.48 84.621 341.297 86.5168 339.331C90.6398 335.055 96.5681 333.831 102.267 333.831C104.333 333.831 106.474 333.839 108.517 334.136C109.994 334.351 112.694 334.46 113.462 336.081C113.694 336.57 113.352 337.025 113.281 337.483C113.166 338.235 113.267 339.069 113.267 339.831V345.456C113.267 348.737 112.941 351.9 112.017 355.067C111.437 357.056 110.979 358.595 109.128 359.706C107.9 360.443 105.989 362.331 104.573 362.331C102.495 362.331 100.621 362.211 98.5724 361.886C96.0863 361.491 93.6086 361.386 91.1696 360.844C89.9698 360.578 87.8271 359.147 87.1418 358.081C86.1821 356.588 85.2537 354.724 84.9613 352.969C84.7797 351.88 84.7965 350.764 84.5168 349.692C84.1944 348.456 83.5355 347.548 83.5168 346.219Z" fill="#2E3120"/>
<path d="M273.219 103.004C273.18 100.264 274.323 98.0813 276.219 96.1152C280.342 91.8395 286.27 90.6152 291.969 90.6152C294.035 90.6152 296.175 90.6235 298.219 90.9208C299.696 91.1356 302.396 91.2444 303.163 92.8652C303.395 93.3548 303.053 93.8095 302.983 94.268C302.867 95.0201 302.969 95.8536 302.969 96.6152V102.24C302.969 105.522 302.642 108.685 301.719 111.851C301.139 113.841 300.681 115.38 298.83 116.49C297.602 117.227 295.69 119.115 294.274 119.115C292.197 119.115 290.323 118.996 288.274 118.671C285.788 118.276 283.311 118.171 280.872 117.629C279.672 117.363 277.529 115.931 276.844 114.865C275.884 113.372 274.956 111.508 274.663 109.754C274.482 108.664 274.499 107.548 274.219 106.476C273.896 105.241 273.238 104.333 273.219 103.004Z" fill="#2E3120"/>
<path d="M440.406 56.9304C440.367 54.1907 441.51 52.0076 443.406 50.0415C447.529 45.7658 453.457 44.5415 459.156 44.5415C461.222 44.5415 463.362 44.5498 465.406 44.8471C466.882 45.0619 469.582 45.1706 470.35 46.7915C470.582 47.281 470.24 47.7358 470.169 48.1943C470.054 48.9464 470.156 49.7799 470.156 50.5415V56.1665C470.156 59.4483 469.829 62.611 468.906 65.7776C468.325 67.767 467.867 69.3062 466.017 70.4165C464.788 71.1534 462.877 73.0415 461.461 73.0415C459.384 73.0415 457.509 72.9222 455.461 72.5971C452.975 72.2024 450.497 72.0974 448.058 71.5554C446.859 71.2888 444.716 69.8575 444.031 68.7915C443.071 67.2986 442.142 65.4347 441.85 63.6804C441.668 62.5907 441.685 61.4747 441.406 60.4026C441.083 59.1668 440.424 58.2594 440.406 56.9304Z" fill="#2E3120"/>
<path d="M452.276 222.547C452.238 219.807 453.381 217.624 455.276 215.658C459.399 211.382 465.328 210.158 471.026 210.158C473.092 210.158 475.233 210.166 477.276 210.463C478.753 210.678 481.453 210.787 482.221 212.408C482.453 212.897 482.111 213.352 482.04 213.81C481.925 214.563 482.026 215.396 482.026 216.158V221.783C482.026 225.065 481.7 228.227 480.776 231.394C480.196 233.383 479.738 234.922 477.888 236.033C476.659 236.77 474.748 238.658 473.332 238.658C471.255 238.658 469.38 238.538 467.332 238.213C464.846 237.819 462.368 237.714 459.929 237.172C458.729 236.905 456.587 235.474 455.901 234.408C454.942 232.915 454.013 231.051 453.721 229.297C453.539 228.207 453.556 227.091 453.276 226.019C452.954 224.783 452.295 223.876 452.276 222.547Z" fill="#2E3120"/>
<path d="M383.154 157.288C383.116 154.548 384.259 152.365 386.154 150.399C390.277 146.123 396.206 144.899 401.904 144.899C403.97 144.899 406.111 144.907 408.154 145.204C409.631 145.419 412.331 145.528 413.099 147.149C413.331 147.638 412.989 148.093 412.918 148.552C412.803 149.304 412.904 150.137 412.904 150.899V156.524C412.904 159.806 412.578 162.968 411.654 166.135C411.074 168.124 410.616 169.664 408.766 170.774C407.537 171.511 405.626 173.399 404.21 173.399C402.132 173.399 400.258 173.28 398.21 172.954C395.724 172.56 393.246 172.455 390.807 171.913C389.607 171.646 387.465 170.215 386.779 169.149C385.82 167.656 384.891 165.792 384.599 164.038C384.417 162.948 384.434 161.832 384.154 160.76C383.832 159.524 383.173 158.617 383.154 157.288Z" fill="#2E3120"/>
<path d="M306.283 323.24C306.245 320.501 307.387 318.318 309.283 316.352C313.406 312.076 319.335 310.852 325.033 310.852C327.099 310.852 329.24 310.86 331.283 311.157C332.76 311.372 335.46 311.481 336.228 313.102C336.46 313.591 336.118 314.046 336.047 314.504C335.931 315.256 336.033 316.09 336.033 316.852V322.477C336.033 325.758 335.707 328.921 334.783 332.088C334.203 334.077 333.745 335.616 331.894 336.727C330.666 337.464 328.755 339.352 327.339 339.352C325.261 339.352 323.387 339.232 321.339 338.907C318.853 338.512 316.375 338.407 313.936 337.865C312.736 337.599 310.594 336.168 309.908 335.102C308.949 333.609 308.02 331.745 307.728 329.99C307.546 328.901 307.563 327.785 307.283 326.713C306.961 325.477 306.302 324.569 306.283 323.24Z" fill="#2E3120"/>
<path d="M198.57 277.482C198.532 274.742 199.674 272.559 201.57 270.593C205.693 266.317 211.622 265.093 217.32 265.093C219.386 265.093 221.528 265.101 223.57 265.398C225.047 265.613 227.747 265.722 228.515 267.343C228.746 267.832 228.405 268.287 228.334 268.746C228.218 269.498 228.32 270.331 228.32 271.093V276.718C228.32 280 227.994 283.162 227.07 286.329C226.49 288.318 226.032 289.857 224.181 290.968C222.953 291.705 221.042 293.593 219.626 293.593C217.549 293.593 215.674 293.473 213.626 293.148C211.14 292.754 208.662 292.649 206.223 292.107C205.023 291.84 202.88 290.409 202.195 289.343C201.235 287.85 200.307 285.986 200.015 284.232C199.833 283.142 199.85 282.026 199.57 280.954C199.248 279.718 198.589 278.811 198.57 277.482Z" fill="#2E3120"/>
<path d="M142.619 403.219C142.581 400.48 143.724 398.297 145.619 396.331C149.742 392.055 155.671 390.831 161.369 390.831C163.435 390.831 165.576 390.839 167.619 391.136C169.096 391.351 171.796 391.46 172.564 393.081C172.796 393.57 172.454 394.025 172.383 394.483C172.268 395.235 172.369 396.069 172.369 396.831V402.456C172.369 405.737 172.043 408.9 171.119 412.067C170.539 414.056 170.081 415.595 168.23 416.706C167.002 417.443 165.091 419.331 163.675 419.331C161.597 419.331 159.723 419.211 157.675 418.886C155.189 418.491 152.711 418.386 150.272 417.844C149.072 417.578 146.93 416.147 146.244 415.081C145.285 413.588 144.356 411.724 144.064 409.969C143.882 408.88 143.899 407.764 143.619 406.692C143.297 405.456 142.638 404.548 142.619 403.219Z" fill="#2E3120"/>
<path d="M277.317 463.7C277.279 460.96 278.422 458.777 280.317 456.811C284.44 452.535 290.369 451.311 296.067 451.311C298.133 451.311 300.274 451.319 302.317 451.616C303.794 451.831 306.494 451.94 307.262 453.561C307.494 454.05 307.152 454.505 307.081 454.964C306.966 455.716 307.067 456.549 307.067 457.311V462.936C307.067 466.218 306.741 469.38 305.817 472.547C305.237 474.536 304.779 476.075 302.928 477.186C301.7 477.923 299.789 479.811 298.373 479.811C296.295 479.811 294.421 479.691 292.373 479.366C289.887 478.972 287.409 478.867 284.97 478.325C283.77 478.058 281.628 476.627 280.942 475.561C279.983 474.068 279.054 472.204 278.762 470.45C278.58 469.36 278.597 468.244 278.317 467.172C277.995 465.936 277.336 465.029 277.317 463.7Z" fill="#2E3120"/>
<path d="M220.768 374.719C220.73 371.98 221.873 369.797 223.768 367.831C227.891 363.555 233.82 362.331 239.518 362.331C241.584 362.331 243.725 362.339 245.768 362.636C247.245 362.851 249.945 362.96 250.713 364.581C250.945 365.07 250.603 365.525 250.532 365.983C250.417 366.735 250.518 367.569 250.518 368.331V373.956C250.518 377.237 250.192 380.4 249.268 383.567C248.688 385.556 248.23 387.095 246.38 388.206C245.151 388.943 243.24 390.831 241.824 390.831C239.746 390.831 237.872 390.711 235.824 390.386C233.338 389.991 230.86 389.886 228.421 389.344C227.221 389.078 225.079 387.647 224.393 386.581C223.434 385.088 222.505 383.224 222.213 381.469C222.031 380.38 222.048 379.264 221.768 378.192C221.446 376.956 220.787 376.048 220.768 374.719Z" fill="#2E3120"/>
<path d="M349.484 431.604C349.446 428.865 350.588 426.682 352.484 424.716C356.607 420.44 362.535 419.216 368.234 419.216C370.3 419.216 372.441 419.224 374.484 419.521C375.961 419.736 378.661 419.845 379.429 421.466C379.66 421.955 379.319 422.41 379.248 422.868C379.132 423.62 379.234 424.454 379.234 425.216V430.841C379.234 434.122 378.908 437.285 377.984 440.452C377.404 442.441 376.946 443.98 375.095 445.091C373.867 445.828 371.955 447.716 370.54 447.716C368.462 447.716 366.588 447.596 364.54 447.271C362.054 446.876 359.576 446.771 357.137 446.229C355.937 445.963 353.794 444.532 353.109 443.466C352.149 441.973 351.221 440.109 350.929 438.354C350.747 437.265 350.764 436.149 350.484 435.077C350.162 433.841 349.503 432.934 349.484 431.604Z" fill="#2E3120"/>
<path d="M401.477 213.044C401.438 210.304 402.581 208.121 404.477 206.155C408.6 201.879 414.528 200.655 420.227 200.655C422.293 200.655 424.433 200.663 426.477 200.96C427.953 201.175 430.653 201.284 431.421 202.905C431.653 203.394 431.311 203.849 431.24 204.308C431.125 205.06 431.227 205.893 431.227 206.655V212.28C431.227 215.562 430.9 218.724 429.977 221.891C429.396 223.88 428.938 225.419 427.088 226.53C425.859 227.267 423.948 229.155 422.532 229.155C420.455 229.155 418.58 229.035 416.532 228.71C414.046 228.316 411.568 228.211 409.129 227.669C407.93 227.402 405.787 225.971 405.102 224.905C404.142 223.412 403.213 221.548 402.921 219.794C402.739 218.704 402.756 217.588 402.477 216.516C402.154 215.28 401.495 214.373 401.477 213.044Z" fill="#2E3120"/>
<path d="M248.229 56.0147C245.73 56.0147 243.206 55.9147 240.715 56.1535C236.79 56.5299 233.562 58.8296 233.562 64.0147C233.562 68.0016 232 71.732 232.368 75.7369C232.648 78.7809 233.821 81.1686 235.312 83.8202C236.326 85.6228 237.367 86.5085 239.257 87.2647C241.707 88.2448 244.361 88.2236 246.951 88.4591C249.627 88.7024 252.634 89.0345 255.312 88.7369C260.056 88.2098 264.588 83.7887 267.173 80.0285C267.89 78.9857 267.562 77.3342 267.562 76.1258C267.562 72.8728 266.72 70.354 264.465 67.9035C263.477 66.8296 263.42 65.2853 262.785 64.0147C262.11 62.6648 261.125 61.7167 259.798 61.0147C256.876 59.4673 253.951 57.9844 251.076 56.4035C250.181 55.9114 249.22 56.0147 248.229 56.0147Z" fill="#2E3120"/>
<path d="M112.808 94.5347C110.309 94.5347 107.786 94.4347 105.295 94.6736C101.369 95.05 98.1413 97.3496 98.1413 102.535C98.1413 106.522 96.5785 110.252 96.9468 114.257C97.2267 117.301 98.3997 119.689 99.8913 122.34C100.906 124.143 101.946 125.029 103.836 125.785C106.287 126.765 108.94 126.744 111.531 126.979C114.207 127.222 117.213 127.554 119.892 127.257C124.635 126.73 129.168 122.309 131.753 118.549C132.47 117.506 132.142 115.854 132.142 114.646C132.142 111.393 131.299 108.874 129.045 106.424C128.057 105.35 127.999 103.805 127.364 102.535C126.689 101.185 125.704 100.237 124.378 99.5347C121.455 97.9873 118.53 96.5044 115.656 94.9236C114.761 94.4314 113.799 94.5347 112.808 94.5347Z" fill="#2E3120"/>
<path d="M191.094 227.626C188.594 227.626 186.071 227.526 183.58 227.765C179.655 228.141 176.427 230.441 176.427 235.626C176.427 239.613 174.864 243.343 175.233 247.348C175.512 250.392 176.686 252.78 178.177 255.431C179.191 257.234 180.231 258.12 182.121 258.876C184.572 259.856 187.226 259.835 189.816 260.07C192.492 260.313 195.499 260.646 198.177 260.348C202.921 259.821 207.453 255.4 210.038 251.64C210.755 250.597 210.427 248.945 210.427 247.737C210.427 244.484 209.584 241.965 207.33 239.515C206.342 238.441 206.285 236.896 205.649 235.626C204.974 234.276 203.989 233.328 202.663 232.626C199.74 231.078 196.815 229.595 193.941 228.015C193.046 227.523 192.084 227.626 191.094 227.626Z" fill="#2E3120"/>
<path d="M54.588 345.921C52.0884 345.921 49.5653 345.821 47.0741 346.06C43.1488 346.436 39.9213 348.736 39.9213 353.921C39.9213 357.908 38.3586 361.638 38.7268 365.643C39.0068 368.687 40.1798 371.075 41.6713 373.726C42.6853 375.529 43.7254 376.415 45.6157 377.171C48.0662 378.151 50.7199 378.13 53.3102 378.365C55.9861 378.609 58.993 378.941 61.6713 378.643C66.415 378.116 70.9473 373.695 73.5324 369.935C74.2493 368.892 73.9213 367.24 73.9213 366.032C73.9213 362.779 73.0785 360.26 70.8241 357.81C69.8361 356.736 69.7788 355.192 69.1435 353.921C68.4686 352.571 67.4834 351.623 66.1574 350.921C63.2346 349.374 60.3095 347.891 57.4352 346.31C56.5404 345.818 55.5785 345.921 54.588 345.921Z" fill="#2E3120"/>
<path d="M286.567 393.785C284.068 393.785 281.546 393.685 279.054 393.924C275.129 394.3 271.901 396.6 271.901 401.785C271.901 405.772 270.338 409.502 270.706 413.507C270.986 416.551 272.159 418.939 273.651 421.59C274.665 423.393 275.705 424.279 277.595 425.035C280.046 426.015 282.7 425.994 285.291 426.229C287.966 426.473 290.972 426.805 293.651 426.507C298.394 425.98 302.927 421.559 305.512 417.799C306.229 416.756 305.901 415.104 305.901 413.896C305.901 410.643 305.059 408.124 302.804 405.674C301.816 404.6 301.758 403.056 301.123 401.785C300.448 400.435 299.463 399.487 298.137 398.785C295.214 397.238 292.29 395.755 289.416 394.174C288.521 393.682 287.558 393.785 286.567 393.785Z" fill="#2E3120"/>
<path d="M335.797 260.753C333.297 260.753 330.774 260.653 328.283 260.892C324.358 261.268 321.13 263.568 321.13 268.753C321.13 272.74 319.567 276.47 319.936 280.475C320.216 283.519 321.389 285.907 322.88 288.559C323.894 290.361 324.934 291.247 326.825 292.003C329.275 292.983 331.929 292.962 334.519 293.198C337.195 293.441 340.202 293.773 342.88 293.475C347.624 292.948 352.156 288.527 354.741 284.767C355.458 283.724 355.13 282.073 355.13 280.864C355.13 277.611 354.287 275.093 352.033 272.642C351.045 271.568 350.988 270.024 350.352 268.753C349.677 267.403 348.692 266.455 347.366 265.753C344.443 264.206 341.518 262.723 338.644 261.142C337.749 260.65 336.787 260.753 335.797 260.753Z" fill="#2E3120"/>
<path d="M348.745 144.92C346.246 144.92 343.723 144.82 341.232 145.059C337.306 145.435 334.079 147.735 334.079 152.92C334.079 156.907 332.516 160.637 332.884 164.642C333.164 167.686 334.337 170.074 335.829 172.725C336.843 174.528 337.883 175.414 339.773 176.17C342.224 177.15 344.877 177.129 347.468 177.364C350.144 177.607 353.15 177.939 355.829 177.642C360.573 177.115 365.105 172.694 367.69 168.934C368.407 167.891 368.079 166.239 368.079 165.031C368.079 161.778 367.236 159.259 364.982 156.809C363.994 155.735 363.936 154.19 363.301 152.92C362.626 151.57 361.641 150.622 360.315 149.92C357.392 148.372 354.467 146.889 351.593 145.309C350.698 144.816 349.736 144.92 348.745 144.92Z" fill="#2E3120"/>
<path d="M378.758 47.1233C376.258 47.1233 373.735 47.0233 371.244 47.2622C367.318 47.6386 364.091 49.9382 364.091 55.1233C364.091 59.1102 362.528 62.8406 362.897 66.8455C363.176 69.8896 364.349 72.2773 365.841 74.9289C366.855 76.7315 367.895 77.6172 369.785 78.3733C372.236 79.3535 374.89 79.3323 377.48 79.5677C380.156 79.811 383.163 80.1431 385.841 79.8455C390.585 79.3184 395.117 74.8974 397.702 71.1372C398.419 70.0944 398.091 68.4428 398.091 67.2344C398.091 63.9815 397.248 61.4627 394.994 59.0122C394.006 57.9383 393.948 56.3939 393.313 55.1233C392.638 53.7735 391.653 52.8253 390.327 52.1233C387.404 50.5759 384.479 49.093 381.605 47.5122C380.71 47.0201 379.748 47.1233 378.758 47.1233Z" fill="#2E3120"/>
<path d="M269.602 222.662C272.245 219.616 276.762 218.464 280.574 217.857C285.407 217.087 288.825 217.74 293.547 218.496C296.019 218.891 297.148 222.144 298.158 224.135C300.24 228.241 302.98 231.844 301.755 236.746C300.827 240.459 298.053 243.196 294.727 245.037C291.084 247.054 285.844 246.279 281.852 246.246C276.15 246.198 268.825 244.915 265.213 239.885C263.666 237.73 265.09 233.315 265.713 231.024C266.563 227.903 267.448 225.146 269.602 222.662Z" fill="#2E3120"/>
<path d="M239.594 135.596C242.236 132.549 246.753 131.398 250.566 130.79C255.397 130.021 258.815 130.674 263.537 131.429C266.009 131.825 267.14 135.078 268.149 137.068C270.232 141.175 272.972 144.778 271.747 149.679C270.818 153.393 268.044 156.13 264.718 157.971C261.075 159.988 255.836 159.213 251.844 159.179C246.142 159.132 238.816 157.849 235.204 152.818C233.657 150.663 235.08 146.248 235.704 143.957C236.553 140.837 237.44 138.08 239.594 135.596Z" fill="#2E3120"/>
<path d="M135.154 225.426C137.796 222.379 142.314 221.228 146.126 220.621C150.958 219.851 154.376 220.504 159.098 221.259C161.57 221.655 162.7 224.908 163.709 226.898C165.791 231.005 168.532 234.608 167.307 239.509C166.378 243.223 163.605 245.96 160.279 247.801C156.636 249.818 151.395 249.043 147.404 249.009C141.702 248.962 134.377 247.679 130.765 242.648C129.218 240.493 130.641 236.078 131.265 233.787C132.114 230.667 133 227.91 135.154 225.426Z" fill="#2E3120"/>
<path d="M400.949 405.484C403.591 402.438 408.109 401.286 411.921 400.679C416.753 399.909 420.172 400.562 424.893 401.318C427.365 401.713 428.495 404.966 429.505 406.957C431.587 411.063 434.327 414.666 433.102 419.568C432.173 423.281 429.4 426.018 426.074 427.859C422.431 429.876 417.191 429.101 413.199 429.068C407.497 429.02 400.172 427.737 396.56 422.707C395.013 420.552 396.437 416.137 397.06 413.846C397.909 410.725 398.795 407.968 400.949 405.484Z" fill="#2E3120"/>
<path d="M409.437 302.245C412.079 299.198 416.597 298.047 420.409 297.439C425.241 296.67 428.659 297.323 433.381 298.078C435.853 298.474 436.983 301.727 437.992 303.717C440.074 307.824 442.815 311.427 441.589 316.328C440.661 320.042 437.887 322.779 434.562 324.62C430.919 326.637 425.678 325.862 421.687 325.828C415.984 325.781 408.659 324.498 405.048 319.467C403.501 317.312 404.924 312.897 405.548 310.606C406.397 307.486 407.282 304.729 409.437 302.245Z" fill="#2E3120"/>
<path d="M311.368 374.228C314.01 371.181 318.528 370.03 322.34 369.422C327.172 368.653 330.59 369.306 335.312 370.061C337.784 370.457 338.914 373.709 339.923 375.7C342.006 379.807 344.746 383.409 343.521 388.311C342.592 392.025 339.819 394.762 336.493 396.603C332.85 398.619 327.61 397.844 323.618 397.811C317.916 397.764 310.591 396.481 306.979 391.45C305.432 389.295 306.855 384.88 307.479 382.589C308.328 379.469 309.214 376.712 311.368 374.228Z" fill="#2E3120"/>
<path d="M155.57 326.342C158.212 323.295 162.73 322.144 166.542 321.537C171.374 320.767 174.792 321.42 179.514 322.175C181.986 322.571 183.116 325.824 184.125 327.814C186.208 331.921 188.948 335.524 187.723 340.425C186.794 344.139 184.021 346.876 180.695 348.717C177.052 350.734 171.812 349.959 167.82 349.925C162.118 349.878 154.793 348.595 151.181 343.564C149.634 341.41 151.057 336.994 151.681 334.703C152.53 331.583 153.416 328.826 155.57 326.342Z" fill="#2E3120"/>
<path d="M140.187 452.38C142.829 449.333 147.347 448.182 151.159 447.575C155.991 446.805 159.409 447.458 164.131 448.214C166.603 448.609 167.733 451.862 168.742 453.852C170.824 457.959 173.565 461.562 172.339 466.464C171.411 470.177 168.637 472.914 165.312 474.755C161.669 476.772 156.428 475.997 152.437 475.964C146.734 475.916 139.409 474.633 135.798 469.602C134.251 467.448 135.674 463.032 136.298 460.741C137.147 457.621 138.032 454.864 140.187 452.38Z" fill="#2E3120"/>
<path d="M11.1199 463.237C11.3864 461.852 13.9394 455.626 22.3144 453.112C26.6251 452.496 31.1869 452.948 35.231 454.681C37.5253 455.665 40.1986 456.859 41.5782 459.015C43.0326 461.287 43.3144 463.244 43.3144 465.89C43.3144 468.835 42.9427 471.399 42.2032 474.251C41.6786 476.275 39.9151 477.349 38.0921 478.362C33.9374 480.67 29.9981 483.454 25.0088 483.376C22.4649 483.336 18.0984 482.367 16.3282 480.376C15.0168 478.901 14.5113 477.08 13.9394 475.237C13.1596 472.724 12.0122 470.493 11.0644 468.07C10.4896 466.602 10.8321 464.734 11.1199 463.237Z" fill="#2E3120"/>
<path d="M7.68698 309.708C6.67705 307.688 6.30254 304.487 6.88142 302.236C8.74277 294.997 14.4281 295.979 17.2148 295.472C18.6006 295.22 19.5782 294.304 21.0203 294.041C22.8814 293.703 25.4401 293.813 27.312 294C27.9739 294.066 28.7411 294.217 29.3259 294.541C29.6407 294.716 29.9683 295.194 30.3259 295.236C31.0686 295.323 31.6506 295.736 32.4648 295.736C33.7628 295.736 34.8233 295.958 36.0759 296.236C37.371 296.524 38.6982 298.113 39.3259 299.236C39.7843 300.056 40.0759 300.265 40.0759 301.236V303.236C40.0759 305.238 39.4635 307.034 39.0759 308.972C38.5071 311.816 38.0042 314.451 37.0759 317.236C36.5464 318.824 35.9311 321.782 33.9509 322.222C31.0388 322.869 26.7188 323.416 23.8259 322.486C22.2263 321.972 20.7646 321.35 19.062 321.25L19.0254 321.248C17.5316 321.16 16.5472 321.102 15.5759 319.861C13.982 317.824 11.6747 316.544 10.1314 314.486C9.03593 313.025 8.48827 311.311 7.68698 309.708Z" fill="#2E3120"/>
<path d="M17.1822 164.62C18.5166 161.484 21.2412 159.805 24.0849 158.176C30.8743 154.286 35.7995 158.176 42.071 158.176C45.3278 158.176 47.8098 159.651 49.446 162.481C50.9429 165.07 51.2227 166.812 50.946 169.787C50.6742 172.709 49.4714 175.442 48.196 178.051C47.0884 180.316 45.3607 182.304 43.0849 183.481C40.0487 185.052 37.4501 185.426 34.0572 185.426C28.0419 185.426 21.8957 185.062 18.5016 179.537C15.5679 174.761 14.9566 169.85 17.1822 164.62Z" fill="#2E3120"/>
<path d="M0.851533 350.1C0.812945 347.36 1.9557 345.177 3.85153 343.211C7.97453 338.935 13.9028 337.711 19.6015 337.711C21.6676 337.711 23.808 337.719 25.8515 338.016C27.3283 338.231 30.0282 338.34 30.796 339.961C31.0279 340.45 30.686 340.905 30.6154 341.364C30.4997 342.116 30.6015 342.949 30.6015 343.711V349.336C30.6015 352.618 30.2751 355.78 29.3515 358.947C28.7713 360.936 28.3132 362.476 26.4627 363.586C25.2344 364.323 23.3229 366.211 21.9071 366.211C19.8296 366.211 17.9553 366.092 15.9071 365.766C13.421 365.372 10.9433 365.267 8.50431 364.725C7.30456 364.458 5.16183 363.027 4.47653 361.961C3.51678 360.468 2.58837 358.604 2.29598 356.85C2.11437 355.76 2.1312 354.644 1.85153 353.572C1.52914 352.336 0.870252 351.429 0.851533 350.1Z" fill="#2E3120"/>
<path d="M19.2625 101.816C16.763 101.816 14.2398 101.716 11.7486 101.955C7.82332 102.332 4.59584 104.631 4.59584 109.816C4.59584 113.803 3.03313 117.534 3.4014 121.539C3.68131 124.583 4.85433 126.97 6.34584 129.622C7.35981 131.425 8.39996 132.31 10.2903 133.066C12.7407 134.047 15.3944 134.025 17.9847 134.261C20.6607 134.504 23.6675 134.836 26.3459 134.539C31.0896 134.012 35.6218 129.59 38.207 125.83C38.9239 124.787 38.5959 123.136 38.5959 121.928C38.5959 118.675 37.7531 116.156 35.4986 113.705C34.5106 112.631 34.4534 111.087 33.8181 109.816C33.1432 108.467 32.158 107.518 30.832 106.816C27.9091 105.269 24.984 103.786 22.1097 102.205C21.215 101.713 20.2531 101.816 19.2625 101.816Z" fill="#2E3120"/>
<path d="M15.7805 0C15.0724 1.59261 13.5138 2.53203 11.909 3.42355C11.2963 3.76394 10.6883 4.11466 10.0809 4.46503C6.89805 6.30105 3.73244 8.12711 0 8.40318V0H15.7805Z" fill="#2E3120"/>
<path d="M385.508 500H352.323C352.234 498.818 352.304 497.637 352.56 496.642C354.109 490.616 358.308 490.286 361.279 490.053C361.877 490.006 362.426 489.963 362.893 489.878C363.579 489.753 364.165 489.466 364.757 489.175C365.36 488.879 365.97 488.58 366.698 488.447C368.559 488.109 371.118 488.218 372.99 488.406C373.652 488.472 374.419 488.622 375.004 488.947C375.125 489.015 375.249 489.127 375.375 489.243C375.576 489.426 375.784 489.616 376.004 489.642C376.328 489.68 376.621 489.78 376.916 489.88C377.298 490.01 377.684 490.142 378.143 490.142C379.441 490.142 380.501 490.363 381.754 490.642C383.049 490.93 384.376 492.519 385.004 493.642C385.103 493.818 385.194 493.967 385.276 494.1C385.574 494.587 385.754 494.88 385.754 495.642V497.642C385.754 498.454 385.653 499.232 385.508 500Z" fill="#2E3120"/>
<path d="M468.608 500H433.685C433.905 498.875 434.258 497.736 434.749 496.582C436.083 493.446 438.808 491.767 441.652 490.138C446.144 487.564 449.82 488.396 453.61 489.254C455.548 489.692 457.516 490.138 459.638 490.138C462.895 490.138 465.377 491.613 467.013 494.443C468.192 496.482 468.616 497.996 468.608 500Z" fill="#2E3120"/>
<path d="M500 477.911V500H487.664C487.183 498.518 486.581 497.129 485.975 495.734C485.603 494.876 485.23 494.015 484.883 493.13C484.308 491.661 484.651 489.793 484.939 488.296C485.205 486.911 487.758 480.685 496.133 478.171C497.407 477.989 498.702 477.901 500 477.911Z" fill="#2E3120"/>
<path d="M500 409.881V434.45C499.903 434.349 499.806 434.238 499.71 434.115C498.932 433.121 497.983 432.306 497.036 431.493C496.045 430.642 495.055 429.793 494.266 428.74C493.515 427.739 493.022 426.619 492.528 425.497C492.301 424.982 492.074 424.467 491.822 423.963C490.812 421.943 490.437 418.742 491.016 416.49C492.565 410.465 496.764 410.135 499.735 409.902C499.824 409.895 499.913 409.888 500 409.881Z" fill="#2E3120"/>
<path d="M500.001 377.48V407.022C499.741 407.074 499.481 407.114 499.22 407.143C496.778 407.415 494.063 407.163 491.575 406.932C491.334 406.909 491.095 406.887 490.858 406.866C490.329 406.817 489.796 406.78 489.263 406.743C487.191 406.597 485.113 406.451 483.164 405.671C481.274 404.915 480.233 404.029 479.22 402.227C477.728 399.575 476.555 397.187 476.275 394.143C476.072 391.934 476.457 389.808 476.842 387.676C477.156 385.944 477.47 384.208 477.47 382.421C477.47 377.236 480.697 374.936 484.622 374.56C486.546 374.376 488.49 374.393 490.426 374.411C490.997 374.416 491.567 374.421 492.136 374.421C492.283 374.421 492.43 374.419 492.576 374.417C493.411 374.404 494.222 374.391 494.983 374.81C496.642 375.722 498.318 376.602 500.001 377.48Z" fill="#2E3120"/>
<path d="M500 253.185V278.336C496.706 278.262 492.579 277.642 489.227 274.643C488.085 273.621 487.641 272.04 487.237 270.604C487.229 270.575 487.221 270.546 487.213 270.518C486.649 268.51 486.489 265.529 486.894 263.462C487.383 260.963 488.12 258.637 489.713 256.629C491.502 254.373 492.687 253.685 495.588 253.504C496.437 253.451 497.282 253.386 498.125 253.322C498.75 253.275 499.375 253.227 500 253.185Z" fill="#2E3120"/>
<path d="M500.001 171.655V200.231C498.895 200.532 497.728 200.655 496.294 200.655C493.658 200.655 491.517 200.026 489.044 199.099C487.016 198.339 485.457 197.192 483.764 195.948C483.465 195.728 483.161 195.504 482.85 195.28C479.246 192.677 479.407 188.216 479.554 184.167C479.572 183.674 479.589 183.187 479.6 182.71C479.66 180.024 480.418 177.524 482.239 175.53C484.771 172.757 488.995 172.182 492.693 171.678C492.75 171.67 492.807 171.663 492.864 171.655C493.218 171.607 493.567 171.559 493.908 171.509C494.104 171.466 494.304 171.417 494.507 171.367C495.462 171.132 496.456 170.888 497.1 171.21C498.002 171.661 498.872 171.658 499.853 171.655C499.902 171.655 499.951 171.655 500.001 171.655Z" fill="#2E3120"/>
<path d="M500 214.397V232.083C499.978 232.011 499.956 231.94 499.934 231.869C499.899 231.756 499.864 231.643 499.829 231.53C499.334 229.937 498.692 228.456 498.046 226.968C497.674 226.11 497.301 225.25 496.954 224.364C496.379 222.895 496.722 221.027 497.01 219.53C497.153 218.782 497.964 216.622 500 214.397Z" fill="#2E3120"/>
<path d="M500 60.4387V87.3286C499.973 87.3188 499.947 87.3088 499.92 87.2989C497.891 86.5381 496.332 85.3918 494.639 84.1472C494.34 83.9272 494.036 83.704 493.725 83.4794C490.121 80.8763 490.283 76.4154 490.429 72.3663C490.447 71.8734 490.465 71.3866 490.475 70.91C490.535 68.2238 491.293 65.7238 493.114 63.7294C494.852 61.8268 497.386 60.9588 500 60.4387Z" fill="#2E3120"/>
<path d="M500 21.8269V46.9271C499.762 47.0715 499.522 47.2112 499.278 47.346C496.37 48.9559 492.444 48.7867 488.948 48.636C488.064 48.5979 487.208 48.561 486.403 48.5543C480.701 48.5068 473.376 47.2238 469.764 42.1932C468.343 40.2131 469.429 36.3245 470.099 33.9291C470.158 33.7177 470.214 33.5179 470.264 33.3321C471.114 30.2118 471.999 27.4549 474.153 24.971C476.796 21.9243 481.313 20.7727 485.125 20.1654C489.661 19.443 492.951 19.974 497.242 20.6666C497.523 20.7119 497.808 20.7579 498.098 20.8043C498.842 20.9235 499.465 21.3018 500 21.8269Z" fill="#2E3120"/>
<path d="M500.001 8.40335C499.616 8.43172 499.226 8.44365 498.828 8.43744C496.284 8.39769 491.918 7.42884 490.148 5.43744C488.917 4.05246 488.396 2.36347 487.864 0.637094C487.829 0.524381 487.794 0.411509 487.759 0.298552C487.728 0.1986 487.696 0.0990929 487.664 0H500.001V8.40335Z" fill="#2E3120"/>
<path d="M468.608 0C468.605 0.541254 468.572 1.11825 468.513 1.75101C468.241 4.67292 467.038 7.40612 465.763 10.0149C464.655 12.2805 462.928 14.2684 460.652 15.4455C457.616 17.0159 455.017 17.3899 451.624 17.3899C445.609 17.3899 439.463 17.0262 436.069 11.501C433.782 7.77852 432.906 3.97387 433.685 0H468.608Z" fill="#2E3120"/>
<path d="M352.323 0C352.436 1.49299 352.801 2.9886 353.365 4.11611C353.617 4.62046 353.845 5.1359 354.072 5.65103C354.566 6.77272 355.059 7.89292 355.81 8.89388C356.599 9.94644 357.588 10.7957 358.58 11.6468C359.527 12.4596 360.475 13.274 361.254 14.2689C362.225 15.51 363.21 15.5678 364.703 15.6556L364.74 15.6578C366.095 15.7375 367.298 16.1478 368.539 16.5712C368.857 16.6797 369.178 16.789 369.504 16.8939C372.397 17.8237 376.717 17.2771 379.629 16.63C381.343 16.2492 382.035 13.9834 382.533 12.3508C382.611 12.0966 382.683 11.8578 382.754 11.6439C383.629 9.01955 384.126 6.52812 384.656 3.87001C384.689 3.70732 384.721 3.544 384.754 3.38C384.863 2.83528 384.99 2.30182 385.115 1.77186C385.256 1.18048 385.395 0.593449 385.508 0H352.323Z" fill="#2E3120"/>
<path d="M339.56 0C341.129 2.94465 342.405 5.86769 341.496 9.50648C340.567 13.2202 337.794 15.957 334.468 17.7981C331.56 19.408 327.634 19.2388 324.137 19.0882C323.254 19.0501 322.398 19.0132 321.593 19.0065C315.891 18.959 308.566 17.6759 304.954 12.6454C303.532 10.6653 304.619 6.77663 305.288 4.38122C305.348 4.16982 305.403 3.97006 305.454 3.78426C305.814 2.45964 306.181 1.20053 306.649 0H339.56Z" fill="#2E3120"/>
<path d="M260.33 0C259.576 0.801877 258.937 1.72215 258.469 2.82141C256.244 8.05141 256.855 12.9624 259.789 17.7381C263.183 23.2633 269.329 23.627 275.344 23.627C278.737 23.627 281.336 23.253 284.372 21.6825C286.648 20.5054 288.376 18.5176 289.483 16.252C290.759 13.6432 291.961 10.91 292.233 7.98808C292.51 5.01386 292.23 3.27167 290.733 0.68252C290.596 0.445485 290.453 0.217955 290.304 0H260.33Z" fill="#2E3120"/>
<path d="M241.125 0C240.982 1.07424 240.752 2.06255 240.467 2.86014C239.97 4.25186 239.342 5.61468 238.712 6.98221C237.794 8.97551 236.872 10.9788 236.342 13.0962C236.055 14.2439 235.127 14.6766 234.185 15.1154C233.855 15.2692 233.523 15.4238 233.217 15.6101C230.768 17.1008 228.957 17.6101 226.037 17.6101C223.4 17.6101 221.259 16.9818 218.787 16.0546C216.758 15.2938 215.199 14.1475 213.506 12.9029C213.207 12.6829 212.903 12.4597 212.592 12.2351C208.988 9.63201 209.149 5.1711 209.296 1.12205C209.31 0.743822 209.323 0.369189 209.334 0H241.125Z" fill="#2E3120"/>
<path d="M156.137 0C155.625 2.2386 156.006 5.32072 156.988 7.2853C157.24 7.78965 157.468 8.30509 157.694 8.82022C158.189 9.94191 158.682 11.0621 159.433 12.0631C160.222 13.1156 161.211 13.9649 162.203 14.816C163.15 15.6288 164.099 16.4432 164.877 17.4381C165.848 18.6792 166.833 18.737 168.327 18.8248L168.363 18.827C169.719 18.9067 170.921 19.317 172.163 19.7404C172.48 19.8489 172.801 19.9582 173.127 20.0631C176.02 20.9929 180.34 20.4463 183.252 19.7992C184.966 19.4184 185.657 17.1526 186.155 15.52C186.233 15.2658 186.306 15.027 186.377 14.8131C187.252 12.1888 187.749 9.69733 188.279 7.03923C188.312 6.87653 188.344 6.7132 188.377 6.54918C188.486 6.00447 188.613 5.47101 188.739 4.94105C189.061 3.58544 189.377 2.25271 189.377 0.813074V0H156.137Z" fill="#2E3120"/>
<path d="M142.133 0C140.651 4.12233 139.051 5.00112 135.613 6.89007C135.326 7.04775 135.026 7.21247 134.713 7.3867C132.06 8.86079 127.004 8.45624 122.868 8.12519C121.313 8.00075 119.888 7.8867 118.768 7.8867C114.828 7.8867 111.801 3.64953 111.289 0H142.133Z" fill="#2E3120"/>
<path d="M35.776 9.64921C35.7679 9.62041 35.7598 9.59167 35.7518 9.56299C35.1872 7.55583 35.0279 4.57437 35.4323 2.50743C35.6002 1.6493 35.7974 0.811537 36.0486 0H66.3394C66.5145 0.497957 66.672 1.00915 66.8355 1.53998C66.89 1.71669 66.9451 1.89558 67.0018 2.07688C67.3829 3.29647 67.4136 4.38538 67.3768 5.6741C67.3477 6.6906 66.6786 7.77617 66.0545 8.78873C65.7564 9.27233 65.4686 9.73929 65.2656 10.1741C64.2804 12.2853 62.5156 15.2362 60.3768 16.3685C58.5148 17.3543 55.7923 17.3338 53.5627 17.3171C53.2838 17.315 53.0126 17.313 52.7518 17.313C52.3625 17.313 51.9106 17.3281 51.4078 17.3449C47.9833 17.4595 42.1971 17.653 37.7656 13.688C36.6238 12.6664 36.1796 11.0856 35.776 9.64921Z" fill="#2E3120"/>
<path d="M290.307 500H260.329C261.728 498.513 263.525 497.433 265.373 496.375C269.865 493.801 273.541 494.633 277.331 495.491C279.269 495.929 281.237 496.375 283.359 496.375C286.344 496.375 288.678 497.614 290.307 500Z" fill="#2E3120"/>
<path d="M339.561 500H306.648C307.283 498.372 308.103 496.851 309.343 495.421C311.985 492.374 316.503 491.223 320.315 490.615C324.85 489.893 328.14 490.424 332.431 491.117C332.712 491.162 332.997 491.208 333.287 491.254C335.388 491.59 336.52 493.991 337.432 495.926C337.593 496.268 337.747 496.595 337.898 496.893C338.245 497.576 338.609 498.246 338.971 498.909C339.17 499.274 339.368 499.637 339.561 500Z" fill="#2E3120"/>
<path d="M0 46.9258V21.8289C0.972647 22.7855 1.65245 24.2279 2.24089 25.4764C2.40179 25.8178 2.55585 26.1447 2.70721 26.4432C3.05361 27.1263 3.41823 27.7956 3.77978 28.4592C5.59145 31.7844 7.32599 34.968 6.30443 39.0543C5.4442 42.4952 2.99999 45.0975 0 46.9258Z" fill="#2E3120"/>
<path d="M0 87.3296V60.4384C1.19503 60.2007 2.40671 60.0357 3.56652 59.8778C3.62371 59.87 3.68078 59.8623 3.73772 59.8545C4.09164 59.8063 4.44037 59.7584 4.78193 59.7089C4.97731 59.6655 5.17814 59.6162 5.38072 59.5665C6.33562 59.3319 7.3293 59.0878 7.97379 59.4101C8.87537 59.8609 9.74565 59.8581 10.7263 59.855C10.808 59.8548 10.8905 59.8545 10.9738 59.8545C12.0749 59.8545 13.1617 60.1192 14.2443 60.3829C14.993 60.5653 15.7396 60.7471 16.4877 60.8406C17.7076 60.9931 19.5511 61.2387 20.4738 62.2156C22.9862 64.8759 22.7195 70.9664 21.5988 74.1045C21.1018 75.4962 20.474 76.8591 19.8441 78.2266C18.9259 80.2199 18.0032 82.2232 17.4738 84.3406C17.1869 85.4883 16.2583 85.921 15.3168 86.3598C14.9867 86.5136 14.655 86.6682 14.3488 86.8545C11.8998 88.3452 10.0885 88.8545 7.16824 88.8545C4.56075 88.8545 2.43819 88.24 0 87.3296Z" fill="#2E3120"/>
<path d="M0 200.23V171.655C0.0323152 171.655 0.064755 171.655 0.0973244 171.655C1.19847 171.655 2.28524 171.919 3.36785 172.183C4.1165 172.366 4.86317 172.547 5.61122 172.641C6.83111 172.793 8.67467 173.039 9.59733 174.016C12.1098 176.676 11.8431 182.767 10.7223 185.905C10.2253 187.297 9.59753 188.659 8.96762 190.027C8.04946 192.02 7.12668 194.023 6.59733 196.141C6.31041 197.289 5.38182 197.721 4.44029 198.16C4.11019 198.314 3.77851 198.468 3.47233 198.655C2.22653 199.413 1.14572 199.917 0 200.23Z" fill="#2E3120"/>
<path d="M0 278.336V253.184C1.38296 253.09 2.76858 253.018 4.16979 253.018C6.84801 253.018 8.54813 253.527 10.892 254.823C11.4356 255.124 12.0263 255.385 12.6218 255.648C14.0874 256.295 15.5823 256.955 16.4754 258.254C17.4055 259.607 17.8254 260.969 18.2953 262.495C18.3497 262.671 18.4048 262.85 18.4615 263.031C18.8426 264.251 18.8733 265.34 18.8365 266.629C18.8074 267.645 18.1383 268.731 17.5142 269.743C17.2161 270.227 16.9283 270.694 16.7254 271.129C15.7401 273.24 13.9753 276.191 11.8365 277.323C9.97452 278.309 7.25199 278.288 5.02244 278.272C4.74351 278.27 4.4723 278.268 4.21146 278.268C3.82224 278.268 3.37034 278.283 2.86754 278.299C2.0338 278.327 1.06007 278.36 0 278.336Z" fill="#2E3120"/>
<path d="M0 407.021V377.481C0.225094 377.599 0.450309 377.716 0.67562 377.834C1.68357 378.36 2.69345 378.887 3.70305 379.421C5.02907 380.123 6.01425 381.071 6.68916 382.421C6.93131 382.905 7.08948 383.429 7.24721 383.952C7.50332 384.801 7.75828 385.645 8.36971 386.31C10.6242 388.76 11.4669 391.279 11.4669 394.532C11.4669 394.811 11.4844 395.113 11.5024 395.425C11.5627 396.47 11.6297 397.632 11.0781 398.435C8.63558 401.988 4.45493 406.13 0 407.021Z" fill="#2E3120"/>
<path d="M0 232.09V214.395C1.73279 212.501 4.35241 210.561 8.20228 209.405C12.513 208.79 17.0748 209.242 21.119 210.975C23.4132 211.958 26.0865 213.152 27.4662 215.308C28.9206 217.581 29.2023 219.538 29.2023 222.183C29.2023 225.128 28.8306 227.692 28.0912 230.544C27.5665 232.568 25.803 233.643 23.9801 234.655C23.3674 234.996 22.7594 235.347 22.152 235.697C18.6406 237.722 15.1503 239.736 10.8967 239.669C8.35278 239.63 3.98631 238.661 2.21617 236.669C1.03758 235.343 0.509966 233.739 0 232.09Z" fill="#2E3120"/>
<path d="M0 434.452V409.88C0.495032 409.841 0.950692 409.799 1.34757 409.726C2.03358 409.602 2.61958 409.314 3.2114 409.024C3.81512 408.728 4.4249 408.428 5.15312 408.296C7.01417 407.958 9.57291 408.067 11.4448 408.254C12.1067 408.32 12.8739 408.471 13.4587 408.796C13.5802 408.863 13.7036 408.976 13.83 409.091C14.0309 409.275 14.2391 409.465 14.4587 409.49C14.7824 409.528 15.0756 409.628 15.3709 409.729C15.7529 409.859 16.1383 409.99 16.5976 409.99C17.8956 409.99 18.9561 410.212 20.2087 410.49C21.5038 410.778 22.831 412.367 23.4587 413.49C23.5574 413.667 23.6483 413.815 23.7303 413.949C24.0291 414.436 24.2087 414.729 24.2087 415.49V417.49C24.2087 418.93 23.8922 420.263 23.5702 421.618C23.4443 422.148 23.3176 422.682 23.2087 423.226C23.1759 423.39 23.1433 423.554 23.1108 423.716C22.5805 426.375 22.0835 428.866 21.2087 431.49C21.1374 431.704 21.0645 431.943 20.9869 432.197C20.4887 433.83 19.7972 436.096 18.0837 436.476C15.1717 437.124 10.8516 437.67 7.95868 436.74C7.63247 436.635 7.312 436.526 6.99404 436.418C5.75292 435.994 4.55018 435.584 3.19479 435.504L3.15817 435.502C1.81332 435.423 0.881276 435.368 0 434.452Z" fill="#2E3120"/>
<path d="M15.7795 500H0V477.911C3.09371 477.935 6.19924 478.52 9.04791 479.741C11.3422 480.724 14.0155 481.918 15.3951 484.074C16.8495 486.347 17.1312 488.303 17.1312 490.949C17.1312 493.894 16.7596 496.458 16.0201 499.31C15.9571 499.553 15.8762 499.783 15.7795 500Z" fill="#2E3120"/>
<path d="M66.3401 500H36.0479C36.528 498.448 37.2053 496.991 38.2517 495.672C40.0408 493.416 41.2254 492.728 44.1267 492.547C44.9755 492.494 45.8202 492.43 46.6637 492.366C48.6727 492.213 50.6748 492.061 52.71 492.061C55.3882 492.061 57.0884 492.57 59.4323 493.866C59.9758 494.167 60.5664 494.428 61.162 494.691C62.6276 495.338 64.1224 495.998 65.0155 497.297C65.6224 498.18 66.012 499.067 66.3401 500Z" fill="#2E3120"/>
<path d="M142.131 500H111.289C111.238 499.639 111.212 499.285 111.212 498.94C111.212 495.347 111.486 490.902 112.267 487.384C113.991 479.628 118.018 479.707 125.056 479.845C126.047 479.864 127.099 479.884 128.212 479.884C129.925 479.884 130.857 480.113 131.845 480.355C132.725 480.571 133.65 480.798 135.212 480.884C138.467 481.065 140.212 482.134 143.212 486.662C146.026 488.318 143.668 495.397 142.663 498.412C142.575 498.677 142.497 498.911 142.434 499.107C142.333 499.421 142.232 499.718 142.131 500Z" fill="#2E3120"/>
<path d="M189.376 500H156.136C156.15 499.936 156.166 499.873 156.182 499.811C157.731 493.786 161.93 493.456 164.901 493.222C165.499 493.175 166.048 493.132 166.515 493.047C167.201 492.922 167.787 492.635 168.379 492.344C168.983 492.048 169.592 491.749 170.321 491.616C172.182 491.278 174.74 491.388 176.612 491.575C177.274 491.641 178.041 491.792 178.626 492.116C178.748 492.184 178.871 492.297 178.997 492.412C179.198 492.595 179.407 492.785 179.626 492.811C179.95 492.849 180.243 492.949 180.538 493.049C180.92 493.18 181.306 493.311 181.765 493.311C183.063 493.311 184.124 493.533 185.376 493.811C186.671 494.099 187.999 495.688 188.626 496.811C188.725 496.987 188.816 497.136 188.898 497.269C189.197 497.757 189.376 498.049 189.376 498.811V500Z" fill="#2E3120"/>
<path d="M241.124 500H209.334C209.337 499.887 209.34 499.775 209.342 499.663C209.402 496.977 210.16 494.477 211.981 492.483C214.513 489.71 218.738 489.135 222.435 488.631C222.492 488.623 222.549 488.616 222.606 488.608C222.96 488.56 223.309 488.512 223.65 488.462C223.846 488.419 224.047 488.37 224.249 488.32C225.204 488.085 226.198 487.841 226.842 488.163C227.744 488.614 228.614 488.612 229.595 488.608C229.676 488.608 229.759 488.608 229.842 488.608C230.943 488.608 232.03 488.873 233.113 489.136C233.861 489.319 234.608 489.501 235.356 489.594C236.576 489.747 238.42 489.992 239.342 490.969C241.217 492.954 241.544 496.847 241.124 500Z" fill="#2E3120"/>
</svg>
