<svg width="503" height="501" viewBox="0 0 503 501" fill="none" xmlns="http://www.w3.org/2000/svg">
<path d="M208.746 411.384C192.946 411.384 188.206 401.554 182.746 382.714C182.405 381.412 182.324 380.055 182.508 378.722C182.691 377.389 183.136 376.105 183.816 374.944C184.531 373.485 185.792 372.368 187.326 371.834C193.926 370.184 200.696 370.064 207.246 369.944C216.246 369.784 224.766 369.634 233.126 365.944C235.898 364.563 238.571 362.992 241.126 361.244C248.766 356.334 257.416 350.774 265.216 353.374C270.466 355.124 273.366 357.684 273.846 360.984C274.956 368.634 262.286 377.484 253.906 383.344C252.416 384.344 251.126 385.284 250.126 386.034C246.837 388.657 243.714 391.482 240.776 394.494C233.606 401.494 225.466 409.494 215.896 410.844C213.528 411.192 211.139 411.373 208.746 411.384ZM188.066 374.744C187.346 375.108 186.769 375.703 186.426 376.434C185.469 378.08 185.189 380.035 185.646 381.884C191.726 402.954 195.886 410.664 215.526 407.884C224.126 406.664 231.526 399.394 238.726 392.364C241.756 389.257 244.979 386.345 248.376 383.644C249.376 382.864 250.726 381.954 252.236 380.894C259.066 376.124 271.766 367.244 270.926 361.424C270.616 359.334 268.396 357.594 264.316 356.234C257.876 354.084 249.866 359.234 242.796 363.774C240.109 365.616 237.292 367.26 234.366 368.694C225.446 372.694 216.236 372.824 207.366 372.984C200.946 373.054 194.336 373.214 188.066 374.744Z" fill="#2E3120"/>
<path d="M474.646 215.124C470.332 215.099 466.135 213.721 462.646 211.184C449.646 202.014 444.206 179.894 443.156 169.474C441.706 154.944 447.296 143.304 452.696 132.064C455.616 125.984 458.626 119.704 460.556 112.964C462.176 107.304 462.336 100.064 462.556 92.4036C462.966 74.7036 463.436 54.6436 482.816 48.1836C487.116 46.7436 488.816 47.5936 490.506 48.8336C490.716 48.9836 490.926 49.1436 491.156 49.2936C491.256 49.3546 491.349 49.4249 491.436 49.5036L493.316 51.4236C493.384 51.4863 493.444 51.5568 493.496 51.6336C495.966 55.3036 494.906 62.5736 493.666 66.3036C488.446 81.9536 483.116 100.654 483.116 120.654C483.116 130.174 487.446 137.544 492.036 145.354C499.426 157.944 507.806 172.214 497.556 197.854C493.996 206.754 488.026 212.484 480.306 214.414C478.456 214.882 476.555 215.121 474.646 215.124ZM486.516 50.4236C485.548 50.4807 484.594 50.683 483.686 51.0236C466.306 56.8236 465.886 74.9436 465.476 92.4736C465.296 100.334 465.126 107.754 463.396 113.794C461.396 120.794 458.326 127.174 455.396 133.354C449.936 144.734 444.776 155.474 446.146 169.174C447.306 180.734 453.146 200.804 464.366 208.724C466.525 210.294 469.009 211.36 471.634 211.841C474.26 212.322 476.961 212.207 479.536 211.504C488.066 209.374 492.536 202.294 494.726 196.734C504.436 172.464 496.796 159.454 489.406 146.874C484.816 139.064 480.076 130.994 480.076 120.654C480.076 100.224 485.486 81.2336 490.776 65.3536C491.916 61.9436 492.616 55.9636 491.036 53.4236L489.376 51.7336C489.146 51.5836 488.926 51.4236 488.706 51.2636C488.103 50.7257 487.324 50.4269 486.516 50.4236Z" fill="#2E3120"/>
<path d="M204.186 277.704C203.56 277.706 202.935 277.662 202.316 277.574C197.636 276.904 194.316 273.754 192.476 268.204C190.636 262.654 193.896 257.334 197.056 252.204C199.056 248.984 200.906 245.934 201.376 243.094C205.536 218.094 191.016 201.794 158.206 194.504L156.846 194.204C151.986 193.134 146.966 192.034 142.636 189.534C142.325 189.352 142.039 189.13 141.786 188.874C141.214 188.322 140.818 187.612 140.651 186.834C140.484 186.057 140.552 185.247 140.848 184.509C141.143 183.77 141.651 183.137 142.308 182.689C142.965 182.241 143.741 181.999 144.536 181.994C151.896 181.804 158.226 181.264 163.816 180.794C182.306 179.244 195.656 178.124 223.896 190.674C242.596 198.984 248.896 213.764 243.676 237.194C242.073 244.492 239.123 251.427 234.976 257.644C230.926 263.474 215.856 277.704 204.186 277.704ZM180.376 182.834C175.126 182.834 169.906 183.274 164.076 183.764C158.446 184.244 152.076 184.764 144.616 184.974C144.406 184.96 144.198 185.014 144.02 185.126C143.843 185.238 143.705 185.403 143.626 185.598C143.548 185.792 143.533 186.007 143.583 186.211C143.633 186.415 143.746 186.598 143.906 186.734C143.976 186.802 144.053 186.862 144.136 186.914C148.066 189.184 152.856 190.234 157.486 191.254L158.856 191.554C193.506 199.254 208.856 216.754 204.336 243.554C203.766 246.974 201.656 250.404 199.616 253.734C196.676 258.504 193.906 263.014 195.316 267.234C196.796 271.674 199.226 274.074 202.746 274.584C212.686 276.014 228.316 261.954 232.506 255.904C236.415 249.994 239.207 243.419 240.746 236.504C245.656 214.414 240.086 201.104 222.676 193.374C203.736 184.974 191.966 182.834 180.376 182.834Z" fill="#2E3120"/>
<path d="M160.066 11.6536C157.926 15.2636 155.706 19.0036 155.706 23.6536C155.706 27.3036 157.236 30.5736 158.706 33.7436C159.936 36.0689 160.841 38.5521 161.396 41.1236C162.546 48.1236 158.396 54.1236 154.776 57.9936C143.716 69.6436 120.866 78.3836 105.876 76.7036C98.326 75.8536 93.356 73.3236 90.686 68.9836C85.466 60.5136 89.986 46.4336 94.626 33.9036C95.326 32.0236 96.006 29.9636 96.726 27.7836C99.236 20.2136 102.076 11.6236 106.726 6.86359C107.226 6.36359 107.826 5.78359 108.506 5.13359C109.936 3.74359 111.666 2.07359 113.376 0.213594H109.286C108.286 1.21359 107.286 2.15359 106.476 2.97359C105.786 3.64359 105.166 4.24359 104.656 4.75359C99.456 10.0136 96.496 18.9536 93.886 26.8436C93.176 29.0036 92.506 31.0336 91.826 32.8436C86.936 46.0536 82.186 60.9336 88.186 70.5536C91.336 75.6636 97.186 78.7336 105.606 79.6836C106.971 79.8343 108.343 79.9078 109.716 79.9036C125.296 79.9036 146.366 71.2636 157.016 60.0536C162.926 53.8336 165.486 47.1236 164.416 40.6436C163.819 37.7987 162.833 35.0496 161.486 32.4736C160.086 29.4736 158.756 26.6436 158.756 23.6536C158.756 19.8236 160.666 16.6536 162.696 13.1836C164.886 9.48359 167.306 5.37359 167.126 0.183594H164.126C164.276 4.52359 162.186 8.00359 160.066 11.6536Z" fill="#2E3120"/>
<path d="M51.306 11.8236C54.866 14.4236 59.546 15.0136 65.206 13.5836C69.986 12.3736 75.326 6.92359 81.386 0.213593H77.316C72.466 5.48359 67.986 9.78359 64.476 10.6736C59.646 11.8936 55.926 11.4736 53.076 9.40359C50.436 7.46359 48.716 4.21359 47.546 0.213593H44.396C45.716 5.11359 47.816 9.27359 51.306 11.8236Z" fill="#2E3120"/>
<path d="M190.186 22.2836C189.266 28.3836 187.826 36.2836 184.806 43.2836C179.573 55.1368 172.776 66.2355 164.596 76.2836C160.596 81.1936 155.066 85.4836 149.686 89.6436C148.216 90.7736 146.776 91.8836 145.406 92.9936C140.546 96.9328 134.966 99.8878 128.976 101.694C96.186 111.604 81.116 85.0736 66.546 59.4136C55.396 39.7936 44.866 21.2136 27.006 19.0236C18.006 17.9036 9.07604 18.9536 0.186035 20.9236V24.0036C9.01604 22.0036 17.886 20.9036 26.636 22.0036C43.006 24.0036 53.176 41.9436 63.936 60.8936C76.286 82.6436 90.046 106.894 115.706 106.894C120.51 106.846 125.28 106.094 129.866 104.664C136.226 102.754 142.151 99.6188 147.306 95.4336C148.666 94.3436 150.096 93.2436 151.546 92.1136C157.066 87.8536 162.766 83.4536 166.956 78.2736C175.311 67.9915 182.253 56.6374 187.596 44.5136C190.756 37.1536 192.236 29.0036 193.176 22.7236C194.445 15.2801 194.526 7.68244 193.416 0.213593H190.416C191.476 6.34359 191.516 13.5736 190.186 22.2836Z" fill="#2E3120"/>
<path d="M500.186 316.214C496.453 315.929 492.705 315.883 488.966 316.074C468.806 317.264 450.706 327.074 433.196 336.514C420.556 343.344 407.476 350.414 393.886 354.034C360.396 362.974 333.556 352.484 316.286 323.694C310.796 314.554 306.986 307.344 307.876 297.604C309.146 283.604 314.236 271.604 319.626 258.954C322.306 252.654 325.076 246.134 327.336 239.344C330.446 230.004 330.916 221.054 331.416 211.574C331.576 208.574 331.736 205.374 332.006 202.234C332.466 196.624 334.246 190.944 336.006 185.454C337.431 181.213 338.593 176.888 339.486 172.504C342.236 157.404 334.676 130.604 324.216 118.414C311.016 103.004 291.896 96.3536 267.396 98.6436C242.496 100.974 219.876 111.814 208.606 118.074C191.856 127.384 162.206 141.074 151.916 128.214C151.287 127.447 150.829 126.556 150.57 125.6C150.311 124.643 150.259 123.642 150.416 122.664C151.286 115.764 159.906 107.664 164.856 103.924C168.716 101.034 172.856 98.1536 176.856 95.3736C196.416 81.7936 216.636 67.7436 220.586 42.0636C223.056 25.9836 221.336 13.2436 216.346 0.253593H213.106C218.246 13.1836 220.106 25.7336 217.616 41.6036C213.826 65.9736 194.186 79.6436 175.106 92.8736C171.106 95.6636 166.916 98.5636 163.016 101.484C161.546 102.594 148.636 112.484 147.396 122.244C147.19 123.621 147.274 125.026 147.642 126.37C148.011 127.713 148.656 128.964 149.536 130.044C155.036 136.924 165.346 138.194 180.196 133.814C188.906 131.244 198.936 126.814 210.026 120.654C221.116 114.494 243.276 103.864 267.636 101.594C291.106 99.3936 309.366 105.704 321.906 120.324C331.706 131.754 339.066 157.804 336.496 171.924C335.622 176.185 334.49 180.389 333.106 184.514C331.336 190.164 329.506 196.004 329.016 201.944C328.746 205.134 328.576 208.314 328.416 211.384C327.936 220.654 327.476 229.384 324.486 238.384C322.266 245.054 319.486 251.514 316.866 257.754C311.626 270.094 306.196 282.854 304.866 297.314C303.866 307.934 308.096 315.904 313.686 325.214C327.556 348.324 347.296 360.144 371.556 360.144C379.357 360.079 387.117 358.993 394.636 356.914C408.576 353.204 421.806 346.044 434.636 339.134C451.856 329.824 469.636 320.194 489.156 319.054C492.822 318.865 496.496 318.911 500.156 319.194L500.186 316.214Z" fill="#2E3120"/>
<path d="M500.186 266.534C484.439 271.802 469.181 278.434 454.586 286.354C449.407 289.267 444.429 292.524 439.686 296.104C434.556 299.794 429.256 303.614 423.596 306.444C405.656 315.444 373.116 315.444 358.056 302.064C337.576 283.854 343.546 261.464 349.316 239.804C351.516 231.564 355.206 221.314 359.126 210.454C372.586 173.094 389.346 126.594 370.946 98.9936C350.456 68.2636 305.286 69.9336 269.846 81.7436C267.026 82.6836 263.526 84.2636 259.846 85.9436C248.396 91.1136 232.746 98.2136 224.106 91.7336C221.516 89.7936 220.106 87.7336 219.786 85.5136C219.166 81.0936 222.856 76.2136 226.416 71.5136C227.816 69.6736 229.136 67.9236 230.226 66.1736C231.686 63.8436 233.226 61.4936 234.826 59.0036C245.076 43.1736 256.706 25.2436 254.576 6.00359C254.352 4.04849 253.981 2.11304 253.466 0.213593H250.356C250.939 2.22235 251.354 4.27609 251.596 6.35359C253.596 24.4936 242.286 41.9436 232.306 57.3536C230.686 59.8536 229.156 62.2136 227.686 64.5636C226.686 66.2036 225.376 67.8936 224.026 69.6936C220.086 74.8936 216.026 80.2736 216.816 85.9336C217.246 88.9336 219.096 91.7236 222.306 94.1336C232.306 101.674 248.306 94.4636 261.066 88.6736C264.696 87.0336 268.116 85.4836 270.786 84.5936C305.176 73.1336 348.896 71.3336 368.446 100.664C386.006 127.004 369.536 172.714 356.296 209.434C352.366 220.354 348.646 230.674 346.416 239.034C340.416 261.564 334.196 284.874 356.066 304.304C363.666 311.064 375.686 315.094 389.886 315.654C390.986 315.654 392.086 315.724 393.186 315.724C404.886 315.724 416.546 313.314 424.936 309.124C430.816 306.184 436.216 302.294 441.436 298.534C446.074 295.037 450.938 291.85 455.996 288.994C470.155 281.324 484.937 274.867 500.186 269.694V266.534Z" fill="#2E3120"/>
<path d="M500.186 0.213593H499.946C499.946 4.21359 497.686 8.11359 493.296 11.9536C473.186 29.5136 445.996 26.5536 419.676 23.6836C406.826 22.2836 393.546 20.8336 381.556 21.9236C371.026 22.9236 362.016 27.7636 353.296 32.4736C344.576 37.1836 336.546 41.5436 326.956 42.6036C314.426 44.0036 300.956 42.9336 290.956 39.7636C277.306 35.4336 269.676 27.5536 268.276 16.3336C267.596 10.9236 268.636 5.67359 269.936 0.213593H266.856C265.606 5.56359 264.586 11.0536 265.296 16.7136C268.186 40.0236 294.726 46.2136 315.816 46.2136C319.648 46.2136 323.477 46.0066 327.286 45.5936C337.456 44.4636 346.236 39.7136 354.726 35.1136C363.566 30.3336 371.916 25.8136 381.826 24.9136C393.516 23.8536 406.066 25.2136 419.346 26.6636C446.346 29.6036 474.206 32.6636 495.276 14.2036C497.154 12.6041 498.805 10.7572 500.186 8.71359L500.186 0.213593Z" fill="#2E3120"/>
<path d="M372.046 0.213593C370.286 0.793593 368.476 1.39359 366.616 2.03359C351.106 7.27359 333.526 13.2236 319.616 4.89359C317.548 3.72001 315.749 2.12567 314.336 0.213593H310.756C312.475 3.2761 315.023 5.79224 318.106 7.47359C323.457 10.6023 329.569 12.1908 335.766 12.0636C346.326 12.0636 357.376 8.32359 367.576 4.87359C370.786 3.78359 373.826 2.75359 376.746 1.87359C379.239 1.14998 381.778 0.595388 384.346 0.213593H372.046Z" fill="#2E3120"/>
<path d="M500.186 72.2136C500.066 72.6136 499.926 73.0236 499.806 73.4336C496.026 86.6736 496.596 101.434 500.186 116.064V72.2136Z" fill="#2E3120"/>
<path d="M500.186 252.414L498.646 252.824C491.646 254.744 485.346 258.414 479.296 261.954C476.296 263.684 473.296 265.484 470.176 267.024C452.296 275.964 410.486 286.714 394.836 271.024C359.086 235.314 381.306 179.784 397.526 139.214C398.696 136.214 400.186 133.344 401.756 130.214C404.856 124.104 408.056 117.784 408.896 111.084C410.416 98.9236 400.486 92.0836 391.726 85.9936C381.596 78.9936 372.846 72.9936 379.146 60.3436C380.816 56.9936 383.456 53.8436 386.016 50.7836C386.816 49.7836 387.616 48.8736 388.376 47.9236C392.116 43.2436 399.016 44.2936 405.096 45.2136C406.156 45.3736 407.176 45.5336 408.156 45.6536C421.466 47.3236 452.646 53.2636 454.786 72.5236C456.366 86.6936 449.706 97.0836 442.666 108.074C439.788 112.41 437.138 116.892 434.726 121.504C432.486 126.034 430.296 130.214 428.186 134.214C414.116 160.824 404.826 178.404 424.446 212.734C429.116 220.914 439.166 235.294 453.976 239.734C466.176 243.394 483.306 241.254 500.196 234.734V231.434C483.566 238.044 466.506 240.374 454.836 236.874C441.026 232.734 431.496 219.044 427.046 211.254C408.246 178.354 416.746 162.254 430.836 135.624C432.966 131.624 435.166 127.424 437.426 122.914C439.778 118.39 442.368 113.993 445.186 109.744C452.186 98.7436 459.446 87.4636 457.756 72.2436C455.386 50.8636 422.536 44.4836 408.526 42.7336C407.526 42.6136 406.526 42.4536 405.526 42.3036C398.986 41.3036 390.836 40.0636 386.006 46.1036C385.266 47.0336 384.486 47.9636 383.696 48.9136C380.896 52.0024 378.463 55.4051 376.446 59.0536C368.976 73.9836 379.666 81.3736 389.996 88.5136C398.836 94.6336 407.196 100.404 405.896 110.764C405.126 116.944 402.046 123.024 399.056 128.904C397.526 131.904 395.946 135.054 394.716 138.114C378.186 179.444 355.546 236.034 392.716 273.184C399.156 279.634 409.336 282.054 420.536 282.054C438.756 282.054 459.666 275.634 471.536 269.714C474.716 268.124 477.826 266.304 480.826 264.544C486.706 261.094 492.826 257.544 499.456 255.724L500.206 255.514L500.186 252.414Z" fill="#2E3120"/>
<path d="M500.186 467.324C496.326 468.174 492.476 468.994 488.686 469.794C470.636 473.624 453.596 477.244 442.186 482.954C433.627 487.227 425.954 493.083 419.576 500.214H423.716C429.44 494.26 436.14 489.329 443.526 485.634C454.596 480.104 471.456 476.524 489.306 472.734C492.896 471.974 496.536 471.194 500.186 470.394V467.324Z" fill="#2E3120"/>
<path d="M308.356 489.514C304.906 472.274 287.636 467.324 272.356 462.964C260.916 459.684 250.106 456.594 247.286 448.904C244.946 442.554 248.006 433.164 256.646 420.204C260.597 414.113 266.127 409.209 272.646 406.014C281.206 401.734 288.786 395.394 295.806 386.624C298.006 383.884 299.556 380.404 301.056 377.044C304.626 369.044 308.056 361.404 319.846 361.404C321.618 361.414 323.387 361.561 325.136 361.844C334.136 363.224 338.816 367.504 343.786 372.034C351.336 378.924 359.146 386.034 381.856 382.264C405.016 378.404 429.856 367.324 451.856 357.554L455.736 355.824C460.361 353.655 464.856 351.217 469.196 348.524C476.386 344.254 483.826 339.824 492.196 338.164C494.886 337.624 497.576 337.224 500.196 336.954V333.954C497.336 334.244 494.456 334.664 491.566 335.244C482.726 337.004 475.066 341.564 467.656 345.964C463.416 348.599 459.025 350.983 454.506 353.104L450.616 354.834C428.846 364.534 404.156 375.534 381.366 379.324C360.116 382.874 353.166 376.544 345.816 369.834C340.736 365.204 335.486 360.424 325.606 358.894C307.146 356.044 302.456 366.564 298.326 375.844C297.082 379.008 295.453 382.007 293.476 384.774C286.726 393.194 279.476 399.274 271.316 403.354C264.351 406.795 258.436 412.04 254.186 418.544C244.846 432.544 241.766 442.544 244.496 449.944C247.846 459.054 259.366 462.354 271.556 465.844C286.676 470.174 302.316 474.654 305.406 490.104C306.07 493.441 306.515 496.818 306.736 500.214H309.736C309.511 496.621 309.05 493.046 308.356 489.514Z" fill="#2E3120"/>
<path d="M500.186 440.404C497.056 441.734 493.966 443.074 490.926 444.404C471.506 452.834 453.166 460.794 431.556 465.124C420.006 467.434 406.556 469.724 404.316 469.504C396.716 464.254 386.316 446.164 384.316 438.054C380.006 420.824 396.576 408.724 409.896 399.004C412.146 397.354 414.276 395.804 416.236 394.274C423.626 388.534 431.416 387.554 439.666 386.514C444.863 386.028 449.999 385.023 454.996 383.514C461.223 381.252 467.293 378.58 473.166 375.514C480.416 371.934 487.906 368.234 495.306 366.384C496.896 365.984 498.536 365.684 500.196 365.434V362.434C498.305 362.696 496.429 363.057 494.576 363.514C486.866 365.444 479.226 369.214 471.836 372.864C466.086 375.865 460.143 378.481 454.046 380.694C449.234 382.146 444.29 383.114 439.286 383.584C430.996 384.634 422.436 385.714 414.396 391.964C412.476 393.454 410.396 394.964 408.126 396.634C394.126 406.884 376.606 419.634 381.406 438.834C383.606 447.654 394.316 466.484 402.846 472.174C403.026 472.294 403.316 472.484 404.666 472.484C407.316 472.484 414.086 471.724 432.146 468.114C454.076 463.724 472.556 455.704 492.146 447.204L500.216 443.724L500.186 440.404Z" fill="#2E3120"/>
<path d="M500.186 419.004C496.556 420.394 492.966 421.834 489.406 423.254C474.536 429.254 459.146 435.404 442.826 436.884C431.676 437.884 424.966 436.584 424.406 433.284C423.216 426.284 444.336 410.494 456.796 407.374C468.716 404.374 481.366 400.994 493.126 396.294C494.896 395.584 497.326 394.704 500.186 393.734V390.604C496.486 391.834 493.586 392.874 492.016 393.504C480.416 398.144 467.886 401.504 456.066 404.504C444.246 407.504 419.776 423.954 421.456 433.824C422.366 439.214 429.706 440.304 435.906 440.304C438.826 440.304 441.486 440.064 443.096 439.914C459.856 438.394 475.446 432.134 490.526 426.084C493.716 424.804 496.936 423.514 500.186 422.254V419.004Z" fill="#2E3120"/>
<path d="M466.356 500.214H466.186C464.602 499.839 462.951 499.856 461.376 500.264L466.356 500.214Z" fill="#2E3120"/>
<path d="M500.186 491.554C496.883 493.506 494.29 496.463 492.786 499.994C492.758 500.065 492.735 500.139 492.716 500.214H495.976C496.984 498.25 498.423 496.541 500.186 495.214V491.554Z" fill="#2E3120"/>
<path d="M375.386 461.084C367.576 455.234 362.736 449.534 358.676 441.404C355.136 434.324 353.256 426.774 351.436 419.474C349.116 410.134 346.706 400.474 340.816 391.634C338.356 387.944 334.496 385.814 329.336 385.294C319.986 384.374 309.616 389.064 307.886 390.794C304.666 394.014 301.666 396.644 299.016 398.964C291.176 405.844 285.516 410.814 282.386 423.334C279.926 433.154 291.906 440.184 304.586 447.624C315.446 454.004 326.676 460.624 328.296 468.704C329.186 472.864 328.186 482.214 327.186 492.994C326.956 495.324 326.716 497.744 326.486 500.214H329.486C329.706 497.844 329.936 495.524 330.156 493.284C331.286 481.794 332.156 472.714 331.266 468.114C329.376 458.684 317.556 451.754 306.126 445.034C294.436 438.184 283.406 431.704 285.316 424.034C288.216 412.424 293.316 407.954 301.016 401.194C303.696 398.844 306.736 396.194 310.016 392.884C311.136 391.764 319.266 388.154 326.896 388.154C327.626 388.154 328.346 388.154 329.056 388.254C333.266 388.674 336.396 390.364 338.336 393.254C343.936 401.654 346.166 410.634 348.536 420.144C350.396 427.604 352.306 435.314 355.996 442.694C360.286 451.274 365.386 457.284 373.586 463.434C382.236 469.914 380.706 486.374 378.326 500.164H381.326C383.816 485.754 385.236 468.474 375.386 461.084Z" fill="#2E3120"/>
<path d="M294.396 330.034C281.466 321.414 261.746 333.034 242.676 344.194C231.936 350.504 221.786 356.454 214.196 357.834C194.076 361.494 175.806 360.474 154.586 357.834C150.186 357.284 145.166 355.364 139.866 353.334C130.516 349.754 120.866 346.064 112.376 348.894C102.856 352.064 100.246 370.894 98.156 386.014C97.156 392.894 96.296 399.404 94.966 402.134C94.406 402.774 91.196 404.474 88.106 406.134C73.476 413.924 43.036 430.134 32.346 458.924C28.716 468.694 25.476 480.834 32.696 488.044C41.696 497.044 60.206 488.244 71.266 482.994C73.066 482.134 74.626 481.394 75.896 480.854C99.456 470.754 132.266 461.074 154.726 472.304C165.986 477.934 177.346 489.044 185.806 500.234H189.596C180.766 488.054 168.506 475.844 156.066 469.624C148.486 465.834 139.846 464.294 130.806 464.294C111.806 464.294 91.066 471.084 74.716 478.094C73.396 478.654 71.816 479.414 69.976 480.284C59.626 485.194 42.306 493.414 34.816 485.924C28.816 479.924 31.816 468.924 35.156 459.974C45.456 432.214 75.186 416.384 89.516 408.764C95.196 405.764 97.026 404.764 97.626 403.524C99.186 400.394 100.086 393.914 101.126 386.414C103.006 372.864 105.576 354.304 113.326 351.724C120.786 349.234 129.936 352.724 138.786 356.124C144.276 358.224 149.446 360.204 154.206 360.804C175.716 363.484 194.206 364.514 214.736 360.804C222.846 359.334 233.216 353.244 244.196 346.804C261.616 336.574 281.366 324.974 292.726 332.544C302.096 338.794 295.146 352.204 290.546 361.074C290.066 361.994 289.616 362.864 289.216 363.664C283.276 375.544 265.766 397.304 252.906 403.014L251.116 403.804C238.736 409.264 218.026 418.404 215.986 432.704C213.266 451.704 230.546 465.254 248.836 479.564C257.296 486.174 265.836 492.884 272.396 500.234H276.396C269.466 491.884 259.956 484.444 250.696 477.234C233.106 463.484 216.496 450.494 218.966 433.174C220.776 420.514 241.306 411.454 252.336 406.594L254.136 405.794C267.786 399.724 285.626 377.604 291.906 365.044L293.216 362.494C297.996 353.214 305.996 337.774 294.396 330.034Z" fill="#2E3120"/>
<path d="M227.976 490.584C223.786 484.714 220.066 478.214 216.466 471.924C214.226 468.014 211.906 463.924 209.466 460.124C205.166 453.244 203.246 445.324 201.396 437.654C199.336 429.194 197.216 420.444 191.896 412.994C184.526 402.664 174.716 397.994 165.236 393.394C159.486 390.624 153.526 387.754 148.026 383.634C146.246 382.294 144.286 379.694 142.216 376.944C137.016 370.024 130.536 361.414 121.426 365.944C116.706 368.304 113.836 371.204 112.656 374.814C110.656 380.814 114.046 387.334 116.996 393.064C119.296 397.514 121.466 401.734 120.256 404.164C118.126 408.424 111.716 410.434 106.056 412.164C103.435 412.899 100.874 413.835 98.3961 414.964C93.3361 417.494 49.0661 440.254 53.5861 459.744C53.7316 460.594 54.0971 461.391 54.6463 462.056C55.1954 462.72 55.909 463.23 56.7161 463.534C62.8361 465.794 75.5861 456.964 89.2261 446.924C91.6341 445.041 94.141 443.288 96.7361 441.674C115.396 432.354 142.636 426.784 158.346 436.604C187.656 454.924 194.606 467.904 205.126 487.544C207.226 491.464 209.466 495.644 212.036 500.154H215.496C212.576 495.094 210.086 490.454 207.766 486.154C197.406 466.804 189.926 452.824 159.936 434.074C153.326 429.954 145.396 428.364 137.216 428.364C121.646 428.364 105.216 434.114 95.3961 439.014C92.6216 440.689 89.9501 442.529 87.3961 444.524C78.8061 450.854 62.8161 462.624 57.7061 460.734C57.3671 460.599 57.0714 460.374 56.851 460.083C56.6307 459.792 56.4941 459.446 56.4561 459.084C53.2061 445.084 83.3161 425.854 99.6861 417.664C102.026 416.616 104.439 415.74 106.906 415.044C113.126 413.094 120.186 410.884 122.906 405.484C124.806 401.694 122.296 396.824 119.636 391.664C116.976 386.504 113.906 380.564 115.486 375.724C116.396 372.924 118.776 370.594 122.736 368.614C129.116 365.414 133.826 370.784 139.796 378.704C141.996 381.634 144.076 384.404 146.196 385.994C151.926 390.294 158.016 393.224 163.906 396.054C173.466 400.654 182.496 404.994 189.426 414.694C194.426 421.694 196.366 429.764 198.426 438.324C200.336 446.224 202.316 454.384 206.876 461.674C209.246 465.464 211.546 469.484 213.766 473.374C217.406 479.724 221.166 486.294 225.446 492.284C227.544 495.068 229.854 497.686 232.356 500.114L232.416 500.174H236.596C235.906 499.444 235.196 498.724 234.506 498.014C232.147 495.703 229.964 493.22 227.976 490.584Z" fill="#2E3120"/>
<path d="M81.4061 496.994C77.2478 497.459 73.1827 498.544 69.3461 500.214H79.7661C80.3961 500.114 81.0261 500.024 81.6461 499.984C87.4884 499.553 93.3571 499.63 99.1861 500.214H116.906C105.317 497.274 93.3352 496.187 81.4061 496.994Z" fill="#2E3120"/>
<path d="M71.076 339.414C67.916 337.714 64.936 336.104 62.276 334.504C56.6857 331.015 51.3399 327.15 46.276 322.934C33.896 313.084 22.186 303.774 0.186035 305.214V308.214C21.186 306.794 31.946 315.364 44.396 325.284C49.568 329.58 55.0237 333.522 60.726 337.084C63.456 338.714 66.466 340.334 69.656 342.084C77.116 346.084 84.836 350.264 89.476 354.904C90.366 355.794 90.186 359.404 90.096 361.144C90.096 361.794 90.036 362.384 90.036 362.854C90.036 375.344 86.726 386.304 70.576 399.234C67.576 401.634 63.926 403.014 60.066 404.464C55.876 406.054 51.536 407.694 47.996 410.784C21.486 433.954 -6.70396 468.014 6.74604 500.214H10.026C-3.92396 469.314 23.896 435.834 50.026 413.014C53.146 410.274 57.026 408.804 61.176 407.244C65.086 405.764 69.176 404.244 72.496 401.544C84.856 391.654 93.086 381.294 93.086 362.824C93.086 362.394 93.086 361.824 93.146 361.264C93.296 358.264 93.476 354.584 91.646 352.754C86.646 347.804 78.736 343.544 71.076 339.414Z" fill="#2E3120"/>
<path d="M0.186035 419.644V423.014C0.852944 423.413 1.47052 423.89 2.02604 424.434C2.76604 425.184 3.02604 426.874 2.60604 429.184C2.10054 431.839 1.28843 434.426 0.186035 436.894V443.784C2.76604 438.974 4.90604 433.734 5.56604 429.664C6.11604 426.274 5.63603 423.804 4.14604 422.314C2.99726 421.193 1.6558 420.288 0.186035 419.644Z" fill="#2E3120"/>
<path d="M33.296 352.294C31.296 348.914 29.236 345.414 25.196 342.994C19.276 339.444 10.486 337.434 0.196045 337.214V340.214C9.25605 340.434 17.876 342.084 23.666 345.554C27.046 347.554 28.826 350.554 30.716 353.814C31.7681 355.697 32.9545 357.501 34.266 359.214C41.786 368.614 44.466 376.214 42.266 381.814C38.046 392.314 17.506 395.394 0.266045 397.684V400.684C18.396 398.274 40.186 395.074 45.076 382.904C47.796 376.134 45.076 367.764 36.686 357.304C35.4377 355.717 34.3048 354.043 33.296 352.294Z" fill="#2E3120"/>
<path d="M259.186 143.754C257.106 142.984 255.186 142.114 253.306 141.274C248.766 139.224 244.476 137.274 238.686 136.774C223.836 135.424 205.686 138.244 186.516 141.224C153.236 146.404 118.816 151.744 93.956 137.544C75.776 127.154 66.856 108.914 58.226 91.2836C49.826 74.1336 41.906 57.9336 26.226 48.5136C18.936 44.1336 9.76604 42.5136 0.226035 42.7736V45.7736C8.47604 45.5636 17.446 46.7736 24.736 51.0936C39.676 60.0936 47.416 75.8736 55.606 92.6136C64.436 110.614 73.606 129.304 92.546 140.154C118.326 154.884 154.836 149.154 187.056 144.154C206.056 141.154 224.056 138.404 238.496 139.724C243.786 140.204 247.856 142.034 252.156 143.964C254.066 144.824 256.046 145.714 258.206 146.524C278.946 154.304 290.516 161.794 296.906 171.584C303.986 182.434 305.226 196.854 300.906 218.354C298.646 229.624 294.186 238.514 289.466 247.924C286.229 254.084 283.354 260.428 280.856 266.924C279.303 271.475 277.991 276.104 276.926 280.794C274.546 290.454 272.086 300.434 265.626 307.794C246.796 329.324 218.706 341.584 184.396 343.264C155.176 344.684 122.396 338.114 94.476 325.264C84.186 320.564 74.386 314.214 64.936 308.034C52.186 299.734 39.076 291.154 24.186 286.214C17.186 283.874 9.06604 283.134 0.186035 283.974V286.974C8.78604 286.134 16.576 286.824 23.266 289.054C37.756 293.884 50.746 302.354 63.266 310.544C72.836 316.764 82.686 323.214 93.186 328.054C119.316 340.006 147.673 346.31 176.406 346.554C179.139 346.554 181.843 346.487 184.516 346.354C219.656 344.644 248.516 332.024 267.856 309.864C274.796 301.944 277.346 291.594 279.806 281.594C280.845 277.009 282.127 272.482 283.646 268.034C286.103 261.634 288.931 255.383 292.116 249.314C296.716 240.134 301.486 230.654 303.816 218.984C308.286 196.654 306.906 181.544 299.366 169.984C292.606 159.614 280.606 151.774 259.186 143.754Z" fill="#2E3120"/>
<path d="M213.896 164.214C200.966 160.984 187.996 163.034 175.446 165.014C171.696 165.604 167.826 166.214 164.046 166.674C160.876 167.054 157.686 167.454 154.486 167.854C128.736 171.084 102.116 174.424 76.886 168.694C56.566 164.104 32.426 146.854 27.186 125.984C25.806 120.464 25.986 113.984 26.186 106.984C26.596 92.2636 27.066 75.5736 9.82604 69.1036C6.73092 68.0055 3.47015 67.4474 0.186035 67.4536V70.4536C3.11729 70.4493 6.02707 70.9535 8.78604 71.9436C24.016 77.6636 23.616 91.8736 23.196 106.944C23.006 113.754 22.816 120.784 24.296 126.714C27.576 139.824 37.066 149.714 44.456 155.714C53.866 163.374 65.456 169.164 76.226 171.614C101.966 177.464 128.856 174.094 154.856 170.834C158.056 170.424 161.246 170.034 164.396 169.654C168.236 169.194 172.136 168.574 175.916 167.974C188.166 166.044 200.836 164.044 213.166 167.124C225.896 170.304 239.036 178.584 248.316 189.274C258.506 200.994 263.136 214.274 261.316 226.724C258.526 246.294 247.486 263.404 228.496 277.564C194.496 302.894 144.496 311.364 112.596 306.644C98.186 304.534 84.736 297.734 71.716 291.214C66.826 288.744 61.716 286.214 56.716 283.924C48.866 280.394 41.866 273.924 34.446 267.104C24.186 257.534 13.546 247.774 0.186035 246.014V249.074C12.526 250.914 22.616 260.214 32.446 269.214C39.706 275.914 47.226 282.844 55.516 286.574C60.516 288.804 65.516 291.344 70.366 293.804C83.596 300.484 97.266 307.394 112.196 309.604C144.706 314.414 195.716 305.784 230.336 279.964C249.706 265.514 261.456 247.244 264.336 227.134C266.226 213.834 261.336 199.684 250.586 187.294C240.916 176.214 227.186 167.574 213.896 164.214Z" fill="#2E3120"/>
<path d="M140.396 198.674C134.046 196.134 127.396 193.674 120.986 191.304C108.186 186.554 94.886 181.644 83.186 175.814C79.466 173.954 74.586 174.144 69.866 174.334C67.2007 174.539 64.5218 174.489 61.866 174.184C54.986 173.034 46.556 168.354 39.976 164.414C28.376 157.414 14.296 140.634 11.796 125.604C11.246 122.334 10.956 118.844 10.636 115.154C9.72604 104.214 8.68604 91.9836 0.186035 85.0336V89.2136C5.97604 95.6036 6.83604 105.634 7.66604 115.424C7.98604 119.174 8.29603 122.714 8.85604 126.104C11.506 141.984 26.276 159.694 38.456 166.994C45.256 171.074 54.006 175.924 61.396 177.154C64.2598 177.496 67.15 177.559 70.026 177.344C74.366 177.174 78.856 176.994 81.886 178.504C93.686 184.404 107.036 189.344 119.946 194.124C126.346 196.494 132.946 198.944 139.286 201.474C151.606 206.404 172.766 223.844 169.286 239.604C166.886 250.424 157.626 257.954 150.286 262.354C141.311 267.596 131.446 271.139 121.186 272.804C94.296 276.944 51.886 254.274 20.926 237.734C14.586 234.344 8.60604 231.154 3.53604 228.614C2.40603 228.044 1.28604 227.494 0.186035 226.954V230.304L2.18604 231.304C7.18604 233.824 13.186 237.014 19.496 240.384C48.236 255.744 86.706 276.304 114.396 276.304C116.816 276.313 119.233 276.136 121.626 275.774C139.386 273.044 167.496 261.334 172.176 240.254C176.106 222.604 153.926 204.084 140.396 198.674Z" fill="#2E3120"/>
<path d="M74.246 190.214L72.246 189.684L66.026 188.024C48.326 183.324 24.086 176.894 12.026 166.584C7.58604 162.704 3.32604 156.014 0.186035 149.094V155.804C3.05604 160.994 6.48604 165.704 10.186 168.804C22.736 179.554 47.356 186.094 65.336 190.864C67.526 191.444 69.606 191.994 71.536 192.524L73.536 193.054C84.116 195.874 93.256 198.314 90.906 211.234C89.906 216.464 86.736 221.044 81.596 224.484C73.846 229.674 62.026 231.924 52.846 229.954C38.316 226.904 24.186 215.324 10.576 204.114C7.07604 201.244 3.57604 198.404 0.186035 195.724V199.544C2.98604 201.774 5.81604 204.094 8.67603 206.434C22.586 217.864 36.976 229.684 52.156 232.934C54.7139 233.473 57.322 233.738 59.936 233.724C68.1666 233.755 76.2343 231.43 83.186 227.024C89.016 223.124 92.676 217.864 93.776 211.814C96.646 196.214 84.746 193.004 74.246 190.214Z" fill="#2E3120"/>
</svg>
