<svg width="300" height="600" viewBox="0 0 300 600" fill="none" xmlns="http://www.w3.org/2000/svg">
<path fill-rule="evenodd" clip-rule="evenodd" d="M3.31504 581.135C3.31504 576.146 4.24605 530.461 3.31504 512.845C1.15901 472.039 1.25846 429.93 2.2311 389.055C4.24079 304.615 7.34799 220.035 2.92028 135.663C1.27731 104.354 3.46925 72.7279 7.54602 41.9104C9.04704 30.5617 21.6759 16.4049 32.927 17.1366C44.0357 17.8594 77.7569 45.6797 88.909 53.1112C109.482 66.8212 128.602 83.478 148.925 97.2017C172.823 113.338 196.145 127.424 216.616 151.343C232.577 169.992 249.231 188.85 245.64 220.508C243.997 234.991 228.746 244.645 220.256 249.335C192.337 264.756 161.275 260.758 132.003 266.05C120.82 268.072 109.386 271.583 98.6503 276.344C98.3406 276.482 89.8488 279.48 90.778 281.192C92.1332 283.688 99.5458 283.231 101.405 283.492C112.739 285.085 123.917 287.15 135.054 290.519C176.464 303.047 206.322 320.833 245.64 342C255.556 347.339 292.503 360.848 292.964 379.064C293.537 401.7 253.979 419.302 241.803 424.728C199.719 443.483 164.66 444.105 120.983 443.014C112.383 442.799 66.7951 439.155 60.3783 443.135C56.8501 445.324 51.1755 448.871 49.9478 454.519C46.8209 468.909 55.9296 527.606 56.7366 547.788C56.7935 549.21 60.0463 574.707 57.8811 581.135C57.8811 585.626 3.31504 586.125 3.31504 581.135Z" fill="#939878"/>
</svg>
