<svg width="300" height="600" viewBox="0 0 300 600" fill="none" xmlns="http://www.w3.org/2000/svg">
<path fill-rule="evenodd" clip-rule="evenodd" d="M151.963 178.165C156.676 200.482 158.243 227.108 156.676 258.332C154.915 293.421 154.442 372.891 154.191 408.037C154.06 426.419 153.166 444.507 151.963 462.822C151.734 466.312 152.301 475.359 150.504 478.029C144.541 486.886 93.5918 506.218 81.2175 510.906C42.8378 525.446 1.88155 559.848 31.3043 571.208C82.8426 591.106 152.31 578.833 206.136 571.208C220.834 569.126 235.746 567.423 250.274 564.158C254.47 563.214 263.33 561.739 265.016 556.172C267.363 548.416 265.358 536.712 265.358 528.738C265.358 514.692 266.609 500.589 267.757 486.607C272.353 430.628 278.727 330.853 278.727 274.557C278.727 246.29 278.728 189.004 275.595 178.165C270.353 160.029 144.675 143.653 151.963 178.165Z" fill="#42535D"/>
</svg>
