<svg width="24" height="24" viewBox="0 0 24 24" fill="none" xmlns="http://www.w3.org/2000/svg"><path d="M8.99989 13C8.99989 12.7348 8.89453 12.4804 8.707 12.2929C8.51946 12.1053 8.26511 12 7.99989 12H5.06089C4.83442 12.0442 4.59964 12.0087 4.39635 11.8995C4.19306 11.7904 4.03377 11.6143 3.94548 11.4011C3.85719 11.1879 3.84535 10.9508 3.91194 10.7298C3.97854 10.5089 4.11949 10.3178 4.31089 10.189L11.1469 3.35397C11.259 3.24188 11.392 3.15297 11.5385 3.09231C11.6849 3.03165 11.8419 3.00043 12.0004 3.00043C12.1589 3.00043 12.3159 3.03165 12.4623 3.09231C12.6087 3.15297 12.7418 3.24188 12.8539 3.35397L19.6889 10.189C19.8803 10.3178 20.0212 10.5089 20.0878 10.7298C20.1544 10.9508 20.1426 11.1879 20.0543 11.4011C19.966 11.6143 19.8067 11.7904 19.6034 11.8995C19.4001 12.0087 19.1654 12.0442 18.9389 12H15.9999C15.7347 12 15.4803 12.1053 15.2928 12.2929C15.1052 12.4804 14.9999 12.7348 14.9999 13V19C14.9999 19.2652 14.8945 19.5195 14.707 19.7071C14.5195 19.8946 14.2651 20 13.9999 20H9.99989C9.73467 20 9.48032 19.8946 9.29278 19.7071C9.10525 19.5195 8.99989 19.2652 8.99989 19V13Z" stroke="currentColor" stroke-linecap="round" stroke-linejoin="round"/></svg>