<svg width="24" height="24" viewBox="0 0 24 24" fill="none" xmlns="http://www.w3.org/2000/svg"><path d="M15.3901 4.39C15.5158 4.51583 15.6728 4.60585 15.8449 4.6508C16.017 4.69574 16.1979 4.69397 16.3691 4.64567C16.5403 4.59738 16.6955 4.5043 16.8187 4.37604C16.9419 4.24778 17.0287 4.08897 17.0701 3.916C17.1739 3.48389 17.391 3.08727 17.6991 2.76697C18.0071 2.44668 18.395 2.21428 18.8227 2.09372C19.2504 1.97316 19.7026 1.96879 20.1326 2.08107C20.5625 2.19334 20.9548 2.4182 21.269 2.73249C21.5832 3.04678 21.8079 3.43913 21.9201 3.86915C22.0322 4.29916 22.0277 4.7513 21.907 5.17899C21.7863 5.60668 21.5537 5.99446 21.2333 6.30241C20.9129 6.61036 20.5162 6.82734 20.0841 6.931C19.9111 6.97239 19.7523 7.05918 19.6241 7.1824C19.4958 7.30562 19.4027 7.46081 19.3544 7.63199C19.3061 7.80317 19.3044 7.98413 19.3493 8.15622C19.3943 8.32831 19.4843 8.48529 19.6101 8.611L21.2931 10.293C21.5173 10.5172 21.6951 10.7833 21.8164 11.0762C21.9378 11.3691 22.0002 11.683 22.0002 12C22.0002 12.317 21.9378 12.6309 21.8164 12.9238C21.6951 13.2167 21.5173 13.4828 21.2931 13.707L19.6101 15.39C19.4844 15.5158 19.3274 15.6059 19.1553 15.6508C18.9832 15.6957 18.8023 15.694 18.6311 15.6457C18.4599 15.5974 18.3047 15.5043 18.1815 15.376C18.0583 15.2478 17.9715 15.089 17.9301 14.916C17.8263 14.4839 17.6092 14.0873 17.3011 13.767C16.9931 13.4467 16.6052 13.2143 16.1775 13.0937C15.7498 12.9732 15.2976 12.9688 14.8677 13.0811C14.4377 13.1933 14.0454 13.4182 13.7312 13.7325C13.417 14.0468 13.1923 14.4391 13.0802 14.8691C12.968 15.2992 12.9725 15.7513 13.0932 16.179C13.214 16.6067 13.4465 16.9945 13.7669 17.3024C14.0873 17.6104 14.484 17.8273 14.9161 17.931C15.0891 17.9724 15.2479 18.0592 15.3761 18.1824C15.5044 18.3056 15.5975 18.4608 15.6458 18.632C15.6941 18.8032 15.6958 18.9841 15.6509 19.1562C15.606 19.3283 15.5159 19.4853 15.3901 19.611L13.7071 21.293C13.4829 21.5172 13.2168 21.695 12.9239 21.8163C12.631 21.9376 12.3171 22.0001 12.0001 22.0001C11.6831 22.0001 11.3692 21.9376 11.0763 21.8163C10.7834 21.695 10.5173 21.5172 10.2931 21.293L8.61011 19.61C8.4844 19.4842 8.32742 19.3941 8.15533 19.3492C7.98324 19.3043 7.80228 19.306 7.6311 19.3543C7.45993 19.4026 7.30473 19.4957 7.18151 19.624C7.05829 19.7522 6.9715 19.911 6.93011 20.084C6.8263 20.5161 6.60919 20.9127 6.30114 21.233C5.99309 21.5533 5.60522 21.7857 5.17749 21.9063C4.74976 22.0268 4.29763 22.0312 3.86765 21.9189C3.43767 21.8067 3.04539 21.5818 2.73121 21.2675C2.41702 20.9532 2.19229 20.5609 2.08016 20.1308C1.96803 19.7008 1.97255 19.2487 2.09325 18.821C2.21395 18.3933 2.44648 18.0055 2.76688 17.6976C3.08728 17.3896 3.48397 17.1727 3.91611 17.069C4.08908 17.0276 4.24789 16.9408 4.37615 16.8176C4.50441 16.6944 4.59749 16.5392 4.64578 16.368C4.69408 16.1968 4.69585 16.0159 4.65091 15.8438C4.60596 15.6717 4.51594 15.5147 4.39011 15.389L2.70711 13.707C2.48293 13.4828 2.30511 13.2167 2.18379 12.9238C2.06246 12.6309 2.00002 12.317 2.00002 12C2.00002 11.683 2.06246 11.3691 2.18379 11.0762C2.30511 10.7833 2.48293 10.5172 2.70711 10.293L4.39011 8.61C4.51581 8.48417 4.6728 8.39414 4.84489 8.3492C5.01697 8.30426 5.19794 8.30602 5.36911 8.35432C5.54029 8.40262 5.69549 8.49569 5.81871 8.62396C5.94193 8.75222 6.02871 8.91102 6.07011 9.084C6.17391 9.5161 6.39102 9.91272 6.69907 10.233C7.00713 10.5533 7.39499 10.7857 7.82272 10.9063C8.25045 11.0268 8.70259 11.0312 9.13257 10.9189C9.56254 10.8067 9.95482 10.5818 10.269 10.2675C10.5832 9.95322 10.8079 9.56086 10.9201 9.13085C11.0322 8.70083 11.0277 8.2487 10.907 7.82101C10.7863 7.39332 10.5537 7.00553 10.2333 6.69758C9.91294 6.38964 9.51624 6.17266 9.08411 6.069C8.91113 6.0276 8.75233 5.94082 8.62407 5.8176C8.4958 5.69438 8.40273 5.53918 8.35443 5.368C8.30613 5.19682 8.30437 5.01586 8.34931 4.84378C8.39425 4.67169 8.48428 4.5147 8.61011 4.389L10.2931 2.707C10.5173 2.48282 10.7834 2.305 11.0763 2.18368C11.3692 2.06235 11.6831 1.99991 12.0001 1.99991C12.3171 1.99991 12.631 2.06235 12.9239 2.18368C13.2168 2.305 13.4829 2.48282 13.7071 2.707L15.3901 4.39Z" stroke="currentColor" stroke-linecap="round" stroke-linejoin="round"/></svg>