<svg width="24" height="24" viewBox="0 0 24 24" fill="none" xmlns="http://www.w3.org/2000/svg"><path d="M20 13C20 18 16.5 20.5 12.34 21.95C12.1222 22.0238 11.8855 22.0203 11.67 21.94C7.5 20.5 4 18 4 13V5.99999C4 5.73478 4.10536 5.48042 4.29289 5.29289C4.48043 5.10535 4.73478 4.99999 5 4.99999C7 4.99999 9.5 3.79999 11.24 2.27999C11.4519 2.09899 11.7214 1.99954 12 1.99954C12.2786 1.99954 12.5481 2.09899 12.76 2.27999C14.51 3.80999 17 4.99999 19 4.99999C19.2652 4.99999 19.5196 5.10535 19.7071 5.29289C19.8946 5.48042 20 5.73478 20 5.99999V13Z" stroke="currentColor" stroke-linecap="round" stroke-linejoin="round"/><path d="M6.376 18.91C6.803 17.762 7.57 16.772 8.576 16.074 9.582 15.375 10.777 15 12.002 15.001 13.226 15.001 14.421 15.376 15.427 16.075 16.432 16.775 17.199 17.765 17.625 18.913M12 15C14.209 15 16 13.209 16 11 16 8.791 14.209 7 12 7 9.791 7 8 8.791 8 11 8 13.209 9.791 15 12 15Z" stroke="currentColor" stroke-linecap="round" stroke-linejoin="round"/></svg>