<svg width="24" height="24" viewBox="0 0 24 24" fill="none" xmlns="http://www.w3.org/2000/svg"><path d="M14.7 6.3C14.5168 6.48693 14.4141 6.73825 14.4141 7C14.4141 7.26175 14.5168 7.51307 14.7 7.7L16.3 9.3C16.4869 9.48323 16.7382 9.58586 17 9.58586C17.2617 9.58586 17.5131 9.48323 17.7 9.3L20.806 6.195C21.126 5.873 21.669 5.975 21.789 6.413C22.0911 7.51187 22.074 8.67407 21.7398 9.76359C21.4055 10.8531 20.7678 11.8249 19.9014 12.5652C19.0349 13.3056 17.9756 13.7838 16.8472 13.9441C15.7189 14.1043 14.5683 13.9399 13.53 13.47L5.61998 21.38C5.22215 21.7777 4.68264 22.0011 4.12012 22.001C3.55761 22.0009 3.01817 21.7773 2.62048 21.3795C2.22279 20.9817 1.99942 20.4422 1.99951 19.8796C1.99961 19.3171 2.22315 18.7777 2.62098 18.38L10.531 10.47C10.0611 9.43171 9.89668 8.28108 10.0569 7.15275C10.2171 6.02441 10.6954 4.96505 11.4357 4.09861C12.1761 3.23218 13.1479 2.59451 14.2374 2.26022C15.3269 1.92594 16.4891 1.90887 17.588 2.211C18.026 2.331 18.128 2.873 17.807 3.195L14.7 6.3Z" stroke="currentColor" stroke-linecap="round" stroke-linejoin="round"/></svg>