<svg width="105" height="24" viewBox="0 0 105 24" fill="none" xmlns="http://www.w3.org/2000/svg">
<g clip-path="url(#clip0_2011_438)">
<path d="M24.9296 8.0249C27.861 8.0249 30.3249 9.9499 30.3249 13.5249C30.3249 13.7624 30.3249 13.9624 30.2996 14.3249H21.4928C21.6065 16.1374 23.0848 17.3374 24.9422 17.3374C26.509 17.3374 27.5577 16.6249 28.139 15.6499L30.0216 16.9749C29.0108 18.5499 27.2671 19.5499 24.917 19.5499C21.518 19.5499 19.0668 17.1624 19.0668 13.7874C19.0794 10.5249 21.5307 8.0249 24.9296 8.0249ZM21.6191 12.5374H27.8484C27.583 10.9374 26.2816 10.0749 24.8411 10.0749C23.4007 10.0749 21.9476 10.8999 21.6191 12.5374Z" fill="currentColor"/>
<path d="M32.8267 8.2374H35.2906V9.7249C35.9224 8.8374 37.287 8.0249 38.8917 8.0249C41.9621 8.0249 44.287 10.6124 44.287 13.7874C44.287 16.9499 41.9621 19.5499 38.8917 19.5499C37.2744 19.5499 35.9098 18.7249 35.2906 17.8374V23.9499H32.8267V8.2374ZM38.4495 10.2374C36.4531 10.2374 35.0885 11.7874 35.0885 13.7874C35.0885 15.7874 36.4531 17.3374 38.4495 17.3374C40.4206 17.3374 41.7852 15.7874 41.7852 13.7874C41.7852 11.7874 40.4206 10.2374 38.4495 10.2374Z" fill="currentColor"/>
<path d="M49.2654 2.69995H46.8015V19.3125H49.2654V2.69995Z" fill="currentColor"/>
<path d="M53.8141 5.82495C52.917 5.82495 52.1588 5.09995 52.1588 4.18745C52.1588 3.29995 52.917 2.57495 53.8141 2.57495C54.7365 2.57495 55.444 3.31245 55.444 4.18745C55.444 5.09995 54.7365 5.82495 53.8141 5.82495ZM52.5885 8.23745H55.0523V19.3125H52.5885V8.23745Z" fill="currentColor"/>
<path d="M63.4675 19.5375C60.1065 19.5375 57.5541 17.05 57.5541 13.775C57.5541 10.5 60.1065 8.01245 63.4675 8.01245C65.7798 8.01245 67.7256 9.23745 68.6859 11.075L66.5379 12.225C65.9946 11.1 64.9079 10.275 63.4675 10.275C61.4711 10.275 60.0686 11.8 60.0686 13.775C60.0686 15.75 61.4837 17.275 63.4675 17.275C64.8953 17.275 65.9946 16.45 66.5379 15.325L68.6859 16.475C67.7256 18.325 65.7671 19.5375 63.4675 19.5375Z" fill="currentColor"/>
<path d="M75.5343 8.0249C77.1516 8.0249 78.491 8.8499 79.1227 9.7249V8.2374H81.5866V19.3124H79.1227V17.8249C78.491 18.7124 77.1516 19.5374 75.5343 19.5374C72.4639 19.5374 70.139 16.9499 70.139 13.7749C70.139 10.6124 72.4639 8.0249 75.5343 8.0249ZM75.9892 10.2374C73.9928 10.2374 72.6534 11.7874 72.6534 13.7874C72.6534 15.7874 73.9928 17.3374 75.9892 17.3374C77.9856 17.3374 79.3249 15.7874 79.3249 13.7874C79.3249 11.7874 77.9729 10.2374 75.9892 10.2374Z" fill="currentColor"/>
<path d="M85.8068 19.3251V10.4126H83.4693V8.2376H85.8068V5.1626H88.2707V8.2376H92.5162V10.4126H88.2707V17.1376H92.5162V19.3251H85.8068Z" fill="currentColor"/>
<path d="M17.917 8.23755V10.425H11.8773V19.325H9.41336V8.23755H17.917Z" fill="currentColor"/>
<path d="M17.917 4.125V6.3H7.22745V19.325H4.76355V4.125H17.917Z" fill="currentColor"/>
<path d="M17.917 0V2.175H2.57761V19.325H0.113708V0H17.917Z" fill="currentColor"/>
<path d="M99.5415 8.0249C102.473 8.0249 104.937 9.9499 104.937 13.5249C104.937 13.7624 104.937 13.9624 104.912 14.3249H96.1047C96.2184 16.1374 97.6968 17.3374 99.5542 17.3374C101.121 17.3374 102.17 16.6249 102.751 15.6499L104.634 16.9749C103.623 18.5499 101.879 19.5499 99.5289 19.5499C96.13 19.5499 93.6787 17.1624 93.6787 13.7874C93.704 10.5249 96.1426 8.0249 99.5415 8.0249ZM96.2311 12.5374H102.46C102.195 10.9374 100.894 10.0749 99.4531 10.0749C98.0253 10.0749 96.5722 10.8999 96.2311 12.5374Z" fill="currentColor"/>
</g>
<defs>
<clipPath id="clip0_2011_438">
<rect width="105" height="24" fill="currentColor"/>
</clipPath>
</defs>
</svg>
