<svg width="24" height="24" viewBox="0 0 24 24" fill="none" xmlns="http://www.w3.org/2000/svg"><g clip-path="url(#clip0_2066_420)" fill="currentColor"><path fill-rule="evenodd" clip-rule="evenodd" d="M15.4173 4.39368L17.5766 2.0929H0.043457V4.39368H15.4173Z"/><path d="M15.254 11.197 23.63 2.352 20.577 2.352 13.546 9.711 15.254 11.197ZM21.736 14.548C21.736 16.806 19.952 18.637 17.751 18.637 15.973 18.637 14.466 17.442 13.953 15.791L13.64 14.78 11.845 16.622 12.009 17.022C12.95 19.322 15.166 20.938 17.751 20.938 21.19 20.938 23.978 18.077 23.978 14.548 23.978 12.21 22.735 10.186 20.926 9.074L20.502 8.813 18.858 10.522 19.608 10.928C20.875 11.614 21.736 12.978 21.736 14.548Z"/><path fill-rule="evenodd" clip-rule="evenodd" d="M8.2104 20.3955L8.21041 6.35815H5.96875V20.3955H8.2104Z"/></g><defs><clipPath id="clip0_2066_420"><path fill="#fff" transform="translate(0 2)" d="M0 0H24V19H0z"/></clipPath></defs></svg>