<svg width="24" height="24" viewBox="0 0 24 24" fill="none" xmlns="http://www.w3.org/2000/svg"><g clip-path="url(#clip0_2062_2608)"><path d="M22.6031 5.03316L21.5719 6.7399L17.4 8.51192L17.1656 8.60518L13.425 12.0839C13.35 12.1585 13.3031 12.2611 13.2937 12.3171C13.2937 12.3358 13.275 12.3264 13.2562 12.3171C13.2469 12.3171 13.2187 12.3264 13.2187 12.3171C13.2187 12.2332 13.2094 12.1492 13.0875 12.0746L11.2125 10.8622L9.84374 9.99482L5.99061 9.00622L2.76561 8.18549L0.721863 5.02383L0.749988 4.98653L8.43749 3H8.44686L11.0625 6.9171L11.1094 6.99171C11.1656 7.07565 11.175 7.12228 11.175 7.15958H11.2219V7.08497L11.2312 7.04767V7.02902L11.25 6.98238L11.2594 6.96373C11.2718 6.93409 11.2875 6.90594 11.3062 6.87979L13.6687 3.46632C13.6687 3.46632 13.6687 3.45699 13.6875 3.46632L22.5937 4.98653L22.6031 5.02383V5.03316Z" fill="#e8b67f"/><path d="M2.83124 8.19486L2.76561 8.17621L0.721863 5.02388L0.749988 4.98657L2.83124 8.19486Z" fill="#d2a679"/><path d="M13.1437 20.8881L4.15312 17.5586C4.10625 17.5306 4.09688 17.484 4.09688 17.428L3.70312 9.80831C3.70312 9.78966 3.73125 9.78033 3.73125 9.76168C3.73125 9.7337 3.66563 9.62179 3.64688 9.61246L0 7.56997L0.028125 7.49536L9.84375 9.98552L13.0875 12.0746C13.2094 12.1492 13.2188 12.2332 13.2188 12.3078C13.2188 12.3264 13.2469 12.3264 13.2562 12.3264L13.2938 12.3171C13.3031 12.2612 13.35 12.1586 13.425 12.084L17.175 8.6052L23.9531 5.73267L24 5.78862L20.3344 8.98759C20.2594 9.0622 20.2312 9.14614 20.2406 9.18344L19.8656 16.6446C19.8656 16.7005 19.8375 16.7099 19.7906 16.7378L13.2281 20.8788C13.2 20.8974 13.1719 20.9068 13.1344 20.8881H13.1437Z" fill="#bf9064"/><path d="M13.2562 12.3264L13.1906 20.8974H13.1437L4.15312 17.5492C4.10625 17.5306 4.09688 17.4746 4.09688 17.4187L3.70312 9.8083V9.79898H3.7125V9.78965L3.72188 9.771L13.2188 12.3171C13.2188 12.3264 13.2469 12.3171 13.2562 12.3171V12.3264Z" fill="#bd8f63"/><path d="M9.13123 15.6746L12.6094 16.8031V20.1793L9.18748 18.9295L9.13123 15.6653V15.6746ZM10.875 17.9409L10.8844 19.5078L12.5719 20.1233V18.5285L10.8844 17.9409H10.875ZM11.3719 18.4446L11.7187 18.9855L12.0469 18.6964L12.1031 18.7617L11.7656 19.0601L12.1031 19.601L12.0562 19.6383L11.7187 19.0974L11.3812 19.3865L11.325 19.3212L11.6719 19.0228L11.325 18.4725L11.3719 18.4446ZM12.375 19.0508V19.2093L12.4687 19.2373V19.4052L12.375 19.3772V19.5171L12.1875 19.2187L12.375 19.0508ZM12.075 18.8642L12.1406 18.8829V19.4984L12.075 19.4798V18.8549V18.8642ZM9.19685 17.3627L9.22498 18.9016L10.8375 19.4891L10.8281 17.9223L9.19685 17.3627ZM11.7187 19.2L11.8969 19.4798L11.5406 19.3492L11.7187 19.2ZM11.9906 18.9389V19.3399L11.8031 19.0788L11.9906 18.9389ZM11.2969 18.5751L11.3625 18.6031V19.2187L11.2969 19.1907V18.5751ZM11.4469 18.743L11.6156 19.0135L11.4469 19.144V18.743ZM9.98435 17.9969L10.05 18.0249V18.0622C10.2562 18.1368 10.4437 18.342 10.5469 18.6497C10.4812 18.5471 10.425 18.5192 10.3312 18.5565C10.2937 18.4819 10.1906 18.4446 10.125 18.4819C10.1103 18.4516 10.0876 18.4258 10.0594 18.4073V18.9948C10.0594 19.0508 10.0219 19.0974 9.9281 19.0788C9.84373 19.0601 9.80623 18.9855 9.8156 18.8922H9.86248C9.86248 18.9668 9.87185 19.0041 9.9281 19.0228C9.97498 19.0228 9.99373 19.0135 9.99373 18.9668V18.3886C9.98061 18.3862 9.96714 18.3867 9.9542 18.3899C9.94127 18.3931 9.92918 18.399 9.91873 18.4073C9.89998 18.3513 9.79685 18.286 9.73123 18.3326C9.6656 18.2487 9.56248 18.2207 9.50623 18.2767C9.58123 18.0622 9.78748 17.9876 9.98435 18.0435V17.9969ZM11.0625 18.5751L11.25 18.8736L11.0625 19.0228V18.8829L10.9781 18.8549V18.687L11.0719 18.7244V18.5751H11.0625ZM11.55 18.6404L11.9062 18.7617L11.7187 18.9202L11.55 18.6404ZM10.8844 16.2902V17.8756L12.5719 18.4725V16.8404L10.8844 16.2808V16.2902ZM11.1937 17.6611L12.2062 18.0062V18.2114L11.1937 17.8663V17.6611ZM10.3219 18.0435C10.3312 18.0435 10.3312 18.1181 10.3125 18.1368H10.275C10.2562 18.1181 10.2469 18.1088 10.2562 18.0808C10.2562 18.0622 10.3219 18.0342 10.3219 18.0435ZM10.4156 17.885C10.425 17.885 10.425 17.9596 10.4062 17.9782H10.3687C10.35 17.9596 10.3406 17.9503 10.35 17.9223C10.35 17.9036 10.4156 17.8756 10.4156 17.885ZM10.1531 17.885C10.1625 17.885 10.1625 17.9596 10.1437 17.9782L10.1062 17.9689C10.0875 17.9596 10.0781 17.9409 10.0875 17.9223C10.0875 17.8943 10.1531 17.8756 10.1531 17.8756V17.885ZM9.8906 17.8383C9.89998 17.8383 9.89998 17.913 9.88123 17.9316H9.83435C9.82498 17.9223 9.8156 17.9036 9.82498 17.885C9.82498 17.857 9.88123 17.8383 9.8906 17.8383ZM11.9812 16.7938L12.225 17.2788L12.0562 17.2135V17.913L11.8875 17.857V17.1762L11.7281 17.1202L11.9812 16.8031V16.7938ZM9.1781 15.7306L9.20623 17.3067L10.8375 17.8663L10.8187 16.2715L9.1781 15.7306ZM11.4281 16.6073L11.6719 17.0922L11.5031 17.0363V17.7357L11.3344 17.6705V16.9896L11.1656 16.9337L11.4281 16.6166V16.6073ZM9.54373 16.0477L9.67498 16.0943L9.7406 16.3181L9.6656 16.3088L9.86248 16.7845L9.76873 16.3927H9.82498L9.75935 16.113L10.4531 16.3461V16.7192C10.4531 16.8591 10.2937 17.0456 10.0781 16.9523V17.3254L10.3875 17.5306L9.63748 17.2694L9.93748 17.2881V16.915C9.71248 16.8497 9.56248 16.5886 9.56248 16.43L9.54373 16.0477Z" fill="#322214"/><path d="M20.3344 8.98759C20.2594 9.0622 20.2312 9.14614 20.2406 9.18344L13.3406 12.429H13.3312C13.3312 12.3638 13.2938 12.3358 13.2656 12.3264L13.2938 12.3171C13.2981 12.2877 13.3076 12.2593 13.3219 12.2332C13.3406 12.1959 13.3688 12.1399 13.4156 12.1026L13.425 12.084L17.175 8.59588L23.9625 5.73267L24 5.78862L20.3344 8.98759Z" fill="#cd9c6b"/><path d="M13.2563 12.3264C13.2188 12.3264 13.1906 12.373 13.1906 12.4197C13.1813 12.3264 13.1344 12.2052 13.0781 12.1679L9.80627 10.0694L9.84377 9.98547L13.0875 12.0746C13.2094 12.1492 13.2188 12.2331 13.2188 12.3078C13.2188 12.3264 13.2469 12.3264 13.2563 12.3264Z" fill="#d4a271"/><path d="M9.84375 9.98544L9.80625 10.0694L0 7.55125L0.028125 7.48596L9.84375 9.98544Z" fill="#deb37e"/><path d="M20.25 9.1834L19.875 16.6445C19.8656 16.7005 19.8469 16.7098 19.7906 16.7378L13.2281 20.8787C13.22 20.8866 13.2104 20.8929 13.2 20.8974L13.2563 12.3171C13.275 12.3171 13.2938 12.3357 13.2938 12.3171V12.3078L20.25 9.17407V9.1834Z" fill="#dbad77"/><path d="M19.7437 13.3989L19.5937 16.4393L17.4094 17.7917L17.5219 14.6207L19.7437 13.3989ZM18.5812 15.6L17.4937 16.2342L17.4469 17.7264L18.525 17.0642L18.5812 15.6ZM18.0656 16.2435V16.2901C18.1875 16.2248 18.3094 16.2715 18.3656 16.486C18.3281 16.4393 18.2625 16.458 18.2156 16.5606C18.1969 16.514 18.1031 16.5513 18.0844 16.6352L18.0469 16.6165L18.0187 17.1948C18.0187 17.2507 18.0187 17.2974 17.9531 17.3347C17.925 17.3533 17.85 17.3627 17.8594 17.2507L17.8969 17.2228C17.8969 17.2974 17.9062 17.316 17.9437 17.288C17.9906 17.2694 17.9812 17.2228 17.9906 17.1855L18.0094 16.6352C17.9812 16.6538 17.9531 16.6818 17.9531 16.7191C17.9344 16.6818 17.8312 16.7098 17.8125 16.8031C17.7844 16.7564 17.7 16.8031 17.6719 16.8963C17.7281 16.6352 17.8781 16.4114 18.0187 16.3181V16.2715L18.0656 16.2435ZM19.65 14.9751L18.6187 15.5813L18.5531 17.0456L19.5844 16.4114L19.65 14.9751ZM19.3219 15.4694L19.3594 15.4974L19.1344 16.001L19.3219 16.2621L19.2844 16.3274L19.0969 16.0663L18.8812 16.5699L18.8437 16.5419L19.0781 16.0383L18.8812 15.7678L18.9187 15.7119L19.1062 15.9637L19.3219 15.4694ZM18.6937 16.0476L18.8156 16.1969L18.6844 16.458V16.3461L18.6375 16.3741V16.2248L18.6937 16.1875V16.057V16.0476ZM18.9 15.8611L18.8719 16.4207L18.8344 16.458L18.8531 15.8984L18.9 15.8704V15.8611ZM19.0875 16.1595L19.2 16.2901L18.9844 16.4207L19.0969 16.1595H19.0875ZM17.9437 16.2062L17.9344 16.2994L17.9062 16.3181V16.2901C17.9062 16.2621 17.9437 16.1969 17.9437 16.1969V16.2062ZM18.9469 15.945L19.0406 16.0663L18.9281 16.2901L18.9469 15.945ZM18.2344 16.0849C18.2344 16.0849 18.2344 16.1502 18.2156 16.1782C18.2156 16.1969 18.2062 16.2062 18.1969 16.2062C18.1875 16.2062 18.1781 16.1969 18.1875 16.1689L18.2344 16.0849ZM18.6469 14.0518L17.55 14.658L17.4937 16.1875L18.5812 15.5533L18.6469 14.0518ZM19.3687 15.5813L19.35 16.1409L19.3125 16.1689L19.3312 15.6093L19.3687 15.5813ZM18.1312 16.0476C18.1312 16.0476 18.1312 16.1036 18.1125 16.1409L18.0937 16.1595C18.0844 16.1595 18.075 16.1595 18.0844 16.1316C18.0844 16.1036 18.1219 16.0383 18.1312 16.0383V16.0476ZM19.275 15.7399L19.2562 16.1036L19.1625 15.9823L19.275 15.7399ZM19.5094 15.572V15.7119L19.5562 15.6839V15.8331L19.5 15.8611V15.9917L19.3781 15.8518L19.5094 15.572ZM18.3094 15.8518C18.3094 15.8518 18.3094 15.9264 18.2906 15.9544L18.2625 15.9823V15.945L18.3094 15.8518ZM19.2187 15.6466L19.1062 15.9077L19.0125 15.7678L19.2187 15.6466ZM18.3937 14.3689L18.3844 14.7606C18.375 14.8912 18.2719 15.1336 18.1125 15.2269L18.0937 15.5906L18.3094 15.544L17.7937 15.8331L18.0094 15.6373L18.0187 15.2735C17.8875 15.3575 17.775 15.2083 17.7844 15.0684V14.714L17.8781 14.6673L17.9156 14.8352L17.8687 14.8725L17.9719 15.1896L17.9344 14.9098L17.9719 14.8632L17.9437 14.63L18.3937 14.3689ZM19.725 13.4549L18.675 14.0331L18.6094 15.5347L19.65 14.9191L19.725 13.4549ZM19.4437 14.7513V14.9285L18.825 15.2829V15.1057L19.4531 14.7513H19.4437ZM19.0125 13.9772L19.1531 14.257L19.05 14.3222L19.0219 14.9564L18.9281 15.0124L18.9375 14.3782L18.8437 14.4342L19.0125 13.9772ZM19.3594 13.7906L19.4906 14.0704L19.3781 14.1264L19.3594 14.7699L19.2562 14.8259L19.2844 14.1823L19.1906 14.2383L19.3594 13.7906Z" fill="#322214"/><path d="M17.2219 8.67051L13.5094 12.1026C13.4156 12.2052 13.3406 12.3544 13.3406 12.4291C13.3406 12.4291 13.3312 12.4384 13.3312 12.4291C13.3312 12.3731 13.2938 12.3358 13.2656 12.3265L13.2938 12.3171C13.2981 12.2877 13.3076 12.2593 13.3219 12.2332C13.3406 12.1866 13.3781 12.1306 13.425 12.084L17.175 8.60522L17.2219 8.67051Z" fill="#d7aa77"/><path d="M17.2219 8.67049L24 5.78862L23.9625 5.73267L17.1656 8.59588L17.2219 8.67049Z" fill="#f8ce93"/></g><defs><clipPath id="clip0_2062_2608"><path fill="#fff" transform="translate(0 3)" d="M0 0H24V18H0z"/></clipPath></defs></svg>