<svg width="24" height="24" viewBox="0 0 24 24" fill="none" xmlns="http://www.w3.org/2000/svg"><g clip-path="url(#clip0_2062_2612)" fill-rule="evenodd" clip-rule="evenodd"><path d="M4.69365 10.037C4.72403 10.0616 4.78175 10.0801 4.72403 10.1293C4.68454 10.1847 4.63593 10.2308 4.60251 10.2985C4.57213 10.3539 4.54783 10.3693 4.50226 10.3293C4.56302 10.2247 4.62985 10.1262 4.69365 10.037ZM20.7645 18.5354L20.7706 18.6001C20.7858 18.5693 20.7858 18.5508 20.7949 18.5354H20.7645ZM17.7387 13.9539C17.7174 13.9478 17.684 13.9293 17.6293 13.9139C17.6445 13.9447 17.6537 13.9693 17.6597 13.9939C17.6992 13.9878 17.7174 13.9878 17.7326 13.9785C17.7326 13.9724 17.7326 13.9631 17.7387 13.9539ZM17.6992 12.357C17.6931 12.357 17.6931 12.357 17.684 12.3478V12.357C17.6931 12.3631 17.6931 12.3631 17.6992 12.357ZM17.684 12.4185V12.3631C17.6597 12.3724 17.6354 12.3724 17.605 12.3816C17.6445 12.397 17.684 12.4031 17.684 12.4216V12.4185Z" fill="#dd3735"/><path d="M23.9119 10.4523C23.8967 10.1354 23.8876 9.81848 23.8572 9.50156C23.7995 9.07079 23.7448 8.63387 23.6476 8.21233C23.5687 7.86773 23.4651 7.5294 23.3377 7.20002C23.1858 6.81233 23.0339 6.41233 22.8395 6.04002C22.5296 5.44002 22.1225 4.90464 21.7458 4.34771C21.4967 3.98771 21.1777 3.69848 20.9377 3.33233C20.7889 3.12165 20.6085 2.93581 20.403 2.78156C20.0826 2.52585 19.7511 2.28459 19.4096 2.05848C19.1562 1.87898 18.8947 1.71161 18.6258 1.55694C18.4132 1.43387 18.1792 1.33848 17.9575 1.23079C17.6992 1.10771 17.4501 0.963097 17.1645 0.907713C17.0916 0.892328 17.0278 0.867713 16.9549 0.843097C16.7726 0.778482 16.5964 0.704636 16.4111 0.649251C16.1316 0.556943 15.8613 0.452328 15.5726 0.381559C15.2915 0.310344 15.0064 0.255891 14.719 0.218482C14.397 0.172328 14.0719 0.153866 13.7499 0.123097C13.5433 0.0984818 13.3367 0.0738664 13.1362 0.0615587C12.8324 0.0461741 12.5195 0.0461741 12.2157 0.0400203C12.0638 0.0307895 11.9028 0.012328 11.7509 0.0215587C11.52 0.0307895 11.2891 0.052328 11.0552 0.0861741C10.8334 0.11079 10.6086 0.15079 10.3929 0.184636C10.1286 0.215405 9.86733 0.233866 9.60303 0.264636C9.35392 0.295405 9.09873 0.347713 8.84961 0.387713C8.76151 0.403097 8.67341 0.436943 8.58531 0.449251C8.39392 0.492328 8.19645 0.510789 8.00202 0.572328C7.33354 0.768662 6.68623 1.03255 6.06986 1.36002C5.76607 1.52925 5.47746 1.73233 5.18885 1.92925C4.63648 2.29123 4.12238 2.70985 3.65467 3.17848C3.52708 3.30464 3.42075 3.46156 3.30227 3.60617C3.10176 3.8431 2.90126 4.06771 2.70986 4.31387C2.55189 4.51387 2.40607 4.72617 2.25417 4.9354C1.98075 5.30771 1.7529 5.70464 1.53721 6.10464C1.44607 6.26464 1.36708 6.42771 1.28809 6.59079C1.16657 6.83387 1.03898 7.06771 0.929611 7.32002C0.84776 7.49378 0.782648 7.67513 0.73518 7.86156C0.625813 8.26156 0.513408 8.66464 0.410117 9.06156C0.323624 9.42005 0.280774 9.78791 0.282522 10.1569C0.273408 10.4831 0.303788 10.7969 0.337206 11.1231C0.34632 11.2031 0.297712 11.3016 0.391889 11.3662C0.36151 11.4554 0.385813 11.5046 0.431383 11.52C0.376699 11.6093 0.455687 11.6646 0.425307 11.7477C0.416193 11.7631 0.449611 11.7969 0.464801 11.8216C0.464801 11.8431 0.455687 11.8769 0.464801 11.9016C0.473915 11.9754 0.504294 12.0462 0.504294 12.1292C0.504294 12.1846 0.552902 12.2523 0.568092 12.3077C0.577206 12.3293 0.568092 12.3692 0.552902 12.3877C0.504294 12.4431 0.513408 12.4923 0.583282 12.5262C0.625813 12.6308 0.607586 12.68 0.60151 12.7292C0.616699 12.8 0.592396 12.8246 0.60151 12.8431C0.662269 12.9723 0.689611 13.12 0.695687 13.2646C0.695687 13.2954 0.713915 13.3262 0.726067 13.3693C0.738218 13.3693 0.726067 13.5231 0.726067 13.5231C0.768598 13.4985 0.802016 13.4923 0.84151 13.4739C0.865813 13.5785 0.890117 13.6769 0.920497 13.7662C0.959991 13.8308 0.959991 13.8646 0.944801 13.8708C0.97518 14.0185 0.993408 14.1539 1.04809 14.2923C1.04809 14.1385 1.0329 13.9846 1.0086 13.84C1.121 13.88 1.21518 13.92 1.28202 13.92L1.30632 13.8462C1.25771 13.8 1.21518 13.7231 1.16961 13.6769C1.1848 13.7416 1.16961 13.7692 1.16961 13.7908L1.05721 13.7416C1.08759 13.7016 1.11797 13.6616 1.16961 13.6123C1.16961 13.5385 1.13012 13.4739 1.01771 13.4831C1.06632 13.4677 1.11189 13.4431 1.16961 13.4246C1.25771 13.3785 1.1605 13.2892 1.1605 13.1754C1.16961 13.0369 1.08759 12.8985 1.06632 12.7539C1.02379 12.5262 1.0329 12.1846 1.0086 11.96C0.959991 11.9169 0.920497 12.0216 0.914421 12.0308C0.938725 12.2277 0.959991 12.4216 0.975181 12.6154C0.929611 12.4523 0.896193 12.2769 0.856699 12.08C0.847585 12.1354 0.84151 12.16 0.84151 12.1939C0.802016 12.2339 0.832396 12.2831 0.856699 12.3385C0.802016 12.3139 0.73518 12.3231 0.73518 12.3231V12.5508C0.656193 12.4708 0.634927 12.4062 0.592396 12.3477L0.552902 12.1539C0.568092 12.1139 0.552902 12.0892 0.552902 12.0646C0.539266 11.9573 0.529134 11.8496 0.522522 11.7416C0.583282 11.7477 0.625813 11.7569 0.665307 11.7569C0.58632 11.6523 0.641003 11.5846 0.674421 11.52C0.689611 11.4892 0.747332 11.48 0.762522 11.4462C0.823282 11.3262 0.929611 11.2308 0.929611 11.0769C0.929611 11.0031 0.953915 10.9231 0.959991 10.8462C0.978218 10.7108 0.993408 10.5693 1.00252 10.4339C1.01771 10.2554 1.00252 10.0769 1.04202 9.90771C1.15034 9.41177 1.29973 8.92595 1.4886 8.4554C1.61012 8.13848 1.72252 7.82464 1.87442 7.5231C2.08708 7.08617 2.33619 6.66156 2.57619 6.23387C2.72809 5.96617 2.8891 5.71387 3.05619 5.4554C3.21721 5.2031 3.37518 4.94464 3.5605 4.71079C3.81361 4.37855 4.09742 4.07152 4.40809 3.79387C4.72708 3.50156 5.03088 3.2031 5.37417 2.93233C5.82171 2.58327 6.29845 2.27441 6.79898 2.00925C7.20534 1.79821 7.6244 1.61323 8.05366 1.4554C8.32708 1.35079 8.62176 1.30156 8.90126 1.2154C9.22024 1.10771 9.53923 1.06156 9.87341 1.05233C10.0921 1.0431 10.2987 1.02156 10.5144 0.993866C10.7089 0.978482 10.9002 0.963097 11.1068 0.938482C11.0825 0.969251 11.0764 0.987713 11.0673 1.0031L10.7939 1.39387C10.724 1.49848 10.642 1.60925 10.5721 1.71694C10.4445 1.88925 10.3078 2.0554 10.1863 2.23694C10.004 2.50464 9.83695 2.77848 9.64252 3.04617C9.45113 3.30771 9.24455 3.55079 9.04404 3.80002C8.77974 4.15079 8.53366 4.50771 8.26936 4.8554C8.02632 5.18771 7.77417 5.50464 7.54024 5.83694C7.33366 6.12925 7.15138 6.43694 6.95088 6.7354L6.06379 8.06771L5.35898 9.08002C5.34379 9.10464 5.31948 9.11079 5.29822 9.12925C5.23138 9.23387 5.23138 9.28925 5.20708 9.33848C5.14632 9.46156 5.07948 9.58464 5.00657 9.69541C4.96708 9.76002 4.9124 9.81848 4.86379 9.88002C4.85467 9.78463 4.99138 9.7354 4.92455 9.6154L4.8091 9.80002L4.71189 9.99387C4.74227 10.0185 4.79999 10.0369 4.74227 10.0862L4.6724 10.2154C4.7072 10.1943 4.73722 10.166 4.7605 10.1323C4.7605 10.2246 4.71189 10.2954 4.66936 10.3662C4.63898 10.4308 4.55999 10.48 4.50531 10.5293C4.51138 10.5385 4.56607 10.56 4.57518 10.5692C4.64809 10.5446 4.6724 10.5077 4.68151 10.5293C4.70581 10.4985 4.72708 10.4739 4.73619 10.4493C4.76657 10.3662 4.81518 10.3016 4.89417 10.2708C4.92759 10.2554 4.95189 10.2308 4.97619 10.2062C5.21619 9.95387 5.46227 9.71387 5.67797 9.4431C6.01214 9.03079 6.31594 8.60002 6.63797 8.18156C6.77467 8.00002 6.93569 7.82156 7.07847 7.65233C7.10278 7.83694 7.08759 8.0154 7.07847 8.18771C7.05417 8.48617 7.03898 8.78771 7.01467 9.0954C7.00556 9.21848 7.01467 9.33848 7.00556 9.45848C7.00556 9.48925 6.98126 9.51694 6.98126 9.55079C6.98126 9.63079 7.00556 9.72002 7.00556 9.80002L6.92657 10.6923C6.91746 10.7539 6.94784 10.8216 6.96607 10.8769C6.92657 11.3169 7.01467 11.7785 6.94176 12.24C6.99645 12.1508 7.01467 12.0954 7.01467 12.0369C7.02075 11.9908 7.01467 11.9416 7.01467 11.8831V11.8031C7.02075 11.6554 7.05417 11.5016 7.03594 11.3569C7.01762 11.2 7.02377 11.0412 7.05417 10.8862C7.06936 10.8246 7.04505 10.7416 7.08455 10.6585V10.7816C7.07847 11.2431 7.09366 11.7046 7.02986 12.1662C7.02075 12.2093 7.05417 12.28 6.96607 12.2739C6.89316 12.4185 6.98126 12.5231 6.90227 12.6062C6.88708 12.6216 6.91746 12.6954 6.92657 12.7416C6.89619 12.84 6.89619 12.84 6.94176 12.8492C6.94784 13.0277 6.96607 13.1877 6.97214 13.36C7.09974 13.0523 7.03594 12.7354 7.09366 12.4185C7.10278 12.5477 7.10885 12.6769 7.10278 12.8154C7.10278 13.0277 7.09366 13.2277 7.08455 13.44C7.08455 13.48 7.07847 13.52 7.06936 13.5631C7.04505 13.6769 7.03898 13.7877 6.99645 13.8954C6.96607 13.9754 6.98126 14.0985 6.98126 14.1939V14.5016C7.01164 14.64 6.97518 14.7139 6.99645 14.7939C6.97214 14.8769 6.96607 14.9016 6.97214 14.9231L6.99645 15.0462C7.15746 15.0308 7.08759 15.1508 7.14835 15.2154C7.10278 15.2831 7.11797 15.3077 7.11797 15.3385C7.11797 15.4123 7.10885 15.4769 7.10278 15.5508C7.10278 15.7354 7.09366 15.92 7.09366 16.1016C7.09366 16.1262 7.10278 16.1477 7.10278 16.1723L7.09366 16.4C7.10885 16.4246 7.09366 16.4492 7.06936 16.4739C7.06328 16.4739 7.03898 15.4431 7.03898 15.4431H6.91746C6.90227 15.9292 6.94176 16.3662 6.8567 16.8216C6.75948 16.8308 6.72607 16.8462 6.62278 16.8462C6.37366 16.8462 6.12759 16.8462 5.87847 16.8554L4.99746 16.8616C4.85467 16.8616 4.70278 16.88 4.55999 16.88C4.3686 16.88 4.16505 16.8554 3.9767 16.8554C3.67898 16.8554 3.39341 16.88 3.09569 16.8862C2.88303 16.8954 2.66429 16.8954 2.4486 16.9046C2.30581 16.9108 2.15999 16.92 2.01721 16.9354C1.95645 16.9446 1.89569 16.9662 1.8167 16.9908C1.7924 16.9908 1.73771 16.9846 1.6891 16.9908C1.61012 17.0093 1.53721 17.0554 1.45822 17.0739C1.3367 17.0985 1.30632 17.1292 1.32151 17.2523V17.3323C1.3124 17.3477 1.49771 17.3077 1.49771 17.3077C1.48252 17.3077 1.47341 17.3569 1.4491 17.3969L1.59493 17.3416C1.71341 17.3969 1.8167 17.3662 1.91391 17.3908C2.22379 17.4708 2.54581 17.5046 2.8648 17.5354C3.07138 17.5508 3.27189 17.56 3.47847 17.5662C3.77619 17.5846 4.07088 17.6 4.36556 17.6C4.61467 17.6 4.85467 17.5754 5.10075 17.5754C5.44404 17.5754 5.79037 17.5908 6.13366 17.6C6.20657 17.6 6.28556 17.5908 6.36455 17.5908H6.94784L8.50936 17.5508C8.80404 17.5416 9.10784 17.5262 9.40252 17.52L10.3139 17.4954C10.6663 17.4862 11.0187 17.4862 11.362 17.48C11.6263 17.48 11.8815 17.4708 12.1458 17.4616C12.4405 17.4523 12.7443 17.4308 13.042 17.4123C13.2 17.4062 13.361 17.3877 13.522 17.3723C13.7134 17.3569 13.9139 17.3323 14.1053 17.3231L14.9772 17.2831C15.3357 17.2585 15.6942 17.2277 16.0618 17.2216C16.399 17.2031 16.7423 17.2123 17.0795 17.2031C17.3742 17.1939 17.6719 17.1785 17.9757 17.1723L18.48 17.1446C18.48 17.1446 18.8142 17.1385 18.9813 17.12C19.2699 17.1046 19.5585 17.0739 19.8471 17.0646C20.0294 17.0554 20.2116 17.0646 20.397 17.0554C20.6916 17.0492 20.9954 17.0308 21.2932 17.0308C21.4025 17.0308 21.524 17.0492 21.6668 17.0554C21.6061 17.1139 21.5635 17.1477 21.5149 17.1877C21.5453 17.1939 21.5787 17.2123 21.6121 17.2277C21.5749 17.2544 21.5302 17.2684 21.4845 17.2677C21.4694 17.3077 21.4542 17.3231 21.4359 17.4062H21.5787C21.524 17.4062 21.4754 17.4769 21.4208 17.5292C21.357 17.5108 21.2992 17.5292 21.2689 17.6154C21.3235 17.6462 21.3175 17.6739 21.3083 17.7077C21.2111 17.7385 21.1413 17.7692 21.1808 17.8739C21.1504 17.8923 21.1078 17.9046 21.0683 17.9323C21.0289 17.9939 20.9559 18.0123 20.9711 18.1016L21.0623 18.1323C21.0197 18.1508 20.9802 18.1754 20.9408 18.1908C20.798 18.28 20.8618 18.32 20.8921 18.36C20.8678 18.3785 20.8435 18.3908 20.8192 18.4031C20.8375 18.4739 20.8587 18.4923 20.8678 18.4923L20.7463 18.5877C20.7251 18.6616 20.6916 18.6923 20.6613 18.7416C20.6309 18.7908 20.6126 18.8554 20.5701 18.9046C20.403 19.0892 20.2845 19.3108 20.0689 19.4585C19.9899 19.5139 19.917 19.5846 19.844 19.6585C19.7013 19.7969 19.5706 19.9508 19.4187 20.08C19.2191 20.249 19.0123 20.4092 18.799 20.56L18.0091 21.1108C17.8633 21.2062 17.7053 21.28 17.5534 21.3692L17.1038 21.6277C17.0066 21.6923 16.9215 21.7816 16.8152 21.8308C16.5509 21.9446 16.2683 22.0431 16.001 22.1477C15.7367 22.2616 15.5453 22.36 15.3448 22.4308C15.1625 22.4954 14.9681 22.5446 14.7767 22.5846C14.7129 22.6031 14.64 22.5846 14.5671 22.5939C14.4334 22.6185 14.2937 22.6523 14.16 22.6677C13.8076 22.7169 13.4582 22.7477 13.1058 22.7969C12.8962 22.8216 12.6987 22.8585 12.4891 22.8862C12.3463 22.8954 12.1944 22.8769 12.0486 22.8769C11.9453 22.8769 11.8359 22.9016 11.7296 22.8862C11.5625 22.8616 11.3954 22.8216 11.2253 22.7877C11.1858 22.7816 11.1311 22.7631 11.0977 22.7816C11.037 22.8123 10.9762 22.7662 10.9154 22.7816C10.8759 22.7908 10.8334 22.7569 10.7939 22.7569C10.7635 22.7477 10.721 22.7662 10.6815 22.7569C10.5934 22.7323 10.5144 22.7016 10.4172 22.7077C10.323 22.7169 10.2258 22.6677 10.1225 22.6462L9.69721 22.5446C9.64194 22.5275 9.58891 22.5038 9.53923 22.4739C9.38006 22.4837 9.22047 22.4638 9.06835 22.4154C8.95594 22.3754 8.85265 22.32 8.73417 22.3354C8.70075 22.3446 8.67341 22.3262 8.64303 22.3262C8.61873 22.2954 8.59746 22.2308 8.57316 22.2308C8.41214 22.2369 8.31797 22.1016 8.17822 22.0585C8.10835 22.0339 8.05366 21.9539 7.98075 21.9292C7.80455 21.8585 7.66176 21.7046 7.46126 21.68C7.39746 21.6708 7.33366 21.6369 7.26075 21.6154C7.28505 21.6462 7.30024 21.6708 7.32455 21.6954C7.09366 21.5816 6.87797 21.4493 6.66227 21.3293C6.63189 21.3231 6.60759 21.2893 6.58328 21.2739L6.36759 21.1262C6.24607 21.1508 6.19746 21.1016 6.16708 21.0862C5.95138 20.9323 5.70227 20.8369 5.49569 20.6646C5.40455 20.5908 5.30429 20.5416 5.2405 20.4554C5.12941 20.3233 4.99298 20.2155 4.83948 20.1385C4.71797 20.0739 4.6086 20 4.49619 19.9262C4.43847 19.8862 4.38379 19.8369 4.38379 19.7477C4.38379 19.6923 4.35948 19.6339 4.28657 19.6677C4.25619 19.6185 4.22581 19.5631 4.18328 19.5446C4.0891 19.5077 4.02531 19.4339 3.9524 19.3692C3.87948 19.3046 3.8248 19.2154 3.7367 19.1816C3.57569 19.1169 3.48151 18.9785 3.38429 18.8646C3.15948 18.5969 2.95898 18.3046 2.7524 18.0216C2.73721 17.9969 2.70379 17.9816 2.67948 17.96C2.70986 18.0462 2.7524 18.12 2.79189 18.2C2.7129 18.1693 2.65822 18.1108 2.60961 18.0554C2.6005 18.0616 3.15948 18.9939 3.15948 18.9939L3.29619 19.2154C3.24776 19.2198 3.19911 19.2096 3.15639 19.1861C3.11368 19.1625 3.07881 19.1267 3.05619 19.0831C2.98632 18.9539 2.90429 18.8739 2.74632 18.8892C2.72809 18.8339 2.7129 18.7662 2.70683 18.7108C2.67341 18.7108 2.6491 18.7108 2.59442 18.7046C2.70683 18.8831 2.801 19.0369 2.90429 19.2154L2.82531 19.1662C2.96809 19.32 3.07138 19.5139 3.2567 19.6123C3.29619 19.7969 3.50278 19.8892 3.55138 20.0646L3.43898 20.04C3.37822 19.96 3.30227 19.88 3.2324 19.7908C3.24759 19.8462 3.27189 19.8954 3.30227 19.9354C3.39948 20.0585 3.48759 20.1816 3.59999 20.2862C3.63948 20.3262 3.69417 20.3416 3.69417 20.4154C3.75797 20.4462 3.78531 20.4554 3.80657 20.4554C3.8248 20.5046 3.8005 20.5785 3.89771 20.56C3.95847 20.6831 4.02227 20.6831 4.11037 20.6431C4.2167 20.7477 4.27138 20.7569 4.34429 20.6923L4.35037 20.8062C4.38075 20.7877 4.37467 20.7631 4.37467 20.7231L4.45366 20.7877C4.53569 20.9016 4.60556 21.0062 4.71797 21.0954C4.86986 21.2277 5.00657 21.3631 5.14936 21.4862C5.42885 21.72 5.74176 21.9169 6.05467 22.0954C6.43746 22.3108 6.80505 22.5477 7.19695 22.76C7.66784 23.0093 8.17214 23.1816 8.69164 23.3016C8.88303 23.3416 9.06835 23.3846 9.25974 23.4308C9.42683 23.48 9.59391 23.5539 9.76404 23.5939C10.0192 23.6523 10.2805 23.6985 10.5387 23.7477L10.7149 23.7723C10.7878 23.7877 10.8729 23.7569 10.8911 23.7816C10.9306 23.8431 10.961 23.8123 11.0126 23.8062C11.0673 23.7877 11.1311 23.7877 11.1949 23.7877C11.4167 23.7969 11.6324 23.8462 11.8572 23.8277C11.9058 23.8277 11.9787 23.7877 12.0182 23.8677C12.0911 23.8369 12.1306 23.8369 12.161 23.8277C12.1701 23.9016 12.161 23.9016 12.1458 23.9108C12.1306 23.9169 12.1063 23.9262 12.0729 23.9508C12.3615 24.0062 12.6349 24.0123 12.8719 23.9508C13.2881 23.9816 13.6496 23.9354 13.9929 23.8123C14.0233 23.8523 14.0476 23.9108 14.0962 23.8277C14.1114 23.8031 14.1539 23.7969 14.1873 23.7877C14.2572 23.7723 14.3453 23.7385 14.4091 23.7631C14.482 23.7877 14.5063 23.7231 14.561 23.7231C14.6582 23.7231 14.7433 23.7139 14.8344 23.6985C14.88 23.6892 14.9286 23.6677 14.9863 23.6493C14.9195 23.6185 14.8557 23.6093 14.8071 23.6093C14.9043 23.56 14.9924 23.5169 15.0805 23.48C15.0653 23.5046 15.0501 23.5354 15.0167 23.5354H15.1291C15.1048 23.5354 15.0714 23.6093 15.0319 23.6585L15.84 23.4554C15.7489 23.2862 15.9342 23.3416 15.998 23.2431C15.919 23.2677 15.84 23.2923 15.758 23.3077C16.0314 23.1723 16.3109 23.0492 16.5813 22.9292C16.5418 22.9754 16.4932 23 16.4233 23.0431C16.4719 23.0492 16.5023 23.0493 16.5266 23.0585C16.6542 23.0985 16.6238 22.9754 16.6633 22.9046C16.8152 22.9046 16.8759 22.88 16.9519 22.8554C17.0309 22.8308 17.1099 22.8062 17.1919 22.7754C17.3195 22.7169 17.438 22.6462 17.5656 22.5816C17.5899 22.5723 17.6294 22.5816 17.6628 22.5816C17.7509 22.52 17.7843 22.4739 17.8056 22.4831C17.918 22.4985 17.997 22.4585 18.0304 22.3539C18.0851 22.3108 18.1245 22.28 18.164 22.2554L18.6835 21.9631C18.7473 21.9631 18.7808 21.9631 18.7959 21.9539C18.9023 21.9046 18.9964 21.8493 19.0937 21.7939C19.0655 21.7824 19.0381 21.769 19.0116 21.7539C19.0937 21.7354 19.1149 21.7292 19.1635 21.7108C19.3549 21.4831 19.6192 21.3293 19.8197 21.1508C19.9078 21.1446 19.9078 21.12 19.9078 21.1046C19.9382 21.0646 19.9716 21.0123 20.0111 20.9816C20.1873 20.8185 20.3787 20.6831 20.5397 20.5108C20.7706 20.2769 20.9954 20.0339 21.202 19.7816C21.3934 19.5539 21.5878 19.3262 21.7489 19.0739C21.9706 18.7262 22.162 18.3692 22.3625 18.0062C22.5053 17.7477 22.6359 17.4862 22.7787 17.2277C22.7939 17.2031 22.8243 17.1692 22.8486 17.1692C23.0643 17.1446 23.283 17.1292 23.4866 17.1077C23.5382 17.0985 23.5929 17.0646 23.6385 17.04C23.6172 17 23.602 16.9508 23.5777 16.9108C23.5473 16.8616 23.4987 16.8216 23.4653 16.7723C23.4349 16.7323 23.4106 16.6831 23.3863 16.6369L23.3134 16.5231C23.2631 16.4333 23.2174 16.3408 23.1767 16.2462C23.1676 16.2216 23.1524 16.1846 23.1615 16.1569C23.3043 15.84 23.362 15.5016 23.4957 15.1846C23.6324 14.8616 23.6719 14.4954 23.7387 14.1477C23.7934 13.8154 23.8238 13.4831 23.8633 13.1508C23.8876 12.9139 23.921 12.6892 23.9271 12.4523C23.9757 12.08 23.9575 11.7293 23.9514 11.3816C23.9453 11.0739 23.9271 10.7569 23.9119 10.4493V10.4523ZM3.85518 20.4308C3.79746 20.3662 3.74885 20.2923 3.69417 20.2277L3.71847 20.2031C3.80657 20.2985 3.89467 20.3969 3.98278 20.5016C3.93417 20.4769 3.87645 20.4616 3.85518 20.4308ZM3.98278 20.5016C4.00708 20.4954 4.03138 20.4954 4.05265 20.4862C4.07695 20.5262 4.09518 20.5754 4.11645 20.6246C4.00708 20.6154 3.94936 20.5662 3.98278 20.5016ZM12.2977 23.8523V23.8277L12.7443 23.7785V23.8031C12.5924 23.8277 12.4466 23.8431 12.2947 23.8493L12.2977 23.8523ZM14.3119 23.64C14.1995 23.6646 14.078 23.68 13.9686 23.6985C13.9261 23.7046 13.8775 23.7446 13.8623 23.6739C13.8471 23.68 13.8319 23.68 13.8167 23.6892C13.8562 23.8123 13.9504 23.7139 14.0294 23.7631C13.8562 23.7877 13.6891 23.8031 13.519 23.8246V23.8123L13.6709 23.7846V23.7631C13.5912 23.7528 13.5111 23.7466 13.4309 23.7446C13.4066 23.7446 13.3762 23.7785 13.3519 23.7877C13.3215 23.7939 13.2881 23.8031 13.2486 23.8031C13.1119 23.8092 12.9752 23.8093 12.8476 23.8185L12.8172 23.8123V23.7877L14.4152 23.5693C14.4213 23.5846 14.4213 23.6 14.4304 23.6154C14.3818 23.6154 14.3514 23.6339 14.3089 23.64H14.3119ZM14.4334 23.56L14.959 23.4954C14.5914 23.6 14.4729 23.6185 14.4304 23.5569L14.4334 23.56ZM7.46733 7.19079C7.72252 6.83079 7.98683 6.47387 8.24202 6.11079C8.321 6.0031 8.3848 5.88925 8.46683 5.78464C8.49113 5.75387 8.52151 5.7354 8.561 5.70464L8.55493 5.68925C8.58531 5.64925 8.61569 5.6154 8.63391 5.58156C8.67341 5.52002 8.69771 5.44617 8.73113 5.37233C8.74024 5.35694 8.76151 5.34156 8.76151 5.34156C8.87392 5.39694 8.87392 5.27694 8.91341 5.23387C8.98632 5.15387 9.05923 5.06464 9.12303 4.98464C9.17164 4.92002 9.21721 4.86156 9.25974 4.78771C9.26581 4.7631 9.24151 4.72617 9.23543 4.69233H9.21113C9.23543 4.67694 9.25974 4.65233 9.28404 4.63387L9.29923 4.62771C9.34784 4.55387 9.39341 4.48002 9.44202 4.4154C9.53923 4.28617 9.64252 4.15694 9.75493 4.04617C9.7367 4.0831 9.72455 4.1231 9.70632 4.15694C9.71543 4.15694 9.71543 4.16617 9.72151 4.16617C9.81873 4.03387 9.92202 3.91387 10.0162 3.78464C10.0101 3.7754 10.001 3.76617 9.99189 3.76617L9.88252 3.88925C9.87341 3.88002 9.8643 3.87387 9.85822 3.87387C9.93721 3.76617 10.0162 3.66156 10.0982 3.54156L10.159 3.66464C10.1924 3.58156 10.2258 3.52617 10.2501 3.46771L10.1681 3.54156L10.1438 3.51694L10.2896 3.29848L10.7453 2.63387C10.8 2.55079 10.8729 2.48617 10.9215 2.40617C11.0734 2.09848 11.3134 1.85233 11.4987 1.56925C11.5352 1.51387 11.5899 1.46464 11.6415 1.4154C11.681 1.36617 11.7114 1.38464 11.7448 1.42464L12.3919 2.25848C12.5529 2.46156 12.7109 2.65848 12.8628 2.86771C13.0451 3.12617 13.2243 3.38771 13.4096 3.64617C13.6162 3.94771 13.8228 4.24617 14.0233 4.55387C14.3271 5.00925 14.6157 5.46156 14.9195 5.91694C15.1413 6.24925 15.3661 6.57233 15.5818 6.90464H15.1747C14.798 6.89848 14.4152 6.86464 14.0385 6.8831C13.5281 6.90771 13.0056 6.9631 12.4952 7.00617C11.8481 7.06156 11.1919 7.06771 10.5448 7.06771C10.3139 7.06771 10.08 7.09848 9.8491 7.11694C9.56961 7.13233 9.29619 7.14771 9.0167 7.15694C8.6886 7.17541 8.36961 7.18156 8.04455 7.18771C7.85923 7.19694 7.66784 7.18771 7.46733 7.18771V7.19079ZM16.6359 10.9169V10.9908C16.6299 10.9908 16.6208 11 16.6056 11C16.5752 10.8862 16.5418 10.7631 16.5023 10.6493C16.4294 10.409 16.3241 10.1802 16.1894 9.96925C16.0283 9.74156 15.8856 9.50771 15.7245 9.27079C15.6851 9.2154 15.6304 9.16617 15.5818 9.11694C15.4116 8.93233 15.2476 8.7354 15.0289 8.60002C14.7111 8.39792 14.3767 8.22394 14.0294 8.08002C13.9335 8.03734 13.8402 7.98905 13.7499 7.9354H13.9413L15.3083 7.91079C15.6061 7.90156 15.8916 7.90156 16.1894 7.88617C16.2592 7.88617 16.2987 7.91079 16.3413 7.9754C16.4111 8.09848 16.484 8.21848 16.563 8.33848C16.5721 8.35694 16.5873 8.37848 16.5873 8.4031C16.5873 8.58156 16.5873 8.76925 16.5964 8.94771C16.6025 9.13233 16.6208 9.31387 16.6268 9.50156C16.6268 9.68617 16.6116 9.88002 16.6208 10.0739C16.6268 10.3508 16.6359 10.6339 16.6359 10.9169ZM8.03543 8.2031C8.40911 8.18771 8.77062 8.1631 9.13822 8.14771C9.42379 8.12925 9.72151 8.1231 10.0101 8.10464C10.1286 8.09848 10.241 8.08925 10.3595 8.10464C10.2319 8.17233 10.1043 8.23694 9.99493 8.31694C9.84911 8.41541 9.7124 8.54464 9.56961 8.64925C9.42379 8.75387 9.29619 8.8831 9.17467 9.02156C9.02278 9.20617 8.85872 9.36925 8.69771 9.54771C8.58531 9.68002 8.45467 9.80002 8.36354 9.93848C8.22683 10.1169 8.10531 10.3077 7.97771 10.5139C8.01721 9.74463 8.06581 8.98156 8.0324 8.2031H8.03543ZM13.2547 16.0031C12.9995 16.0677 12.7382 16.1416 12.4709 16.1723C12.2491 16.2031 12.0152 16.1969 11.7843 16.1969C11.5747 16.1969 11.3772 16.1908 11.1676 16.1723C10.9317 16.161 10.6995 16.109 10.481 16.0185C10.2896 15.9292 10.0861 15.8492 9.89771 15.7508C9.69624 15.6612 9.516 15.529 9.36911 15.3631C9.26581 15.2339 9.11999 15.1262 8.9924 15.0154C9.0167 15.1108 9.07442 15.1908 9.16252 15.2493C9.11999 15.2985 9.06531 15.2739 8.98632 15.1446C8.96202 15.16 8.93771 15.1692 8.92252 15.1754C8.94683 15.12 8.96809 15.0616 8.9924 15.0154C8.96202 14.9477 8.92252 14.8769 8.8891 14.8092C8.82531 14.7046 8.76151 14.5939 8.70683 14.4862C8.6886 14.4616 8.6886 14.4369 8.67341 14.4154C8.63347 14.3682 8.59595 14.3189 8.561 14.2677C8.49721 14.1692 8.43948 14.0646 8.3605 13.9693C8.3605 13.9939 8.36961 14.0154 8.36961 14.0492C8.3605 14.0492 8.35442 14.0585 8.35442 14.0585L8.1843 13.6431C8.17822 13.6431 8.17822 13.6431 8.16911 13.6523L8.31189 14.1877L8.28759 14.1939C8.26632 14.1631 8.24202 14.1323 8.22683 14.0893C8.2086 14.0277 8.15999 14.0277 8.1205 14.0492C8.09619 14.0646 8.081 14.1231 8.09012 14.1477C8.1448 14.2831 8.21164 14.4246 8.2724 14.56C8.29062 14.6093 8.30278 14.6493 8.33012 14.6985C8.33923 14.7139 8.3605 14.7292 8.3605 14.7539C8.39392 14.8185 8.41822 14.8831 8.45771 14.9385L8.68252 15.2339C8.7524 15.3292 8.81619 15.4369 8.87999 15.5323C8.8891 15.5477 8.91037 15.5477 8.91949 15.5569C8.96202 15.68 9.09569 15.7692 9.1929 15.72C9.21721 15.9046 9.41771 15.9693 9.4967 16.1508C9.39948 16.1077 9.32961 16.0769 9.26581 16.0431C9.2567 16.0523 9.2567 16.0585 9.24759 16.0739C9.3448 16.1231 9.43898 16.1723 9.52708 16.2277C9.60911 16.28 9.68809 16.3262 9.761 16.3816C9.85518 16.4739 9.96759 16.5231 10.1043 16.5539C10.1013 16.5427 10.0962 16.5322 10.0891 16.5231C10.3109 16.6277 10.5448 16.7385 10.721 16.8308L8.081 16.8769C8.081 16.7231 8.07189 16.5785 8.07189 16.4246C8.07189 16.36 8.09012 16.3016 8.081 16.24C8.0567 15.8646 8.0567 15.4923 8.00809 15.1262C7.9691 14.7409 7.95591 14.3533 7.9686 13.9662C7.97771 13.7569 7.96252 13.5354 7.95341 13.3262C7.95341 13.0431 7.95341 12.7662 7.96252 12.4831C7.96252 12.4431 7.97771 12.4093 7.9929 12.3693H8.01721C8.02632 12.3877 8.01721 12.4093 8.0324 12.4185C8.0567 12.4431 8.09619 12.4831 8.11442 12.4769C8.15999 12.4431 8.23594 12.4092 8.24809 12.36C8.28759 12.2646 8.30581 12.16 8.30581 12.0616C8.30581 11.9908 8.33619 11.9385 8.36657 11.8923C8.3848 11.8677 8.39392 11.8431 8.40911 11.8123L8.30581 11.7385C8.33619 11.6462 8.33012 11.5446 8.4486 11.4923C8.46683 11.4862 8.46683 11.4462 8.4729 11.4216L8.49721 11.2185C8.5124 11.2431 8.52151 11.2492 8.5367 11.2677C8.54179 11.2588 8.54791 11.2505 8.55493 11.2431C8.55493 11.2123 8.54581 11.1446 8.55493 11.1446C8.64911 11.1293 8.60961 11.0216 8.65822 10.9754C8.6643 10.9662 8.64911 10.9446 8.64911 10.9262C8.64911 10.9108 8.64911 10.8862 8.65822 10.8862C8.76759 10.8616 8.7524 10.7385 8.82531 10.6831C8.84961 10.6677 8.85569 10.6431 8.88607 10.6031C8.9529 10.7139 8.8405 10.7723 8.83442 10.8523C8.96809 10.7723 9.00759 10.5754 8.9286 10.52C8.95898 10.4954 8.9924 10.4646 9.0167 10.4308C9.1048 10.3354 9.19898 10.2462 9.281 10.1477C9.33569 10.0739 9.36911 9.98464 9.42379 9.91387C9.45417 9.87387 9.521 9.84002 9.56961 9.8154C9.71436 9.74492 9.83961 9.6392 9.93417 9.50771L10.001 9.45848C10.0253 9.4431 10.0709 9.4431 10.08 9.41848C10.0891 9.4031 10.0648 9.3631 10.0496 9.33848C10.08 9.32002 10.1104 9.28925 10.1772 9.2554L10.1286 9.36925L10.1681 9.40925C10.241 9.35387 10.3504 9.28617 10.4233 9.24002C10.4117 9.22519 10.3984 9.21177 10.3838 9.20002L10.1924 9.29848C10.2076 9.27387 10.2076 9.25848 10.2167 9.24925C10.3265 9.17389 10.4412 9.10604 10.56 9.04617C10.8395 8.91694 11.119 8.78771 11.3985 8.66464C11.4471 8.64002 11.5109 8.65848 11.5656 8.65848C11.5899 8.65848 11.6051 8.65848 11.6294 8.64925C11.757 8.60925 11.8876 8.56925 12.0152 8.5354C12.0699 8.52002 12.1337 8.51079 12.1914 8.51079C12.4283 8.52002 12.6683 8.52002 12.9083 8.5354C13.0147 8.54464 13.1089 8.56617 13.2061 8.60002C13.4736 8.69672 13.7263 8.83139 13.9564 9.00002C14.1873 9.15387 14.403 9.3231 14.637 9.46156C14.8534 9.59803 15.0387 9.77946 15.1808 9.99387C15.357 10.2462 15.5544 10.4739 15.6364 10.7816L15.758 11.3169C15.7792 11.4154 15.8339 11.5108 15.8126 11.6246C15.7701 11.8277 15.7397 12.0369 15.7063 12.24C15.6911 12.3231 15.6759 12.4031 15.682 12.4862C15.6972 12.7354 15.603 12.9539 15.5058 13.1816C15.4754 13.2554 15.4268 13.3293 15.3873 13.4093C15.3964 13.4185 15.442 13.44 15.4511 13.44L15.524 13.2954C15.5301 13.2954 15.5301 13.2954 15.5392 13.3046L15.4268 13.6523C15.3358 13.9091 15.2314 14.1607 15.1139 14.4062C15.0532 14.5446 14.9377 14.6585 14.8587 14.7877C14.7797 14.9016 14.7159 15.0216 14.637 15.1262C14.564 15.2185 14.4911 15.3077 14.3939 15.3723C14.1813 15.5323 13.9564 15.6954 13.7256 15.8246C13.5797 15.9169 13.4126 15.9631 13.2516 16.0031H13.2547ZM8.9924 15.5723L8.98632 15.5816C8.96809 15.5723 8.94379 15.5662 8.9286 15.5508L8.73721 15.2554C8.72202 15.2308 8.7129 15.2092 8.72202 15.1754C8.81012 15.3139 8.89822 15.4431 8.99543 15.5723H8.9924ZM13.9656 16.6831C14.3271 16.5292 14.6218 16.3108 14.8921 16.0585C14.9347 16.0185 14.9742 15.9785 15.0228 15.9446C15.3443 15.7288 15.6184 15.4481 15.8278 15.12C16.0861 14.7446 16.2532 14.3231 16.4597 13.9262L16.5083 13.8369C16.4932 14.76 16.5995 15.6708 16.718 16.5877L13.9656 16.6831ZM22.0739 16.44C22.0648 16.4554 22.0496 16.4708 22.0435 16.4893C22.0344 16.4739 22.0344 16.4492 22.0253 16.4154C21.9767 16.5446 21.8734 16.48 21.8005 16.48C21.3691 16.4893 20.9286 16.4893 20.4972 16.4893C20.081 16.4893 19.6587 16.4893 19.2425 16.4954C19.1058 16.4954 18.963 16.5262 18.8263 16.5385C18.4982 16.5539 18.1732 16.5631 17.8451 16.5693C17.8208 16.5693 17.7964 16.5292 17.7539 16.4954C17.7428 16.5223 17.7274 16.5473 17.7083 16.5693L17.6689 16.5139L17.6445 16.5754H17.6202C17.6051 16.4646 17.5716 16.36 17.5716 16.2462C17.5716 16 17.5959 15.76 17.602 15.5169C17.6111 15.4031 17.602 15.2985 17.602 15.1908L17.6932 15.2554L17.7387 15.1754L17.7083 15.1508C17.7235 15.1446 17.7387 15.1262 17.7387 15.12C17.7478 15.0954 17.763 15.0708 17.763 15.0554C17.763 14.9969 17.7478 14.9477 17.7387 14.9016C17.7478 14.9016 17.7539 14.9016 17.763 14.8923L17.8116 15.1354H17.8359C17.8056 15.08 17.9089 15.0308 17.8208 14.9662C17.8116 14.9569 17.8268 14.9077 17.8268 14.8831C17.8025 14.8369 17.7873 14.7877 17.7661 14.7231C17.7721 14.7139 17.7964 14.7046 17.8208 14.6985C17.7904 14.68 17.763 14.6677 17.7387 14.6585C17.8208 14.5846 17.8208 14.5446 17.7478 14.4616C17.763 14.4554 17.7782 14.4554 17.7782 14.4462C17.7782 14.3754 17.7782 14.3016 17.763 14.2308C17.7478 14.1477 17.7873 14.0492 17.6689 14C17.6749 14.0246 17.684 14.0431 17.6992 14.0646L17.6506 14.0893C17.5473 13.9939 17.6111 13.8616 17.5899 13.7169C17.6445 13.7323 17.684 13.7477 17.7235 13.7662C17.7083 13.7077 17.6689 13.6431 17.6445 13.5723H17.6142V13.0369C17.6142 13.0431 17.6689 13.0431 17.6992 13.0523C17.6992 13.0431 17.7083 13.0369 17.7083 13.0277L17.6172 12.9231L17.6354 12.9046C17.5716 12.8246 17.6051 12.7108 17.6051 12.6893V12.1231C17.684 12.2031 17.5625 12.3077 17.684 12.3569V12.2769H17.6749C17.6689 12.1539 17.6689 12.0339 17.6597 11.9139H17.6445L17.6263 11.9539H17.6111L17.6597 10.0154C17.7387 10.12 17.8268 10.2185 17.8845 10.3231C18.0668 10.6616 18.3099 10.9569 18.5316 11.2646C18.723 11.5323 18.8962 11.8246 19.0754 12.0985L19.7134 13.0954C20.0161 13.5722 20.3395 14.0352 20.6825 14.4831C20.8162 14.6677 20.962 14.8554 21.0957 15.0431L21.5757 15.7169L21.8309 16.0554C21.8795 16.12 21.9524 16.1693 22.001 16.2092L21.9706 16.2031C21.9919 16.2339 22.0071 16.2585 22.0253 16.2739C22.1134 16.3231 22.1195 16.3723 22.0739 16.4462V16.44ZM22.481 14.4154V14.36C22.481 14.3754 22.4901 14.4 22.481 14.4154ZM22.7544 10.84C22.7453 10.84 22.6967 10.7908 22.6876 10.7846C22.6815 10.8092 22.6876 10.8339 22.6724 10.8646C22.6663 10.84 22.6116 10.8492 22.6116 10.8246C22.6025 10.9385 22.6572 11.0523 22.6481 11.1631C22.6724 11.1508 22.7696 11.1416 22.7939 11.1169C22.8024 11.1249 22.8129 11.1302 22.8243 11.1323C22.6663 11.2554 22.7028 11.3785 22.7757 11.5139C22.7939 11.5446 22.8395 11.6123 22.7939 11.6769C22.7757 11.6923 22.8 11.7385 22.8091 11.7816H22.8334V11.7969L22.7605 11.8216C22.7453 11.7969 22.6481 11.7508 22.6481 11.7077V12.1231C22.7301 12.1477 22.7301 12.2616 22.7605 12.3169C22.7737 12.297 22.784 12.2753 22.7909 12.2523L22.8 12.2585C22.7939 12.3077 22.7848 12.3569 22.7696 12.4062C22.7544 12.48 22.7392 12.5446 22.7301 12.6154C22.7301 12.6246 22.7453 12.64 22.7453 12.6462C22.6572 12.8523 22.7058 13.0769 22.6724 13.2892C22.6481 13.4431 22.6724 13.6062 22.6572 13.7662C22.642 13.9046 22.6086 14.0523 22.5782 14.1877C22.5691 14.2123 22.5539 14.2185 22.5144 14.2369C22.5296 14.1416 22.5205 14.0739 22.5053 13.9846C22.4962 13.9846 22.3929 13.9292 22.3838 13.9292C22.3838 14.0431 22.4476 14.1969 22.4749 14.3292C22.4476 14.3169 22.3534 14.2616 22.3443 14.2616C22.3291 14.36 22.3291 14.4893 22.32 14.5939C22.3139 14.6739 22.241 14.7477 22.2319 14.84C22.2319 14.8862 22.2896 14.9169 22.2805 15H22.3443C22.3443 14.8369 22.4172 14.6923 22.4172 14.52H22.4415C22.4476 14.5385 22.4719 14.5539 22.4658 14.5631C22.4476 14.6523 22.4172 14.7477 22.4233 14.84C22.4233 14.8862 22.4628 14.9323 22.4476 14.9939C22.4324 15.04 22.4233 15.0892 22.4172 15.1631C22.4081 15.12 22.399 15.1046 22.399 15.08L22.3109 15.0739C22.3048 15.12 22.3686 15.1692 22.3595 15.2092C22.3534 15.2185 22.3443 15.2185 22.3291 15.2277L22.0648 14.8369C21.8552 14.5293 21.6486 14.2216 21.442 13.9046C21.3876 13.8273 21.3389 13.7461 21.2962 13.6616C21.0489 13.2304 20.7739 12.8162 20.4729 12.4216C20.242 12.12 20.0567 11.7969 19.841 11.48L19.2425 10.5877C19.1696 10.4923 19.0815 10.4031 19.0177 10.2985C18.8111 9.96617 18.6258 9.62156 18.4192 9.29233C18.243 9.0154 18.0516 8.74771 17.8663 8.48002L17.6749 8.19694C17.6653 8.1801 17.66 8.16103 17.6597 8.14156C17.6445 7.9631 17.6294 7.78464 17.6202 7.61233C17.6202 7.45233 17.6354 7.28925 17.6354 7.12002V6.97233C17.6354 6.93233 17.6445 6.90156 17.6445 6.85848L17.6658 6.82771C17.4349 6.82771 17.1949 6.81848 16.964 6.82771C16.8121 6.83387 16.7301 6.76925 16.6299 6.6554C16.3261 6.30771 16.1013 5.91079 15.837 5.53848C15.588 5.18363 15.3348 4.83181 15.0775 4.4831L14.4516 3.64002C14.2208 3.31694 13.9959 2.99387 13.7559 2.66771C13.4704 2.27694 13.1727 1.88925 12.8749 1.49848C12.7413 1.32002 12.5894 1.15079 12.4375 0.963097C12.5408 0.981559 12.638 0.996943 12.7321 1.00617L13.118 1.03079C13.4066 1.05233 13.6952 1.07079 13.9808 1.11079C14.2208 1.14156 14.4608 1.19079 14.7099 1.23387C15.2354 1.32002 15.7549 1.46771 16.2592 1.63694C16.5539 1.7354 16.8425 1.86464 17.1311 1.98464C17.7721 2.25873 18.3969 2.57002 19.0025 2.91694C19.1939 3.02464 19.3063 3.19387 19.4491 3.34771C19.6557 3.56617 19.8653 3.78464 20.0658 4.01233C20.2967 4.28002 20.5124 4.55694 20.7342 4.83079C20.9347 5.07694 21.1443 5.31694 21.3418 5.5631C21.4086 5.63387 21.4572 5.7231 21.5119 5.80617C21.6395 6.00002 21.7853 6.18771 21.8947 6.39694C21.9737 6.55079 22.0223 6.72925 22.077 6.89848L22.32 7.64617C22.3747 7.83079 22.4233 8.02771 22.4628 8.22156C22.4932 8.35079 22.4871 8.48925 22.5235 8.61848C22.5752 8.78771 22.5235 8.9754 22.5752 9.14464L22.5964 9.2031C22.6299 9.23387 22.6542 9.26464 22.6056 9.31694C22.5995 9.3231 22.5995 9.35694 22.6056 9.37848C22.6238 9.3631 22.6299 9.34771 22.6451 9.3231C22.6451 9.34156 22.6542 9.34771 22.6542 9.35387C22.6542 9.38771 22.6451 9.42156 22.6542 9.45233C22.6542 9.46771 22.6694 9.49233 22.6785 9.51079C22.6937 9.49233 22.7089 9.48617 22.7392 9.46156C22.8121 9.73848 22.8213 10.0123 22.8213 10.2954C22.8213 10.5631 22.8699 10.8308 22.7605 11.0893C22.7818 11 22.724 10.92 22.7483 10.84H22.7544Z" fill="#dd3a0a"/><path d="M17.6446 13.9939C17.6537 13.9939 17.6598 14.0032 17.6598 14.0032L17.6506 13.9939C17.6506 13.9847 17.6506 13.9847 17.6446 13.9939ZM18.9084 22.0062C18.8172 22.0678 18.7322 22.1293 18.6198 22.1508C18.6106 22.1447 18.6106 22.1355 18.6015 22.1262L18.8749 21.957C18.8841 21.9724 18.8993 21.9878 18.9053 22.0062H18.9084ZM3.91596 11.0155C4.0071 10.9016 4.09216 10.7878 4.18938 10.677C4.19545 10.6832 4.25925 10.7016 4.26836 10.7078L3.97368 11.0955C3.95545 11.0801 3.93115 11.0247 3.91596 11.0155ZM1.64659 14.9908L1.4552 14.5724C1.47764 14.5574 1.50223 14.546 1.52811 14.5385C1.61621 14.6678 1.65571 14.8216 1.7195 14.9601C1.7195 14.9601 1.65571 14.9908 1.64659 14.9908ZM3.68507 11.1016C3.63647 11.1724 3.5909 11.2555 3.54229 11.3293C3.53317 11.3201 3.44507 11.3601 3.439 11.3508C3.48457 11.2801 3.60609 11.1478 3.65166 11.0739L3.68507 11.1016ZM18.0547 22.3385C18.0608 22.3385 18.0608 22.3293 18.0668 22.3293C18.1246 22.3385 18.1884 22.3478 18.2491 22.3478C18.1458 22.4185 18.082 22.4093 18.0517 22.3385H18.0547ZM3.69723 11.4401C3.70634 11.4155 3.72153 11.3908 3.73672 11.3662L3.77621 11.3601C3.80963 11.3016 3.80963 11.2616 3.84305 11.2124C3.83393 11.2062 3.82482 11.2062 3.81874 11.197C3.77014 11.2278 3.72153 11.2708 3.67292 11.3047C3.69115 11.3201 3.69115 11.3293 3.69115 11.3447C3.62735 11.3355 3.60001 11.3693 3.56963 11.4585C3.56355 11.4832 3.52102 11.4893 3.48153 11.5201C3.47545 11.5385 3.46634 11.5816 3.45115 11.6185L3.45723 11.6278C3.44204 11.6432 3.41773 11.6524 3.41773 11.6524C3.36912 11.7016 3.31444 11.7447 3.26583 11.7908C3.25976 11.8155 3.25064 11.8401 3.25064 11.8616C3.30533 11.8062 3.40254 11.7016 3.47545 11.637L3.48153 11.6432L3.57267 11.4985L3.58786 11.5232L3.51495 11.7262C3.49672 11.7324 3.47242 11.7508 3.47242 11.7416C3.44204 11.7662 3.41773 11.797 3.38431 11.8216L3.24153 11.9201C3.16254 11.9939 3.08355 12.0585 2.99545 12.1293L2.81925 12.4062C2.91343 12.3816 2.94077 12.4216 2.93166 12.5047C3.04102 12.5201 3.05317 12.4308 3.08355 12.3662C3.08963 12.3508 3.09874 12.317 3.11393 12.3078L3.34482 12.1232C3.36305 12.1078 3.36305 12.0739 3.36305 12.0493C3.36305 12.0401 3.32052 12.0401 3.29621 12.0339C3.36912 11.9508 3.47242 11.8155 3.54533 11.7262C3.58482 11.7016 3.62431 11.6678 3.62431 11.6432C3.61824 11.5539 3.67292 11.5293 3.73672 11.4985C3.70634 11.4739 3.69723 11.4493 3.69723 11.4432V11.4401Z" fill="#dd3735"/><path d="M3.86125 11.3539L3.76404 11.5139L3.71847 11.4893C3.68809 11.6739 3.57265 11.837 3.46328 11.8708C3.49366 11.8862 3.52404 11.9016 3.55138 11.8954C3.57265 11.8862 3.59087 11.8462 3.60606 11.8216L3.81872 11.5047L3.89467 11.3816L3.86429 11.3508L3.86125 11.3539ZM1.19999 14.9078C1.23948 14.9078 1.27898 14.917 1.32758 14.917C1.32758 14.8862 1.36708 14.8924 1.36708 14.8585H1.39138C1.39138 14.8985 1.40049 14.9324 1.40049 14.9724H1.23037C1.22429 14.9662 1.19087 14.917 1.19999 14.9078ZM1.13619 14.5354C1.11189 14.5108 1.07239 14.4862 1.07239 14.4616C1.06328 14.4308 1.08758 14.3908 1.11189 14.3478L1.15138 14.5108C1.14227 14.5201 1.13619 14.5262 1.13619 14.5354ZM1.3367 14.0154C1.36708 14.0985 1.39746 14.1878 1.43087 14.2678C1.40933 14.2752 1.38889 14.2855 1.37012 14.2985L1.26379 14.0493C1.2729 14.0401 1.31847 14.0185 1.3367 14.0185V14.0154ZM19.1332 21.7693C19.1726 21.7508 19.2182 21.7416 19.2851 21.7262C19.2121 21.7847 19.1544 21.8247 19.1088 21.8739C19.0997 21.8647 19.0906 21.8585 19.0845 21.8585L19.1332 21.7662V21.7693ZM9.3053 4.63391L9.44201 4.54468L9.4572 4.56314C9.4086 4.62468 9.36606 4.69237 9.31138 4.77237C9.3053 4.71699 9.3053 4.68314 9.29619 4.64314C9.28708 4.64314 9.29619 4.64314 9.3053 4.63391ZM11.6476 8.73852L11.8785 8.63083C11.8724 8.68006 11.8724 8.71391 11.8724 8.74468C11.846 8.73547 11.8183 8.73028 11.7904 8.72929C11.7418 8.73852 11.6537 8.80314 11.6142 8.80929C11.6081 8.80929 11.6445 8.74775 11.6445 8.73852H11.6476ZM17.6445 15.6124C17.6597 15.6954 17.8116 15.7354 17.6597 15.8154C17.684 15.8339 17.7083 15.8401 17.7326 15.8585C17.7306 15.87 17.7253 15.8807 17.7175 15.8893C17.6992 15.8985 17.6688 15.9139 17.6537 15.9047C17.6445 15.9047 17.6294 15.8739 17.6294 15.8554C17.6294 15.7847 17.6354 15.7108 17.6445 15.6124Z" fill="#dd3735"/></g><defs><clipPath id="clip0_2062_2612"><path fill="#fff" d="M0 0H24V24H0z"/></clipPath></defs></svg>