<svg width="24" height="24" viewBox="0 0 24 24" fill="none" xmlns="http://www.w3.org/2000/svg"><g clip-path="url(#clip0_2062_2611)"><path d="M2.86082 17.7233C2.2788 17.9845 1.70265 18.2592 1.13282 18.5471L0.787223 18.9493C0.652823 19.3122 0.681623 19.8909 0.624023 20.2734L0.787223 20.6265L0.988823 20.548C0.988823 20.548 1.07522 20.2243 1.60322 19.6751L2.09282 19.2533C2.09282 19.2533 3.83042 18.1941 4.08002 18.0764L2.86082 17.7233Z" fill="#ff5a5a"/><path d="M4.07042 18.037C3.33122 18.6647 2.35202 18.9982 1.67042 19.6848L1.49762 19.9398C2.68802 19.1944 3.90722 20.4106 4.99202 20.7343C5.25122 20.8127 5.01122 20.6656 4.99202 20.4891C4.97282 20.4106 5.02082 20.2831 5.13602 20.1065V19.8319L4.38722 19.6358L4.52162 18.9492L4.89602 18.6647C4.97282 18.5372 5.33762 18.3411 5.42402 18.2136L4.62722 18.0272L4.07042 18.037Z" fill="#9d3737"/><path d="M8.65919 16.9386C9.33119 17.9684 11.8272 17.3603 11.8272 16.0754C11.8272 16.0754 11.1168 15.9185 10.8096 15.6145L10.128 14.771C9.75359 15.5262 8.65919 16.3795 8.55359 16.7522L8.65919 16.9386ZM16.6368 16.4776C16.5888 17.5172 18.2016 18.0076 18.9792 17.5172C19.0176 16.5462 18.9024 15.5066 18.3072 14.7219C18.1248 14.9377 18.1056 15.4085 17.616 15.8597C17.3268 16.1216 16.9955 16.3307 16.6368 16.4776Z" fill="#f28773"/><path d="M13.4112 16.0068C13.5648 16.5463 14.3712 16.6836 14.9472 16.7817C14.4576 16.9484 13.9104 16.8699 13.4592 16.6247C13.2096 16.5169 12.9984 16.0951 13.4112 16.0068Z" fill="#564341"/><path d="M10.2144 14.1139C10.2144 14.1139 12.7104 15.8793 13.9488 12.5249C14.256 11.6618 14.1216 10.3868 14.1312 9.80811C15.216 10.3476 14.4 13.4175 14.3232 13.7804C14.0448 15.0751 12.8064 16.0951 11.76 15.8107C10.1952 15.3889 10.2144 14.1139 10.2144 14.1139ZM14.5056 14.7122L14.7264 14.8004C15.408 15.3203 16.3776 15.1339 17.04 14.6827C18.0096 13.8785 18.096 12.7996 18.4704 11.7011L18.5376 11.7697C18.6816 12.9173 18.4128 14.0844 18.0192 15.1535C17.136 16.9484 14.8128 16.8013 14.5056 14.7122Z" fill="#fff"/><path d="M15.0048 12.1522C14.8416 12.5543 14.784 13.0545 14.8992 13.4861C15.1776 14.1432 15.9456 14.1923 16.3872 13.6724C17.664 12.2797 16.1376 9.91594 15.0048 12.1424V12.1522ZM12.7968 12.1326C13.0368 9.26861 10.1088 10.8281 10.848 12.8976C11.4816 13.9373 12.576 12.9957 12.7968 12.1326Z" fill="#fff"/><path d="M19.104 14.5454C19.3824 15.0554 19.5456 15.3693 20.4096 15.3693C20.6976 15.3693 20.7552 15.8205 21.3216 16.2913C21.6 16.5266 22.1472 16.5168 22.464 16.3207C22.656 16.2128 22.7232 16.252 22.7808 16.2913C22.9152 16.3697 22.944 16.3403 23.1168 16.3305C23.1168 16.3305 23.328 16.0264 23.2512 15.8205C22.992 15.6537 22.7808 15.5164 22.464 15.5262L22.2816 15.7028L22.1376 15.9185L21.9744 16.0264L21.7248 16.0068C21.4844 15.7961 21.2744 15.5517 21.1008 15.281C20.7264 14.8887 20.3424 14.977 19.8624 15.0358C19.632 14.8985 19.344 14.6729 19.104 14.5454Z" fill="#ed8870"/><path d="M4.37761 15.8204C4.52161 15.0456 8.45761 14.5552 8.85121 13.2507C9.02401 11.9266 9.49441 11.7795 10.6176 11.6618V10.9948L10.4448 10.8379C10.0169 10.965 9.58059 11.06 9.13921 11.1223C8.87041 11.1321 8.46721 11.1321 8.21761 11.2008L8.12161 11.5833C8.24641 11.8481 8.38081 12.8191 8.38081 12.8191C8.36224 13.0005 8.33339 13.1806 8.29441 13.3586C7.09441 14.3002 5.44321 14.3688 4.12801 15.1044L4.05121 15.33L4.37761 15.8204Z" fill="#f28773"/><path d="M4.94397 15.3693L5.79837 16.0362L6.95037 15.7518L7.11357 14.2119L5.06877 14.8102L4.94397 15.3693Z" fill="#564341"/><path d="M5.80802 15.9381L5.58722 17.0954L6.78722 16.6247L6.96002 15.634L5.80802 15.9381Z" fill="#7d7c7d"/><path d="M5.80802 15.9381L4.94402 15.3693L4.78082 16.2716L5.58722 17.0955L5.80802 15.9381Z" fill="#989697"/><path d="M6.35522 5.88489L6.19202 6.67934L7.84322 7.03244L8.03522 6.00258L6.35522 5.88489Z" fill="#564341"/><path d="M4.38721 5.70825L9.64801 6.00249L10.8192 5.54151L11.328 1.91252L10.1376 0.892473L9.04321 0.764968L8.75521 1.01998L8.33281 1.13768L7.90081 1.12787H7.51681L7.17121 1.07883L6.88321 1.01017L6.65281 0.941513L6.46081 0.814008L6.25921 0.686503L6.15361 0.480533L4.49281 0.353027L4.83841 1.45153L4.38721 5.70825Z" fill="#b6b6b6"/><path d="M7.72801 2.65798L6.83521 3.43282L7.67041 4.09977L7.12321 5.00212L8.736 4.58037L8.09281 3.6486L7.9776 3.42301L8.5248 2.61875L8.2368 2.54028L7.72801 2.65798Z" fill="#ffed7e"/><path d="M4.43521 0.382446L3.42721 1.00036L3.24481 2.16752L4.77121 1.40249L4.43521 0.382446Z" fill="#b6b6b6"/><path d="M4.85758 1.4908L4.33918 5.69848L3.37918 5.05114L2.99518 4.28611L3.22558 2.24602L4.85758 1.4908ZM6.14398 0.451141L6.46078 0.804232L7.35358 1.08867L8.20798 1.10828C8.48638 1.02001 8.73598 1.0102 8.92798 0.784616L8.96638 0.617878C8.54398 0.215746 7.87198 0.205938 7.33438 0.176514L6.47038 0.235362L6.14398 0.451141Z" fill="#979797"/><path d="M7.6608 0.0195886C8.352 0.0784372 8.9472 0.313832 9.0624 0.608075L10.128 0.745388L10.1664 0.755196C10.2816 0.804237 10.5504 1.0004 10.8864 1.26522C11.0207 1.37246 11.152 1.48367 11.28 1.59869L11.4048 1.71639C11.4296 1.74376 11.4463 1.77778 11.4528 1.81447C11.4816 1.83409 11.4912 1.87332 11.4912 1.92236V1.93217L11.4816 1.96159L11.472 2.0891C11.3867 2.88118 11.2938 3.6724 11.1936 4.46266L11.0304 5.56117C11.0016 5.67886 10.8096 5.77694 10.3776 5.94368L10.3488 5.95349L10.3296 5.9633C10.0224 6.07119 9.7536 6.15946 9.6576 6.15946L8.1408 6.07119L8.0256 6.90488C9.06704 7.26815 9.99714 7.90391 10.7232 8.7488L10.7136 8.73899L10.7328 8.75861C10.9515 8.98177 11.1418 9.23221 11.2992 9.50402C11.5584 9.31767 11.8176 9.19997 12.0864 9.15093C13.3056 8.92534 14.3328 9.3569 14.7552 10.2298L14.8416 9.53345V9.48441L14.8512 9.45498V9.39613C14.8704 9.2294 14.8704 9.08227 14.8512 8.91554L14.8032 8.84688H14.7072L14.6976 8.83707L14.5344 8.82726H14.5152C13.6416 8.78803 13.1904 8.76842 12.7968 8.70957H12.7584L12.7296 8.69976L12.6624 8.68995C12.0768 8.60168 11.7408 8.45456 11.6352 8.17993C11.5392 7.94453 11.6256 7.66991 11.8368 7.36586C11.9712 7.16969 12.1344 6.98334 12.3456 6.76756C12.6816 6.42428 13.3056 5.93387 13.9488 5.51213C14.7744 4.97268 15.5808 4.59016 16.2816 4.42343C17.1936 4.21746 17.9328 4.17822 18.0768 4.47247C18.1632 4.6392 18.0672 4.81575 17.8368 5.07076C17.6832 5.24731 17.4624 5.46308 17.184 5.70829C16.9858 5.88564 16.7842 6.05895 16.5792 6.22812L16.4352 6.34581H16.4256L16.416 6.35562V6.36543L16.3872 6.38505L16.272 6.47332V6.48313L16.3008 6.47332C16.5746 6.43772 16.8504 6.42133 17.1264 6.42428L17.1648 6.43409C17.5488 6.44389 17.8656 6.50274 18.1152 6.64006C18.2662 6.71356 18.3965 6.82499 18.4939 6.96393C18.5912 7.10288 18.6525 7.26478 18.672 7.43451C18.768 8.11127 17.9712 9.05285 16.8768 9.74923C17.2608 9.75903 17.6448 9.85711 17.904 10.0729C18.2388 10.3376 18.4921 10.6951 18.6336 11.1027C18.7435 11.4242 18.7987 11.7626 18.7968 12.1032C19.9008 11.5049 21.3792 11.5245 22.512 12.1326C23.7984 12.829 24.336 14.104 23.7792 15.6047C23.7551 15.6814 23.7096 15.7493 23.6481 15.7998C23.5867 15.8504 23.5121 15.8814 23.4336 15.8891L23.4432 15.9283C23.4441 16.0696 23.4076 16.2086 23.3376 16.3305C23.2059 16.5637 23.0445 16.7781 22.8576 16.968C22.128 17.7526 20.784 17.9292 19.7664 17.4094L19.6704 17.3603H19.6512L19.6416 17.3505H19.632V17.3407L19.5264 17.2917L19.2864 17.1642C19.2928 17.768 19.1853 18.3674 18.9696 18.9296L18.96 18.9688L18.9504 18.9983L18.9216 19.0571C19.0878 19.1331 19.2483 19.2216 19.4016 19.3219C19.6034 19.4617 19.7817 19.6339 19.9296 19.832C20.0198 19.9505 20.097 20.0788 20.16 20.2145C20.2464 20.4302 20.2656 20.6166 20.1504 20.7539C20.0544 20.8716 19.8912 20.901 19.6992 20.8618C19.7811 21.0151 19.8486 21.1761 19.9008 21.3424C19.9776 21.5876 19.9584 21.7838 19.7952 21.9113C19.7376 21.9505 19.6512 21.9603 19.5456 21.9505C19.7184 22.3232 19.7088 22.6959 19.4304 22.8332C19.2864 22.9117 19.104 22.8921 18.8256 22.7842L18.4896 22.6567H18.4704L18.4416 22.6371L18.384 22.6175L18.3648 22.6076L18.0192 22.4703C17.7248 22.3606 17.4233 22.2721 17.1168 22.2055L16.944 22.1663L16.7424 22.1271C16.2905 22.0359 15.8301 21.9965 15.3696 22.0094C15.3474 22.0141 15.3246 22.0141 15.3024 22.0094C14.6348 22.1613 13.9506 22.224 13.2672 22.1957C12.5568 22.1761 12.1728 22.1467 11.7696 22.0682C11.6599 22.0463 11.551 22.0201 11.4432 21.9897C11.0784 21.9113 10.128 22.0388 9.5328 22.2349C9.37128 22.2839 9.20796 22.3264 9.0432 22.3624L8.352 22.5194L8.3136 22.5292H8.304L8.2464 22.5488H8.2272L8.1984 22.5586L7.6032 22.6959C7.50048 22.7208 7.39807 22.7469 7.296 22.7744L7.1712 22.8136L7.0272 22.8528C6.90957 22.8825 6.79112 22.9087 6.672 22.9313C6.2304 23.0196 5.9232 23.0196 5.7216 22.8725C5.568 22.745 5.5104 22.5488 5.5296 22.3036C5.60264 21.7683 5.84544 21.2721 6.2208 20.8912V20.8814H6.2112C6.10513 20.909 5.99951 20.9385 5.8944 20.9697L5.8656 20.9795L5.856 20.9893L5.6256 21.0482L5.616 21.058H5.5968L5.5776 21.0678L5.5488 21.0776H5.5296L5.5008 21.0874C5.3184 21.1266 5.184 21.1364 5.0688 21.107C5.00132 21.087 4.94014 21.0493 4.89131 20.9977C4.84247 20.9461 4.80769 20.8823 4.7904 20.8128L4.656 20.7735C4.2816 20.6362 3.9456 20.4499 3.3984 20.0968C3.2448 20.0085 2.784 19.8614 2.6016 19.8418C2.2464 19.8025 1.6224 19.9693 1.3536 20.1556C1.27733 20.2573 1.20988 20.3656 1.152 20.4793V20.4891L1.1232 20.5479L1.1136 20.5676L1.104 20.5774L1.0368 20.7245C0.9888 20.803 0.9312 20.8422 0.8544 20.852C0.768 20.852 0.7104 20.803 0.672 20.7245C0.6432 20.6755 0.6144 20.6068 0.5952 20.5283C0.553987 20.3382 0.531476 20.1444 0.528 19.9497C0.5088 19.4494 0.576 18.9983 0.7392 18.7825C0.9696 18.4784 1.3248 18.2627 1.8816 18.0273L2.5248 17.7723L2.7552 17.6644C1.99695 17.2194 1.36506 16.5806 0.9216 15.8106C0.294622 14.737 -0.0120891 13.4997 0.0390677 12.2505C0.0902245 11.0014 0.497026 9.79464 1.2096 8.77822C1.75617 8.04102 2.46986 7.45053 3.28929 7.05757C4.10871 6.6646 5.00931 6.48093 5.9136 6.52236L6.1152 6.53217L6.2304 5.95349L5.1168 5.88483H5.0784C4.82578 5.86287 4.57297 5.84325 4.32 5.82598C3.9072 5.62001 3.4464 5.30616 3.312 5.16884C3.12 4.97268 2.88 4.30573 2.88 4.07033C2.88 3.70743 2.9664 3.01106 3.1104 2.14795L3.1296 2.04006L3.1392 2.00083V1.99102L3.1488 1.96159L3.1584 1.89294V1.86351L3.168 1.83409V1.79486L3.2928 1.10829L3.3024 1.09848L3.3216 0.990591V0.980783C3.3504 0.89251 3.4848 0.804237 3.8496 0.588458C4.02698 0.480622 4.20621 0.375986 4.3872 0.274599L4.4256 0.254983L4.4352 0.245175C4.4544 0.235367 4.4832 0.225559 4.5024 0.235367H4.5216C4.75849 0.246703 4.99529 0.259781 5.232 0.274599C5.50087 0.293213 5.76967 0.312829 6.0384 0.333448H6.048C6.08912 0.273327 6.14556 0.225843 6.2112 0.196134C6.3072 0.147094 6.432 0.107862 6.5856 0.0784372C6.8928 0.00978049 7.2864 -0.00983571 7.6608 0.0195886ZM8.2656 20.1164H8.2176L8.1984 20.1262H8.1504L8.1216 20.136C7.99578 20.1481 7.87077 20.1678 7.7472 20.1949C7.536 20.2439 7.1616 20.4499 6.912 20.6558C6.5952 20.9108 6.1632 21.4405 6.0288 21.7445C5.8368 22.2251 5.808 22.5194 5.9232 22.6076C6.0192 22.6763 6.2592 22.6763 6.6048 22.6076C6.76634 22.5753 6.92648 22.536 7.0848 22.49L7.2096 22.4507C7.50801 22.3688 7.80898 22.2968 8.112 22.2349L8.1504 22.2251L8.1888 22.2153L8.208 22.2055H8.2464L8.3328 22.1859L8.352 22.1761L8.9664 22.0388C9.1584 21.9995 9.3024 21.9505 9.4272 21.9113C9.82525 21.791 10.2334 21.7089 10.6464 21.6661C10.5081 21.5856 10.3765 21.4938 10.2528 21.3914C10.1239 21.2776 10.008 21.1493 9.9072 21.0089C9.81869 20.8882 9.72248 20.7735 9.6192 20.6656L9.6096 20.6558L9.6 20.646C9.56598 20.6152 9.53076 20.5857 9.4944 20.5578C9.27393 20.3743 9.03209 20.2195 8.7744 20.0968C8.736 20.087 8.5056 20.087 8.2656 20.1164ZM17.7216 21.107C17.5133 21.1154 17.3097 21.1724 17.1264 21.2737C17.1115 21.2828 17.0953 21.2895 17.0784 21.2934C16.9563 21.3671 16.8314 21.4358 16.704 21.4993L16.6656 21.5189L16.2624 21.7053C16.514 21.7391 16.7638 21.7849 17.0112 21.8426L17.088 21.8524L17.1072 21.8622L17.184 21.872C17.5008 21.9505 17.7984 22.0388 18.1248 22.1565C18.25 22.2045 18.3748 22.2536 18.4992 22.3036L18.5472 22.3232L18.576 22.333L18.5856 22.3428L18.9312 22.4703C19.1328 22.539 19.248 22.5586 19.2864 22.539C19.3344 22.5096 19.3536 22.3821 19.2864 22.1761C19.211 21.9675 19.0895 21.7795 18.9312 21.6268L18.9216 21.617L18.7584 21.4797C18.384 21.2051 18.0384 21.0972 17.7216 21.107ZM14.304 14.5454C14.1024 14.9475 13.8432 15.2908 13.5168 15.5752L13.5072 15.585L13.488 15.6047C12.8832 16.1539 12.0768 16.2716 11.328 15.9774L11.3088 15.9676C10.7616 15.7518 10.3296 15.33 10.1184 14.82C9.5083 16.0726 8.50898 17.0833 7.2768 17.6938L7.2864 17.8703C7.2864 18.0076 7.296 18.1253 7.3344 18.2528C7.37971 18.439 7.48866 18.6025 7.6416 18.7138C7.74307 18.785 7.83932 18.8637 7.9296 18.9492C7.96322 18.9657 7.99032 18.9933 8.0064 19.0277C8.07199 19.0914 8.13601 19.1568 8.1984 19.2239L8.208 19.2337L8.2176 19.2435L8.2272 19.2533L8.3232 19.3514L8.3328 19.371L8.5056 19.5475C8.6016 19.626 8.6784 19.6848 8.7552 19.7241C9.1776 19.9104 9.4752 20.1066 9.7056 20.3027C9.8784 20.4499 9.9552 20.5381 10.1568 20.803C10.2466 20.9256 10.3496 21.0375 10.464 21.1364L10.5984 21.2443C10.9632 21.4895 11.3568 21.6465 11.8368 21.7347C12.2208 21.8132 12.5856 21.8426 13.2768 21.8622C14.4384 21.9015 15.5904 21.6857 16.5216 21.2149C17.0156 20.9898 17.4594 20.664 17.8258 20.2576C18.1923 19.8512 18.4737 19.3726 18.6528 18.8511C18.9028 18.2067 19.0035 17.5118 18.9469 16.821C18.8902 16.1301 18.6779 15.4621 18.3264 14.8691C18.1922 15.1934 18.0145 15.4971 17.7984 15.7714C17.3952 16.2716 16.896 16.5757 16.3104 16.6051C15.7824 16.6247 15.0432 16.2422 14.7072 15.7224C14.496 15.3987 14.4 15.1044 14.304 14.5454ZM18.432 20.0281L18.4224 20.0379C18.2366 20.3078 18.0208 20.5546 17.7792 20.7735C18.2911 20.7906 18.7779 21.0043 19.1424 21.3718C19.2466 21.4607 19.3631 21.5334 19.488 21.5876L19.6128 21.617C19.6224 21.5974 19.6224 21.5386 19.5936 21.4503V21.4405C19.5385 21.2706 19.4678 21.1064 19.3824 20.9501C19.3146 20.8127 19.2308 20.6843 19.1328 20.5676C19.0813 20.5091 19.0269 20.4534 18.9696 20.4008C18.812 20.2469 18.6303 20.1209 18.432 20.0281ZM6.2112 19.2631C6.01793 19.3471 5.83953 19.4631 5.6832 19.6064C5.67554 19.6208 5.66584 19.634 5.6544 19.6456C5.49708 19.8002 5.36429 19.9789 5.2608 20.1752L5.2512 20.2047L5.2416 20.2145V20.2243L5.232 20.2341C5.1456 20.4008 5.0784 20.5774 5.088 20.6362C5.0976 20.7343 5.1168 20.7735 5.1552 20.7833C5.2128 20.803 5.2896 20.7931 5.424 20.7637L5.5008 20.7441L5.5392 20.7343L5.7312 20.6755L5.7408 20.6656H5.76L5.7792 20.6558H5.7984L5.8272 20.646C5.9357 20.6123 6.04451 20.5796 6.1536 20.5479C6.3552 20.4989 6.5184 20.4597 6.6432 20.4499L6.7104 20.391C6.9888 20.1654 7.4112 19.9398 7.6608 19.8712C7.8336 19.832 8.064 19.7927 8.2752 19.7829L8.0832 19.5868L7.9968 19.4887H7.9872L7.9776 19.4789L7.968 19.4592L7.8816 19.3612L7.7472 19.2337C7.3536 19.0767 6.576 19.0865 6.2112 19.2631ZM4.1472 18.1744C4.05514 18.2377 3.96234 18.2998 3.8688 18.3607L3.8592 18.3705C3.74436 18.4463 3.62916 18.5215 3.5136 18.5961L3.4944 18.6059L3.4848 18.6157H3.4752V18.6256C2.832 18.9492 2.1984 19.3415 1.7856 19.6946C2.0736 19.6064 2.4 19.5671 2.6304 19.5966C2.8416 19.6162 3.3408 19.7731 3.5232 19.8908C4.0608 20.2243 4.3872 20.4106 4.7424 20.5283L4.7712 20.5479C4.8096 20.342 4.944 20.0477 5.0784 19.832L4.9824 19.8516C4.6368 19.9202 4.3776 19.8908 4.2432 19.6848C4.0896 19.4396 4.2144 19.1454 4.5024 18.8217C4.704 18.5961 4.9824 18.3705 5.1552 18.2823L5.2416 18.2332C4.8672 18.2627 4.5024 18.243 4.1472 18.1744ZM18.7968 19.371V19.3808C18.7419 19.5048 18.681 19.6259 18.6144 19.7437C18.9179 19.8927 19.1864 20.1068 19.4016 20.3714L19.4112 20.3812C19.4919 20.4348 19.579 20.4776 19.6704 20.5087C19.7327 20.528 19.7973 20.5379 19.8624 20.5381H19.9008V20.5087C19.9008 20.4597 19.8816 20.4106 19.8528 20.3518C19.8048 20.2439 19.7376 20.1262 19.6704 20.0281C19.5436 19.8605 19.3912 19.7148 19.2192 19.5966L18.7968 19.371ZM3.0144 17.8017V17.8115L2.9856 17.8311C2.86769 17.8976 2.74586 17.9566 2.6208 18.0076L2.3232 18.1253H2.304L2.2848 18.1352L1.9776 18.2627C1.4496 18.4784 1.1232 18.6746 0.9312 18.9394C0.816 19.0865 0.7584 19.4985 0.768 19.9398C0.775229 20.1387 0.804209 20.3361 0.8544 20.5283L0.9024 20.4302L0.912 20.4204L0.96 20.3126C1.06856 20.1166 1.2008 19.9354 1.3536 19.7731C1.7472 19.3317 2.5248 18.8217 3.3408 18.4098L3.36 18.4L3.3888 18.3804C3.50142 18.3095 3.61343 18.2375 3.7248 18.1646L3.7344 18.1548L3.8112 18.1057C3.53661 18.0309 3.26976 17.9291 3.0144 17.8017ZM6.096 18.2725C5.808 18.3509 5.5008 18.4686 5.3088 18.5765C4.944 18.7727 4.4256 19.3514 4.512 19.4985C4.5504 19.5573 4.6944 19.5671 4.9248 19.5279C5.08505 19.4955 5.2424 19.4496 5.3952 19.3906L5.4624 19.3612C5.64417 19.1935 5.85175 19.0577 6.0768 18.959C6.3648 18.8217 6.8256 18.7727 7.248 18.8021C7.12299 18.6495 7.0372 18.4675 6.9984 18.2725C6.8064 18.1548 6.4896 18.1646 6.096 18.2725ZM1.4304 8.93515C0.747733 9.90899 0.357807 11.0651 0.30836 12.2618C0.258913 13.4586 0.552091 14.6442 1.152 15.6733C1.68946 16.6236 2.53497 17.3521 3.5424 17.733C3.73643 17.8038 3.93539 17.8595 4.1376 17.8998L4.1952 17.9096C5.0784 18.0665 6.0384 17.939 7.0368 17.5074L7.0752 17.4878L7.1424 17.4584C8.28937 16.8773 9.23039 15.9452 9.83437 14.7919C10.4384 13.6386 10.6752 12.3216 10.512 11.0243L10.3392 11.0635C9.8976 11.1714 9.456 11.2204 8.7264 11.2499H8.6784L8.6496 11.2597H8.6208C8.4096 11.2597 8.3232 11.2793 8.2656 11.3087C8.2176 11.3283 8.208 11.3676 8.256 11.4853C8.2944 11.603 8.3808 11.9953 8.4576 12.3876L8.4672 12.4366V12.4465L8.4768 12.4955L8.4864 12.5151L8.496 12.5642L8.5536 12.9074C8.6208 13.2998 8.3712 13.6234 7.8624 13.8882C7.66105 13.9948 7.45252 14.0866 7.2384 14.1629V14.2119C7.22611 14.3297 7.21331 14.4474 7.2 14.565C7.17368 14.8497 7.14488 15.1341 7.1136 15.4183L7.0272 16.0558C6.9792 16.4187 6.9312 16.6149 6.8832 16.6934C6.8352 16.7816 6.5952 16.9091 6.288 17.0268C5.952 17.1642 5.7024 17.2426 5.568 17.1936C5.4528 17.1543 5.2512 16.9974 5.0496 16.7914C4.8288 16.5757 4.6944 16.3893 4.6848 16.2814C4.6752 16.1931 4.7136 15.9283 4.7904 15.5066C4.82369 15.3199 4.85889 15.1335 4.896 14.9475L4.9152 14.8592C4.5696 14.9769 4.3488 15.0848 4.224 15.1927C4.1664 15.2418 4.1568 15.281 4.1856 15.3398C4.224 15.4183 4.3104 15.5262 4.4832 15.6831C4.50993 15.7078 4.52596 15.7424 4.52776 15.7792C4.52956 15.816 4.51699 15.852 4.4928 15.8793C4.46861 15.9066 4.43479 15.923 4.39879 15.9248C4.36278 15.9267 4.32753 15.9138 4.3008 15.8891C4.1088 15.7027 4.0032 15.5752 3.9456 15.4477C3.8688 15.281 3.9072 15.1143 4.0512 14.9868C4.2912 14.771 4.7136 14.614 5.5488 14.3786L6.1824 14.2021C6.9312 13.9961 7.392 13.8392 7.7376 13.6529C8.1504 13.4273 8.3328 13.2017 8.2944 12.9565L8.1984 12.4563L8.1888 12.417V12.3778C8.112 12.0247 8.0448 11.6814 8.0064 11.5833C7.9104 11.3381 7.9584 11.1616 8.1408 11.0635C8.2464 11.0047 8.352 10.9949 8.6112 10.985H8.6688L8.7168 10.9752C9.4272 10.9458 9.8592 10.8968 10.2816 10.7987L10.4832 10.7497L10.6368 10.7104H10.6752L10.6944 10.7006L10.8576 10.6614H10.8672C10.9632 10.6516 11.0016 10.6418 11.0304 10.6221H11.04C11.2896 10.4554 11.328 10.2004 11.1744 9.84731V9.82769C11.04 9.53345 10.7904 9.19997 10.5216 8.92534H10.512C9.9307 8.26309 9.22075 7.73182 8.42738 7.36538C7.63402 6.99893 6.77463 6.80536 5.904 6.79699C4.0896 6.76756 2.4384 7.52279 1.4304 8.93515ZM6.96 17.8311L6.9408 17.8409L6.8544 17.8703C6.89018 17.8778 6.92545 17.8877 6.96 17.8998C6.95974 17.8769 6.95974 17.854 6.96 17.8311ZM18.816 12.3778L18.7968 12.3974C18.7621 13.098 18.6493 13.7924 18.4608 14.4669L18.4704 14.4865C18.9412 15.1939 19.2195 16.0165 19.2768 16.8699L19.632 17.0661L19.7472 17.1249L19.7664 17.1347L19.872 17.1838C20.8032 17.6546 22.032 17.4976 22.6848 16.7914C22.8525 16.6183 22.9977 16.4238 23.1168 16.2128C23.232 15.997 23.2224 15.8695 23.0976 15.8106L23.0016 15.7518L22.9536 15.7224L22.944 15.7126L22.896 15.6929C22.7808 15.6145 22.6944 15.5752 22.6176 15.5752C22.5696 15.5752 22.512 15.5949 22.464 15.6439C22.4215 15.6859 22.3829 15.7319 22.3488 15.7812V15.791L22.32 15.8302L22.3104 15.8499L22.272 15.9087C22.2434 15.9561 22.2056 15.997 22.1611 16.029C22.1165 16.061 22.0661 16.0835 22.0128 16.0951C21.8304 16.1441 21.6576 16.0951 21.504 15.9676C21.3984 15.8793 21.312 15.7714 21.1776 15.5752C21.1457 15.5326 21.1137 15.4901 21.0816 15.4477C20.9664 15.2712 20.88 15.1829 20.8032 15.1535C20.5152 15.0162 20.3904 15.0064 20.1888 15.0554H20.1792L20.16 15.0652L20.1312 15.075C19.8528 15.1339 19.6128 15.026 19.0848 14.565C19.0593 14.5429 19.0435 14.5114 19.0408 14.4773C19.0381 14.4433 19.0488 14.4096 19.0704 14.3836C19.092 14.3575 19.1229 14.3414 19.1562 14.3386C19.1895 14.3359 19.2225 14.3467 19.248 14.3688C19.5072 14.6042 19.6992 14.7317 19.8336 14.8004C19.9089 14.8353 19.9938 14.8422 20.0736 14.82C20.0896 14.8203 20.1056 14.8203 20.1216 14.82L20.1408 14.8102C20.3808 14.7514 20.5632 14.771 20.8992 14.9181C21.0336 14.9769 21.1392 15.0848 21.2832 15.3006L21.3312 15.3595L21.3696 15.4183V15.4281H21.3792C21.6192 15.791 21.7632 15.8989 21.9552 15.8499C22.0128 15.8401 22.032 15.8204 22.0704 15.7616L22.1568 15.6341L22.2912 15.4673C22.3337 15.4197 22.3856 15.382 22.4436 15.3566C22.5016 15.3312 22.5642 15.3188 22.6272 15.3202C22.7616 15.33 22.8768 15.3791 23.0304 15.4772L23.1264 15.5458C23.1631 15.5687 23.2017 15.5884 23.2416 15.6047C23.3952 15.6635 23.5008 15.6439 23.5488 15.5066C23.8176 14.8004 23.8176 14.1531 23.5776 13.594C23.3664 13.084 22.944 12.6524 22.3968 12.3582C21.8435 12.0632 21.2281 11.9107 20.604 11.9142C19.9799 11.9176 19.3661 12.0767 18.816 12.3778ZM6.9888 14.2511H6.9792L6.2592 14.4669L6.1344 14.4963V14.5552L5.7888 16.9386L5.8368 16.9288C6.07866 16.8526 6.31323 16.7541 6.5376 16.6345C6.58706 16.6113 6.63514 16.5851 6.6816 16.556L6.72 16.4089V16.3991C6.79279 16.0666 6.84093 15.7288 6.864 15.3889C6.90971 15.0068 6.95131 14.6243 6.9888 14.2413V14.2511ZM5.8848 14.5748L5.616 14.6435C5.47141 14.6839 5.3274 14.7264 5.184 14.771V14.8004L5.1744 14.82C5.12756 15.0648 5.08275 15.31 5.04 15.5556C4.99055 15.7857 4.9521 16.0181 4.9248 16.252V16.2618L4.9344 16.2716L4.944 16.2814L5.0016 16.3697C5.1584 16.5685 5.33901 16.7465 5.5392 16.8993L5.8848 14.5748ZM18.4704 12.0149V12.0247C18.4224 12.4563 18.3168 12.9172 18.144 13.3978C17.9328 13.9961 17.4144 14.7023 16.7808 15.026C16.4626 15.171 16.1208 15.2542 15.7728 15.2712C15.36 15.2908 14.9952 15.1927 14.7264 14.9671C14.7774 15.1729 14.8618 15.3685 14.976 15.5458C15.2544 15.9676 15.8784 16.2814 16.2912 16.2716C16.7712 16.252 17.1936 15.997 17.5392 15.5556C17.7826 15.2448 17.971 14.893 18.096 14.516C18.336 13.7902 18.4896 12.7309 18.4704 12.0541V12.0149ZM14.256 10.0729L14.2656 10.0925C14.4 10.9066 14.3424 11.8285 13.9776 12.8682C13.7664 13.4665 13.248 14.1727 12.6144 14.4963C12.3744 14.614 11.8752 14.7415 11.4528 14.7415C10.9824 14.7415 10.5984 14.6239 10.3296 14.3394L10.32 14.3688C10.4256 14.9377 10.848 15.4281 11.424 15.6635C12.0672 15.9185 12.7776 15.8204 13.2864 15.3398C13.7952 14.8887 14.1312 14.2904 14.3328 13.5155C14.4864 12.9074 14.5632 12.2993 14.6208 11.2695C14.6496 10.7889 14.5152 10.3769 14.256 10.0729ZM16.08 10.22C16.0511 10.2329 16.0223 10.246 15.9936 10.2592L15.9552 10.2789C15.4656 10.4946 15.0336 10.7693 14.9568 10.9458V10.9556L14.9472 10.9752V11.2891L14.9088 11.8187C15.2256 11.2106 15.744 10.9066 16.2624 11.0439C16.9152 11.2106 17.2032 11.9953 17.0016 12.8584L16.992 12.8878C16.7808 13.7705 16.128 14.3198 15.5232 14.2021C15.1296 14.1236 14.8224 13.8196 14.6976 13.4076C14.6585 13.5662 14.6136 13.7232 14.5632 13.8784C14.5536 13.9765 14.5824 14.104 14.6304 14.2413C14.6621 14.3262 14.7006 14.4082 14.7456 14.4865C14.9472 14.82 15.3024 14.9573 15.7632 14.9377C16.0896 14.9181 16.4544 14.82 16.6368 14.7219C17.184 14.4473 17.6544 13.8098 17.8368 13.29C18.1632 12.368 18.2304 11.5441 18.1248 10.7987C18.0103 10.6191 17.8675 10.4601 17.7024 10.3279C17.3184 10.0337 16.5888 10.0042 16.08 10.22ZM12.1344 9.48441C11.8862 9.53832 11.6532 9.64898 11.4528 9.80807C11.5392 10.0435 11.5584 10.2592 11.5008 10.4456C11.7216 10.3377 11.9616 10.2985 12.2016 10.3671C12.8544 10.5339 13.1424 11.3283 12.9408 12.1914L12.9312 12.2111C12.72 13.0938 12.0672 13.6529 11.4624 13.5253C11.1456 13.4665 10.8864 13.2605 10.7328 12.9565C10.6703 13.3065 10.5804 13.6509 10.464 13.9863C10.6656 14.2806 11.0016 14.4081 11.4528 14.4081C11.8272 14.4081 12.2688 14.2904 12.4704 14.1923C13.0176 13.9177 13.488 13.2703 13.6704 12.7505C14.0151 11.8347 14.0918 10.8363 13.8912 9.87673V9.86692L13.8624 9.75903V9.7198C13.4208 9.45498 12.816 9.3569 12.144 9.48441H12.1344ZM15.0048 12.4955C14.8224 13.2213 15.12 13.7804 15.5808 13.8686C16.0032 13.9569 16.512 13.5253 16.6848 12.7799C16.848 12.0836 16.6272 11.4853 16.1856 11.3676C15.7056 11.2401 15.216 11.6618 15.0048 12.4955ZM10.944 11.8187C10.7616 12.5543 11.0592 13.1036 11.52 13.2017C11.9424 13.2801 12.4512 12.8486 12.624 12.113C12.7872 11.4068 12.5664 10.8085 12.1248 10.6908C11.6448 10.5633 11.1552 10.9949 10.944 11.8187ZM10.9824 10.9164L10.9152 10.936H10.896L10.7712 10.9654L10.7808 11.0439L10.8 11.2401C10.8515 11.127 10.9125 11.0187 10.9824 10.9164ZM17.3472 4.59997C17.0109 4.62526 16.677 4.67773 16.3488 4.7569C15.696 4.90402 14.9184 5.27673 14.1216 5.79656C13.4976 6.19869 12.8928 6.67929 12.576 7.01276C12.1248 7.46394 11.856 7.85626 11.9424 8.06223C11.9904 8.17993 12.24 8.28782 12.7104 8.36628C13.1136 8.42513 13.5552 8.45456 14.5248 8.49379L15.5808 8.54283H15.6672L15.6864 8.55264H15.744L15.888 8.56244L15.9552 8.57225L16.0032 8.59187C16.0416 8.62129 16.08 8.67033 16.08 8.73899C16.08 8.79784 16.0512 8.83707 16.0128 8.8665L15.9744 8.89592C15.9338 8.90794 15.8919 8.91453 15.8496 8.91554L15.7056 8.93515H15.696L15.6864 8.94496H15.648L15.504 8.96458C15.4039 8.97882 15.3045 8.99847 15.2064 9.02343C15.1872 9.44517 15.1296 9.92577 15.072 10.2789V10.2887L15.3888 10.1514L15.408 10.1415C15.5269 10.0871 15.6453 10.0315 15.7632 9.97481L15.8016 9.9552L16.3392 9.67076C17.52 9.04304 18.4224 8.05242 18.3552 7.47375C18.288 7.00296 17.8752 6.78718 17.1552 6.76756C16.896 6.75775 16.6176 6.77737 16.3008 6.8166L16.1376 6.83622H16.1088C16.0163 6.84858 15.9234 6.85839 15.8304 6.86564C15.8077 6.86552 15.7851 6.86222 15.7632 6.85584C15.7274 6.84765 15.6951 6.82802 15.6709 6.79981C15.6467 6.7716 15.632 6.73625 15.6288 6.69891C15.6288 6.64987 15.648 6.62044 15.6672 6.58121L15.696 6.54198L15.7824 6.46351L15.9936 6.27716L16.0224 6.25754L16.1856 6.12023L16.2048 6.10061H16.2144L16.224 6.0908L16.368 5.97311C16.5683 5.80543 16.7667 5.63541 16.9632 5.46308C17.1866 5.27061 17.3982 5.06425 17.5968 4.84517C17.6586 4.77942 17.7133 4.70708 17.76 4.6294V4.61959L17.7216 4.60978H17.712C17.5942 4.59432 17.4752 4.59104 17.3568 4.59997H17.3472ZM6.48 5.97311L6.3648 6.54198C6.84697 6.58476 7.32328 6.68011 7.7856 6.82641L7.8912 6.06138L6.8928 6.00253L6.48 5.97311ZM4.992 1.59869C4.95947 1.82093 4.92747 2.04325 4.896 2.26564L4.6944 3.70743C4.63354 4.17087 4.57913 4.63517 4.5312 5.10018C4.51348 5.26321 4.50067 5.42676 4.4928 5.59059V5.6004H4.5024L6.864 5.74752H6.912L9.6576 5.90445C9.6768 5.91426 9.7632 5.88483 9.8784 5.85541C10.1497 5.76648 10.4157 5.66169 10.6752 5.54155L10.7904 5.4827V5.47289C10.8039 5.40765 10.8167 5.34226 10.8288 5.27673V5.25711L10.944 4.45285V4.42343C11.0486 3.60389 11.1446 2.78323 11.232 1.96159L9.5904 1.8537L9.4944 1.8439C8.88974 1.8056 8.28493 1.76963 7.68 1.73601L6.5664 1.67716H6.4224L6.3744 1.66735H6.2688L6.144 1.65754H6.0672L6.0384 1.64773L4.992 1.59869ZM4.7424 1.56927L3.3408 2.28526C3.2064 3.08952 3.1296 3.73686 3.1296 4.07033C3.1296 4.24688 3.3408 4.84517 3.4848 4.9923C3.5808 5.09038 3.9168 5.31596 4.2528 5.50232C4.25918 5.36152 4.26878 5.2209 4.2816 5.08057C4.33295 4.61227 4.39055 4.1447 4.4544 3.67801C4.5454 2.97439 4.6414 2.27146 4.7424 1.56927ZM8.5536 2.38334L8.6208 2.40296C8.64152 2.41279 8.65945 2.42786 8.67288 2.44673C8.68632 2.46561 8.69483 2.48768 8.6976 2.51085C8.7072 2.63835 8.64 2.75605 8.4192 3.06991L8.4096 3.08952L8.2464 3.33473L8.2368 3.34454L8.2176 3.37396C8.19883 3.40516 8.18277 3.43798 8.1696 3.47204L8.1792 3.48185V3.49166C8.2176 3.57012 8.2944 3.6682 8.4768 3.9036L8.5056 3.94283C8.7648 4.2665 8.8608 4.43323 8.8608 4.59016C8.8512 4.64901 8.832 4.67844 8.7744 4.70786C8.75292 4.72252 8.73046 4.73562 8.7072 4.74709L8.5152 4.81575C8.14265 4.93853 7.76463 5.04327 7.3824 5.12961C7.28724 5.1485 7.19108 5.1616 7.0944 5.16884C7.0368 5.15903 6.9984 5.14923 6.9696 5.09038C6.9408 5.03153 6.9504 4.98249 6.9888 4.91383L7.056 4.80594L7.1616 4.66863L7.1712 4.65882L7.2096 4.60978L7.2192 4.59997L7.2768 4.53132L7.3056 4.48228C7.37057 4.40387 7.43146 4.32202 7.488 4.23707L7.5264 4.17822V4.16842C7.50772 4.15456 7.4885 4.14147 7.4688 4.12918L7.4592 4.11938L7.44 4.10957H7.4304L7.3248 4.04091L7.3152 4.0311H7.3056L7.2864 4.02129L7.1712 3.94283C7.07036 3.88152 6.9741 3.81267 6.8832 3.73686C6.80182 3.67761 6.73857 3.59598 6.7008 3.50146C6.6816 3.43281 6.7008 3.39358 6.7488 3.33473L6.8352 3.22684C6.9545 3.11248 7.07946 3.00444 7.2096 2.90317L7.2384 2.88355L7.2672 2.85413L7.2768 2.84432L7.3056 2.83451V2.82471L7.3248 2.8149C7.43176 2.72747 7.54059 2.64245 7.6512 2.55989C7.7184 2.52065 7.92 2.46181 8.1504 2.42257C8.24566 2.40437 8.34179 2.39127 8.4384 2.38334H8.5536ZM8.4 2.63835C8.3033 2.65008 8.2072 2.66645 8.112 2.68739H8.0928C7.99186 2.70609 7.89239 2.73232 7.7952 2.76586L7.44 3.04048L7.4304 3.05029L7.4208 3.0601L7.4016 3.06991V3.07972L7.3824 3.08952L7.2768 3.1778C7.16697 3.26758 7.06126 3.36249 6.96 3.46223V3.47204C6.98048 3.49681 7.00296 3.51978 7.0272 3.5407L7.0368 3.55051C7.11864 3.619 7.20527 3.68128 7.296 3.73686L7.4304 3.81532L7.4496 3.82513L7.5648 3.89379L7.5744 3.9036H7.584C7.7184 3.99187 7.7664 4.0311 7.7856 4.09976C7.8048 4.22726 7.728 4.36458 7.5072 4.6392L7.4688 4.68825L7.4112 4.7569L7.4016 4.76671C7.37273 4.80589 7.34393 4.84512 7.3152 4.88441H7.3056H7.3344C7.70696 4.80121 8.07539 4.69974 8.4384 4.58036L8.592 4.52151H8.6016V4.5117C8.5632 4.43323 8.4768 4.30573 8.3232 4.10957L8.3136 4.09976L8.2848 4.06053C8.0448 3.75648 7.9872 3.6682 7.9392 3.55051C7.9008 3.46223 7.9296 3.37396 8.0064 3.24645L8.0256 3.20722H8.0352V3.19741L8.0448 3.18761L8.208 2.9424L8.2176 2.92279C8.28254 2.83081 8.3434 2.73591 8.4 2.63835ZM4.3968 0.559034H4.3872C4.24883 0.6394 4.11122 0.721138 3.9744 0.804237L3.6576 1.0004C3.62459 1.02523 3.59256 1.05141 3.5616 1.07886H3.552L3.5424 1.13771V1.14752L3.4944 1.39272L3.3888 1.9714L4.6656 1.32407C4.55994 1.07525 4.47015 0.819702 4.3968 0.559034ZM4.6368 0.490377C4.71815 0.779083 4.82085 1.06106 4.944 1.33387V1.34368L6.1824 1.40253L6.2112 1.41234H6.2784L6.3936 1.42215C7.07843 1.45755 7.76323 1.49352 8.448 1.53004L9.5424 1.59869L9.6672 1.6085L11.0112 1.69677C10.7818 1.50075 10.5449 1.31425 10.3008 1.13771C10.2321 1.0892 10.1617 1.04339 10.0896 1.0004L9.0528 0.863085C8.8992 1.16714 8.2368 1.29464 7.536 1.22599C7.20004 1.19107 6.87048 1.10855 6.5568 0.980783C6.2976 0.872893 6.1152 0.745388 6.048 0.588458C5.97442 0.581676 5.90082 0.575137 5.8272 0.568842C5.43054 0.540501 5.03373 0.514346 4.6368 0.490377ZM6.6336 0.32364C6.4992 0.343256 6.3936 0.382488 6.3264 0.421721C6.30551 0.432001 6.28612 0.445206 6.2688 0.460953C6.3072 0.657115 6.8928 0.902318 7.536 0.970974H7.5552C7.86932 1.00696 8.18709 0.990398 8.496 0.921934C8.688 0.872893 8.8032 0.814045 8.832 0.755196C8.82586 0.732741 8.82586 0.708995 8.832 0.686539C8.7936 0.627691 8.688 0.549226 8.5248 0.470761C8.24216 0.358912 7.94418 0.292731 7.6416 0.274599C7.30492 0.247121 6.9662 0.263601 6.6336 0.32364Z" fill="#564341"/></g><defs><clipPath id="clip0_2062_2611"><path fill="#fff" d="M0 0H24V23H0z"/></clipPath></defs></svg>