<svg width="24" height="24" viewBox="0 0 24 24" fill="none" xmlns="http://www.w3.org/2000/svg"><g clip-path="url(#clip0_2062_2614)"><path d="M14.3253 4.91979C14.1177 5.13137 13.9516 5.34295 13.8685 5.59685C13.827 5.7238 13.7855 5.80843 13.827 5.85075C13.8685 6.06233 14.4499 6.14696 14.6575 6.14696L16.4429 6.2316L17.8132 6.40086L17.8962 6.48549C17.8962 6.61244 17.7717 6.65476 17.6886 6.65476H17.3149C17.2319 6.65476 17.1073 6.73939 17.1073 6.86634L16.9827 8.17814H17.0658L17.564 7.88193L18.0208 7.62803C18.5606 7.37413 19.0588 6.95097 19.5156 6.52781C19.8478 6.2316 20.1384 5.93538 20.263 5.51222C20.3876 5.08906 20.0969 4.75053 19.6817 4.66589" stroke="#ab7f45"/><path d="M19.6817 4.66589L19.1003 4.58126L17.6886 4.62358C17.564 4.62358 17.5225 4.58126 17.564 4.45431L17.6886 4.24273L18.436 3.60799L19.1834 2.93093L19.6401 2.42313V2.38082C18.8674 2.35661 18.0998 2.51597 17.3979 2.8463C16.4429 3.26946 15.5294 3.81957 14.7405 4.53895L14.3253 4.91979" stroke="#ab9655"/><path d="M19.7232 4.66589L19.6817 4.70821V4.75053L19.4741 5.25832L19.225 5.4699L18.6852 5.7238L17.6471 5.93538H16.9412L16.3184 5.85075L15.2803 5.59685L14.9897 5.4699L14.7405 5.34295L14.5329 5.13137L14.4914 5.08906L14.4499 5.04674L14.4083 5.00442L14.3668 4.91979" stroke="#ffd259"/><path d="M1.28723 11.2249L1.86855 11.0557" stroke="#ab836a"/><path d="M1.82703 11.0556L3.4464 10.3363L3.69554 10.2939C4.06924 10.2516 4.06924 10.8017 4.11076 11.0556C4.11076 11.4365 4.19381 11.8173 4.3599 12.1135C4.52599 12.4097 4.85817 12.4944 5.19035 12.4944C5.6471 12.4521 6.10384 12.4097 6.56059 12.2828L8.0554 11.9866L8.55367 11.8596L8.8028 11.8173C9.05194 11.8596 9.13498 12.1135 9.17651 12.3251L9.21803 12.8752C9.21803 13.0022 9.17651 13.0445 9.05194 13.0868C8.96889 13.0868 8.84433 13.0022 8.84433 12.9175V12.706" stroke="#ab806f"/><path d="M8.88582 12.706L8.8443 12.4944" stroke="#a4655a"/><path d="M8.84433 12.4945L8.80281 12.2406L8.76129 12.1982L8.63672 12.2406" stroke="#825451"/><path d="M8.59515 12.2405L6.43598 12.706L5.39792 12.8329C4.85813 12.8752 4.35986 12.8329 4.0692 12.3251C3.94463 12.1135 3.82006 11.902 3.77854 11.6481L3.6955 11.2672" stroke="#a4655a"/><path d="M3.73703 11.2672V10.6748H3.69551L2.5744 11.1403" stroke="#825451"/><path d="M2.57443 11.1403L1.82703 11.4788V11.775" stroke="#a4655a"/><path d="M1.78546 11.775L2.0346 12.6213C2.49134 13.5946 3.19723 14.3563 4.11072 14.8641L4.31833 14.9911" stroke="#ab806f"/><path d="M4.31836 14.9911C5.34533 15.4824 6.46419 15.7422 7.59864 15.7528C8.13843 15.7105 8.6367 15.5835 9.13497 15.3719" stroke="#a65e4b"/><path d="M9.13495 15.372C9.5917 15.1604 10.0484 14.9065 10.4221 14.568L10.5882 14.441C10.8789 14.1448 11.1696 13.7639 11.3772 13.3408L11.5433 12.9176C11.7509 12.2829 11.917 11.6481 11.9585 10.9711L11.917 9.9978" stroke="#825451"/><path d="M11.917 9.9978C11.8755 9.44768 11.7924 8.93989 11.5848 8.47441L10.962 7.4165" stroke="#a4655a"/><path d="M10.962 7.41654C10.5883 6.86642 10.173 6.40095 9.63324 5.97778" stroke="#ab806f"/><path d="M9.67473 5.97769L9.4256 5.76611" stroke="#ab836a"/><path d="M9.38411 5.7662C8.6367 5.25841 7.80625 5.00451 6.93428 4.91988L6.10383 4.87756C4.31836 4.87756 2.78203 5.93547 1.66092 7.33191C1.12113 8.05128 0.74743 8.93992 0.456773 9.82857C0.332205 10.2517 0.290683 10.6749 0.498295 11.0557C0.58134 11.1827 0.705907 11.2673 0.830475 11.2673L1.2457 11.225" stroke="#ab8666"/><path d="M9.38411 5.76611L9.05193 5.85075H9.01041L8.92736 5.89306L8.88584 5.93538H8.80279L8.76127 5.97769L8.67823 6.02001H8.6367L8.59518 6.06233H8.55366L8.51214 6.10464H8.47061L8.34605 6.18928H8.22148C8.22148 6.2005 8.2171 6.21126 8.20932 6.2192C8.20153 6.22713 8.19097 6.23159 8.17996 6.23159L8.09691 6.27391H7.76473L7.72321 6.31622H7.01733L6.9758 6.35854H6.64362L6.6021 6.40086H6.39449L6.35297 6.44317" stroke="#ffc68f"/><path d="M6.35299 6.44324C5.97928 5.89313 5.35645 5.76618 4.73361 5.85081C4.02773 5.97776 3.2388 6.31629 2.78205 6.8664C2.3253 7.41652 2.24226 8.09358 2.61596 8.686" stroke="#ffe2b1"/><path d="M2.61597 8.68591C2.53292 8.68591 2.4914 8.72823 2.4914 8.77055L2.44988 8.81286L2.32531 8.93981V9.02444L2.15922 9.15139V9.23602L2.07618 9.27834V9.36297L1.99313 9.40529V9.48992L1.91009 9.57455L1.86856 9.61687V9.7015L1.82704 9.74382V9.78614L1.744 9.87077L1.70247 9.91308V9.99772L1.66095 10.04V10.0823L1.61943 10.1247V10.167C1.57791 10.2093 1.53638 10.2093 1.57791 10.2516L1.53638 10.2939V10.3786C1.49486 10.4209 1.45334 10.4209 1.49486 10.4632L1.45334 10.5055V10.5901L1.41182 10.6748V10.7171C1.3703 10.7594 1.32877 10.7594 1.3703 10.8017V10.844L1.32877 10.9287L1.28725 10.971V11.0133L1.24573 11.0556V11.2249" stroke="#ffc68f"/><path d="M9.63325 5.97778V6.0201H9.67478V6.06242H9.59173L9.50869 6.10473H9.46716L9.3426 6.14705H9.21803L9.17651 6.18936L9.01042 6.23168L8.96889 6.274H8.88585L8.84433 6.31631H8.8028L8.71976 6.44326H8.63671L8.55367 6.52789L8.51215 6.57021L8.4291 6.61253V6.65484L8.13844 6.78179H8.0554L7.97235 6.82411H7.72322L7.64017 6.86642H6.93429V6.90874H6.72668L6.60211 6.95106" stroke="#ffbf98"/><path d="M6.64359 6.95096L6.56055 6.73938" stroke="#ffe0bf"/><path d="M6.56056 6.73945L6.39447 6.44324" stroke="#ffdfb6"/><path d="M6.51903 6.73938L6.35294 6.69706L6.18685 6.61243H5.85467L5.48097 6.69706L5.43945 6.73938H5.39792L5.31488 6.78169L5.06574 6.86632C4.48443 7.07791 3.94464 7.41644 3.44637 7.8396L2.9481 8.34739L2.86505 8.47434H2.90657V8.72824L3.23875 9.02445L3.3218 9.10909C3.36332 9.1514 3.40484 9.19372 3.36332 9.23603" stroke="#fffce2"/><path d="M3.36333 9.23604L2.98962 9.06677" stroke="#ffdcba"/><path d="M2.98967 9.06676L2.61597 8.68591" stroke="#ffdfb6"/><path d="M10.9619 7.4165C11.0865 7.9243 11.1695 8.34746 11.1695 8.68599V9.61695C11.1695 10.1247 11.0865 10.5902 10.8374 11.0557L10.2145 12.029C9.46712 12.9599 8.55363 13.7216 7.47404 14.3141C7.01729 14.568 6.56055 14.7372 6.1038 14.8218L4.65051 14.9488" stroke="#f9a288"/><path d="M4.69204 14.9487L4.35986 14.991" stroke="#fb9b78"/><path d="M1.78546 11.7751C2.15916 11.6904 2.57439 11.6481 2.94809 11.6904C3.1557 11.6904 3.40484 11.6904 3.57093 11.8597C3.73702 12.029 3.90311 12.2829 4.02768 12.5791C4.15224 12.7907 4.31833 12.9176 4.60899 12.9599H5.64705L8.47058 12.4521C8.59515 12.4098 8.63667 12.4521 8.6782 12.5368L8.84429 12.706" stroke="#f9a288"/><path d="M1.82703 11.0556V11.0133H1.86855L1.91007 10.971L1.86855 10.9287L1.91007 10.8864V10.8017L1.95159 10.7594V10.7171L1.99312 10.6748V10.6325L2.03464 10.5902V10.5478L2.07616 10.5055V10.4632L2.11768 10.4209V10.3786C2.15921 10.3363 2.20073 10.3363 2.15921 10.2939V10.2516L2.20073 10.2093L2.24225 10.167V10.0824L2.28377 10.04V9.99773L2.36682 9.9131L2.40834 9.87078V9.78615L2.44986 9.74383V9.70152L2.53291 9.6592V9.57457L2.61595 9.53225V9.44762L2.74052 9.36299V9.27835L2.86509 9.19372V9.1514L2.94813 9.06677H2.98966" stroke="#ffbf98"/><path d="M3.40485 9.23608L3.77855 9.32072" stroke="#ffddc4"/><path d="M3.73706 9.32076C4.7336 9.53234 5.73014 8.98223 6.26993 8.17822" stroke="#ffdece"/><path d="M6.2699 8.17822C6.56055 7.79738 6.6436 7.41653 6.60208 6.95105" stroke="#ffddc4"/><path d="M6.26992 8.17815L6.39449 7.83962V7.75499L6.47753 7.54341C6.51906 7.50109 6.47753 7.41646 6.43601 7.37415H6.10383L6.02079 7.41646H5.97926L5.89622 7.45878H5.8547L5.77165 7.50109H5.73013V7.54341H5.68861L5.60556 7.58573H5.56404L5.48099 7.62804H5.43947L5.35643 7.67036H5.3149L5.27338 7.71268H5.19034L5.14881 7.75499L4.89968 7.83962L4.60902 8.00889L4.5675 8.05121L4.48445 8.13584L4.35989 8.26279H4.27684L4.1938 8.38974H4.11075L3.90314 8.64363H3.82009L3.48792 8.98216V9.15143L3.52944 9.19374L3.73705 9.32069" stroke="#fffef5"/><path d="M11.917 9.9978V10.4633L11.8755 10.8864C11.7924 11.5212 11.6263 12.1559 11.4187 12.7484L11.2526 13.1292" stroke="#d0766a"/><path d="M11.2526 13.1292H11.128L11.0035 13.2561H10.9204L10.5052 13.51L10.256 13.6793L10.0484 13.8062L9.71626 14.0178L9.30103 14.1871L8.26297 14.6102L6.8512 14.9064L6.56055 14.9487H6.4775L6.39446 14.9911H6.02075L5.64705 15.0334H4.94117C4.85813 15.0757 4.77508 15.0334 4.65051 14.9487" stroke="#f48064"/><path d="M8.59515 12.2405C8.71972 12.2405 8.76124 12.4097 8.80277 12.4944" stroke="#d0766a"/><path d="M9.13495 15.3719L9.46713 15.118L9.63322 14.9911L9.79931 14.8218C10.3391 14.3986 10.8789 13.8062 11.2526 13.1292" stroke="#d26f5a"/><path d="M3.69553 11.2672L3.65401 11.098C3.61248 11.0133 3.57096 10.9287 3.44639 10.9287L3.07269 11.0133L2.5329 11.1403" stroke="#d0766a"/><path clip-rule="evenodd" d="M13.1626 12.5791C12.8305 12.5368 12.4568 12.4098 12.2491 12.1136C12.2491 12.6637 12.6644 13.2138 13.1211 13.4254L13.827 13.637C14.2007 13.7216 14.4914 13.637 14.8235 13.4254C15.1972 13.1715 15.5709 12.8753 15.7786 12.4945C16.0644 11.8265 16.2869 11.1321 16.4429 10.421C16.526 9.87086 16.609 9.36306 16.526 8.81295C16.4429 8.51674 16.3599 8.22052 16.1938 7.96662C16.1523 7.92431 16.1523 7.96662 16.1523 8.00894C16.3183 9.1938 16.0692 10.3787 15.4879 11.3942L15.1142 11.8597C14.8557 12.1111 14.5487 12.3048 14.2127 12.4287C13.8767 12.5525 13.5191 12.6038 13.1626 12.5791Z" stroke="#aba1a0"/><path d="M13.2457 11.1827L13.0796 11.5212V11.8174L13.1626 12.0713L13.2457 12.1983L13.3287 12.2829L13.3702 12.3252C13.7855 12.3252 14.1592 12.1983 14.4914 11.9867C14.8235 11.7751 15.1142 11.5212 15.3218 11.1404C15.3218 11.1291 15.3174 11.1184 15.3096 11.1104C15.3019 11.1025 15.2913 11.0981 15.2803 11.0981L15.1972 10.9711L15.0727 10.9288L14.9896 10.8442H14.9066V10.8018L14.5329 10.7595L14.4498 10.8018H14.3668L14.2422 10.8442H14.1592" stroke="#6c4d48"/><path d="M14.1592 10.844C14.5329 10.4209 14.6575 9.91308 14.616 9.32065C14.5329 8.55896 13.7855 7.96653 13.0796 8.51665C12.7059 8.77054 12.5398 9.19371 12.4568 9.61687C12.3322 10.2516 12.5814 11.0556 13.2457 11.1826" stroke="#aba1a0"/><path d="M14.1592 10.8441C13.91 11.1403 13.6194 11.225 13.2457 11.1826" stroke="#c0aba7"/><path d="M17.1904 11.6058C17.0658 11.775 16.9412 11.9443 16.8997 12.1559L16.8167 12.4944V12.5367C17.1073 12.8329 17.4395 12.9176 17.8547 12.8753C18.353 12.8329 18.7682 12.6637 19.0589 12.3252L19.1419 12.1982L19.1834 11.9866L19.225 11.8174V11.5635L19.1419 11.3519L18.9343 11.1826L18.6852 11.0557" stroke="#6c4d48"/><path d="M18.6852 11.0557C18.8097 10.7595 18.8928 10.4632 18.8513 10.1247C18.8097 9.53228 18.3945 8.98217 17.7717 9.15144C17.3564 9.23607 17.0658 9.61692 16.9412 9.99776C16.8167 10.294 16.7751 10.5479 16.8167 10.8441C16.8582 11.1403 16.9827 11.3942 17.1904 11.6058" stroke="#aba1a0"/><path d="M18.6851 11.0557C18.5605 11.3519 18.3529 11.5635 18.1453 11.6904C17.8131 11.902 17.481 11.8597 17.1903 11.6058" stroke="#c0aba7"/><path clip-rule="evenodd" d="M19.9308 12.6637C20.3011 11.6948 20.4571 10.6544 20.3875 9.61697L20.3045 9.15149H20.263V10.2517C20.1384 10.9288 19.9723 11.5212 19.5986 12.1136C19.3907 12.4467 19.1017 12.7193 18.7596 12.9047C18.4176 13.0901 18.0343 13.182 17.6471 13.1715C17.2734 13.1715 16.9412 13.0023 16.6505 12.7061V12.7484L16.8166 13.2562C16.9827 13.637 17.481 13.9332 17.8962 14.0602C18.1038 14.1448 18.3114 14.1448 18.519 14.0602C19.2249 13.8486 19.5986 13.2985 19.9308 12.6637Z" stroke="#aba1a0"/><path d="M21.3011 14.7796V15.6682C21.4672 15.6259 21.6333 15.5836 21.8409 15.4566C22.1315 15.3297 22.4222 15.1604 22.5883 14.9065C22.7544 14.7372 22.8374 14.441 22.962 14.2295V14.1871H22.9205" stroke="#825451"/><path d="M22.9204 14.1871L22.5467 13.9755H22.4637L22.3806 14.1447C22.2976 14.314 22.0485 14.2717 22.0485 14.0601C22.0485 13.6793 22.3806 13.4677 22.7543 13.6369C22.962 13.7639 23.2111 13.9755 23.4187 13.7216C23.5017 13.6369 23.5433 13.4677 23.5433 13.3407V12.2828L23.4602 12.0289" stroke="#a4655a"/><path d="M23.4602 12.0289C23.3357 11.4788 23.0865 11.0557 22.7544 10.6748C22.5467 10.3786 22.2561 10.2093 21.8824 10.0824" stroke="#a56e58"/><path d="M21.8824 10.0824C21.7163 9.95548 21.5502 9.91316 21.4256 9.91316C21.135 9.87085 20.9689 10.0824 20.8443 10.294L20.8028 10.5056L20.7197 10.9711C20.6782 11.4365 20.5536 11.902 20.4291 12.2829L20.4706 12.3252L20.5952 12.4945C20.9689 13.0446 21.1765 13.637 21.2595 14.3141L21.301 14.7795" stroke="#a4655a"/><path d="M21.8824 10.0824L22.0485 10.294V10.3786L22.173 10.4632V10.5479L22.3391 10.6748V10.7595L22.4637 10.8441V10.9287L22.5883 11.0134V11.098L22.6713 11.1403V11.2249L22.7544 11.2673V11.3519L22.9204 11.4788V11.5635L23.0035 11.6481H23.0865V11.7327H23.1281L23.4602 12.0289" stroke="#f39071"/><path d="M22.9205 14.1871C22.6298 14.6526 22.2561 14.9488 21.7994 15.1181H21.6333C21.4257 15.0758 21.3841 14.9911 21.3011 14.7796" stroke="#d0766a"/><path d="M13.6609 13.9755C12.9551 13.8486 12.4153 13.5523 12.1246 12.9176H12.0831L11.6679 13.7216C11.3772 14.2294 11.0035 14.6103 10.5468 14.9911" stroke="#a4655a"/><path d="M10.5467 14.9911C10.1315 15.2873 9.67473 15.5835 9.17646 15.7951H9.13494C9.09342 16.0067 9.13494 16.2183 9.21799 16.3452C9.38408 16.5568 9.59169 16.7684 9.7993 16.8953L10.0069 17.1069C10.2976 17.4031 10.7128 17.7416 11.0865 17.8686C11.2941 17.9532 11.4602 18.0802 11.6263 18.2494L12.083 18.7572L12.4983 19.265L12.7059 19.3497L14.4498 19.7728C15.0727 19.8998 15.737 19.8998 16.4014 19.8575L17.3979 19.6459C18.0638 19.4265 18.6835 19.0821 19.2249 18.6303L20.0138 17.784C20.5048 17.1023 20.806 16.2982 20.8858 15.4566" stroke="#ab806f"/><path d="M20.8858 15.4565V15.245C20.8443 14.3563 20.6782 13.5523 20.3045 12.7483H20.263C19.9308 13.5523 19.4325 14.187 18.5605 14.4409" stroke="#a4655a"/><path d="M18.5606 14.441C18.0208 14.6103 17.481 14.3987 17.0243 14.0602C16.443 13.6793 16.3184 13.1292 16.2353 12.4521M16.2353 12.4521C16.2353 12.4098 16.2353 12.4098 16.2353 12.4521ZM16.2353 12.4521C15.9447 13.0446 15.4464 13.5101 14.9066 13.8063C14.5329 14.0178 14.1177 14.1025 13.6609 13.9755" stroke="#ab806f"/><path d="M18.5606 14.4409C18.6021 14.9064 18.9343 15.2026 19.308 15.3719C19.5987 15.4988 19.8893 15.5412 20.18 15.5835C20.4291 15.6258 20.6782 15.5835 20.8859 15.4565M10.5468 14.9911L10.6713 15.0334C10.8374 15.245 11.1281 15.3296 11.4187 15.3296C11.7924 15.3296 12.2077 15.2873 12.5814 15.1603C13.0796 15.0334 13.4118 14.7372 13.6194 14.2717V14.1024L13.6609 13.9755" stroke="#f9a288"/><path d="M6.35297 17.4454H6.64362L7.14189 17.2761L7.30798 17.1915C7.76473 16.8107 8.263 16.6414 8.88584 16.6837L8.92736 16.6414C8.92736 16.4721 8.59518 16.3452 8.47061 16.3029" stroke="#825451"/><path d="M8.47059 16.303C7.76471 16.1337 6.93426 16.4722 6.47751 17.0223C6.35294 17.1493 6.31142 17.2762 6.2699 17.4032V17.4455H6.35294" stroke="#a4655a"/><path d="M8.51212 16.3029L8.26298 16.5568L7.47405 16.9799L6.39447 17.4454" stroke="#d0766a"/><path d="M7.308 17.7417L7.01735 18.1225C6.9343 18.2495 6.89278 18.4611 6.85126 18.6727" stroke="#a56e58"/><path d="M6.85126 18.6726C6.97582 18.715 7.14191 18.6726 7.34953 18.6303C7.68171 18.5034 8.01389 18.3764 8.38759 18.3341H8.42911C8.84434 17.9533 9.34261 17.7417 9.92392 17.6994V17.657C9.84088 17.3608 9.63326 17.1916 9.30108 17.1069" stroke="#825451"/><path d="M9.30106 17.1068C9.01236 17.0367 8.71271 17.0267 8.42015 17.0776C8.12758 17.1285 7.84814 17.2392 7.59864 17.4031L7.47407 17.53L7.30798 17.7416" stroke="#a4655a"/><path d="M9.30108 17.1069C9.25955 17.3608 9.13499 17.5724 8.92737 17.6994L8.34606 18.1225L8.09692 18.2495" stroke="#d0766a"/><path d="M8.09691 18.2495V18.1225L8.05539 18.0802H8.01387L7.97234 18.0379H7.93082L7.8893 17.9956H7.84778L7.80625 17.9533H7.76473C7.72321 17.911 7.72321 17.8686 7.68169 17.911L7.64016 17.8686H7.59864L7.55712 17.8263H7.43255L7.34951 17.784H7.30798V17.7417" stroke="#f39071"/><path d="M6.89276 18.6726L7.76473 18.4187L8.13844 18.2494" stroke="#d17f67"/><path d="M20.8858 17.4031L20.7197 17.6993H20.7612L20.9273 17.8262" stroke="#825451"/><path d="M20.8858 17.8262L21.218 18.1225L21.4256 18.2917L21.8409 18.461V18.4187C21.8409 18.2917 21.7578 18.2071 21.6748 18.0801C21.4672 17.7839 21.218 17.53 20.8443 17.4031M20.8443 17.4031C20.8443 17.3608 20.8443 17.3608 20.8443 17.4031ZM20.8443 17.4031C20.8028 17.4031 20.8028 17.4031 20.8443 17.4031Z" stroke="#a65e4b"/><path d="M20.9274 17.8262L20.8859 17.4031" stroke="#d26f5a"/><path d="M20.263 18.4611L20.0139 18.6303V18.6726L20.4291 18.8419" stroke="#825451"/><path d="M20.4291 18.8419L20.5121 18.8842" stroke="#a65e4b"/><path d="M20.4706 18.8842C20.6367 18.9265 20.7612 19.0112 20.8858 19.1381L21.1349 19.2651L21.5086 19.5613H21.5502L21.5086 19.3074C21.3841 19.0112 21.2595 18.715 21.0519 18.4611" stroke="#a56e58"/><path d="M21.0519 18.461C20.9274 18.2918 20.7613 18.1648 20.5537 18.0802H20.5122L20.2215 18.461" stroke="#a65e4b"/><path d="M21.0935 18.4611L21.0104 18.5457V18.588H20.9689L20.8028 18.715H20.7613L20.7198 18.7573L20.6782 18.7996L20.5121 18.8842" stroke="#f58961"/><path d="M20.4291 18.8419L20.263 18.4611" stroke="#d26f5a"/><path d="M8.76129 18.5457C8.30455 18.8842 8.01389 19.265 7.80628 19.7305C7.68171 19.9844 7.64019 20.2383 7.68171 20.5345L7.76475 20.5768H7.97237L8.80282 20.4076" stroke="#a56e58"/><path d="M8.8028 20.4075L9.63325 20.1959L10.3807 20.069L11.0865 19.8574C11.2941 19.8151 11.4602 19.6881 11.5433 19.5189C11.6678 19.3073 11.6678 19.0957 11.5433 18.8841C11.4187 18.6726 11.2941 18.5033 11.0865 18.3763" stroke="#825451"/><path d="M11.0866 18.3764L10.7544 18.1648L9.92392 18.0802C9.5087 18.1225 9.13499 18.2495 8.76129 18.5457" stroke="#a4655a"/><path d="M11.0865 18.3763L11.1696 18.6302V18.7995C11.0865 19.0534 10.9205 19.265 10.7128 19.4342L10.1315 19.8574" stroke="#d0766a"/><path d="M10.1315 19.8575L9.25956 18.8842H9.17652L9.01043 18.6726H8.92738L8.76129 18.5457" stroke="#f39071"/><path d="M8.8028 20.4075C9.25954 20.2806 9.67477 20.069 10.1315 19.8574" stroke="#d17f67"/><path d="M19.308 19.265L18.8927 19.6035C18.8839 19.6115 18.8768 19.6213 18.872 19.6322C18.8671 19.6431 18.8646 19.655 18.8646 19.667C18.8646 19.679 18.8671 19.6909 18.872 19.7018C18.8768 19.7128 18.8839 19.7226 18.8927 19.7305L19.0588 19.8151L19.9723 20.069" stroke="#825451"/><path d="M19.9724 20.0691L21.135 20.4499H21.2595L21.3011 20.323C21.2595 19.7728 20.9689 19.4343 20.5121 19.265C20.3876 19.2227 20.3045 19.1804 20.263 19.2227" stroke="#a56e58"/><path d="M20.263 19.2227C19.9723 19.1804 19.5571 19.1381 19.308 19.2651" stroke="#a65e4b"/><path d="M20.3045 19.2227L19.6817 19.8574" stroke="#f58961"/><path d="M19.6817 19.8574L19.391 19.5189L19.3495 19.265" stroke="#d26f5a"/><path d="M20.0139 20.069L19.6817 19.8574" stroke="#d17f67"/><path clip-rule="evenodd" d="M6.14538 9.57458C6.1869 9.78616 6.35299 9.91311 6.5606 9.95543C7.01735 10.0824 7.4741 9.91311 7.8478 9.6169C8.2215 9.32068 8.51216 8.77057 8.13846 8.30509L7.80628 8.13583C7.30801 7.96656 6.76822 8.30509 6.43604 8.68594L6.22842 8.98215C6.10386 9.15142 6.06233 9.40532 6.14538 9.57458Z" stroke="#ffdece"/><path clip-rule="evenodd" d="M15.9862 14.4833C15.6955 14.3563 15.3634 14.2294 15.2803 13.9332L15.2388 13.8909L15.1142 13.9755C14.9481 14.1871 15.1557 14.3987 15.3218 14.4833C15.7786 14.7372 16.2769 14.8218 16.7751 14.6949V14.6526L15.9862 14.4833Z" stroke="#ab806f"/><path d="M12.0415 8.60134C12.2492 8.22049 12.4983 7.83964 12.7889 7.54343C13.4533 6.86637 14.5329 6.78174 15.4464 6.99332C15.737 7.07795 15.9862 7.2049 16.1938 7.41648L16.3599 7.54343L16.609 7.75501H16.6505L16.6921 7.50111L16.7336 6.99332C16.7336 6.86637 16.6921 6.82405 16.609 6.78174L15.8616 6.61247L14.699 6.52784C14.2422 6.48552 13.3703 6.40089 13.4533 5.72383C13.4948 5.17372 13.9931 4.66592 14.4083 4.32739C15.5981 3.25451 17.0214 2.48572 18.5606 2.08463L19.7232 2C20.0969 2.04232 20.1384 2.38085 19.9723 2.63474C19.8478 2.80401 19.7232 2.97327 19.5156 3.10022L18.3945 4.11581V4.15813C18.8512 4.11581 19.2665 4.15813 19.6402 4.24276C20.18 4.36971 20.6367 4.66592 20.6367 5.25835C20.6782 5.68151 20.3876 6.18931 20.0969 6.52784C19.7647 6.86637 19.3495 7.2049 18.9343 7.50111V7.54343C19.308 7.54343 19.5986 7.62806 19.8478 7.88196C20.346 8.26281 20.6367 8.81292 20.7613 9.44766H20.8028L21.7578 9.57461C22.0485 9.70156 22.4637 9.87082 22.7128 10.0824C23.2084 10.5088 23.5791 11.0662 23.7842 11.6932C23.9893 12.3203 24.0208 12.9928 23.8755 13.637C23.8339 13.8486 23.7094 14.0178 23.5018 14.1448L23.4602 14.1871C23.3357 14.3987 23.2526 14.6526 23.0865 14.8641L22.9204 15.1604C22.5883 15.5412 22.0069 15.8797 21.5502 16.0067L21.4256 16.0913L21.2595 16.3029L21.0519 16.9376L21.218 17.1492C21.5917 17.3185 21.8824 17.6147 22.09 18.0379C22.173 18.2071 22.2561 18.3764 22.2146 18.5457C22.173 18.7572 22.0069 18.8419 21.7993 18.8419L21.7578 18.8842C21.8824 19.1804 22.0069 19.6036 21.7993 19.8575C21.7578 19.8998 21.6748 19.9421 21.5917 19.8998L21.5502 19.9421V20.1114C21.5917 20.2806 21.6748 20.5768 21.5087 20.7461C21.3426 20.9154 21.135 20.8731 20.9274 20.7884L19.6817 20.3653C19.391 20.2383 19.0173 20.1537 18.4775 20.069L17.6471 20.0267L16.6921 20.069L16.0277 20.1114H14.3253L13.5364 20.0267C13.1627 19.9844 12.7474 19.9844 12.3737 20.069L11.5018 20.196L11.128 20.2806L10.5883 20.4076L9.42563 20.6615L8.01386 20.9577C7.14189 21.127 7.22494 20.2806 7.39103 19.7728L7.8893 18.8842V18.8419C7.59864 18.9688 7.3495 19.0535 7.05885 19.0958C6.72667 19.1381 6.43601 18.9688 6.47753 18.5457C6.51905 18.2918 6.6021 18.0379 6.76819 17.8263L6.72667 17.784C6.47753 17.8686 6.02078 17.8686 5.93774 17.5724C5.85469 17.3185 5.97926 17.0223 6.14535 16.8107C6.35296 16.5145 6.64362 16.3029 7.01732 16.1336V16.0913C6.10383 16.049 5.27338 15.7951 4.40141 15.4566C3.48791 15.0757 2.74051 14.441 2.15919 13.5947L1.66092 12.8753C1.43221 12.4992 1.23764 12.1026 1.07961 11.6904L1.03808 11.6481C0.705905 11.6904 0.415247 11.6058 0.207635 11.3096C0.0415448 11.0557 -0.0415002 10.7595 2.22605e-05 10.3786C2.22605e-05 9.91314 0.166112 9.48998 0.332202 9.06682C0.664382 8.09354 1.2457 7.07795 2.03462 6.35857L2.65746 5.80846C3.48791 5.1314 4.60902 4.58129 5.6886 4.53898C6.2284 4.49666 6.72667 4.53898 7.22494 4.58129C8.263 4.70824 9.17649 5.1314 9.96542 5.76615C10.4637 6.18931 10.9204 6.6971 11.3357 7.33185C11.6263 7.7127 11.8755 8.13586 12.0415 8.60134C12.0415 8.64365 12.0415 8.64365 12.0415 8.60134ZM14.3253 4.91982C14.1177 5.1314 13.9516 5.34298 13.8685 5.59688C13.827 5.72383 13.7855 5.80846 13.827 5.85078C13.8685 6.06236 14.4498 6.14699 14.6575 6.14699L16.4429 6.23163L17.8132 6.40089L17.8962 6.48552C17.8962 6.61247 17.7716 6.65479 17.6886 6.65479H17.3149C17.2319 6.65479 17.1073 6.73942 17.1073 6.86637L16.9827 8.17817H17.0658L17.564 7.88196L18.0208 7.62806C18.5606 7.37417 19.0588 6.951 19.5156 6.52784C19.8478 6.23163 20.1384 5.93541 20.263 5.51225C20.3876 5.08909 20.0969 4.75056 19.6817 4.66592L19.1004 4.58129L17.6886 4.62361C17.564 4.62361 17.5225 4.58129 17.564 4.45434L17.6886 4.24276L18.436 3.60802L19.1834 2.93096L19.6402 2.42316V2.38085C18.8674 2.35664 18.0998 2.516 17.3979 2.84633C16.4429 3.26949 15.5294 3.8196 14.7405 4.53898L14.3253 4.91982ZM1.2457 11.2249L1.82701 11.0557L3.44639 10.3363L3.69552 10.294C4.06923 10.2517 4.06923 10.8018 4.11075 11.0557C4.11075 11.4365 4.19379 11.8174 4.35988 12.1136C4.52597 12.4098 4.85815 12.4944 5.19033 12.4944C5.64708 12.4521 6.10383 12.4098 6.56058 12.2829L8.05539 11.9866L8.55366 11.8597L8.80279 11.8174C9.05193 11.8597 9.13497 12.1136 9.17649 12.3252L9.21802 12.8753C9.21802 13.0022 9.17649 13.0445 9.05193 13.0869C8.96888 13.0869 8.84431 13.0022 8.84431 12.9176V12.706L8.80279 12.4944L8.76127 12.2405L8.71975 12.1982L8.59518 12.2405L6.43601 12.706L5.39795 12.833C4.85815 12.8753 4.35988 12.833 4.06923 12.3252C3.94466 12.1136 3.82009 11.902 3.77857 11.6481L3.69552 11.2673V10.6748H3.654L2.53289 11.1403L1.78549 11.4788V11.7751L2.03462 12.6214C2.49137 13.5947 3.19725 14.3563 4.11075 14.8641L4.31836 14.9911C5.34533 15.4824 6.46419 15.7422 7.59864 15.7528C8.63963 15.6744 9.62886 15.2593 10.4222 14.5679L10.5883 14.441C10.8789 14.1448 11.1696 13.7639 11.3772 13.3408L11.5433 12.9176C11.7509 12.2829 11.917 11.6481 11.9585 10.971L11.917 9.99777C11.8755 9.44766 11.7924 8.93987 11.5848 8.47439L10.962 7.41648C10.5883 6.86637 10.173 6.40089 9.63324 5.97773L9.38411 5.76615C8.6367 5.25835 7.80625 5.00445 6.93428 4.91982L6.10383 4.87751C4.31836 4.87751 2.78203 5.93541 1.66092 7.33185C1.12113 8.05123 0.747427 8.93987 0.45677 9.82851C0.332202 10.2517 0.29068 10.6748 0.498292 11.0557C0.581337 11.1826 0.705905 11.2673 0.830472 11.2673L1.2457 11.2249ZM13.1627 12.5791C12.8305 12.5367 12.4568 12.4098 12.2492 12.1136C12.2492 12.6637 12.6644 13.2138 13.1211 13.4254L13.827 13.637C14.2007 13.7216 14.4914 13.637 14.8236 13.4254C15.1973 13.1715 15.571 12.8753 15.7786 12.4944C16.0644 11.8264 16.2869 11.1321 16.4429 10.4209C16.526 9.87082 16.609 9.36303 16.526 8.81292C16.4429 8.5167 16.3599 8.22049 16.1938 7.96659C16.1523 7.92428 16.1523 7.96659 16.1523 8.00891C16.3184 9.19376 16.0692 10.3786 15.4879 11.3942L15.1142 11.8597C14.8557 12.111 14.5487 12.3048 14.2127 12.4287C13.8767 12.5525 13.5191 12.6037 13.1627 12.5791ZM13.2457 11.1826L13.0796 11.5212V11.8174L13.1627 12.0713L13.2457 12.1982L13.3287 12.2829L13.3703 12.3252C13.7855 12.3252 14.1592 12.1982 14.4914 11.9866C14.8236 11.7751 15.1142 11.5212 15.3218 11.1403C15.3218 11.1291 15.3174 11.1183 15.3097 11.1104C15.3019 11.1025 15.2913 11.098 15.2803 11.098L15.1973 10.971L15.0727 10.9287L14.9896 10.8441H14.9066V10.8018L14.5329 10.7595L14.4498 10.8018H14.3668L14.2422 10.8441H14.1592C14.5329 10.4209 14.6575 9.91314 14.6159 9.32071C14.5329 8.55902 13.7855 7.96659 13.0796 8.5167C12.7059 8.7706 12.5398 9.19376 12.4568 9.61693C12.3322 10.2517 12.5813 11.0557 13.2457 11.1826ZM17.1903 11.6058C17.0658 11.7751 16.9412 11.9443 16.8997 12.1559L16.8166 12.4944V12.5367C17.1073 12.833 17.4395 12.9176 17.8547 12.8753C18.353 12.833 18.7682 12.6637 19.0588 12.3252L19.1419 12.1982L19.1834 11.9866L19.2249 11.8174V11.5635L19.1419 11.3519L18.9343 11.1826L18.6851 11.0557C18.8097 10.7595 18.8928 10.4633 18.8512 10.1247C18.8097 9.53229 18.3945 8.98218 17.7716 9.15145C17.3564 9.23608 17.0658 9.61693 16.9412 9.99777C16.8166 10.294 16.7751 10.5479 16.8166 10.8441C16.8582 11.1403 16.9827 11.3942 17.1903 11.6058ZM19.9308 12.6637C20.3012 11.6947 20.4571 10.6544 20.3876 9.61693L20.3045 9.15145H20.263V10.2517C20.1384 10.9287 19.9723 11.5212 19.5986 12.1136C19.3907 12.4467 19.1017 12.7193 18.7597 12.9047C18.4177 13.0901 18.0343 13.182 17.6471 13.1715C17.2734 13.1715 16.9412 13.0022 16.6505 12.706V12.7483L16.8166 13.2561C16.9827 13.637 17.481 13.9332 17.8962 14.0601C18.1038 14.1448 18.3114 14.1448 18.5191 14.0601C19.2249 13.8486 19.5986 13.2984 19.9308 12.6637ZM21.3011 14.7795V15.6682C21.4671 15.6258 21.6332 15.5835 21.8409 15.4566C22.1315 15.3296 22.4222 15.1604 22.5883 14.9065C22.7543 14.7372 22.8374 14.441 22.962 14.2294V14.1871H22.9204L22.5467 13.9755H22.4637L22.3806 14.1448C22.2976 14.314 22.0485 14.2717 22.0485 14.0601C22.0485 13.6793 22.3806 13.4677 22.7543 13.637C22.962 13.7639 23.2111 13.9755 23.4187 13.7216C23.5018 13.637 23.5433 13.4677 23.5433 13.3408V12.2829L23.4602 12.029C23.3357 11.4788 23.0865 11.0557 22.7543 10.6748C22.5467 10.3786 22.2561 10.2094 21.8824 10.0824C21.7163 9.95546 21.5502 9.91314 21.4256 9.91314C21.135 9.87082 20.9689 10.0824 20.8443 10.294L20.8028 10.5056L20.7197 10.971C20.6782 11.4365 20.5537 11.902 20.4291 12.2829L20.4706 12.3252L20.5952 12.4944C20.9689 13.0445 21.1765 13.637 21.2595 14.314L21.3011 14.7795ZM13.6609 13.9755C12.955 13.8486 12.4152 13.5523 12.1246 12.9176H12.0831L11.6678 13.7216C11.3772 14.2294 11.0035 14.6102 10.5467 14.9911C10.1315 15.2873 9.67476 15.5835 9.17649 15.7951H9.13497C9.09345 16.0067 9.13497 16.2183 9.21802 16.3452C9.38411 16.5568 9.59172 16.7684 9.79933 16.8953L10.0069 17.1069C10.2976 17.4031 10.7128 17.7416 11.0865 17.8686C11.2941 17.9532 11.4602 18.0802 11.6263 18.2494L12.0831 18.7572L12.4983 19.265L12.7059 19.3497L14.4498 19.7728C15.0727 19.8998 15.737 19.8998 16.4014 19.8575L17.3979 19.6459C18.0638 19.4265 18.6835 19.0821 19.2249 18.6303L20.0139 17.784C20.5048 17.1023 20.806 16.2982 20.8858 15.4566V15.245C20.8443 14.3563 20.6782 13.5523 20.3045 12.7483H20.263C19.9308 13.5523 19.4325 14.1871 18.5606 14.441C18.0208 14.6102 17.481 14.3987 17.0242 14.0601C16.4429 13.6793 16.3184 13.1292 16.2353 12.4521C16.2353 12.4098 16.2353 12.4098 16.2353 12.4521C15.9447 13.0445 15.4464 13.51 14.9066 13.8062C14.5329 14.0178 14.1177 14.1025 13.6609 13.9755ZM6.35296 17.4454H6.64362L7.14189 17.2762L7.30798 17.1915C7.76473 16.8107 8.263 16.6414 8.88584 16.6837L8.92736 16.6414C8.92736 16.4722 8.59518 16.3452 8.47061 16.3029C7.76473 16.1336 6.93428 16.4722 6.47753 17.0223C6.35296 17.1492 6.31144 17.2762 6.26992 17.4031V17.4454H6.35296ZM7.30798 17.7416L7.01732 18.1225C6.93428 18.2494 6.89276 18.461 6.85123 18.6726C6.9758 18.7149 7.14189 18.6726 7.3495 18.6303C7.68168 18.5033 8.01386 18.3764 8.38757 18.3341H8.42909C8.84431 17.9532 9.34258 17.7416 9.9239 17.6993V17.657C9.84085 17.3608 9.63324 17.1915 9.30106 17.1069C9.01236 17.0367 8.71271 17.0268 8.42015 17.0777C8.12758 17.1286 7.84814 17.2393 7.59864 17.4031L7.47407 17.5301L7.30798 17.7416ZM20.8443 17.4031L20.6782 17.6993H20.7197L20.8858 17.8263L21.218 18.1225L21.4256 18.2918L21.8409 18.461V18.4187C21.8409 18.2918 21.7578 18.2071 21.6748 18.0802C21.4671 17.784 21.218 17.5301 20.8443 17.4031C20.8443 17.3608 20.8443 17.3608 20.8443 17.4031C20.8028 17.4031 20.8028 17.4031 20.8443 17.4031ZM20.2215 18.461L19.9723 18.6303V18.6726L20.3876 18.8419L20.4706 18.8842C20.6367 18.9265 20.7613 19.0111 20.8858 19.1381L21.135 19.265L21.5087 19.5612H21.5502L21.5087 19.3074C21.3841 19.0111 21.2595 18.7149 21.0519 18.461C20.9274 18.2918 20.7613 18.1648 20.5537 18.0802H20.5121L20.2215 18.461ZM8.76127 18.5457C8.30452 18.8842 8.01386 19.265 7.80625 19.7305C7.68168 19.9844 7.64016 20.2383 7.68168 20.5345L7.76473 20.5768H7.97234L8.80279 20.4076L9.63324 20.196L10.3806 20.069L11.0865 19.8575C11.2941 19.8151 11.4602 19.6882 11.5433 19.5189C11.6678 19.3074 11.6678 19.0958 11.5433 18.8842C11.4187 18.6726 11.2941 18.5033 11.0865 18.3764L10.7543 18.1648L9.9239 18.0802C9.50867 18.1225 9.13497 18.2494 8.76127 18.5457ZM19.308 19.265L18.8928 19.6036C18.8839 19.6115 18.8768 19.6213 18.872 19.6322C18.8671 19.6432 18.8646 19.655 18.8646 19.667C18.8646 19.679 18.8671 19.6909 18.872 19.7019C18.8768 19.7128 18.8839 19.7226 18.8928 19.7305L19.0588 19.8151L19.9723 20.069L21.135 20.4499H21.2595L21.3011 20.3229C21.2595 19.7728 20.9689 19.4343 20.5121 19.265C20.3876 19.2227 20.3045 19.1804 20.263 19.2227C19.9723 19.1804 19.5571 19.1381 19.308 19.265Z" fill="#564341"/><path d="M19.6817 4.66594L19.6401 4.70825V4.75057L19.4325 5.25836L19.1834 5.46995L18.6436 5.72384L17.6055 5.93543H16.8997L16.2768 5.85079L15.2388 5.59689L14.9481 5.46995L14.699 5.343L14.4913 5.13142L14.4498 5.0891L14.4083 5.04678L14.3668 5.00447L14.3253 4.91983L14.7405 4.53899C15.7173 3.6824 16.8444 3.02193 18.0623 2.59244C18.5606 2.42318 19.1003 2.38086 19.6401 2.38086V2.42318L19.1834 2.93097L18.436 3.60803L17.6886 4.24277L17.564 4.45436C17.5225 4.5813 17.564 4.62362 17.6886 4.62362L19.1003 4.5813L19.6817 4.66594Z" fill="#ffe868"/><path d="M19.6817 4.66589C20.0969 4.75053 20.3876 5.08906 20.263 5.51222C20.1384 5.93538 19.8478 6.2316 19.5156 6.52781C19.0588 6.95097 18.5606 7.37413 18.0208 7.62803L17.564 7.88193L17.0658 8.17814H16.9827L17.1073 6.86634C17.1073 6.73939 17.2319 6.65476 17.3149 6.65476H17.6886C17.7717 6.65476 17.8962 6.61244 17.8962 6.48549L17.8132 6.40086L16.4429 6.2316L14.6575 6.14696C14.4499 6.14696 13.8685 6.06233 13.827 5.85075C13.7855 5.80843 13.827 5.7238 13.8685 5.59685C13.9516 5.34295 14.1177 5.13137 14.3253 4.91979L14.3668 5.00442L14.4083 5.04674L14.4499 5.08906L14.4914 5.13137L14.699 5.34295L14.9481 5.4699L15.2388 5.59685L16.2768 5.85075L16.8997 5.93538H17.6056L18.6436 5.7238L19.1834 5.4699L19.4325 5.25832L19.6402 4.75053V4.70821L19.6817 4.66589Z" fill="#ffbb49"/><path d="M9.38411 5.7662L9.05193 5.85084H9.01041L8.92736 5.89315L8.88584 5.93547H8.80279L8.76127 5.97779L8.67823 6.0201H8.6367L8.59518 6.06242H8.55366L8.51214 6.10474H8.47061L8.34605 6.18937H8.22148C8.22148 6.20059 8.2171 6.21135 8.20932 6.21929C8.20153 6.22723 8.19097 6.23168 8.17996 6.23168L8.09691 6.274H7.76473L7.72321 6.31632H7.01733L6.9758 6.35863H6.64362L6.6021 6.40095H6.39449L6.35297 6.44327C5.97926 5.89315 5.35643 5.7662 4.73359 5.85084C4.02771 5.97779 3.23878 6.31632 2.78203 6.86643C2.32528 7.41654 2.24224 8.0936 2.61594 8.68603C2.5329 8.68603 2.49137 8.72834 2.49137 8.77066L2.44985 8.81298L2.32528 8.93992V9.02456L2.15919 9.15151V9.23614L2.07615 9.27845V9.36309L1.9931 9.4054V9.49004L1.91006 9.57467L1.86854 9.61698V9.70162L1.82701 9.74393V9.78625L1.74397 9.87088L1.70245 9.9132V9.99783L1.66092 10.0401V10.0825L1.6194 10.1248V10.1671C1.57788 10.2094 1.53636 10.2094 1.57788 10.2517L1.53636 10.294V10.3787C1.49483 10.421 1.45331 10.421 1.49483 10.4633L1.45331 10.5056V10.5903L1.41179 10.6749V10.7172C1.37027 10.7595 1.32874 10.7595 1.37027 10.8018V10.8442L1.32874 10.9288L1.28722 10.9711V11.0134L1.2457 11.0557V11.225L0.830475 11.2673C0.705907 11.2673 0.58134 11.1827 0.498295 11.0557C0.290683 10.6749 0.332205 10.2517 0.456773 9.82857C0.74743 8.93992 1.12113 8.05128 1.66092 7.33191C2.78203 5.93547 4.31836 4.87756 6.10383 4.87756L6.93428 4.91988C7.80625 5.00451 8.6367 5.25841 9.38411 5.7662Z" fill="#ffc98a"/><path d="M9.38411 5.76611L9.63324 5.97769V6.02001H9.67477V6.06233H9.59172L9.50868 6.10464H9.46715L9.34259 6.14696H9.21802L9.1765 6.18928L9.01041 6.23159L8.96888 6.27391H8.88584L8.84432 6.31622H8.80279L8.71975 6.44317H8.6367L8.55366 6.52781L8.51214 6.57012L8.42909 6.61244V6.65475L8.13843 6.7817H8.05539L7.97234 6.82402H7.72321L7.64016 6.86634H6.93428V6.90865H6.72667L6.6021 6.95097L6.51906 6.73939L6.35297 6.44317L6.39449 6.40086H6.6021L6.64362 6.35854H6.9758L7.01733 6.31622H7.72321L7.76473 6.27391H8.09691L8.17996 6.23159C8.19097 6.23159 8.20153 6.22713 8.20932 6.2192C8.2171 6.21126 8.22148 6.2005 8.22148 6.18928H8.34605L8.47061 6.10464H8.51214L8.55366 6.06233H8.59518L8.6367 6.02001H8.67823L8.76127 5.97769L8.80279 5.93538H8.88584L8.92736 5.89306L9.01041 5.85075H9.05193L9.38411 5.76611Z" fill="#ffc293"/><path d="M6.35299 6.44324L6.51908 6.73946L6.35299 6.69714L6.1869 6.61251H5.85472L5.48101 6.69714L5.43949 6.73946H5.39797L5.31492 6.78177L5.06579 6.8664C4.48447 7.07799 3.94468 7.41652 3.44641 7.83968L2.94814 8.34747L2.8651 8.47442H2.90662V8.72832L3.2388 9.02453L3.32184 9.10917C3.36337 9.15148 3.40489 9.1938 3.36337 9.23611L2.98966 9.06685L2.61596 8.686C2.24226 8.09358 2.3253 7.41652 2.78205 6.8664C3.2388 6.31629 4.02773 5.97776 4.73361 5.85081C5.35645 5.76618 5.97928 5.89313 6.35299 6.44324Z" fill="#fffbd8"/><path d="M9.63321 5.97778C10.173 6.40095 10.5882 6.86642 10.9619 7.41654C11.0865 7.92433 11.1695 8.34749 11.1695 8.68602V9.61698C11.1695 10.1248 11.0865 10.5903 10.8374 11.0557L10.2145 12.029C9.46712 12.96 8.55363 13.7217 7.47404 14.3141C7.0173 14.568 6.56055 14.7372 6.1038 14.8219L4.65051 14.9488L4.31833 14.9911L4.11072 14.8642C3.19723 14.3564 2.49134 13.5947 2.0346 12.6214L1.78546 11.7751C2.15916 11.6905 2.57439 11.6482 2.94809 11.6905C3.1557 11.6905 3.40484 11.6905 3.57093 11.8597C3.73702 12.029 3.90311 12.2829 4.02768 12.5791C4.15224 12.7907 4.31833 12.9176 4.60899 12.96H5.64705L8.47058 12.4522C8.59515 12.4099 8.63667 12.4522 8.67819 12.5368L8.84429 12.7061V12.9176C8.84429 13.0023 8.96885 13.0869 9.0519 13.0869C9.17647 13.0446 9.21799 13.0023 9.21799 12.8753L9.17647 12.3252C9.13494 12.1136 9.0519 11.8597 8.80276 11.8174L8.55363 11.8597L8.05536 11.9867L6.56055 12.2829C6.1038 12.4099 5.64705 12.4522 5.19031 12.4945C4.85813 12.4945 4.52595 12.4099 4.35986 12.1136C4.19377 11.8174 4.11072 11.4366 4.11072 11.0557C4.0692 10.8018 4.0692 10.2517 3.6955 10.294L3.44636 10.3364L1.82698 11.0557V11.0134H1.86851L1.91003 10.9711L1.86851 10.9288L1.91003 10.8865V10.8018L1.95155 10.7595V10.7172L1.99307 10.6749V10.6326L2.0346 10.5903V10.5479L2.07612 10.5056V10.4633L2.11764 10.421V10.3787C2.15916 10.3364 2.20069 10.3364 2.15916 10.294V10.2517L2.20069 10.2094L2.24221 10.1671V10.0825L2.28373 10.0401V9.99783L2.36678 9.9132L2.4083 9.87088V9.78625L2.44982 9.74393V9.70161L2.53287 9.6593V9.57467L2.61591 9.53235V9.44772L2.74048 9.36308V9.27845L2.86505 9.19382V9.1515L2.94809 9.06687H2.98961L3.36332 9.23614L3.73702 9.32077C4.73356 9.53235 5.7301 8.98224 6.26989 8.17823C6.56055 7.79738 6.64359 7.41654 6.60207 6.95106L6.72664 6.90874H6.93425V6.86642H7.64013L7.72318 6.82411H7.97231L8.05536 6.78179H8.1384L8.42906 6.65484V6.61253L8.5121 6.57021L8.55363 6.52789L8.63667 6.44326H8.71972L8.80276 6.31631H8.84429L8.88581 6.274H8.96885L9.01038 6.23168L9.17647 6.18936L9.21799 6.14705H9.34256L9.46712 6.10473H9.50865L9.59169 6.06242H9.67474V6.0201H9.63321V5.97778ZM6.14532 9.57467C6.18685 9.78625 6.35294 9.9132 6.56055 9.95551C7.0173 10.0825 7.47404 9.9132 7.84775 9.61698C8.22145 9.32077 8.5121 8.77066 8.1384 8.30518L7.80622 8.13591C7.30795 7.96665 6.76816 8.30518 6.43598 8.68602L6.22837 8.98224C6.1038 9.1515 6.06228 9.4054 6.14532 9.57467Z" fill="#ffbc9c"/><path d="M6.51903 6.73938L6.60208 6.95096C6.6436 7.41644 6.56055 7.79728 6.2699 8.17813L6.39446 7.8396V7.75497L6.47751 7.54338C6.51903 7.50107 6.47751 7.41644 6.43599 7.37412H6.10381L6.02076 7.41644H5.97924L5.89619 7.45875H5.85467L5.77163 7.50107H5.7301V7.54338H5.68858L5.60554 7.5857H5.56401L5.48097 7.62802H5.43945L5.3564 7.67033H5.31488L5.27336 7.71265H5.19031L5.14879 7.75497L4.89965 7.8396L4.609 8.00886L4.56747 8.05118L4.48443 8.13581L4.35986 8.26276H4.27682L4.19377 8.38971H4.11073L3.90311 8.64361H3.82007L3.48789 8.98214V9.1514L3.52941 9.19372L3.73702 9.32067L3.36332 9.23603C3.40484 9.19372 3.36332 9.1514 3.3218 9.10909L3.23875 9.02445L2.90657 8.72824V8.47434H2.86505L2.9481 8.34739L3.44637 7.8396C3.94464 7.41644 4.48443 7.07791 5.06574 6.86632L5.31488 6.78169L5.39792 6.73938H5.43945L5.48097 6.69706L5.85467 6.61243H6.18685L6.35294 6.69706L6.51903 6.73938Z" fill="#fffdeb"/><path d="M6.26992 8.17815C5.73013 8.98216 4.73359 9.53227 3.73705 9.32069L3.52944 9.19374L3.48792 9.15143V8.98216L3.82009 8.64363H3.90314L4.11075 8.38974H4.1938L4.27684 8.26279H4.35989L4.48445 8.13584L4.5675 8.05121L4.60902 8.00889L4.89968 7.83962L5.14881 7.75499L5.19034 7.71268H5.27338L5.3149 7.67036H5.35643L5.43947 7.62804H5.48099L5.56404 7.58573H5.60556L5.68861 7.54341H5.73013V7.50109H5.77165L5.8547 7.45878H5.89622L5.97926 7.41646H6.02079L6.10383 7.37415H6.43601C6.47753 7.41646 6.51906 7.50109 6.47753 7.54341L6.39449 7.75499V7.83962L6.26992 8.17815Z" fill="#fff"/><path d="M10.9619 7.4165L11.5848 8.47441C11.7924 8.93989 11.8754 9.44768 11.9169 9.9978V10.4633L11.8754 10.8864C11.7924 11.5212 11.6263 12.1559 11.4187 12.7484L11.2526 13.1292H11.128L11.0035 13.2561H10.9204L10.5052 13.51L10.256 13.6793L10.0484 13.8063L9.71626 14.0178L9.30103 14.1871L8.26297 14.6103L6.8512 14.9065L6.56055 14.9488H6.4775L6.39446 14.9911H6.02075L5.64705 15.0334H4.94117C4.85813 15.0757 4.77508 15.0334 4.65051 14.9488L6.1038 14.8218C6.56055 14.7372 7.01729 14.568 7.47404 14.3141C8.55363 13.7216 9.46712 12.9599 10.2145 12.029L10.8374 11.0557C11.0865 10.5902 11.1695 10.1247 11.1695 9.61695V8.68599C11.1695 8.34746 11.0865 7.9243 10.9619 7.4165Z" fill="#f28773"/><path d="M12.2492 12.1136C12.4568 12.4098 12.8305 12.5368 13.1627 12.5791C13.9101 12.6214 14.5329 12.3675 15.1142 11.8597L15.4879 11.3942C16.0693 10.3787 16.3184 9.1938 16.1523 8.00894C16.1523 7.96662 16.1523 7.92431 16.1938 7.96662C16.3599 8.22052 16.443 8.51674 16.526 8.81295C16.609 9.36306 16.526 9.87086 16.443 10.421C16.2869 11.1321 16.0644 11.8265 15.7786 12.4945C15.571 12.8753 15.1973 13.1715 14.8236 13.4254C14.4914 13.637 14.2007 13.7216 13.827 13.637L13.1212 13.4254C12.6644 13.2138 12.2492 12.6637 12.2492 12.1136ZM6.14538 9.57464C6.06233 9.40538 6.10386 9.15148 6.22842 8.98221L6.43604 8.686C6.76822 8.30515 7.30801 7.96662 7.80628 8.13589L8.13846 8.30515C8.51216 8.77063 8.2215 9.32074 7.8478 9.61696C7.4741 9.91317 7.01735 10.0824 6.5606 9.95549C6.35299 9.91317 6.1869 9.78622 6.14538 9.57464Z" fill="#fff"/><path d="M14.1592 10.844C13.9101 11.1403 13.6194 11.2249 13.2457 11.1826C12.5814 11.0556 12.3322 10.2516 12.4568 9.61687C12.5398 9.19371 12.7059 8.77054 13.0796 8.51665C13.7855 7.96653 14.5329 8.55896 14.616 9.32065C14.6575 9.91308 14.5329 10.4209 14.1592 10.844Z" fill="#fff"/><path d="M2.61597 8.68591L2.98967 9.06676H2.94815L2.8651 9.15139V9.19371L2.74054 9.27834V9.36297L2.61597 9.44761V9.53224L2.53292 9.57455V9.65919L2.44988 9.7015V9.74382L2.40836 9.78614V9.87077L2.36683 9.91308L2.28379 9.99772V10.04L2.24227 10.0823V10.167L2.20074 10.2093L2.15922 10.2516V10.2939C2.20074 10.3362 2.15922 10.3362 2.1177 10.3786V10.4209L2.07618 10.4632V10.5055L2.03465 10.5478V10.5901L1.99313 10.6325V10.6748L1.95161 10.7171V10.7594L1.91009 10.8017V10.8864L1.86856 10.9287L1.91009 10.971L1.86856 11.0133H1.82704V11.0556L1.24573 11.2249V11.0556L1.28725 11.0133V10.971L1.32877 10.9287L1.3703 10.844V10.8017C1.32877 10.7594 1.3703 10.7594 1.41182 10.7171V10.6748L1.45334 10.5901V10.5055L1.49486 10.4632C1.45334 10.4209 1.49486 10.4209 1.53638 10.3786V10.2939L1.57791 10.2516C1.53638 10.2093 1.57791 10.2093 1.61943 10.167V10.1247L1.66095 10.0823V10.04L1.70247 9.99772V9.91308L1.744 9.87077L1.82704 9.78614V9.74382L1.86856 9.7015V9.61687L1.91009 9.57455L1.99313 9.48992V9.40529L2.07618 9.36297V9.27834L2.15922 9.23602V9.15139L2.32531 9.02444V8.93981L2.44988 8.81286L2.4914 8.77055C2.4914 8.72823 2.53292 8.68591 2.61597 8.68591Z" fill="#ffc293"/><path d="M18.6852 11.0557C18.5606 11.3519 18.353 11.5635 18.1454 11.6904C17.8132 11.902 17.481 11.8597 17.1904 11.6058C16.9827 11.3942 16.8582 11.1403 16.8167 10.8441C16.7751 10.5479 16.8167 10.294 16.9412 9.99776C17.0658 9.61692 17.3564 9.23607 17.7717 9.15144C18.3945 8.98217 18.8097 9.53228 18.8513 10.1247C18.8928 10.4632 18.8097 10.7595 18.6852 11.0557Z" fill="#fff"/><path d="M19.9308 12.6637C19.5986 13.2985 19.2249 13.8486 18.519 14.0602C18.3114 14.1448 18.1038 14.1448 17.8962 14.0602C17.481 13.9332 16.9827 13.637 16.8166 13.2562L16.6505 12.7484V12.7061C16.9412 13.0023 17.2734 13.1715 17.6471 13.1715C18.4775 13.1715 19.1419 12.7907 19.5986 12.1136C19.9723 11.5212 20.1384 10.9288 20.263 10.2517V9.15149H20.3045L20.3875 9.61697V10.8018C20.3045 11.3943 20.1799 12.1136 19.9308 12.6637Z" fill="#fff"/><path d="M21.8824 10.0824L22.0485 10.294V10.3786L22.173 10.4633V10.5479L22.3391 10.6749V10.7595L22.4637 10.8441V10.9288L22.5882 11.0134V11.098L22.6713 11.1403V11.225L22.7543 11.2673V11.3519L22.9204 11.4789V11.5635L23.0035 11.6481H23.0865V11.7328H23.128L23.4602 12.029L23.5433 12.2829V13.3408C23.5433 13.4677 23.5017 13.637 23.4187 13.7216C23.2111 13.9755 22.9619 13.7639 22.7543 13.637C22.3806 13.4677 22.0485 13.6793 22.0485 14.0602C22.0485 14.2717 22.2976 14.3141 22.3806 14.1448L22.4637 13.9755H22.5467L22.9204 14.1871C22.6298 14.6526 22.2561 14.9488 21.7993 15.1181H21.6332C21.4256 15.0757 21.3841 14.9911 21.301 14.7795L21.2595 14.3141C21.1765 13.637 20.9689 13.0446 20.5952 12.4945L20.4706 12.3252L20.4291 12.2829C20.5536 11.902 20.6782 11.4365 20.7197 10.9711L20.8028 10.5056L20.8443 10.294C20.9689 10.0824 21.135 9.87085 21.4256 9.91316C21.5502 9.91316 21.7163 9.95548 21.8824 10.0824Z" fill="#f28773"/><path d="M11.917 9.9978L11.9585 10.9711C11.917 11.6481 11.7509 12.2829 11.5433 12.9176L11.3772 13.3408C11.1696 13.7639 10.8789 14.1448 10.5882 14.441L10.4221 14.568C10.0484 14.9065 9.5917 15.1604 9.13495 15.372L9.46713 15.1181L9.63322 14.9911L9.79931 14.8219C10.3391 14.3987 10.8789 13.8063 11.2526 13.1292L11.4187 12.7484C11.6263 12.1559 11.7924 11.5212 11.8754 10.8864L11.917 10.4633V9.9978Z" fill="#ad6560"/><path d="M21.8824 10.0824C22.2561 10.2093 22.5467 10.3786 22.7544 10.6748C23.0865 11.0557 23.3357 11.4788 23.4602 12.0289L23.1281 11.7327H23.0865V11.6481H23.0035L22.9204 11.5635V11.4788L22.7544 11.3519V11.2673L22.6713 11.2249V11.1403L22.5883 11.098V11.0134L22.4637 10.9287V10.8441L22.3391 10.7595V10.6748L22.173 10.5479V10.4632L22.0485 10.3786V10.294L21.8824 10.0824Z" fill="#f4986e"/><path d="M3.69553 11.2672L3.65401 11.098C3.61248 11.0133 3.57096 10.9287 3.44639 10.9287L3.07269 11.0133L2.5329 11.1403L3.65401 10.6748H3.69553V11.2672Z" fill="#ad6560"/><path d="M13.2457 11.1827C13.6194 11.225 13.91 11.1404 14.1592 10.8442H14.2422L14.3668 10.8018H14.4498L14.5329 10.7595L14.9066 10.8018V10.8442H14.9896L15.0727 10.9288L15.1972 10.9711L15.2803 11.0981C15.2913 11.0981 15.3019 11.1025 15.3096 11.1104C15.3174 11.1184 15.3218 11.1291 15.3218 11.1404C15.1142 11.5212 14.8235 11.7751 14.4914 11.9867C14.1592 12.1983 13.7855 12.3252 13.3702 12.3252L13.3287 12.2829L13.2457 12.1983L13.1626 12.0713L13.0796 11.8174V11.5212L13.2457 11.1827Z" fill="#81564f"/><path d="M3.6955 11.2672L3.77854 11.6481C3.82006 11.902 3.94463 12.1136 4.0692 12.3251C4.35986 12.8329 4.85813 12.8753 5.39792 12.8329L6.43598 12.706L8.59515 12.2405C8.71972 12.2405 8.76124 12.4098 8.80276 12.4944L8.84429 12.706L8.67819 12.5367C8.63667 12.4521 8.59515 12.4098 8.47058 12.4521L5.64705 12.9599H4.60899C4.31833 12.9176 4.15224 12.7906 4.02768 12.579C3.90311 12.2828 3.73702 12.0289 3.57093 11.8597C3.40484 11.6904 3.1557 11.6904 2.94809 11.6904C2.57439 11.6481 2.15916 11.6904 1.78546 11.775V11.4788L2.53287 11.1403L3.07266 11.0133L3.44636 10.9287C3.57093 10.9287 3.61245 11.0133 3.65397 11.098L3.6955 11.2672Z" fill="#f28773"/><path d="M18.6852 11.0557L18.9343 11.1826L19.1419 11.3519L19.225 11.5635V11.8174L19.1834 11.9866L19.1419 12.1982L19.0589 12.3252C18.7682 12.6637 18.353 12.8329 17.8547 12.8753C17.4395 12.9176 17.1073 12.8329 16.8167 12.5367V12.4944L16.8997 12.1559C16.9412 11.9443 17.0658 11.775 17.1904 11.6058C17.481 11.8597 17.8132 11.902 18.1454 11.6904C18.353 11.5635 18.5606 11.3519 18.6852 11.0557Z" fill="#81564f"/><path d="M8.80277 12.4945C8.76124 12.4098 8.71972 12.2406 8.59515 12.2406L8.71972 12.1982L8.76124 12.2406L8.80277 12.4945Z" fill="#ad6560"/><path d="M18.5605 14.441C18.6021 14.9065 18.9342 15.2027 19.308 15.372C19.5986 15.4989 19.8893 15.5412 20.1799 15.5836C20.4291 15.6259 20.6782 15.5836 20.8858 15.4566C20.806 16.2982 20.5048 17.1023 20.0138 17.784L19.2249 18.6303C18.6835 19.0821 18.0638 19.4266 17.3979 19.6459L16.4014 19.8575C15.737 19.8998 15.0727 19.8998 14.4498 19.7729C13.7878 19.6535 13.1354 19.4838 12.4983 19.2651L12.083 18.7573L11.6263 18.2495C11.4602 18.0802 11.2941 17.9533 11.0865 17.8686C10.7128 17.7417 10.2976 17.4031 10.0069 17.1069L9.7993 16.8954C9.59169 16.7684 9.38408 16.5568 9.21799 16.3452C9.13494 16.2183 9.09342 16.0067 9.13494 15.7951H9.17646C9.67473 15.5836 10.1315 15.2873 10.5467 14.9911L10.6713 15.0334C10.8374 15.245 11.128 15.3297 11.4187 15.3297C11.7924 15.3297 12.2076 15.2873 12.5813 15.1604C13.0796 15.0334 13.4118 14.7372 13.6194 14.2717V14.1025L13.6609 13.9755C14.1176 14.1025 14.5329 14.0178 14.9066 13.8063C15.4464 13.5101 15.9446 13.0446 16.2353 12.4521C16.2353 12.4098 16.2353 12.4098 16.2353 12.4521C16.3183 13.1292 16.4429 13.6793 17.0242 14.0602C17.481 14.3987 18.0208 14.6103 18.5605 14.441ZM15.9862 14.4833C15.6955 14.3564 15.3633 14.2294 15.2803 13.9332L15.2387 13.8909L15.1142 13.9755C14.9481 14.1871 15.1557 14.3987 15.3218 14.4833C15.7785 14.7372 16.2768 14.8219 16.7751 14.6949V14.6526L15.9862 14.4833Z" fill="#ffbc9c"/><path d="M20.8859 15.4565C20.6782 15.5835 20.4291 15.6258 20.18 15.5835C19.8893 15.5412 19.5987 15.4988 19.308 15.3719C18.9343 15.2026 18.6021 14.9064 18.5606 14.4409C19.4326 14.187 19.9308 13.5523 20.263 12.7483H20.3045C20.6782 13.5523 20.8443 14.3563 20.8859 15.245V15.4565ZM13.6609 13.9755L13.6194 14.1024V14.2717C13.4118 14.7372 13.0796 15.0334 12.5814 15.1603C12.2077 15.2873 11.7924 15.3296 11.4187 15.3296C11.1281 15.3296 10.8374 15.245 10.6713 15.0334L10.5468 14.9911C11.0035 14.6102 11.3772 14.2294 11.6679 13.7216L12.0831 12.9176H12.1246C12.4153 13.5523 12.9551 13.8485 13.6609 13.9755Z" fill="#f28773"/><path d="M11.2526 13.1292C10.8789 13.8062 10.3391 14.3986 9.79933 14.8218L9.63324 14.9911L9.46715 15.118L9.13497 15.3719C8.18309 15.8143 7.106 15.8895 6.10383 15.5835C5.52251 15.4565 4.9412 15.2873 4.31836 14.9911L4.65054 14.9487C4.77511 15.0334 4.85815 15.0757 4.9412 15.0334H5.64708L6.02078 14.9911H6.39448L6.47753 14.9487H6.56057L6.85123 14.9064L8.263 14.6102L9.30106 14.1871L9.71628 14.0178L10.0485 13.8062L10.2561 13.6793L10.5052 13.51L10.9204 13.2561H11.0035L11.128 13.1292H11.2526Z" fill="#f67954"/><path d="M15.9862 14.4833L16.7751 14.6526V14.6949C16.2769 14.8218 15.7786 14.7372 15.3218 14.4833C15.1557 14.3987 14.9481 14.1871 15.1142 13.9755L15.2388 13.8909L15.2803 13.9332C15.3634 14.2294 15.6955 14.3563 15.9862 14.4833Z" fill="#564341"/><path d="M22.9205 14.1871H22.962V14.2295C22.8374 14.441 22.7544 14.7372 22.5883 14.9065C22.4222 15.1604 22.1315 15.3297 21.8409 15.4566C21.6333 15.5836 21.4672 15.6259 21.3011 15.6682V14.7796C21.3841 14.9911 21.4257 15.0758 21.6333 15.1181H21.7994C22.2561 14.9488 22.6298 14.6526 22.9205 14.1871Z" fill="#ad6560"/><path d="M8.47059 16.303L8.22145 16.5569L7.43253 16.98L6.35294 17.4455H6.2699V17.4032C6.31142 17.2762 6.35294 17.1493 6.47751 17.0223C6.93426 16.4722 7.76471 16.1337 8.47059 16.303Z" fill="#f28773"/><path d="M8.47061 16.3029C8.59518 16.3452 8.92736 16.4721 8.92736 16.6414L8.88584 16.6837C8.263 16.6414 7.76473 16.8107 7.30798 17.1915L7.14189 17.2761L6.64362 17.4454H6.35297L7.43255 16.9799L8.22148 16.5568L8.47061 16.3029Z" fill="#ad6560"/><path d="M9.30106 17.1069C9.25954 17.3608 9.13497 17.5724 8.92736 17.6994L8.34605 18.1225L8.09691 18.2495V18.1225L8.05539 18.0802H8.01387L7.97234 18.0379H7.93082L7.8893 17.9956H7.84778L7.80625 17.9533H7.76473C7.72321 17.9109 7.72321 17.8686 7.68169 17.9109L7.64016 17.8686H7.59864L7.55712 17.8263H7.43255L7.34951 17.784H7.30798V17.7417L7.47407 17.5301L7.59864 17.4031C7.80625 17.2762 8.01387 17.1492 8.263 17.1069C8.6367 17.0223 8.96888 17.0223 9.30106 17.1069Z" fill="#f28773"/><path d="M9.30108 17.1069C9.63326 17.1916 9.84088 17.3608 9.92392 17.657V17.6994C9.34261 17.7417 8.84434 17.9533 8.42911 18.3341H8.38759C8.01389 18.3764 7.68171 18.5034 7.34953 18.6303C7.14191 18.6726 6.97582 18.715 6.85126 18.6726L7.72323 18.4187L8.09693 18.2495L8.34607 18.1225L8.92738 17.6994C9.13499 17.5724 9.25956 17.3608 9.30108 17.1069Z" fill="#ad6560"/><path d="M20.8858 17.8262L20.8443 17.4031C20.8028 17.4031 20.8028 17.4031 20.8443 17.4031C20.8443 17.3608 20.8443 17.3608 20.8443 17.4031C21.218 17.53 21.4672 17.7839 21.6748 18.0801C21.7578 18.2071 21.8409 18.2917 21.8409 18.4187V18.461L21.4256 18.2917L21.218 18.1225L20.8858 17.8262Z" fill="#f67954"/><path d="M20.8443 17.4031L20.8858 17.8262L20.7197 17.6993H20.6782L20.8443 17.4031Z" fill="#ad6560"/><path d="M7.308 17.7417V17.784H7.34953L7.43257 17.8263H7.55714L7.59866 17.8686H7.64018L7.68171 17.911C7.72323 17.8686 7.72323 17.911 7.76475 17.9533H7.80627L7.8478 17.9956H7.88932L7.93084 18.0379H7.97236L8.01389 18.0802H8.05541L8.09693 18.1225V18.2495L7.72323 18.4188L6.85126 18.6727C6.89278 18.4611 6.9343 18.2495 7.01735 18.1225L7.308 17.7417Z" fill="#f4986e"/><path d="M21.0519 18.461L20.9689 18.5457V18.588H20.9274L20.7613 18.7149H20.7198L20.6782 18.7573L20.6367 18.7996L20.4706 18.8842L20.3876 18.8419L20.2215 18.461L20.5122 18.0802H20.5537C20.7613 18.1648 20.9274 18.2918 21.0519 18.461Z" fill="#f67954"/><path d="M11.0866 18.3764L11.1696 18.6303V18.7996C11.0866 19.0535 10.9205 19.2651 10.7128 19.4343L10.1315 19.8575L9.25956 18.8842H9.17652L9.01043 18.6726H8.92738L8.76129 18.5457C9.13499 18.2495 9.5087 18.1225 9.92392 18.0802L10.7544 18.1648L11.0866 18.3764Z" fill="#f28773"/><path d="M11.0865 18.3763C11.2941 18.5033 11.4187 18.6726 11.5433 18.8841C11.6678 19.0957 11.6678 19.3073 11.5433 19.5189C11.4602 19.6881 11.2941 19.8151 11.0865 19.8574L10.3807 20.069L9.63325 20.1959L8.8028 20.4075C9.25954 20.2806 9.67477 20.069 10.1315 19.8574L10.7128 19.4342C10.9204 19.265 11.0865 19.0534 11.1696 18.7995V18.6302L11.0865 18.3763ZM20.2215 18.461L20.3876 18.8418L19.9723 18.6726V18.6302L20.2215 18.461Z" fill="#ad6560"/><path d="M21.052 18.4611C21.2596 18.715 21.3841 19.0112 21.5087 19.3074L21.5502 19.5613H21.5087L21.135 19.2651L20.8859 19.1381C20.7613 19.0112 20.6367 18.9265 20.4706 18.8842L20.6367 18.7996L20.6782 18.7573L20.7198 18.715H20.7613L20.9274 18.588H20.9689V18.5457L21.052 18.4611ZM8.76129 18.5457L8.92738 18.6726H9.01043L9.17652 18.8842H9.25956L10.1315 19.8575C9.67479 20.0691 9.25956 20.2807 8.80282 20.4076L7.97237 20.5769H7.76475L7.68171 20.5346C7.64019 20.2383 7.68171 19.9844 7.80628 19.7305C8.01389 19.2651 8.30455 18.8842 8.76129 18.5457Z" fill="#f4986e"/><path d="M20.263 19.2227L19.6402 19.8575L19.3495 19.5189L19.308 19.2651C19.5571 19.1381 19.9723 19.1804 20.263 19.2227Z" fill="#f67954"/><path d="M20.263 19.2227C20.3045 19.1804 20.3875 19.2227 20.5121 19.265C20.9689 19.4343 21.2595 19.7728 21.301 20.323L21.2595 20.4499H21.1349L19.9723 20.0691L19.6401 19.8575L20.263 19.2227Z" fill="#f4986e"/><path d="M19.308 19.265L19.3495 19.5189L19.6401 19.8574L19.9723 20.069L19.0588 19.8151L18.8927 19.7305C18.8839 19.7226 18.8768 19.7128 18.872 19.7018C18.8671 19.6909 18.8646 19.679 18.8646 19.667C18.8646 19.655 18.8671 19.6431 18.872 19.6322C18.8768 19.6213 18.8839 19.6115 18.8927 19.6035L19.308 19.265Z" fill="#ad6560"/></g><defs><clipPath id="clip0_2062_2614"><path fill="#fff" transform="translate(0 2)" d="M0 0H24V19H0z"/></clipPath></defs></svg>