<svg width="24" height="24" viewBox="0 0 24 24" fill="none" xmlns="http://www.w3.org/2000/svg"><g clip-path="url(#a)"><path d="M23.748 4.482C23.494 4.358 23.384 4.595 23.236 4.716C23.185 4.755 23.142 4.806 23.099 4.852C22.727 5.249 22.293 5.509 21.726 5.478C20.897 5.432 20.189 5.692 19.563 6.326C19.43 5.544 18.988 5.078 18.316 4.778C17.964 4.622 17.608 4.467 17.361 4.128C17.189 3.887 17.142 3.618 17.056 3.354C17.001 3.194 16.946 3.031 16.763 3.004C16.563 2.973 16.485 3.14 16.407 3.28C16.094 3.852 15.973 4.482 15.985 5.12C16.012 6.556 16.618 7.7 17.823 8.513C17.96 8.606 17.995 8.7 17.952 8.836C17.87 9.116 17.772 9.388 17.686 9.669C17.631 9.848 17.549 9.886 17.357 9.809C16.7083 9.53019 16.119 9.12963 15.621 8.629C14.764 7.801 13.99 6.887 13.024 6.171C12.8002 6.00562 12.5704 5.84851 12.335 5.7C11.35 4.743 12.465 3.957 12.723 3.864C12.993 3.766 12.816 3.432 11.944 3.436C11.072 3.44 10.274 3.731 9.257 4.12C9.10588 4.17791 8.95039 4.22372 8.792 4.257C7.84163 4.07793 6.86965 4.04355 5.909 4.155C4.024 4.365 2.519 5.257 1.412 6.778C0.082003 8.606 -0.230997 10.684 0.152003 12.85C0.555003 15.134 1.721 17.025 3.512 18.503C5.37 20.036 7.509 20.787 9.95 20.643C11.432 20.558 13.083 20.359 14.944 18.783C15.414 19.017 15.906 19.11 16.724 19.18C17.354 19.239 17.96 19.15 18.429 19.052C19.164 18.896 19.113 18.215 18.848 18.091C16.693 17.087 17.166 17.496 16.735 17.165C17.831 15.869 19.481 14.523 20.127 10.162C20.177 9.815 20.134 9.597 20.127 9.317C20.123 9.147 20.162 9.08 20.357 9.061C20.898 9.00487 21.4229 8.84351 21.902 8.586C23.298 7.823 23.862 6.571 23.995 5.069C24.015 4.839 23.991 4.603 23.748 4.482ZM11.581 18C9.492 16.358 8.479 15.817 8.061 15.84C7.669 15.864 7.74 16.311 7.826 16.603C7.916 16.891 8.033 17.089 8.197 17.342C8.311 17.509 8.389 17.758 8.084 17.945C7.411 18.361 6.242 17.805 6.187 17.778C4.826 16.976 3.687 15.918 2.886 14.471C2.112 13.078 1.662 11.584 1.588 9.989C1.568 9.603 1.681 9.467 2.065 9.397C2.56911 9.30053 3.08563 9.28735 3.594 9.358C5.726 9.67 7.54 10.623 9.062 12.132C9.93 12.992 10.587 14.019 11.264 15.023C11.984 16.089 12.758 17.105 13.744 17.937C14.092 18.229 14.369 18.451 14.635 18.614C13.833 18.704 12.495 18.724 11.581 18ZM12.581 11.56C12.5808 11.5103 12.5928 11.4614 12.6157 11.4173C12.6387 11.3733 12.6721 11.3355 12.7129 11.3072C12.7538 11.279 12.8009 11.2611 12.8502 11.2551C12.8996 11.2492 12.9496 11.2553 12.996 11.273C13.0552 11.2942 13.1062 11.3334 13.1421 11.385C13.1779 11.4366 13.1968 11.4982 13.196 11.561C13.1961 11.6016 13.1882 11.6418 13.1726 11.6793C13.1571 11.7168 13.1342 11.7509 13.1053 11.7795C13.0765 11.808 13.0422 11.8306 13.0046 11.8458C12.9669 11.861 12.9266 11.8685 12.886 11.868C12.8457 11.8681 12.8058 11.8602 12.7686 11.8448C12.7314 11.8293 12.6976 11.8065 12.6693 11.7779C12.641 11.7492 12.6187 11.7151 12.6037 11.6777C12.5887 11.6403 12.5803 11.6003 12.581 11.56ZM15.691 13.156C15.491 13.237 15.292 13.307 15.101 13.316C14.8137 13.326 14.5317 13.2363 14.303 13.062C14.029 12.832 13.833 12.704 13.751 12.304C13.7227 12.1085 13.7281 11.9096 13.767 11.716C13.837 11.389 13.759 11.179 13.528 10.989C13.341 10.833 13.102 10.79 12.84 10.79C12.7503 10.7848 12.6632 10.758 12.586 10.712C12.5537 10.6974 12.5249 10.6761 12.5014 10.6497C12.4779 10.6232 12.4602 10.5921 12.4494 10.5583C12.4387 10.5246 12.4351 10.489 12.439 10.4538C12.4429 10.4186 12.4541 10.3846 12.472 10.354C12.5 10.3 12.632 10.168 12.664 10.144C13.02 9.942 13.431 10.008 13.81 10.16C14.162 10.304 14.428 10.568 14.811 10.942C15.202 11.393 15.273 11.518 15.496 11.856C15.672 12.121 15.832 12.393 15.941 12.704C16.008 12.899 15.922 13.058 15.691 13.156Z" fill="#4d6bfe"/></g><defs><clipPath id="a"><path fill="#fff" d="M0 0H24V24H0z"/></clipPath></defs></svg>