<svg width="24" height="24" viewBox="0 0 24 24" fill="none" xmlns="http://www.w3.org/2000/svg"><path d="M10.042 15.026 17.602 9.035C17.973 8.741 18.502 8.855 18.679 9.312 19.609 11.718 19.193 14.609 17.344 16.594 15.495 18.58 12.921 19.015 10.569 18.023L8 19.3C11.685 22.004 16.16 21.336 18.957 18.332 21.175 15.951 21.862 12.705 21.219 9.778L21.225 9.784C20.294 5.485 21.454 3.766 23.831.252 23.887.169 23.944.085 24 0L20.872 3.358V3.348L10.04 15.028M8.245 16.963C5.226 14.207 5.746 9.943 8.323 7.484 10.228 5.664 13.349 4.921 16.074 6.013L19 4.722C18.473 4.358 17.797 3.966 17.022 3.691 13.517 2.313 9.322 2.999 6.473 5.719 3.733 8.337 2.871 12.362 4.351 15.797 5.456 18.364 3.644 20.18 1.819 22.013 1.172 22.662.523 23.312 0 24L8.243 16.965" fill="currentColor"/></svg>