<svg width="24" height="24" viewBox="0 0 24 24" fill="none" xmlns="http://www.w3.org/2000/svg"><path d="M13 9.00001C12.7348 9.00001 12.4804 8.89466 12.2929 8.70712C12.1053 8.51958 12 8.26523 12 8.00001V5.06101C12.0442 4.83454 12.0087 4.59976 11.8995 4.39647C11.7904 4.19318 11.6143 4.03389 11.4011 3.9456C11.1879 3.85732 10.9508 3.84547 10.7298 3.91207C10.5089 3.97867 10.3178 4.11961 10.189 4.31101L3.35397 11.147C3.24188 11.2591 3.15297 11.3922 3.09231 11.5386C3.03165 11.685 3.00043 11.842 3.00043 12.0005C3.00043 12.159 3.03165 12.316 3.09231 12.4624C3.15297 12.6089 3.24188 12.7419 3.35397 12.854L10.189 19.689C10.3178 19.8804 10.5089 20.0214 10.7298 20.088C10.9508 20.1546 11.1879 20.1427 11.4011 20.0544C11.6143 19.9661 11.7904 19.8068 11.8995 19.6036C12.0087 19.4003 12.0442 19.1655 12 18.939V16C12 15.7348 12.1053 15.4804 12.2929 15.2929C12.4804 15.1054 12.7348 15 13 15H19C19.2652 15 19.5195 14.8947 19.7071 14.7071C19.8946 14.5196 20 14.2652 20 14V10C20 9.7348 19.8946 9.48044 19.7071 9.29291C19.5195 9.10537 19.2652 9.00001 19 9.00001H13Z" stroke="currentColor" stroke-linecap="round" stroke-linejoin="round"/></svg>