<svg width="24" height="24" viewBox="0 0 24 24" fill="none" xmlns="http://www.w3.org/2000/svg"><path d="M11 9C11.2652 9 11.5196 8.89464 11.7071 8.7071C11.8946 8.51957 12 8.26521 12 8V5.061C11.9558 4.83453 11.9913 4.59975 12.1004 4.39646C12.2096 4.19316 12.3857 4.03387 12.5989 3.94559C12.8121 3.8573 13.0492 3.84545 13.2701 3.91205C13.491 3.97865 13.6821 4.1196 13.811 4.311L20.647 11.147C20.7591 11.2591 20.848 11.3921 20.9087 11.5386C20.9693 11.685 21.0005 11.842 21.0005 12.0005C21.0005 12.159 20.9693 12.316 20.9087 12.4624C20.848 12.6089 20.7591 12.7419 20.647 12.854L13.811 19.689C13.6821 19.8804 13.491 20.0213 13.2701 20.0879C13.0492 20.1545 12.8121 20.1427 12.5989 20.0544C12.3857 19.9661 12.2096 19.8068 12.1004 19.6035C11.9913 19.4002 11.9558 19.1655 12 18.939V16C12 15.7348 11.8946 15.4804 11.7071 15.2929C11.5196 15.1054 11.2652 15 11 15H5C4.73478 15 4.48043 14.8946 4.29289 14.7071C4.10536 14.5196 4 14.2652 4 14V10C4 9.73478 4.10536 9.48043 4.29289 9.29289C4.48043 9.10535 4.73478 9 5 9H11Z" stroke="currentColor" stroke-linecap="round" stroke-linejoin="round"/></svg>