<svg width="24" height="24" viewBox="0 0 24 24" fill="none" xmlns="http://www.w3.org/2000/svg"><path d="M9.00001 13C9.00001 12.7348 8.89466 12.4804 8.70712 12.2929C8.51958 12.1053 8.26523 12 8.00001 12H5.06101C4.83454 12.0442 4.59976 12.0087 4.39647 11.8995C4.19318 11.7904 4.03389 11.6143 3.9456 11.4011C3.85732 11.1879 3.84547 10.9508 3.91207 10.7298C3.97867 10.5089 4.11961 10.3178 4.31101 10.189L11.147 3.35397C11.2591 3.24188 11.3922 3.15297 11.5386 3.09231C11.685 3.03165 11.842 3.00043 12.0005 3.00043C12.159 3.00043 12.316 3.03165 12.4624 3.09231C12.6089 3.15297 12.7419 3.24188 12.854 3.35397L19.689 10.189C19.8804 10.3178 20.0214 10.5089 20.088 10.7298C20.1546 10.9508 20.1427 11.1879 20.0544 11.4011C19.9661 11.6143 19.8068 11.7904 19.6036 11.8995C19.4003 12.0087 19.1655 12.0442 18.939 12H16C15.7348 12 15.4804 12.1053 15.2929 12.2929C15.1054 12.4804 15 12.7348 15 13V19C15 19.2652 14.8947 19.5195 14.7071 19.7071C14.5196 19.8946 14.2652 20 14 20H10C9.7348 20 9.48044 19.8946 9.29291 19.7071C9.10537 19.5195 9.00001 19.2652 9.00001 19V13Z" stroke="currentColor" stroke-linecap="round" stroke-linejoin="round"/></svg>