<svg width="24" height="24" viewBox="0 0 24 24" fill="none" xmlns="http://www.w3.org/2000/svg"><path d="M19 3H5C3.89543 3 3 3.89543 3 5V19C3 20.1046 3.89543 21 5 21H19C20.1046 21 21 20.1046 21 19V5C21 3.89543 20.1046 3 19 3Z" stroke="currentColor" stroke-linecap="round" stroke-linejoin="round"/><path d="M9.00001 9.003C8.99947 8.82554 9.04617 8.65112 9.13532 8.49767C9.22446 8.34422 9.35284 8.21725 9.50727 8.12981C9.66169 8.04236 9.83661 7.99759 10.0141 8.00008C10.1915 8.00258 10.3651 8.05225 10.517 8.144L15.514 11.141C15.6628 11.2297 15.786 11.3554 15.8715 11.506C15.9571 11.6566 16.002 11.8268 16.002 12C16.002 12.1732 15.9571 12.3434 15.8715 12.494C15.786 12.6446 15.6628 12.7703 15.514 12.859L10.517 15.856C10.365 15.9478 10.1913 15.9975 10.0138 15.9999C9.83627 16.0024 9.66129 15.9575 9.50683 15.87C9.35237 15.7824 9.22401 15.6553 9.13494 15.5017C9.04587 15.3481 8.99929 15.1736 9.00001 14.996V9.003Z" stroke="currentColor" stroke-linecap="round" stroke-linejoin="round"/></svg>