<svg width="24" height="24" viewBox="0 0 24 24" fill="none" xmlns="http://www.w3.org/2000/svg">
<path d="M11.82 6.9C14.68 6.28 17.58 6.19 20.45 6.66C18.68 3.86 15.56 2 12 2C8.89 2 6.11 3.42 4.27 5.65C4.71 6.95 5.27 8.19 5.94 9.37C6.32 10.05 7.29 10.02 7.68 9.35C8.53 7.92 10.06 6.96 11.82 6.9Z" fill="#292D32"/>
<path d="M7.72 14.7199C5.72 12.5799 4.16 10.1399 3.09 7.43994C1.59 10.3999 1.6 14.0299 3.43 17.0799C5.03 19.7499 7.67 21.4099 10.53 21.8399C11.42 20.7899 12.2 19.6699 12.87 18.4999C13.26 17.8199 12.73 17.0099 11.95 17.0099C10.28 17.0199 8.67 16.1999 7.72 14.7199Z" fill="#292D32"/>
<path d="M8.57001 12.0001C8.57001 12.6101 8.72001 13.1801 9.03001 13.7201C9.64001 14.7701 10.77 15.4301 11.99 15.4301C13.21 15.4301 14.35 14.7701 14.95 13.7201C15.26 13.1801 15.42 12.6101 15.42 12.0001C15.42 10.1101 13.88 8.58013 11.99 8.58013C10.11 8.57013 8.57001 10.1101 8.57001 12.0001Z" fill="#292D32"/>
<path d="M21.34 8.41979C19.97 8.12979 18.58 7.96979 17.2 7.94979C16.41 7.93979 15.96 8.79979 16.35 9.48979C16.75 10.1998 16.98 11.0198 16.98 11.8898C16.98 12.7298 16.76 13.5598 16.35 14.2998C15.41 17.1798 14.01 19.7398 12.16 21.9998C17.61 21.9098 22 17.4698 22 11.9998C22 10.7398 21.77 9.52979 21.34 8.41979Z" fill="#292D32"/>
</svg>
