<svg width="24" height="24" viewBox="0 0 24 24" fill="none" xmlns="http://www.w3.org/2000/svg">
<path d="M20.98 3.01986C20.11 2.14986 18.88 1.80986 17.69 2.10986L7.89001 4.55986C6.24001 4.96986 4.97001 6.24986 4.56001 7.88986L2.11001 17.6999C1.81001 18.8899 2.15001 20.1199 3.02001 20.9899C3.68001 21.6399 4.55001 21.9999 5.45001 21.9999C5.73001 21.9999 6.02001 21.9699 6.30001 21.8899L16.11 19.4399C17.75 19.0299 19.03 17.7599 19.44 16.1099L21.89 6.29986C22.19 5.10986 21.85 3.87986 20.98 3.01986ZM12 15.8799C9.86001 15.8799 8.12001 14.1399 8.12001 11.9999C8.12001 9.85986 9.86001 8.11986 12 8.11986C14.14 8.11986 15.88 9.85986 15.88 11.9999C15.88 14.1399 14.14 15.8799 12 15.8799Z" fill="#292D32"/>
</svg>
