<svg width="435" height="635" viewBox="0 0 435 635" fill="none" xmlns="http://www.w3.org/2000/svg">
<path fill-rule="evenodd" clip-rule="evenodd" d="M133.583 175.035C140.252 173.417 141.392 157.452 145.419 159.726C147.746 161.747 143.939 165.561 143.265 167.843L142.969 168.422C141.603 171.08 140.058 173.728 137.365 175.261C135.635 177.08 130.461 175.294 131.222 178.192C133.878 186.925 147.975 192.973 156.284 195.692C169.197 200.536 190.088 198.897 193.122 182.66C186.039 181.365 180.802 168.603 185.168 163.289C185.316 168.451 186.729 173.777 190.786 177.274L191.01 177.48C191.724 178.13 192.648 178.907 193.57 178.762C194.468 177.513 196.213 178.224 196.727 179.543C237.056 186.504 246.041 229.94 271.439 255.507C276.512 260.841 281.815 265.948 287.051 271.119C292.397 275.356 296.181 281.261 296.445 288.196C296.923 292.052 296.686 295.913 296.175 299.776L296.139 300.125C295.902 302.519 295.762 305.09 294.621 307.215C294.424 307.936 294.503 308.846 293.879 309.354C294.152 313.762 293.892 318.248 293.146 322.642L295.092 323.509C316.504 333.032 338.163 342.008 360.489 349.147C362.397 348.801 362.241 351.016 361.318 352.023C361.561 353.208 361.588 354.44 361.302 355.611C365.39 356.198 369.543 355.71 373.579 354.966C374.855 352.158 378.247 352.308 380.87 352.23C384.128 352.025 387.381 351.708 390.616 351.257C398.586 349.479 406.412 347.139 414.306 345.083C419.588 343.599 425.284 343.67 430.583 345.036C431.483 346.043 432.314 347.119 433.016 348.261C437.86 355.761 433.087 362.633 426.326 366.572C415.478 374.25 404.628 381.919 393.732 389.526L392.94 390.09C379.976 399.355 365.392 411.083 358.469 388.532C356.142 388.26 354.103 386.7 351.935 385.78C352.518 388.486 350.776 391.22 349.576 393.54C349.059 394.861 347.645 395.297 346.341 395.285C345.223 396.379 343.126 395.948 342.396 394.65C336.469 392.956 331.573 389.001 326.328 385.928C318.869 381.405 311.045 377.549 303.479 373.216C316.048 425.179 312.974 479.305 309.629 532.199L309.606 532.677C309.191 540.399 307.418 544.052 301.003 548.785C302.121 552.189 303.12 555.606 303.882 559.107C304.152 559.92 305.391 559.155 305.401 560.27C307.679 559.738 312.311 560.308 310.695 563.456C315.27 567.289 318.368 572.483 322.378 576.854C329.442 585.308 338.675 591.6 347.728 597.8C368.539 608.389 369.732 626.739 345.383 633.008L345.139 633.065C341.785 633.871 337.747 635.713 334.497 634.162C329.634 633.227 324.808 631.335 320.051 629.893C300.895 623.564 282.16 616.152 264.006 607.634C263.348 607.325 262.975 606.618 262.958 605.91C263.16 600.066 261.571 568.039 267.64 567.349C268.995 560.806 269.208 554.052 268.962 547.374C266.993 546.755 265.003 546.159 262.964 545.772C260.984 545.15 257.888 545.01 256.562 543.409C256.085 543.237 255.736 542.811 255.807 542.14C256.88 532.104 257.693 522.041 258.286 511.965C260.316 478.175 259.627 444.279 257.314 410.526C252.547 414.642 247.116 418.246 241.069 420.163C237.731 423.503 232.379 424.219 227.823 424.623C221.964 424.986 216.208 423.817 210.426 423.09C200.607 421.856 190.857 422.948 181.11 424.159L177.779 424.574C153.915 427.187 128.126 427.727 105.885 417.543C101.697 417.915 96.4981 413.395 93.8858 410.376C92.7323 411.087 91.5989 409.697 90.6796 408.966C89.1626 408.506 87.4417 407.845 86.0649 406.88C82.5723 408.022 80.6883 403.494 79.3616 401.032C58.3048 365.027 81.755 329.187 79.9912 291.006C81.0592 261.072 67.3854 229.887 80.6009 201.177C83.2744 189.028 98.9106 180.632 110.68 177.544C114.473 176.919 128.831 171.736 130.412 176.095C131.16 175.113 132.437 175.04 133.583 175.035ZM308.249 564.858C306.275 565.069 304.351 565.191 302.401 565.548C295.282 566.714 288.491 569.466 282.373 573.29C280.392 574.524 278.624 576.078 276.35 576.765C271.678 578.459 267.086 574.253 267.428 569.706C266.126 581.134 266.349 592.893 267.025 604.379C285.3 612.634 303.985 619.994 323.009 626.388C327.293 628.181 332.365 628.755 336.3 631.179C343.009 630.756 349.762 628.404 355.397 624.727C364.744 618.251 358.539 607.98 350.79 603.46C333.733 595.775 319.214 580.221 308.249 564.858ZM270.877 547.957C270.521 551.345 273.098 556.622 272.735 563.374C272.455 565.482 271.796 567.691 272.025 569.808C273.075 577.659 281.589 567.682 285.107 566.588C290.102 563.845 295.53 561.978 301.108 560.956C301.074 559.146 299.874 558.423 299.716 556.634C299.49 553.998 299.501 551.465 299.382 548.804C292.127 552.098 278.573 549.769 270.877 547.957ZM309.969 564.346C309.842 564.43 309.709 564.502 309.572 564.566C310.58 565.785 311.454 567.138 312.65 568.187L312.14 567.397C311.459 566.344 310.763 565.295 309.969 564.346ZM84.6326 283.441C84.267 284.924 83.6012 286.319 82.6039 287.506C87.7544 329.204 61.2551 363.966 85.6188 402.736C85.9268 402.879 86.2077 403.057 86.4783 403.28C86.6215 403.185 86.7648 403.084 86.9053 402.984C98.3249 382.807 114.581 365.402 127.533 346.094C130.019 341.248 134.111 336.369 135.678 330.77C109.649 320.507 99.2522 305.534 84.6326 283.441ZM427.178 346.689C426.075 347.084 424.847 346.758 423.669 346.737C419.487 346.648 415.401 347.737 411.402 348.838C399.77 352.015 388.076 354.827 376.159 356.708C375.918 356.957 375.688 357.211 375.479 357.478C375.685 357.828 375.717 358.264 375.417 358.698C373.62 362.127 375.073 366.326 373.767 369.996C371.874 377.427 366.841 385.809 359.329 388.446C361.835 390.83 363.63 393.898 366.21 396.198C372.553 400.539 379.538 394.069 384.716 390.6C394.574 383.646 404.458 376.741 414.369 369.864C418.809 366.189 428.632 361.558 430.757 356.69C432.118 352.957 429.64 349.321 427.178 346.689ZM359.239 356.164C354.996 364.805 352.546 373.992 350.096 383.27C352.644 383.97 354.992 385.066 357.498 385.804C361.026 386.596 366.008 379.787 367.777 377.084C369.601 374.062 370.878 370.741 371.471 367.261C371.97 363.853 371.438 360.314 372.923 357.157C368.326 357.626 363.662 357.724 359.239 356.164ZM106.969 338.334C110.954 337.22 101.889 346.221 101.367 347.182C95.4727 354.13 90.0725 361.47 84.7135 368.831L83.0889 371.066C82.9329 371.292 81.857 372.88 82.635 372.678C82.7062 372.66 82.7394 372.753 82.6828 372.792C77.7268 373.667 104.579 338.946 106.969 338.334ZM204.114 334.086C204.436 333.116 202.907 332.702 202.584 333.666L201.568 336.72C197.735 348.261 193.925 359.818 189.344 371.09C188.96 372.035 190.493 372.447 190.873 371.512C195.857 359.246 199.929 346.642 204.114 334.086ZM248.673 330.045C247.276 336.666 243.745 342.636 241.605 348.965C245.625 348.08 248.721 344.339 251.064 341.122L251.135 341.015C252.24 339.316 253.525 336.662 256.036 337.861C259.847 340.071 257.117 347.911 257.045 351.627C256.562 356.72 254.904 361.485 253.773 366.433C256.679 364.451 257.513 360.542 258.929 357.496L264.379 344.442C268.385 338.961 266.524 355.374 266.318 356.923C265.992 360.325 264.556 363.748 265.119 367.175C267.379 364.747 268.802 361.697 269.998 358.601C271.656 354.296 273.17 349.936 274.749 345.603C275.294 344.215 277.363 344.702 277.063 346.231C276.962 351.149 276.881 356.067 276.802 360.985L276.743 364.673C276.733 365.372 276.386 367.415 277.596 366.85C283.949 360.192 285.577 346.879 284.751 337.935C272.263 338.236 259.522 336.619 248.673 330.045ZM359.798 354.883C359.747 355.046 359.688 355.208 359.629 355.371C359.665 355.378 359.704 355.386 359.739 355.396C359.763 355.223 359.783 355.053 359.798 354.883ZM82.6463 354.883C81.2611 353.862 104.543 324.012 103.035 332.629C96.5396 340.303 88.965 347.028 82.6463 354.883ZM288.26 288.924C266.486 283.816 247.312 302.896 225.446 300.014C225.7 306.847 226.051 313.727 225.913 320.564C254.951 322.956 251.647 335.297 285.074 334.054C289.393 331.165 291.167 313.46 290.802 308.115C291.082 301.795 285.635 298.958 280.21 297.85C278.25 299.031 274.733 295.505 277.644 294.265C281.475 293.114 285.06 291.305 288.26 288.924ZM127.63 176.917C119.883 177.68 112.211 179.788 105.092 183.046C78.7744 190.632 74.9797 221.395 78.1442 244.707C79.4554 262.434 84.5182 279.773 95.1627 294.189C123.501 337.344 170.437 330.511 214.896 324.803C216.499 323.689 219.214 324.48 220.759 323.009C220.597 322.953 220.452 322.877 220.327 322.782C221.07 322.204 221.644 321.189 221.815 320.111L222.135 320.143C222.449 313.45 222.198 306.888 222.3 300.248C207.691 296.247 192.024 294.203 177.219 290.218C175.536 291.39 173.596 290.041 171.952 289.404C167.69 287.594 163.391 285.875 159.06 284.238L157.977 283.83C155.153 282.774 152.332 281.69 149.535 280.56L148.488 280.135C146.886 279.48 142.84 277.058 141.092 278.57L141.233 278.874C142.269 281.132 145.839 289.487 141.451 287.834C137.887 285.335 136.039 267.91 132.509 267.756C131.296 271 130.426 274.367 130.227 277.835C130.156 278.616 129.128 279.274 128.511 278.544C124.325 273.039 130.648 267.042 130.817 261.231C131.216 254.474 128.222 248.151 126.731 241.684L126.639 241.238C125.765 237.042 124.404 231.955 124.765 228.191L125.633 231.458C126.505 234.727 127.397 237.996 128.421 241.219C130.963 249.268 135.552 257.561 133.002 266.173C138.117 266.343 138.982 274.407 140.904 278.089C144.013 274.06 165.89 283.72 170.882 285.27L171.845 284.179C187.48 266.475 198.767 254.493 223 268.498C218.814 255.012 218.41 240.688 217.695 226.684C217.94 224.019 216.398 216.992 218.573 215.538C218.95 215.592 219.317 215.706 219.664 215.858L219.663 217.238C219.674 219.912 219.799 224.346 220.921 225.353L221.437 230.648C222.786 244.416 224.316 258.173 228.433 271.44C238.315 276.958 247.333 283.866 255.816 291.319L256.782 290.967C267.264 287.135 279.876 282.222 290.592 287.006C290.413 284.305 289.37 281.721 287.914 279.437C285.486 278.836 283.897 276.279 282.16 274.576C276.651 268.667 270.996 262.893 265.614 256.864C242.65 232.193 232.88 191.682 196.818 182.112C194.434 202.048 168.896 205.229 153.506 198.407L152.922 198.183C143.355 194.496 132.543 188.93 129.183 178.791L129.044 178.498C128.698 177.782 128.286 177.054 127.63 176.917ZM133.306 290.365C133.334 290.335 133.388 290.376 133.364 290.41C128.88 296.029 125.232 303.694 129.688 310.406C130.511 311.917 128.586 313.369 127.354 312.217C121.169 305.202 128.031 295.695 133.306 290.365ZM289.303 291.635C286.838 293.393 284.194 294.853 281.393 296.005C281.402 296.327 281.245 296.672 281.103 296.925C284.789 297.217 288.629 298.168 291.217 300.853C291.342 299.871 291.465 298.886 291.56 297.902C291.798 295.368 291.363 293.1 289.303 291.635ZM119.758 266.795L119.786 266.66C119.806 266.506 120.04 266.495 120.033 266.66C119.947 268.668 118.484 270.097 117.244 271.528C115.405 273.65 113.565 275.771 111.725 277.892C108.648 281.589 104.116 285.305 105.135 290.661C105.154 292.563 102.767 292.971 101.799 291.572C97.9474 284.236 110.071 277.995 114.158 273.262C116.077 271.214 119.101 269.707 119.758 266.795ZM177.485 288.818C177.542 288.91 177.583 289.008 177.605 289.11C178.251 289.178 178.893 289.252 179.536 289.33L177.485 288.818ZM81.0479 271.662C81.163 272.428 81.2707 273.197 81.3738 273.966L81.4754 274.735L81.4913 274.668C81.5439 274.468 81.6432 274.294 81.773 274.156L81.8174 274.111C81.5501 273.299 81.2937 272.482 81.0479 271.662ZM258.053 263.728C259.598 263.563 252.598 268.59 252.211 269.212C251.647 269.702 250.988 268.831 251.59 268.407C253.765 266.874 255.908 265.301 258.053 263.728ZM244.434 248.941C245.509 248.501 246.239 250.289 245.22 250.787C241.506 252.602 237.579 253.885 234.157 256.272C234.007 256.377 233.818 256.133 233.961 256.021L234.372 255.696C237.524 253.196 240.672 250.479 244.434 248.941ZM82.3303 226.338C83.3683 231.22 88.9843 232.823 93.3428 234.123L94.7046 234.641C98.5534 236.112 102.541 237.767 105.31 240.876C106.395 244.382 98.6508 238.274 97.5697 237.965C92.2815 234.69 82.7264 234.134 82.3303 226.338ZM196.977 180.758C197.006 181.006 197.021 181.26 197.028 181.513C197.354 181.513 197.677 181.516 198.003 181.526C197.624 181.304 197.276 181.051 196.977 180.758Z" fill="black"/>
<path fill-rule="evenodd" clip-rule="evenodd" d="M164.189 59.1664C168.704 58.8482 173.301 59.6081 177.601 60.9676C184.458 63.135 190.756 66.9601 195.929 71.9398C201.262 77.0718 205.206 83.3991 207.604 90.3876C210.495 98.8155 210.928 107.814 211.742 116.612C212.153 121.057 212.831 125.434 213.535 129.836L213.647 130.532C214.335 134.821 214.722 139.158 213.771 143.44C212.191 150.557 207.454 156.598 201.83 161.062C190.279 170.232 172.296 175.823 158.846 167.385C156.765 166.079 158.737 162.741 160.768 164.101C162.198 165.059 163.712 165.898 165.336 166.478C172.122 168.9 179.575 168.037 186.282 165.785C192.891 163.565 199.233 159.814 204.11 154.809C209.232 149.552 212.071 143.058 211.661 135.669C211.417 131.273 210.414 126.958 209.857 122.598C209.364 118.736 209.068 114.853 208.727 110.975L208.602 109.58C207.88 101.68 206.842 93.5632 203.242 86.3919C200.214 80.3588 195.781 74.9915 190.45 70.8463C184.868 66.5067 178.202 63.4716 171.207 62.3395C162.982 61.0084 155.108 63.429 148.246 67.9352C142.161 71.9316 136.929 77.2721 132.918 83.3318C130.972 86.27 129.315 89.4077 127.884 92.6256C126.535 95.6575 125.605 98.8351 124.521 101.96C125.413 101.934 126.321 101.968 127.242 102.069C131.967 102.592 136.37 105.038 139.172 108.894C142.598 113.605 141.672 119.389 143.01 124.748C143.113 125.164 142.937 125.571 142.58 125.801C140.552 127.11 137.837 127.154 135.874 125.679C134.17 124.4 133.37 122.087 134.06 120.066C134.15 119.803 134.534 119.849 134.545 120.132C134.675 123.571 137.87 126.22 141.002 124.583C139.659 119.962 140.366 114.802 137.618 110.628C132.754 103.241 122.688 102.936 115.619 107.1C111.898 109.291 108.953 112.586 106.76 116.271L106.128 117.341C105.288 118.771 104.398 120.388 104.223 121.962C104.123 122.87 104.458 123.724 105.502 123.266C106.346 122.896 107 122.033 107.502 121.29C108.357 120.024 110.322 121.118 109.616 122.466L109.592 122.51C108.564 124.329 107.931 126.334 107.814 128.422L107.785 129.001C107.765 129.422 107.752 130.021 107.841 130.043C107.948 130.069 108.692 129.212 108.816 129.093C109.413 128.521 110.027 128.053 110.858 127.9C111.95 127.701 113.052 129.05 112.104 129.934L112.064 129.97C111.218 130.704 111.256 132.169 112.191 132.856C113.51 133.825 115.133 132.243 115.325 130.94L115.331 130.892C115.501 129.485 117.458 129.435 117.565 130.892C117.795 134.055 114.025 136.706 111.156 135.11C110.021 134.479 109.3 133.325 109.074 132.087C108.712 132.278 108.322 132.411 107.909 132.448C106.564 132.566 105.608 131.622 105.391 130.355C105.137 128.879 105.288 127.299 105.677 125.766C104.947 125.942 104.179 125.874 103.407 125.43C101.071 124.084 101.742 121.09 102.624 119.069C106.389 110.441 114.189 102.613 123.854 101.992C123.906 100.469 124.113 99.0304 124.451 97.5062C127.757 82.5976 138.465 68.7926 152.406 62.3403C156.131 60.616 160.082 59.4561 164.189 59.1664ZM127.63 118.721L127.763 118.691C129.269 118.367 133.232 117.986 132.755 120.517C132.732 120.636 132.559 120.621 132.528 120.517C132.06 118.926 128.881 120.198 127.953 120.581C126.674 121.109 125.412 121.888 124.367 122.793C122.08 124.775 120.547 127.569 120.314 130.603C120.083 133.612 120.957 136.863 123.131 139.04C124.197 140.107 125.557 140.831 127.085 140.884C128.458 140.932 129.975 139.865 131.242 140.49C131.492 140.613 131.689 140.951 131.667 141.23C131.624 141.757 131.388 142.167 131.036 142.485C133.157 146.345 134.893 150.43 137.599 153.94C138.956 155.7 140.495 157.331 142.237 158.719C143.065 159.378 143.965 159.958 144.893 160.467C145.981 161.064 146.922 161.438 147.699 162.449C148.361 163.312 147.698 164.98 146.607 165.129C144.037 165.478 141.539 163.403 139.653 161.849C137.768 160.296 136.139 158.381 134.792 156.348C132.207 152.445 130.438 147.841 129.731 143.183C128.91 143.443 127.986 143.522 127.291 143.523C125.44 143.528 123.674 142.863 122.22 141.74C116.897 137.629 116.306 129.189 120.062 123.866C121.859 121.32 124.591 119.438 127.63 118.721ZM127.663 128.51C128.898 128.401 130.131 128.596 131.291 129.016L131.769 129.189C132.779 129.558 133.855 129.992 134.584 130.748C135.699 131.904 134.589 133.907 133.001 133.464C131.246 132.974 129.819 131.497 128.064 130.878C126.495 130.325 124.718 130.403 123.326 131.356C123.142 131.482 122.9 131.234 123.02 131.051C124.085 129.432 125.767 128.676 127.663 128.51Z" fill="black"/>
<path fill-rule="evenodd" clip-rule="evenodd" d="M183.452 151.974C181.766 151.288 180.262 150.142 179.162 148.679C178.78 148.17 178.681 147.633 178.761 147.142C178.851 146.59 179.178 146.089 179.625 145.753C180.073 145.416 180.633 145.25 181.174 145.335C181.645 145.408 182.113 145.666 182.484 146.199L182.561 146.306C183.215 147.189 184.067 147.914 185.037 148.381C185.973 148.831 187.019 149.041 188.102 148.919C190.164 148.686 191.586 147.572 193.096 146.06C193.284 145.869 193.471 145.672 193.659 145.472C193.778 145.291 193.943 145.174 194.126 145.113C194.33 145.045 194.56 145.049 194.771 145.122C194.974 145.193 195.156 145.327 195.278 145.506C195.393 145.676 195.459 145.886 195.438 146.127C195.299 147.694 194.479 149.093 193.313 150.191C192.019 151.411 190.303 152.255 188.687 152.551C186.907 152.877 185.094 152.643 183.452 151.974ZM189.527 127.796C191.42 128.945 194.306 131.625 192.269 134.475C189.871 136.987 186.419 134.107 184.717 132.804C183.14 131.794 181.367 134.391 182.831 135.57C195.124 144.658 200.113 128.097 190.485 126.445C189.424 126.263 189.031 127.44 189.527 127.796ZM167.497 117.224C167.707 114.631 171.662 114.042 172.055 116.608C172.408 118.907 171.993 121.018 170.956 123.088C169.965 125.065 167.475 124.143 167.287 122.342C167.034 119.929 167.367 118.837 167.497 117.224ZM197.604 116.076C198.156 115.355 198.952 114.862 199.906 115.141C202.886 116.01 202.008 120.235 200.961 122.292C200.392 123.409 198.554 123.692 197.723 122.708C196.369 121.105 195.721 117.903 197.442 116.323C197.489 116.241 197.541 116.159 197.604 116.076ZM170.914 105.877L171.385 105.795C172.841 105.543 174.652 105.301 175.682 106.471C176.229 107.091 176.417 108.243 175.682 108.836C174.39 109.88 172.962 109.476 171.414 109.564C170.138 109.637 168.912 109.848 167.683 110.199C164.986 110.968 162.79 112.373 160.487 113.916C160.185 114.118 159.876 113.732 160.02 113.45C161.35 110.85 163.926 108.714 166.506 107.413C167.883 106.718 169.39 106.141 170.914 105.877ZM194.888 104.712L195.248 104.786C199.169 105.604 204.264 107.239 206.121 111.085C206.191 111.629 206.117 111.746 206.056 111.822L206.036 111.847C205.985 111.912 205.946 112.002 205.709 112.076C205.644 112.06 205.578 112.044 205.511 112.026C204.66 111.803 203.986 111.497 203.334 111.178L202.628 110.83C201.807 110.429 200.98 110.042 200.103 109.756C198.232 109.147 196.307 108.718 194.353 108.488C193.929 108.439 193.521 108.296 193.199 108.051C192.894 107.819 192.661 107.497 192.554 107.07C192.416 106.517 192.456 106.098 192.753 105.599C192.977 105.224 193.296 104.965 193.664 104.815C194.038 104.663 194.464 104.627 194.888 104.712Z" fill="black"/>
</svg>
