<svg width="464" height="635" viewBox="0 0 464 635" fill="none" xmlns="http://www.w3.org/2000/svg">
<path fill-rule="evenodd" clip-rule="evenodd" d="M103.078 156.187C120.025 144.931 142.027 139.004 161.681 146.375C161.915 146.457 161.822 146.797 161.578 146.743C158.473 146.062 155.318 145.681 152.145 145.55C158.575 146.335 164.815 148.022 171.327 146.885C193.077 143.294 216.141 150.67 230.592 167.564C230.966 165.082 234.051 165.174 235.057 166.929C254.275 173.696 265.16 199.116 272.419 216.757C273.272 219.902 279.195 232.959 276.351 234.654C289.889 253.192 297.506 275.144 304.266 296.857L304.459 297.385C305.993 301.635 307.164 306.445 303.915 310.226C317.395 318.465 329.859 329.53 335.751 344.524C345.136 366.642 333.178 385.38 314.533 397.364C296.056 410.736 276.038 421.87 255.345 431.43C248.387 434.641 241.341 437.655 234.255 440.575L233.55 440.863C227.983 443.15 222.366 445.84 218.202 450.241C210.105 462.052 202.626 426.674 202.544 421.743C198.746 422.884 194.565 422.91 190.645 423.505C191.143 424.358 191.181 425.467 190.576 426.376C190.585 429.262 190.279 432.171 189.714 435.031C195.73 434.498 195.522 440.562 189.25 439.164L188.937 442.096C191.8 441.209 197.848 442.625 194.305 446.037C192.45 446.953 190.474 446.108 188.496 446.205C187.644 452.907 187.319 459.614 186.696 466.345C192.069 471.013 200.045 472.25 204.815 477.853C208.984 482.408 209.088 489.534 204.316 493.821C206.879 498.195 203.78 503.893 199.04 505.042C192.93 506.493 186.531 504.56 180.635 502.927C169.912 499.399 159.765 494.066 150.218 488.084L149.804 487.824C145.08 484.881 141.661 480.301 140.036 474.997L139.689 473.923C133.919 456.013 123.656 420.885 131.355 404.293C134.982 400.276 140.829 404.953 142.942 400.221C129.305 399.154 107.331 401.527 96.2194 393.74C97.3105 409.405 98.9289 425.06 98.8643 440.772C98.5872 442.838 99.9843 444.13 99.4229 446.216C101.451 449.681 103.203 453.293 104.94 456.909L105.05 457.012C106.854 458.719 109.173 462.183 106.799 464.215C114.877 476.033 119.259 489.982 122.84 503.7C126.648 504.572 128.087 511.652 127.851 515.036C126.782 524.13 115.985 524.188 108.89 524.956C104.745 525.391 100.587 525.663 96.422 525.775C87.9944 526.003 79.5559 525.558 71.1975 524.461C64.3882 523.866 56.8605 522.088 53.469 515.502C50.7347 510.775 50.3079 503.681 54.09 499.439C52.9844 491.315 55.5761 482.846 60.6404 476.441L60.7946 476.247L60.7817 476.242C60.6656 476.191 60.6759 475.999 61.1499 475.904L61.2024 475.894L61.4299 475.542C68.8711 464.026 69.7983 460.868 64.2774 447.734L59.2605 447.555C49.964 447.215 40.57 446.726 31.5736 444.418C30.2991 445.478 28.0572 445.355 27.5571 443.276C21.0125 415.314 15.0075 387.222 8.62653 359.219C1.99446 329.749 -12.2964 285.01 22.2864 267.922C18.7542 267.923 17.967 263.691 17.1086 261.021C13.9613 250.644 20.8963 241.056 28.1498 234.318C53.6129 208.797 72.7705 176.645 103.078 156.187ZM54.5183 502.563C54.0397 516.302 64.4541 519.597 76.1758 519.947C83.48 520.641 90.8387 520.854 98.1712 520.567L101.625 520.368C107.394 520.029 113.206 519.605 118.82 518.291C122.517 517.532 123.444 514.23 122.109 511.003C121.532 511.259 120.849 511.277 120.316 510.903C119.718 510.486 119.285 510.043 118.956 509.521C99.9617 517.96 76.0606 517.035 57.6525 507.326C55.2936 507.21 54.9874 504.397 54.5183 502.563ZM100.693 459.076C93.789 454.906 79.8078 453.094 73.139 458.34C73.5961 460.976 72.5276 463.415 71.5258 465.764C74.5684 465.039 101.035 461.478 97.2966 467.974C95.2038 469.658 92.3545 468.499 89.9357 468.271C83.4485 467.732 76.9165 467.903 70.4485 468.637C69.8848 470.215 69.667 471.985 68.9658 473.474C75.5166 471.316 82.37 470.283 89.2434 469.914L89.6253 469.894C92.6261 469.735 96.1376 469.072 98.3716 471.52C100.275 474.119 96.0499 475.908 93.8729 475.653C84.6011 475.375 75.3104 475.718 66.0471 476.117L65.6399 476.788C59.0939 487.607 57.6844 491.868 60.3301 504.845C60.315 504.832 60.2994 504.822 60.2865 504.809C60.2763 505.511 60.0508 506.143 59.571 506.614C79.5336 513.082 98.1269 512.715 117.964 506.299C115.063 491.752 109.307 478.012 105.027 463.869C103.897 463.237 103.562 461.842 102.716 460.919C101.861 460.846 101.013 460.171 100.693 459.076ZM148.532 400.383C139.834 406.523 143.762 413.779 146.167 422.117C149.682 434.374 152.382 446.86 155.39 459.247C157.162 470.248 164.129 479.79 174.154 484.738C178.663 487.11 183.61 488.645 188.665 489.276C190.617 489.474 192.78 489.265 194.087 491.012C194.829 491.813 194.91 493.13 194.087 493.916C191.502 496.842 183.988 494.202 180.502 493.472C154.671 485.655 150.745 466.968 145.763 443.54C143.349 430.528 137.417 416.823 140.996 403.627C138.831 404.782 135.505 404.386 133.97 406.569C130.426 428.99 138.243 451.735 144.269 473.169C145.607 477.673 148.431 481.634 152.54 483.998C161.306 489.343 170.493 494.228 180.214 497.601L180.509 497.684C185.443 499.098 196.1 502.911 199.886 498.924C200.676 497.759 200.641 496.512 199.645 495.739L199.163 495.556C198.237 495.198 197.146 494.695 196.978 493.614L196.968 493.539L197.003 493.526C196.198 492.052 197.761 490.4 199.16 490.039C201.133 489.968 202.05 488.656 202.752 486.73C204.009 477.305 190.754 474.786 186.359 468.337C185.894 470.691 182.265 470.243 182.284 467.869C182.14 460.657 183.71 453.379 184.785 446.264C183.131 446.194 181.373 446.861 179.763 446.5C179.525 445.014 184.171 443.457 185.449 442.966C185.713 441.737 185.993 440.513 186.29 439.294C175.957 439.918 180.757 436.609 187.283 435.476C187.486 434.785 187.664 434.075 187.826 433.373L187.906 433.023C188.319 431.264 188.537 429.602 188.609 427.884C184.041 429.974 178.901 431.242 173.951 430.178C165.006 428.104 160.37 417.262 163.961 409.127C163.144 406.241 164.748 403.172 166.198 400.738C160.309 400.718 154.417 400.556 148.532 400.383ZM61.0844 476.035C61.0073 476.081 60.9346 476.133 60.8643 476.189L60.7946 476.247L60.8122 476.252C60.8969 476.269 61.0203 476.221 61.0947 476.042C61.0791 476.058 61.0791 476.05 61.0844 476.035ZM61.6282 475.853C61.4871 475.857 61.3674 475.868 61.2632 475.884L61.2024 475.894L61.1831 475.924C61.1468 475.979 61.1243 476.002 61.0973 476.04C61.2463 475.919 61.4484 475.863 61.6282 475.853ZM72.3055 467.259C71.8238 467.323 71.3429 467.381 70.8586 467.441L70.7637 467.7C71.2767 467.546 71.7897 467.4 72.3055 467.259ZM93.6828 446.405C85.0892 447.279 76.4284 446.74 67.8322 447.716C69.5178 450.041 70.7202 452.614 71.7284 455.329C78.7888 448.672 90.1152 450.708 98.6098 453.16C98.0381 451.493 97.5116 449.81 97.0402 448.113C95.769 448.318 94.3176 447.605 93.6828 446.405ZM303.286 311.041C291.539 322.993 273.786 326.278 258.592 331.555C254.903 333.861 256.706 338.433 257.176 341.904C258.056 347.603 258.755 353.329 259.262 359.074C261.139 356.906 266.056 356.623 268.808 355.742L269.174 355.66C272.845 354.819 276.66 353.557 280.406 354.375C281.917 354.703 282.019 356.79 280.819 357.532C277.778 359.418 274.058 359.472 270.573 359.884L269.682 359.991C266.597 360.357 263.489 360.692 260.39 360.561C260 360.623 259.608 360.474 259.361 360.211C259.747 366.216 260.521 372.307 260.259 378.322C260.116 379.39 259.772 380.553 259.013 381.344L258.988 381.435C258.558 382.954 257.16 385.666 255.55 383.659L255.248 383.116C252.884 378.857 250.643 374.403 249.5 369.647C249.12 379.266 248.812 388.88 248.428 398.495L248.415 398.726C248.317 400.358 247.998 402.322 246.935 403.578C247.029 404.324 246.359 404.759 245.761 404.492L245.681 404.529C245.108 404.785 244.184 405.022 243.834 404.323C241.816 399.609 239.666 394.969 237.697 390.242C237.801 392.668 237.683 395.099 237.761 397.527C237.799 400.298 238.315 403.555 236.991 406.118C235.861 408.363 233.046 408.951 231.536 406.997C230.325 405.131 229.639 402.824 228.538 400.846C225.435 416.159 217.577 393.65 216.134 389.01C211.7 391.599 207.024 393.786 202.189 395.535C203.519 397.546 203.198 400.281 203.616 402.592C203.992 406.039 204.29 409.488 204.587 412.943L204.697 413.604C206.508 424.408 209.146 435.451 214.952 444.856C219.867 440.05 226.316 437.215 232.623 434.67C240.218 431.543 247.751 428.273 255.181 424.778C275.265 415.348 294.603 404.294 312.63 391.353L313.243 390.925C323.26 383.886 333.7 374.656 333.956 361.522C334.82 339.991 316.789 325.303 303.286 311.041ZM81.9155 298.837C64.7665 282.772 38.5101 262 14.8246 277.263C-7.29936 295.959 10.2295 340.788 14.7487 364.93C20.4952 390.307 26.5686 415.614 32.2019 441.015C52.29 443.662 72.6802 445.048 92.8675 442.664C92.6392 424.754 91.4289 406.868 91.0334 388.952C90.6656 379.721 90.7933 370.454 89.4078 361.312C88.2321 353.878 89.742 344.898 85.596 338.404C84.0615 336.04 81.5657 333.97 81.0078 331.119C80.995 330.986 81.1692 330.942 81.2538 331.017C82.4672 332.082 83.4418 333.352 84.7291 334.374L85.6758 335.106C87.2154 336.303 88.749 337.58 89.7025 339.282C89.8005 338.557 87.9628 332.091 89.0634 332.863L89.2707 333.43C90.7507 337.494 92.0849 341.607 92.4648 345.955C93.9175 360.778 94.7293 375.674 95.9732 390.519C98.9735 391.869 101.73 393.854 105.007 394.572C110.373 395.102 115.747 394.802 121.123 394.732L121.627 394.726C137.312 394.492 152.948 395.371 168.621 395.123C184.642 395.744 201.019 391.553 214.693 383.134C207.201 349.347 232.923 325.25 244.816 296.368C231.117 299.819 217.483 303.525 203.821 307.161C205.664 311.663 199.701 324.419 197.457 328.939C185.45 352.578 161.167 368.027 139.331 345.466C139.342 345.535 139.349 345.605 139.357 345.676C138.624 345.008 137.814 344.42 136.997 343.856C135.901 352.845 132.934 361.906 127.336 369.124L126.725 369.889C124.979 372.064 122.45 374.923 119.654 373.28C117.596 372.168 117.208 370.004 117.608 367.821C110.881 375.131 103.552 376.782 108.149 364.203L107.996 364.36C105.424 366.999 98.5946 372.829 97.8994 365.936C98.2025 362.504 100.32 359.441 101.395 356.226C100.246 356.936 98.9535 357.286 97.6378 356.782C94.1088 355.43 95.9247 351.4 96.7119 348.862C98.705 342.447 100.739 336.043 102.806 329.652C102.09 325.852 104.359 322.072 102.232 318.769C101.321 319.245 100.095 319.145 99.2154 317.972C94.055 311.11 88.1329 304.752 81.9155 298.837ZM32.4405 442.18C32.4459 442.219 32.4459 442.252 32.4482 442.29C32.6459 442.303 32.8408 442.321 33.0381 442.339C32.837 442.29 32.6385 442.232 32.4405 442.18ZM201.848 417.508C198.683 384.962 206.896 400.289 173.538 400.659C173.688 401.474 172.615 401.38 172.994 401.153C172.511 399.355 169.772 404.625 169.391 405.309C168.67 406.835 168.342 408.735 168.088 410.405C166.3 419.755 172.962 427.946 182.676 423.971C181.426 423.867 180.021 424.318 178.983 423.521C178.988 423.518 178.991 423.513 178.996 423.508C178.067 421.845 183.163 421.773 184.177 421.329C188.127 420.505 192.087 419.739 196.013 418.814C197.927 418.363 199.886 417.657 201.848 417.508ZM233.919 404.933C233.634 404.766 233.78 405.312 233.875 405.035C233.888 404.999 233.906 404.966 233.919 404.933ZM269.839 231.151C255.562 232.168 246.318 239.21 236.186 248.241C235.429 248.893 234.662 249.534 233.878 250.153C238.305 257.905 243.078 265.452 247.692 273.097L248.556 274.535C249.902 276.777 251.216 279.061 252.017 281.558C254.745 290.18 245.215 305.356 241.753 313.822C225.181 343.026 209.616 363.301 224.693 397.891C225.502 395.708 223.714 388.088 226.389 387.792L226.335 387.25C225.48 378.457 225.441 367.867 228.109 360.103C226.633 375.127 228.233 390.872 233.934 404.897C235.426 391.601 233.449 376.747 233.908 363.089C233.891 360.989 237.071 361.012 237.161 363.089L237.269 366.615C237.642 378.566 238.286 391.081 245.245 401.191C245.915 385.801 243.104 369.589 248.505 354.833C248.946 353.771 250.536 353.853 250.582 355.115C250.681 360.138 252.809 377.14 256.479 380.089C257.487 377.014 257.384 373.649 257.222 370.428C256.722 358.754 255.037 347.364 252.968 335.854C252.594 333.579 253.264 330.78 255.622 329.903C257.374 328.238 259.793 327.058 261.793 326.111C274.507 319.838 291.996 321.046 300.596 308.127L301.013 307.498C302.016 305.983 302.956 304.487 303.379 302.67C302.22 298.347 300.554 294.134 299.139 289.89C297.874 286.14 296.576 282.403 295.214 278.688L294.758 277.45C288.68 260.879 280.941 244.973 269.839 231.151ZM171.394 400.713C171.069 400.818 170.811 401.143 170.534 401.386L170.474 401.436L170.643 401.302C170.823 401.157 170.985 401.023 171.233 400.833L171.394 400.713ZM96.0989 392.175L96.1758 393.179C96.6683 393.279 97.1507 393.405 97.6329 393.527C97.0735 393.123 96.5531 392.675 96.0989 392.175ZM168.837 369.501C168.78 369.304 169.063 369.189 169.168 369.362C173.317 376.652 181.486 379.554 189.35 380.709C190.689 381.021 190.525 382.868 189.35 383.257C184.954 384.711 179.878 382.752 176.28 380.143C172.592 377.472 170.076 373.864 168.837 369.501ZM247.943 365.34C247.165 370.951 247.235 376.673 247.168 382.337C247.425 376.673 247.638 371.004 247.943 365.34ZM133.386 375.221C134.202 375.503 135.046 375.687 135.877 375.759C134.994 376.179 133.986 375.969 133.386 375.221ZM69.407 193.775C56.9343 207.876 46.0152 223.312 32.6 236.564C24.7394 243.657 17.3025 253.352 23.4329 264.027C24.7258 264.537 24.953 266.438 23.8381 267.333C24.1043 267.299 25.8153 266.471 25.4309 267.148C21.9943 268.613 18.9727 270.736 16.3694 273.304C32.5892 261.391 54.0961 270.929 68.2426 281.606C75.2242 286.699 81.7155 292.312 87.7941 298.353C89.9693 298.742 92.2183 299.902 94.0314 300.808C106.536 306.806 108.496 314.911 107.464 327.867C103.711 335.01 101.935 343.178 99.3205 350.836C96.6311 356.79 101.922 352.777 102.68 350.181C104.522 347.892 105.41 344.852 106.539 342.191L106.62 342.002C106.941 341.241 107.628 340.675 108.513 340.929C109.223 341.132 109.882 342.009 109.606 342.769L109.04 344.226C106.296 351.266 103.462 358.343 101.277 365.557C108.659 361.143 112.314 352.788 116.189 345.41C117.254 343.449 120.119 345.177 119.159 347.144C118.269 348.959 117.361 350.769 116.4 352.549C113.886 357.897 112.063 363.54 110.554 369.247C118.851 364.306 121.743 354.24 124.13 345.746C124.277 343.322 127.777 343.799 127.415 346.178C126.528 350.9 125.174 355.553 123.055 359.878L122.495 363.148C122.122 365.328 121.753 367.509 121.401 369.693C121.601 369.595 121.816 369.583 122.024 369.634C129.375 362.243 132.317 352.046 134.884 342.245C133.663 338.1 135.157 333.861 134.986 329.588C135.636 324.116 133.868 319.018 131.421 314.132C129.954 299.019 115.375 292.464 105.211 283.581C92.7626 271.297 86.2172 252.49 68.7196 246.402C66.9004 246.517 65.1466 246.127 63.4438 245.542C63.3694 245.521 63.3566 245.393 63.4438 245.38C65.1758 245.098 66.9068 244.656 68.6429 244.341C69.1107 242.817 70.9813 242.631 72.3878 243.312C87.5176 236.691 100.058 225.048 112.08 213.971C100.341 203.128 85.1423 196.397 69.407 193.775ZM139.026 347.479C139.278 347.758 139.498 348.06 139.662 348.391C139.707 348.476 139.702 348.576 139.716 348.67C139.5 348.265 139.272 347.866 139.026 347.479ZM91.0311 301.646C95.2107 306.024 99.2238 310.587 103.001 315.361C101.646 308.471 97.2092 304.489 91.0311 301.646ZM230.918 249.191C221.843 265.559 207.633 279.937 204.311 298.916C204.044 300.539 204.026 302.184 203.992 303.822C214.123 299.698 224.788 297.129 235.239 293.963C239.201 292.907 243.048 291.244 247.209 291.032C250.64 285.094 247.885 279.281 244.865 273.865C240.931 265.267 234.709 257.831 230.918 249.191ZM84.6704 241.229C82.0463 242.7 79.3402 244.045 76.4861 244.999C78.9432 246.243 81.1897 247.815 83.27 249.605C84.3152 246.948 84.7065 244.069 84.6704 241.229ZM151.389 146.874C150.026 158.865 150.092 171.238 153.282 182.941C158.037 201.18 175.646 218.231 195.57 214.655C215.672 210.46 225.553 189.673 229.697 171.395C219.111 157.984 202.539 149.595 185.459 148.92C174.354 148.467 161.799 152.041 151.389 146.874Z" fill="black"/>
<path fill-rule="evenodd" clip-rule="evenodd" d="M237.004 96.4384C237.009 96.3202 237.179 96.2937 237.212 96.4103C237.861 98.7103 238.229 101.053 238.736 103.389C239.225 105.639 239.687 107.895 240.071 110.165C240.796 114.448 241.407 118.743 241.975 123.049L242.116 124.125C243.104 131.702 244.735 139.595 243.309 147.215C242.092 153.718 238.012 158.959 232.754 162.801C227.775 166.439 221.738 168.774 215.745 170.101C209.312 171.526 201.687 171.952 196.453 167.241C194.357 165.355 197.214 161.612 199.487 163.314C204.824 167.311 211.614 166.133 217.637 164.542L217.82 164.494C223.106 163.088 228.427 160.957 232.624 157.362C237.264 153.387 239.558 147.87 239.823 141.819C239.972 138.42 239.654 135.024 239.312 131.645L239.274 131.269C238.881 127.405 238.469 123.542 238.088 119.676C237.741 116.15 237.442 112.604 237.283 109.063L237.21 107.277C237.056 103.676 236.849 100.022 237.004 96.4384ZM174.404 66.5176C183.089 62.0022 193.072 60.3861 202.738 61.9015C212.031 63.3583 220.559 68.1465 226.933 75.0122C230.046 78.3643 232.808 82.2417 234.573 86.4778C235.45 88.5821 236.137 90.7774 236.502 93.032C236.69 94.1911 236.875 95.392 236.911 96.5671C236.943 97.6551 236.623 98.6755 236.661 99.7815C236.667 99.9545 236.401 99.9878 236.361 99.8221C236.059 98.5889 235.332 97.6564 234.875 96.485C234.534 95.6103 234.147 94.7565 233.753 93.9052L233.415 93.1757C232.432 91.0556 231.258 89.0226 230.096 86.9968C227.757 82.9168 224.755 79.2089 221.241 76.0801C215.07 70.5869 207.153 67.041 198.89 66.4024C190.314 65.7394 181.615 67.7806 174.291 72.3024C166.967 76.8238 161.43 83.8526 158.554 91.9452C157.104 96.029 156.303 100.284 156.116 104.61C156.022 106.8 156.11 109.009 156.264 111.194L156.34 112.237C156.43 113.487 156.491 114.732 156.304 115.952C157.625 115.54 159.01 115.37 160.399 115.573C162.464 115.876 163.698 116.721 164.624 118.564C164.673 118.66 164.576 118.756 164.48 118.708C163.279 118.11 161.336 118.425 160.064 118.738C158.74 119.065 157.548 119.633 156.424 120.4C154.343 121.82 152.712 124.02 152.312 126.544C151.925 128.981 152.927 131.45 154.611 133.197C155.478 134.097 156.514 134.875 157.673 135.36C159.081 135.949 160.474 135.93 161.719 136.902C162.489 137.503 162.303 138.531 161.781 139.198C164.408 142.074 166.738 145.221 169.365 148.109C170.583 149.448 171.791 150.788 172.957 152.17L173.393 152.69C174.558 154.094 176.411 155.577 176.944 157.343C177.275 158.441 176.097 159.878 174.906 159.377C173.079 158.609 171.775 156.611 170.541 155.078L170.461 154.979C169.166 153.391 168.017 151.714 166.966 149.957L166.621 149.378C164.721 146.188 162.837 142.879 161.626 139.373C161.546 139.455 161.461 139.53 161.372 139.594C159.627 140.833 157.09 139.88 155.346 139.075C153.701 138.316 152.192 137.173 151.017 135.796C148.459 132.8 147.281 128.921 148.135 125.034C148.858 121.741 151.144 118.537 154.14 116.872C152.757 115.282 152.184 113.138 151.803 111.043C151.317 108.368 151.22 105.626 151.352 102.914C151.615 97.5109 153.008 92.1851 155.16 87.2377C159.012 78.3853 165.82 70.9805 174.404 66.5176ZM156.123 125.59C157.946 125.249 159.645 125.166 161.403 125.937C163.311 126.773 164.653 128.153 165.901 129.77C167.32 131.609 163.682 133.619 162.764 131.177L162.737 131.102C162.492 130.379 162.051 129.68 161.494 129.036C161.327 129.292 161.103 129.518 160.84 129.647C160.522 129.803 160.036 129.695 159.96 129.289C159.875 128.838 159.969 128.293 160.229 127.911L160.265 127.859C159 126.843 157.478 126.1 156.123 125.861C155.988 125.837 155.989 125.615 156.123 125.59Z" fill="black"/>
<path fill-rule="evenodd" clip-rule="evenodd" d="M219.279 127.796C221.172 128.945 224.057 131.625 222.02 134.475C219.623 136.987 216.17 134.106 214.469 132.804C212.892 131.794 211.119 134.391 212.583 135.57C224.876 144.658 229.865 128.096 220.236 126.445C219.176 126.263 218.783 127.44 219.279 127.796ZM202.17 105.877L202.641 105.794L202.882 105.754C204.293 105.521 205.964 105.365 206.938 106.47C207.485 107.09 207.673 108.243 206.938 108.836C205.647 109.88 204.218 109.476 202.67 109.564C201.394 109.637 200.168 109.848 198.939 110.199C196.243 110.968 194.046 112.373 191.743 113.916C191.441 114.118 191.133 113.732 191.277 113.45C192.606 110.85 195.182 108.714 197.762 107.412C199.14 106.718 200.647 106.141 202.17 105.877ZM214.642 141.794C218.763 142.093 227.692 140.129 231.4 143.075C245.374 160.5 189.974 164.979 195.957 145.702C199.768 139.469 208.533 141.974 214.642 141.794ZM213.936 152.313C212.917 152.23 211.68 153.036 211.381 153.659C211.082 154.282 211.197 155.598 211.206 155.827C212.988 156.006 214.785 156.033 216.572 155.916C216.108 154.383 216.093 152.545 213.936 152.313ZM222.162 154.885C221.876 152.982 220.513 152.532 219.41 152.817C218.281 153.109 217.618 154.407 217.69 155.562C217.695 155.641 217.649 155.709 217.618 155.773C219.152 155.592 220.672 155.294 222.162 154.885ZM209.526 152.658C208.883 151.682 207.348 151.211 206.365 151.383C204.759 151.72 204.569 153.758 204.569 154.173C206.049 154.736 207.621 155.11 209.123 155.408C209.425 155.468 209.727 155.521 210.03 155.571L210.05 155.324C210.087 154.794 210.114 153.551 209.526 152.658ZM227.688 152.497C226.042 149.953 222.503 151.774 222.795 154.553C223.11 154.454 223.423 154.351 223.734 154.242C225.028 153.792 226.446 153.257 227.688 152.497ZM214.727 143.734C212.513 143.535 210.696 143.602 209.252 143.869L209.208 144.351C209.048 146.021 208.842 147.664 209.72 148.336C210.434 148.882 212.802 148.83 214.389 148.435C214.781 148.336 215.291 144.871 214.727 143.734ZM218.152 143.535C217.797 145.181 217.63 147.18 218.343 147.774C219.095 148.401 221.518 148.316 222.152 147.898C222.706 147.533 222.692 145.851 222.486 143.964C221.259 143.675 219.123 143.535 218.152 143.535ZM208.272 143.886L207.547 143.892L207.136 143.898C206.098 143.916 204.979 143.976 203.92 144.207C201.817 148.745 209.497 149.528 208.311 144.054L208.272 143.886ZM223.463 143.995L223.45 144.252C223.387 145.527 223.428 147.206 224.136 147.659C225.176 148.326 227.13 148.197 228.189 145.112C227.839 144.192 224.123 144.063 223.463 143.995ZM203.082 116.937C203.527 116.937 203.952 117.088 204.339 117.366C204.72 117.641 205.065 118.041 205.353 118.541C205.897 119.486 206.237 120.792 206.237 122.235C206.237 123.679 205.897 124.984 205.353 125.93C205.065 126.429 204.72 126.83 204.339 127.104C203.952 127.383 203.527 127.534 203.082 127.534C202.637 127.534 202.212 127.383 201.825 127.104C201.444 126.83 201.099 126.429 200.811 125.93C200.267 124.984 199.927 123.679 199.927 122.235C199.927 120.792 200.267 119.486 200.811 118.541C201.099 118.041 201.444 117.641 201.825 117.366C202.212 117.088 202.637 116.937 203.082 116.937ZM231.227 116.937C231.672 116.937 232.097 117.088 232.484 117.366C232.866 117.641 233.211 118.041 233.498 118.541C234.042 119.486 234.382 120.792 234.382 122.235C234.382 123.679 234.042 124.984 233.498 125.93C233.211 126.429 232.866 126.83 232.484 127.104C232.097 127.383 231.672 127.534 231.227 127.534C230.783 127.534 230.357 127.383 229.97 127.104C229.589 126.83 229.244 126.429 228.956 125.93C228.412 124.984 228.072 123.679 228.072 122.235C228.072 120.792 228.412 119.486 228.956 118.541C229.244 118.041 229.589 117.641 229.97 117.366C230.357 117.088 230.783 116.937 231.227 116.937ZM227.398 104.712L227.758 104.786L227.997 104.836C231.884 105.671 236.811 107.317 238.631 111.085C238.702 111.629 238.627 111.746 238.566 111.822L238.546 111.847C238.496 111.912 238.456 112.002 238.22 112.076C238.154 112.06 238.088 112.044 238.021 112.026C237.17 111.803 236.496 111.497 235.845 111.178L235.138 110.83C234.318 110.429 233.49 110.042 232.613 109.756C230.742 109.147 228.817 108.717 226.863 108.488C226.439 108.439 226.031 108.296 225.71 108.051C225.404 107.819 225.171 107.497 225.064 107.07C224.926 106.517 224.966 106.098 225.263 105.599C225.487 105.224 225.807 104.964 226.174 104.815C226.548 104.663 226.974 104.627 227.398 104.712Z" fill="black"/>
</svg>
