<svg width="852" height="859" viewBox="0 0 852 859" fill="none" xmlns="http://www.w3.org/2000/svg">
<path fill-rule="evenodd" clip-rule="evenodd" d="M708.262 509.041C705.867 512.986 702.604 516.569 698.121 518.312C760.122 522.332 815.577 565.133 838.169 621.763C894.759 755.111 762.697 904.785 621.818 844.418C500.472 792.445 486.513 617.988 595.606 545.702C593.208 536.288 590.781 526.71 589.838 517.035C589.628 514.677 589.576 512.304 589.523 509.933C589.426 505.498 589.328 501.067 588.201 496.737C541.336 542.852 494.472 588.979 448.17 635.64L446.591 637.242C446.5 637.335 446.392 637.434 446.276 637.54C445.841 637.939 445.312 638.424 445.289 638.925C445.813 640.944 449.913 643.219 453.765 645.356C456.649 646.956 459.394 648.479 460.395 649.76C471.554 653.48 474.973 667.062 460.89 669.082C457.757 669.516 454.589 669.625 451.426 669.734C450.29 669.773 449.155 669.812 448.022 669.866C450.972 674.621 452.096 683.519 445.862 686.181C443.496 687.046 440.691 686.842 438.071 686.652C437.294 686.595 436.534 686.54 435.806 686.514C432.318 686.391 428.829 686.267 425.341 686.143C419.887 690.254 419.341 696.889 418.804 703.407C418.566 706.296 418.33 709.162 417.669 711.775C415.11 730.899 401.841 743.534 381.935 743.538C360.019 745.073 337.358 743.897 316.114 738.132C316.042 738.245 315.895 738.347 315.753 738.295C313.042 736.646 315.976 733.136 317.573 731.654C313.147 726.251 320.239 718.817 324.168 715.065C326.122 713.219 328.569 711.893 331.02 710.565C332.964 709.512 334.91 708.458 336.617 707.141C332.744 706.367 328.834 705.76 324.926 705.154C322.931 704.844 320.937 704.535 318.948 704.203C298.33 831.101 138.509 886.219 46.7636 791.14C-42.2538 702.621 1.88699 540.139 127.822 514.22C125.584 513.977 123.105 514.009 120.563 514.041C113.79 514.127 106.572 514.218 102.294 509.147C100.604 506.846 100.065 503.391 101.691 501.004C98.6411 501.318 47.4743 501.395 69.6493 499.449C67.3667 499.416 65.0891 499.338 62.8193 499.172C62.9578 501.435 63.1758 503.695 63.4938 505.941C63.8748 508.648 64.4742 511.288 65.0752 513.936C65.3359 515.085 65.5969 516.235 65.8406 517.393C66.1432 518.827 65.4174 520.243 63.9478 520.668C57.4937 523.084 49.7806 523.194 46.6708 515.987C44.4667 510.11 44.0371 503.683 43.6194 497.434C43.5737 496.751 43.5283 496.071 43.4807 495.394C43.5578 493.354 46.1526 493.217 48.5004 493.092C49.6252 493.033 50.6933 492.976 51.4008 492.715C53.8024 492.209 56.1893 491.895 58.613 491.679C59.3882 486.514 65.3805 486.367 70.2711 486.246C71.4658 486.216 72.5947 486.188 73.5658 486.089C94.5509 485.234 115.557 484.991 136.561 484.748C142.09 484.684 147.619 484.62 153.146 484.545C154.111 484.53 155.079 484.516 156.049 484.501C200.89 483.821 251.04 483.06 286.511 514.036C290.677 512.847 293.985 516.098 296.798 518.863C297.249 519.306 297.687 519.736 298.114 520.134C298.245 520.093 298.378 520.091 298.506 520.121C302.141 516.407 305.642 512.568 308.906 508.509C308.017 504.634 307.257 500.725 306.498 496.817C305.251 490.403 304.005 483.989 302.185 477.723L301.925 477.715C294.95 477.517 286.696 477.282 280.697 481.163C279.51 482.117 278.867 483.46 278.227 484.795C277.424 486.471 276.627 488.137 274.765 489.013C269.178 491.992 263.822 488.056 260.872 483.477C259.964 483.448 259.066 483.486 258.168 483.524C257.232 483.563 256.297 483.603 255.357 483.566C253.779 483.478 253.292 482.141 253.088 480.717C252.07 478.378 252.119 475.83 252.167 473.353C252.171 473.143 252.175 472.933 252.179 472.724C250.702 472.813 248.384 471.598 248.882 469.94C247.434 469.729 245.965 469.584 244.494 469.439C240.643 469.059 236.774 468.677 233.232 467.098C219.088 458.437 232.848 438.086 245.659 435.999C238.786 428.407 234.938 418.099 235.979 407.923C229.954 403.069 233.978 391.783 237.076 383.093C238.02 380.446 238.878 378.04 239.34 376.129C242.513 361.549 249.11 348.073 255.649 334.713L255.948 334.103C257.976 330.188 259.873 326.64 261.651 323.314C269.728 308.205 275.353 297.683 279.666 278.236C280.291 275.661 280.91 273.084 281.531 270.507C283.636 261.755 285.742 253.002 288.042 244.302C287.871 243.014 287.71 241.842 287.561 240.758C286.518 233.148 286.064 229.838 286.489 220.724C287.611 183.832 305.635 161.684 348.438 167.66C353.86 167.297 356.754 163.682 358.349 158.893C358.495 158.563 359.005 158.807 358.92 159.13C358.206 162.447 357.108 166.219 354.101 168.177C352.605 185.689 380.99 191.539 392.971 182.854C396.634 180.576 397.59 178.559 397.675 174.416C396.034 172.407 395.746 169.927 395.458 167.446C395.304 166.116 395.15 164.785 394.787 163.528L399.216 172.37C401.874 173.717 404.567 174.988 407.258 176.258C412.543 178.752 417.821 181.242 422.812 184.304C437.065 191.039 439.336 192.213 439.705 207.64C441.027 222.473 439.987 235.1 439.069 246.235C436.627 275.868 435.056 294.927 481.218 316.852C485.469 313.881 488.404 317.661 488.174 321.875C490.577 320.706 492.991 319.768 495.679 319.284C491.319 317.953 493.02 311.643 495.722 309.37C504.553 302.663 519.724 303.891 518.98 317.593C521.01 318.32 520.388 321.513 518.364 321.925C531.839 326.616 543.302 335.108 554.655 343.518C557.334 345.503 560.007 347.483 562.699 349.408C560.586 338.518 558.601 327.555 557.952 316.517C557.785 316.459 557.754 316.205 557.929 316.129C557.636 314.302 558.371 314.016 558.85 315.905C592.163 309.9 626.363 309.675 660.141 310.126C678.351 310.354 696.679 312.779 713.608 319.642C714.042 319.867 714.735 320.126 715.533 320.423C718.651 321.589 723.358 323.348 720.376 325.953C719.773 329.746 718.508 333.433 717.255 337.091C717.04 337.716 716.826 338.34 716.616 338.964C716.122 340.337 715.629 341.709 715.135 343.081C706.417 367.327 697.7 391.57 689.644 416.039C689.433 416.675 689.221 417.311 689.009 417.948C687.395 422.791 685.782 427.635 684.266 432.508C684.195 432.738 684.125 432.98 684.053 433.228C683.499 435.144 682.833 437.445 680.526 437.463C678.147 439.087 675.496 440.306 672.747 441.19C667.528 471.131 643.261 493.335 621.606 513.15L621.203 513.519C622.272 515.089 623.289 516.713 624.174 518.398C628.291 518.761 632.146 517.299 635.963 515.851C637.85 515.135 639.727 514.423 641.621 513.937C662.578 507.138 685.302 505.074 707.216 507.246C708.075 507.332 708.798 508.212 708.262 509.041ZM576.985 800.811C652.925 881.709 789.172 851.461 828.416 750.063C882.383 622.905 754.19 480.718 621.303 542.899L621.37 543.131C622.001 545.309 622.632 547.484 623.288 549.653C698.127 511.642 793.314 552.094 822.502 628.491C873.28 748.116 754.944 882.572 628.471 828.415C521.827 783.274 507.099 629.513 600.62 563.272C599.894 560.964 599.194 558.648 598.519 556.327C519.324 610.641 509.278 733.683 576.985 800.811ZM708.665 694.964C706.5 693.205 704.346 691.436 702.202 689.651C702.045 691.234 701.646 692.786 700.983 694.248C703.546 694.48 706.105 694.722 708.665 694.964ZM697.303 692.005C697.205 692.179 697.103 692.351 696.995 692.519C697 692.535 697.005 692.549 697.009 692.564C697.014 692.578 697.018 692.593 697.023 692.608C697.123 692.409 697.216 692.21 697.303 692.005ZM696.664 693.031C696.485 693.298 696.295 693.563 696.092 693.82L696.251 693.835C696.415 693.626 696.567 693.407 696.703 693.18C696.696 693.155 696.69 693.13 696.683 693.105C696.677 693.081 696.671 693.056 696.664 693.031ZM688.259 690.302C688.247 690.534 688.262 690.609 688.285 690.609C688.326 690.609 688.398 690.34 688.344 690.33C688.349 690.33 688.318 690.322 688.259 690.302ZM685.941 681.815C686.94 683.029 687.989 684.304 688.357 685.854C688.593 686.859 688.513 687.792 688.411 688.774C688.909 688.382 689.367 687.843 689.83 687.298C691.003 685.917 692.206 684.5 694.171 685.345C694.523 680.455 688.557 676.997 684.171 678.533C684.127 678.584 683.979 678.842 684.022 678.933C684.388 679.927 685.149 680.852 685.941 681.815ZM682.227 694.284C682.227 694.087 682.26 693.886 682.33 693.699C681.298 694.589 680.049 695.148 678.705 695.423C679.044 695.529 679.397 695.624 679.742 695.718C680.113 694.93 681.286 694.571 682.168 694.302L682.227 694.284ZM678.977 676.429C678.177 676.683 677.277 676.968 677.287 677.721C677.585 677.674 677.329 678.018 677.182 678.034C677.821 678.18 678.452 678.389 679.062 678.649C679.077 677.805 679.383 676.837 679.793 676.128C679.573 676.24 679.282 676.332 678.977 676.429ZM672.868 684.25C673.166 684.695 673.464 685.14 673.745 685.597C675.316 688.273 671.295 690.611 669.48 688.064C669.585 688.396 669.718 688.714 669.877 689.009C670 688.908 670.101 689.098 669.959 689.155C671.346 691.543 674.322 692.483 677.061 692.436C676.914 690.548 677.131 690.523 677.251 692.424C684.402 691.497 683.197 679.812 671.457 681.317C671.38 681.383 671.303 681.453 671.229 681.524C671.693 682.495 672.281 683.373 672.868 684.25ZM602.259 568.368C594.994 573.816 588.1 580.101 581.925 586.899C599.348 606.64 616.327 626.82 633.298 646.991C639.685 654.581 646.07 662.17 652.478 669.735C653.197 670.588 653.929 671.435 654.661 672.284C656.48 674.391 658.305 676.505 659.962 678.724C660.955 679.27 661.951 679.808 662.96 680.327C635.825 647.173 615.829 608.676 602.259 568.368ZM543.533 678.482C542.549 694.63 544.126 711.082 548.206 726.534C572.805 717.622 597.671 709.404 622.533 701.187C634.535 697.221 646.536 693.254 658.505 689.211C638.147 684.914 617.401 683.968 596.646 683.021C578.869 682.21 561.085 681.399 543.533 678.482ZM633.423 699.164C608.884 707.273 584.343 715.382 559.714 723.223C558.848 723.5 557.979 723.785 557.109 724.072C554.183 725.034 551.235 726.003 548.249 726.693C593.646 885.786 813.206 862.891 828.528 699.848C789.686 701.835 750.674 700.791 712.002 696.524C732.812 712.445 754.206 727.614 775.589 742.775C784.328 748.972 793.065 755.167 801.76 761.411C802.298 761.895 801.608 762.653 801.015 762.359C769.628 742.076 739.61 719.492 710.34 696.323C707.095 695.924 703.856 695.481 700.629 694.984C700.106 695.972 699.455 696.892 698.672 697.688C711.569 740.093 720.719 783.803 725.221 827.848C725.267 828.523 724.138 828.672 724.017 828.007C717.717 784.348 709.408 740.98 698.003 698.308C692.412 702.376 684.465 701.78 678.005 700.345C681.931 744.503 685.35 788.765 687.99 833.002C687.926 833.977 686.39 834.294 686.171 833.243C682.453 788.969 679.866 744.543 677.426 700.171C674.966 699.409 672.242 697.732 672.868 695.025C670.609 694.327 668.638 692.811 667.482 690.899C666.265 692.695 665.045 694.488 663.824 696.281C661.344 699.924 658.865 703.566 656.422 707.232C656.919 706.838 657.415 706.444 657.912 706.05C662.252 702.602 666.595 699.152 671.065 695.886C671.588 695.503 672.206 695.967 672.322 696.492C669.317 699.887 665.382 702.72 661.451 705.55C658.666 707.555 655.882 709.559 653.432 711.761C634.506 740.591 618.111 771.029 604.675 802.699C604.116 804.022 601.895 803.458 602.451 802.097C614.684 771.748 630.188 742.725 648.446 715.458C640.279 721.679 632.069 728.016 623.845 734.364C607.171 747.235 590.437 760.153 573.872 772.245C593.569 756.514 613.397 740.935 633.242 725.385C635.257 723.81 637.272 722.235 639.286 720.66C643.278 717.539 647.269 714.418 651.259 711.3C655.74 704.772 660.423 698.379 665.397 692.225C657.659 697.103 649.934 702.026 642.204 706.953C618.596 721.998 594.943 737.073 570.766 750.982C570.155 751.116 569.837 750.461 570.193 750.014C588.667 737.651 607.896 726.113 627.095 714.594C640.529 706.532 653.949 698.48 667.084 690.161C666.312 688.545 666.081 686.693 666.625 684.795C666.502 684.64 666.379 684.487 666.256 684.335C666.127 684.176 665.997 684.017 665.869 683.86C630.845 664.259 593.08 646.582 556.426 632.086C590.579 644.006 623.607 658.92 655.302 676.176C647.528 666.756 639.71 657.364 631.891 647.972C615.058 627.753 598.222 607.53 581.828 587.005C559.106 611.902 545.514 644.745 543.545 678.278C559.739 680.328 576.125 680.815 592.507 681.302C616.947 682.028 641.379 682.754 665.153 688.669C666.276 689.042 665.802 690.546 664.673 690.377C663.568 690.211 662.468 690.015 661.37 689.8C658.862 690.848 656.257 691.677 653.658 692.504C652.714 692.804 651.771 693.104 650.834 693.414C645.029 695.328 639.226 697.246 633.423 699.164ZM797.707 595.689C767.042 622.735 735.186 648.902 701.504 672.192C698.594 672.198 702.821 669.149 704.858 667.679C705.298 667.362 705.635 667.118 705.777 666.995C737.132 644.12 767.487 619.964 797.525 595.452C776.303 568.045 745.017 548.501 710.689 542.468L710.42 544.495C705.192 583.898 699.963 623.314 697.039 662.963C714.635 628.551 734.045 593.498 757.322 563.071C736.861 596.71 716.432 630.412 698.947 665.667C698.516 666.521 698.098 667.396 697.677 668.275C697.269 669.129 696.858 669.988 696.431 670.839C696.377 671.335 696.35 671.843 696.323 672.352C696.271 673.327 696.218 674.309 695.977 675.229C700.32 678.456 702.639 684.018 702.232 689.299C704.851 691.227 707.467 693.16 710.081 695.1L710.721 695.161C715.214 695.587 719.705 696.013 724.202 696.39C758.92 699.358 793.841 699.845 828.641 698.243C830.087 676.978 827.083 655.423 819.79 635.637C780.222 647.494 741.088 660.786 702.507 675.428C701.489 675.753 700.799 674.163 701.776 673.721C740.26 658.681 779.716 645.981 819.726 635.46C814.453 621.137 806.994 607.622 797.707 595.689ZM641.565 547.615C643.838 552.085 645.906 556.603 647.853 561.213C648.663 562.82 651.204 569.902 647.058 567.95C645.63 566.433 644.783 564.419 644.078 562.499C642.345 557.833 640.835 553.12 639.605 548.297C634.576 550.086 629.586 552.191 624.791 554.55C637.177 596.935 658.915 635.656 681.955 673.134C685.196 671.944 688.939 671.992 692.155 673.18C694.385 669.107 694.511 666.829 694.733 662.838C694.76 662.354 694.789 661.844 694.822 661.302C698.208 621.495 702.211 581.588 709.996 542.345C707.508 541.914 705.008 541.551 702.491 541.256C702.418 541.571 702.344 541.888 702.269 542.206C701.75 544.413 701.212 546.697 701.045 548.96C701.009 549.353 700.771 549.817 700.324 549.89C695.589 550.17 697.937 543.682 698.888 541.056L698.949 540.886C695.764 540.596 692.561 540.412 689.339 540.341C686.196 582.964 684.693 625.664 684.245 668.381C684.207 669.112 683.132 669.11 683.09 668.381C682.427 625.677 684.562 582.819 688.99 540.331C678.525 540.121 668.066 541.066 657.954 543.161C663.76 582.146 670.412 621.005 677.7 659.735C677.772 660.45 676.664 660.533 676.471 659.899C668.45 621.352 662.004 582.38 657.351 543.288C652.014 544.414 646.748 545.855 641.565 547.615ZM594.283 510.164C594.464 514.375 594.646 518.586 595.439 522.751C606.072 580.436 632.475 634.831 669.706 680.503C669.713 680.501 669.721 680.501 669.731 680.501C668.988 677.216 674.525 677.442 676.605 677.91C675.911 676.829 677.533 675.708 678.665 674.925C678.96 674.721 679.222 674.541 679.4 674.389C647.773 635.121 613.093 554.919 610.784 504.943C610.784 504.575 611.364 504.484 611.443 504.855C613.498 514.222 615.883 523.532 618.443 532.791C640.349 522.606 664.097 517.55 688.345 517.889C689.555 517.322 690.696 516.766 691.629 515.871C692.248 515.572 692.802 515.446 693.382 515.313C693.6 515.263 693.823 515.213 694.053 515.152C695.367 514.382 696.812 513.81 698.255 513.239C700.692 512.275 703.122 511.314 704.9 509.406C685.275 507.646 665.325 509.362 646.315 514.46C639.431 516.79 632.528 519.056 625.514 520.984C625.765 521.374 625.948 521.827 626.132 522.28C626.44 523.04 626.747 523.799 627.373 524.263C628.707 525.394 627.617 527.317 626.196 527.735C623.824 528.436 622.888 526.08 622.395 524.331C621.294 520.415 620.001 516.5 618.009 512.924C617.4 511.82 616.854 510.662 616.306 509.502C614.733 506.17 613.151 502.816 610.03 500.634C608.861 500.927 607.639 500.909 606.422 500.891C605.874 500.883 605.326 500.875 604.785 500.896C602.294 500.934 599.82 501.296 597.356 501.657C596.162 501.832 594.97 502.006 593.78 502.143C594.052 504.809 594.168 507.486 594.283 510.164ZM590.097 486.725C590.833 489.11 591.568 491.495 592.238 493.9C592.779 495.951 593.197 498.01 593.508 500.077C597.494 497.428 602.32 496.233 607.073 495.833C604.451 486.094 601.502 476.371 598.555 466.655C594.888 454.562 591.224 442.481 588.198 430.398C588.188 430.265 588.195 430.129 588.21 429.993L587.945 429.853C585.298 428.453 583.331 427.413 580.161 428.244C578.264 428.626 576.674 429.508 576.337 431.444C576.287 431.731 576.103 431.883 575.881 431.935C579.723 444.428 583.536 456.975 585.801 469.877C586.677 475.636 588.386 481.178 590.097 486.725ZM499.215 581.146C509.886 570.351 520.557 559.556 531.311 548.842C549.862 530.263 568.557 511.818 587.368 493.496C586.616 490.948 585.819 488.417 585.021 485.884C584.581 484.488 584.141 483.091 583.708 481.689C563.904 503.139 542.563 523.303 521.222 543.468C490.906 572.112 460.588 600.759 434.672 633.094C434.575 633.22 434.469 633.336 434.357 633.439C435.062 633.428 440.951 634.133 437.874 634.259C438.758 634.479 439.372 635.596 438.47 636.121C439.928 637.001 441.386 637.882 442.845 638.762C443.136 636.856 445.179 634.997 447.095 633.253C448.121 632.32 449.111 631.419 449.777 630.562C466.45 614.289 482.831 597.718 499.215 581.146ZM459.463 652.299C458.986 651.979 458.493 651.648 458.402 651.075C450.437 646.258 442.476 641.44 434.515 636.617C433.498 636.837 432.375 636.876 431.246 636.914C428.705 637 426.132 637.088 424.651 639.256C424.71 639.616 424.577 640.012 424.231 640.181C423.53 640.94 421.888 640.677 421.838 639.278C421.945 636.006 426.962 634.306 429.681 633.689C427.57 632.41 425.46 631.132 423.35 629.854C420.773 630.427 418.241 631.194 415.764 632.095C415.478 632.199 415.172 632.341 414.854 632.488C413.998 632.884 413.062 633.318 412.229 633.137C412.195 633.177 412.163 633.216 412.133 633.255C412.1 633.299 412.07 633.343 412.043 633.387C412.098 633.41 412.152 633.434 412.205 633.457C412.374 633.53 412.526 633.596 412.62 633.621C413.654 633.908 413.395 635.357 412.374 635.407C410.784 635.486 408.214 635.057 408.747 632.854C410.127 629.76 416.053 628.458 419.387 627.726C419.501 627.701 419.612 627.676 419.719 627.653C419.25 627.37 418.775 627.081 418.296 626.788C413.347 623.771 407.887 620.441 401.994 620.972C401.114 621.586 400.045 621.542 399.052 621.244C395.221 622.044 391.759 623.994 388.591 626.199C386.26 627.612 384.187 629.496 382.115 631.379C378.638 634.539 375.165 637.695 370.485 638.618C364.144 639.473 355.869 633.002 354.391 627.282C354.25 627.262 354.109 627.229 353.971 627.187C352 633.537 352.062 640.185 352.245 646.728C363.372 647.431 374.492 648.316 385.614 649.201C402.655 650.557 419.7 651.914 436.783 652.618C442.042 652.875 447.301 653.107 452.562 653.313C455.037 653.435 457.461 653.397 459.787 652.523C459.683 652.447 459.574 652.374 459.463 652.299ZM352.173 647.378C352.147 647.567 352.115 647.757 352.08 647.947C352.787 647.819 353.516 647.795 354.245 647.801C353.522 647.712 352.809 647.592 352.173 647.378ZM459.043 665.899C468.905 665.531 469.653 658.496 461.609 653.742C460.61 654.343 459.303 654.411 458.136 654.471C457.812 654.488 457.499 654.504 457.206 654.531C456.738 655.982 452.028 655.592 448.329 655.287C446.655 655.148 445.188 655.027 444.416 655.101C429.648 654.766 414.928 653.492 400.215 652.219C385.302 650.928 370.398 649.638 355.459 649.327C355.284 649.326 355.102 649.323 354.917 649.32C353.379 649.293 351.581 649.263 350.786 650.455C350.764 653.515 351.503 656.018 354.958 656.461C377.323 661.966 400.185 665.371 423.213 666.317C435.11 666.774 447.166 666.9 459.043 665.899ZM442.036 679.599C442.033 678.805 442.031 678.013 442.041 677.219C442.046 676.879 442.077 676.473 442.11 676.044C442.155 675.459 442.204 674.831 442.195 674.266C438.106 673.849 434.015 673.439 429.917 673.137C430.127 673.588 430.232 674.082 430.207 674.563C430.89 675.19 431.275 676.167 431.138 677.114C431.634 677.893 431.804 678.851 431.553 679.704C435.044 679.78 438.537 679.747 442.036 679.599ZM352.17 709.772C375.922 720.502 399.505 703.374 416.844 688.603C417.319 687.643 417.883 686.736 418.555 685.902C415.377 685.66 412.217 685.622 409.064 685.585C403.429 685.519 397.818 685.452 392.181 684.218C394.574 686.735 391.019 687.893 388.421 688.739C387.722 688.967 387.093 689.172 386.667 689.374C381.25 691.507 375.799 693.561 370.32 695.534C372.267 713.3 355.168 710.288 351.244 696.579C350.039 696.876 348.815 696.969 347.57 696.914C347.334 697.209 346.959 697.408 346.492 697.341C342.126 696.716 337.775 695.963 333.425 695.21C331.245 694.833 329.067 694.455 326.886 694.094C323.284 693.546 319.688 692.931 316.091 692.316C309.471 691.184 302.849 690.052 296.183 689.334C296.191 689.263 296.198 689.19 296.204 689.12C285.404 687.517 274.608 685.848 263.809 684.178C232.173 679.286 200.517 674.392 168.699 671.156C167.184 671.009 165.906 669.88 166.137 668.268C166.133 668.272 166.129 668.274 166.125 668.276L166.122 668.278C165.941 669.333 165.836 670.428 165.731 671.528C165.399 674.991 165.062 678.508 162.331 681.033C221.994 686.351 281.398 695.01 340.4 705.065C343.836 705.946 347.004 707.403 350.191 708.869C350.849 709.171 351.508 709.474 352.17 709.772ZM385.16 738.865C405.051 737.908 411.955 722.421 413.582 705.065C413.719 703.987 413.835 702.865 413.953 701.719C414.228 699.044 414.517 696.241 415.131 693.581C399.066 707.228 377.81 721.113 355.707 714.213C355.239 715.135 354.248 715.7 353.288 716.247C352.864 716.489 352.447 716.727 352.083 716.99C348.017 719.948 343.942 722.904 339.864 725.846C341.325 727.203 342.479 729.08 340.859 730.789C337.656 734.261 332.661 733.575 328.306 732.978L328.035 732.941C325.229 733.827 321.97 734.074 319.225 732.789C317.765 734.003 316.209 735.548 316.169 737.503C316.388 737.304 316.44 737.467 316.363 737.676L316.617 737.694C339.393 739.351 362.366 741.022 385.16 738.865ZM326.752 715.502C323.289 718.777 319.801 722.818 318.848 727.563C318.568 729.928 320.684 730.529 322.619 730.355C322.947 729.904 323.849 729.737 324.387 730.02C325.561 729.674 326.685 729.126 327.766 728.589C336.542 724.323 344.846 719.156 352.324 712.946C351.293 712.614 349.876 711.928 348.329 711.18C345.019 709.578 341.114 707.688 339.124 708.365C338.078 709.004 337.047 709.666 336.016 710.327C333.037 712.239 330.061 714.149 326.752 715.502ZM54.5268 783.803C128.166 861.506 260.502 832.879 298.873 734.952C303.211 724.47 306.36 713.626 308.312 702.517C305.439 702.066 302.567 701.62 299.692 701.176C280.834 813.79 142.21 864.203 60.3645 778.314C-16.1431 701.097 18.6087 556.369 127.593 529.953C127.075 528.464 126.673 526.947 126.426 525.392C11.0397 552.215 -27.5236 702.236 54.5268 783.803ZM259.111 559.132C232.316 535.084 196.895 521.272 160.592 521.402C149.325 521.402 138.248 522.657 127.45 525.15C127.845 526.682 128.394 528.159 129.045 529.598C173.512 518.729 222.244 532.324 255.077 563.746C256.092 562.738 257.111 561.729 258.128 560.721C258.192 560.327 258.468 559.981 258.737 559.641C258.872 559.471 259.006 559.303 259.111 559.132ZM119.903 510.96C122.237 510.911 124.436 510.864 126.242 511.049C137.728 511.461 149.1 511.251 160.592 510.817C185.532 512.181 210.465 512.559 235.42 512.937C244.443 513.074 253.469 513.211 262.499 513.394C262.596 513.249 262.721 513.118 262.873 513.006C252.097 506.737 240.455 500.724 227.716 500.027C200.925 498.918 174.069 499.565 147.222 500.213C132.278 500.574 117.337 500.934 102.412 500.991C101.514 502.73 101.83 504.845 102.886 506.526C105.89 511.257 113.417 511.098 119.903 510.96ZM62.7269 497.453C69.8447 496.688 77.0162 496.284 84.1789 496.102C131.326 495.002 178.573 493.903 225.712 495.394C231.547 495.908 237.11 497.151 242.545 499.063C245.756 499.93 248.903 501.022 251.95 502.365C254.557 503.478 256.973 504.921 259.39 506.365C261.711 507.751 264.032 509.138 266.524 510.233C268.57 511.256 270.624 512.267 272.679 513.279C277.655 515.728 282.635 518.179 287.506 520.807C288.807 521.508 288.626 522.892 287.803 523.653C288.294 524.482 288.932 525.209 289.566 525.933C289.734 526.124 289.902 526.315 290.067 526.508C290.771 525.933 291.493 525.38 292.216 524.826C293.343 523.964 294.47 523.101 295.528 522.153C295.051 521.741 294.485 521.145 293.858 520.484C291.609 518.113 288.572 514.912 286.039 516.433C285.875 516.546 285.703 516.536 285.562 516.458C248.256 486.539 197.371 486.286 151.105 487.66C126.789 487.844 102.469 488.171 78.1565 488.647C77.0018 488.827 75.0895 488.782 72.9209 488.732C67.5558 488.607 60.6214 488.445 59.7056 491.551C62.7242 491.489 62.7243 494.513 62.7244 496.826C62.7244 497.042 62.7244 497.252 62.7269 497.453ZM59.5055 514.976C59.1962 515.954 58.533 516.616 57.7563 516.924C58.4719 516.826 59.1901 516.657 59.8877 516.453C59.7518 515.964 59.6261 515.472 59.5055 514.976ZM287.198 527.903C286.405 526.922 285.609 525.938 285.34 524.721C285.294 524.5 285.272 524.183 285.287 523.837C279.852 521.31 274.502 518.586 269.157 515.865C268.518 515.54 267.88 515.215 267.241 514.89C266.516 515.325 265.441 515.594 264.445 515.844C264.258 515.891 264.073 515.937 263.894 515.983C263.638 516.447 263.161 516.783 262.456 516.77C241.348 516.371 220.241 515.968 199.133 515.553C224.025 521.808 247.163 534.152 266.258 551.21C271.807 545.385 277.706 539.901 283.607 534.416C285.259 532.88 286.911 531.344 288.556 529.801C288.191 529.132 287.695 528.518 287.198 527.903ZM159.424 608.028C157.699 600.41 155.974 592.794 153.906 585.294C153.279 581.052 151.154 577.205 149.023 573.349C147.781 571.101 146.537 568.85 145.588 566.516C144.228 563.762 142.889 561.007 141.552 558.255C137.7 550.327 133.862 542.428 129.571 534.661C126.821 535.329 124.09 536.087 121.384 536.939C130.945 566.647 139.759 596.614 148.566 626.56C150.948 634.661 153.33 642.761 155.727 650.853L155.915 650.821C159.237 650.244 162.723 649.639 165.399 647.487C166.873 646.299 168.976 648.265 167.702 649.51C164.566 652.175 160.479 652.959 156.426 653.737C151.413 654.699 146.451 655.651 143.405 660.138C142.22 662.04 141.784 664.47 143.059 666.259C144.755 664.021 147.567 663.382 150.225 663.018C156.49 661.885 161.055 657.193 165.378 652.749C166.309 651.791 167.23 650.845 168.153 649.949C173.101 645.047 178.047 640.139 182.993 635.232L184.57 633.666C178.873 633.151 170.513 616.027 164.432 603.57C162.088 598.769 160.083 594.662 158.699 592.466C159.899 597.711 161.169 602.945 162.439 608.18C165.315 620.028 168.192 631.882 170.254 643.885C170.321 644.454 170.327 645.021 170.332 645.588C170.337 646.08 170.342 646.572 170.387 647.066C170.399 647.179 170.234 647.183 170.197 647.091C165.409 634.454 162.416 621.237 159.424 608.028ZM204.204 719.103C201.079 717.261 206.834 714.515 208.513 716.285C208.59 716.34 208.613 716.421 208.598 716.489C229.972 716.462 251.31 717.859 272.564 720.022C275.349 720.31 278.129 720.637 280.907 720.987C281.8 721.164 282.73 721.248 283.661 721.333C285.463 721.497 287.272 721.661 288.845 722.495C291.348 715.284 293.275 707.905 294.624 700.395C271.283 696.725 247.874 693.523 224.465 690.321C203.607 687.468 182.749 684.615 161.939 681.431C152.864 690.767 137.362 681.031 141.469 669.069C136.427 664.332 140.549 656.543 145.883 653.88C148.502 652.401 151.39 651.657 154.324 651.106C151.469 641.479 148.585 631.858 145.7 622.235C137.211 593.916 128.718 565.583 120.951 537.075C21.1638 567.893 -7.35937 702.645 64.1012 774.862C133.518 849.055 255.228 818.585 287.891 725.166C285.099 724.914 282.306 724.66 279.511 724.406C257.211 722.378 234.832 720.342 212.417 719.627C211.757 719.598 211.09 719.578 210.422 719.557C208.341 719.494 206.234 719.43 204.204 719.103ZM306.146 516.078C305.613 516.556 305.082 517.031 304.568 517.513C282.99 538.446 261.739 559.705 240.487 580.964C226.582 594.874 212.677 608.784 198.68 622.603C193.446 627.489 188.451 632.672 183.453 637.858C174.894 646.741 166.326 655.631 156.535 663.048C155.147 663.827 153.652 664.46 152.105 664.856C151.602 664.965 151.078 665.055 150.55 665.145C148.228 665.543 145.803 665.96 144.493 668.086C139.181 677.042 150.247 687.185 158.933 680.954C158.805 680.964 158.495 680.857 158.735 680.758C161.064 680.149 162.586 676.982 163.018 674.752C159.722 676.5 157.742 673.255 156.078 670.53C155.647 669.823 155.237 669.152 154.831 668.611C154.036 668.558 153.228 668.708 152.393 668.862C152.095 668.918 151.793 668.973 151.487 669.021C147.229 668.873 150.354 665.113 154.477 666.347C156.508 666.074 158.564 667.516 160.197 668.674C160.601 668.939 161.046 669.141 161.489 669.342C162.197 669.664 162.9 669.984 163.424 670.554C163.475 669.903 163.539 669.251 163.647 668.606C161.843 668.096 160.784 665.94 161.449 664.223C161.697 663.031 162.895 662.045 164.17 662.026C164.139 662.031 164.109 662.036 164.078 662.041C164.038 662.047 163.999 662.054 163.96 662.061C164.067 662.051 164.701 661.953 164.674 661.939C165.315 661.997 166.159 662.187 166.478 662.761C193.124 637.868 220.229 613.424 247.336 588.978C269.378 569.1 291.421 549.221 313.218 529.099C312.055 523.589 310.902 518.079 309.753 512.569C308.668 513.822 307.401 514.956 306.146 516.078ZM164.655 661.937C164.666 661.937 164.672 661.938 164.674 661.939C164.667 661.938 164.661 661.938 164.655 661.937ZM194.181 640.415C188.451 645.617 182.719 650.818 176.989 656.015C191.773 652.809 207.026 652.051 222.096 651.335C219.482 650.324 216.86 649.326 214.237 648.328C207.513 645.77 200.784 643.21 194.181 640.415ZM170.272 662.04C174.647 659.887 180.035 658.762 184.393 661.438C187.362 663.051 191.179 668.534 188.323 671.612C224.458 675.98 260.452 681.378 296.406 686.983C296.686 683.757 296.863 680.514 296.934 677.247C277.751 671.208 258.717 664.688 239.793 657.895C235.879 656.476 231.971 655.034 228.07 653.578C225.738 653.618 223.404 653.679 221.073 653.757C212.099 653.937 203.16 654.713 194.224 655.489C188.162 656.015 182.102 656.542 176.032 656.882C175.379 657.469 174.707 658.051 174.031 658.636C172.756 659.741 171.467 660.856 170.272 662.04ZM310.079 689.155C310.307 686.557 310.474 683.946 310.574 681.322C307.712 680.534 304.865 679.694 302.026 678.828C301.931 681.829 301.749 684.815 301.484 687.787C304.349 688.238 307.214 688.694 310.079 689.155ZM265.975 575.13C289.854 602.811 302.654 639.182 302.092 675.72C304.942 676.577 307.799 677.409 310.666 678.203C311.574 638.939 297.293 599.873 270.797 570.74C270.263 571.225 269.73 571.711 269.197 572.196C268.122 573.174 267.048 574.151 265.975 575.13ZM278.706 563.552C291.436 577.582 301.564 593.583 308.853 611.204C319.233 636.152 323.283 663.778 320.736 690.846L320.955 690.88C329.164 692.165 337.385 693.451 345.534 695.021C347.306 695.159 349.102 695.016 350.791 694.448C337.724 640.475 325.063 586.284 313.803 531.869C302.074 542.396 290.371 552.952 278.706 563.552ZM354.113 696.72C353.978 696.342 353.859 695.942 353.762 695.547C353.876 695.939 353.993 696.331 354.113 696.72ZM390.958 675.2C392.957 669.911 398.852 667.671 402.333 672.987C407.008 682.882 388.761 684.467 390.958 675.2ZM386.223 678.288C386.166 675.109 386.265 671.768 387.475 668.81C386.131 668.77 385.209 667.156 385.887 666.022C380.588 665.206 375.307 664.263 370.057 663.194C369.588 663.206 368.809 662.987 367.951 662.745C365.889 662.165 363.371 661.456 363.593 663.514C363.666 670.415 365.525 677 367.385 683.586C368.432 687.296 369.48 691.007 370.208 694.773C375.257 691.972 380.345 689.251 385.477 686.597C386.185 686.318 386.86 685.889 387.537 685.46C388.827 684.641 390.119 683.82 391.65 684.032C389.639 683.275 387.959 682.018 387.1 679.896C386.6 679.606 386.238 679.072 386.223 678.288ZM362.299 661.518C362.173 661.49 362.045 661.463 361.918 661.433C361.991 661.552 362.058 661.674 362.125 661.797C362.176 661.7 362.235 661.608 362.299 661.518ZM319.672 478.053C315.273 477.584 310.877 477.072 306.483 476.551C310.072 495.263 314.356 513.823 318.64 532.383C323.161 551.973 327.683 571.563 331.388 591.332L331.954 594.149C338.74 627.919 345.539 661.758 355.556 694.775C355.706 695.253 355.849 695.737 355.993 696.222C356.813 698.987 357.649 701.802 359.809 703.884C362.423 705.861 365.656 706.176 367.211 703.075C367.743 701.222 367.374 699.374 366.998 697.492C366.939 697.201 366.881 696.91 366.826 696.617C365.823 691.789 364.997 686.895 364.171 682.002C362.979 674.936 361.787 667.872 360.061 661.011C348.971 658.899 347.135 657.162 347.812 645.909L347.82 645.786C348.087 641.292 348.357 636.758 349.228 632.338C349.79 629.679 350.749 627.071 351.957 624.571C352.009 623.018 352.111 621.471 352.262 619.931C349.75 619.961 349.126 617.321 348.566 614.952C348.354 614.052 348.15 613.192 347.856 612.532C347.729 612.106 347.603 611.68 347.476 611.255C346.856 609.173 346.236 607.093 345.628 605.012C333.336 563.502 324.073 521.035 319.672 478.053ZM339.126 558.88C339.156 558.86 339.19 558.9 339.174 558.928C338.954 559.354 338.528 559.109 338.369 558.754C342.845 577.673 347.33 596.605 352.857 615.261C355.606 597.936 363.562 582.375 371.516 566.816C376.38 557.303 381.242 547.791 384.915 537.877C380.69 539.834 376.46 541.822 372.226 543.811C361.223 548.981 350.188 554.166 339.126 558.88ZM349.687 541.972C345.333 544.27 340.982 546.566 336.648 548.882C336.479 548.938 336.302 548.945 336.13 548.915C336.838 552.111 337.564 555.303 338.307 558.492C338.337 557.87 339.19 557.447 339.812 557.138C339.978 557.056 340.128 556.982 340.241 556.914C345.486 553.927 350.907 551.252 356.323 548.578C356.92 548.283 357.518 547.988 358.115 547.693C360.77 546.39 363.421 545.083 366.072 543.776C372.808 540.454 379.542 537.133 386.32 533.9C387.899 529.221 389.11 524.439 390.268 519.638C377.03 527.546 363.346 534.765 349.687 541.972ZM324.304 482.933C324.476 484.279 324.646 485.611 325.037 486.921C326.078 502.322 329.372 517.517 332.655 532.667C333.623 537.133 334.591 541.595 335.499 546.057C338.634 544.224 341.942 542.72 345.253 541.215C348.612 539.687 351.974 538.159 355.161 536.284C349.023 539.321 342.875 542.337 336.653 545.177C347.509 539.112 358.743 533.536 369.972 527.962C376.944 524.501 383.914 521.041 390.791 517.466C391.255 515.51 391.719 513.557 392.202 511.606C390.337 511.375 388.683 510.739 387.085 509.726C370.088 500.189 353.805 489.694 338.135 478.171C335.796 478.869 333.244 479.071 330.775 479.028C328.483 479.478 326.152 479.775 323.822 479.892C324.046 480.911 324.175 481.926 324.304 482.933ZM375.948 632.156C382.43 626.915 389.379 621.718 397.462 619.175C396.892 616.102 397.097 612.852 398.288 609.956C379.719 609.947 367.744 611.633 355.978 626.991C356.082 627.295 356.4 627.462 356.68 627.61C357.02 627.79 357.306 627.941 357.085 628.272C361.535 633.939 369.911 637.805 375.948 632.156ZM273.569 483.481C274.828 480.147 276.925 477.124 280.376 475.696C280.704 475.543 281.038 475.399 281.371 475.263C272.324 474.68 263.411 473.382 254.579 471.334C254.722 471.942 254.845 472.561 254.968 473.182C255.342 475.065 255.719 476.969 256.695 478.658C261.152 477.3 263.961 479.486 266.331 482.97C268.119 485.029 272.023 486.717 273.569 483.481ZM242.781 383.045C241.619 384.998 240.699 387.064 240.016 389.201C238.624 393.564 238.221 398.216 238.762 402.775C271.401 382.382 311.669 377.275 349.272 384.39C358.721 385.736 368.336 386.437 377.831 385.147C376.329 376.703 377.058 368.028 377.778 359.472C377.922 357.749 378.067 356.03 378.193 354.32C378.583 348.541 379.235 342.3 383.286 337.765C362.45 334.059 341.646 327.385 323.857 315.902C298.752 299.432 294.763 279.272 289.633 253.347C289.285 251.587 288.931 249.8 288.566 247.986C286.17 267.926 281.986 280.643 276.365 297.725C275.302 300.953 274.189 304.338 273.026 307.956C269.219 318.743 264.349 328.641 259.517 338.46C252.616 352.486 245.794 366.351 242.263 382.412C242.584 382.296 242.984 382.705 242.781 383.045ZM345.666 170.822C318.656 168.909 301.267 172.379 294.916 197.321C286.124 233.184 294.612 266.837 311.407 299.6C326.779 321.389 355.506 327.163 380.917 332.27C381.76 332.44 382.6 332.609 383.435 332.777C384.573 331.863 387.474 332.899 390.24 333.886C392.231 334.597 394.151 335.283 395.295 335.199C395.451 335.025 395.608 334.811 395.779 334.662C395.447 334.953 395.448 334.952 395.556 334.842C395.66 334.736 395.863 334.529 395.962 334.385C397.527 332.098 398.661 329.502 399.755 326.973C399.757 326.968 399.762 326.954 399.768 326.946C399.768 326.937 399.772 326.929 399.778 326.92C401.026 323.992 402.143 321.708 403.26 319.425C404.376 317.144 405.492 314.863 406.739 311.938C356.468 301.135 317.253 265.265 331.116 215.012C331.185 214.813 331.493 214.841 331.495 215.062C331.504 216.923 331.481 218.783 331.457 220.643C331.408 224.518 331.36 228.392 331.606 232.27C333.285 268.664 355.362 285.983 389.734 300.723C386.009 277.906 377.8 261.091 369.995 245.104C359.098 222.784 348.989 202.076 352.968 168.895C350.806 170.095 348.254 170.622 345.666 170.822ZM400.863 179.947C392.348 194.282 368.298 193.132 357.305 182.119C356.338 181.113 355.463 179.994 354.725 178.805C355.744 207.839 364.63 225.662 374.015 244.486C381.45 259.401 389.199 274.943 393.597 297.188C394.253 289.741 394.865 282.99 395.433 276.722C398.611 241.675 400.418 221.742 400.863 179.947ZM419.945 185.673C415.163 182.114 410.04 178.975 404.521 176.626L404.381 176.556C403.64 176.182 402.88 175.8 402.126 175.395C406.51 214.602 404.541 237.394 401.893 268.046C400.961 278.826 399.946 290.579 399.093 304.36C403.183 305.717 407.367 306.814 411.615 307.626C413.974 308.08 414.007 311.3 412.394 312.412C412.243 312.685 412.09 312.238 411.947 311.819C411.813 311.428 411.687 311.061 411.579 311.328C411.582 311.317 411.588 311.303 411.595 311.284C411.6 311.271 411.606 311.257 411.612 311.24C411.163 312.297 410.752 313.368 410.341 314.438C413.597 315.159 416.774 316.231 419.944 317.3C423.763 318.589 427.573 319.874 431.502 320.539C428.728 318.307 425.946 316.002 423.715 313.226C422.9 312.092 422.2 311.866 421.364 311.596C420.754 311.398 420.072 311.178 419.221 310.565C419.181 311.457 419.138 312.023 419.103 312.486C419.036 313.373 418.997 313.882 419.06 315.582C419.109 316.915 417.131 316.852 416.993 315.582C416.762 314.1 416.531 312.684 416.309 311.311C415.086 303.784 414.081 297.592 414.183 289.337C414.19 286.027 414.188 282.875 414.187 279.851C414.171 251.736 414.161 234.664 421.376 204.584C421.438 204.43 421.638 204.463 421.658 204.621C421.929 206.694 421.843 208.777 421.758 210.86C421.742 211.247 421.726 211.634 421.713 212.021C421.238 219.417 420.749 225.917 420.298 231.927C418.748 252.541 417.633 267.381 419.008 292.812C419.252 294.4 419.213 296.306 419.173 298.281C419.086 302.513 418.993 307.06 421.661 309.465C425.153 313.297 429.351 315.172 433.774 317.148C436.013 318.149 438.31 319.175 440.602 320.494C441.267 321.009 442.061 320.85 442.853 320.692C443.15 320.633 443.447 320.573 443.736 320.549C445.626 320.224 447.47 320.025 449.361 320.476C453.938 321.582 457.106 325.385 459.781 328.944C463.298 326.878 467.34 326.331 471.389 325.784C474.324 325.387 477.263 324.99 480.008 324.012C479.764 323.417 479.564 322.805 479.436 322.188C429.555 297.181 430.502 281.877 434.483 233.286C434.543 230.409 434.611 227.869 434.674 225.541C434.952 215.23 435.118 209.094 433.9 196.405C432.981 191.845 429.407 190.305 425.612 188.671C423.673 187.835 421.675 186.974 419.945 185.673ZM483.403 322.696C484.099 324.162 484.948 325.95 482.926 326.701C478.772 328.224 474.394 328.678 470.01 329.132C466.971 329.447 463.929 329.762 460.956 330.434C461.216 330.787 461.647 331.216 462.119 331.686C463.707 333.268 465.762 335.314 463.357 336.512C463.475 336.767 463.588 337.026 463.698 337.291C468.717 336.656 473.757 336.14 478.797 335.624C482.143 335.281 485.488 334.939 488.828 334.562C486.024 330.613 484.538 325.891 484.355 321.091C484.18 321.651 483.766 322.162 483.296 322.47C483.331 322.544 483.367 322.62 483.403 322.696ZM553.195 348.157C536.329 335.551 517.97 321.83 495.73 322.745C493.283 322.707 490.731 322.704 488.279 322.976C488.574 326.043 489.699 329.032 491.318 331.666C511.36 328.402 529.065 339.839 542.371 353.392C548.663 358.099 556.923 358.693 564.549 358.916C564.274 357.487 563.996 356.056 563.717 354.623L563.615 354.101C561.091 354.276 559.171 352.719 557.272 351.18C556.445 350.509 555.623 349.842 554.756 349.323C554.237 348.935 553.717 348.547 553.195 348.157ZM512.581 313.521C510.612 309.26 503.783 311.344 500.421 312.782C499.692 313.201 499.108 313.664 498.679 314.287C499.664 314.62 500.349 315.62 500.339 316.598C504.529 317.255 508.795 317.581 513.04 317.5C513.178 316.229 513.139 315.143 512.781 314.078C512.783 314.085 512.565 313.521 512.581 313.521ZM540.537 357.125C540.506 357.159 540.473 357.192 540.436 357.225C539.791 357.797 539.152 358.404 538.508 359.015C538.045 359.455 537.579 359.896 537.108 360.33C539.972 360.954 542.939 360.636 545.849 360.325C546.042 360.304 546.234 360.284 546.427 360.263C544.338 359.448 542.364 358.416 540.537 357.125ZM421.671 351.512C422.151 351.331 422.635 351.099 423.125 350.839C422.908 350.656 422.691 350.472 422.474 350.289C420.998 349.04 419.523 347.793 417.998 346.61C417.88 348.623 419.696 350.031 421.172 351.176C421.239 351.228 421.306 351.28 421.371 351.331C421.468 351.394 421.569 351.454 421.671 351.512ZM457.114 331.23C454.328 327.459 451.464 323.582 446.45 323.483C446.534 323.527 446.617 323.571 446.699 323.617C446.76 323.651 446.821 323.686 446.882 323.722C444.231 322.81 441.527 323.178 438.837 323.543C437.204 323.765 435.577 323.987 433.969 323.921C429.217 323.535 424.887 321.88 420.56 320.225C416.938 318.84 413.317 317.455 409.451 316.817C408.987 318.058 408.533 319.307 408.079 320.557C406.048 326.145 404.009 331.758 401.032 336.905C410.681 335.371 419.103 342.319 426.102 348.092C426.386 348.326 426.668 348.558 426.947 348.788C427.034 348.75 427.121 348.713 427.209 348.677C427.948 349.507 428.928 350.005 429.888 350.492C430.047 350.573 430.205 350.653 430.361 350.734C430.372 351.295 430.945 351.486 431.486 351.666C431.73 351.748 431.968 351.827 432.145 351.937C432.106 352.001 432.07 352.067 432.028 352.13C433.907 352.658 435.678 352.027 437.523 351.369C437.621 351.334 437.72 351.298 437.819 351.263C440.737 350.146 443.711 349.139 446.685 348.13C451.254 346.582 455.824 345.033 460.192 343.09C461.675 341.894 461.064 340.343 460.482 338.866C459.964 337.551 459.468 336.295 460.497 335.401C459.297 334.185 458.211 332.716 457.114 331.23ZM400.317 337.964C399.126 339.559 397.588 340.784 395.351 340.882C394.797 340.907 394.246 340.867 393.699 340.786C393.586 343.143 393.437 345.509 393.287 347.879C392.67 357.667 392.047 367.536 393.912 377.19C401.291 378.794 408.773 379.958 416.313 380.494C416.624 371.603 416.246 362.699 415.559 353.833C413.388 351.224 411.835 346.871 415.734 344.935C411.128 341.589 405.78 339.506 400.317 337.964ZM383.607 360.977C383.324 366.476 383.041 371.979 383.312 377.485C383.26 378.33 383.405 379.355 383.557 380.425C383.92 382.985 384.319 385.8 382.135 386.996C381.782 388.839 376.624 389.299 373.432 389.583C372.61 389.656 371.919 389.718 371.473 389.789C379.469 390.487 387.17 392.645 394.866 394.802C398.323 395.771 401.78 396.74 405.262 397.576C401.346 393.83 397.587 388.789 398.488 383.138C390.178 382.017 388.172 381.12 388.177 372.43C387.652 361.758 388.121 350.476 392.299 340.502C390.318 339.934 388.44 339.421 386.426 338.876C384.216 343.518 384.066 348.7 383.919 353.765C383.895 354.595 383.871 355.422 383.838 356.243C383.77 357.82 383.688 359.398 383.607 360.977ZM557.224 423.68C553.598 403.056 555.701 392.773 567.757 375.587C566.947 371.399 566.139 367.213 565.339 363.022C562.44 363.275 559.414 362.897 556.445 362.527C555.129 362.363 553.824 362.2 552.546 362.094C551.04 362.205 549.509 362.406 547.969 362.608C543.544 363.19 539.043 363.782 534.831 362.258C529.825 367.116 500.942 358.373 493.717 356.101C491.834 355.477 489.937 354.883 488.039 354.289C480.036 351.785 472.018 349.276 465.054 344.455C463.678 343.569 464.964 341.388 466.349 342.279C469.424 344.259 472.647 346.012 475.996 347.493C489.038 352.331 502.661 355.162 516.271 357.99C519.502 358.662 522.733 359.333 525.954 360.031C526.678 360.09 527.445 360.3 528.22 360.511C529.954 360.985 531.727 361.469 533.143 360.305C534.389 359.238 535.61 358.142 536.83 357.047C537.388 356.546 537.946 356.045 538.506 355.547C526.327 342.368 510.343 334.146 492.103 332.969C494.874 337.65 489.398 338.578 485.814 338.604C482.521 338.969 479.234 339.377 475.948 339.786C472.189 340.253 468.43 340.719 464.662 341.122C465.04 345.287 460.889 347.247 457.445 348.271C451.741 350.381 446.037 352.49 440.33 354.599C436.555 356.273 432.115 357.391 428.427 354.899C428.071 355.083 427.711 355.279 427.346 355.478C425.063 356.718 422.594 358.06 419.991 357.241C420.633 365.726 420.629 374.235 420.491 382.737C420.479 383.861 419.517 384.862 418.35 384.842C412.099 384.733 405.845 384.27 399.665 383.319C401.362 386.879 404.307 389.536 407.199 392.145C408.07 392.931 408.937 393.713 409.763 394.514C410.286 395.049 410.884 395.547 411.486 396.049C412.837 397.175 414.208 398.317 414.792 399.93C438.024 405.784 461.192 414.014 481.146 427.296C490.182 433.445 486.941 443.772 483.147 452.002C479.28 461.715 475.317 471.388 471.262 481.027C493.468 467.958 516.163 455.698 538.851 443.442C546.73 439.186 554.609 434.93 562.466 430.641C559.194 430.008 557.647 426.634 557.224 423.68ZM462.23 502.639C462.309 502.597 462.389 502.555 462.467 502.512C462.414 502.527 462.361 502.542 462.308 502.556C462.195 502.587 462.081 502.618 461.97 502.651C461.946 502.707 461.922 502.763 461.897 502.819C462.007 502.758 462.119 502.698 462.23 502.639ZM571.799 440.408C571.631 439.438 571.462 438.467 571.266 437.498C570.836 435.405 570.44 433.078 571.066 430.973C568.89 430.491 566.738 430.218 564.523 430.749C550.65 440.353 535.764 448.428 520.899 456.492C515.747 459.287 510.598 462.08 505.494 464.935C503.287 466.167 501.077 467.396 498.867 468.624C489.239 473.977 479.608 479.331 470.173 485.008C468.022 487.83 466.66 491.376 465.298 494.918C464.396 497.263 463.496 499.607 462.367 501.74C462.693 501.61 463.019 501.481 463.345 501.352C470.747 498.421 478.222 495.46 484.996 491.286C485.753 491.13 487.647 489.969 489.689 488.717C492.808 486.805 496.272 484.682 496.552 485.609C514.43 476.805 532.03 467.478 549.475 457.876C553.115 455.88 556.744 453.869 560.363 451.837C561.302 451.432 562.683 450.565 564.21 449.607C567.36 447.63 571.128 445.264 572.905 445.769C572.424 443.996 572.112 442.203 571.799 440.408ZM431.869 635.166L432.076 635.141C432.028 635.112 431.981 635.083 431.933 635.055C431.69 635.114 431.449 635.178 431.21 635.246C431.429 635.219 431.649 635.192 431.869 635.166ZM430.876 631.536C430.922 631.35 431.004 631.173 431.125 631.012C466.836 587.672 508.571 549.55 550.168 511.553C561.319 501.368 572.46 491.191 583.472 480.926C582.882 479.135 582.285 477.345 581.688 475.556C578.684 466.555 575.68 457.551 573.543 448.31C543.201 467.056 510.728 482.803 478.205 497.662C487.647 506.18 483.156 519.606 477.371 528.885C472.004 538.498 466.579 548.079 461.153 557.66C458.525 562.301 455.897 566.942 453.275 571.587C446.676 582.529 440.772 593.827 434.868 605.127C432.405 609.84 429.942 614.553 427.429 619.241C427.13 619.691 426.83 620.204 426.519 620.738C425.194 623.009 423.648 625.661 420.904 625.483C423.091 627.307 425.636 627.599 428.391 627.039C429.484 626.914 429.688 628.673 428.648 628.9C428.115 629.017 427.581 629.123 427.047 629.225L428.286 629.973C429.15 630.494 430.013 631.015 430.876 631.536ZM574.253 408.983C573.903 407.189 573.553 405.395 573.205 403.602C572.717 401.093 572.228 398.584 571.739 396.075C570.582 390.137 569.426 384.2 568.275 378.261C567.728 379.377 567.165 380.49 566.603 381.603C563.048 388.634 559.482 395.686 559.565 403.763C559.406 409.315 560.117 414.882 560.904 420.369C560.948 420.676 560.986 421.013 561.026 421.367C561.209 423.004 561.433 424.999 562.517 426.115C563.538 426.847 564.783 426.62 566.056 426.387C567.081 426.2 568.123 426.009 569.081 426.314C569.358 426.361 569.657 426.451 569.964 426.543C570.723 426.771 571.533 427.015 572.207 426.669C573.941 425.376 574.574 423.288 575.194 421.24C575.472 420.323 575.747 419.413 576.118 418.587C575.5 415.386 574.876 412.184 574.253 408.983ZM578.097 426.606C578.015 426.483 577.938 426.358 577.868 426.23C577.806 426.358 577.741 426.484 577.675 426.609C577.628 426.699 577.579 426.788 577.53 426.876C577.716 426.778 577.905 426.688 578.097 426.606ZM589.242 432.153C589.227 432.065 589.213 431.976 589.199 431.887C589.116 431.844 589.039 431.798 588.967 431.747C589.038 431.924 589.108 432.1 589.179 432.277L589.331 432.658C589.299 432.491 589.27 432.322 589.242 432.153ZM670.931 441.712C647.241 446.075 622.098 441.195 599.34 434.3C596.502 433.363 593.686 432.34 590.929 431.187C594.08 443.405 597.828 455.474 601.578 467.546C604.526 477.04 607.475 486.535 610.135 496.107C611.614 496.772 611.857 499.003 610.812 500.117C614.048 500.943 615.856 504.087 617.544 507.024C618.083 507.96 618.609 508.876 619.166 509.689C640.586 490.514 661.189 469.091 670.931 441.712ZM677.548 328.032C677.861 327.106 676.375 326.709 676.063 327.63C669.236 350.061 663.45 372.876 658.429 395.761C657.474 398.916 660.014 398.748 659.792 397.149C664.549 373.886 670.86 350.835 677.548 328.032ZM52.5754 515.606C53.1346 516.176 53.8194 516.609 54.6632 516.821C54.9864 516.904 55.3146 516.957 55.6481 516.987C54.8997 516.766 54.1841 516.198 53.7245 515.475C53.3526 515.583 52.9602 515.626 52.5754 515.606ZM48.7231 501.198C48.7565 500.694 48.8026 500.19 48.8591 499.688C48.883 499.479 48.9043 499.255 48.9264 499.021C49.0278 497.953 49.1473 496.694 49.6208 495.802C49.0181 496.034 48.4179 496.274 47.8152 496.521C48.182 498.065 48.4641 499.63 48.7231 501.198Z" fill="black"/>
<path fill-rule="evenodd" clip-rule="evenodd" d="M379.269 60.6386C389.174 60.1127 407.424 64.643 416.065 69.9542C430.145 78.6078 431.236 95.8698 430.662 98.8546C430.444 99.9937 429.746 101.048 428.656 100.698C429.581 108.54 429.508 113.022 429.664 120.91L429.77 126.176C429.84 129.687 429.899 133.198 429.914 136.71C430.271 136.577 430.622 136.74 430.752 137.081C430.785 137.163 430.672 137.208 430.617 137.161C429.99 136.615 430.436 137.859 430.652 138.112C430.95 138.46 431.447 138.788 431.795 139.086L432.742 139.905L433.688 140.721C434.911 141.775 436.094 142.831 437.235 143.966L437.545 144.277C439.624 146.386 442.229 148.426 443.523 151.153C444.759 153.757 444.378 156.709 442.324 158.785C441.577 159.539 440.705 160.115 439.757 160.551C441.444 163.325 441.69 166.993 439.93 169.848C438.167 172.713 434.777 174.212 431.512 173.982C431.411 174.39 431.256 174.788 431.05 175.166C429.756 177.542 427.181 177.85 424.739 177.723L424.643 177.718C419.147 177.402 413.858 176.028 409.044 173.356C407.374 173.469 405.884 172.099 405.558 170.596C404.681 170.564 403.798 170.491 402.898 170.389C400.227 170.081 397.489 169.507 395.134 168.153C394.773 167.945 394.941 167.397 395.342 167.386C398.211 167.321 401.082 167.519 403.946 167.209C406.574 166.926 409.375 166.202 411.825 165.218C416.228 163.445 420.004 160.438 422.088 156.271C424.786 150.877 424.541 144.4 424.834 138.541C425.159 132.055 425.559 125.575 425.987 119.096L426.194 115.99C426.61 109.936 426.954 106.698 428.006 100.415C424.834 100.698 411.657 95.9616 407.559 88.2149C399.782 104.695 360.379 97.9503 358.631 123.321C358.616 123.536 358.275 123.476 358.263 123.271L358.23 122.693C358.214 122.407 358.2 122.126 358.19 121.847L358.182 121.568L357.563 121.576C357.563 121.653 357.453 121.681 357.425 121.598C356.841 119.943 354.057 120.476 352.846 120.87C351.755 121.225 350.727 121.771 349.804 122.445C347.951 123.797 346.515 125.617 346.038 127.893C345.133 132.215 347.889 136.617 351.547 138.703C353.854 140.018 356.382 140.867 358.594 142.357C360.547 143.671 362.367 145.211 363.945 146.961C370.194 153.895 373.87 164.412 370.913 173.564C370.688 174.263 370.091 175.061 369.301 175.174C367.995 175.362 366.688 175.172 365.956 173.93C365.67 173.444 365.535 172.89 365.565 172.345C365.058 174.082 363.416 175.8 361.901 176.446C359.837 177.327 357.513 177.064 355.692 175.927L355.462 176.097C352.502 178.273 349.194 180.257 345.401 179.857C342.653 179.566 339.955 178.169 338.435 175.965C336.414 177.1 334.255 178.003 332.028 178.619L331.791 178.684C328.728 179.517 324.82 180.281 321.96 178.589C319.214 176.964 318.302 173.416 318.946 170.454C319.024 170.101 319.122 169.758 319.242 169.425C317.176 169.535 315.112 169.337 313.151 168.731C311.147 168.112 309.237 166.923 308.276 164.995C307.193 162.814 307.481 160.335 308.289 158.114C309.58 154.551 311.657 151.381 314.242 148.619C316.728 145.961 319.727 143.706 322.844 141.826L323.369 141.512C326.175 139.841 329.558 137.883 332.873 138.012C332.863 137.97 332.856 137.929 332.851 137.887C332.349 134.199 332.407 130.438 332.289 126.719C332.181 123.299 332.058 119.878 331.978 116.455C331.848 110.636 331.89 104.792 332.65 99.0124C333.325 93.8842 334.538 88.8834 336.752 84.1884C339.077 79.2558 342.578 75.0466 346.901 71.7363C355.973 64.7877 367.957 61.2395 379.269 60.6386ZM348.453 128.99C349.441 127.13 351.69 126.544 353.664 126.879C356.429 127.35 358.31 129.764 359.925 131.84C361.62 134.016 358.085 136.066 357.174 133.958L356.959 133.46C356.228 131.788 355.365 130.025 353.874 128.935C352.289 127.778 350.053 127.608 348.653 129.145C348.553 129.258 348.385 129.113 348.453 128.99Z" fill="black"/>
<path fill-rule="evenodd" clip-rule="evenodd" d="M390.642 146.452C390.668 143.693 393.062 143.217 395.336 143.585C399.187 144.207 403.052 144.644 406.954 144.723L407.627 144.735C407.735 144.577 407.916 144.458 408.162 144.431C410.325 144.198 412.535 144.236 414.71 144.172C416.608 144.116 418.557 143.927 420.455 144.075L420.606 144.089C422.925 144.313 425.372 145.495 425.092 148.212C424.834 150.728 422.425 152.956 420.502 154.354C420.113 154.634 419.715 154.897 419.306 155.136C419.177 155.3 418.99 155.414 418.774 155.437C416.879 156.459 414.789 157.063 412.626 157.264C408.039 157.691 402.707 157.229 398.301 155.244C396.869 154.599 395.533 153.793 394.351 152.804C392.53 151.277 390.621 148.962 390.642 146.452ZM408.714 151.922C406.875 151.867 405.04 152.124 403.288 152.69C402.101 153.072 401.02 153.808 399.882 154.319C403.715 155.778 408.168 156.097 412.099 155.831C413.824 155.714 415.497 155.317 417.055 154.634C416.812 154.459 416.566 154.281 416.309 154.126C415.532 153.656 414.719 153.256 413.871 152.938C412.22 152.319 410.477 151.978 408.714 151.922ZM409.331 127.796C408.834 127.44 409.228 126.263 410.288 126.445C419.917 128.097 414.928 144.658 402.635 135.57C401.171 134.391 402.943 131.794 404.521 132.804L405.081 133.235C406.902 134.629 409.914 136.736 412.072 134.475C414.109 131.625 411.224 128.945 409.331 127.796ZM415.849 115.262C417.896 113.518 420.463 114.803 421.969 116.569L422.235 116.885C422.536 117.245 422.87 117.665 423.071 118.114C424.741 116.694 427.005 115.695 429.172 116.343C431.273 116.975 432.472 118.978 432.111 121.128C431.701 123.574 429.848 125.218 427.857 126.489L427.292 126.847C424.9 128.37 422.66 129.905 420.691 131.999C420.37 132.339 419.676 132.294 419.465 131.841L419.295 131.476L419.124 131.112C417.727 128.137 416.23 125.182 415.001 122.138C414.091 119.881 413.795 117.009 415.849 115.262ZM392.517 116.841L392.829 116.481C394.329 114.738 396.869 113.571 398.873 115.262C401.006 117.062 400.588 120.039 399.637 122.335C398.493 125.105 397.156 127.813 395.872 130.53L395.598 131.112C395.482 131.355 395.369 131.598 395.257 131.841C395.046 132.294 394.349 132.339 394.03 131.998C392.122 129.97 389.963 128.469 387.658 126.994L386.962 126.552C384.938 125.27 383.025 123.615 382.608 121.129C382.252 118.983 383.443 116.967 385.547 116.343C387.719 115.7 389.978 116.691 391.651 118.114C391.85 117.654 392.193 117.22 392.517 116.841ZM395.261 104.338C395.994 105.288 395.212 106.839 394.142 107.085C392.818 107.389 391.48 107.204 390.179 107.581C388.987 107.927 387.846 108.62 386.825 109.311C385.66 110.098 384.587 110.977 383.601 111.978C383.015 112.574 382.276 113.985 381.372 114.011C380.473 114.038 381.68 111.23 381.78 110.988C382.489 109.259 383.484 107.667 384.73 106.274C387.188 103.524 392.393 100.622 395.261 104.338ZM422.707 103.578L423.321 103.748C424.839 104.17 426.459 104.688 427.762 105.596L427.864 105.669L428.022 105.784C429.657 107.001 431.97 109.43 430.812 111.549C430.732 111.695 430.562 111.709 430.426 111.65C428.885 110.976 427.743 109.63 426.104 109.067L425.802 108.965C424.215 108.431 422.251 107.869 420.543 107.921C419.342 108.31 417.72 107.987 417.407 106.527L417.393 106.456L417.366 106.305C417.186 105.307 417.454 104.035 418.487 103.555C419.902 102.896 421.282 103.189 422.707 103.578Z" fill="black"/>
</svg>
