<svg width="434" height="635" viewBox="0 0 434 635" fill="none" xmlns="http://www.w3.org/2000/svg">
<mask id="mask0_2_38451" style="mask-type:luminance" maskUnits="userSpaceOnUse" x="25" y="145" width="336" height="406">
<path fill-rule="evenodd" clip-rule="evenodd" d="M25.6479 145.678H360.34V550.259H25.6479V145.678Z" fill="white"/>
</mask>
<g mask="url(#mask0_2_38451)">
<path fill-rule="evenodd" clip-rule="evenodd" d="M234.675 390.469C235.473 386.126 233.96 381.641 233.698 377.267C229.738 346.07 225.365 314.894 219.571 283.97C218.15 276.57 216.714 269.2 215.068 261.839C215.316 257.382 215.534 252.925 215.678 248.466C223.719 243.419 232.785 240.152 242.162 238.505C244.696 252.6 247.227 266.685 248.984 280.906C254.46 316.105 251.336 351.923 256.648 387.082C249.279 387.906 241.967 389.127 234.675 390.469ZM248.819 417.892C243.277 419.363 237.731 420.77 232.145 422.068C222.206 424.379 212.269 426.698 202.354 429.112C197.406 430.316 192.446 431.485 187.508 432.729C185.165 433.319 182.836 433.975 180.543 434.735C179.399 435.114 178.28 435.55 177.162 435.996C176.182 436.388 175.258 436.927 174.18 436.85C174.116 436.846 174.076 436.784 174.108 436.726C174.671 435.692 175.832 435.201 176.858 434.678C177.988 434.102 179.166 433.607 180.344 433.134C182.963 432.085 185.69 431.315 188.41 430.567C198.296 427.851 208.266 425.417 218.227 422.982C228.235 420.536 238.243 418.194 248.384 416.341C249.405 416.154 249.847 417.618 248.819 417.892ZM199.733 501.528C200.176 501.41 200.622 501.301 201.066 501.198C208.176 507.108 241.659 522.454 239.113 531.62C238.212 532.76 236.058 533.019 234.696 533.388C232.323 534.028 229.928 534.584 227.509 535.022C219.692 536.443 211.595 536.69 203.787 535.07C200.915 534.634 198.322 533.411 195.706 532.228C187.252 528.515 177.942 524.413 169.529 520.731C158.842 516.501 140.096 508.164 147.806 494.097C155.11 502.3 164.382 501.584 169.052 491.388C170.663 488.293 172.068 484.121 175.851 482.87C177.847 481.523 180.399 481.243 182.066 482.744C182.187 482.558 182.294 482.295 182.353 482.063C184.233 484.734 185.854 487.547 188.057 489.988C187.301 490.029 179.427 495.848 181.75 495.85C184.546 494.413 187.324 493.214 190.343 492.44C192.531 494.637 194.936 496.68 197.429 498.569C195.008 500.166 192.833 502.121 191.084 504.242C190.933 504.429 191.117 504.671 191.343 504.57C194.059 503.362 196.852 502.3 199.733 501.528ZM235.773 541.164C208.578 553.36 179.788 539.78 156.597 525.301C151.245 522.317 144.205 518.087 145.287 511.063C149.229 516.821 155.728 520.1 161.966 522.943C172.446 527.672 182.994 532.25 193.5 536.922C194.492 540.208 199.237 540.334 202.105 541.063C214.87 543.535 228.592 542.307 240.605 537.378C239.91 539.434 237.635 540.377 235.773 541.164ZM127.272 493.676C126.6 493.762 125.928 493.84 125.256 493.916C125.325 493.028 124.789 492.14 123.927 491.865C124.315 489.983 124.458 488.038 124.25 486.129C125.374 489.027 129 488.147 131.304 487.312C134.594 486.419 137.864 485.458 141.117 484.434C142.399 486.813 143.758 489.156 145.428 491.31C139.349 491.85 133.327 492.922 127.272 493.676ZM124.597 484.56C124.435 484.901 124.204 485.262 124.199 485.67C124.035 484.26 123.714 482.868 123.227 481.533C123.683 482.542 124.14 483.551 124.597 484.56ZM120.76 477.001C117.769 473.109 112.242 469.928 107.133 471.012C106.804 471.083 106.797 471.61 107.133 471.676C113.996 472.607 120.023 478.042 120.262 485.07C120.803 488.25 118.587 491.373 119.334 494.425C119.185 494.435 119.036 494.443 118.89 494.453C118.836 494.657 118.787 494.839 118.723 494.998C119.465 495.121 119.682 496.312 118.808 496.524C118.29 496.65 117.748 496.715 117.197 496.743C114.399 495.989 111.447 495.815 108.772 494.7C106.125 493.532 106.787 490.251 105.853 487.978C105.168 485.357 104.381 482.747 103.388 480.232C103.316 480.03 103.042 480.076 103.019 480.28C102.319 485.297 102.342 490.4 102.511 495.457C101.593 495.55 100.68 495.654 99.764 495.767C99.8232 494.354 95.5785 477.145 93.342 481.561C94.4679 486.417 94.6039 491.489 94.7244 496.486C88.0841 497.578 81.5411 499.205 75.1755 501.42C70.6896 502.777 65.3546 506.792 60.9998 503.162C57.6271 500.378 56.4909 495.52 56.8089 491.386C61.1945 466.927 95.835 464.069 116.284 465.877C118.215 470.327 120.183 474.761 122.175 479.185C121.763 478.423 121.291 477.692 120.76 477.001ZM51.015 490.909C50.6406 485.355 51.5765 478.441 55.6984 474.302C65.1317 466.339 78.3405 463.834 90.1283 460.951C95.6193 459.869 101.185 459.15 106.774 458.792C108.756 458.636 111.275 459.084 112.675 457.465C113.396 459.17 114.127 460.873 114.858 462.576C91.3902 459.506 42.4278 470.17 56.1393 502.267C53.2359 499.127 51.3123 495.303 51.015 490.909ZM34.6311 388.098C35.2877 383.331 36.0056 378.569 36.7647 373.814C39.8684 351.073 46.283 328.939 50.1071 306.351C56.7266 308.5 63.5056 310.137 70.1895 312.072C55.7061 336.12 43.8592 361.656 34.6311 388.098ZM89.0159 365.721C87.7425 359.677 86.3144 353.518 85.6653 347.374C85.636 347.098 86.0615 347.069 86.1374 347.312C87.2011 350.714 87.9259 354.241 88.8231 357.69C89.7236 361.152 90.5607 364.629 91.4474 368.094C91.7305 369.2 92.0144 370.306 92.2986 371.412C92.4689 371.42 92.6387 371.425 92.8077 371.429C93.4571 371.444 93.6518 372.258 93.1294 372.597C92.9768 372.696 92.8239 372.783 92.6705 372.86C95.3856 383.404 98.1677 393.924 101.204 404.387C104.742 416.58 108.725 428.626 111.908 440.918C111.982 441.202 111.85 441.401 111.657 441.487C113.313 447.08 114.701 452.746 116.214 458.382C116.53 459.556 114.794 460.316 114.2 459.217C113.286 457.525 113.085 455.213 112.637 453.353C112.133 451.258 111.654 449.159 111.176 447.059C110.416 443.718 109.734 440.336 109.171 436.949C107.075 431.691 105.198 426.371 103.537 420.95C99.8176 408.809 96.3864 396.586 93.3322 384.267C92.4305 380.63 91.5466 376.989 90.7033 373.338C86.8638 373.397 82.8519 369.061 78.9937 371.369C78.8152 371.476 78.6344 371.233 78.7749 371.091C80.313 369.535 82.439 369.399 84.5044 369.784C85.8466 370.035 87.1334 370.509 88.4473 370.867C89.0262 371.025 89.6204 371.14 90.2211 371.226C89.8069 369.394 89.4032 367.559 89.0159 365.721ZM171.735 480.154C169.773 481.435 168.173 483.329 167.044 485.365C159.811 504.257 152.076 494.138 142.465 484C150.598 480.936 161.371 478.64 167.608 472.549C168.688 475.243 170.009 477.808 171.735 480.154ZM169.148 434.071C168.519 430.962 168.002 427.835 167.531 424.7C167.079 421.694 166.373 418.473 166.488 415.43C166.492 415.309 166.664 415.287 166.701 415.402C167.678 418.435 167.971 421.79 168.591 424.915C169.191 427.935 169.851 430.944 170.515 433.952C171.878 440.126 173.806 446.205 174.973 452.416C175.098 453.082 174.198 453.315 173.953 452.693C171.616 446.754 170.405 440.298 169.148 434.071ZM36.8648 294.017C33.7052 290.619 31.2222 286.281 31.7021 281.678C33.6 279.15 34.2284 275.854 35.3338 272.933C39.6555 260.709 43.6669 248.392 48.3705 236.301C58.376 239.373 68.2195 243.058 77.5043 247.898C79.2122 248.769 80.9027 249.672 82.5724 250.607C84.3216 251.586 86.2298 253.286 88.3275 252.799C86.0349 256.04 81.313 259.413 80.5151 263.159C80.3436 264.344 81.1848 265.444 82.4775 265.179C102.711 279.529 123.607 293.576 142.732 309.559C157.054 320.88 168.049 330.061 172.961 348.429C176.272 360.327 176.282 372.762 175.795 384.996C175.7 387.374 175.698 389.808 175.505 392.202C175.793 393.993 175.246 397.638 173.23 397.703C173.276 398.137 173.42 398.538 173.649 398.891C173.584 398.977 173.518 399.058 173.448 399.141C173.348 398.652 173.251 398.165 173.158 397.675C171.589 390.734 171.379 382.68 171.64 375.29C171.75 373.171 168.496 373.221 168.314 375.29C167.824 380.877 167.334 386.464 166.844 392.048C166.257 395.668 167.183 400.402 164.284 403.154C161.337 400.435 162.312 395.072 162.456 391.564C162.686 385.841 162.935 380.12 163.148 374.397C163.215 372.583 160.206 372.116 159.865 373.96C158.898 379.217 157.852 384.458 156.726 389.685C156.046 391.705 155.579 400.77 152.184 399.196C150.16 397.817 151.619 389.727 151.353 387.049C151.478 381.747 151.552 376.452 151.943 371.163C152.102 369.029 148.621 368.575 148.144 370.659C147.37 374.031 146.628 377.403 145.956 380.798C144.482 386.522 145.018 394.28 139.693 398.084C137.608 383.217 140.608 368.454 141.029 353.64C140.778 348.84 139.952 344.088 139.224 339.346C138.418 334.102 137.949 328.394 139.834 323.337C139.319 321.072 137.292 327.198 137.102 327.708C135.577 324.706 131.86 324.474 128.921 323.539C122.388 321.427 115.697 319.836 109.087 317.959C91.5592 313.099 74.0108 308.314 56.4575 303.539C49.4454 301.602 42.0639 299.309 36.8648 294.017ZM212.387 373.095C209.969 360.006 210.035 346.744 211.069 333.512C212.205 312.99 213.308 292.463 214.488 271.944C219.61 309.083 225.07 346.179 229.245 383.437C229.543 386.03 229.497 388.774 230.808 391.087C223.565 392.056 215.844 393.032 208.802 390.573C211.892 385.238 212.982 379.164 212.387 373.095ZM55.18 221.335C67.3887 196.311 92.2825 178.546 120.201 174.672C120.231 174.702 120.265 174.733 120.295 174.765C120.203 174.849 120.119 174.939 120.042 175.033C120.793 174.48 121.824 175.174 121.491 175.938C121.904 176.879 122.209 177.848 122.591 178.796C122.753 178.781 122.917 178.766 123.081 178.741C124.737 182.025 125.635 185.811 127.366 189.085C136.841 205.475 160.222 212.129 177.76 205.513C191.677 199.492 193.651 182.348 192.405 169.168C192.341 168.28 191.889 167.652 191.286 167.282C198.876 168.495 206.465 169.718 214.062 170.871C217.722 171.426 221.482 172.228 224.308 174.738C235.432 186.166 237.417 216.921 241.159 232.911C232.206 233.846 222.198 238.941 215.78 245.119C216.083 238.096 215.649 231.11 214.839 224.138C214.826 223.797 214.257 223.681 214.203 224.055C212.6 231.122 211.367 238.25 210.859 245.492C208.748 274.633 207.494 303.831 205.685 332.992C205.067 343.725 204.295 354.551 205.827 365.246C210.756 387.263 202.064 398.069 178.735 394.409C181.568 366.507 179.514 334.581 156.11 315.235C155.397 314.599 154.541 314.642 153.892 315.021C134.864 298.878 114.781 283.925 93.4061 270.904C93.56 268.213 86.8171 265.835 84.9292 263.978C91.9388 256.729 97.2764 247.916 101.931 239.052C102.342 238.089 107.694 228.393 105.991 229.003C100.905 236.528 95.8478 244.1 89.859 250.986C90.1847 247.81 81.944 245.681 79.4074 244.231C69.607 240.109 59.3609 236.883 48.8016 235.213C50.7021 230.489 52.7796 225.835 55.18 221.335ZM185.595 170.296C185.275 169.748 184.97 169.188 184.677 168.621C185.667 168.659 186.632 168.694 187.606 168.855C187.563 170.422 187.65 172.001 187.668 173.58C187.18 172.425 186.226 171.37 185.595 170.296ZM350.979 390.878C327.591 373.897 289.175 384.716 262.08 386.461C256.915 352.644 259.023 318.274 254.209 284.402C249.774 250.562 245.099 216.25 233.962 183.828C229.366 171.292 221.415 167.569 208.325 167.67C201.682 167.41 194.657 166.348 188.201 166.5C186.785 166.522 185.306 166.709 184.028 167.279C182.233 163.238 181.258 158.9 180.766 154.529C180.735 154.251 180.381 154.201 180.276 154.465C178.757 158.272 178.596 162.426 179.422 166.411C180.019 169.267 183.577 180.504 187.709 176.107C188.037 185.326 186.008 196.336 176.962 201.121C161.155 208.002 139.306 201.737 130.149 187.132C128.38 184.214 126.853 181.109 124.894 178.307C138.547 174.448 146.21 158.115 142.994 145.678C141.006 155.351 137.382 166.159 128.357 171.577C95.491 171.504 68.1659 186.449 52.7258 215.234C49.7044 219.413 46.9114 223.757 44.3514 228.176C42.9741 231.132 38.9399 235.244 42.3637 238.099C38.409 248.637 34.9004 259.322 31.1917 269.944C30.1732 273.483 27.8443 277.195 28.3088 280.916C27.8061 283.209 27.8292 285.92 28.9808 288.125C30.0734 292.055 32.5251 297.341 36.5906 299.009C40.0402 302.154 44.403 304.321 48.9529 305.953C36.8186 337.613 32.1996 371.758 28.0883 405.21C24.0587 434.474 21.9789 470.072 47.2266 491.222C47.7167 497.273 51.3123 504.984 58.4222 505.049C63.3464 509.877 69.348 507.228 74.8292 504.868C84.0805 501.447 93.7831 499.551 103.424 498.494C104.458 499.301 106.14 499.167 107.061 498.226C112.901 496.882 120.995 502.325 122.175 497.394C129.705 496.665 137.154 495.298 144.677 494.501C141.506 498.607 141.735 504.663 144.122 509.1C138.041 521.044 152.207 527.96 160.868 532.861C172.561 539.62 184.772 546.035 198.145 548.837C209.902 551.306 222.218 550.558 233.562 546.613C239.523 545.117 247.848 540.206 244.311 533.287C248.795 520.12 217.309 506.477 208.048 499.883C211.833 499.412 211.972 491.567 202.126 496.075C200.935 495.28 199.766 494.46 198.609 493.626C238.435 489.055 314.495 476.481 343.318 449.3C359.153 435.324 368.289 407.054 350.979 390.878Z" fill="black"/>
</g>
<path fill-rule="evenodd" clip-rule="evenodd" d="M200.83 80.4963C200.82 80.3037 201.101 80.2812 201.153 80.4515C204.225 90.5852 206.119 98.4825 208.112 108.872L208.701 111.928C210.274 120.079 211.863 128.243 213.205 136.433L213.284 136.922C213.956 141.162 214.344 145.443 213.501 149.692C212.714 153.663 210.562 157.304 207.769 160.204C202.37 165.808 194.867 169.308 187.319 170.873C183.503 171.665 179.566 171.97 175.677 171.695C173.738 171.559 171.802 171.286 169.904 170.883L169.695 170.839C167.781 170.426 166.083 169.934 165.067 168.136C164.811 167.683 164.914 166.907 165.451 166.674C166.464 166.238 167.208 166.056 168.314 166.181C169.37 166.301 170.401 166.619 171.444 166.817C173.437 167.195 175.463 167.385 177.492 167.43C181.477 167.518 185.471 167.02 189.28 165.833C195.825 163.792 202.475 159.888 206.299 154.049C210.798 147.18 209.006 138.843 207.814 131.257L207.778 131.027C206.572 123.273 205.379 115.519 204.22 107.76L203.726 104.435C202.428 95.6482 201.201 89.3757 200.83 80.4963ZM134.382 58.9897C137.648 56.8398 141.707 56.3115 145.544 56.3411L146.024 56.3472C150.937 56.422 175.666 57.0096 183.945 57.1904L185.915 57.2318C188.522 57.281 193.78 57.3322 196.489 57.3817L196.645 57.3846C197.974 57.4096 199.303 57.4196 200.632 57.4622L200.827 57.4692C201.822 57.5117 202.651 57.6604 203.43 58.3611C203.827 58.7163 203.982 59.258 203.945 59.7739L203.94 59.841L205.913 60.0138C207.253 60.1321 207.962 61.3322 207.429 62.5467L207.403 62.6054C206.457 64.6186 205.735 70.478 205.228 72.644C204.963 73.7833 204.749 74.9401 204.624 76.1045C204.524 77.0212 204.514 77.9399 204.002 78.7462C202.911 80.4665 199.842 80.4514 199.787 78.015C199.784 77.9374 199.787 77.8623 199.794 77.7897C192.071 77.4516 181.527 77.4842 173.813 77.9449C166.609 78.3756 159.437 79.3522 152.378 80.8471C150.591 81.2252 148.808 81.6383 147.037 82.0865C145.585 82.4521 143.803 82.67 142.504 83.4537C141.049 84.3351 141.077 85.9152 141.235 87.4201C141.404 89.0151 141.687 88.1933 142.088 89.6469L142.112 89.7388C142.526 91.3163 143.038 92.8763 143.715 94.3587C144.101 95.205 144.723 96.0188 144.487 96.9929C144.354 97.5412 143.92 98.1272 143.522 98.5103C141.706 100.251 138.637 99.1413 137.403 101.525C136.112 104.018 136.08 107.394 135.97 110.153L135.964 110.314C135.884 112.215 135.906 114.12 136.031 116.016C136.144 117.743 136.605 119.454 136.014 121.114C135.582 122.321 134.173 122.434 133.436 121.452C133.352 121.339 133.274 121.224 133.201 121.108L133.13 120.991L133.125 120.994C133.195 121.104 133.261 121.217 133.323 121.332C133.391 121.459 133.223 121.6 133.12 121.489C131.385 119.604 128.85 119.98 126.886 121.299C124.898 122.641 124.113 125.19 124.01 127.477C123.895 130.013 124.12 132.986 125.179 135.329C125.625 136.321 126.262 137.232 127.318 137.61C127.797 137.781 128.253 137.758 128.752 137.798C129.271 137.838 129.895 138.099 130.399 138.063C131.054 138.017 131.642 138.764 131.456 139.389L131.443 139.431C131.433 139.461 131.423 139.491 131.413 139.518C131.438 139.541 131.463 139.568 131.48 139.608C133.386 143.497 135.999 146.958 138.888 150.168C140.335 151.773 141.939 153.248 143.617 154.612C144.444 155.286 145.317 155.96 146.237 156.503C146.543 156.68 146.824 156.801 147.168 156.899C147.328 156.944 147.511 156.966 147.667 157.019L147.828 157.074C147.839 157.078 147.85 157.081 147.86 157.084C148.321 157.136 148.71 157.442 148.863 157.92C149.262 159.167 148.537 160.269 147.298 160.612C145.956 160.987 144.691 160.329 143.627 159.573L143.557 159.523C141.388 157.963 139.389 156.212 137.659 154.169C134.236 150.135 132.092 145.465 131.099 140.3C130.853 140.828 130.522 141.289 129.948 141.609C129.055 142.11 127.99 142.11 127.012 141.942C125.043 141.609 123.366 140.41 122.245 138.787C121.081 137.104 120.647 135.061 120.384 133.07C120.123 131.077 119.995 129.077 120.256 127.078C120.63 124.209 121.836 121.372 124.181 119.799C122.425 115.981 122.117 111.699 122.242 107.517C122.395 102.369 123.285 97.1631 123.97 92.0625L125.916 77.5618L125.996 76.9772C126.465 73.5659 127.037 70.1366 128.316 66.9223C129.577 63.7548 131.493 60.8902 134.382 58.9897ZM126.192 127.589C129.406 126.032 132.88 127.466 134.61 130.489C136.114 133.117 131.641 134.853 130.895 132.145L130.873 132.061C130.382 130.011 128.381 128.238 126.292 127.962C126.119 127.938 125.991 127.687 126.192 127.589Z" fill="black"/>
<path fill-rule="evenodd" clip-rule="evenodd" d="M189.527 127.796C191.421 128.945 194.306 131.625 192.269 134.475C189.871 136.987 186.419 134.107 184.718 132.804C183.14 131.794 181.368 134.391 182.831 135.57C195.124 144.658 200.113 128.097 190.485 126.445C189.425 126.263 189.031 127.44 189.527 127.796ZM172.419 105.877L172.89 105.795L173.131 105.754C174.541 105.521 176.213 105.365 177.187 106.471C177.733 107.091 177.921 108.243 177.187 108.836C175.895 109.88 174.467 109.476 172.919 109.564C171.643 109.637 170.417 109.848 169.188 110.199C166.491 110.968 164.294 112.373 161.992 113.916C161.69 114.118 161.381 113.732 161.525 113.45C162.855 110.85 165.431 108.714 168.011 107.413C169.388 106.718 170.895 106.141 172.419 105.877ZM184.891 141.794C189.011 142.093 197.941 140.129 201.649 143.075C215.623 160.5 160.222 164.98 166.206 145.702C170.016 139.469 178.782 141.974 184.891 141.794ZM184.184 152.313C183.165 152.23 181.929 153.037 181.629 153.659C181.33 154.282 181.446 155.599 181.455 155.827C183.237 156.006 185.034 156.033 186.82 155.916C186.356 154.383 186.341 152.545 184.184 152.313ZM192.411 154.885C192.125 152.982 190.761 152.532 189.658 152.817C188.529 153.109 187.867 154.407 187.939 155.562C187.943 155.641 187.897 155.709 187.867 155.773C189.401 155.592 190.921 155.294 192.411 154.885ZM179.774 152.658C179.132 151.682 177.597 151.211 176.613 151.383C175.008 151.72 174.818 153.758 174.818 154.173C176.298 154.736 177.869 155.11 179.372 155.408C179.674 155.468 179.976 155.521 180.279 155.572L180.299 155.324C180.335 154.794 180.362 153.551 179.774 152.658ZM197.936 152.497C196.29 149.954 192.751 151.775 193.044 154.553C193.358 154.454 193.671 154.351 193.983 154.242C195.276 153.792 196.695 153.257 197.936 152.497ZM184.976 143.734C182.761 143.535 180.944 143.602 179.5 143.869L179.456 144.351C179.296 146.022 179.09 147.664 179.969 148.336C180.682 148.882 183.05 148.83 184.638 148.435C185.03 148.336 185.54 144.871 184.976 143.734ZM188.4 143.535C188.046 145.181 187.879 147.18 188.591 147.774C189.344 148.401 191.767 148.316 192.4 147.898C192.955 147.533 192.94 145.852 192.735 143.964C191.508 143.675 189.371 143.535 188.4 143.535ZM178.521 143.886L177.795 143.892L177.385 143.898C176.347 143.916 175.227 143.976 174.169 144.207C172.066 148.745 179.745 149.528 178.559 144.054L178.521 143.886ZM193.712 143.995L193.698 144.252C193.635 145.527 193.677 147.206 194.384 147.659C195.425 148.326 197.379 148.197 198.437 145.113C198.087 144.192 194.372 144.063 193.712 143.995ZM173.331 116.937C173.775 116.937 174.2 117.088 174.588 117.367C174.969 117.641 175.314 118.042 175.601 118.541C176.145 119.487 176.485 120.792 176.485 122.235C176.485 123.679 176.145 124.984 175.601 125.93C175.314 126.429 174.969 126.83 174.588 127.104C174.2 127.383 173.775 127.534 173.331 127.534C172.886 127.534 172.461 127.383 172.073 127.104C171.692 126.83 171.347 126.429 171.06 125.93C170.516 124.984 170.176 123.679 170.176 122.235C170.176 120.792 170.516 119.487 171.06 118.541C171.347 118.042 171.692 117.641 172.073 117.367C172.461 117.088 172.886 116.937 173.331 116.937ZM201.476 116.937C201.92 116.937 202.346 117.088 202.733 117.367C203.114 117.641 203.459 118.042 203.747 118.541C204.291 119.487 204.631 120.792 204.631 122.235C204.631 123.679 204.291 124.984 203.747 125.93C203.459 126.429 203.114 126.83 202.733 127.104C202.346 127.383 201.92 127.534 201.476 127.534C201.031 127.534 200.606 127.383 200.219 127.104C199.837 126.83 199.492 126.429 199.205 125.93C198.661 124.984 198.321 123.679 198.321 122.235C198.321 120.792 198.661 119.487 199.205 118.541C199.492 118.042 199.837 117.641 200.219 117.367C200.606 117.088 201.031 116.937 201.476 116.937ZM197.646 104.712L198.007 104.786L198.246 104.836C202.132 105.671 207.06 107.317 208.879 111.085C208.95 111.629 208.875 111.746 208.815 111.822L208.794 111.847C208.744 111.912 208.704 112.002 208.468 112.076C208.403 112.06 208.336 112.044 208.27 112.026C207.418 111.803 206.745 111.497 206.093 111.178L205.386 110.83C204.566 110.429 203.739 110.042 202.862 109.756C200.991 109.147 199.066 108.718 197.112 108.488C196.688 108.439 196.28 108.296 195.958 108.051C195.653 107.819 195.419 107.497 195.313 107.07C195.175 106.517 195.215 106.098 195.512 105.599C195.735 105.224 196.055 104.965 196.422 104.815C196.797 104.663 197.223 104.627 197.646 104.712Z" fill="black"/>
</svg>
