<svg width="434" height="635" viewBox="0 0 434 635" fill="none" xmlns="http://www.w3.org/2000/svg">
<path fill-rule="evenodd" clip-rule="evenodd" d="M199.048 490.437C199.517 489.96 199.715 489.335 199.276 488.601C197.581 486.439 194.064 487.918 191.877 488.417C191.05 487.731 190.23 487.042 189.44 486.316C189.714 484.616 187.668 483.486 186.826 482.174C186.001 481.208 185.223 480.111 184.233 479.301C181.82 477.422 178.475 478.693 175.675 478.608C173.518 475.868 171.297 473.215 169.245 470.385C171.61 466.417 171.776 461.768 170.991 457.347C207.265 443.605 238.664 417.587 277.895 411.574C279.244 411.349 280.001 409.712 279.664 408.512C276.928 401.991 237.602 418.815 231.723 421.862C214.385 430.151 198.145 440.482 181.294 449.598C177.78 451.462 173.915 452.463 170.073 453.432C164.169 434.086 154.181 416.351 146.523 397.698C147.02 396.838 147.444 395.935 147.803 395.007C147.549 405.265 157.542 405.122 158.921 395.39C158.352 400.463 162.194 411.326 167.739 404.198C169.04 402.407 169.501 400.115 169.722 397.802C170.007 399.401 170.33 400.992 170.689 402.579C172.112 405.722 175.998 401.9 176.9 400.261C177.421 400.168 177.909 399.931 178.265 399.64C188.07 401 199.619 400.922 206.814 393.193C219.017 397.867 232.524 393.68 244.865 391.814C269.98 388.931 295.195 384.536 320.535 384.872C331.848 385.528 345.195 387.352 352.351 396.989C361.531 410.883 356.342 429.646 346.216 441.673C321.858 472.463 238.248 485.852 199.048 490.437ZM199.733 501.528C200.176 501.41 200.623 501.301 201.066 501.198C208.176 507.108 241.659 522.454 239.113 531.62C238.212 532.76 236.058 533.019 234.696 533.388C232.323 534.028 229.928 534.584 227.509 535.022C219.692 536.443 211.595 536.69 203.787 535.07C200.915 534.634 198.322 533.411 195.706 532.228C187.252 528.515 177.942 524.413 169.529 520.731C158.842 516.501 140.096 508.164 147.806 494.097C155.11 502.3 164.382 501.583 169.052 491.388C170.663 488.293 172.069 484.121 175.852 482.87C177.847 481.523 180.399 481.243 182.066 482.744C182.187 482.558 182.294 482.295 182.353 482.063C184.233 484.734 185.854 487.547 188.057 489.988C187.301 490.029 179.427 495.848 181.751 495.85C184.546 494.413 187.324 493.215 190.343 492.44C192.531 494.637 194.936 496.68 197.429 498.569C195.008 500.166 192.833 502.121 191.084 504.242C190.933 504.429 191.117 504.671 191.343 504.57C194.059 503.362 196.852 502.3 199.733 501.528ZM235.773 541.164C208.578 553.36 179.788 539.78 156.597 525.301C151.245 522.317 144.205 518.087 145.287 511.063C149.229 516.821 155.728 520.1 161.966 522.943C172.446 527.672 182.994 532.25 193.5 536.922C194.492 540.208 199.237 540.334 202.105 541.064C214.87 543.535 228.592 542.307 240.605 537.378C239.91 539.434 237.635 540.377 235.773 541.164ZM127.271 493.676C126.6 493.762 125.928 493.84 125.256 493.916C125.325 493.028 124.789 492.14 123.927 491.865C124.315 489.983 124.458 488.038 124.25 486.129C125.374 489.027 129 488.147 131.304 487.312C134.594 486.419 137.864 485.458 141.117 484.434C142.399 486.813 143.758 489.156 145.428 491.31C139.349 491.85 133.327 492.922 127.271 493.676ZM124.597 484.56C124.435 484.901 124.204 485.261 124.199 485.67C124.035 484.26 123.714 482.868 123.227 481.533C123.683 482.542 124.14 483.551 124.597 484.56ZM120.76 477.001C117.769 473.109 112.242 469.928 107.133 471.013C106.805 471.083 106.797 471.61 107.133 471.676C113.996 472.607 120.024 478.042 120.262 485.07C120.803 488.251 118.587 491.373 119.334 494.425C119.185 494.435 119.036 494.443 118.89 494.453C118.836 494.657 118.787 494.839 118.723 494.998C119.464 495.121 119.683 496.312 118.808 496.524C118.29 496.65 117.749 496.716 117.197 496.743C114.399 495.989 111.447 495.815 108.772 494.7C106.125 493.532 106.787 490.251 105.853 487.978C105.168 485.357 104.381 482.747 103.388 480.232C103.316 480.03 103.042 480.076 103.019 480.28C102.319 485.297 102.342 490.4 102.511 495.457C101.593 495.55 100.68 495.654 99.764 495.767C99.8232 494.354 95.5785 477.145 93.342 481.561C94.4679 486.417 94.6039 491.489 94.7244 496.486C88.0841 497.578 81.5413 499.205 75.1755 501.42C70.6896 502.777 65.3546 506.792 60.9998 503.162C57.6271 500.378 56.4909 495.52 56.8089 491.386C61.1947 466.927 95.835 464.069 116.284 465.877C118.215 470.327 120.183 474.761 122.175 479.185C121.763 478.423 121.291 477.692 120.76 477.001ZM51.015 490.909C50.6406 485.355 51.5767 478.441 55.6984 474.302C65.1317 466.339 78.3404 463.834 90.1283 460.951C95.6193 459.869 101.185 459.15 106.774 458.792C108.756 458.636 111.275 459.084 112.675 457.465C113.396 459.17 114.127 460.873 114.858 462.576C91.3902 459.506 42.4281 470.17 56.1395 502.267C53.2359 499.127 51.3123 495.303 51.015 490.909ZM167.608 472.549C168.688 475.243 170.009 477.808 171.735 480.154C169.773 481.435 168.173 483.329 167.044 485.365C159.811 504.257 152.076 494.138 142.466 484C150.599 480.936 161.371 478.64 167.608 472.549ZM47.2191 487.065C28.4114 468.516 24.7617 437.614 31.7098 413.324C32.3279 404.317 35.4826 395.733 38.309 387.205C47.3089 361.336 59.1455 336.448 73.3416 312.95C90.9541 317.78 108.536 322.739 126.189 327.41C128.621 327.938 131.055 328.979 133.55 329.131C134.443 329.698 135.338 330.324 136.267 330.873C134.915 337.485 136.161 344.235 136.477 350.886C136.764 356.122 136.197 361.25 135.502 366.431C134.725 373.968 131.527 398.482 137.936 402.97C140.109 404.017 142.05 400.917 142.986 401.769C143.83 401.182 144.618 400.417 145.259 399.575C147.734 407.566 151.778 414.979 154.277 422.977C157.6 434.731 168.516 453.757 166.093 464.969C164.218 471.893 156.016 473.386 150.096 475.649C143.256 478.025 136.338 480.207 129.308 481.977C125.876 474.706 122.596 467.365 119.377 459.997C104.666 426.004 91.6364 391.302 79.9922 356.185C79.7742 355.406 77.0965 346.961 76.6066 349.317C76.5656 349.075 76.2604 348.449 76.145 348.984C78.1199 357.23 80.1227 365.473 82.2902 373.673C76.9657 372.929 71.2411 372.639 66.3679 375.244C66.1166 375.378 66.3013 375.708 66.5498 375.668C72.3206 374.669 77.8865 376.556 83.429 377.91C91.2132 404.365 101.257 430.148 111.888 455.609C108.6 454.562 104.784 455.72 101.352 455.803C90.5438 456.918 79.8588 459.279 69.6483 462.951C56.814 467.106 47.7398 472.523 47.2191 487.065ZM36.8648 294.017C33.7052 290.619 31.2222 286.281 31.7021 281.678C33.6 279.15 34.2284 275.854 35.3338 272.933C39.6555 260.709 43.6669 248.393 48.3707 236.301C58.376 239.373 68.2195 243.058 77.5043 247.898C79.2125 248.769 80.9027 249.672 82.5724 250.607C84.3216 251.586 86.2298 253.286 88.3278 252.799C86.0349 256.041 81.313 259.413 80.5154 263.158C80.3436 264.344 81.1848 265.444 82.4775 265.179C102.711 279.529 123.607 293.576 142.732 309.56C157.054 320.88 168.05 330.061 172.961 348.429C176.272 360.327 176.282 372.762 175.795 384.996C175.7 387.374 175.698 389.808 175.505 392.202C175.793 393.993 175.246 397.638 173.23 397.703C173.277 398.137 173.42 398.538 173.649 398.891C173.584 398.977 173.518 399.058 173.448 399.141C173.348 398.652 173.251 398.165 173.159 397.676C171.589 390.734 171.379 382.68 171.64 375.29C171.75 373.171 168.496 373.221 168.314 375.29C167.824 380.877 167.334 386.464 166.844 392.048C166.257 395.668 167.183 400.402 164.284 403.154C161.337 400.435 162.312 395.072 162.456 391.564C162.686 385.841 162.935 380.12 163.148 374.397C163.215 372.583 160.206 372.117 159.865 373.96C158.898 379.217 157.852 384.458 156.726 389.685C156.046 391.705 155.579 400.77 152.184 399.197C150.16 397.817 151.619 389.728 151.353 387.049C151.478 381.747 151.552 376.452 151.943 371.163C152.102 369.029 148.621 368.575 148.144 370.659C147.37 374.031 146.628 377.403 145.956 380.799C144.482 386.522 145.018 394.28 139.693 398.084C137.608 383.217 140.608 368.454 141.029 353.64C140.778 348.84 139.952 344.088 139.224 339.346C138.418 334.102 137.949 328.394 139.834 323.337C139.319 321.072 137.292 327.199 137.103 327.708C135.577 324.706 131.86 324.474 128.921 323.539C122.388 321.427 115.697 319.836 109.087 317.959C91.5592 313.099 74.0108 308.314 56.4575 303.539C49.4454 301.602 42.0639 299.309 36.8648 294.017ZM212.387 373.095C209.969 360.007 210.035 346.744 211.069 333.512C212.205 312.99 213.308 292.463 214.488 271.944C219.61 309.083 225.07 346.179 229.245 383.437C229.543 386.03 229.497 388.774 230.808 391.087C223.565 392.056 215.844 393.032 208.802 390.573C211.892 385.238 212.982 379.164 212.387 373.095ZM248.984 280.906C254.46 316.105 251.336 351.923 256.648 387.082C249.279 387.906 241.967 389.127 234.675 390.469C235.473 386.126 233.96 381.641 233.698 377.267C229.738 346.071 225.365 314.895 219.571 283.971C218.15 276.57 216.714 269.2 215.068 261.839C215.316 257.382 215.534 252.925 215.678 248.466C223.719 243.419 232.785 240.152 242.162 238.505C244.696 252.6 247.228 266.685 248.984 280.906ZM185.595 170.296C185.275 169.749 184.97 169.189 184.677 168.621C185.667 168.659 186.632 168.694 187.606 168.856C187.563 170.422 187.65 172.001 187.668 173.58C187.18 172.425 186.226 171.37 185.595 170.296ZM350.979 390.878C327.591 373.897 289.175 384.716 262.08 386.461C256.915 352.644 259.023 318.275 254.209 284.402C249.774 250.562 245.099 216.251 233.962 183.828C229.366 171.292 221.415 167.569 208.325 167.67C201.682 167.41 194.657 166.348 188.201 166.499C186.785 166.522 185.306 166.709 184.028 167.279C182.233 163.238 181.258 158.9 180.766 154.529C180.735 154.251 180.381 154.201 180.276 154.466C178.758 158.272 178.596 162.426 179.422 166.411C180.02 169.267 183.577 180.504 187.709 176.107C188.037 185.327 186.008 196.337 176.962 201.121C161.155 208.002 139.306 201.737 130.149 187.133C128.38 184.214 126.854 181.109 124.894 178.307C138.547 174.448 146.21 158.115 142.994 145.678C141.006 155.351 137.382 166.159 128.357 171.577C95.491 171.504 68.1659 186.449 52.7258 215.234C49.7044 219.414 46.9113 223.757 44.3517 228.176C42.9741 231.132 38.9399 235.244 42.3639 238.099C38.409 248.638 34.9004 259.322 31.1917 269.944C30.1732 273.483 27.8443 277.196 28.3088 280.916C27.8061 283.209 27.8292 285.92 28.9808 288.125C30.0734 292.055 32.5251 297.342 36.5906 299.009C40.0402 302.154 44.403 304.321 48.9529 305.953C36.8186 337.613 32.1996 371.758 28.0883 405.21C24.0587 434.474 21.9789 470.072 47.2268 491.222C47.7167 497.273 51.3123 504.984 58.4222 505.049C63.3463 509.877 69.3482 507.228 74.8292 504.868C84.0805 501.447 93.7831 499.551 103.424 498.494C104.458 499.301 106.14 499.167 107.061 498.226C112.901 496.882 120.996 502.325 122.175 497.394C129.706 496.665 137.154 495.298 144.677 494.501C141.506 498.607 141.735 504.663 144.123 509.1C138.041 521.044 152.207 527.96 160.868 532.861C172.561 539.62 184.772 546.035 198.145 548.837C209.902 551.307 222.218 550.558 233.562 546.613C239.523 545.117 247.848 540.206 244.311 533.287C248.795 520.12 217.309 506.477 208.048 499.883C211.833 499.412 211.972 491.567 202.126 496.075C200.935 495.28 199.766 494.46 198.609 493.626C238.435 489.055 314.495 476.481 343.318 449.3C359.153 435.324 368.289 407.054 350.979 390.878Z" fill="black"/>
<path fill-rule="evenodd" clip-rule="evenodd" d="M154.029 49.1427C155.388 47.5903 157.682 46.9693 159.721 47.0895C162.682 47.2647 165.258 49.0902 168.204 49.2254C171.294 49.3681 174.275 48.2989 177.372 48.7947C179.27 49.1002 181.151 49.9791 182.367 51.4615C186.58 50.257 191.154 51.8521 193.837 55.3351C197.147 54.8218 200.748 57.0106 201.761 60.1954C205.966 60.3306 209.935 63.7035 210.404 67.9303C212.085 68.3735 213.544 69.5306 214.439 71.0603C215.48 72.8331 215.653 74.8663 215.465 76.8645C217.443 77.8736 218.449 80.0421 218.712 82.3358C220.52 83.6829 221.305 86.1043 220.936 88.3904C222.32 89.1692 223.035 90.9821 223.028 92.5997C223.02 94.1096 222.619 95.447 223.183 96.904C223.686 98.2018 223.866 99.2834 223.59 100.643L223.562 100.775C223.513 100.997 223.472 101.209 223.435 101.419C223.809 101.747 224.126 102.158 224.364 102.636C225.231 104.384 225.102 106.378 224.44 108.15C224.73 109.279 224.693 110.471 224.265 111.556C225.067 112.71 225.488 114.124 225.364 115.591C225.225 117.234 224.474 118.705 223.335 119.793C223.638 122.037 222.725 124.462 221.072 126.042C221.307 127.385 221.105 128.793 220.369 130.067C219.844 130.974 219.138 131.65 218.323 132.122C218.35 132.871 218.248 133.637 217.999 134.405C217.652 135.471 217.065 136.453 216.292 137.244C216.753 140.188 214.988 143.455 211.88 144.281C211.619 144.35 211.37 144.382 211.132 144.387C210.823 147.219 210.149 150.011 209.105 152.663C206.452 159.416 201.628 165.321 195.336 169.004C192.224 170.825 188.729 172.072 185.16 172.592C182.593 172.968 180.123 172.875 177.545 172.62C174.31 172.297 171.06 171.814 167.916 170.982L167.41 170.848C166.106 170.499 164.732 170.097 163.603 169.395C162.339 168.609 161.682 167.397 161.391 165.969C161.229 165.175 161.733 164.321 162.604 164.304L162.66 164.304C162.85 164.308 163.039 164.301 163.231 164.289L163.375 164.279H163.382C163.392 164.277 163.397 164.277 163.407 164.277C163.492 164.264 163.575 164.239 163.658 164.227C164.616 164.066 165.454 164.225 166.354 164.524L166.466 164.562C167.981 165.083 169.483 165.566 171.048 165.924C172.665 166.292 174.303 166.585 175.945 166.816L176.108 166.836L176.158 166.843L176.183 166.846C176.188 166.846 176.193 166.846 176.198 166.848L176.682 166.908C177.064 166.953 177.445 166.994 177.826 167.034C178.528 167.104 179.23 167.159 179.932 167.199C192.051 167.88 202.23 158.352 205.301 146.929C206.415 142.795 206.488 138.671 206.159 134.544C206.054 134.244 205.991 133.911 205.994 133.545C205.994 133.355 206.004 133.167 206.016 132.977C205.608 128.985 204.898 124.991 204.454 120.985C203.935 116.305 203.646 111.598 203.752 106.887C203.804 104.561 204.053 102.258 204.379 99.9542L204.496 99.1266C203.023 98.8394 201.654 98.1418 200.563 97.1319C198.196 98.4966 195.133 98.6175 192.797 97.1765C190.179 98.8159 186.522 98.9646 183.886 97.3618C182.292 98.4976 180.285 98.9876 178.314 98.5564C177.428 98.3626 176.546 97.9432 175.791 97.3625C175.252 97.4574 174.707 97.4942 174.164 97.4659L174.052 97.5285C172.8 98.1871 171.414 98.6205 169.988 98.5722C168.931 98.5367 167.843 98.3286 166.836 97.9349C165.76 98.5835 164.582 99.0262 163.323 99.1849C161.483 99.4166 159.497 99.0102 157.967 97.968C155.171 99.5585 151.732 99.8034 148.713 98.7347C148.095 99.7801 147.24 100.682 146.238 101.376C146.418 102.018 146.475 102.702 146.413 103.36C146.312 104.443 146.04 105.413 145.595 106.285C146.064 107.259 146.205 108.454 145.943 109.654C145.569 111.365 144.572 112.854 143.281 114.013C143.167 116.744 141.667 119.305 139.226 120.727C139.103 120.799 138.98 120.858 138.857 120.911C138.75 121.058 138.621 121.187 138.473 121.297C136.921 122.729 134.465 122.615 132.519 121.806C132.482 121.807 132.444 121.811 132.406 121.811C131.711 121.829 131.238 121.558 130.956 121.16C130.673 121.176 130.392 121.205 130.109 121.258C129.076 121.451 127.942 121.821 127.007 122.302C124.58 123.549 123.456 125.753 123.12 128.402C122.754 131.291 123.587 134.236 125.826 136.192C126.914 137.143 128.306 137.739 129.72 137.99C131.282 138.268 132.952 137.584 134.106 138.924C134.337 139.189 134.495 139.56 134.369 139.918C133.978 141.035 133.334 141.463 132.326 141.618C133.782 143.343 135.277 145.011 136.932 146.561C138.722 148.241 140.573 149.869 142.188 151.722C143.896 153.682 145.438 155.761 146.508 158.139C147.12 159.507 147.612 160.916 148.141 162.316L148.236 162.56C148.826 164.047 149.611 165.481 148.703 167.034C148.342 167.645 147.524 168.235 146.772 168.138C144.653 167.867 143.943 166.438 143.291 164.575C142.8 163.167 142.424 161.72 141.895 160.325C141.796 160.067 141.688 159.812 141.575 159.557C140.353 159.897 139.01 159.627 137.919 158.932C136.754 159.447 135.464 159.705 134.217 159.683C132.548 159.654 131.023 159.191 129.712 158.355C129.608 158.328 129.503 158.301 129.399 158.272C127.405 159.034 125.069 158.898 123.264 157.662C122.094 156.861 121.295 155.793 120.841 154.603C119.33 154.574 117.835 154.04 116.753 152.969C115.759 151.987 115.178 150.719 115.005 149.402C113.705 149.145 112.486 148.517 111.529 147.459C110.731 146.576 110.246 145.451 110.082 144.283C108.498 143.832 107.07 142.8 106.29 141.36C105.564 140.019 105.459 138.565 105.814 137.243L105.722 137.111C104.09 136.258 102.845 134.862 102.717 132.868C102.681 132.301 102.743 131.733 102.897 131.196C102.841 130.595 102.877 129.994 103.034 129.413C100.84 127.283 100.045 123.86 101.236 121.03C99.0925 118.726 98.5258 115.083 100.098 112.349C99.0198 111.047 98.4656 109.386 98.5584 107.614C98.6737 105.4 99.6893 103.467 100.905 101.677C100.003 100.68 99.5213 99.2904 99.5566 97.9482C99.6065 96.0026 100.642 94.3274 101.939 92.9402C100.808 89.5147 102.071 85.7988 104.847 83.6303C104.286 82.7064 104.078 81.562 104.261 80.4027C104.582 78.3769 106.104 76.9972 107.746 75.9055C107.403 74.789 107.493 73.5843 108.04 72.43C108.769 70.89 110.146 69.9134 111.583 69.0871C111.954 65.6717 115.775 62.7545 118.98 64.5173C118.185 61.9757 120.475 59.2314 123.108 58.9409C124.397 55.0397 128.843 52.5807 132.84 53.5498C134.883 50.7603 138.687 49.6864 141.917 50.883C145.468 48.1662 149.874 47.763 154.029 49.1427ZM128.735 125.743C131.23 125.608 133.1 127.641 134.415 129.501C135.648 131.247 132.484 133.089 131.561 131.166C131.23 130.48 130.854 129.754 130.35 129.153C130.265 129.272 130.19 129.394 130.116 129.52L130.041 129.646C129.986 129.739 129.928 129.834 129.881 129.932C129.886 129.949 129.81 130.18 129.808 130.19C129.602 130.813 129.153 131.214 128.542 131.429C127.752 131.705 127.004 131.111 126.751 130.415C126.348 129.303 127.285 128.334 128.261 127.894C127.303 127.738 126.36 128.064 125.668 128.8C125.573 128.903 125.412 128.82 125.407 128.692C125.327 126.947 127.155 125.828 128.735 125.743Z" fill="black"/>
<path fill-rule="evenodd" clip-rule="evenodd" d="M189.584 151.782C187.737 152.317 185.754 152.364 183.871 151.813C182.163 151.312 180.41 150.211 179.153 148.753C178.036 147.459 177.313 145.885 177.341 144.206C177.345 144.014 177.413 143.854 177.519 143.73C177.633 143.596 177.791 143.504 177.962 143.464C178.137 143.423 178.322 143.438 178.479 143.509C178.622 143.574 178.744 143.684 178.821 143.844C179.014 144.098 179.206 144.347 179.399 144.59C180.952 146.505 182.457 147.936 184.792 148.45C186.059 148.728 187.325 148.605 188.486 148.18C189.729 147.725 190.853 146.925 191.733 145.901C192.131 145.438 192.601 145.25 193.061 145.246C193.581 145.243 194.096 145.484 194.483 145.87C194.864 146.25 195.12 146.766 195.143 147.305C195.163 147.779 195.008 148.273 194.597 148.714C193.241 150.168 191.485 151.233 189.584 151.782ZM189.527 127.796C191.421 128.945 194.306 131.625 192.269 134.475C189.871 136.987 186.419 134.107 184.718 132.804C183.14 131.794 181.368 134.391 182.831 135.57C195.124 144.658 200.113 128.097 190.485 126.445C189.425 126.263 189.031 127.44 189.527 127.796ZM171.814 122.739C171.205 122.35 170.489 122.217 169.696 122.577C169.076 122.859 167.988 123.797 167.231 125.031C166.714 125.875 166.346 126.866 166.423 127.897C166.441 128.137 166.352 128.313 166.212 128.444C166.102 128.547 165.942 128.623 165.755 128.647C165.596 128.667 165.418 128.649 165.273 128.603C164.998 128.518 164.852 128.339 164.797 128.194C164.267 126.788 164.495 125.22 165.089 123.805C165.891 121.896 167.346 120.297 168.3 119.781C169.932 118.898 171.857 118.858 173.491 119.757C174.882 120.522 175.752 121.758 176.617 123.017C176.801 123.285 176.983 123.551 177.172 123.812C177.55 124.335 177.588 124.854 177.441 125.299C177.279 125.792 176.866 126.208 176.348 126.426C175.87 126.627 175.316 126.655 174.825 126.449C174.41 126.274 174.03 125.933 173.789 125.356C173.383 124.383 172.707 123.309 171.814 122.739ZM202.724 124.903C202.307 125.12 201.981 125.185 201.518 125.047C201.263 124.97 201.01 124.823 200.812 124.626C200.616 124.43 200.475 124.187 200.42 123.917C200.284 123.25 199.919 122.626 199.399 122.219C198.954 121.871 198.392 121.687 197.769 121.791C197.097 121.903 196.457 122.334 196.016 122.841C195.868 123.011 195.753 123.204 195.636 123.395C195.419 123.754 195.208 124.087 194.908 124.35C194.795 124.45 194.623 124.519 194.458 124.519C194.39 124.519 194.322 124.508 194.257 124.488C193.588 123.817 193.459 123.309 193.481 122.804C193.503 122.275 193.712 121.739 194.05 121.24C194.841 120.067 196.345 119.106 197.359 118.888C198.749 118.59 200.128 118.948 201.235 119.723C202.373 120.52 203.216 121.758 203.479 123.153C203.543 123.489 203.516 123.852 203.388 124.166C203.262 124.473 203.044 124.737 202.724 124.903ZM174.878 110.239C174.044 111.051 173.057 111.176 172.059 111.288C171.504 111.351 171.061 111.401 170.626 111.499C169.428 111.769 168.244 112.176 167.164 112.762C166.035 113.374 164.804 114.112 163.919 115.058C163.709 115.283 163.51 115.519 163.311 115.756C163.13 115.971 162.956 116.179 162.772 116.38C162.561 116.61 162.36 116.851 162.16 117.091C162.037 117.294 162.013 117.344 161.988 117.396C161.95 117.474 161.907 117.562 161.857 117.655C161.789 117.784 161.709 117.924 161.626 118.052C161.487 118.285 161.413 118.349 161.348 118.378C161.241 118.425 161.14 118.448 161.042 118.436C160.95 118.424 160.863 118.38 160.777 118.307C160.349 117.946 160.223 117.354 160.236 116.724C160.255 115.77 160.608 114.713 160.933 114.063C161.689 112.553 162.737 110.983 163.998 109.857C165.436 108.57 167.01 107.596 168.817 106.925C169.94 106.508 171.241 106.125 172.465 106.174C173.346 106.209 174.186 106.47 174.881 107.123C175.307 107.524 175.512 108.094 175.512 108.664C175.512 109.245 175.299 109.829 174.878 110.239ZM204.419 117.667C204.366 117.754 204.293 117.814 204.211 117.85C204.126 117.888 204.03 117.898 203.938 117.883C203.847 117.868 203.76 117.826 203.691 117.763C203.625 117.703 203.575 117.622 203.553 117.524C202.999 115.096 201.924 113.29 199.63 112.125C198.502 111.552 197.204 111.188 195.975 110.898C195.618 110.813 195.241 110.759 194.861 110.703C193.671 110.53 192.472 110.331 191.695 109.37C191.228 108.791 191.032 108.051 191.143 107.374C191.247 106.736 191.62 106.152 192.298 105.802C193.986 104.93 196.084 105.785 197.789 106.514C197.916 106.568 198.04 106.621 198.161 106.672C199.828 107.375 201.349 108.302 202.599 109.629C203.591 110.681 204.51 112.237 204.88 113.838C205.188 115.169 205.115 116.529 204.419 117.667Z" fill="black"/>
</svg>
