<svg width="435" height="635" viewBox="0 0 435 635" fill="none" xmlns="http://www.w3.org/2000/svg">
<path fill-rule="evenodd" clip-rule="evenodd" d="M133.583 175.035C140.252 173.417 141.391 157.452 145.418 159.726C147.746 161.747 143.938 165.561 143.265 167.843L142.969 168.422C141.603 171.08 140.058 173.728 137.365 175.261C135.634 177.08 130.461 175.294 131.222 178.192C133.878 186.925 147.975 192.973 156.283 195.692C169.197 200.536 190.088 198.897 193.122 182.66C186.039 181.365 180.802 168.603 185.167 163.289C185.316 168.451 186.728 173.777 190.786 177.274L191.01 177.48C191.724 178.13 192.648 178.907 193.57 178.762C194.468 177.513 196.213 178.224 196.726 179.543C237.056 186.504 246.04 229.94 271.438 255.507C276.512 260.841 281.815 265.948 287.05 271.119C292.397 275.356 296.181 281.261 296.444 288.196C296.922 292.052 296.686 295.913 296.174 299.776L296.139 300.125C295.902 302.519 295.761 305.09 294.62 307.215C294.423 307.936 294.503 308.846 293.879 309.354C294.152 313.762 293.892 318.248 293.146 322.642L295.091 323.509C316.503 333.032 338.162 342.008 360.489 349.147C362.397 348.801 362.241 351.016 361.317 352.023C361.561 353.208 361.587 354.44 361.302 355.611C365.39 356.198 369.543 355.71 373.578 354.966C374.855 352.158 378.247 352.308 380.87 352.23C384.128 352.025 387.38 351.708 390.615 351.257C398.585 349.479 406.412 347.139 414.306 345.083C419.588 343.599 425.284 343.67 430.583 345.036C431.483 346.043 432.314 347.119 433.016 348.261C437.859 355.761 433.087 362.633 426.325 366.572C415.478 374.25 404.627 381.919 393.731 389.526L392.94 390.09C379.976 399.355 365.392 411.083 358.469 388.532C356.142 388.26 354.103 386.7 351.935 385.78C352.518 388.486 350.776 391.22 349.576 393.54C349.059 394.861 347.645 395.297 346.34 395.285C345.223 396.379 343.126 395.948 342.395 394.65C336.469 392.956 331.573 389.001 326.327 385.928C318.869 381.405 311.045 377.549 303.479 373.216C316.048 425.179 312.974 479.305 309.629 532.199L309.605 532.677C309.191 540.399 307.417 544.052 301.003 548.785C302.12 552.189 303.12 555.606 303.882 559.107C304.152 559.92 305.39 559.155 305.4 560.27C307.679 559.738 312.31 560.308 310.695 563.456C315.27 567.289 318.368 572.483 322.378 576.854C329.441 585.308 338.675 591.6 347.728 597.8C368.539 608.389 369.732 626.739 345.382 633.008L345.138 633.065C341.785 633.871 337.747 635.713 334.496 634.162C329.634 633.227 324.808 631.335 320.051 629.893C300.895 623.564 282.159 616.152 264.006 607.634C263.347 607.325 262.975 606.618 262.958 605.91C263.16 600.066 261.571 568.039 267.64 567.349C268.995 560.806 269.208 554.052 268.962 547.374C266.993 546.755 265.002 546.159 262.963 545.772C260.983 545.15 257.887 545.01 256.562 543.409C256.085 543.237 255.736 542.811 255.807 542.14C256.879 532.104 257.692 522.041 258.285 511.965C260.316 478.175 259.627 444.279 257.314 410.526C252.547 414.642 247.115 418.246 241.068 420.163C237.731 423.503 232.379 424.219 227.823 424.623C221.964 424.986 216.208 423.817 210.426 423.09C200.607 421.856 190.857 422.948 181.11 424.159L177.779 424.574C153.915 427.187 128.126 427.727 105.884 417.543C101.697 417.915 96.4979 413.395 93.8856 410.376C92.732 411.087 91.5986 409.697 90.6794 408.966C89.1623 408.506 87.4414 407.845 86.0647 406.88C82.572 408.022 80.688 403.494 79.3614 401.032C58.3046 365.027 81.7547 329.187 79.9909 291.006C81.059 261.072 67.3852 229.887 80.6007 201.177C83.2742 189.028 98.9104 180.632 110.68 177.544C114.472 176.919 128.83 171.736 130.411 176.095C131.16 175.113 132.437 175.04 133.583 175.035ZM308.248 564.858C306.275 565.069 304.351 565.191 302.401 565.548C295.282 566.714 288.491 569.466 282.373 573.29C280.392 574.524 278.623 576.078 276.35 576.765C271.677 578.459 267.086 574.253 267.428 569.706C266.126 581.134 266.349 592.893 267.025 604.379C285.3 612.634 303.984 619.994 323.008 626.388C327.292 628.181 332.365 628.755 336.299 631.179C343.008 630.756 349.762 628.404 355.397 624.727C364.743 618.251 358.538 607.98 350.79 603.46C333.733 595.775 319.214 580.221 308.248 564.858ZM270.877 547.957C270.52 551.345 273.098 556.622 272.734 563.374C272.455 565.482 271.796 567.691 272.025 569.808C273.074 577.659 281.589 567.682 285.107 566.588C290.102 563.845 295.53 561.978 301.108 560.956C301.074 559.146 299.873 558.423 299.716 556.634C299.489 553.998 299.501 551.465 299.382 548.804C292.126 552.098 278.573 549.769 270.877 547.957ZM309.969 564.346C309.842 564.43 309.709 564.502 309.572 564.566C310.58 565.785 311.453 567.138 312.649 568.187L312.14 567.397C311.459 566.344 310.762 565.295 309.969 564.346ZM84.6323 283.441C84.2668 284.924 83.601 286.319 82.6036 287.506C87.7542 329.204 61.2548 363.966 85.6186 402.736C85.9265 402.879 86.2075 403.057 86.478 403.28C86.6213 403.185 86.7645 403.084 86.9051 402.984C98.3246 382.807 114.58 365.402 127.533 346.094C130.019 341.248 134.111 336.369 135.678 330.77C109.649 320.507 99.252 305.534 84.6323 283.441ZM427.178 346.689C426.074 347.084 424.846 346.758 423.669 346.737C419.487 346.648 415.401 347.737 411.401 348.838C399.769 352.015 388.076 354.827 376.159 356.708C375.918 356.957 375.688 357.211 375.479 357.478C375.685 357.828 375.717 358.264 375.417 358.698C373.619 362.127 375.073 366.326 373.767 369.996C371.874 377.427 366.841 385.809 359.329 388.446C361.834 390.83 363.629 393.898 366.21 396.198C372.552 400.539 379.538 394.069 384.715 390.6C394.574 383.646 404.458 376.741 414.369 369.864C418.809 366.189 428.632 361.558 430.756 356.69C432.117 352.957 429.64 349.321 427.178 346.689ZM359.239 356.164C354.996 364.805 352.546 373.992 350.096 383.27C352.644 383.97 354.992 385.066 357.497 385.804C361.026 386.596 366.008 379.787 367.777 377.084C369.601 374.062 370.878 370.741 371.47 367.261C371.97 363.853 371.438 360.314 372.922 357.157C368.325 357.626 363.662 357.724 359.239 356.164ZM106.969 338.334C110.954 337.22 101.889 346.221 101.367 347.182C95.4725 354.13 90.0722 361.47 84.7132 368.831L83.0887 371.066C82.9326 371.292 81.8568 372.88 82.6347 372.678C82.7059 372.66 82.7391 372.753 82.6825 372.792C77.7266 373.667 104.579 338.946 106.969 338.334ZM204.114 334.086C204.436 333.116 202.906 332.702 202.584 333.666L201.568 336.72C197.735 348.261 193.925 359.818 189.343 371.09C188.96 372.035 190.493 372.447 190.873 371.512C195.857 359.246 199.928 346.642 204.114 334.086ZM248.673 330.045C247.276 336.666 243.745 342.636 241.604 348.965C245.624 348.08 248.721 344.339 251.064 341.122L251.135 341.015C252.24 339.316 253.525 336.662 256.035 337.861C259.846 340.071 257.116 347.911 257.045 351.627C256.562 356.72 254.903 361.485 253.773 366.433C256.678 364.451 257.513 360.542 258.929 357.496L264.378 344.442C268.385 338.961 266.524 355.374 266.317 356.923C265.991 360.325 264.556 363.748 265.119 367.175C267.378 364.747 268.802 361.697 269.997 358.601C271.656 354.296 273.17 349.936 274.748 345.603C275.294 344.215 277.363 344.702 277.063 346.231C276.961 351.149 276.881 356.067 276.802 360.985L276.743 364.673C276.732 365.372 276.386 367.415 277.596 366.85C283.948 360.192 285.577 346.879 284.751 337.935C272.263 338.236 259.522 336.619 248.673 330.045ZM359.798 354.883C359.747 355.046 359.688 355.208 359.629 355.371C359.665 355.378 359.703 355.386 359.739 355.396C359.762 355.223 359.783 355.053 359.798 354.883ZM82.646 354.883C81.2609 353.862 104.543 324.012 103.035 332.629C96.5393 340.303 88.9647 347.028 82.646 354.883ZM288.26 288.924C266.486 283.816 247.312 302.896 225.446 300.014C225.699 306.847 226.051 313.727 225.913 320.564C254.95 322.956 251.646 335.297 285.073 334.054C289.393 331.165 291.167 313.46 290.802 308.115C291.081 301.795 285.635 298.958 280.21 297.85C278.25 299.031 274.733 295.505 277.644 294.265C281.475 293.114 285.06 291.305 288.26 288.924ZM127.629 176.917C119.883 177.68 112.211 179.788 105.091 183.046C78.7742 190.632 74.9794 221.395 78.144 244.707C79.4552 262.434 84.518 279.773 95.1624 294.189C123.501 337.344 170.437 330.511 214.896 324.803C216.499 323.689 219.214 324.48 220.759 323.009C220.597 322.953 220.452 322.877 220.327 322.782C221.069 322.204 221.643 321.189 221.815 320.111L222.135 320.143C222.449 313.45 222.198 306.888 222.299 300.248C207.691 296.247 192.024 294.203 177.219 290.218C175.536 291.39 173.595 290.041 171.951 289.404C167.69 287.594 163.391 285.875 159.06 284.238L157.976 283.83C155.153 282.774 152.332 281.69 149.535 280.56L148.487 280.135C146.885 279.48 142.839 277.058 141.092 278.57L141.233 278.874C142.269 281.132 145.839 289.487 141.45 287.834C137.887 285.335 136.039 267.91 132.509 267.756C131.295 271 130.426 274.367 130.227 277.835C130.155 278.616 129.128 279.274 128.511 278.544C124.324 273.039 130.648 267.042 130.817 261.231C131.216 254.474 128.222 248.151 126.731 241.684L126.639 241.238C125.764 237.042 124.404 231.955 124.765 228.191L125.633 231.458C126.505 234.727 127.397 237.996 128.421 241.219C130.963 249.268 135.551 257.561 133.001 266.173C138.117 266.343 138.982 274.407 140.904 278.089C144.012 274.06 165.89 283.72 170.882 285.27L171.845 284.179C187.48 266.475 198.767 254.493 223 268.498C218.814 255.012 218.409 240.688 217.695 226.684C217.94 224.019 216.398 216.992 218.573 215.538C218.95 215.592 219.317 215.706 219.663 215.858L219.663 217.238C219.673 219.912 219.798 224.346 220.921 225.353L221.436 230.648C222.786 244.416 224.316 258.173 228.433 271.44C238.315 276.958 247.333 283.866 255.816 291.319L256.782 290.967C267.264 287.135 279.875 282.222 290.592 287.006C290.413 284.305 289.369 281.721 287.914 279.437C285.486 278.836 283.897 276.279 282.159 274.576C276.651 268.667 270.996 262.893 265.614 256.864C242.65 232.193 232.88 191.682 196.818 182.112C194.434 202.048 168.895 205.229 153.506 198.407L152.921 198.183C143.355 194.496 132.543 188.93 129.183 178.791L129.044 178.498C128.698 177.782 128.286 177.054 127.629 176.917ZM133.305 290.365C133.333 290.335 133.388 290.376 133.364 290.41C128.88 296.029 125.231 303.694 129.687 310.406C130.511 311.917 128.586 313.369 127.354 312.217C121.169 305.202 128.031 295.695 133.305 290.365ZM289.303 291.635C286.837 293.393 284.194 294.853 281.393 296.005C281.402 296.327 281.244 296.672 281.102 296.925C284.789 297.217 288.628 298.168 291.216 300.853C291.342 299.871 291.465 298.886 291.559 297.902C291.797 295.368 291.363 293.1 289.303 291.635ZM119.757 266.795L119.786 266.66C119.806 266.506 120.039 266.495 120.033 266.66C119.947 268.668 118.483 270.097 117.244 271.528C115.404 273.65 113.565 275.771 111.725 277.892C108.648 281.589 104.116 285.305 105.135 290.661C105.154 292.563 102.767 292.971 101.799 291.572C97.9471 284.236 110.071 277.995 114.158 273.262C116.077 271.214 119.101 269.707 119.757 266.795ZM177.484 288.818C177.542 288.91 177.583 289.008 177.605 289.11C178.25 289.178 178.893 289.252 179.536 289.33L177.484 288.818ZM81.0477 271.662C81.1627 272.428 81.2705 273.197 81.3736 273.966L81.4752 274.735L81.491 274.668C81.5436 274.468 81.643 274.294 81.7727 274.156L81.8171 274.111C81.5498 273.299 81.2934 272.482 81.0477 271.662ZM258.053 263.728C259.598 263.563 252.598 268.59 252.211 269.212C251.647 269.702 250.987 268.831 251.589 268.407C253.764 266.874 255.908 265.301 258.053 263.728ZM244.434 248.941C245.509 248.501 246.239 250.289 245.22 250.787C241.506 252.602 237.578 253.885 234.156 256.272C234.006 256.377 233.818 256.133 233.961 256.021L234.372 255.696C237.524 253.196 240.672 250.479 244.434 248.941ZM82.3301 226.338C83.368 231.22 88.9841 232.823 93.3425 234.123L94.7043 234.641C98.5531 236.112 102.54 237.767 105.309 240.876C106.395 244.382 98.6506 238.274 97.5695 237.965C92.2813 234.69 82.7262 234.134 82.3301 226.338ZM196.977 180.758C197.006 181.006 197.021 181.26 197.028 181.513C197.354 181.513 197.677 181.516 198.003 181.526C197.623 181.304 197.276 181.051 196.977 180.758Z" fill="black"/>
<path fill-rule="evenodd" clip-rule="evenodd" d="M182.117 174.028C174.891 174.769 166.305 173.062 161.487 167.2C161.343 167.025 161.28 166.826 161.276 166.634C161.272 166.421 161.344 166.215 161.468 166.054C161.598 165.886 161.783 165.768 161.996 165.73C162.175 165.698 162.379 165.719 162.589 165.837L163.032 166.083C166.322 167.898 169.74 169.445 173.468 170.108C177.308 170.789 181.217 170.713 185.022 169.847C191.953 168.27 197.563 164.247 201.692 158.943C206.299 153.024 209.066 145.51 209.771 137.995C210.626 128.889 208.643 119.837 206.592 111.02C204.437 101.755 202.082 92.537 199.345 83.4262C199.263 83.152 199.24 82.8952 199.264 82.6588C198.457 82.3431 197.598 82.4307 196.743 82.719C195.181 83.2456 193.625 84.4333 192.327 85.4136C191.857 85.7687 191.42 86.0987 191.027 86.3673C189.417 87.4669 187.658 88.2581 185.691 88.3826C183.645 88.5117 181.639 87.8767 179.781 87.0821C178.837 86.6784 177.908 86.2596 176.983 85.8425C174.349 84.6548 171.746 83.4789 168.901 82.7146C165.089 81.6903 161.154 81.1857 157.206 81.2219C150.161 81.2862 143.094 83.0971 138.776 89.047C137.027 91.4573 135.887 94.2275 136.776 97.2021C137.26 98.8203 138.173 100.289 139.17 101.64L139.512 102.1C140.058 102.842 140.533 103.581 140.676 104.367C140.796 105.026 140.703 105.723 140.231 106.487C139.935 106.968 139.558 107.399 139.178 107.829C138.904 108.139 138.63 108.448 138.394 108.781C137.918 109.453 137.496 110.177 137.166 110.931C136.519 112.408 136.244 113.997 136.187 115.6C136.117 117.533 136.389 119.424 136.659 121.318C136.851 122.661 137.042 124.006 137.119 125.366C137.133 125.604 137.06 125.78 136.958 125.911C136.833 126.072 136.652 126.173 136.445 126.201C136.382 126.209 136.317 126.21 136.252 126.205C136.284 126.335 136.312 126.467 136.337 126.599C136.206 126.431 136.067 126.268 135.92 126.111C135.91 126.106 135.901 126.101 135.892 126.096C135.74 126.013 135.612 125.886 135.531 125.723C135.323 125.53 135.103 125.347 134.872 125.175C133.67 124.279 132.266 123.749 130.858 123.731C129.501 123.714 128.14 124.176 127.093 125.15C125.014 127.088 124.405 130.25 124.383 132.966C124.361 135.738 125.003 139.065 127.424 140.786C128.394 141.476 129.58 141.891 130.775 141.903C131.765 141.913 132.712 141.563 133.645 141.23C133.933 141.127 134.219 141.025 134.505 140.932C134.83 140.826 135.125 140.833 135.383 140.91C135.674 140.997 135.92 141.177 136.104 141.416C136.288 141.654 136.408 141.953 136.446 142.265C136.482 142.568 136.44 142.882 136.312 143.166C136.28 143.237 136.246 143.306 136.21 143.374L136.743 144.248C138.781 147.586 140.855 150.863 143.575 153.733C145.136 155.379 146.79 156.934 148.605 158.294L148.867 158.488C149.024 158.603 149.197 158.744 149.383 158.896C149.912 159.328 150.547 159.908 151.139 159.931C151.315 159.938 151.468 159.916 151.608 159.898C151.945 159.853 152.228 159.84 152.506 159.954C152.73 160.045 152.962 160.215 153.2 160.566C153.362 160.804 153.444 161.102 153.444 161.405C153.444 161.709 153.361 162.013 153.212 162.254C152.903 162.751 152.53 163.059 152.125 163.234C151.674 163.43 151.176 163.459 150.657 163.363C149.38 163.125 147.967 162.069 147.067 161.38L146.893 161.247C144.9 159.728 143.011 158.048 141.35 156.17C138.522 152.971 135.982 149.2 134.677 145.081C133.758 145.684 132.622 145.971 131.434 146.016C129.704 146.082 127.872 145.637 126.522 144.998C123.548 143.589 121.741 140.925 120.895 137.862C119.911 134.304 120.231 130.214 121.476 127.018C121.512 126.925 121.549 126.832 121.588 126.738C117.756 117.044 116.578 106.278 116.906 95.9321C117.06 91.0892 117.39 86.0083 118.534 81.2852C119.047 79.1683 119.938 77.1523 121.36 75.4857C122.172 74.5353 123.167 73.7954 124.167 73.0576C125.032 72.4185 125.902 71.7809 126.633 70.983L126.979 70.6041C127.054 70.5217 127.129 70.4394 127.203 70.3572C128.466 68.9671 129.696 67.6181 131.229 66.4781C133.007 65.1562 134.968 64.1216 137.006 63.2623C141.397 61.4118 146.123 60.3023 150.799 59.4438C160.913 57.5871 171.296 57.4955 181.287 60.1054C185.932 61.3187 190.44 62.9795 194.94 64.6383C195.358 64.7923 195.776 64.9463 196.193 65.0999C199.691 66.3858 203.19 67.6661 206.689 68.9465C208.315 69.5416 209.941 70.1366 211.567 70.7322C211.92 70.8615 212.266 71.14 212.462 71.486C212.654 71.8235 212.712 72.2172 212.557 72.6092C211.559 75.1335 210.3 77.5018 208.768 79.7134C209.3 80.0751 209.753 80.5561 210.096 81.1191C210.53 81.8311 210.786 82.6741 210.804 83.5684C210.862 86.5635 208.133 88.5938 205.868 90.0622C205.657 90.1992 205.448 90.2801 205.246 90.3172C207.441 98.6949 209.541 107.101 211.326 115.574L211.448 116.161C213.287 125.028 214.473 134.077 212.734 143.062C211.237 150.799 207.759 158.266 202.324 164.03C196.998 169.679 189.85 173.235 182.117 174.028ZM134.531 123.018C133.585 120.02 133.083 116.757 133.445 113.717C133.673 111.807 134.249 109.967 135.185 108.283C135.722 107.319 136.376 106.426 137.089 105.585L137.335 105.302C137.46 105.158 137.584 105.025 137.622 104.859C137.645 104.762 137.622 104.657 137.563 104.531C137.433 104.251 137.191 103.982 136.964 103.719C136.82 103.552 136.679 103.387 136.561 103.228C134.487 100.424 132.941 97.0869 133.443 93.5319C133.934 90.0634 136.21 86.8304 138.634 84.3939C143.97 79.0288 152.243 77.7959 159.491 78.0918C163.71 78.2639 167.922 79.0064 171.94 80.3034C173.921 80.9432 175.858 81.7222 177.741 82.6151L178.157 82.815C178.382 82.9238 178.607 83.0338 178.832 83.1439C180.303 83.8645 181.78 84.5921 183.378 84.9838C186.497 85.7487 188.613 84.1377 190.837 82.513C191.6 81.9562 192.373 81.3917 193.196 80.8963L193.365 80.7964C194.849 79.9374 196.624 79.3593 198.329 79.3852C199.81 79.4078 201.239 79.88 202.403 80.9959C202.641 81.2252 202.779 81.4754 202.843 81.7243C202.972 81.9045 203.076 82.1194 203.144 82.3732C203.56 83.9347 203.975 85.4972 204.389 87.0602L204.727 86.8427C205.728 86.1931 206.817 85.4508 207.309 84.364C207.498 83.9458 207.471 83.2489 207.233 82.7366C207.15 82.5576 207.039 82.3984 206.887 82.2991C206.776 82.2268 206.643 82.1929 206.487 82.2053C206.11 82.2539 205.763 82.1987 205.469 82.0747C205.131 81.9317 204.86 81.6964 204.685 81.4128C204.505 81.1224 204.423 80.7809 204.467 80.4269C204.505 80.1224 204.636 79.8045 204.896 79.5057C206.604 77.5392 208.043 75.3699 209.137 73.0152L201.903 70.3428C199.324 69.3904 196.745 68.4393 194.164 67.4918L192.751 66.9734C188.058 65.2546 183.338 63.5749 178.458 62.4683C168.759 60.2693 158.646 60.7861 148.974 62.856L148.389 62.9821C144.331 63.8658 140.218 64.9351 136.492 66.7936C134.664 67.7058 132.926 68.8151 131.433 70.2166C130.774 70.8355 130.178 71.5131 129.582 72.1898C128.746 73.1381 127.91 74.0839 126.916 74.8828L125.994 75.6201C124.622 76.7238 123.385 77.7992 122.611 79.511C121.802 81.3005 121.416 83.2775 121.1 85.2037C120.306 90.0561 119.992 94.9861 120.022 99.9012C120.072 108.154 121.328 116.239 122.914 124.295C124.187 122.476 125.975 121.066 128.269 120.765C129.765 120.569 131.248 120.848 132.534 121.508C133.277 121.89 133.955 122.399 134.531 123.018ZM132.127 132.818C130.451 132.17 128.692 131.958 126.919 132.267C126.734 132.3 126.557 132.261 126.408 132.175C126.257 132.087 126.138 131.949 126.073 131.796C125.999 131.619 125.995 131.428 126.061 131.258C126.118 131.11 126.227 130.967 126.427 130.871C128.347 129.957 130.48 129.553 132.598 129.84L132.807 129.87C133.89 130.03 135.412 130.368 136.554 131.032C137.451 131.554 138.107 132.273 138.271 133.213C138.356 133.702 138.234 134.214 137.951 134.584C137.678 134.943 137.26 135.181 136.72 135.166C135.766 135.139 135.201 134.736 134.521 134.215C134.439 134.152 134.354 134.087 134.267 134.021C133.61 133.531 132.892 133.114 132.127 132.818Z" fill="black"/>
<path fill-rule="evenodd" clip-rule="evenodd" d="M170.101 138.34C174.4 137.819 178.567 139.133 182.769 139.796C184.988 140.145 187.209 140.406 189.454 140.503C189.906 140.523 190.358 140.535 190.81 140.544C190.852 140.147 191.074 139.782 191.557 139.563C192.546 139.116 193.337 138.914 194.423 138.957C195.417 138.996 196.414 139.098 197.393 139.277C199.17 139.602 200.955 140.341 202.255 141.623C205.263 144.591 204.805 149.359 202.481 152.592C197.678 159.272 188.913 159.582 181.406 159.494L180.713 159.485C173.877 159.388 164.098 160.406 160.992 152.64C159.85 149.784 160.009 146.474 161.407 143.735C163.075 140.468 166.585 138.766 170.101 138.34ZM191.453 149.463L191.392 149.465C188.24 149.586 185.089 149.672 181.936 149.727C182.03 150.536 182.127 151.345 182.237 152.152C182.323 152.787 182.416 153.421 182.512 154.054C182.553 154.323 182.703 154.739 182.66 155.005L182.645 155.11C182.807 155.183 182.954 155.301 183.063 155.471C183.101 155.531 183.129 155.59 183.156 155.65C185.604 155.669 188.239 155.621 190.735 155.177L190.74 155.123C190.785 154.805 190.918 154.59 191.094 154.443C191.269 153.428 191.253 152.346 191.321 151.339C191.363 150.713 191.409 150.088 191.453 149.463ZM179.528 149.77C177.256 149.809 174.984 149.839 172.713 149.811L171.682 149.795C171.899 150.961 172.136 152.124 172.333 153.298C172.539 154.522 171.46 155.3 170.526 155.268C170.631 155.285 170.736 155.303 170.841 155.318C173.757 155.73 176.786 155.62 179.746 155.617C179.587 154.689 179.651 153.642 179.628 152.867L179.623 152.747C179.578 151.754 179.546 150.762 179.528 149.77ZM164.098 149.556C164.177 150.163 164.33 150.756 164.56 151.309C165.529 153.644 167.752 154.733 170.104 155.192C169.696 155.051 169.372 154.713 169.29 154.134C169.087 152.694 169.013 151.231 169.008 149.768C167.369 149.753 165.718 149.718 164.098 149.556ZM200.001 149.058C198.834 149.333 197.478 149.207 196.333 149.258C195.261 149.307 194.187 149.35 193.115 149.393C193.165 150.124 193.215 150.855 193.268 151.586C193.337 152.531 193.344 153.529 193.525 154.47C195.684 153.734 197.618 152.554 199.069 150.667C199.431 150.197 199.755 149.645 200.001 149.058ZM169.608 142.171C167.666 142.63 165.827 143.601 164.839 145.376C164.252 146.429 163.994 147.678 164.044 148.908C165.686 148.717 167.356 148.645 169.018 148.585C169.024 148.286 169.031 147.987 169.04 147.689L169.065 146.926C169.111 145.469 169.133 143.64 169.608 142.171ZM179.664 142.349L178.808 142.253C176.433 141.982 174.059 141.699 171.683 141.861C171.34 141.885 170.99 141.922 170.641 141.974C171.061 143.487 171.025 145.264 171.201 146.761C171.268 147.34 171.354 147.915 171.449 148.487L171.861 148.468C174.41 148.33 176.961 148.245 179.512 148.144C179.512 147.665 179.515 147.187 179.523 146.708L179.532 146.229C179.561 145.007 179.482 143.629 179.664 142.349ZM191.592 142.155C189.104 142.555 186.533 142.641 184.089 142.644C183.113 142.645 182.137 142.585 181.162 142.499C181.226 143.017 181.259 143.542 181.307 144.053C181.403 145.086 181.513 146.118 181.633 147.148L181.739 148.05C184.875 147.908 188.01 147.755 191.145 147.596L191.587 147.572L191.711 145.839C191.796 144.683 191.888 143.528 192.019 142.378L191.921 142.342C191.806 142.295 191.696 142.229 191.592 142.155ZM192.673 142.585C192.81 144.219 192.885 145.859 192.986 147.496L195.053 147.386C195.397 147.367 195.742 147.348 196.086 147.328C197.425 147.251 199.146 146.846 200.47 147.224C200.571 146.022 200.227 144.851 199.141 144.044C197.234 142.626 194.806 143.131 192.673 142.585ZM185.612 127.978C188.689 126.218 196.41 124.42 196.899 129.95C197.124 132.494 195.23 134.603 193.017 135.544L192.934 135.579C190.859 136.43 187.181 137.392 185.386 135.545C183.891 134.008 185.873 131.251 187.73 132.511C188.685 133.158 190.694 132.681 191.759 132.373L191.825 132.354C192.974 132.016 194.507 130.937 194.031 129.524C193.611 128.274 191.821 128.046 190.701 128.005C189.028 127.945 187.4 128.333 185.743 128.459C185.48 128.479 185.399 128.1 185.612 127.978ZM198.359 119.086C202.536 118.89 205.134 123.444 204.174 127.175C204.008 127.819 203.286 128.451 202.59 128.379L202.415 128.363C202.326 128.354 202.236 128.343 202.154 128.32C201.493 128.137 200.9 127.451 200.949 126.739L200.961 126.532C201.059 124.769 200.868 122.738 198.77 122.311C196.991 121.949 195.997 123.659 195.976 125.233C195.972 125.513 195.658 125.708 195.41 125.558C194.124 124.776 193.902 123.221 194.393 121.883C195.015 120.186 196.574 119.169 198.359 119.086ZM167.365 120.062C170.404 119.05 173.683 120.667 175.155 123.351C175.671 123.5 176.187 123.897 176.115 124.506C176.012 125.381 175.856 125.933 175.248 126.597C174.297 127.635 172.516 127.104 172.121 125.826L172.105 125.768C171.656 124.116 169.834 123.026 168.175 123.604C166.237 124.28 166.293 126.324 164.933 127.515C164.773 127.655 164.582 127.677 164.39 127.585C162.946 126.888 163.206 124.791 163.72 123.59C164.396 122.015 165.708 120.614 167.365 120.062ZM163.225 110.846C165.688 108.336 172.111 105.908 173.796 110.542C174.117 111.425 173.433 112.615 172.513 112.798C171.006 113.097 169.669 112.444 168.172 112.561C166.96 112.657 165.696 113.061 164.727 113.811C162.043 115.887 161.453 119.399 159.583 122.042C159.492 122.17 159.315 122.116 159.298 121.964C158.873 118.117 160.528 113.594 163.225 110.846ZM195.346 108.375C196.981 107.799 198.832 107.848 200.475 108.359C202.13 108.875 203.649 109.853 204.82 111.132C205.351 111.712 205.842 112.353 206.236 113.035C206.446 113.396 206.666 114.142 206.904 114.587C208.191 115.329 208.742 117.021 207.589 118.224L207.537 118.277L207.383 118.43C206.763 119.042 205.829 119.307 204.983 119.063C203.09 118.516 202.86 117.027 202.205 115.447C201.772 114.404 201.031 113.48 200.132 112.802C198.007 111.199 194.523 110.689 191.965 111.444C191.829 111.484 191.669 111.311 191.766 111.185C192.251 110.558 192.53 110.044 193.179 109.538C193.838 109.025 194.557 108.654 195.346 108.375Z" fill="black"/>
</svg>
