<svg width="434" height="635" viewBox="0 0 434 635" fill="none" xmlns="http://www.w3.org/2000/svg">
<path fill-rule="evenodd" clip-rule="evenodd" d="M326.31 418.964C325.851 418.273 325.382 417.589 324.9 416.913C325.469 417.53 326.031 418.158 326.577 418.793C326.482 418.841 326.392 418.9 326.31 418.964ZM273.186 374.519C273.096 374.452 272.996 374.393 272.88 374.347C272.614 374.237 272.347 374.122 272.08 374.012C271.575 373.313 271.1 372.596 270.657 371.863C271.585 372.831 272.526 373.771 273.542 374.652C273.424 374.608 273.304 374.565 273.186 374.519ZM264.442 370.783C260.113 368.481 255.75 366.24 251.377 364.043C251 363.854 250.633 363.859 250.323 363.984C248.443 363.019 246.553 362.066 244.642 361.162C243.48 360.614 242.308 360.097 241.141 359.575C241.051 359.442 240.969 359.303 240.9 359.155C240.2 357.662 240.864 355.808 241.315 354.341C241.431 353.972 241.382 353.652 241.236 353.401C241.482 351.258 241.39 349.102 240.966 347.158C239.961 342.528 237.476 338.308 235.111 334.26C232.682 330.104 230.553 325.93 229.176 321.303C226.409 312.016 226.196 302.293 226.396 292.683C226.616 282.007 227.235 271.334 227.663 260.667C227.791 257.486 227.917 254.306 228.019 251.123C228.268 251.272 228.468 251.425 228.84 251.535C229.445 251.712 230.064 251.858 230.676 252.001C231.9 252.288 233.141 252.488 234.385 252.659C236.724 252.982 239.056 253.128 241.415 253.095C241.705 253.09 241.995 253.082 242.282 253.072C240.918 259.983 241.005 267.301 240.879 274.287C240.731 282.366 240.336 290.524 241.236 298.575C242.116 306.444 244.444 313.957 246.986 321.426C249.602 329.113 252.295 336.777 254.837 344.487C256.271 348.838 257.71 353.188 259.151 357.536C259.843 359.631 260.538 361.726 261.231 363.818C261.99 366.11 262.37 368.806 264.293 370.409C264.506 370.586 264.745 370.721 265.001 370.816C265.045 370.906 265.086 370.993 265.132 371.082C264.901 370.983 264.673 370.883 264.442 370.783ZM235.793 353.565C235.491 354.981 234.978 356.382 234.277 357.47C234.277 357.593 234.252 357.723 234.19 357.857C233.493 359.375 231.826 360.258 230.384 360.942C228.648 361.767 226.855 362.476 225.103 363.27C222.482 364.455 219.794 365.377 217.039 366.035C216.988 366.056 216.937 366.079 216.883 366.099C212.397 367.897 207.804 369.415 203.146 370.709C193.707 373.333 184.02 375.01 174.289 376.106C164.864 377.167 155.369 377.773 145.889 378.06C137.284 378.324 128.543 378.134 120.059 376.565C113.983 375.441 108.012 373.582 102.536 370.757C102.095 370.066 101.477 369.474 100.959 368.826C101.023 367.784 100.392 366.622 99.4381 366.253C99.0688 365.431 98.7789 364.576 98.5737 363.697C98.7969 361.546 99.097 359.406 99.5356 357.255C100.4 353.04 101.528 348.884 102.662 344.736C105.027 336.078 106.917 327.449 107.233 318.448C107.553 309.332 106.635 300.247 105.378 291.231C104.103 282.076 102.572 272.955 100.928 263.862C99.9947 258.692 99.0944 253.512 98.107 248.35C97.1092 243.129 96.3219 237.805 95.0215 232.648C94.9805 232.481 94.7086 232.512 94.7163 232.691C94.8958 237.326 95.537 241.971 95.9859 246.588C96.3013 249.827 96.6425 253.061 96.9887 256.296C96.2859 256.134 95.5268 256.229 94.706 256.244C93.3595 256.272 92.013 256.257 90.6665 256.265C87.976 256.275 85.2829 256.288 82.5899 256.301C77.9604 256.321 73.313 256.39 68.6912 256.723C68.4065 256.654 68.1193 256.585 67.8295 256.498C66.724 256.165 66.3701 255.376 66.2983 254.273C66.111 251.502 66.5086 248.629 66.5573 245.848C66.6086 242.893 66.5907 239.938 66.4983 236.986C66.4393 235.052 66.6291 232.681 65.5109 231.001C65.6186 229.47 65.7494 227.939 65.911 226.413C66.5163 220.682 67.5499 214.925 69.3273 209.433C70.6123 205.464 72.7205 201.823 75.7521 198.929C81.6999 193.26 89.9252 191.017 97.6094 188.768C106.897 186.049 116.15 182.7 124.524 177.793C124.422 178.016 124.486 178.308 124.789 178.369C125.276 178.469 125.635 178.733 125.902 179.094C126.02 179.693 126.194 180.285 126.43 180.864C126.479 180.981 126.54 181.086 126.61 181.178C126.728 182.041 126.74 182.925 126.802 183.547C127.007 185.657 127.389 187.718 127.969 189.757C129.136 193.856 130.965 197.797 133.381 201.313C138.233 208.365 145.479 213.75 153.802 215.927C162.204 218.121 171.522 217.202 179.075 212.808C186.062 208.744 191.476 202.017 193.061 194.018C193.905 189.767 193.769 185.439 192.974 181.194C192.846 180.513 192.705 179.814 192.546 179.109C197.873 183.68 204.705 186.484 211.297 188.648C218.342 190.96 225.565 192.86 231.985 196.694C234.942 198.458 237.748 200.655 239.802 203.449C242.351 206.916 243.452 210.951 244.142 215.146C245.068 220.779 245.742 226.464 246.378 232.136C246.696 234.988 246.991 237.846 247.261 240.704C247.402 242.217 247.538 243.73 247.663 245.246C247.756 246.317 247.858 247.169 248.207 247.981C246.191 248.519 244.149 248.923 242.092 249.287C239.664 249.72 237.191 249.971 234.729 250.122C233.459 250.199 232.187 250.224 230.915 250.245C230.282 250.255 229.648 250.24 229.014 250.245C228.653 250.247 228.358 250.345 228.042 250.409C228.325 241.403 228.417 232.389 227.871 223.396C227.858 223.168 227.488 223.086 227.447 223.34C225.642 233.915 224.688 244.647 223.954 255.343C223.233 265.831 222.477 276.32 221.841 286.816C221.259 296.46 221.041 306.198 222.69 315.757C223.495 320.422 224.824 324.947 226.709 329.292C228.566 333.576 231.189 337.448 233.326 341.589C235.28 345.381 236.668 349.514 235.793 353.565ZM222.407 450.858C218.596 449.754 215 448.17 211.449 446.41C208.025 444.712 204.393 442.904 201.491 440.398C201.428 440.344 201.494 440.23 201.573 440.257C205.151 441.533 208.543 443.427 212.029 444.952C215.651 446.537 219.355 447.924 222.991 449.476C223.796 449.82 223.208 451.09 222.407 450.858ZM214.777 469.548C213.841 470.178 212.813 470.749 211.746 471.12C210.297 471.629 208.83 471.76 207.37 471.612C207.152 468.987 206.885 466.362 206.565 463.745C209.85 465.399 213.287 466.774 216.719 468.152C216.039 468.559 215.454 469.089 214.777 469.548ZM201.318 456.024C201.22 457.085 199.804 457.061 199.683 456.024C199.133 451.332 198.858 446.6 198.386 441.898C197.549 433.561 196.165 425.354 194.261 417.195C193.78 415.134 193.279 413.08 192.724 411.038C192.437 409.979 191.459 408.119 192.117 407.036C192.926 405.704 194.044 407.589 193.181 407.697C193.093 407.707 193.093 407.582 193.161 407.555C192.49 407.822 192.956 408.425 193.133 408.902C193.302 409.361 193.476 409.819 193.645 410.278C193.982 411.197 194.31 412.119 194.629 413.043C195.321 415.045 195.97 417.058 196.544 419.097C197.666 423.084 198.653 427.119 199.412 431.191C200.925 439.311 202.083 447.756 201.318 456.024ZM104.655 480.187C104.114 479.908 103.462 479.808 102.888 479.923C100.995 480.3 100.243 481.393 98.6199 482.215C97.6658 482.699 96.0166 483.101 95.0164 483.163C93.3518 483.263 92.39 483.147 90.864 482.663C89.7534 482.31 88.5428 481.654 87.7169 480.894C85.5189 478.874 84.434 476.077 83.4722 473.238C82.4129 470.106 81.5024 466.867 79.8712 463.97C79.0505 462.516 78.0092 461.11 76.7678 459.986C75.588 458.918 73.6875 458.142 72.8847 456.726C72.0563 455.267 71.987 453.152 71.7408 451.51C71.4946 449.864 71.315 448.207 71.197 446.548C70.7379 440.09 71.1688 433.007 74.7698 427.409C79.2916 420.385 87.4784 418.347 95.0677 416.381C95.1831 417.589 95.3216 418.795 95.4883 419.999C95.6909 421.474 95.9371 422.944 96.2218 424.406C94.8548 425.497 93.6519 426.89 92.8132 427.909C90.7742 430.39 89.2533 433.219 88.2043 436.251C87.1937 439.173 86.6962 442.271 86.7859 445.362C86.8321 446.899 87.068 448.397 87.5015 449.871C87.622 450.279 87.7657 450.719 87.9375 451.162C87.4015 452.092 87.3014 453.293 87.9247 454.202C93.4929 462.321 99.0611 470.439 104.629 478.559C104.886 478.932 105.142 479.309 105.399 479.685C105.147 479.844 104.901 480.013 104.655 480.187ZM95.0292 415.968C94.6419 415.973 94.2546 415.984 93.8648 415.994C94.2444 415.889 94.624 415.784 95.0035 415.679C95.0112 415.776 95.0189 415.871 95.0292 415.968ZM94.8061 413.077C91.3564 414.02 87.9119 414.99 84.5699 416.268C82.6155 417.016 80.3098 417.82 78.3554 419C77.7783 419.274 77.2166 419.571 76.6678 419.896C76.7447 419.492 76.7421 419.064 76.6447 418.634C76.1933 416.619 75.8573 414.58 75.4803 412.55C75.4392 412.332 75.3905 411.892 75.3084 411.385C75.6777 410.716 75.9548 409.989 76.2677 409.264C76.837 407.951 77.4064 406.635 77.9784 405.321C79.0505 402.845 80.1226 400.369 81.1946 397.895C83.3927 392.822 85.5805 387.737 87.6887 382.626C89.1173 379.159 90.5485 375.689 91.9258 372.199C92.3079 372.647 92.9004 372.954 93.7057 372.985C97.5914 373.123 98.1069 378.255 97.7864 381.105C97.5427 383.274 96.9605 385.407 96.5527 387.55C96.1372 389.739 95.7935 391.939 95.496 394.146C94.6573 400.422 94.4162 406.768 94.8061 413.077ZM62.2792 464.073C57.5728 463.799 52.833 464.25 48.2369 465.284C43.7947 466.283 39.4781 467.776 35.0308 468.769C32.8635 469.253 30.6706 469.586 28.4443 469.637C27.3748 469.66 26.295 469.632 25.2306 469.512C25.0973 469.496 24.928 469.45 24.7562 469.407C25.0614 468.472 25.6077 467.686 26.3899 466.9C27.4774 465.807 28.393 465.202 29.7447 464.337C32.4659 462.595 35.3001 461.018 37.5545 458.662C40.4399 455.643 41.807 451.771 42.52 447.728C43.2843 443.396 43.7767 439.017 44.5103 434.679C45.113 431.097 45.8055 427.514 46.6544 423.975C47.6496 420.859 48.9474 417.843 50.4221 414.908C51.5532 412.66 52.8048 410.483 54.0257 408.286C55.0465 409.231 56.57 409.057 57.4343 407.836C57.8344 407.27 58.3089 406.722 58.4961 406.041C58.6757 405.393 58.6167 404.645 58.6218 403.982C58.6321 402.735 58.6423 401.488 58.6526 400.238C58.6757 397.66 58.7039 395.078 58.7398 392.5C58.809 387.507 58.9116 382.513 59.0809 377.52C59.422 367.48 59.9683 357.444 61.102 347.458C63.3257 327.851 68.9734 308.861 71.4074 289.287C71.7074 286.88 71.969 284.445 72.1614 281.992C73.2207 274.466 73.4028 266.828 72.6898 259.245C80.9561 259.174 89.2199 259.589 97.4401 260.487C98.4327 269.708 99.5663 278.904 100.738 288.099C101.887 297.095 102.872 306.167 102.767 315.247C102.716 319.715 102.411 324.194 101.675 328.604C100.964 332.865 99.8844 337.051 98.7353 341.212C97.5812 345.384 96.3398 349.534 95.3216 353.742C93.7776 357.608 92.0976 361.418 90.3689 365.206C86.0088 374.76 81.4999 384.242 77.2295 393.836C75.9984 396.607 74.7801 399.383 73.5541 402.156C72.9411 403.544 72.3281 404.932 71.7151 406.317C71.0252 407.879 70.1326 409.403 70.1403 411.149C70.1455 412.191 70.7662 412.947 71.5741 413.282C71.2304 415.297 71.1175 417.341 71.0944 419.384C71.0816 420.603 71.8844 421.607 72.9462 421.999C72.9437 422.262 72.936 422.524 72.9232 422.787C72.9078 422.803 72.8924 422.818 72.877 422.831C67.3037 428.459 65.7879 436.62 65.834 444.253C65.8571 448.245 66.2649 452.271 66.9472 456.201C67.3652 458.614 68.4194 460.603 70.3532 462.129C71.7203 463.207 73.2745 464.25 74.1645 465.561C74.3466 465.832 74.5185 466.106 74.6826 466.385C70.8611 464.785 66.2983 464.306 62.2792 464.073ZM125.735 177.063C125.73 177.248 125.73 177.435 125.735 177.619C125.502 177.555 125.255 177.519 124.984 177.522C125.237 177.373 125.484 177.215 125.735 177.063ZM341.063 448.391C340.45 442.763 339.524 437.099 337.516 431.783C335.669 426.895 332.907 422.483 329.616 418.439C326.305 414.37 322.509 410.729 318.624 407.213C314.525 403.506 310.37 399.851 306.177 396.251C297.921 389.163 289.308 382.377 279.826 377.01C279.823 377.005 279.821 377 279.816 376.995C279.8 376.987 279.785 376.982 279.767 376.975C278.225 376.104 276.661 375.264 275.071 374.473C274.683 374.281 274.311 374.293 273.996 374.427C273.988 374.416 273.983 374.404 273.973 374.396C272.837 373.333 271.642 372.386 270.405 371.443C269.382 369.695 268.525 367.853 267.871 365.915C267.807 365.725 267.705 365.572 267.584 365.441C267.328 364.74 267.04 364.043 266.786 363.344C266.094 361.426 265.417 359.503 264.732 357.583C263.362 353.742 261.995 349.898 260.621 346.06C257.874 338.385 255.234 330.673 252.572 322.968C250.072 315.731 247.507 308.464 246.237 300.892C244.921 293.056 245.221 284.993 245.116 277.08C245.057 272.512 245.029 267.931 244.793 263.371C244.614 259.883 244.383 256.406 243.749 252.987C245.537 252.857 247.317 252.618 249.082 252.314C251.023 251.976 255.078 251.73 254.993 248.959C254.96 247.914 254.16 247.187 253.19 246.921C252.965 246.857 252.736 246.831 252.506 246.829C252.711 245.082 252.282 243.188 252.116 241.462C251.864 238.855 251.592 236.248 251.298 233.646C250.705 228.402 250.023 223.166 249.264 217.942C248.574 213.2 247.868 208.429 245.647 204.114C243.96 200.834 241.454 197.979 238.566 195.7C226.557 186.223 210.315 185.987 197.691 177.737C194.426 175.601 191.504 172.931 189.393 169.632C188.188 167.745 187.38 165.712 186.806 163.553C186.434 162.16 186.085 160.798 185.639 159.428C185.2 158.089 185.077 156.99 184.248 155.81C184.159 155.682 183.966 155.728 183.956 155.887C183.877 157.106 184.097 158.176 184.159 159.39C184.22 160.655 184.179 161.902 184.307 163.174C184.338 163.495 184.377 163.815 184.415 164.132C184.372 164.209 184.336 164.293 184.307 164.386C183.72 166.255 184.041 168.28 185.038 169.896C185.026 170.065 185.038 170.237 185.085 170.408C185.587 172.275 186.5 174.001 187.183 175.811C187.829 177.53 188.378 179.286 188.804 181.073C189.606 184.446 189.919 187.913 189.583 191.37C188.86 198.78 184.456 205.095 178.29 209.118C171.445 213.584 162.763 214.695 154.884 212.759C146.848 210.785 140.203 205.664 135.509 198.952C132.901 195.224 130.906 191.037 129.662 186.663C129.185 184.986 128.903 183.224 128.446 181.534C128.892 181.291 129.162 180.812 128.903 180.182C128.225 178.533 128.118 176.907 128.618 175.217C133.176 172.134 137.41 168.529 141.019 164.375C144.607 160.245 148.326 155.229 149.875 149.923C150.483 147.839 147.351 146.446 146.315 148.425C145.181 150.589 144.253 152.819 143.014 154.934C141.77 157.065 140.347 159.088 138.769 160.985C135.63 164.765 131.98 168.14 127.995 171.018C119.108 177.435 108.836 181.557 98.4199 184.781C90.3536 187.278 81.9154 189.455 75.2187 194.863C67.8346 200.826 65.2929 210.204 63.9053 219.207C63.318 223.015 62.9768 226.845 62.823 230.689C62.6614 230.996 62.6229 231.357 62.787 231.695C62.5588 238.906 62.9743 246.148 63.6642 253.328C63.6616 254.088 63.7181 254.839 63.8874 255.55C63.9694 256.342 64.0541 257.133 64.1413 257.922C64.1618 258.121 64.2593 258.257 64.449 258.326C65.1774 258.587 65.9058 258.744 66.6419 258.792C66.7676 258.836 66.8959 258.874 67.0241 258.91C67.2293 259.174 67.5525 259.35 67.9962 259.338C68.2501 259.33 68.504 259.325 68.7553 259.317C69.0452 259.399 69.3273 259.499 69.594 259.64C69.7941 259.745 69.9916 259.791 70.1788 259.796C70.502 263.46 70.6148 267.135 70.5199 270.799C70.2352 275.959 69.5966 281.096 68.5886 286.24C66.7189 295.786 64.0028 305.163 61.5226 314.563C56.4033 333.95 54.0359 353.783 53.1203 373.781C52.8613 379.433 52.7382 385.094 52.6458 390.751C52.5997 393.498 52.5663 396.243 52.5381 398.991C52.5253 400.405 52.5124 401.818 52.4996 403.234C52.4919 403.895 52.4458 404.571 52.4894 405.229C52.4996 405.393 52.5227 405.544 52.5509 405.692C52.5484 405.697 52.5458 405.703 52.5432 405.71C49.8604 409.359 47.8163 413.569 46.0261 417.71C44.1948 421.94 42.638 426.288 41.4351 430.738C40.2296 435.196 39.355 439.698 38.5138 444.235C37.811 448.018 36.9954 452.209 34.0715 454.965C31.8632 457.044 28.7855 458.445 26.1771 460.132C23.2019 462.058 20.537 464.411 19.3649 467.852C18.5493 470.239 18.9443 472.977 21.3604 474.226C23.4404 475.301 26.3899 475.219 28.6752 475.115C33.5047 474.889 38.2034 473.583 42.8303 472.272C47.9163 470.831 52.9562 469.514 58.2704 469.371C60.9327 469.299 63.6232 469.425 66.2547 469.84C68.9887 470.267 71.61 471.179 74.3312 471.614C75.2366 471.763 76.142 471.571 76.7447 470.956C78.4759 475.842 79.4685 481.165 83.4363 484.932C86.4884 487.826 90.828 489.303 95.0164 489.06C97.276 488.927 99.4201 488.376 101.457 487.388C102.431 486.914 103.311 486.302 104.155 485.623C104.673 485.209 105.034 484.76 105.286 484.264C106.045 483.803 106.794 483.327 107.533 482.837C111.711 489.039 115.863 495.293 120.528 501.123C125.807 507.719 132.18 513.115 140.124 516.193C147.528 519.061 155.72 519.626 163.576 518.958C171.866 518.251 180.011 516.369 187.96 513.967C191.843 512.795 195.875 511.711 199.558 509.988C203.49 508.15 206.211 504.913 207.134 500.652C208.042 496.463 207.934 491.984 207.965 487.721C207.996 483.321 207.888 478.912 207.591 474.523C207.588 474.51 207.588 474.5 207.588 474.487C209.035 475.071 210.607 475.381 212.159 475.46C213.718 475.54 215.339 475.342 216.801 474.784C218.545 474.121 220.956 473.028 221.274 470.956C221.323 470.654 221.325 470.334 221.287 470.019C222.349 470.467 223.405 470.928 224.447 471.412C227.709 472.923 230.961 474.464 234.162 476.1C235.762 476.917 237.335 477.816 238.961 478.582C239.397 478.786 239.835 479.014 240.279 479.245C241.898 480.323 243.501 481.424 245.096 482.546C249.607 485.718 254.065 488.965 258.597 492.104C263.257 495.333 268.007 498.522 273.175 500.888C278.479 503.318 284.117 504.864 289.993 504.647C296.264 504.416 302.376 502.647 308.413 501.092C311.429 500.319 314.446 499.543 317.462 498.767C317.882 498.954 318.393 498.926 318.819 498.509C318.86 498.468 318.901 498.427 318.942 498.386C319.375 498.276 319.809 498.163 320.242 498.053C320.432 497.792 320.616 497.525 320.804 497.262C324.12 495.7 326.898 492.891 329.006 489.774C329.165 489.639 329.327 489.508 329.483 489.37C333.212 486.102 336.095 482.049 338.031 477.493C341.902 468.388 342.117 458.091 341.063 448.391Z" fill="black"/>
<path fill-rule="evenodd" clip-rule="evenodd" d="M225.73 103.005C224.085 98.4423 222.348 93.9151 220.52 89.4229C218.739 85.0509 217.131 80.5844 214.92 76.4196C201.715 51.5449 177.703 51.5449 165.29 54.7951C158.853 52.0257 146.796 52.8069 140.094 55.3059C129.243 59.3516 116.016 75.2666 111.493 82.417C101.508 98.2044 95.2768 119.217 101.909 137.46C102.776 139.845 103.882 142.053 105.127 144.181C104.343 145.242 103.44 146.247 102.44 147.235C99.4693 150.17 96.4983 153.009 93.9318 156.319C91.3813 159.609 89.2669 163.108 87.6929 166.965C84.7249 174.24 84.582 182.477 88.5058 189.418C91.9197 195.458 97.9672 199.955 104.781 200.384C105.13 200.433 105.481 200.478 105.833 200.513C106.735 201.998 107.836 203.365 109.092 204.557C112.942 208.213 122.117 210.088 127.35 210.208C127.618 210.424 127.889 210.639 128.16 210.852C131.362 213.368 134.722 215.907 138.399 217.698C140.889 218.912 144.154 219.926 146.751 219.05C147.93 219.836 149.863 219.671 151.032 219.027C152.953 217.971 154.515 216.068 155.465 214.12C157.77 209.39 157.216 204.214 156.624 199.161C155.972 193.579 155.345 187.995 154.708 182.414C154.209 178.049 153.687 173.612 152.358 169.408C151.671 167.23 150.771 165.136 149.608 163.168C149.638 163.003 149.633 162.838 149.585 162.682C149.204 161.445 148.416 160.797 147.484 159.956C147.363 159.848 147.243 159.738 147.125 159.625C146.659 159.094 146.16 158.601 145.625 158.183C145.42 157.975 145.217 157.765 145.014 157.554C143.326 155.789 141.731 153.933 140.314 151.945C138.94 150.017 137.699 148.004 136.518 145.953C135.317 143.867 134.522 141.566 133.323 139.495C133.22 139.318 132.96 139.283 132.814 139.43C132.443 139.813 132.205 140.239 132.25 140.687L132.064 140.715C131.994 140.039 131.37 139.488 130.522 139.636C129.253 139.856 128.21 139.939 127.112 139.518C127.305 138.238 127.483 136.956 127.659 135.672C127.98 133.308 128.278 130.937 128.534 128.565C129.153 128.713 129.767 128.926 130.369 129.196C131.227 129.58 132.037 130.095 132.729 130.729C133.411 131.355 133.882 132.199 134.715 132.634C135.673 133.133 136.829 132.309 136.548 131.227C135.979 129.041 132.757 127.789 130.763 127.376C130.078 127.233 129.379 127.173 128.679 127.188C128.837 125.666 128.978 124.143 129.093 122.618C129.148 121.897 129.198 121.176 129.246 120.452C130.796 119.984 132.456 119.844 134.068 120.064C134.6 120.488 135.131 120.906 135.645 121.329C137.278 122.676 138.903 124.031 140.507 125.41C140.653 125.533 140.796 125.656 140.941 125.781C141.894 126.6 143.083 125.789 142.922 124.629C141.613 115.129 147.441 107.572 154.264 101.718C161.817 95.2347 175.549 94.4798 184.531 83.2506C188.668 84.0913 197.904 86.5884 201.715 92.6531C207.051 101.152 206.354 108.766 206.761 118.407C207.167 128.055 208.2 138.118 206.006 147.631C203.982 156.402 198.503 163.897 190.002 167.342C189.792 167.428 189.578 167.51 189.365 167.59C184.97 169.245 180.173 169.714 175.549 168.842C170.431 167.876 166.158 165.537 161.9 162.66C161.654 162.497 161.295 162.833 161.481 163.078C167.093 170.505 178.116 172.986 186.86 171.026C187.269 170.933 187.675 170.833 188.079 170.723C186.123 176.339 186.517 182.504 189.064 187.973C190.597 191.263 192.934 194.11 195.78 196.356C198.917 198.83 202.809 200.828 204.985 204.301C206.979 207.484 206.387 211.06 202.974 212.898C202.114 213.363 201.783 214.868 202.636 215.529C202.962 215.78 203.287 216.035 203.621 216.286C205.532 217.725 210.78 220.43 211.63 220.53C219.178 221.424 224.253 215.89 227.506 209.362C231.325 201.7 230.332 192.362 226.124 185.066C222.749 179.211 216.101 173.442 218.744 166.033C219.687 163.386 221.615 161.13 223.489 159.092C225.625 156.771 227.922 154.597 229.971 152.193C232.007 149.807 233.812 147.21 234.82 144.215C236.292 139.838 235.56 135.106 234.454 130.736C232.085 121.356 229.008 112.102 225.73 103.005Z" fill="black"/>
<path fill-rule="evenodd" clip-rule="evenodd" d="M183.452 151.974C181.766 151.288 180.262 150.142 179.162 148.679C178.78 148.17 178.681 147.633 178.761 147.142C178.851 146.59 179.179 146.089 179.625 145.753C180.073 145.416 180.633 145.25 181.174 145.335C181.645 145.408 182.113 145.666 182.484 146.199L182.561 146.306C183.215 147.189 184.067 147.914 185.038 148.381C185.973 148.831 187.019 149.041 188.102 148.919C190.164 148.686 191.586 147.572 193.097 146.06C193.284 145.869 193.471 145.672 193.659 145.472C193.778 145.291 193.943 145.174 194.127 145.113C194.33 145.045 194.56 145.049 194.771 145.122C194.974 145.193 195.156 145.327 195.278 145.506C195.394 145.676 195.459 145.886 195.438 146.127C195.3 147.694 194.479 149.093 193.314 150.191C192.019 151.411 190.303 152.255 188.687 152.551C186.908 152.877 185.094 152.643 183.452 151.974ZM189.527 127.796C191.421 128.945 194.306 131.625 192.269 134.475C189.871 136.987 186.419 134.107 184.718 132.804C183.14 131.794 181.368 134.391 182.831 135.57C195.124 144.658 200.113 128.097 190.485 126.445C189.425 126.263 189.031 127.44 189.527 127.796ZM167.498 117.224C167.707 114.631 171.662 114.042 172.055 116.608C172.408 118.907 171.993 121.018 170.956 123.088C169.965 125.065 167.475 124.143 167.287 122.342C167.034 119.929 167.368 118.837 167.498 117.224ZM197.605 116.076C198.156 115.355 198.952 114.862 199.906 115.141C202.886 116.01 202.008 120.235 200.961 122.292C200.393 123.409 198.554 123.692 197.724 122.708C196.369 121.105 195.721 117.903 197.442 116.323C197.489 116.241 197.541 116.159 197.605 116.076ZM170.914 105.877L171.385 105.795C172.841 105.543 174.652 105.301 175.682 106.471C176.229 107.091 176.417 108.243 175.682 108.836C174.39 109.88 172.962 109.476 171.414 109.564C170.138 109.637 168.912 109.848 167.683 110.199C164.987 110.968 162.79 112.373 160.487 113.916C160.185 114.118 159.877 113.732 160.021 113.45C161.35 110.85 163.926 108.714 166.506 107.413C167.884 106.718 169.391 106.141 170.914 105.877ZM194.888 104.712L195.248 104.786C199.169 105.604 204.264 107.239 206.121 111.085C206.192 111.629 206.117 111.746 206.056 111.822L206.036 111.847C205.986 111.912 205.946 112.002 205.71 112.076C205.644 112.06 205.578 112.044 205.511 112.026C204.66 111.803 203.987 111.497 203.335 111.178L202.628 110.83C201.808 110.429 200.98 110.042 200.103 109.756C198.232 109.147 196.308 108.718 194.353 108.488C193.929 108.439 193.522 108.296 193.2 108.051C192.894 107.819 192.661 107.497 192.554 107.07C192.417 106.517 192.456 106.098 192.753 105.599C192.977 105.224 193.297 104.965 193.664 104.815C194.038 104.663 194.464 104.627 194.888 104.712Z" fill="black"/>
</svg>
