<svg width="463" height="661" viewBox="0 0 463 661" fill="none" xmlns="http://www.w3.org/2000/svg">
<path fill-rule="evenodd" clip-rule="evenodd" d="M140.765 154.357C140.146 154.56 140.215 153.236 141.08 153.369C141.797 153.481 142.062 154.443 142.193 155.053L142.213 155.151C143.412 160.755 142.031 166.675 139.215 171.593C138.509 172.744 137.776 174.322 136.376 174.63C137.04 179.37 137.951 184.071 139.079 188.721C143.103 190.13 146.892 192.217 150.908 193.662C158.638 196.406 166.909 197.14 175.043 197.722C180.638 198.027 186.394 197.781 191.709 195.866C193.957 195.253 195.863 193.248 198.221 193.254C196.639 188.939 194.887 184.688 192.943 180.515C186.897 180.513 182.33 174.656 180.534 169.45C179.88 167.376 179.69 165.202 179.275 163.077L179.121 162.283C178.985 161.576 178.862 160.864 178.808 160.147C178.79 159.881 179.185 157.543 179.093 157.21C179.083 157.307 178.956 157.23 178.898 157.225C178.739 157.029 178.877 156.634 179.193 156.649C179.703 156.634 179.957 157.743 180.073 158.045C182.525 163.071 183.459 169.247 187.837 173.021C190.023 171.643 192.714 173.447 194.936 173.999L195.579 174.203C205.965 177.47 210.772 178.262 219.114 186.561C233.364 197.661 237.563 211.828 243.172 228.148L243.503 229.035C248.896 243.403 253.249 252.316 263.98 264.086C267.874 262.272 292.068 242.952 300.374 231.601L300.621 231.259C303.013 228.006 308.459 216.619 312.917 217.701C313.317 207.689 319.986 199.403 324.689 190.97L331.365 179.765C332.009 178.684 332.624 177.194 333.538 176.315C335.089 174.822 337.667 176.195 338.596 177.708C341.15 182.005 337.935 190.218 337.462 195.239C348.908 188.619 360.051 181.377 371.881 175.447C372.876 174.968 374.118 175.335 374.434 176.484C376.433 184.738 365.531 191.647 360.268 196.585C368.879 193.13 376.957 188.212 385.291 184.094L385.847 183.821C386.978 183.234 388.509 184.481 387.709 185.68C382.992 192.755 376.896 198.888 369.783 203.512C377.719 202.168 385.526 200.196 393.233 197.786C394.488 197.395 395.383 199.057 394.493 199.947L394.073 200.371C389.86 204.594 385.21 208.358 379.724 210.825C382.287 210.702 384.849 210.582 387.414 210.467C388.686 210.411 389.109 211.967 388.386 212.81C385.536 216.121 381.702 218.269 377.609 219.681C360.483 224.28 346.104 223.886 334.551 240.032C337.442 240.552 337.02 243.773 336.107 245.792L336.051 245.914C331.926 254.89 327.043 263.5 321.874 271.913C310.801 288.337 301.707 308.077 284.18 318.611C295.497 318.227 306.819 318.005 318.144 317.912C321.281 317.886 324.418 317.871 327.556 317.867L329.909 317.866C333.019 317.866 337.126 317.213 339.808 319.144C344.963 323.284 340.942 330.916 335.233 332.006C331.637 332.971 327.75 332.826 324.061 333.107C324.764 334.464 324.937 336.135 325.027 337.588C337.991 338.395 345.559 348.552 349.093 360.163C356.181 382.398 361.611 405.129 367.488 427.706L368.154 430.324C373.825 452.579 379.788 474.769 386.903 496.613C389.325 504.178 392.089 511.639 394.318 519.262C394.517 519.941 394.37 520.56 394.03 521.054C393.609 524.03 391.706 529.027 388.502 529.816C389.816 532.396 390.998 535.191 392.002 537.878C406.458 534.037 418.597 545.379 430.749 551.219C436.868 554.418 445.789 553.522 449.231 560.581C454.779 559.195 461.538 562.279 462.101 568.476C462.591 574.856 457.156 576.7 451.824 577.082C442.235 578.384 432.59 579.236 422.918 579.553C428.381 597.947 419.327 624.724 400.656 632.287C376.097 642.636 347.567 621.452 346.939 595.698C326.312 597.649 305.683 600.081 285.011 601.342C285.867 604.282 281.964 605.502 279.723 604.64C285.187 629.423 269.054 660.889 242.196 660.788C207.587 660.555 193.598 612.468 211.725 586.736L211.552 586.29C208.668 578.847 203.244 563.531 212.407 559.121C210.473 556.17 210.958 552.458 211.022 549.122C202.533 549.506 198.146 555.601 194.992 562.796C192.085 569.239 189.315 575.743 186.448 582.206C183.749 589.212 181.085 592.746 173.142 593.212L172.329 593.272C163.466 593.914 151.684 594.443 143.686 590.886C124.704 625.565 84.8773 646.135 50.4058 621.275C-20.3571 572.497 -17.75 389.696 75.6851 368.045C75.723 364.56 75.7728 361.077 75.8338 357.592C75.6338 355.372 75.6774 353.157 75.8777 350.906L75.9209 349.986C76.1772 344.305 76.237 338.564 75.5355 332.918C64.1973 331.999 57.3298 317.51 56.1861 315.317C47.4455 298.561 55.5303 267.555 59.1677 251.356C55.6392 251.636 52.414 251.206 48.9647 251.246L47.7683 251.267C41.3577 251.366 37.0521 251.098 36.8898 243.113C36.8978 239.87 35.4541 233.859 39.7239 232.852C41.6527 232.466 43.9302 233.149 45.8615 233.339C51.9586 233.832 58.0636 234.206 64.1793 234.168C69.4852 218.981 73.6386 202.729 83.7437 189.871C92.3273 178.993 106.057 174.709 118.399 169.568C121.749 168.273 124.578 166.029 127.464 163.86L127.663 163.705C129.096 162.606 130.654 161.678 132.515 161.628C134.325 161.579 136.008 162.399 137.778 162.518C138.09 162.286 138.497 162.14 138.849 162.239C139.792 159.633 140.49 156.926 140.834 154.181L140.804 154.055C140.751 153.845 140.731 153.898 140.746 154.217C140.829 154.217 140.841 154.332 140.765 154.357ZM242.195 573.981C238.296 573.981 234.554 574.808 231.074 576.319C230.265 580.803 233.958 587.092 235.199 591.608C235.249 593.474 235.588 595.375 236.025 597.22C236.335 602.604 238.616 607.541 239.674 612.637C239.87 613.605 241.354 613.196 241.158 612.229C240.23 607.659 238.991 603.163 237.924 598.626C238.425 598.927 239.274 598.52 239.089 597.774C238.694 596.169 238.694 594.546 238.758 592.918C265.155 596.249 263.611 640.081 236.681 640.686C219.205 641.123 209.466 617.19 219.345 602.86C217.723 599.378 215.966 595.957 214.305 592.466C200.154 616.111 214.974 656.405 242.195 655.666C286.091 654.428 286.11 575.231 242.195 573.981ZM400.679 579.133C405.889 588.837 405.333 601.874 398.725 610.818C391.25 620.985 374.937 619.795 367.614 610.038C364.719 606.56 362.489 602.3 362.358 597.701C362.348 596.687 363.005 594.892 362.12 594.095L356.46 594.7C353.63 595.002 350.8 595.3 347.97 595.591C356.171 617.483 376.326 637.308 400.934 626.345C416.184 617.941 421.834 597.87 419.61 581.492C419.484 580.708 419.769 580.065 420.23 579.633C413.713 579.783 407.169 579.815 400.679 579.133ZM133.345 412.987C89.8494 344.269 32.5535 388.76 17.887 451.83C6.87267 495.256 10.7817 548.272 33.779 586.712C60.7859 632.49 106.365 632.436 133.344 586.713C153.764 552.588 159.134 506.96 152.372 466.765C152.375 467.125 152.249 467.486 151.988 467.775C159.936 516.026 150.993 575.729 112.688 605.046C84.4109 625.892 51.347 608.848 35.4731 580.291C4.74989 528.513 7.11617 433.572 57.5135 394.653C71.8998 384.41 88.7957 382.465 104.378 389.787C104.537 388.82 105.137 389.887 105.37 390.269C132.179 404.487 145.43 435.025 151.557 465.422C151.927 465.627 152.174 465.941 152.292 466.289C151.453 461.377 150.432 456.547 149.236 451.83C145.489 437.244 140.141 424.177 133.345 412.987ZM231.888 615.234C229.569 613.755 230.673 618.191 231.478 619.016C232.058 619.831 233.206 619.142 232.807 618.24C232.312 617.518 233.192 615.319 231.888 615.234ZM77.7267 391.222C12.6579 409.481 8.39781 529.485 39.8756 577.66C54.3665 603.607 83.8058 619.946 109.728 600.866C113.975 597.867 117.989 594.141 121.741 589.729C105.076 589.593 88.4425 587.363 71.8123 586.108L71.4351 586.075C68.9167 585.856 66.3333 585.737 64.013 584.651C56.9788 581.209 58.8957 572.374 65.2874 569.29C68.7887 562.398 84.2488 563.935 91.1637 563.569C89.6115 543.756 90.4187 523.826 90.1942 503.968C85.2493 505.043 80.3198 506.17 75.3979 507.361C74.8131 507.504 74.2207 507.419 73.7205 507.171C72.5197 509.065 70.1639 509.278 68.2754 508.321C64.4565 506.392 64.0204 501.376 64.7411 497.671L64.8166 497.35C65.4461 494.731 66.705 490.829 69.7759 490.627C71.7125 489.422 73.8193 490.845 74.5259 492.736C77.7683 492.196 80.7078 493.049 83.8694 492.414C85.9646 491.991 88.078 490.92 90.2327 491.658C90.3074 478.057 90.3545 464.453 90.4995 450.852C86.4355 452.212 81.4762 449.4 80.2967 445.341C79.499 442.64 80.2043 439.541 80.5788 436.829L80.6494 436.322C80.8901 434.621 81.1906 432.844 81.7689 431.196C72.6174 429.934 74.4897 410.779 75.1848 404.012C76.0368 399.574 76.5682 395.718 77.7267 391.222ZM228.84 468.449C224.776 468.411 221.872 472.806 224.218 476.305C228.939 481.63 235.764 476.83 243.08 491.185C255.22 519.912 260.821 550.986 268.376 581.133C272.175 585.079 274.484 590.095 277.273 594.782C278.303 596.544 278.617 599.031 280.487 600.146C280.849 600.315 281.139 600.343 281.423 600.3C277.544 598.152 278.357 587.544 279.156 583.686L279.121 583.688C278.769 583.711 277.48 583.993 278.071 583.384L278.699 583.182L279.328 582.982L279.371 582.826C268.456 557.513 266.083 529.253 258.261 502.892L257.563 500.553C254.86 491.543 251.74 482.12 244.901 475.431C244.64 475.415 244.374 475.319 244.129 475.114L243.883 474.899C239.847 471.411 234.886 468.595 229.363 469.104C229.142 469.12 229.106 468.782 229.312 468.728C229.441 468.693 229.571 468.668 229.701 468.638C229.413 468.581 229.126 468.517 228.84 468.449ZM209.427 539.986C208.262 540.449 207.077 540.124 205.762 540.155C204.384 540.188 203.046 540.416 201.723 540.793C179.982 547.075 183.187 579.711 167.356 583.497C163.4 584.265 159.416 583.673 155.448 583.141C152.916 583.231 150.59 583.154 148.166 582.631C147.028 584.915 145.835 587.143 144.594 589.32C147.479 588.869 150.417 588.986 153.332 588.935C160.188 589.043 167.043 588.763 173.85 587.909C176.274 587.635 178.511 586.961 179.945 584.861C183.182 579.397 185.397 573.323 188.308 567.675L188.691 566.812C192.858 557.451 198.37 546.218 210.094 546.19C210.16 545.514 210.689 544.971 211.289 544.805C211.355 543.832 211.422 542.859 211.494 541.883C210.817 541.234 210.317 540.397 209.427 539.986ZM64.7232 571.843C63.4541 573.974 63.5854 577.713 65.8594 579.189C67.4008 580.065 69.5989 579.968 71.307 580.091L74.2492 580.307C75.2298 580.379 76.2103 580.452 77.1904 580.529L78.6603 580.647C92.6844 581.764 106.694 582.983 120.7 584.255L120.764 584.231C120.958 584.161 121.264 584.063 121.264 584.063L121.482 583.962C121.793 583.813 121.416 583.949 121.379 583.967L121.377 583.968C122.939 582.964 124.622 584.114 124.991 585.637C126.391 583.763 127.748 581.789 129.061 579.71C127.216 580.249 125.255 580.329 123.347 580.209C122.035 581.698 119.678 581.151 117.925 581.118C105.535 580.129 93.1784 578.701 80.8276 577.318C77.6908 576.951 74.5515 576.583 71.4148 576.214L70.7067 576.15C67.9333 575.888 64.5977 575.356 64.7232 571.843ZM334.433 547.588C333.132 549.002 330.642 549.386 328.982 550.211C327.067 551.166 325.238 552.323 323.596 553.698C316.162 560.576 308.595 571.517 296.956 566.683C294.51 565.738 292.231 564.233 290.702 562.076C290.022 562.411 289.234 561.769 288.545 561.682C289.141 564.891 289.392 567.939 290.297 571.072C290.69 572.445 291.134 573.805 291.68 575.123C292.242 576.473 293.257 577.839 293.219 579.351C302.037 577.47 310.951 576.26 319.89 575.167C323.246 575.044 328.915 573.244 331.693 574.955C334.985 577.001 333.509 580.788 335.264 582.194C337.943 583.501 341.405 582.515 344.305 582.436C356.938 581.364 369.689 580.654 382.302 579.597C389.877 578.209 384.921 575.888 388.183 574.03C388.171 562.397 374.17 563.624 365.957 562.596C363.48 563.583 360.976 564.495 358.442 565.325C357.192 565.735 356.329 564.064 357.194 563.185L358.955 561.399C357.754 561.128 356.56 560.824 355.38 560.474C353.718 561.227 351.971 561.788 350.344 562.621L350.04 562.78C348.93 563.378 347.621 562.16 348.285 561.028C348.8 560.151 349.208 559.253 349.525 558.316C347.971 557.614 346.462 556.812 345.026 555.897L344.74 555.713L340.076 558.314C339.164 558.823 337.79 557.964 338.193 556.869C338.67 555.357 340.083 554.716 341.158 553.703C341.037 553.444 340.966 553.1 341.024 552.837C338.925 551.003 337.094 548.662 334.433 547.588ZM396.578 582.644L396.429 582.667C396.439 582.685 396.447 582.7 396.457 582.715L396.521 582.708L396.46 582.718C396.501 582.779 396.557 582.826 396.629 582.843C396.615 582.799 396.602 582.755 396.591 582.711L396.578 582.644ZM226.39 434.343L226.766 437.844C227.761 447.173 228.708 456.458 229.45 465.798C229.548 465.89 229.629 465.997 229.696 466.112L231.903 466.51C235.755 467.212 238.946 467.94 242.439 470.582C254.076 476.798 257.975 490.488 261.544 502.232C269.367 527.983 272.059 555.178 282.634 580.081C282.944 580.8 282.926 581.443 282.711 581.963C284.542 581.435 286.384 580.946 288.235 580.493C285.747 575.708 284.673 568.543 285.366 563.193L285.095 563.185C284.231 563.163 283.188 563.16 282.497 562.627C281.135 563.009 279.981 561.712 279.852 560.481L279.846 560.423C276.078 518.235 273.342 475.618 263.136 434.376C261.809 435.722 259.411 435.413 257.627 435.491L257.532 435.495C255.924 435.572 254.313 435.633 252.703 435.685L252.004 435.694C243.496 435.816 234.732 436.43 226.39 434.343ZM163.801 468.185C169.679 505.103 164.48 549.42 149.182 580.547C152.881 580.471 156.48 579.479 160.172 579.492C166.742 579.599 169.947 578.259 172.589 572.01C178.934 557.561 185.273 539.006 203.169 536.262L204.006 536.183C206.506 535.948 210.708 535.693 210.709 538.652C211.033 538.615 211.403 538.649 211.735 538.739C211.789 538.047 211.843 537.356 211.899 536.667L211.946 535.305C212.102 531.002 212.563 525.047 217.932 525.096C218.003 524.622 218.16 524.151 218.35 523.685C212.945 521.021 213.134 507.34 212.528 501.829C212.033 493.989 212.072 486.12 212.251 478.269C212.271 477.49 212.42 476.453 212.117 475.818C209.33 473.995 208.719 471.617 208.626 468.362C193.704 468.738 178.735 468.337 163.801 468.185ZM228.678 482.192C229.982 485.13 230.071 488.521 230.448 491.687C230.761 495.453 230.981 499.22 231.202 502.992L231.25 503.856C231.326 505.172 231.435 506.451 231.915 507.711L232.026 508.005C232.591 509.517 233.023 510.923 232.866 512.592C232.502 516.494 231.887 520.443 231.174 524.294C230.177 527.559 226.463 525.478 224.351 524.717L224.374 524.934C224.515 526.344 224.51 527.754 223.723 528.842C229.555 528.654 229.971 532.843 229.309 537.52L229.27 538.136C228.864 544.724 228.729 551.629 230.525 558C233.556 559.306 235.756 561.76 237.865 564.192C239.107 565.634 240.658 567.165 241.636 568.868C249.863 568.721 257.707 571.642 264.27 577.154L263.495 573.867C258.419 552.319 253.449 530.716 246.653 509.629C243.213 499.653 240.53 485.092 228.678 482.192ZM102.277 465.309C102.295 474.689 102.362 484.066 102.421 493.446C105.239 493.843 107.961 494.657 110.584 495.83C112.249 496.572 111.485 498.826 110.125 499.34C107.648 500.277 105.057 500.818 102.469 501.358C102.203 521.745 103.556 542.232 101.533 562.545C107.615 563.455 108.057 570.303 106.907 575.113C113.64 575.706 120.428 577.405 127.181 576.217C129.171 576.108 130.438 573.867 132.26 574.286C148.167 546.412 153.357 502.984 146.92 468.556C132.01 468.316 117.045 467.398 102.277 465.309ZM98.199 502.257C96.7884 502.554 95.3803 502.854 93.9696 503.153C93.7609 523.301 94.6106 543.537 93.0181 563.636C93.6142 563.605 93.4903 563.999 92.9822 564.033C92.9514 564.376 92.9181 564.719 92.8847 565.062C92.7898 566.082 91.3946 566.079 91.2997 565.062C91.2792 564.855 91.2612 564.65 91.2433 564.443C88.5553 565.032 85.8264 565.449 83.1177 565.902C79.1271 566.886 69.5366 566.246 68.8192 571.433L71.9224 571.703C82.393 572.617 91.5921 573.477 101.974 574.573C102.492 571.387 104.961 566.682 101.069 564.66C100.507 565.193 99.425 564.955 99.3324 563.943C97.1864 543.466 98.4973 522.813 98.199 502.257ZM406.735 543.755C394.333 538.802 387.884 544.576 377.947 550.917C372.815 553.816 365.814 555.075 360.647 551.706C358.275 551.844 357.166 549.24 357.362 547.163C357.359 547.02 357.357 546.879 357.357 546.738C354.468 548.476 356.257 553.299 355.641 556.146C361.537 557.995 367.674 558.447 373.797 558.889C381.732 559.065 391.301 562.961 392.233 571.814L392.259 572.084L392.867 572.066C392.867 571.171 393.432 570.248 394.556 570.158L394.629 570.154C411.022 569.122 427.587 569.176 443.898 567.513C445.858 566.957 446.558 565.667 446.032 563.751C444.768 559.14 438.294 558.914 434.48 557.841C429.886 556.549 425.761 554.284 421.717 551.855C419.992 552.337 418.249 552.743 416.491 553.084C415.638 553.249 414.522 552.497 414.914 551.509L415.199 550.788C415.486 550.069 415.838 549.252 416.286 548.558C414.968 547.772 413.641 547.008 412.29 546.292C410 547.101 407.831 548.161 405.771 549.472C404.527 550.265 403.255 548.519 404.184 547.496L404.217 547.461C405.292 546.359 406.126 545.12 406.735 543.755ZM324.373 545.271C313.319 550.666 301.592 554.69 290.284 559.567L290.512 559.652C290.908 559.802 291.36 560.003 291.506 560.361C295.758 563.725 301.739 565.096 306.787 562.707C314.069 558.806 317.682 550.403 325.13 546.607C324.825 546.185 324.568 545.734 324.373 545.271ZM219.281 530.381C218.916 530.319 217.842 529.848 217.555 529.973C216.822 531.801 216.799 533.963 216.598 535.914C215.916 543.524 214.514 551.05 213.738 558.635C217.579 557.581 221.528 556.954 225.48 556.868C225.158 554.516 224.898 552.178 224.762 549.811C224.508 545.206 224.694 540.564 225.385 536.001L225.432 535.754C226.181 531.786 225.586 531.608 221.84 530.209C221.035 530.483 220.137 530.529 219.281 530.381ZM303.668 350.87C297.267 344.764 287.724 345.506 279.51 345.473C261.997 345.469 244.523 347.06 227.252 349.882C226.763 350.741 225.39 350.935 224.726 350.297C219.971 351.091 215.231 351.961 210.501 352.891C211.809 361.152 212.854 369.458 214.02 377.74L214.095 378.25C214.61 381.844 214.862 385.867 212.415 388.832C212.345 398.008 211.995 407.217 211.961 416.406C213.308 415.125 215.482 415.271 217.216 414.954C220.767 414.139 224.147 413.551 227.747 413.351C231.371 412.798 234.995 412.245 238.622 411.694C239.181 411.607 239.63 411.848 239.909 412.209C244.549 411.663 249.17 410.731 253.828 410.429L253.552 409.603C252.175 405.447 250.917 400.938 252.896 396.808C253.366 395.84 254.901 395.897 255.387 396.808C257.094 400.004 257.167 403.648 257.823 407.142C258.199 409.146 258.978 411.276 259.34 413.389C261.264 416.568 262.225 420.295 263.478 423.778C277.164 466.912 278.811 512.582 283.965 557.237C291.96 553.924 300.054 550.82 308.077 547.581C313.841 544.766 326.92 542.561 326.276 534.434C326.306 533.767 326.267 533.107 326.19 532.449C326.347 532.188 326.567 531.971 326.825 531.805C324.178 521.406 323.057 510.669 322.381 499.983C320.621 470.61 319.752 441.183 318.855 411.773L318.812 410.528C318.135 390.129 317.916 366.933 303.668 350.87ZM325.17 468.72C326.218 488.318 325.754 508.192 330.444 527.38L330.588 527.961C331.041 529.802 332.246 532.395 331.481 534.32C331.453 536.673 332.284 540.341 330.258 542.003C329.393 542.634 328.278 543.025 327.234 543.423C327.741 544.013 328.45 544.419 329.149 544.659L329.266 544.603C331.208 543.694 334.62 543.077 335.107 545.786C338.78 546.075 342.332 549.586 345.295 551.463C346.81 552.423 348.38 553.268 349.993 554.008C350.506 550.116 352.786 545.182 357.354 545.307C357.354 542.952 356.953 540.629 356.6 538.307C354.476 538.646 352.355 538.787 350.208 538.696C348.782 539.722 347.371 538.592 347.185 537.052C340.603 514.185 333.246 491.224 325.17 468.72ZM384.88 528.266C376.112 531.013 366.488 531.073 358.07 534.859C360.596 538.478 361.569 542.851 362.186 547.148C362.763 547.598 363.151 548.311 363.182 549.081C363.197 549.352 363.172 549.624 363.092 549.88C372.458 551.838 379.328 543.909 386.862 539.901C385.835 536.153 385.342 532.141 384.88 528.266ZM362.212 547.496L362.215 547.55C362.202 547.985 362.543 547.847 362.212 547.496ZM356.146 535.671C356.003 535.734 355.861 535.803 355.718 535.867C355.866 535.845 356.014 535.824 356.162 535.8C356.157 535.757 356.151 535.714 356.146 535.671ZM334.363 345.816C324.141 338.912 303.752 342.137 291.639 342.95C315.571 344.761 319.531 377.585 321.432 396.476C322.96 416.769 323.528 437.134 324.646 457.455C334.176 482.874 341.91 508.945 350.06 534.831C356.68 531.126 363.918 528.77 371.412 527.548L372.493 527.392C378.77 526.474 385.152 525.328 390.322 521.416C371.809 476.271 364.06 427.536 349.984 380.95C345.85 369.293 344.485 353.998 334.363 345.816ZM389.058 526.406C388.706 526.615 388.344 526.81 387.975 526.994C388.17 526.95 388.377 526.943 388.585 526.973C388.745 526.79 388.917 526.581 389.058 526.406ZM220.963 428.904C219.273 426.078 215.538 423.517 212.225 424.744C217.216 427.787 216.131 436.583 216.498 441.728L216.49 442.018C216.368 446.872 216.781 457.118 214.107 460.579C214.294 462.812 214.298 465.124 214.526 467.371C214.595 468.193 214.433 469.729 214.918 470.456C220.269 473.45 217.674 480.631 217.993 485.615C217.751 495.157 218.419 504.681 218.696 514.213C218.678 516.677 218.439 519.305 219.26 521.664C220.312 519.421 223.307 519.572 223.959 521.843C224.484 521.155 225.539 521.101 226.442 521.224C226.76 518.2 227.25 515.178 227.355 512.151C227.406 510.646 226.519 509.406 226.193 507.967C225.537 502.507 226.283 496.927 226.349 491.435L226.365 491.272C226.576 489.001 226.74 483.38 228.024 482.002C219.714 480.511 217.084 470.062 225.195 466.203C225.084 465.693 225.191 465.155 225.541 464.769C224.851 456.502 223.958 448.246 223.174 439.984C222.838 436.263 222.851 432.243 220.963 428.904ZM70.2516 499.34C70.8795 498.491 69.5245 497.574 68.9728 498.475C68.4034 499.437 68.0723 500.614 68.3044 501.722C68.4329 502.336 69.4399 502.507 69.7107 501.905C69.9436 501.411 70.0259 500.881 70.1416 500.352C70.4522 500.112 70.4558 499.659 70.2516 499.34ZM74.9824 494.35C75.008 494.496 75.0311 494.644 75.0517 494.793C75.2825 494.708 75.521 494.639 75.7672 494.578C75.5056 494.506 75.244 494.429 74.9824 494.35ZM95.1366 433.503C94.5057 433.897 93.7593 434.146 92.9771 434.261C94.4044 453.789 93.5957 473.455 93.9389 493.031C95.3457 493.354 96.813 493.084 98.24 493.195C98.5891 476.109 97.9361 459.036 99.0326 441.963C98.0751 439.52 97.4634 436.554 98.1734 433.951C97.1474 433.851 96.1318 433.705 95.1366 433.503ZM203.035 460.585C190.382 461.08 177.642 460.861 164.971 460.705C164.171 460.682 163.347 460.677 162.514 460.672C162.84 462.38 163.145 464.1 163.427 465.829C178.426 465.656 193.457 465.303 208.447 465.626L208.383 464.926C208.32 464.22 208.264 463.498 208.244 462.779C206.382 462.638 204.561 461.841 203.035 460.585ZM135.632 432.028C134.711 433.215 132.694 432.453 131.357 432.566C131.016 433.112 130.431 433.513 129.605 433.557C123.247 433.895 116.876 433.961 110.507 434.054C108.65 436.205 105.348 434.964 102.957 435.836C102.664 437.323 102.648 438.867 102.31 440.361C102.167 440.97 101.954 441.546 101.715 442.112C102.233 447.763 102.272 453.492 102.272 459.158C105.419 458.241 108.823 458.397 112.075 458.188C119.125 458.008 126.177 458.079 133.229 458.065C136.345 458.009 139.867 458.197 142.906 458.157C143.684 457.876 144.785 458.323 144.945 459.22C145.528 461.507 142.935 461.678 141.385 461.563C139.515 461.522 137.646 461.481 135.779 461.442C128.13 461.253 120.48 461.113 112.839 460.769C109.334 460.481 105.653 460.574 102.272 459.525L102.274 463.792C102.274 464.218 102.275 464.609 102.277 464.935C116.931 464.878 131.593 465.102 146.251 464.969C144.003 453.568 140.325 441.939 135.632 432.028ZM324.889 462.597C324.829 463.347 325.096 463.977 325.448 464.623C325.26 463.948 325.072 463.274 324.889 462.597ZM154.979 433.012C157.79 440.75 160.09 448.918 161.862 457.402C174.479 457.128 187.073 457.263 199.688 457.284C195.04 451.83 190.107 453.328 187.792 449.861C186.115 447.173 187.516 438.367 187.954 435.014C178.132 434.598 168.265 434.549 158.487 433.436C157.379 433.291 156.174 433.191 154.979 433.012ZM85.5237 430.064C85.2903 430.259 85.0364 430.433 84.7671 430.582C85.4419 432.351 84.7505 434.134 85.3465 435.937C85.3716 438.066 85.2634 440.209 85.3699 442.233C85.3614 444.16 86.5602 445.368 88.2886 445.492C88.9144 445.528 89.7428 445.382 90.5969 445.636C90.7667 441.865 90.6192 438.033 91.2381 434.305C90.8424 434.27 90.4533 434.203 90.0806 434.107C90.0237 432.332 88.2873 430.622 86.5053 431.529C86.1493 431.055 85.8248 430.557 85.5237 430.064ZM200.383 428.724C199.846 428.788 199.325 428.907 198.824 429.112C198.942 433.926 205.902 430.545 206.854 436.452C207.012 437.844 206.84 439.243 206.794 440.638C206.771 441.351 206.21 442.471 206.988 442.888C207.389 443.469 208.486 443.355 208.389 442.52C208.371 442.366 208.358 442.21 208.348 442.052C208.691 441.446 208.899 440.81 209.011 440.153C209.424 439.94 209.3 439.392 209.117 439.007C209.01 438.17 209.359 436.696 208.443 436.251C208.349 430.696 206.284 429.814 201.119 429.362C200.768 429.326 200.546 429.499 200.446 429.739C200.31 429.442 200.313 429.086 200.383 428.724ZM195.805 355.626C192.109 356.801 187.981 357.046 184.143 357.779C159.355 361.245 135.538 371.456 110.261 371.182C109.397 371.141 108.586 371.013 107.827 370.805C107.83 371.2 107.884 371.604 107.968 371.996C108.443 372.401 108.738 373.038 108.83 373.684C127.803 383.289 142.126 402.811 151.108 423.36C162.238 421.847 173.358 420.131 184.512 418.741L186.536 418.479L190.586 417.96C192.558 417.711 194.755 417.086 196.716 417.504C197.61 408.569 197.612 399.856 198.285 390.865C196.315 389.291 196.78 385.929 196.7 383.606C196.251 374.284 196.212 364.946 195.805 355.626ZM208.596 391.367C207.924 391.544 207.231 391.608 206.582 391.513C204.85 392.358 202.286 391.921 200.368 391.723C200.591 393.798 200.783 395.877 200.865 397.961C201.189 406.089 201.06 414.385 200.329 422.508C202.957 422.692 205.585 423.014 208.208 423.227C208.233 412.627 208.728 401.981 208.596 391.367ZM108.466 397.971C110.556 406.672 120.029 419.984 129.551 420.779C123.755 411.412 117.091 404.03 109.728 398.834C109.307 398.537 108.889 398.253 108.466 397.971ZM193.512 332.285C193.209 332.293 192.907 332.296 192.604 332.29C194.426 334.935 194.102 339.055 191.899 341.383C199.588 346.142 199.346 356.786 199.604 364.772C199.91 372.501 200.321 380.212 200.645 387.931C200.645 387.79 201.106 387.987 201.271 388.016C202.311 388.151 203.365 388.197 204.415 388.151C206.002 387.52 208.094 387.507 209.188 385.977C210.486 384.241 210.188 381.645 209.965 379.635C209.424 374.769 208.693 369.922 208.078 365.066C206.383 354.693 206.596 334.514 193.512 332.285ZM190.647 342.5C184.472 346.37 176.349 344.863 169.375 345.291C164.278 345.365 159.18 345.388 154.081 345.37C136.908 345.273 119.746 344.589 102.587 343.883L102.625 344.595C102.941 350.29 103.525 355.992 105.186 361.464C106.129 365.213 107.538 366.602 111.487 366.27C132.589 365.958 152.609 358.442 173.176 354.665C180.528 353.442 188.001 352.398 195.382 351.531L195.301 351.072C194.709 347.795 193.754 344.092 190.647 342.5ZM195.136 177.117C195.428 177.666 195.597 178.16 195.466 178.671C220.182 231.532 213.655 291.658 226.703 347.408C226.959 347.559 227.105 347.798 227.239 348.049C231.458 347.204 235.708 346.471 239.974 345.836C239.485 344.58 240.237 343.442 241.097 342.625C241.11 342.5 241.282 342.105 241.292 342.105C239.684 322.332 237.343 302.561 235.328 282.808C234.07 269.042 231.776 255.149 232.397 241.312C232.42 241.151 232.63 241.2 232.677 241.312C236.004 253.27 237.928 271.419 241.253 295.555C265.26 323.684 279.404 328.605 302.491 296.006L303.676 294.264C314.467 278.388 324.994 262.206 333.184 244.818C322.94 244.489 317.41 233.735 313.032 225.846C312.292 225.447 311.798 224.842 311.393 224.031C307.925 228.351 305.179 233.68 301.667 238.068C292.949 249.515 272.921 263.71 272.482 264.165L272.398 264.24C271.082 265.444 267.116 269.991 265.891 269.869C260.549 274.815 248.673 251.776 247.245 247.435C243.762 238.98 240.953 236.381 237.932 227.757L237.411 226.203C233.249 213.742 229.066 200.615 218.65 191.905L218.241 191.471C211.574 184.421 205.091 178.921 195.136 177.117ZM322.511 333.202C319.552 333.384 316.589 333.56 313.63 333.737L310.891 333.899C289.285 335.192 267.634 336.789 245.985 335.847C246.189 338.889 247.253 342.04 246.08 344.996C261.016 343.251 276.051 342.177 291.052 342.899C299.966 338.691 310.785 337.371 320.808 337.317C320.977 335.918 321.558 334.337 322.511 333.202ZM170.573 309.309C156.034 302.822 141.815 309.425 136.699 325.113C137.058 325.408 137.304 325.926 137.366 326.45C138.713 328.245 141.181 328.19 143.203 328.444C147.271 328.982 151.216 330.293 154.812 332.278C156.797 333.361 158.503 334.928 160.553 335.874L161.656 336.909C163.496 338.63 165.383 340.286 167.823 341.195C170.349 341.327 167.086 336.408 166.554 335.452L166.357 335.134C165.293 333.447 163.925 331.525 165.381 329.608C168.035 330.88 170.173 332.713 172.307 334.759L172.693 335.133C174.77 337.163 177.158 339.711 180.141 340.043C180.644 340.099 181.01 339.507 180.883 339.07C179.544 334.635 175.63 331.535 171.987 328.872C172.019 327.608 172.898 326.641 174.048 326.366C179.161 329.309 182.731 333.969 187.73 336.988C188.269 337.307 188.835 336.885 188.888 336.324C188.857 332.399 184.853 329.391 182.094 327.066C181.52 326.623 180.932 326.194 180.334 325.779C180.47 324.993 181.19 324.304 182.089 324.177C183.729 324.643 193.561 332.272 193.588 328.745L193.57 328.649C193.308 327.409 191.882 324.718 190.506 325.05C185.41 318.761 178.093 312.222 170.573 309.309ZM132.347 165.13C127.209 168.078 122.281 171.269 117.137 174.187C110.582 177.941 103.539 180.855 97.2386 185.057C78.0547 199.185 72.4942 228.964 65.5174 250.682L64.5298 254.898C60.531 272 54.527 299.242 61.7713 313.18L61.8223 313.29C62.7269 315.208 67.0289 322.983 69.2448 324.365C75.7389 328.414 89.3201 329.789 101.123 328.997C112.36 328.476 123.423 326.327 134.391 324.068C134.642 320.293 136.49 317.139 138.434 314.064L138.636 313.746L138.861 313.413C141.612 309.375 144.715 306.102 149.259 304.32C134.077 299.778 109.081 305.624 92.1567 293.735C90.8051 292.785 91.9846 290.774 93.4512 291.523C94.3335 291.974 95.2296 292.387 96.1368 292.77C95.3372 289.891 97.4203 288.177 98.6646 285.676L98.7139 285.576C109.401 264.026 117.81 239.803 125.266 217.847C123.096 233.207 119.596 248.42 114.632 263.114C119.181 266.604 122.978 271.003 127.079 274.993C131.472 279.65 136.801 283.609 140.154 289.141C140.885 290.429 139.446 291.73 138.197 291.094C135.253 289.599 132.808 287.228 130.549 284.87L129.631 283.87C124.023 277.751 118.493 271.452 114.214 264.32C111.359 272.583 107.837 279.435 104.07 287.227L103.588 288.227C102.754 289.95 101.977 291.873 100.605 293.145C101.513 294.963 103.836 295.385 105.627 295.916C120.181 299.997 135.634 296.587 150.248 300.303L151.212 300.552C152.174 300.802 153.148 301.105 153.721 301.984C166.467 302.449 178.879 307.666 188.813 315.708L189.07 315.911C193.255 319.26 197.544 323.679 198.295 329.22C198.437 330.265 198.049 331.742 196.8 331.978C199.219 332.278 201.401 333.522 203.194 335.243C186.099 275.974 136.017 228.782 132.347 165.13ZM186.473 333.621C186.71 333.979 186.925 334.354 187.082 334.744C187.005 334.691 186.931 334.633 186.854 334.579C186.875 334.385 186.731 334.169 186.593 334.013L186.594 334.011C186.528 333.933 186.466 333.85 186.402 333.77C186.431 333.723 186.454 333.672 186.473 333.621ZM242.292 304.343C242.955 309.977 243.616 315.609 244.272 321.244C248.947 320.627 253.655 320.256 258.362 319.909L258.101 319.747C255.721 318.261 253.527 316.523 251.468 314.621C249.206 312.532 247.05 310.273 245.064 307.919C244.09 306.765 243.168 305.571 242.292 304.343ZM130.892 243.987C131.617 250.442 135.643 255.914 139.383 260.995C140.363 262.325 138.136 263.601 137.169 262.287L136.779 261.757C132.848 256.39 129.087 250.756 128.327 243.987C128.143 242.35 130.71 242.368 130.892 243.987ZM371.535 179.844C359.94 187.117 347.808 193.493 335.948 200.321C334.497 201.144 333.027 199.791 333.299 198.288C333.904 194.953 334.505 191.618 335.095 188.282L335.551 185.696C335.722 184.763 336.431 181.395 335.754 180.131C332.814 185.103 329.775 190.021 326.721 194.926L323.389 200.275C319.821 206.006 315.828 211.821 314.409 218.495C315.275 219.316 315.721 220.507 315.828 221.677C316.824 222.076 317.506 223.186 317.233 224.358C321.504 229.461 324.42 236.794 331.252 238.939C339.001 227.793 351.737 221.271 365.054 219.649L367.417 219.236C373.191 218.217 379.208 216.972 383.808 213.383C379.242 213.603 374.677 213.814 370.109 214.011C368.58 214.077 368.257 211.67 369.748 211.35C376.383 209.924 383.123 206.89 388.427 202.403C379.576 205.522 370.289 207.373 360.927 208.101C359.001 208.123 358.666 205.343 360.481 204.8C368.731 201.405 376.128 196.004 381.801 189.148L381.982 188.929L370.094 195.19C365.136 197.802 359.832 201.028 354.043 201.021C352.361 201.018 351.986 198.916 353.235 198.043L354.864 196.833C360.353 192.746 370.75 184.781 371.535 179.844Z" fill="black"/>
<path fill-rule="evenodd" clip-rule="evenodd" d="M182.117 174.028C174.89 174.769 166.305 173.062 161.487 167.2C161.343 167.025 161.28 166.826 161.276 166.634C161.272 166.421 161.344 166.215 161.468 166.054C161.598 165.886 161.783 165.768 161.996 165.73C162.175 165.698 162.379 165.719 162.589 165.837L163.032 166.083C166.322 167.898 169.739 169.445 173.468 170.108C177.308 170.789 181.217 170.713 185.022 169.847C191.953 168.27 197.563 164.247 201.692 158.943C206.299 153.024 209.066 145.51 209.771 137.995C210.626 128.889 208.643 119.837 206.592 111.02C204.437 101.755 202.081 92.537 199.345 83.4262C199.262 83.152 199.24 82.8952 199.264 82.6588C198.457 82.3431 197.598 82.4307 196.743 82.719C195.181 83.2456 193.625 84.4333 192.327 85.4136C191.857 85.7687 191.419 86.0987 191.026 86.3673C189.417 87.4669 187.658 88.2581 185.691 88.3826C183.645 88.5117 181.639 87.8767 179.781 87.0821C178.837 86.6784 177.908 86.2596 176.983 85.8425C174.349 84.6548 171.745 83.4789 168.901 82.7146C165.089 81.6903 161.154 81.1857 157.206 81.2219C150.161 81.2862 143.094 83.0971 138.776 89.047C137.027 91.4573 135.887 94.2275 136.776 97.2021C137.26 98.8203 138.173 100.289 139.169 101.64L139.511 102.1C140.058 102.842 140.533 103.581 140.676 104.367C140.796 105.026 140.702 105.723 140.231 106.487C139.935 106.968 139.557 107.399 139.178 107.829C138.904 108.139 138.63 108.448 138.393 108.781C137.918 109.453 137.496 110.177 137.166 110.931C136.518 112.408 136.244 113.997 136.187 115.6C136.117 117.533 136.389 119.424 136.659 121.318C136.851 122.661 137.042 124.006 137.119 125.366C137.132 125.604 137.06 125.78 136.958 125.911C136.833 126.072 136.651 126.173 136.444 126.201C136.382 126.209 136.317 126.21 136.251 126.205C136.283 126.335 136.312 126.467 136.336 126.599C136.206 126.431 136.066 126.268 135.92 126.111C135.91 126.106 135.901 126.101 135.892 126.096C135.74 126.013 135.612 125.886 135.531 125.723C135.323 125.53 135.103 125.347 134.872 125.175C133.67 124.279 132.266 123.749 130.858 123.731C129.5 123.714 128.139 124.176 127.093 125.15C125.014 127.088 124.404 130.25 124.383 132.966C124.361 135.738 125.003 139.065 127.423 140.786C128.394 141.476 129.58 141.891 130.774 141.903C131.765 141.913 132.712 141.563 133.645 141.23C133.933 141.127 134.219 141.025 134.505 140.932C134.829 140.826 135.125 140.833 135.383 140.91C135.673 140.997 135.92 141.177 136.104 141.416C136.288 141.654 136.408 141.953 136.445 142.265C136.481 142.568 136.44 142.882 136.312 143.166C136.279 143.237 136.245 143.306 136.21 143.374L136.742 144.248C138.781 147.586 140.855 150.863 143.574 153.733C145.135 155.379 146.79 156.934 148.605 158.294L148.867 158.488C149.024 158.603 149.197 158.744 149.383 158.896C149.912 159.328 150.546 159.908 151.139 159.931C151.315 159.938 151.468 159.916 151.608 159.898C151.945 159.853 152.228 159.84 152.506 159.954C152.73 160.045 152.962 160.215 153.2 160.566C153.361 160.804 153.444 161.102 153.444 161.405C153.444 161.709 153.36 162.013 153.211 162.254C152.903 162.751 152.53 163.059 152.125 163.234C151.674 163.43 151.175 163.459 150.657 163.363C149.38 163.125 147.966 162.069 147.067 161.38L146.893 161.247C144.9 159.728 143.01 158.048 141.35 156.17C138.522 152.971 135.982 149.2 134.677 145.081C133.758 145.684 132.622 145.971 131.434 146.016C129.703 146.082 127.872 145.637 126.522 144.998C123.548 143.589 121.741 140.925 120.894 137.862C119.911 134.304 120.231 130.214 121.475 127.018C121.511 126.925 121.549 126.832 121.588 126.738C117.756 117.044 116.578 106.278 116.906 95.9321C117.059 91.0892 117.39 86.0083 118.534 81.2852C119.047 79.1683 119.937 77.1523 121.36 75.4857C122.171 74.5353 123.167 73.7954 124.166 73.0576C125.032 72.4185 125.901 71.7809 126.633 70.983L126.979 70.6041C127.054 70.5217 127.129 70.4394 127.203 70.3572C128.466 68.9671 129.696 67.6181 131.229 66.4781C133.006 65.1562 134.968 64.1216 137.006 63.2623C141.397 61.4118 146.123 60.3023 150.798 59.4438C160.913 57.5871 171.296 57.4955 181.287 60.1054C185.932 61.3187 190.44 62.9795 194.94 64.6383C195.358 64.7923 195.775 64.9463 196.193 65.0999C199.69 66.3858 203.19 67.6661 206.689 68.9465C208.315 69.5416 209.941 70.1366 211.567 70.7322C211.92 70.8615 212.265 71.14 212.462 71.486C212.654 71.8235 212.711 72.2172 212.556 72.6092C211.559 75.1335 210.3 77.5018 208.767 79.7134C209.3 80.0751 209.753 80.5561 210.096 81.1191C210.529 81.8311 210.786 82.6741 210.804 83.5684C210.862 86.5635 208.133 88.5938 205.868 90.0622C205.657 90.1992 205.448 90.2801 205.246 90.3172C207.44 98.6949 209.541 107.101 211.325 115.574L211.448 116.161C213.287 125.028 214.473 134.077 212.734 143.062C211.237 150.799 207.759 158.266 202.324 164.03C196.997 169.679 189.85 173.235 182.117 174.028ZM134.531 123.018C133.584 120.02 133.083 116.757 133.445 113.717C133.673 111.807 134.248 109.967 135.185 108.283C135.721 107.319 136.375 106.426 137.089 105.585L137.335 105.302C137.46 105.158 137.584 105.025 137.622 104.859C137.644 104.762 137.622 104.657 137.563 104.531C137.433 104.251 137.191 103.982 136.964 103.719C136.82 103.552 136.679 103.387 136.561 103.228C134.487 100.424 132.94 97.0869 133.443 93.5319C133.934 90.0634 136.21 86.8304 138.634 84.3939C143.97 79.0288 152.243 77.7959 159.491 78.0918C163.71 78.2639 167.922 79.0064 171.939 80.3034C173.921 80.9432 175.858 81.7222 177.74 82.6151L178.157 82.815C178.382 82.9238 178.607 83.0338 178.832 83.1439C180.303 83.8645 181.78 84.5921 183.377 84.9838C186.497 85.7487 188.613 84.1377 190.837 82.513C191.599 81.9562 192.373 81.3917 193.196 80.8963L193.365 80.7964C194.849 79.9374 196.624 79.3593 198.329 79.3852C199.81 79.4078 201.239 79.88 202.402 80.9959C202.641 81.2252 202.779 81.4754 202.843 81.7243C202.972 81.9045 203.076 82.1194 203.143 82.3732C203.56 83.9347 203.975 85.4972 204.388 87.0602L204.727 86.8427C205.728 86.1931 206.817 85.4508 207.309 84.364C207.498 83.9458 207.471 83.2489 207.233 82.7366C207.149 82.5576 207.039 82.3984 206.887 82.2991C206.776 82.2268 206.642 82.1929 206.487 82.2053C206.11 82.2539 205.763 82.1987 205.469 82.0747C205.13 81.9317 204.86 81.6964 204.685 81.4128C204.505 81.1224 204.423 80.7809 204.467 80.4269C204.505 80.1224 204.636 79.8045 204.896 79.5057C206.604 77.5392 208.043 75.3699 209.137 73.0152L201.903 70.3428C199.324 69.3904 196.744 68.4393 194.164 67.4918L192.751 66.9734C188.058 65.2546 183.338 63.5749 178.458 62.4683C168.759 60.2693 158.645 60.7861 148.973 62.856L148.389 62.9821C144.331 63.8658 140.217 64.9351 136.492 66.7936C134.663 67.7058 132.925 68.8151 131.433 70.2166C130.774 70.8355 130.178 71.5131 129.581 72.1898C128.746 73.1381 127.909 74.0839 126.916 74.8828L125.994 75.6201C124.622 76.7238 123.385 77.7992 122.611 79.511C121.802 81.3005 121.415 83.2775 121.1 85.2037C120.305 90.0561 119.992 94.9861 120.021 99.9012C120.072 108.154 121.328 116.239 122.914 124.295C124.187 122.476 125.974 121.066 128.269 120.765C129.765 120.569 131.248 120.848 132.534 121.508C133.277 121.89 133.955 122.399 134.531 123.018ZM132.127 132.818C130.451 132.17 128.692 131.958 126.919 132.267C126.733 132.3 126.556 132.261 126.407 132.175C126.256 132.087 126.138 131.949 126.073 131.796C125.998 131.619 125.994 131.428 126.06 131.258C126.118 131.11 126.226 130.967 126.427 130.871C128.346 129.957 130.48 129.553 132.598 129.84L132.807 129.87C133.889 130.03 135.412 130.368 136.554 131.032C137.45 131.554 138.107 132.273 138.27 133.213C138.355 133.702 138.234 134.214 137.951 134.584C137.678 134.943 137.26 135.181 136.719 135.166C135.765 135.139 135.201 134.736 134.521 134.215C134.439 134.152 134.354 134.087 134.266 134.021C133.61 133.531 132.892 133.114 132.127 132.818Z" fill="black"/>
<path fill-rule="evenodd" clip-rule="evenodd" d="M170.101 138.34C174.4 137.819 178.567 139.133 182.769 139.796C184.988 140.145 187.209 140.406 189.454 140.503C189.906 140.523 190.358 140.535 190.81 140.544C190.852 140.147 191.074 139.782 191.557 139.563C192.546 139.116 193.337 138.914 194.423 138.957C195.417 138.996 196.414 139.098 197.393 139.277C199.17 139.602 200.955 140.341 202.255 141.623C205.263 144.591 204.805 149.359 202.481 152.592C197.678 159.272 188.913 159.582 181.406 159.494L180.713 159.485C173.877 159.388 164.098 160.406 160.992 152.64C159.85 149.784 160.009 146.474 161.407 143.735C163.075 140.468 166.585 138.766 170.101 138.34ZM191.453 149.463L191.392 149.465C188.24 149.586 185.089 149.672 181.936 149.727C182.03 150.536 182.127 151.345 182.237 152.152C182.323 152.787 182.416 153.421 182.512 154.054C182.553 154.323 182.703 154.739 182.66 155.005L182.645 155.11C182.807 155.183 182.954 155.301 183.063 155.471C183.101 155.531 183.129 155.59 183.156 155.65C185.604 155.669 188.239 155.621 190.735 155.177L190.74 155.123C190.785 154.805 190.918 154.59 191.094 154.443C191.269 153.428 191.253 152.346 191.321 151.339C191.363 150.713 191.409 150.088 191.453 149.463ZM179.528 149.77C177.256 149.809 174.984 149.839 172.713 149.811L171.682 149.795C171.899 150.961 172.136 152.124 172.333 153.298C172.539 154.522 171.46 155.3 170.526 155.268C170.631 155.285 170.736 155.303 170.841 155.318C173.757 155.73 176.786 155.62 179.746 155.617C179.587 154.689 179.651 153.642 179.628 152.867L179.623 152.747C179.578 151.754 179.546 150.762 179.528 149.77ZM164.098 149.556C164.177 150.163 164.33 150.756 164.56 151.309C165.529 153.644 167.752 154.733 170.104 155.192C169.696 155.051 169.372 154.713 169.29 154.134C169.087 152.694 169.013 151.231 169.008 149.768C167.369 149.753 165.718 149.718 164.098 149.556ZM200.001 149.058C198.834 149.333 197.478 149.207 196.333 149.258C195.261 149.307 194.187 149.35 193.115 149.393C193.165 150.124 193.215 150.855 193.268 151.586C193.337 152.531 193.344 153.529 193.525 154.47C195.684 153.734 197.618 152.554 199.069 150.667C199.431 150.197 199.755 149.645 200.001 149.058ZM169.608 142.171C167.666 142.63 165.827 143.601 164.839 145.376C164.252 146.429 163.994 147.678 164.044 148.908C165.686 148.717 167.356 148.645 169.018 148.585C169.024 148.286 169.031 147.987 169.04 147.689L169.065 146.926C169.111 145.469 169.133 143.64 169.608 142.171ZM179.664 142.349L178.808 142.253C176.433 141.982 174.059 141.699 171.683 141.861C171.34 141.885 170.99 141.922 170.641 141.974C171.061 143.487 171.025 145.264 171.201 146.761C171.268 147.34 171.354 147.915 171.449 148.487L171.861 148.468C174.41 148.33 176.961 148.245 179.512 148.144C179.512 147.665 179.515 147.187 179.523 146.708L179.532 146.229C179.561 145.007 179.482 143.629 179.664 142.349ZM191.592 142.155C189.104 142.555 186.533 142.641 184.089 142.644C183.113 142.645 182.137 142.585 181.162 142.499C181.226 143.017 181.259 143.542 181.307 144.053C181.403 145.086 181.513 146.118 181.633 147.148L181.739 148.05C184.875 147.908 188.01 147.755 191.145 147.596L191.587 147.572L191.711 145.839C191.796 144.683 191.888 143.528 192.019 142.378L191.921 142.342C191.806 142.295 191.696 142.229 191.592 142.155ZM192.673 142.585C192.81 144.219 192.885 145.859 192.986 147.496L195.053 147.386C195.397 147.367 195.742 147.348 196.086 147.328C197.425 147.251 199.146 146.846 200.47 147.224C200.571 146.022 200.227 144.851 199.141 144.044C197.234 142.626 194.806 143.131 192.673 142.585ZM185.612 127.978C188.689 126.218 196.41 124.42 196.899 129.95C197.124 132.494 195.23 134.603 193.017 135.544L192.934 135.579C190.859 136.43 187.181 137.392 185.386 135.545C183.891 134.008 185.873 131.251 187.73 132.511C188.685 133.158 190.694 132.681 191.759 132.373L191.825 132.354C192.974 132.016 194.507 130.937 194.031 129.524C193.611 128.274 191.821 128.046 190.701 128.005C189.028 127.945 187.4 128.333 185.743 128.459C185.48 128.479 185.399 128.1 185.612 127.978ZM198.359 119.086C202.536 118.89 205.134 123.444 204.174 127.175C204.008 127.819 203.286 128.451 202.59 128.379L202.415 128.363C202.326 128.354 202.236 128.343 202.154 128.32C201.493 128.137 200.9 127.451 200.949 126.739L200.961 126.532C201.059 124.769 200.868 122.738 198.77 122.311C196.991 121.949 195.997 123.659 195.976 125.233C195.972 125.513 195.658 125.708 195.41 125.558C194.124 124.776 193.902 123.221 194.393 121.883C195.015 120.186 196.574 119.169 198.359 119.086ZM167.365 120.062C170.404 119.05 173.683 120.667 175.155 123.351C175.671 123.5 176.187 123.897 176.115 124.506C176.012 125.381 175.856 125.933 175.248 126.597C174.297 127.635 172.516 127.104 172.121 125.826L172.105 125.768C171.656 124.116 169.834 123.026 168.175 123.604C166.237 124.28 166.293 126.324 164.933 127.515C164.773 127.655 164.582 127.677 164.39 127.585C162.946 126.888 163.206 124.791 163.72 123.59C164.396 122.015 165.708 120.614 167.365 120.062ZM163.225 110.846C165.688 108.336 172.111 105.908 173.796 110.542C174.117 111.425 173.433 112.615 172.513 112.798C171.006 113.097 169.669 112.444 168.172 112.561C166.96 112.657 165.696 113.061 164.727 113.811C162.043 115.887 161.453 119.399 159.583 122.042C159.492 122.17 159.315 122.116 159.298 121.964C158.873 118.117 160.528 113.594 163.225 110.846ZM195.346 108.375C196.981 107.799 198.832 107.848 200.475 108.359C202.13 108.875 203.649 109.853 204.82 111.132C205.351 111.712 205.842 112.353 206.236 113.035C206.446 113.396 206.666 114.142 206.904 114.587C208.191 115.329 208.742 117.021 207.589 118.224L207.537 118.277L207.383 118.43C206.763 119.042 205.829 119.307 204.983 119.063C203.09 118.516 202.86 117.027 202.205 115.447C201.772 114.404 201.031 113.48 200.132 112.802C198.007 111.199 194.523 110.689 191.965 111.444C191.829 111.484 191.669 111.311 191.766 111.185C192.251 110.558 192.53 110.044 193.179 109.538C193.838 109.025 194.557 108.654 195.346 108.375Z" fill="black"/>
</svg>
