<svg width="24" height="24" viewBox="0 0 24 24" fill="none" xmlns="http://www.w3.org/2000/svg"><g clip-path="url(#clip0_2068_402)" fill="currentColor"><path d="M7.8.36C7.8.161 7.639-.001 7.44.008 6.539.05 5.65.248 4.815.594 3.869.986 3.009 1.56 2.285 2.285 1.56 3.009.986 3.869.594 4.815.202 5.761 0 6.776 0 7.8 0 8.824.202 9.839.594 10.785.986 11.731 1.56 12.591 2.285 13.315 3.009 14.04 3.869 14.614 4.815 15.006 5.65 15.352 6.539 15.55 7.44 15.592 7.639 15.601 7.8 15.439 7.8 15.24L7.8.36ZM23.64 7.8C23.839 7.8 24.001 7.639 23.992 7.44 23.95 6.539 23.752 5.65 23.406 4.815 23.014 3.869 22.44 3.009 21.715 2.285 20.991 1.56 20.131.986 19.185.594 18.239.202 17.224 0 16.2 0 15.176 0 14.161.202 13.215.594 12.269.986 11.409 1.56 10.685 2.285 9.96 3.009 9.386 3.869 8.994 4.815 8.648 5.65 8.45 6.539 8.408 7.44 8.399 7.639 8.561 7.8 8.76 7.8L23.64 7.8ZM16.2 23.64C16.2 23.839 16.361 24.001 16.56 23.992 17.461 23.95 18.35 23.752 19.185 23.406 20.131 23.014 20.991 22.44 21.715 21.715 22.44 20.991 23.014 20.131 23.406 19.185 23.798 18.239 24 17.224 24 16.2 24 15.176 23.798 14.161 23.406 13.215 23.014 12.269 22.44 11.409 21.715 10.685 20.991 9.96 20.131 9.386 19.185 8.994 18.35 8.648 17.461 8.45 16.56 8.408 16.361 8.399 16.2 8.561 16.2 8.76L16.2 23.64ZM.36 16.2C.161 16.2-.001 16.361.008 16.56.05 17.461.248 18.35.594 19.185.986 20.131 1.56 20.991 2.285 21.715 3.009 22.44 3.869 23.014 4.815 23.406 5.761 23.798 6.776 24 7.8 24 8.824 24 9.839 23.798 10.785 23.406 11.731 23.014 12.591 22.44 13.315 21.715 14.04 20.991 14.614 20.131 15.006 19.185 15.352 18.35 15.55 17.461 15.592 16.56 15.601 16.361 15.439 16.2 15.24 16.2L.36 16.2Z"/></g><defs><clipPath id="clip0_2068_402"><path fill="#fff" d="M0 0H24V24H0z"/></clipPath></defs></svg>