<svg width="15" height="16" viewBox="0 0 15 16" fill="none" xmlns="http://www.w3.org/2000/svg"><path d="M14.98 7.80214C14.98 7.17457 14.9291 6.71661 14.8189 6.2417H7.65266V9.07423H11.8591C11.7743 9.77815 11.3163 10.8382 10.2986 11.5506L10.2844 11.6454L12.5502 13.4007L12.7072 13.4164C14.1489 12.0849 14.98 10.1258 14.98 7.80214Z" fill="#4285f4"/><path d="M7.65264 15.2652C9.71342 15.2652 11.4435 14.5867 12.7071 13.4164L10.2986 11.5506C9.65408 12.0001 8.78903 12.3138 7.65264 12.3138C5.63423 12.3138 3.92114 10.9824 3.31047 9.14209L3.22096 9.14969L0.864918 10.9731L0.834106 11.0587C2.08924 13.552 4.66739 15.2652 7.65264 15.2652Z" fill="#34a853"/><path d="M3.31048 9.14214C3.14935 8.66723 3.0561 8.15834 3.0561 7.63256C3.0561 7.10673 3.14935 6.5979 3.302 6.12299L3.29774 6.02184L0.912171 4.16919L0.83412 4.20632C0.316818 5.24098 0.019989 6.40286 0.019989 7.63256C0.019989 8.86227 0.316818 10.0241 0.83412 11.0588L3.31048 9.14214Z" fill="#fbbc05"/><path d="M7.65264 2.95128C9.08586 2.95128 10.0526 3.57037 10.6039 4.08773L12.758 1.98449C11.4351 0.754788 9.71342 0 7.65264 0C4.66739 0 2.08924 1.7131 0.834106 4.20641L3.30199 6.12308C3.92114 4.28277 5.63423 2.95128 7.65264 2.95128Z" fill="#eb4335"/></svg>