<svg width="71" height="24" viewBox="0 0 71 24" fill="none" xmlns="http://www.w3.org/2000/svg"><g clip-path="url(#clip0_2011_434)"><path d="M30.1955 12.3077C30.1955 15.639 27.5894 18.0938 24.3912 18.0938C21.193 18.0938 18.5869 15.639 18.5869 12.3077C18.5869 8.95296 21.193 6.52166 24.3912 6.52166C27.5894 6.52166 30.1955 8.95296 30.1955 12.3077ZM27.6547 12.3077C27.6547 10.226 26.1442 8.80165 24.3912 8.80165C22.6382 8.80165 21.1277 10.226 21.1277 12.3077C21.1277 14.3686 22.6382 15.8138 24.3912 15.8138C26.1442 15.8138 27.6547 14.366 27.6547 12.3077Z" fill="#ea4335"/><path d="M42.7172 12.3077C42.7172 15.639 40.1111 18.0938 36.9129 18.0938C33.7146 18.0938 31.1086 15.639 31.1086 12.3077C31.1086 8.95556 33.7146 6.52166 36.9129 6.52166C40.1111 6.52166 42.7172 8.95296 42.7172 12.3077ZM40.1764 12.3077C40.1764 10.226 38.6659 8.80165 36.9129 8.80165C35.1599 8.80165 33.6494 10.226 33.6494 12.3077C33.6494 14.3686 35.1599 15.8138 36.9129 15.8138C38.6659 15.8138 40.1764 14.366 40.1764 12.3077Z" fill="#fbbc05"/><path d="M54.7172 6.87123V17.259C54.7172 21.532 52.1972 23.2772 49.2181 23.2772C46.4137 23.2772 44.7259 21.4016 44.0894 19.8677L46.3016 18.9468C46.6955 19.8886 47.6607 20.9999 49.2155 20.9999C51.1224 20.9999 52.3041 19.8233 52.3041 17.6086V16.7764H52.2154C51.6468 17.4781 50.5511 18.0912 49.1685 18.0912C46.2755 18.0912 43.625 15.5712 43.625 12.3286C43.625 9.06252 46.2755 6.52166 49.1685 6.52166C50.5485 6.52166 51.6441 7.1347 52.2154 7.81557H52.3041V6.87383H54.7172V6.87123ZM52.4841 12.3286C52.4841 10.2912 51.125 8.80165 49.3955 8.80165C47.6424 8.80165 46.1737 10.2912 46.1737 12.3286C46.1737 14.3451 47.6424 15.8138 49.3955 15.8138C51.125 15.8138 52.4841 14.3451 52.4841 12.3286Z" fill="#4285f4"/><path d="M58.6954 0.782707V17.7392H56.2171V0.782707H58.6954Z" fill="#34a853"/><path d="M68.3528 14.2122L70.3249 15.527C69.6884 16.4687 68.1545 18.0913 65.5041 18.0913C62.2171 18.0913 59.7624 15.5505 59.7624 12.3053C59.7624 8.86443 62.238 6.51922 65.2197 6.51922C68.2223 6.51922 69.691 8.90878 70.171 10.2001L70.4345 10.8575L62.6997 14.0609C63.2919 15.2218 64.2128 15.814 65.5041 15.814C66.798 15.814 67.6954 15.1774 68.3528 14.2122ZM62.2824 12.1305L67.4528 9.98355C67.1684 9.26095 66.3128 8.75747 65.3058 8.75747C64.0145 8.75747 62.2171 9.89747 62.2824 12.1305Z" fill="#ea4335"/><path d="M9.20605 10.8025V8.34774H17.4782C17.5591 8.77556 17.6008 9.28165 17.6008 9.82947C17.6008 11.6712 17.0973 13.9486 15.4747 15.5712C13.8965 17.2147 11.88 18.0912 9.20866 18.0912C4.25738 18.0912 0.0939169 14.0582 0.0939169 9.10687C0.0939169 4.15558 4.25738 0.122557 9.20866 0.122557C11.9478 0.122557 13.8991 1.19734 15.3652 2.5982L13.633 4.33037C12.5817 3.34428 11.1573 2.57733 9.20605 2.57733C5.59042 2.57733 2.7626 5.49123 2.7626 9.10687C2.7626 12.7225 5.59042 15.6364 9.20605 15.6364C11.5513 15.6364 12.8869 14.6947 13.7426 13.839C14.4365 13.1451 14.893 12.1538 15.073 10.7999L9.20605 10.8025Z" fill="#4285f4"/></g><defs><clipPath id="clip0_2011_434"><path fill="#fff" d="M0 0H70.957V24H0z"/></clipPath></defs></svg>