<svg width="391" height="780" viewBox="0 0 391 780" fill="none" xmlns="http://www.w3.org/2000/svg">
<path fill-rule="evenodd" clip-rule="evenodd" d="M161.554 145.573C162.322 145.418 162.982 145.646 163.447 146.066C163.547 147.101 163.535 148.134 163.45 149.168C163.364 149.241 163.269 149.313 163.165 149.379L163.244 149.328C163.316 149.282 163.365 149.247 163.397 149.222C162.386 155.957 157.702 161.687 151.63 164.732C151.254 165.351 150.404 165.309 149.794 165.588L148.936 165.857C146.575 166.597 144.184 167.295 141.686 167.342C148.038 185.153 172.878 194.83 190.45 196.145C205.625 196.944 214.046 184.38 210.043 170.288C201.252 169.152 192.609 159.816 195.795 150.794L195.895 150.521C195.917 150.429 196.04 150.462 196.05 150.542C196.147 151.462 196.696 152.474 196.94 153.373L197.053 153.692C197.898 156.124 198.649 159.025 201.037 160.319L201.446 160.328C205.742 160.44 210.228 161.007 214.011 163.13C218.229 163.958 222.262 165.626 226.015 167.693C255.659 183.759 250.915 217.933 251.838 246.392C254.715 285.389 278.515 324.36 264.478 363.51C270.887 379.815 271.383 401.728 257.394 414.166C257.547 414.407 257.677 414.672 257.785 414.942C258.451 416.601 258.657 418.502 258.971 420.263L259.008 420.466C259.765 424.561 260.309 428.698 260.841 432.828C261.891 440.974 262.653 449.156 263.379 457.337L263.483 458.505C265.301 479.069 266.889 499.678 269.274 520.189L269.719 523.229C272.947 545.187 276.463 567.197 281.759 588.715C281.915 589.291 282.07 589.868 282.23 590.444C284.138 597.347 286.385 604.133 288.496 610.972C289.164 613.138 289.905 615.27 290.685 617.385L291.656 619.789C291.818 620.19 291.98 620.59 292.143 620.99C293.864 625.217 295.698 629.396 297.628 633.531C297.976 634.277 297.469 634.964 296.871 635.156C298.634 637.946 299.298 641.27 300.771 644.232C302.877 648.956 305.371 653.551 308.484 657.694C310.206 656.401 312.13 658.07 313.562 659.024C314.481 659.595 315.673 660.024 316.034 661.031C316.728 661.43 317.402 661.868 318.041 662.306L318.105 662.099C318.881 659.62 320.399 656.293 322.867 655.187C325.751 653.976 328.053 656.389 327.189 659.278C326.66 661.858 325.833 664.328 324.952 666.817C333.826 672.166 343.53 676.222 353.739 678.257L354.087 678.326C356.55 678.814 359.053 679.153 361.312 680.322C365.053 682.371 367.469 686.268 368.98 690.165C369.505 690.293 369.987 690.75 370.103 691.253L371.099 695.55C371.431 696.982 371.761 698.415 372.086 699.849C372.265 700.626 371.849 701.605 370.989 701.778C365.064 702.961 359.11 703.997 353.13 704.872C336.155 706.441 314.313 711.956 298.55 704.212C296.035 709.374 289.032 707.897 284.279 708.287C281.393 708.074 261.131 709.173 261.324 706.729L261.212 706.309C260.316 702.894 259.508 698.306 262.772 695.955C262.568 692.101 262.416 688.245 262.352 684.389C261.215 680.729 261.412 676.681 261.181 672.86C261.211 670.013 260.546 666.725 262.105 664.179C262.242 662.491 266 663.392 267.244 662.774L267.135 662.373C265.418 656.161 263.032 650.117 258.213 645.569C254.046 645.845 249.868 645.894 245.697 645.699C239.347 645.724 236.45 642.977 235.067 637.013C234.077 633.514 233.11 630.009 232.158 626.499C224.728 598.884 217.981 571.025 209.77 543.624C206.631 534.44 203.159 525.369 199.658 516.321C197.285 510.188 194.908 504.057 192.534 497.925C191.314 494.775 190.112 491.607 189.051 488.4C188.725 487.414 188.429 486.422 188.15 485.427C169.732 536.513 163.89 590.788 160.631 644.683C160.334 648.986 160.282 653.338 159.305 657.55C159.006 658.846 157.909 659.204 156.94 658.92C155.156 659.863 153.836 659.974 151.54 660.01L151.557 660.749C151.687 666.045 152.012 671.327 153.216 676.499C153.694 678.658 154.549 680.758 155.012 682.907C156.883 682.272 158.795 681.794 160.761 681.559C161.754 681.44 162.322 682.27 162.362 683.121C162.728 683.524 163.096 683.922 163.471 684.318L163.661 684.074C165.426 681.797 167.69 678.677 170.76 678.421C172.156 678.335 173.431 679.122 173.736 680.54C174.027 683.797 171.324 687.364 169.043 689.525C177.494 696.503 187.969 700.533 198.66 702.589L199.077 702.658C205.936 703.778 214.396 704.661 217.666 711.742L217.735 711.894C218.502 713.62 219.227 716.236 217.977 717.817C218.125 719.976 217.725 722.199 217.673 724.38C217.619 725.266 217.02 725.78 216.172 725.878C194.348 727.047 161.083 737.242 142.391 725.112C142.007 726.456 141.61 727.797 141.242 729.146C141.081 729.74 140.48 730.227 139.85 730.203C128.28 729.788 116.671 729.601 105.115 728.897C104.779 728.903 104.498 728.753 104.264 728.482C103.993 728.814 103.3 728.724 103.207 728.252C103.044 727.424 103.043 726.584 102.968 725.744C102.882 724.773 102.622 723.876 102.469 722.926C102.188 721.172 102.315 719.291 102.489 717.531L102.534 717.085C102.656 715.922 102.873 714.6 103.926 713.941L103.996 713.899C104 713.897 104.004 713.895 104.007 713.893C104.124 713.523 104.401 713.202 104.75 712.948L104.771 712.925C104.22 711.613 104.432 709.954 104.593 708.587C105.037 703.833 106.37 699.128 108.568 694.907C109.194 691.697 109.954 688.375 111.083 685.32C111.052 685.18 111.228 685.062 111.363 685.123C111.41 685.099 111.456 685.08 111.502 685.065C111.508 685.018 111.517 684.971 111.532 684.927C111.727 684.352 112.33 684.038 112.894 683.949C113.372 683.873 113.786 684 114.215 684.109C114.524 675.811 113.542 667.527 113.442 659.233C112.651 659.615 111.764 659.276 111.036 658.837C108.922 659.162 107.424 657.363 106.844 655.471L106.504 653.938C103.457 640.133 100.711 626.208 99.2351 612.136C97.1946 592.495 99.6595 572.835 102.654 553.424C110.782 502.311 104.894 450.645 104.315 399.252C103.83 393.64 103.63 387.968 103.013 382.36C100.721 382.088 98.9881 379.946 98.2137 377.894C97.0001 374.643 97.8764 370.891 98.1828 367.549C98.5224 363.844 98.7718 360.133 98.9335 356.419L98.9524 355.334C99.0077 352.438 99.1337 349.522 100.097 346.765C89.8244 338.874 76.2017 332.674 71.8547 319.481C69.8769 317.703 70.2752 309.464 69.9524 306.441C68.633 280.294 70.8687 253.975 76.5338 228.415C83.6238 193.585 98.1484 162.374 138.86 163.865C138.829 163.841 138.796 163.815 138.765 163.789C139.195 163.647 139.639 163.787 139.955 164.071C146.887 164.959 153.513 160.872 156.976 154.998C157.826 153.534 158.458 152.005 158.795 150.343L158.821 150.211C159.174 148.384 159.273 146.031 161.554 145.573ZM108.96 714.385C107.976 714.928 106.9 714.993 105.994 715.717C105.357 719.191 105.41 722.796 106.174 726.245C117.028 726.361 127.895 726.909 138.744 727.281C139.181 725.605 139.594 723.92 140.05 722.249L140.061 722.214L140.084 722.148C141.21 722.186 142.337 722.219 143.463 722.247C160.124 734.165 194.642 724.037 214.754 723.043L214.961 719.703C214.758 719.845 214.556 719.923 214.362 719.951C214.549 719.463 214.217 718.828 213.554 719.013C212.484 719.312 211.408 719.588 210.329 719.846C210.247 719.814 210.154 719.798 210.05 719.807C200.608 720.612 191.128 720.536 181.661 720.565C172.227 720.593 162.802 720.99 153.367 720.964C149.518 720.953 145.67 720.895 141.823 720.781C130.743 718.727 119.742 716.304 108.96 714.385ZM367.584 694.023C367.117 694.361 366.507 694.39 365.859 694.478L365.766 694.491C365.173 694.577 364.578 694.658 363.982 694.704C362.507 695.655 359.57 695.526 358.148 695.796C326.937 698.909 295.509 695.215 264.266 697.716C262.775 699.839 263.138 702.468 263.931 704.84C272.656 705.168 281.388 705.345 290.117 704.968L290.815 704.943C291.892 704.9 292.998 704.823 293.995 704.416C294.886 704.053 295.98 703.154 295.84 702.076L295.831 702.015C295.617 700.778 296.919 699.33 298.184 700.21C310.122 708.113 326.343 704.139 339.793 703.362C349.485 702.338 359.124 700.88 368.69 699.033C368.32 697.364 367.951 695.693 367.584 694.023ZM149.558 659.01C148.557 659.124 147.555 659.227 146.552 659.317C142.526 659.68 138.487 659.862 134.448 659.978L132.562 660.029C128.798 660.131 125.01 660.22 121.253 660.016C119.353 659.913 117.405 659.689 115.568 659.174C117.184 667.635 118.015 676.25 117.989 684.86C118.494 685.296 118.392 686.016 118.258 686.567L118.384 686.941C118.679 687.817 118.96 688.707 119.072 689.603C130.735 696.525 140.417 689.435 151.05 684.472C149.298 679.923 148.765 674.935 148.471 670.104C148.308 666.347 148.589 662.68 149.558 659.01ZM170.757 681.353C170.271 681.408 169.821 681.712 169.427 681.981C167.805 683.14 166.404 684.512 165.124 685.996C165.616 686.479 166.117 686.955 166.627 687.423C168.543 685.882 170.048 683.736 170.757 681.353ZM294.712 637.363L293.133 637.894C283.386 641.159 273.436 644.223 263.081 645.138C263.637 645.687 264.105 646.339 264.516 647.031C264.874 647.335 265.235 647.723 265.133 648.183C265.466 648.854 265.76 649.534 266.04 650.176C267.678 654.064 269.569 657.889 270.949 661.892C271.35 663.562 272.925 665.898 272.191 667.516C283.199 672.3 296.893 670.169 305.302 661.418L305.005 660.981C300.173 653.837 295.926 645.988 294.712 637.363ZM324.57 657.559C323.902 656.986 322.731 658.569 322.435 658.962C321.337 660.42 320.582 662.015 320.022 663.684C320.727 664.166 321.437 664.619 322.154 665.082L322.194 665.016C322.861 663.866 325.261 658.289 324.57 657.559ZM115.225 657.436L115.237 657.495C115.828 657.587 116.42 657.669 117.014 657.736C118.459 657.9 119.922 657.973 121.38 658.003C119.328 657.707 117.275 657.468 115.225 657.436ZM130.87 379.299L130.384 379.25L129.76 379.174C121.749 378.18 113.676 376.853 105.609 378.143C106.726 383.301 106.801 388.706 107.162 393.99C108.884 444.884 115.084 496.068 108.137 546.842L107.922 548.381C105.39 566.438 102.378 584.559 103.59 602.857C104.536 619.536 107.937 635.931 111.316 652.252C112.128 652.456 112.94 652.66 113.755 652.859C113.779 652.633 113.92 652.763 113.947 652.907C123.954 655.573 134.399 655.802 144.681 655.132C146.62 655.021 148.55 654.864 150.487 654.732C151.981 654.083 153.577 653.67 155.197 653.386C158.612 601.593 163.085 549.21 179.138 499.554C189.357 468.009 202.122 437.29 209.675 404.937C209.936 404.029 211.313 404.411 211.09 405.328L210.854 406.569C208.936 416.701 207.208 426.866 204.222 436.77C206.489 434.305 209.074 432.13 211.214 429.551C211.881 428.738 212.494 427.882 213.021 426.97C213.521 425.839 214.324 424.954 215.567 424.69C216.137 424.46 216.666 424.943 216.854 425.42C217.377 426.734 217.156 427.672 216.395 428.831L216.205 429.116C212.847 434.07 207.472 436.963 203.037 440.851C199.324 453.222 195.05 465.417 190.861 477.631C190.808 480.061 191.25 482.459 191.963 484.776C192.774 487.158 193.5 489.682 194.746 491.915C212.069 528.055 220.799 567.434 231.324 605.889C234.095 616.144 236.9 626.395 239.921 636.581L239.965 636.767C240.653 639.638 241.727 640.793 244.88 640.788C260.679 641.513 276.9 638.939 291.293 632.597C283.365 611.482 277.86 589.631 273.58 567.486C271.421 557.018 269.671 546.467 268.197 535.875C266.145 522.352 264.334 508.798 262.5 495.311C258.746 468.88 258.911 441.984 254.128 415.714C252.494 415.768 251.094 413.831 252.088 412.384C251.741 410.945 252.051 409.373 252.565 408.044L252.503 407.755C246.899 412.723 239.586 413.352 243.339 403.802L243.598 403.153C246.417 396.147 250.002 388.661 248.411 380.975C232.156 389.635 212.286 388.238 194.815 384.443C196.176 389.381 192.51 392.409 188.374 389.093C187.628 388.491 186.897 387.868 186.18 387.223C187.231 391.385 186.667 395.745 185.695 399.87L185.603 400.346C185.13 402.82 184.593 406.104 182.708 407.817C181.333 409.064 179.262 408.533 178.644 406.753C178.299 400.865 176.654 395.074 173.643 389.953C174.146 393.696 174.023 397.54 173.099 401.129C172.743 402.501 172.249 403.902 172.132 405.321L172.15 405.554C172.327 408.055 171.994 410.353 168.869 410.403C161.458 409.099 166.133 391.594 161.414 386.059C159.981 392.74 161.651 401.522 155.135 405.957C153.335 407.08 151.138 406.428 150.772 404.248L150.902 402.534C151.679 392.078 151.534 388.944 144.816 379.141C140.261 380.23 135.49 379.764 130.87 379.299ZM262.886 648.031C262.891 648.072 262.894 648.109 262.896 648.15C262.974 648.229 263.051 648.309 263.128 648.39L263.243 648.512L263.11 648.185C263.036 648.138 262.96 648.084 262.886 648.031ZM256.77 414.707L256.465 414.964C256.414 415.006 256.362 415.049 256.31 415.091C256.581 416.297 256.835 417.506 257.081 418.716L257.033 417.919C256.988 417.135 257.113 415.712 256.77 414.707ZM251.823 307.522C249.531 296.875 247.246 292.381 250.149 307.717L250.464 309.374C251.722 316.014 253.047 323.542 254.291 331.646L254.55 333.343C255.849 341.746 257.891 354.046 258.042 363.9C258.213 375.081 252.526 378.399 250.278 379.848C249.858 381.077 250.391 382.103 250.746 383.284C251.223 385.18 251.347 387.003 251.211 388.951C250.739 395.598 247.181 401.602 245.564 407.91C247.636 407.341 249.948 405.478 251.758 404.001C254.972 401.448 257.215 397.666 258.184 393.656C258.645 391.762 258.31 389.423 259.602 387.87C259.982 387.413 260.804 387.458 261.191 387.87C262.245 388.991 262.145 390.366 261.974 391.8C261.4 396.678 259.25 401.461 255.788 404.973C255.625 406.775 255.086 408.381 254.729 410.095C254.866 410.479 255.004 410.862 255.135 411.249C257.48 409.226 259.441 406.781 260.96 404.086C267.741 392.201 265.373 378.513 263.618 365.551C263.266 366.419 262.463 366.764 261.682 366.679C261.234 367.8 260.061 367.085 260.015 365.636C259.724 356.604 258.522 343.764 256.31 330.611C254.992 322.774 253.396 314.828 251.823 307.522ZM166.2 348.534C162.837 358.951 149.583 360.983 141.84 367.338C145.729 377.577 156.613 388.543 153.411 401.752L153.393 401.851C153.297 402.357 152.981 403.785 153.321 404.053C153.537 404.224 154.867 402.927 155.1 402.671C159.757 397.139 157.047 389.316 159.666 383.009C160.011 382.17 161.084 381.675 161.811 382.445C165.086 385.908 165.878 390.578 166.38 395.141L166.397 395.298C166.8 398.847 166.579 402.503 167.632 405.954L167.671 406.076C167.895 406.743 168.314 407.683 168.781 407.853C170.071 408.319 169.586 406.257 169.631 405.442C169.767 403.086 170.769 400.88 171.121 398.56C171.871 393.582 171.123 388.361 169.468 383.642C168.943 382.144 171.009 381.613 171.807 382.658C175.12 387 177.775 391.826 179.525 397.004C180.231 399.093 180.606 401.207 181.076 403.335C184.01 394.446 183.925 385.101 177.281 377.814C175.709 375.93 178.328 373.213 180.022 375.081C181.778 377.17 183.497 379.282 185.406 381.236C187.288 383.13 189.102 385.462 191.431 386.813C191.053 378.305 181.907 374.461 177.029 368.634C172.057 362.767 169.337 355.45 166.2 348.534ZM122.245 276.682C120.465 282.088 118.378 287.397 116.769 292.86C116.435 296.557 117.575 298.09 120.295 300.437C121.473 293.731 121.96 286.93 122.59 280.151C122.494 278.993 122.475 277.824 122.245 276.682ZM123.124 274.025L122.946 274.572L123.005 274.677L123.062 274.783L123.124 274.025ZM231.672 206.377L232.352 210.853C234.85 227.263 237.427 243.67 240.974 259.892C241.169 260.786 242.322 259.586 242.11 257.855C239.929 240.056 231.702 206.167 231.67 206.361L231.672 206.377ZM210.679 170.39C210.838 170.579 210.988 170.778 211.133 170.98C211.102 170.8 211.071 170.617 211.038 170.435C210.917 170.421 210.798 170.407 210.679 170.39Z" fill="black"/>
<path fill-rule="evenodd" clip-rule="evenodd" d="M237.297 97.4965C235.739 93.1782 234.093 88.8931 232.362 84.6411C230.676 80.5029 229.153 76.2753 227.059 72.3332C214.552 48.7886 191.81 48.7886 180.055 51.865C173.958 49.2437 162.54 49.9831 156.192 52.3485C145.915 56.1779 133.388 71.2417 129.105 78.0098C119.648 92.9531 113.747 112.842 120.028 130.11C120.849 132.367 121.896 134.457 123.075 136.471C122.332 137.476 121.478 138.427 120.531 139.362C117.717 142.14 114.903 144.827 112.473 147.96C110.057 151.074 108.055 154.386 106.564 158.037C103.753 164.923 103.618 172.719 107.334 179.289C110.567 185.006 116.295 189.263 122.747 189.669C123.079 189.715 123.41 189.757 123.744 189.791C124.599 191.196 125.641 192.49 126.831 193.618C130.476 197.079 139.166 198.854 144.123 198.968C144.377 199.171 144.633 199.375 144.89 199.577C147.922 201.959 151.105 204.362 154.586 206.057C156.945 207.206 160.037 208.166 162.497 207.336C163.613 208.081 165.444 207.924 166.551 207.315C168.37 206.315 169.85 204.514 170.75 202.67C172.932 198.193 172.408 193.294 171.847 188.511C171.23 183.228 170.636 177.942 170.033 172.66C169.56 168.528 169.066 164.329 167.807 160.349C167.157 158.287 166.304 156.306 165.202 154.443C165.231 154.287 165.226 154.13 165.181 153.983C164.82 152.812 164.074 152.198 163.191 151.402C163.077 151.3 162.963 151.196 162.851 151.089C162.409 150.587 161.937 150.12 161.431 149.724C161.236 149.527 161.044 149.328 160.851 149.129C159.253 147.458 157.743 145.702 156.401 143.82C155.099 141.995 153.924 140.09 152.805 138.148C151.668 136.174 150.915 133.996 149.78 132.036C149.682 131.868 149.435 131.835 149.297 131.974C148.946 132.337 148.72 132.74 148.763 133.164L148.587 133.19C148.521 132.55 147.93 132.029 147.127 132.169C145.925 132.377 144.937 132.456 143.897 132.057C144.08 130.846 144.248 129.633 144.415 128.417C144.719 126.179 145.001 123.935 145.244 121.691C145.83 121.83 146.412 122.032 146.982 122.288C147.794 122.65 148.561 123.139 149.217 123.738C149.863 124.331 150.309 125.13 151.098 125.542C152.005 126.014 153.1 125.234 152.834 124.21C152.295 122.141 149.243 120.956 147.355 120.565C146.706 120.43 146.044 120.373 145.381 120.387C145.531 118.946 145.664 117.505 145.773 116.062C145.825 115.379 145.873 114.696 145.918 114.011C147.386 113.568 148.958 113.435 150.485 113.644C150.988 114.045 151.492 114.44 151.979 114.841C153.525 116.116 155.064 117.398 156.584 118.704C156.721 118.82 156.857 118.936 156.995 119.055C157.897 119.83 159.023 119.062 158.871 117.965C157.631 108.973 163.15 101.82 169.612 96.2783C176.766 90.1421 189.77 89.4276 198.277 78.7988C202.195 79.5946 210.943 81.9582 214.552 87.6985C219.606 95.7427 218.946 102.95 219.331 112.075C219.715 121.207 220.694 130.732 218.616 139.736C216.699 148.039 211.51 155.133 203.459 158.394C203.26 158.474 203.058 158.553 202.856 158.629C198.693 160.195 194.15 160.638 189.77 159.814C184.923 158.899 180.876 156.685 176.844 153.962C176.611 153.808 176.272 154.125 176.447 154.358C181.762 161.387 192.202 163.736 200.484 161.88C200.871 161.793 201.255 161.698 201.638 161.594C199.785 166.91 200.158 172.745 202.571 177.921C204.022 181.035 206.236 183.73 208.931 185.856C211.902 188.198 215.588 190.089 217.649 193.377C219.537 196.389 218.977 199.773 215.745 201.513C214.93 201.954 214.617 203.378 215.424 204.004C215.733 204.241 216.041 204.483 216.357 204.72C218.167 206.083 223.138 208.642 223.943 208.737C231.091 209.583 235.898 204.345 238.978 198.167C242.595 190.914 241.655 182.076 237.67 175.169C234.473 169.628 228.177 164.167 230.68 157.154C231.573 154.649 233.4 152.514 235.174 150.584C237.197 148.387 239.372 146.33 241.313 144.055C243.241 141.796 244.951 139.338 245.906 136.504C247.3 132.361 246.606 127.881 245.559 123.745C243.315 114.867 240.401 106.107 237.297 97.4965Z" fill="black"/>
<path fill-rule="evenodd" clip-rule="evenodd" d="M183.646 137.771C186.554 134.399 191.453 134.164 195.51 135.007C198.114 135.548 200.649 136.45 203.294 136.784C204.529 136.94 205.777 136.987 207.022 136.964C208.244 136.942 209.468 136.696 210.686 136.742C210.873 136.748 210.944 136.994 210.781 137.093C209.111 138.118 206.86 138.446 204.886 138.646C204.893 138.792 204.901 138.934 204.922 139.055C204.975 139.377 205.025 139.696 205.064 140.02C205.154 140.75 205.254 141.478 205.354 142.207C205.551 143.641 205.613 145.121 205.96 146.53L206.02 146.764C206.1 147.061 206.119 147.328 206.092 147.569L206.172 147.532L206.426 147.41L206.592 147.332C207.198 147.051 207.777 146.847 208.49 146.915C209.033 146.966 209.489 147.336 209.492 147.914C209.506 150.511 206 151.346 203.994 151.843L203.406 151.987C200.853 152.609 198.246 153.154 195.621 153.284C191.407 153.493 186.672 152.333 183.916 148.922C181.344 145.74 180.873 140.987 183.646 137.771ZM202.781 148.68C202.339 144.771 197.525 144.556 196.14 147.035C195.526 143.58 186.436 146.737 187.147 147.424C189.841 150.027 193.929 150.262 197.444 149.78C199.234 149.535 201.025 149.135 202.781 148.68ZM197.439 138.435L196.229 138.261L195.752 138.195C192.752 137.794 189.378 137.587 186.911 139.507C186.011 140.207 185.504 141.121 185.315 142.103C187.649 141.758 189.991 141.494 192.341 141.275L192.982 141.216C194.452 141.084 195.921 140.945 197.39 140.798L198.433 140.693L199.477 140.585C199.844 140.546 202.318 140.42 202.783 140.505C202.833 140.088 202.898 139.185 203.003 138.779C201.245 138.839 199.495 138.708 197.747 138.477L197.439 138.435ZM203.009 120.962C204.803 122.05 207.535 124.587 205.606 127.284C203.335 129.662 200.066 126.935 198.454 125.702C196.96 124.746 195.282 127.204 196.668 128.32C208.311 136.922 213.035 121.246 203.916 119.683C202.912 119.511 202.54 120.625 203.009 120.962ZM206.219 125.545L206.305 125.498L206.334 125.481C206.385 125.448 206.352 125.452 206.238 125.491L206.152 125.522V125.583C206.174 125.569 206.197 125.559 206.219 125.545ZM183.251 115.88L183.251 115.826C183.254 114.315 184.136 110.864 186.316 110.864C187.678 110.864 188.505 113.213 188.648 115.634L188.653 115.732C188.716 117.237 188.303 120.527 186.316 120.527C184.309 120.527 183.272 117.411 183.251 115.88ZM215.349 115.406L215.349 115.352C215.346 113.841 214.464 110.39 212.284 110.39C210.956 110.39 210.136 112.623 209.964 114.978L209.952 115.16C209.866 116.614 210.253 120.053 212.284 120.053C214.291 120.053 215.328 116.937 215.349 115.406ZM184.495 100.56C186.274 100.29 188.63 100.803 189.46 102.608C189.829 103.412 189.392 104.302 188.46 104.347C186.208 104.454 184.189 103.954 182.213 105.415C181.362 106.044 180.647 106.915 180.047 107.784L179.82 108.114L179.632 108.386C179.224 108.984 178.838 109.634 178.899 110.355C178.917 110.569 178.698 110.771 178.49 110.763C177.195 110.71 177.055 109.089 177.226 108.116C177.542 106.309 178.419 104.613 179.633 103.248C180.908 101.813 182.592 100.849 184.495 100.56ZM209.001 102.752C210.228 101.965 211.797 101.663 213.235 101.778C216.069 102.006 220.823 104.41 220.197 107.865C220.004 108.93 218.519 109.492 217.644 108.901C216.704 108.266 216.475 107.278 215.775 106.448C215.216 105.784 214.508 105.304 213.75 104.896C213.003 104.492 212.138 104.248 211.291 104.159L211.149 104.145C210.639 104.102 208.062 104.114 208.44 105.074C208.514 105.262 208.234 105.411 208.105 105.268C207.315 104.396 208.21 103.26 209.001 102.752Z" fill="black"/>
</svg>
