<svg width="391" height="780" viewBox="0 0 391 780" fill="none" xmlns="http://www.w3.org/2000/svg">
<path fill-rule="evenodd" clip-rule="evenodd" d="M161.554 145.573C162.322 145.418 162.982 145.646 163.447 146.065C163.547 147.101 163.535 148.134 163.45 149.168C163.364 149.241 163.269 149.313 163.165 149.379L163.244 149.328C163.316 149.282 163.365 149.247 163.397 149.222C162.386 155.957 157.702 161.687 151.63 164.732C151.254 165.351 150.404 165.309 149.794 165.588L148.936 165.857C146.575 166.596 144.184 167.295 141.686 167.342C148.038 185.153 172.878 194.83 190.45 196.145C205.625 196.943 214.046 184.38 210.043 170.288C201.252 169.152 192.609 159.816 195.795 150.794L195.895 150.521C195.917 150.429 196.04 150.462 196.05 150.542C196.147 151.462 196.696 152.474 196.94 153.373L197.053 153.692C197.898 156.124 198.649 159.024 201.037 160.319L201.446 160.328C205.742 160.44 210.228 161.007 214.011 163.13C218.229 163.958 222.262 165.626 226.015 167.693C255.659 183.759 250.915 217.932 251.838 246.392C254.715 285.389 278.515 324.36 264.478 363.51C270.887 379.815 271.383 401.728 257.394 414.166C257.547 414.407 257.677 414.672 257.785 414.942C258.451 416.601 258.657 418.502 258.971 420.263L259.008 420.466C259.765 424.561 260.309 428.698 260.841 432.828C261.891 440.974 262.653 449.156 263.379 457.337L263.483 458.505C265.301 479.068 266.889 499.678 269.274 520.188L269.719 523.228C272.947 545.187 276.463 567.197 281.759 588.714C281.915 589.291 282.07 589.868 282.23 590.444C284.138 597.347 286.385 604.133 288.496 610.972C289.164 613.137 289.905 615.27 290.685 617.385L291.656 619.789C291.818 620.189 291.98 620.59 292.143 620.99C293.864 625.217 295.698 629.396 297.628 633.531C297.976 634.277 297.469 634.964 296.871 635.155C298.634 637.946 299.298 641.27 300.771 644.232C302.877 648.956 305.371 653.551 308.484 657.694C310.206 656.401 312.13 658.07 313.562 659.024C314.481 659.595 315.673 660.024 316.034 661.031C316.728 661.429 317.402 661.868 318.041 662.306L318.105 662.099C318.881 659.62 320.399 656.293 322.867 655.187C325.751 653.976 328.053 656.389 327.189 659.278C326.66 661.857 325.833 664.328 324.952 666.817C333.826 672.166 343.53 676.222 353.739 678.257L354.087 678.326C356.55 678.814 359.053 679.153 361.312 680.321C365.053 682.371 367.469 686.268 368.98 690.164C369.505 690.292 369.987 690.75 370.103 691.252L371.099 695.55C371.431 696.982 371.761 698.415 372.086 699.849C372.265 700.626 371.849 701.605 370.989 701.778C365.064 702.961 359.11 703.997 353.13 704.872C336.155 706.441 314.313 711.956 298.55 704.212C296.035 709.374 289.032 707.897 284.279 708.287C281.393 708.073 261.131 709.173 261.324 706.729L261.212 706.309C260.316 702.894 259.508 698.306 262.772 695.955C262.568 692.101 262.416 688.245 262.352 684.389C261.215 680.729 261.412 676.681 261.181 672.86C261.211 670.013 260.546 666.725 262.105 664.179C262.242 662.491 266 663.392 267.244 662.773L267.135 662.372C265.418 656.161 263.032 650.117 258.213 645.569C254.046 645.845 249.868 645.893 245.697 645.699C239.347 645.724 236.45 642.977 235.067 637.013C234.077 633.514 233.11 630.009 232.158 626.499C224.728 598.884 217.981 571.025 209.77 543.624C206.631 534.44 203.159 525.369 199.658 516.321C197.285 510.188 194.908 504.057 192.534 497.925C191.314 494.775 190.112 491.607 189.051 488.4C188.725 487.414 188.429 486.422 188.15 485.427C169.732 536.513 163.89 590.788 160.631 644.682C160.334 648.986 160.282 653.338 159.305 657.55C159.006 658.846 157.909 659.204 156.94 658.919C155.156 659.863 153.836 659.974 151.54 660.01L151.557 660.749C151.687 666.045 152.012 671.327 153.216 676.498C153.694 678.658 154.549 680.758 155.012 682.907C156.883 682.272 158.795 681.794 160.761 681.559C161.754 681.44 162.322 682.27 162.362 683.121C162.728 683.523 163.096 683.922 163.471 684.317L163.661 684.074C165.426 681.797 167.69 678.677 170.76 678.421C172.156 678.335 173.431 679.122 173.736 680.54C174.027 683.797 171.324 687.364 169.043 689.525C177.494 696.503 187.969 700.533 198.66 702.589L199.077 702.658C205.936 703.778 214.396 704.661 217.666 711.742L217.735 711.894C218.502 713.62 219.227 716.235 217.977 717.816C218.125 719.976 217.725 722.199 217.673 724.379C217.619 725.266 217.02 725.78 216.172 725.878C194.348 727.047 161.083 737.242 142.391 725.112C142.007 726.456 141.61 727.797 141.242 729.146C141.081 729.74 140.48 730.227 139.85 730.203C128.28 729.788 116.671 729.601 105.115 728.897C104.779 728.903 104.498 728.753 104.264 728.482C103.993 728.814 103.3 728.723 103.207 728.252C103.044 727.423 103.043 726.583 102.968 725.744C102.882 724.772 102.622 723.876 102.469 722.926C102.188 721.172 102.315 719.29 102.489 717.53L102.534 717.085C102.656 715.922 102.873 714.6 103.926 713.941L103.996 713.899C104 713.897 104.004 713.895 104.007 713.893C104.124 713.523 104.401 713.202 104.75 712.948L104.771 712.925C104.22 711.613 104.432 709.954 104.593 708.587C105.037 703.833 106.37 699.128 108.568 694.907C109.194 691.697 109.954 688.375 111.083 685.32C111.052 685.18 111.228 685.062 111.363 685.123C111.41 685.099 111.456 685.08 111.502 685.065C111.508 685.018 111.517 684.971 111.532 684.927C111.727 684.352 112.33 684.038 112.894 683.949C113.372 683.873 113.786 684 114.215 684.108C114.524 675.811 113.542 667.527 113.442 659.232C112.651 659.615 111.764 659.276 111.036 658.837C108.922 659.161 107.424 657.363 106.844 655.471L106.504 653.938C103.457 640.133 100.711 626.208 99.2351 612.136C97.1946 592.495 99.6595 572.835 102.654 553.424C110.782 502.311 104.894 450.645 104.315 399.251C103.83 393.64 103.63 387.967 103.013 382.36C100.721 382.087 98.9881 379.946 98.2137 377.894C97.0001 374.643 97.8764 370.891 98.1828 367.549C98.5224 363.844 98.7718 360.133 98.9335 356.419L98.9524 355.334C99.0077 352.438 99.1337 349.522 100.097 346.765C89.8244 338.874 76.2017 332.674 71.8547 319.481C69.8769 317.703 70.2752 309.464 69.9524 306.44C68.633 280.294 70.8687 253.975 76.5338 228.415C83.6238 193.585 98.1484 162.373 138.86 163.865C138.829 163.841 138.796 163.815 138.765 163.789C139.195 163.647 139.639 163.786 139.955 164.071C146.887 164.959 153.513 160.872 156.976 154.998C157.826 153.533 158.458 152.005 158.795 150.343L158.821 150.211C159.174 148.383 159.273 146.03 161.554 145.573ZM108.96 714.385C107.976 714.928 106.9 714.993 105.994 715.717C105.357 719.191 105.41 722.796 106.174 726.245C117.028 726.361 127.895 726.908 138.744 727.28C139.181 725.605 139.594 723.919 140.05 722.249L140.061 722.214L140.084 722.148C141.21 722.186 142.337 722.219 143.463 722.247C160.124 734.164 194.642 724.037 214.754 723.042L214.961 719.703C214.758 719.845 214.556 719.923 214.362 719.951C214.549 719.463 214.217 718.828 213.554 719.013C212.484 719.312 211.408 719.587 210.329 719.846C210.247 719.813 210.154 719.798 210.05 719.807C200.608 720.612 191.128 720.536 181.661 720.565C172.227 720.593 162.802 720.99 153.367 720.964C149.518 720.953 145.67 720.895 141.823 720.781C130.743 718.727 119.742 716.304 108.96 714.385ZM367.584 694.023C367.117 694.361 366.507 694.389 365.859 694.478L365.766 694.491C365.173 694.577 364.578 694.658 363.982 694.703C362.507 695.655 359.57 695.525 358.148 695.796C326.937 698.909 295.509 695.215 264.266 697.716C262.775 699.839 263.138 702.468 263.931 704.84C272.656 705.168 281.388 705.345 290.117 704.968L290.815 704.942C291.892 704.9 292.998 704.823 293.995 704.416C294.886 704.053 295.98 703.154 295.84 702.076L295.831 702.015C295.617 700.778 296.919 699.33 298.184 700.209C310.122 708.113 326.343 704.139 339.793 703.361C349.485 702.338 359.124 700.88 368.69 699.033C368.32 697.364 367.951 695.693 367.584 694.023ZM149.558 659.009C148.557 659.124 147.555 659.227 146.552 659.317C142.526 659.68 138.487 659.862 134.448 659.978L132.562 660.029C128.798 660.13 125.01 660.22 121.253 660.016C119.353 659.913 117.405 659.689 115.568 659.173C117.184 667.634 118.015 676.25 117.989 684.86C118.494 685.296 118.392 686.016 118.258 686.567L118.384 686.941C118.679 687.817 118.96 688.707 119.072 689.603C130.735 696.525 140.417 689.435 151.05 684.471C149.298 679.922 148.765 674.935 148.471 670.104C148.308 666.347 148.589 662.68 149.558 659.009ZM170.757 681.353C170.271 681.408 169.821 681.712 169.427 681.98C167.805 683.14 166.404 684.512 165.124 685.995C165.616 686.479 166.117 686.955 166.627 687.422C168.543 685.882 170.048 683.736 170.757 681.353ZM294.712 637.363L293.133 637.894C283.386 641.159 273.436 644.223 263.081 645.137C263.637 645.687 264.105 646.339 264.516 647.031C264.874 647.335 265.235 647.723 265.133 648.183C265.466 648.854 265.76 649.534 266.04 650.176C267.678 654.064 269.569 657.889 270.949 661.891C271.35 663.562 272.925 665.898 272.191 667.516C283.199 672.3 296.893 670.169 305.302 661.417L305.005 660.981C300.173 653.837 295.926 645.988 294.712 637.363ZM324.57 657.559C323.902 656.985 322.731 658.569 322.435 658.962C321.337 660.42 320.582 662.015 320.022 663.684C320.727 664.166 321.437 664.619 322.154 665.082L322.194 665.016C322.861 663.866 325.261 658.289 324.57 657.559ZM115.225 657.436L115.237 657.495C115.828 657.587 116.42 657.669 117.014 657.736C118.459 657.9 119.922 657.973 121.38 658.003C119.328 657.707 117.275 657.467 115.225 657.436ZM130.87 379.299L130.384 379.25L129.76 379.173C121.749 378.18 113.676 376.853 105.609 378.143C106.726 383.301 106.801 388.706 107.162 393.99C108.884 444.883 115.084 496.068 108.137 546.842L107.922 548.381C105.39 566.438 102.378 584.559 103.59 602.857C104.536 619.535 107.937 635.931 111.316 652.252C112.128 652.456 112.94 652.66 113.755 652.859C113.779 652.633 113.92 652.763 113.947 652.906C123.954 655.573 134.399 655.802 144.681 655.132C146.62 655.021 148.55 654.864 150.487 654.731C151.981 654.083 153.577 653.67 155.197 653.385C158.612 601.593 163.085 549.21 179.138 499.554C189.357 468.009 202.122 437.29 209.675 404.937C209.936 404.029 211.313 404.411 211.09 405.328L210.854 406.569C208.936 416.701 207.208 426.866 204.222 436.77C206.489 434.305 209.074 432.13 211.214 429.551C211.881 428.738 212.494 427.882 213.021 426.97C213.521 425.839 214.324 424.954 215.567 424.69C216.137 424.46 216.666 424.943 216.854 425.419C217.377 426.734 217.156 427.672 216.395 428.831L216.205 429.116C212.847 434.07 207.472 436.963 203.037 440.851C199.324 453.222 195.05 465.417 190.861 477.631C190.808 480.06 191.25 482.459 191.963 484.776C192.774 487.158 193.5 489.682 194.746 491.915C212.069 528.055 220.799 567.434 231.324 605.888C234.095 616.144 236.9 626.395 239.921 636.581L239.965 636.767C240.653 639.638 241.727 640.793 244.88 640.788C260.679 641.513 276.9 638.939 291.293 632.597C283.365 611.482 277.86 589.631 273.58 567.486C271.421 557.018 269.671 546.467 268.197 535.875C266.145 522.351 264.334 508.797 262.5 495.311C258.746 468.88 258.911 441.984 254.128 415.714C252.494 415.768 251.094 413.83 252.088 412.384C251.741 410.945 252.051 409.373 252.565 408.044L252.503 407.755C246.899 412.723 239.586 413.351 243.339 403.802L243.598 403.153C246.417 396.147 250.002 388.661 248.411 380.975C232.156 389.635 212.286 388.238 194.815 384.443C196.176 389.381 192.51 392.409 188.374 389.093C187.628 388.491 186.897 387.868 186.18 387.223C187.231 391.384 186.667 395.745 185.695 399.87L185.603 400.345C185.13 402.82 184.593 406.104 182.708 407.817C181.333 409.063 179.262 408.533 178.644 406.753C178.299 400.865 176.654 395.073 173.643 389.953C174.146 393.696 174.023 397.54 173.099 401.129C172.743 402.501 172.249 403.902 172.132 405.321L172.15 405.554C172.327 408.055 171.994 410.352 168.869 410.403C161.458 409.099 166.133 391.594 161.414 386.059C159.981 392.74 161.651 401.522 155.135 405.956C153.335 407.08 151.138 406.428 150.772 404.248L150.902 402.534C151.679 392.077 151.534 388.943 144.816 379.141C140.261 380.23 135.49 379.764 130.87 379.299ZM262.886 648.031C262.891 648.071 262.894 648.109 262.896 648.15C262.974 648.229 263.051 648.309 263.128 648.39L263.243 648.512L263.11 648.185C263.036 648.138 262.96 648.084 262.886 648.031ZM256.77 414.706L256.465 414.964C256.414 415.006 256.362 415.049 256.31 415.091C256.581 416.297 256.835 417.506 257.081 418.716L257.033 417.919C256.988 417.135 257.113 415.712 256.77 414.706ZM251.823 307.522C249.531 296.875 247.246 292.381 250.149 307.717L250.464 309.373C251.722 316.014 253.047 323.542 254.291 331.646L254.55 333.343C255.849 341.746 257.891 354.046 258.042 363.9C258.213 375.081 252.526 378.399 250.278 379.847C249.858 381.077 250.391 382.103 250.746 383.284C251.223 385.18 251.347 387.003 251.211 388.951C250.739 395.598 247.181 401.602 245.564 407.909C247.636 407.341 249.948 405.477 251.758 404.001C254.972 401.448 257.215 397.666 258.184 393.655C258.645 391.762 258.31 389.423 259.602 387.87C259.982 387.413 260.804 387.458 261.191 387.87C262.245 388.991 262.145 390.366 261.974 391.8C261.4 396.678 259.25 401.461 255.788 404.973C255.625 406.775 255.086 408.381 254.729 410.095C254.866 410.479 255.004 410.862 255.135 411.249C257.48 409.226 259.441 406.781 260.96 404.086C267.741 392.2 265.373 378.513 263.618 365.551C263.266 366.419 262.463 366.764 261.682 366.679C261.234 367.8 260.061 367.085 260.015 365.636C259.724 356.604 258.522 343.764 256.31 330.611C254.992 322.773 253.396 314.828 251.823 307.522ZM166.2 348.533C162.837 358.951 149.583 360.983 141.84 367.338C145.729 377.577 156.613 388.543 153.411 401.752L153.393 401.851C153.297 402.357 152.981 403.785 153.321 404.053C153.537 404.224 154.867 402.927 155.1 402.671C159.757 397.139 157.047 389.316 159.666 383.009C160.011 382.17 161.084 381.675 161.811 382.445C165.086 385.908 165.878 390.578 166.38 395.141L166.397 395.298C166.8 398.847 166.579 402.503 167.632 405.954L167.671 406.076C167.895 406.743 168.314 407.683 168.781 407.853C170.071 408.319 169.586 406.257 169.631 405.442C169.767 403.086 170.769 400.88 171.121 398.559C171.871 393.582 171.123 388.361 169.468 383.642C168.943 382.144 171.009 381.613 171.807 382.658C175.12 387 177.775 391.826 179.525 397.004C180.231 399.093 180.606 401.207 181.076 403.335C184.01 394.446 183.925 385.101 177.281 377.814C175.709 375.929 178.328 373.213 180.022 375.081C181.778 377.17 183.497 379.281 185.406 381.236C187.288 383.13 189.102 385.462 191.431 386.813C191.053 378.305 181.907 374.46 177.029 368.634C172.057 362.767 169.337 355.45 166.2 348.533ZM122.245 276.681C120.465 282.087 118.378 287.397 116.769 292.86C116.435 296.557 117.575 298.09 120.295 300.437C121.473 293.731 121.96 286.93 122.59 280.151C122.494 278.993 122.475 277.824 122.245 276.681ZM123.124 274.025L122.946 274.572L123.005 274.677L123.062 274.783L123.124 274.025ZM231.672 206.377L232.352 210.853C234.85 227.263 237.427 243.67 240.974 259.892C241.169 260.786 242.322 259.586 242.11 257.855C239.929 240.056 231.702 206.167 231.67 206.361L231.672 206.377ZM210.679 170.39C210.838 170.579 210.988 170.778 211.133 170.98C211.102 170.8 211.071 170.617 211.038 170.435C210.917 170.42 210.798 170.406 210.679 170.39Z" fill="black"/>
<path fill-rule="evenodd" clip-rule="evenodd" d="M181.785 54.225C183.013 54.3269 184.248 54.4999 185.461 54.7275C189.149 54.1255 192.966 54.7938 196.543 55.9528C204.919 58.6666 212.982 63.3783 219.294 69.5287C222.543 72.6952 225.2 76.3428 226.837 80.5853C227.668 82.7373 228.136 85.0339 228.271 87.3353L228.286 87.6142C228.324 88.3777 228.341 89.2933 228.25 90.2003C228.542 92.0312 228.803 93.877 228.823 95.7288C228.832 96.5865 228.776 97.4428 228.672 98.2935L228.707 98.3743C228.556 99.3899 228.375 100.401 228.169 101.407L228.117 101.474C228.089 101.678 228.056 101.882 228.026 102.087C227.914 102.604 227.797 103.12 227.672 103.634C227.404 104.747 227.106 105.853 226.785 106.952C226.729 107.145 226.783 107.297 226.888 107.397C226.655 108.233 226.399 109.064 226.116 109.885C226.255 110.604 226.396 111.323 226.545 112.039C227.321 115.765 227.979 119.514 228.862 123.219C230.653 130.737 233.375 138.134 234.123 145.863C234.705 151.857 233.738 158.41 230.005 163.306C226.787 167.525 221.947 170.016 216.72 170.68C214.219 171 211.654 170.853 209.208 170.222L208.941 170.152C207.716 169.823 206.157 169.308 205.019 168.478C203.784 168.044 202.617 167.243 201.915 166.461C200.955 165.392 199.908 163.565 200.169 162.046C198.742 162.162 197.305 162.195 195.892 162.19C192.41 162.183 188.898 161.908 185.549 160.898C182.562 159.998 179.08 158.493 177.313 155.777C177.23 155.649 177.368 155.464 177.512 155.514C178.94 156.014 180.274 156.689 181.747 157.071C183.196 157.445 184.644 157.798 186.138 157.952C189.059 158.253 192.023 158.212 194.953 158.068L195.959 158.016C199.095 157.848 202.335 157.609 205.268 156.438C206.419 155.979 207.483 155.337 208.454 154.575L208.607 154.454C209.127 154.032 209.664 153.677 210.21 153.34C210.288 153.241 210.367 153.141 210.445 153.039C211.687 151.449 213.022 149.915 214.14 148.235C216.363 144.9 217.221 141.435 217.337 137.458C217.459 133.26 217.473 129.057 217.523 124.857L217.541 123.458C217.605 118.656 217.615 113.838 217.985 109.048C218.156 106.822 218.399 104.607 218.773 102.408L218.855 101.937L219.458 98.5459C219.603 97.7289 219.688 96.887 219.873 96.0736C219.665 95.7323 219.424 95.4038 219.144 95.091C218.886 94.8025 218.625 94.5226 218.364 94.2446L218.175 94.0788C217.745 93.6955 217.375 93.3297 217.029 92.8025L216.945 92.6721C216.573 92.2239 216.222 91.7551 215.912 91.24L215.854 91.14C215.777 91.0431 215.7 90.9459 215.62 90.8502C215.371 90.5518 215.111 90.27 214.841 90C213.896 91.8226 212.558 93.4013 210.665 94.3882C209.98 94.7452 209.145 94.4394 208.921 93.6801C208.354 91.7631 207.494 89.9806 206.356 88.3663C204.455 91.5228 201.441 93.9917 197.89 95.1964C197.002 95.4974 196.221 94.5684 196.429 93.7386C197.07 91.1881 197.198 88.5945 196.821 86.0306C195.48 86.9867 194.098 87.8871 192.678 88.7218C189.519 91.159 186.171 93.3523 182.489 94.9272C181.639 95.2912 180.358 94.6795 180.745 93.589C181.07 92.6709 181.338 91.7374 181.509 90.7787L181.547 90.557C181.548 90.5503 181.549 90.5437 181.55 90.5368C173.022 102.276 152.343 113.589 150.756 113.698L150.713 113.698C151.704 114.643 152.504 115.811 153.028 117.153C153.577 118.562 151.336 119.175 150.756 117.828L150.737 117.783C149.846 115.497 147.64 113.858 145.24 113.47C143.789 113.733 142.418 114.431 141.483 115.49C139.642 117.573 139.626 120.085 140.882 122.455L141.066 122.801C141.747 124.067 142.463 125.336 142.846 126.726C143.314 128.433 142.96 130.163 143.267 131.867L143.283 131.957C143.428 132.715 143.742 133.577 144.646 133.37C144.716 133.354 144.784 133.332 144.851 133.309C145.042 133.461 145.271 133.586 145.557 133.669C146.257 133.873 147.03 133.774 147.727 133.61C148.4 133.451 149.054 133.202 149.683 132.91C149.753 133.082 149.796 133.261 149.8 133.434C149.821 134.315 149.455 135.041 148.893 135.631C149.79 136.764 150.557 138.01 151.422 139.167C152.664 140.826 153.935 142.45 155.286 144.021C156.692 145.659 158.224 147.206 159.812 148.669C160.926 149.693 162.767 150.788 163.465 152.274C164.268 152.523 164.949 153.136 165.199 154.146C165.652 155.976 165.785 160.263 165.429 162.124C165.075 163.968 163.726 165.117 162.235 166.089C161.822 166.359 161.354 166.331 160.974 166.129C160.639 166.454 160.261 166.753 159.829 167.018C158.233 168.002 156.378 168.36 154.54 168.566C152.058 169.357 149.382 169.566 146.736 169.073C145.872 169.175 145.007 169.267 144.14 169.343C135.273 170.113 126.258 169.457 117.608 167.35C113.64 166.383 109.892 164.625 106.401 162.368C100.384 158.477 97.8367 147.556 101.328 137.115L101.605 136.291C103.178 131.627 104.875 126.987 107.149 122.636L107.421 122.118C109.511 118.149 111.811 114.184 114.865 110.873C116.395 109.216 118.171 107.711 120.178 106.659C120.94 106.26 121.829 105.983 122.698 105.669L122.716 105.452L122.735 105.235C122.792 104.539 122.865 103.845 122.959 103.153C123.31 100.563 123.805 98.0107 124.509 95.491C125.214 92.9681 126.08 90.4875 127.122 88.0833C128.861 84.0721 131.045 80.2672 133.566 76.6969C133.746 76.3281 133.929 75.9607 134.116 75.5962C136.242 71.4509 138.994 67.4976 142.545 64.4378C146.62 60.9253 151.529 58.7448 156.651 57.2137C161.964 55.6281 167.507 54.5426 173.043 54.1776C175.957 53.9856 178.876 53.9832 181.785 54.225ZM142.932 120.82C145.599 119.078 149.232 120.272 150.584 123.103C151.56 125.153 148.332 126.307 147.822 124.264C147.313 122.216 145.131 120.749 143.034 121.062C142.889 121.086 142.799 120.906 142.932 120.82Z" fill="black"/>
<path fill-rule="evenodd" clip-rule="evenodd" d="M197.255 143.848C195.659 143.198 194.235 142.114 193.193 140.729C192.831 140.247 192.737 139.739 192.813 139.274C192.899 138.751 193.209 138.277 193.631 137.959C194.055 137.64 194.586 137.483 195.099 137.563C195.544 137.633 195.988 137.876 196.339 138.381L196.412 138.482C197.031 139.318 197.838 140.004 198.757 140.446C199.643 140.872 200.634 141.071 201.66 140.955C203.613 140.735 204.959 139.681 206.39 138.25C206.567 138.069 206.745 137.882 206.923 137.693C207.036 137.521 207.192 137.411 207.365 137.353C207.558 137.289 207.776 137.293 207.976 137.362C208.168 137.429 208.34 137.556 208.456 137.725C208.565 137.886 208.628 138.085 208.607 138.313C208.476 139.796 207.699 141.12 206.595 142.16C205.369 143.315 203.744 144.113 202.214 144.393C200.528 144.702 198.811 144.481 197.255 143.848ZM203.009 120.962C204.803 122.05 207.535 124.587 205.606 127.284C203.335 129.662 200.065 126.935 198.454 125.702C196.96 124.746 195.282 127.204 196.668 128.32C208.31 136.923 213.035 121.247 203.916 119.683C202.912 119.511 202.539 120.626 203.009 120.962ZM182.146 110.955C182.344 108.501 186.09 107.944 186.462 110.372C186.796 112.548 186.403 114.547 185.421 116.506C184.483 118.377 182.124 117.504 181.946 115.8C181.707 113.516 182.022 112.482 182.146 110.955ZM210.659 109.869C211.182 109.186 211.936 108.72 212.839 108.984C215.662 109.807 214.83 113.806 213.839 115.752C213.3 116.809 211.559 117.077 210.772 116.147C209.49 114.629 208.875 111.598 210.506 110.103C210.55 110.025 210.599 109.947 210.659 109.869ZM185.381 100.215L185.827 100.137C187.206 99.8992 188.921 99.6704 189.897 100.777C190.415 101.364 190.593 102.455 189.897 103.016C188.674 104.005 187.321 103.622 185.855 103.705C184.646 103.775 183.485 103.974 182.321 104.306C179.768 105.034 177.687 106.364 175.506 107.824C175.22 108.016 174.928 107.65 175.064 107.383C176.323 104.922 178.763 102.901 181.207 101.669C182.511 101.011 183.938 100.465 185.381 100.215ZM208.086 99.1128L208.428 99.1825C212.141 99.9572 216.966 101.505 218.725 105.145C218.792 105.66 218.721 105.77 218.664 105.842L218.644 105.866C218.597 105.928 218.559 106.013 218.336 106.083C218.274 106.068 218.211 106.052 218.148 106.036C217.341 105.825 216.704 105.534 216.086 105.233L215.417 104.904C214.64 104.524 213.856 104.158 213.026 103.887C211.254 103.31 209.431 102.904 207.58 102.687C207.179 102.64 206.792 102.505 206.488 102.273C206.198 102.053 205.977 101.749 205.876 101.344C205.746 100.821 205.783 100.425 206.065 99.9522C206.277 99.5975 206.579 99.3516 206.927 99.2104C207.282 99.0665 207.685 99.0326 208.086 99.1128Z" fill="black"/>
<path fill-rule="evenodd" clip-rule="evenodd" d="M223.034 123.084C221.435 125.227 218.471 125.91 215.737 125.674C209.84 125.108 207.984 118.424 207.79 113.229C211.745 114.339 207.456 106.477 220.974 105.612C225.739 105.216 224.425 108.088 226.53 110.186C226.487 114.59 225.753 119.376 223.034 123.084ZM194.946 118.023C191.465 134.294 172.399 130.424 170.397 115.756C172.246 114.454 171.759 111.237 174.056 110.072C177.697 107.75 182.249 107.85 186.384 107.904C191.669 108.266 193.176 110.451 195.891 112.835C195.76 114.428 195.383 116.315 194.946 118.023ZM230.587 102.917C230.391 102.885 230.195 102.854 230 102.825C229.847 102.739 229.668 102.672 229.459 102.632C228.983 102.512 228.51 102.43 228.038 102.386C221.262 100.865 205.586 103.025 204.939 108.796C202.781 109.515 200.914 108.871 198.413 108.935C196.51 100.994 163.598 102.115 162.015 106.903C162.009 106.901 162.003 106.9 161.997 106.898C160.476 106.428 158.234 106.541 156.493 106.467C152.776 106.389 149.055 106.72 145.418 107.502C138.608 108.582 129.314 109.847 134.05 118.333C134.051 118.335 134.052 118.337 134.053 118.338L134.054 118.337C134.87 119.172 136.255 118.5 136.307 117.37C134.714 113.349 138.311 112.866 141.078 111.711C147.964 109.242 154.974 108.9 162.095 109.663C162.631 110.293 163.444 110.842 164.303 111.129C169.065 111.918 166.555 115.443 169.565 115.955C169.012 128.242 183.96 134.949 192.621 126.872C196.079 123.498 196.903 118.5 197.705 113.995C198.129 113.899 198.398 113.668 198.556 113.362C199.576 112.346 200.216 111.408 202.232 111.129C204.248 110.85 205.8 111.41 206.01 111.581C206.063 111.688 206.12 111.794 206.186 111.901C206.278 112.06 206.403 112.187 206.546 112.287C204.555 124.522 214.073 132.26 223.681 125.914C227.856 121.995 228.739 115.994 228.913 110.638C229.479 110.297 229.837 109.637 229.641 108.806C229.371 107.661 230.005 106.67 231.013 106.172C232.323 105.526 232.091 103.166 230.587 102.917Z" fill="black"/>
</svg>
