<svg width="391" height="780" viewBox="0 0 391 780" fill="none" xmlns="http://www.w3.org/2000/svg">
<path fill-rule="evenodd" clip-rule="evenodd" d="M319.984 259.197L319.329 259.78C308.617 269.301 297.253 278.805 283.841 284.185C282.024 284.847 280.131 285.026 278.265 285.42C262.666 285.574 252.073 273.502 242.195 263.093C243.022 245.28 242.338 226.888 235.295 210.242L235.127 209.814C233.404 205.46 231.298 201.143 227.929 197.816C227.846 197.735 227.732 197.856 227.803 197.942C230.678 201.461 232.351 205.759 233.554 210.095L233.614 210.316C237.713 225 238.426 240.409 237.887 255.575L237.87 256.035C237.502 266.283 236.616 276.586 237.851 286.813C238.752 297.369 243.426 306.913 248.517 316.029C252.955 324.449 256.271 333.45 258.282 342.752C257.636 345.497 255.293 347.51 252.858 349.038C248.457 351.754 243.358 353.24 238.378 354.484C218.001 359.71 196.777 362.136 175.812 359.606C153.444 356.705 131.615 350.702 109.954 344.589C107.726 343.906 105.254 343.288 103.126 342.226C102.983 342.07 102.815 341.937 102.632 341.828C102.264 336.636 101.777 331.49 101.413 326.311C101.904 316.278 104.694 306.522 108.968 297.462C116.779 282.608 114.199 273.575 109.437 258.441C108.343 254.589 107.562 250.56 107.659 246.59C108.158 244.09 108.64 241.587 109.084 239.077C109.27 238.596 109.471 238.119 109.697 237.645C109.74 237.555 109.619 237.484 109.562 237.567C109.462 237.709 109.367 237.854 109.272 238.001C109.602 236.086 109.908 234.168 110.177 232.246C110.212 231.993 109.885 231.893 109.79 232.14C101.231 255.137 96.2618 279.789 96.4663 304.364C96.5876 311.6 97.0864 318.833 97.6183 326.053L97.5689 326.749C97.3803 329.48 97.2811 332.264 98.2382 334.867C98.442 339.332 99.2005 343.744 98.9649 348.222C98.4125 352.311 97.1776 355.205 94.1033 358.032C91.0587 361.121 87.574 363.676 83.6041 365.449C67.0998 317.259 57.4302 267.201 81.2971 219.55C92.3743 196.35 111.443 175.507 137.034 168.877C133.387 172.901 136.23 178.92 138.853 182.756L139.013 182.989C151.571 201.567 179.226 205.993 199.967 201.952C210.014 200.231 219.434 193.737 220.236 182.877C220.859 175.603 216.712 168.429 210.442 164.845L211.206 164.929C217.308 165.606 223.233 166.583 227.917 170.942C245.179 186.887 253.187 209.597 263.383 230.156L263.789 230.904C268.156 238.99 272.377 247.723 279.633 253.587L278.277 254.741C278.106 254.888 278.288 255.22 278.505 255.132C279.203 254.85 279.896 254.554 280.587 254.253C281.562 255.033 282.682 254.244 282.798 253.253C299.207 245.411 313.075 232.973 325.948 220.356C329.198 227.87 334.679 236.067 343.453 237.295C335.169 244.08 327.838 251.925 319.984 259.197ZM188.095 403.282C189.16 402.676 190.211 402.048 191.249 401.396C192.961 404.132 192.526 406.536 192.341 409.558C191.95 414.598 192.037 419.726 191.014 424.687C189.24 437.347 188.19 450.575 185.555 462.912C185.497 463.602 185.435 464.291 185.382 464.981C185.311 465.888 183.886 465.893 183.957 464.981C185.692 444.502 189.374 423.903 188.095 403.282ZM197.753 649.984C211.121 652.2 224.767 650.628 238.141 649.204L240.104 648.95C246.434 648.128 252.801 647.265 259.019 645.887C259.542 645.454 260.35 645.263 260.664 644.622L261.048 644.649C261.372 644.466 261.703 644.294 262.039 644.132C263.015 643.957 263.811 643.745 264.82 643.469C266.189 643.933 266.331 645.135 265.402 645.986C265.495 646.42 264.975 646.668 264.635 646.86C264.581 646.97 264.496 647.074 264.369 647.163C263.759 647.547 263.143 648.007 262.445 648.197C260.739 649.968 257.075 650.642 255.057 651L254.858 651.036C238.086 654.033 220.928 654.839 203.945 653.484C201.017 653.25 198.091 652.951 195.176 652.588L194.381 652.487C191.864 652.162 189.087 652.036 187.152 650.197C186.188 649.282 184.257 649.86 184.311 651.314L184.314 651.37C184.483 653.759 178.889 651.783 177.782 651.474L177.75 651.465C174.653 650.626 171.575 649.699 168.469 648.9L167.707 648.753C165.008 648.218 164.798 647.947 164.768 644.608L164.668 643.7C164.533 642.49 164.387 641.284 164.191 640.084L164.115 639.633C164.028 639.129 163.168 636.005 164.6 636.42C164.78 636.472 164.956 636.327 164.966 636.152C175.028 642.551 185.917 647.905 197.753 649.984ZM144.606 658.037L145.46 657.526C146.89 656.662 148.327 655.724 149.341 654.411C151.015 654.474 151.703 652.9 151.64 651.496C153.045 656.06 151.303 659.713 147.185 662.024C132.839 669.628 114.485 668.508 100.205 661.278C98.8343 660.571 97.4949 659.805 96.1958 658.978L95.9035 658.792C95.4166 658.48 94.9446 658.146 94.6854 657.611C94.0605 655.781 94.0691 653.978 94.0014 651.939C95.0834 653.396 96.879 654.406 98.3712 655.409C101.219 657.312 104.304 658.822 107.503 660.033C119.348 664.428 133.418 664.159 144.606 658.037ZM101.219 283.237C102.363 273.319 104.323 263.539 106.223 253.748C106.995 264.271 112.464 274.518 110.032 285.164C107.654 293.733 102.56 301.335 100.383 309.979C99.9595 301.052 100.22 292.119 101.219 283.237ZM115.316 369.286C114.029 369.52 112.706 369.515 111.404 369.423C106.129 368.785 105.295 371.975 105.313 376.436C105.153 379.32 104.976 382.203 104.825 385.089L104.738 386.82C104.629 389.126 104.339 391.704 104.629 394.115C103.673 396.304 103.157 398.586 103.005 400.979C102.565 400.86 102.095 400.917 101.758 401.147C99.8222 397.701 99.3591 393.494 98.9602 389.614C98.7654 387.706 95.9583 387.618 95.9155 389.614C95.8609 392.328 95.8205 395.044 95.7731 397.758L95.6994 401.946L95.6996 402.008C95.7115 402.604 95.9814 404.111 95.2473 404.053L95.2055 404.048C93.8394 403.946 93.7765 399.09 93.481 397.879L92.3413 389.756C92.0852 387.939 89.4696 388.532 89.2898 390.117L89.2848 390.168C88.9649 393.881 88.6405 397.593 88.3658 401.308C88.2791 401.951 88.2674 403.113 87.5654 403.394C86.9453 402.837 86.8278 401.901 86.696 401.123C85.5285 390.405 83.3362 379.824 81.9844 369.131C82.8608 369.006 83.6635 368.461 83.92 367.622C90.953 366.186 98.3337 362.231 101.867 355.804C102.572 356.425 103.123 357.238 103.807 357.876C104.888 358.888 106.075 359.801 107.211 360.746C110.392 363.438 113.586 365.978 116.703 368.752C116.247 368.902 115.831 369.193 115.316 369.286ZM191.835 149.878C191.871 149.738 192.065 149.779 192.075 149.911C192.27 152.614 192.918 155.465 193.906 158.114C194.26 158.171 194.599 158.37 194.846 158.757C195.179 159.276 196.769 159.638 197.599 159.882L197.718 159.918C201.163 160.981 204.758 161.41 208.331 161.789C225.135 162.717 231.251 167.979 240.732 181.273C251.985 196.249 258.299 214.024 266.782 230.554C268.87 234.574 271.123 238.499 273.6 242.293L273.837 242.653C276.049 246.017 278.497 249.425 281.877 251.695C290.056 244.844 298.802 238.728 306.893 231.771L307.649 231.116C313.719 225.873 319.517 220.318 325.033 214.497C325.684 213.809 326.905 213.629 327.807 214.032C328.16 208.793 329.641 203.653 331.007 198.591C332.44 192.07 334.931 187.663 342.444 189.276C345.468 181.669 349.517 174.244 355.649 168.689L356.042 168.335C357.347 167.151 359.061 165.453 360.894 165.606C362.559 165.744 363.414 167.249 363.481 168.78C363.557 170.596 362.764 172.445 362.196 174.147L362.148 174.293C361.417 176.528 360.628 178.744 359.795 180.943C358.992 183.06 358.132 185.155 357.232 187.231C356.315 188.968 355.64 191.843 353.969 192.893C353.107 193.406 352.218 192.717 352.126 191.836C351.996 190.682 352.661 189.668 353.15 188.663C353.601 187.738 354.043 186.809 354.473 185.875C356.2 182.116 357.75 178.278 359.082 174.364C359.478 173.046 361.098 169.62 360.536 168.436C359.973 168.441 358.815 169.628 358.405 169.981C351.965 175.311 347.779 182.675 342.99 189.395C345.995 190.253 349.257 190.655 351.753 192.67C356.887 197.146 352.765 206.007 345.883 204.357C347.803 208.435 349.455 215.022 346.051 218.706C345.028 219.663 343.04 219.358 342.729 217.832C342.396 216.21 342.795 214.821 343.161 213.25C343.824 210.051 344.225 206.775 343.774 203.518L343.632 203.434C342.465 202.727 341.732 201.933 341.767 200.471C341.615 199.413 342.743 197.989 343.876 198.854C344.244 199.134 344.693 199.155 345.08 199.437C345.736 200.061 346.552 200.551 347.483 200.544L347.574 200.541C348.77 200.532 349.654 199.811 350.02 198.693C351.022 195.624 347.552 194.593 345.296 194.003L344.713 193.823C338.555 191.942 336.323 191.912 334.775 199.141C333.099 204.534 331.622 210.087 328.788 215.016L329.141 215.857C331.99 222.636 335.567 230.44 343.227 232.519C343.499 230.254 345.951 230.173 347.726 230.229C350.016 230.106 352.315 228.945 353.933 227.276C355.347 225.854 356.058 223.873 357.622 222.605C356.914 220.998 358.512 219.225 360.182 220.149C361.308 220.77 361.987 221.657 363.345 221.837C364.549 221.998 365.658 221.578 366.573 220.808C368.959 218.794 367.824 215.833 368.408 213.195C367.639 214.525 366.361 215.544 364.993 216.248C355.859 221.467 355.951 211.235 360.999 212.916C366.482 211.67 366.39 209.69 364.34 205.042L364.304 204.933C363.97 203.958 363.226 202.233 363.918 201.182C363.956 201.129 364.024 201.113 364.074 201.16C364.701 201.776 364.948 202.81 365.478 203.535L366.109 204.288C368.026 206.595 370.031 209.336 368.786 212.416C368.919 212.387 369.064 212.444 369.109 212.605C369.698 214.745 370.869 216.848 370.627 219.137C370.12 224.155 364.675 226.91 360.165 224.818C359.298 231.269 352.93 235.911 346.548 235.624C346.346 236.508 345.69 237.285 344.676 237.366C335.283 252.395 298.361 291.06 280.255 289.444C278.523 290.228 276.32 289.835 274.486 289.598C260.424 287.766 248.672 277.494 242.116 265.319C239.707 305.2 253.324 304.716 262.436 337.756C263.348 338.327 263.88 339.574 263.172 340.629C263.563 342.628 264.364 344.676 264.056 346.727C263.904 347.312 263.597 347.846 263.319 348.381C262.748 349.474 261.24 349.343 260.534 348.493C261.731 352.819 261.221 357.361 260.914 361.772C260.726 364.363 260.74 366.918 260.738 369.511C260.381 408.983 241.076 444.572 231.151 482.02C228.344 492.517 226.188 503.213 225.34 514.056C224.44 525.591 225.067 537.191 223.984 548.712C222.729 562.055 219.161 575.024 214.952 587.708C215.204 588.735 215.727 589.905 215.404 590.79C209.391 591.802 203.588 593.643 197.749 595.352C197.52 595.417 197.377 595.559 197.305 595.728L195.971 596.171C195.105 596.459 195.476 597.833 196.349 597.542L197.808 597.058C202.798 595.409 207.846 593.833 213.036 593.094L213.196 593.029C214.233 592.615 215.454 592.31 216.001 593.452C216.278 594.031 216.059 594.613 215.662 595.071C215.328 595.458 214.902 595.696 214.609 596.135C214.281 596.712 214.004 597.32 213.679 597.905C213.682 600.802 212.727 603.671 213.098 606.561C213.376 607.76 214.35 608.91 213.732 610.194L214.013 610.374C215.651 611.424 217.215 612.577 218.291 614.2C218.527 614.555 218.705 615.288 218.973 615.539C219.253 615.8 219.776 615.831 220.12 615.954C221.864 616.483 222.961 618.056 222.811 619.881C226.894 621.054 225.488 625.196 229.703 628.079C234.03 631.21 239.889 631.554 244.999 632.367L253.708 633.753L254.215 633.815C259.727 634.494 266.916 635.773 268.025 642.203L268.114 642.307C269.446 643.895 270.727 646.91 269.083 648.634C267.746 649.819 265.92 650.376 264.301 651.066C262.057 652.685 258.822 653.44 256.359 653.897C235.066 657.834 213.131 658.291 191.695 655.236L191.337 655.183C189.839 654.959 188.292 654.656 186.924 654.015C185.011 657.23 181.328 656.826 178.227 655.914C175.793 655.312 173.358 654.719 170.924 654.127L170.696 654.067C166.936 653.103 161.604 652.81 160.693 648.23C160.223 645.872 160.254 643.248 160.278 640.852L160.272 640.065C160.269 638.046 160.428 635.31 162.717 634.884C159.538 629.002 160.23 621.77 163.191 615.939L163.348 615.653C165.527 611.663 166.888 608.331 166.165 603.617C164.714 602.252 164.037 600.292 163.5 598.365C162.373 594.309 161.388 590.21 160.554 586.083L161.847 583.43C165.64 575.646 169.391 567.829 172.224 559.64C172.484 558.888 171.261 558.356 170.922 559.092C167.339 566.857 162.957 574.236 159.622 582.118C157.41 586.24 154.754 590.116 151.778 593.724L151.646 593.908C150.49 595.49 149.522 596.016 147.624 596.668C147.32 596.796 147.011 596.799 146.722 596.716C144.91 599.167 142.712 601.11 141.76 604.037C140.723 607.274 140.326 610.835 140.122 614.219C140.013 618.628 141.852 622.792 143.007 626.98C144.774 632.621 146.741 638.201 148.918 643.699C150.08 644.168 151.135 644.89 152.108 645.78C152.919 645.702 153.773 646.07 154.077 647.057L154.203 647.469C155.274 651.02 156.184 655.121 154.792 658.677C150.945 667.295 138.582 669.443 130.126 670.475C117.603 671.663 104.467 668.674 94.0418 661.547C92.5693 660.516 91.5647 659.343 91.3201 657.516L91.2944 657.288C90.9579 654.232 90.8797 650.606 93.0039 648.237C94.8198 632.736 97.7943 617.241 102.078 602.226C102.045 601.802 102.019 601.378 101.998 600.951C99.6064 598.464 98.6704 594.963 98.4021 591.601C98.3709 590.189 99.8021 589.894 100.912 589.721L101.321 589.717C104.937 589.692 108.669 589.869 111.896 591.217L111.737 591.224C111.574 591.232 111.403 591.251 111.279 591.336C112.896 591.853 114.66 592.083 116.205 592.763C117.35 592.82 118.348 593.362 119.508 593.46L119.692 593.472C119.898 593.49 120.055 593.429 120.168 593.327C123.282 593.882 126.379 594.628 129.489 595.085C130.386 595.217 130.773 593.847 129.867 593.714C125.707 593.103 121.566 591.982 117.377 591.463C116.451 591.104 115.556 590.644 114.627 590.273C114.573 590.15 114.472 590.04 114.306 589.963C113.288 589.485 112.23 589.092 111.148 588.764C108.374 587.905 105.46 587.544 102.571 587.373L102.776 585.309C106.1 551.586 108.525 516.959 122.315 485.553C119.385 478.791 115.4 472.351 112.837 465.395C111.773 462.615 111.127 459.781 110.284 456.944C109.736 455.585 109.283 454.208 109.063 452.751C105.687 437.32 103.778 421.624 101.786 405.972C100.445 404.865 99.5593 403.269 98.782 401.801L98.7786 402.024C98.7326 404.441 98.391 407.224 95.3456 407.153C92.8876 407.093 91.8115 405.261 91.2608 403.235C90.1902 407.472 85.433 407.704 84.0387 403.531C83.4165 401.849 83.4426 399.929 83.2574 398.163C82.2635 388.472 80.1892 378.788 80.7851 369.03C80.1581 368.816 79.6119 368.337 79.3457 367.539C67.471 331.6 56.9032 293.14 64.6118 255.217C72.3198 218.062 93.1946 176.469 132.643 165.933C140.63 163.917 148.742 163.233 156.929 162.712C158.11 160.429 158.874 157.832 159.028 155.246C159.076 154.5 159.04 153.761 159.038 153.014C159.035 152.324 159.33 151.502 159.192 150.857C159.159 150.701 159.373 150.649 159.43 150.793C159.603 151.246 159.957 151.473 160.197 151.855C160.793 152.934 160.951 154.214 161.109 155.42C161.701 160.125 160.354 164.967 157.505 168.745L157.406 168.875C156.523 170.055 154.841 172.193 153.103 171.169C151.588 170.274 152.558 168.453 153.462 167.478L153.53 167.405C154.754 166.135 155.779 164.777 156.613 163.295C152.909 164.282 149.234 165.368 145.541 166.395L145.366 166.492C142.474 168.065 138.177 169.75 138.557 173.651C146.246 196.837 180.268 202.795 201.294 197.259L201.63 197.168C205.653 196.06 209.681 194.278 212.419 191.031L212.532 190.895C217.392 185.146 217.02 175.648 210.934 170.927C207.319 167.969 202.325 166.398 197.815 165.374C199.127 167.55 202.028 169.086 202.555 171.664C202.691 172.548 202.202 173.39 201.225 173.409C198.746 173.456 196.917 170.811 195.616 169.033C192.9 165.315 191.359 160.819 191.03 156.24C190.866 154.012 191.277 152.004 191.835 149.878ZM355.888 191.708C355.756 191.618 355.829 191.351 356.007 191.424C362.747 194.215 365.498 204.21 360.424 209.714C358.74 211.489 356.216 212.515 353.917 211.584C351.091 211.106 349.441 208.256 349.079 205.63C349.055 205.508 349.192 205.452 349.27 205.529L349.283 205.545C350.351 206.86 352.034 207.74 353.568 208.413C353.998 208.18 354.468 207.996 354.94 207.886C355.613 207.735 356.301 208.261 356.237 208.946C359.41 208.366 360.681 204.594 360.778 201.732L360.78 201.646C360.909 197.686 359.116 194.024 355.888 191.708Z" fill="black"/>
<path fill-rule="evenodd" clip-rule="evenodd" d="M149.676 19.7044C151.137 19.4855 152.24 20.3898 152.765 21.6645L152.792 21.7332C152.961 22.1669 153.148 22.5888 153.35 23.0035C157.005 21.2141 162.22 21.6739 164.534 25.2978C166.184 27.8859 165.177 30.9576 164.555 33.7022L164.146 35.5106C164.936 36.012 165.532 36.91 165.504 37.8399L165.5 37.9115L165.334 40.4333C165.861 39.9 166.343 39.3193 166.773 38.7007C167.07 38.158 167.391 37.6247 167.735 37.108C169.761 34.0672 174.309 36.7098 172.637 39.9663C172.316 40.5944 171.955 41.1893 171.568 41.7629C171.131 42.609 170.772 43.4788 170.497 44.3724C171.288 44.716 171.896 45.4792 171.96 46.6311C172.11 49.3211 170.694 51.5656 168.443 52.9758C167.78 53.3906 167.096 53.4712 166.476 53.3171C166.367 53.4641 166.258 53.611 166.153 53.7603C167.051 54.4879 167.861 55.3175 168.557 56.2371C170.651 55.9242 172.758 55.7773 174.864 55.7725C177.439 54.514 180.521 54.5401 183.288 55.0117C185.069 55.3151 186.779 55.9053 188.532 56.3295C190.38 56.7751 192.256 56.7917 194.125 57.0951C196.481 57.4766 198.547 58.5621 199.846 60.2947C201.273 60.3374 202.774 60.9204 204.019 61.712C206.916 63.556 209.797 65.426 212.687 67.2817C213.796 67.9942 214.211 69.1316 214.007 70.4002L213.993 70.4814L213.896 71.0075L214.124 71.3314C215.009 72.5779 215.971 73.8836 216.544 75.2595C217.603 76.7835 218.56 78.3809 219.408 80.0281C220.55 82.2418 221.493 84.5882 222.132 86.9962C222.291 87.6054 222.45 88.2192 222.555 88.8402C222.704 89.7171 222.474 90.3973 222.348 91.2387C222.191 92.3053 222.134 93.386 221.968 94.4549C221.856 95.1636 221.253 95.512 220.621 95.531C220.859 97.3346 221.03 99.1501 221.194 100.951C221.424 103.525 221.581 106.106 221.716 108.687C222.415 109.699 223.842 110.501 224.873 110.778C226.3 111.159 227.796 110.745 229.145 110.259C229.993 109.953 230.689 111.017 230.275 111.728C228.976 113.961 226.198 113.951 224.094 112.963C223.203 112.546 222.422 111.942 221.842 111.155C221.878 111.904 221.916 112.653 221.954 113.404L221.989 114.084C222.417 122.032 223.341 130.253 221.845 138.122C219.254 151.752 207.951 162.131 194.144 162.937C186.898 163.36 180.865 161.224 177.865 160.032C174.864 158.841 176.03 156.412 178.113 157.106C181.701 158.303 188.293 160.085 194.191 159.315C208.094 157.501 219.883 150.567 218.672 120.699C218.5 116.464 217.971 112.226 217.857 107.991C217.748 103.85 217.788 99.7071 217.605 95.5689L217.544 94.157C217.473 92.5072 217.397 90.8498 217.273 89.1981C217.123 88.5581 217 87.9087 216.817 87.2807C216.321 85.5718 215.672 83.9104 214.867 82.3248C214.689 82.4599 214.489 82.557 214.273 82.595C212.632 82.8889 211.093 82.8059 209.557 82.1233C208.84 81.8081 208.208 81.3886 207.619 80.8695C207.339 80.6254 207.151 80.3884 207.004 80.1419C206.26 80.1538 205.517 79.931 205.052 79.3977C204.521 78.7899 204.432 78.1621 204.64 77.5809L204.662 77.5229L204.61 77.504C203.983 79.1228 202.734 80.5472 201.363 81.5095C199.198 83.0358 196.488 83.4766 193.89 83.5169C191.021 83.5596 187.995 83.1188 185.164 82.6684C184.416 82.5499 183.673 82.4148 182.944 82.2323C182.915 82.2608 182.887 82.294 182.856 82.3224C180.426 84.6427 177.009 85.24 173.926 83.9151C172.145 83.1496 170.651 81.9171 169.331 80.5045C169.312 81.244 169.274 81.9835 169.21 82.7158L169.183 83.0067C169.052 84.3707 168.799 85.8175 167.766 86.8019C166.096 88.397 163.674 87.757 161.748 86.7189C161.75 86.7687 161.75 86.8209 161.75 86.873C162.27 88.6364 162.793 90.4021 163.315 92.1678L163.428 92.5439C163.808 93.7977 164.224 95.0531 164.339 96.3652C164.557 98.8728 162.885 101.35 160.093 100.508C158.628 100.068 157.454 98.8392 156.328 97.8546L155.618 97.2422C157.454 103.231 158.727 109.434 158.846 115.684C158.853 116.023 158.561 116.279 158.238 116.291C157.483 116.321 156.67 116.172 155.91 115.871C155.868 115.869 155.825 115.866 155.78 115.859C154.483 115.672 153.279 115.205 152.217 114.515C152.462 115.29 152.571 116.122 152.507 116.992C152.491 117.203 152.16 117.277 152.113 117.044C151.5 114.037 147.973 111.764 144.934 112.34C141.67 112.958 139.267 115.76 138.678 118.948C138.046 122.372 139.255 126.333 141.495 128.975C142.525 130.194 143.882 131.21 145.492 131.466C146.228 131.583 146.993 131.542 147.707 131.334C148.011 131.244 148.296 131.118 148.586 131C149.009 130.829 149.503 130.803 149.902 130.623C150.807 130.217 151.716 131.049 151.258 131.976C150.859 132.784 150.5 133.329 149.838 133.746C150.374 134.401 150.861 135.311 151.042 135.555C151.963 136.797 152.899 137.97 153.949 139.105C155.017 140.257 156.183 141.309 157.416 142.284L157.934 142.692C159.121 143.632 160.155 144.503 160.993 145.851C161.653 146.915 160.798 148.358 159.561 148.342C155.689 148.287 152.875 144.893 150.871 141.928C150.586 141.504 150.317 141.056 150.068 140.596C149.978 140.741 149.878 140.876 149.767 140.999L149.987 141.592C150.643 143.336 147.819 144.476 147 142.848C146.404 141.667 145.713 140.544 144.943 139.482C144.489 139.418 144.045 139.143 143.798 138.788C143.174 137.885 142.473 136.972 141.882 136.01C141.554 135.699 141.217 135.401 140.873 135.109C140.773 135.197 140.671 135.285 140.573 135.377C140.141 136.361 139.607 137.259 138.944 138.105L138.802 138.286C137.533 139.882 135.879 141.516 133.833 141.907C133.209 142.025 132.608 141.25 133.161 140.755C134.593 139.47 136.287 138.596 137.607 137.162C138.258 136.455 138.855 135.677 139.369 134.862L139.486 134.673C139.571 134.533 139.659 134.394 139.749 134.251C139.153 133.846 138.557 133.438 137.961 133.031C136.32 134.43 134.183 135.07 132.368 136.229L132.188 136.346C130.546 137.441 128.818 135.019 130.133 133.69C131.584 132.229 132.794 130.488 134.079 128.865C133.475 127.754 133.189 126.441 133.082 125.114C133.04 124.738 133.007 124.362 132.974 123.986C132.052 124.001 131.126 123.685 130.342 123.143L130.045 122.932C129.093 123.235 128.093 123.382 127.136 123.356C124.885 123.29 123.963 120.723 125.372 119.099C126.808 117.44 129.323 117.078 131.316 117.883C131.38 117.85 131.447 117.815 131.511 117.779C131.416 117.343 131.437 116.947 131.545 116.6L131.514 116.388C131.075 115.717 130.787 114.951 130.678 114.142C130.592 113.501 130.609 112.865 130.758 112.232C130.807 112.021 130.91 111.803 130.989 111.583C130.827 111.175 130.731 110.753 130.702 110.329C130.657 110.275 130.612 110.22 130.569 110.16C129.58 108.775 129.78 107.106 130.721 105.985C130.725 105.913 130.732 105.842 130.741 105.771C130.686 105.648 130.636 105.523 130.59 105.396C129.67 104.471 128.995 103.357 129.121 101.977C129.195 101.165 129.53 100.434 130.036 99.8877C129.946 99.6227 129.937 99.3158 130.046 99.0596C129.238 96.9156 129.341 94.3334 129.922 91.9355C129.794 91.5705 129.727 91.1747 129.741 90.7552C129.808 88.9753 131.352 87.3399 133.18 87.3612C133.4 87.3631 133.607 87.3918 133.805 87.4338L133.807 87.3913C133.877 86.8571 134.025 86.3634 134.239 85.9205C134.134 85.8823 134.036 85.8275 133.95 85.7548C132.778 86.3786 131.538 86.8555 130.238 87.1804C129.283 87.4193 128.303 86.335 128.898 85.4396C129.173 85.0241 129.478 84.651 129.805 84.3102C129.339 84.3128 128.866 84.3443 128.388 84.4057C127.528 84.5171 126.569 83.9317 126.01 83.1401C125.317 83.8132 124.621 84.4839 123.925 85.1547C122.163 86.8588 119.501 85.605 119.223 83.3581C118.698 83.2183 118.209 82.9813 117.779 82.6424C115 83.8464 112.01 84.5076 108.954 84.6333C106.76 84.7233 105.477 82.1731 106.503 80.3718C107.192 79.1631 108.047 78.0776 109.032 77.1343C107.503 77.6012 105.924 77.9377 104.311 78.1534C103.439 78.2695 102.207 77.549 101.858 76.7503C100.523 73.6786 100.637 70.4766 102.174 67.4879C102.233 67.3694 102.299 67.2557 102.364 67.1419C102.523 66.7461 102.696 66.355 102.884 65.9711C100.993 64.0039 100.829 61.0792 101.848 58.6309C101.44 57.9696 101.283 57.1733 101.561 56.4528C102.352 54.3789 103.492 52.4639 104.931 50.819C104.793 50.5536 104.672 50.2715 104.57 49.9682C103.76 47.5151 104.698 44.5549 106.591 42.846C107.781 41.77 109.149 41.1253 110.609 40.7129C111.224 39.6274 112.015 38.6486 112.937 37.8238C112.972 37.7456 113.008 37.6673 113.048 37.5891C114.483 34.892 117.095 33.4462 119.895 33.112C120.004 32.0573 120.717 31.05 121.752 30.7229C122.037 29.8105 122.462 28.9383 123.047 28.1467C123.966 26.9 125.493 26.3122 126.932 27.1299C127.72 27.5778 128.476 28.0921 129.183 28.661C129.501 28.5122 129.862 28.4159 130.268 28.3852L130.371 28.3789L132.712 28.2604C133.693 27.8267 134.672 27.3716 135.653 26.9284C136.241 26.4425 136.899 26.0373 137.617 25.7363C138.429 25.3973 139.26 25.2054 140.094 25.1414C140.77 24.9209 141.452 24.7266 142.145 24.5749C143.775 24.2194 145.48 24.0203 147.171 24.0369C147.205 23.6001 147.223 23.1581 147.219 22.7109L147.216 22.4869C147.178 21.0529 148.325 19.9082 149.676 19.7044ZM148.035 134.429C147.802 134.479 147.567 134.519 147.332 134.548C147.403 134.723 147.475 134.898 147.544 135.074C147.734 135.18 147.926 135.282 148.118 135.377C148.061 135.055 148.028 134.73 148.035 134.429ZM135.834 130.811L135.676 131.101C135.65 131.148 135.625 131.195 135.6 131.241C135.935 131.215 136.272 131.222 136.605 131.26L136.604 131.225C136.561 131.21 136.518 131.197 136.478 131.177C136.248 131.067 136.035 130.944 135.834 130.811ZM142.428 117.573C144.529 117.695 146.309 118.017 148.22 118.934L148.384 119.014C150.073 119.851 152.866 121.396 152.631 123.612C152.564 124.242 152.106 124.906 151.384 124.856C149.406 124.721 148.275 122.73 146.936 121.488C145.584 120.237 143.924 118.95 142.288 118.09C142.057 117.968 142.148 117.585 142.399 117.573L142.428 117.573ZM132.9 88.3756C132.397 88.3922 132.565 88.8805 132.824 88.4728C132.845 88.4396 132.872 88.4064 132.9 88.3756ZM160.077 55.7815C155.309 55.9067 150.51 58.7164 146.938 61.5565C143.83 64.0274 141.147 66.9663 138.771 70.1339C138.16 71.7115 137.635 73.3219 137.191 74.9443C136.899 76.0156 136.716 77.0987 136.472 78.1795L136.396 78.5108C136.204 78.8692 136.061 79.2548 135.957 79.6532C136.39 80.0865 136.952 80.3967 137.57 80.5439C137.769 80.5913 137.935 80.6939 138.066 80.83C138.563 80.0009 138.998 79.1259 139.252 78.1982L139.261 78.1553C140.218 76.5913 141.257 75.0758 142.371 73.6123C145.444 69.5713 148.828 65.8881 152.897 62.8236C155.982 60.5009 159.43 58.6807 163.097 57.498C162.199 56.7753 161.18 56.2037 160.077 55.7815Z" fill="black"/>
<path fill-rule="evenodd" clip-rule="evenodd" d="M203.063 143.666C201.314 144.171 199.436 144.217 197.653 143.694C196.035 143.221 194.374 142.178 193.184 140.799C192.126 139.573 191.442 138.084 191.468 136.494C191.471 136.313 191.537 136.161 191.637 136.043C191.744 135.917 191.895 135.83 192.056 135.792C192.222 135.753 192.397 135.767 192.546 135.835C192.681 135.896 192.797 136 192.869 136.152C193.052 136.392 193.235 136.628 193.417 136.858C194.888 138.671 196.313 140.025 198.525 140.511C199.725 140.775 200.924 140.658 202.024 140.256C203.201 139.825 204.265 139.068 205.099 138.099C205.476 137.661 205.921 137.482 206.356 137.479C206.849 137.476 207.336 137.704 207.703 138.07C208.064 138.429 208.306 138.917 208.328 139.428C208.347 139.876 208.2 140.344 207.811 140.762C206.527 142.137 204.863 143.145 203.063 143.666ZM203.009 120.962C204.803 122.05 207.535 124.587 205.606 127.284C203.335 129.662 200.065 126.935 198.454 125.702C196.96 124.746 195.282 127.204 196.668 128.32C208.31 136.923 213.035 121.247 203.916 119.683C202.912 119.511 202.539 120.625 203.009 120.962ZM186.233 116.175C185.657 115.807 184.979 115.681 184.227 116.022C183.64 116.289 182.61 117.177 181.893 118.345C181.403 119.144 181.055 120.081 181.128 121.058C181.145 121.284 181.061 121.452 180.928 121.575C180.824 121.673 180.672 121.745 180.495 121.767C180.344 121.786 180.176 121.769 180.039 121.726C179.778 121.645 179.64 121.476 179.588 121.338C179.086 120.008 179.302 118.524 179.865 117.185C180.624 115.378 182.002 113.864 182.905 113.376C184.451 112.54 186.274 112.502 187.822 113.353C189.139 114.077 189.963 115.247 190.782 116.439C190.957 116.692 191.129 116.944 191.308 117.191C191.666 117.686 191.702 118.178 191.563 118.599C191.41 119.065 191.018 119.459 190.528 119.665C190.075 119.856 189.55 119.882 189.085 119.687C188.692 119.521 188.332 119.199 188.104 118.652C187.72 117.731 187.08 116.715 186.233 116.175ZM215.508 118.224C215.113 118.429 214.804 118.491 214.366 118.36C214.124 118.288 213.885 118.148 213.697 117.961C213.512 117.776 213.378 117.546 213.325 117.29C213.197 116.659 212.851 116.068 212.358 115.683C211.937 115.354 211.405 115.18 210.815 115.278C210.179 115.384 209.572 115.792 209.155 116.272C209.015 116.433 208.905 116.615 208.795 116.797C208.59 117.136 208.39 117.451 208.106 117.7C207.998 117.795 207.836 117.86 207.679 117.86C207.615 117.86 207.55 117.85 207.489 117.831C206.855 117.196 206.733 116.715 206.754 116.237C206.775 115.736 206.973 115.229 207.293 114.756C208.043 113.647 209.466 112.737 210.427 112.531C211.743 112.248 213.05 112.587 214.097 113.321C215.175 114.075 215.974 115.247 216.223 116.567C216.283 116.885 216.258 117.229 216.136 117.526C216.018 117.817 215.811 118.066 215.508 118.224ZM189.135 104.344C188.346 105.112 187.411 105.231 186.465 105.337C185.94 105.396 185.521 105.444 185.108 105.537C183.974 105.792 182.852 106.177 181.829 106.731C180.76 107.311 179.595 108.01 178.756 108.905C178.557 109.118 178.369 109.341 178.181 109.565C178.009 109.77 177.844 109.966 177.67 110.156C177.47 110.374 177.28 110.602 177.091 110.83C176.974 111.022 176.951 111.069 176.927 111.118C176.892 111.192 176.851 111.275 176.804 111.364C176.739 111.485 176.664 111.618 176.585 111.739C176.453 111.959 176.383 112.02 176.322 112.047C176.221 112.092 176.125 112.114 176.031 112.102C175.944 112.091 175.862 112.049 175.781 111.981C175.375 111.639 175.256 111.078 175.268 110.482C175.287 109.579 175.621 108.578 175.928 107.963C176.644 106.534 177.637 105.048 178.831 103.982C180.193 102.764 181.684 101.843 183.395 101.207C184.459 100.813 185.691 100.45 186.85 100.496C187.684 100.529 188.48 100.776 189.138 101.394C189.542 101.774 189.736 102.313 189.736 102.853C189.736 103.403 189.535 103.956 189.135 104.344ZM217.114 111.375C217.063 111.457 216.994 111.514 216.916 111.548C216.835 111.583 216.745 111.594 216.658 111.579C216.572 111.565 216.489 111.525 216.424 111.466C216.362 111.408 216.314 111.332 216.293 111.239C215.769 108.941 214.751 107.232 212.578 106.129C211.509 105.587 210.28 105.242 209.116 104.967C208.778 104.888 208.421 104.836 208.061 104.783C206.934 104.619 205.798 104.431 205.063 103.521C204.62 102.973 204.434 102.273 204.539 101.632C204.638 101.029 204.992 100.475 205.634 100.144C207.233 99.3187 209.22 100.128 210.834 100.818C210.954 100.869 211.072 100.919 211.187 100.968C212.766 101.633 214.206 102.511 215.39 103.766C216.329 104.763 217.199 106.235 217.55 107.75C217.841 109.01 217.773 110.297 217.114 111.375Z" fill="black"/>
</svg>
