<svg width="391" height="780" viewBox="0 0 391 780" fill="none" xmlns="http://www.w3.org/2000/svg">
<path fill-rule="evenodd" clip-rule="evenodd" d="M344.483 318.412C338.968 320.755 333.275 323.006 327.265 323.603C325.894 323.74 325.877 325.896 327.265 325.762C332.258 325.276 337.264 324.814 342.191 323.846C342.81 323.724 346.034 322.584 346.213 323.663C345.502 326.245 332.523 328.881 329.637 329.409C312.542 333.627 295.367 330.299 278.203 330.11C276.49 329.601 274.728 329.628 273.078 330.157C272.167 330.186 271.256 330.226 270.344 330.28C273.686 323.152 278.466 316.798 284.126 311.36C288.255 313.242 299.612 307.584 303.874 305.759C310.992 302.663 317.366 295.919 325.706 297.295C321.684 300.9 317.3 304.042 313.211 307.567C312.162 308.478 313.037 310.181 314.305 310.202C323.186 310.812 332.086 310.871 340.881 309.273C347.115 308.08 347.214 308.274 341.842 311.743C339.001 313.552 335.676 315.267 332.196 314.883C330.296 314.83 330.421 317.52 332.196 317.75C337.351 317.933 342.601 317.783 347.696 316.918C346.622 317.616 345.069 318.153 344.483 318.412ZM269.084 333.708C269.011 333.786 268.939 333.86 268.866 333.933C268.831 333.947 268.797 333.961 268.763 333.976C268.906 333.614 269.046 333.257 269.179 332.91C269.183 332.909 269.188 332.908 269.192 332.908C269.102 333.168 269.068 333.438 269.084 333.708ZM228.112 447.579C253.868 518.881 233.184 598.969 262.871 669.079C262.548 669.348 262.311 669.814 262.296 670.313C258.447 670.684 254.698 672.453 250.852 673.128C239.665 675.735 228.152 676.275 216.701 676.408C216.698 676.407 216.695 676.406 216.692 676.404C216.38 676.305 215.925 676.373 215.478 676.414C213.057 666.979 209.399 657.852 207.598 648.234C189.065 524.691 207.922 512.054 121.849 404.892C149.646 423.937 186.642 446.316 219.745 426.554C222.756 433.468 225.667 440.444 228.112 447.579ZM253.664 692.346C254.079 693.458 254.435 694.61 255.053 695.549C242.273 710.303 235.891 702.921 220.532 698.493C220.922 691.766 220.177 685.1 218.987 678.475C229.26 680.06 239.774 679.322 249.951 677.403C250.439 682.532 251.898 687.522 253.664 692.346ZM263.138 694.433C265.72 696.987 268.512 699.383 271.638 701.282C269.637 702.929 265.156 704.125 264.872 706.949C264.918 709.502 269.02 709.709 268.036 707.31C269.767 705.536 271.954 704.27 273.803 702.606C275.685 703.714 277.614 704.711 279.581 705.628C277.748 707.089 275.026 708.237 274.623 710.753C274.481 711.982 275.83 712.553 276.8 712.407C279.299 711.519 280.68 708.536 282.924 707.104C296.507 712.569 312.089 715.939 321.204 728.405C320.876 728.571 320.64 728.816 320.488 729.101C316.932 728.546 313.289 729.921 309.73 730.255C298.721 731.906 287.613 732.898 276.488 733.3C257.801 733.872 239.058 732.814 220.513 730.538C217.826 730.09 215.141 729.383 212.553 728.454C213.07 721.974 213.81 715.378 214.084 708.811C214.39 708.565 214.571 708.138 214.502 707.704C214.288 706.377 214.345 704.478 214.788 702.909C214.857 702.801 214.928 702.695 215.006 702.595C215.921 701.414 217.469 701.083 218.895 701.17C219.01 701.177 219.127 701.192 219.244 701.209C219.437 701.31 219.625 701.429 219.802 701.571C219.878 701.582 219.95 701.59 220.027 701.603C220.079 701.611 220.125 701.625 220.168 701.642C220.203 701.583 220.234 701.519 220.266 701.455C221.149 701.724 222.047 702.088 222.909 702.129C229.827 705.148 236.8 708.96 244.534 707.518C250.422 706.565 253.848 701.502 258.108 697.904C259.615 696.523 261.733 695.88 263.138 694.433ZM321.685 731.939C339.482 744.882 234.251 739.416 228.474 738.802C223.057 738.305 206.177 738.859 209.288 730.031C210.224 730.327 211.281 730.057 211.891 729.438C230.975 740.762 300.807 739.886 321.685 731.939ZM167.128 480.316C165.92 482.616 164.639 484.878 163.452 487.19C163.174 487.731 162.901 488.273 162.63 488.817C162.262 489.364 161.897 489.912 161.536 490.459C154.913 500.627 151.305 513.016 145.817 526.456C132.151 559.924 119.176 599.908 109.372 628.322C105.749 636.153 101.756 643.859 96.7457 650.907C95.6359 653.048 92.8637 654.788 92.7609 657.23C92.7309 657.259 92.7008 657.289 92.6709 657.318C92.5027 657.483 92.335 657.648 92.1664 657.813C89.5562 656.447 82.1814 656.409 79.6025 655.548C68.4966 653.379 57.7613 649.376 47.9706 643.719C73.9562 589.481 100.294 512.767 121.751 455.535C123.199 451.982 124.633 448.423 126.079 444.87C128.21 439.634 130.591 434.432 132.449 429.093C133.029 427.427 133.458 425.641 133.4 423.869C145.366 441.396 157.903 458.643 168.425 477.096C168.154 478.229 167.643 479.335 167.128 480.316ZM89.7583 664.102C87.7833 670.157 85.6732 676.238 84.1578 682.427C84.092 682.711 84.0775 682.977 84.1022 683.225C84.0866 683.266 84.0711 683.308 84.0555 683.349C83.7933 684.036 83.4461 684.625 83.5358 685.281C68.5738 691.826 71.265 699.641 55.6819 687.952C55.1642 687.655 54.6151 687.362 54.0463 687.108C54.0712 687.042 54.0938 686.972 54.1107 686.896C54.4728 685.273 54.7084 683.63 54.8179 681.973C55.3855 679.531 55.9286 677.08 56.5452 674.649C57.359 672.309 58.1841 669.972 58.9711 667.63C59.0521 667.436 59.1326 667.241 59.2145 667.047C60.4077 664.231 61.5614 661.205 61.8108 658.153C61.959 657.562 62.0979 656.969 62.2323 656.376C62.6095 656.259 62.8712 655.996 63.0163 655.675C71.944 658.765 81.3277 661.287 90.8144 661.409C90.4404 662.299 90.0744 663.19 89.7583 664.102ZM91.3718 686.47C94.1851 687.211 95.6682 689.977 97.4449 692.204C95.3989 693.616 93.7125 695.653 92.5412 697.859C91.7641 698.577 91.0384 699.342 90.3936 700.172C89.589 701.376 91.4233 702.789 92.4042 701.721C94.4451 699.041 96.5296 696.28 99.3669 694.36C100.735 695.856 102.196 697.262 103.712 698.612C102.34 699.593 101.149 700.783 100.204 702.18C98.4079 703.521 96.953 705.051 97.6983 706.261C98.4219 707.428 99.8095 706.792 100.485 705.95C101.972 703.879 103.628 701.817 105.727 700.345C110.567 704.45 116.069 707.644 122.044 709.787C129.952 712.721 140.306 715.075 143.345 723.986C129.985 724.148 116.601 724.31 103.243 723.605C83.7249 722.965 64.4122 719.936 44.9866 718.34C45.1119 718.178 45.153 717.963 45.0079 717.773C44.6073 717.249 44.0124 717.013 43.5951 716.511C44.1259 714.35 43.1284 711.109 43.5022 709.127C43.4393 703.295 45.5228 691.391 45.6484 691.175C47.0076 688.848 49.6565 687.282 52.1547 688.961C52.3276 689.078 63.1127 699.462 70.3062 697.301C72.3838 696.627 74.1087 695.281 75.916 694.107C80.7793 690.972 85.8848 688.355 91.3718 686.47ZM145.974 729.704C112.36 731.629 78.4289 731.199 45.1364 725.894C44.0432 725.577 43.0593 725.05 42.2899 724.357C42.2167 723.518 42.164 722.678 42.1391 721.835C42.1265 721.403 41.884 719.945 42.3516 719.675C42.615 719.523 42.7929 719.328 42.9019 719.113C54.8086 723.182 67.8468 723.858 80.2908 725.492C101.576 727.249 123.338 729.137 144.588 727.333C145.166 728.077 145.819 728.812 145.974 729.704ZM43.0275 717.715C43.161 717.903 43.3134 718.077 43.4866 718.221C43.3206 718.208 43.1543 718.194 42.9881 718.181C42.9615 718.079 42.9254 717.978 42.8784 717.882C42.9311 717.829 42.9805 717.773 43.0275 717.715ZM58.257 661.442C58.4617 660.554 58.698 659.625 58.9122 658.682C58.7614 659.868 58.46 661.046 58.0779 662.208C58.1371 661.952 58.1979 661.697 58.257 661.442ZM120.064 403.897C120.098 403.871 120.129 403.841 120.157 403.806C120.426 403.978 120.697 404.149 120.967 404.323C121.827 406.042 122.8 407.742 123.834 409.43C122.572 407.602 121.348 405.718 120.064 403.897ZM88.4747 385.435C88.4212 384.916 88.3343 384.391 88.2315 383.872C88.5153 384.294 88.8259 384.697 89.1572 385.073C89.4415 385.395 89.7448 385.697 90.0635 385.983C89.5377 385.79 89.009 385.604 88.4747 385.435ZM88.5347 386.662C88.539 386.385 88.5293 386.104 88.5091 385.82C88.8007 386.012 89.0943 386.201 89.3911 386.384C89.0988 386.456 88.8128 386.548 88.5347 386.662ZM84.4763 352.535C83.8322 359.755 83.097 367.196 84.9422 374.297C77.3143 361.864 67.6649 351.951 65.9265 336.723C66.4682 336.573 66.9719 336.347 67.3915 336.027C71.3381 337.891 72.0164 332.153 72.5994 329.5C74.1747 323.881 76.0587 318.355 77.4967 312.699C81.2759 311.037 73.6862 310.333 72.5835 310.3C72.6282 310.263 72.6719 310.225 72.7153 310.183C77.1716 304.958 79.3202 297.941 82.5405 291.92C87.3366 281.63 91.6323 271.11 95.4675 260.427C99.1942 291.611 87.628 321.817 84.4763 352.535ZM77.4637 381.448C75.5787 378.906 73.9869 376.131 72.7626 373.214C72.5814 372.782 72.1689 372.273 71.62 372.346C68.508 372.762 67.4837 375.728 67.5407 378.535C68.9174 388.996 73.6491 398.983 79.7339 407.538C60.1828 387.644 53.1662 359.65 48.2563 333.042C53.3179 334.439 58.2966 336.428 63.5433 336.983C66.6097 361.89 85.3341 369.346 85.9506 387.431C85.0641 391.197 78.421 382.706 77.4637 381.448ZM264.175 304.515C264.129 304.526 264.085 304.542 264.042 304.567C264.003 304.59 263.966 304.615 263.927 304.638C263.856 304.535 263.782 304.434 263.705 304.338C263.861 304.397 264.018 304.457 264.175 304.515ZM286.187 311.174C285.567 311.27 284.965 311.26 284.42 311.077C284.544 310.958 284.666 310.836 284.792 310.719C284.884 310.632 285.111 310.393 285.392 310.13C285.535 310.559 285.813 310.941 286.187 311.174ZM351.473 315.033C351.369 314.093 350.687 313.556 349.743 313.718C347.37 314.123 345.006 314.417 342.637 314.614C345.746 312.73 352.445 308.964 346.655 305.737C344.87 305.074 342.747 305.774 340.948 306.066C333.471 307.318 325.884 307.841 318.32 307.211C321.077 304.909 323.931 302.725 326.622 300.344C328.052 299.078 329.676 297.392 328.068 295.502C325.232 292.817 318.974 294.795 315.697 295.975C306.654 301.126 297.937 306.602 288.232 310.566C288.13 309.184 288.599 307.508 287.288 306.579C283.443 304.736 278.712 305.275 274.62 304.784C269.85 304.057 265.612 302.989 260.888 301.706C257.799 299.31 257.34 292.969 252.4 293.759C256.775 282.563 248.682 271.605 246.177 260.885C243.051 249.913 241.408 238.519 241.364 227.111C241.335 208.851 230.929 194.831 215.898 185.462C215.646 185.255 215.396 185.043 215.145 184.833C214.495 184.15 213.86 183.449 213.239 182.726C211.93 181.203 210.663 179.64 209.335 178.133C208.73 177.192 208.09 176.277 207.342 175.441C206.68 174.624 205.937 173.886 204.985 173.308C204.911 173.263 204.833 173.224 204.758 173.18C203.172 172.098 201.378 171.343 199.481 170.968C198.583 167.518 197.627 164.083 196.848 160.603C196.491 159.728 196.028 153.384 195.068 154.089C193.862 157.137 194.962 184.715 200.845 181.112C201.424 188.285 201.537 198.591 193.615 201.761C179.732 206.078 161.871 175.086 156.124 164.604C157.711 165.215 159.057 161.531 159.731 157.741C160.013 156.844 160.244 155.929 160.433 155.008C160.634 154.024 160.922 152.989 160.692 151.998C160.617 151.674 160.367 151.458 160.074 151.367C159.968 150.769 159.789 150.37 159.527 150.264C159.316 150.732 159.147 151.219 158.999 151.716C158.987 151.735 158.973 151.752 158.962 151.772C158.551 152.561 158.508 153.465 158.337 154.334C158.185 154.942 158.019 155.545 157.807 156.126C157.269 157.605 156.507 158.923 155.764 160.265C154.333 158.718 152.079 157.936 149.949 157.695C147.895 157.462 145.795 157.448 143.73 157.382C141.745 157.319 139.611 157.239 137.68 157.74C137.585 157.765 137.567 157.858 137.604 157.928C94.9391 160.227 51.5918 223.913 41.0654 259.248C37.0558 273.057 34.8078 287.645 36.2956 302.014C35.2856 301.862 30.8099 301.149 30.8742 302.587C31.0934 308.84 32.2248 315.022 32.5371 321.271C32.2267 329.549 40.6842 330.547 46.7934 332.588C46.4172 356.606 54.9979 380.63 68.427 400.373C71.6896 404.258 77.9413 416.049 83.8968 410.679C84.5984 409.844 84.4388 408.852 83.5788 408.216C82.1745 407.179 81.1778 405.499 80.2098 404.07C76.9032 399.838 66.667 379.132 70.957 374.946C73.1157 379.549 80.9486 393.344 87.0941 390.298C88.0182 389.484 88.4148 388.386 88.5117 387.173C88.7542 387.234 88.9981 387.29 89.2432 387.339C91.3879 389.237 97.6838 392.043 99.9627 391.846C100.723 392.219 101.483 392.594 102.242 392.971C104.346 394.154 106.433 395.363 108.507 396.595C110.149 397.682 111.836 398.687 113.55 399.647C114.543 400.259 115.532 400.878 116.519 401.499C117.285 403.484 118.626 405.386 119.68 407.104C120.338 408.176 121.076 409.506 121.959 410.668C122.93 412.238 124.015 413.731 125.127 415.13C126.598 416.979 128.437 418.608 129.742 420.576C131.2 422.776 130.994 425.182 130.226 427.599C129.429 430.109 128.29 432.525 127.279 434.953C126.186 437.58 125.093 440.207 124 442.834C121.874 447.943 119.749 453.05 117.623 458.159C116.41 461.074 115.217 464.001 114.042 466.932C113.64 467.936 113.274 468.949 112.928 469.968C90.7631 521.933 67.1213 593.293 42.9688 643.418C40.583 646.516 52.1388 651.293 58.5225 653.864C58.551 653.952 58.5759 654.039 58.6018 654.127C57.6466 656.181 57.1719 658.602 56.62 660.751C55.927 663.446 55.2185 666.138 54.4944 668.825C53.7699 671.515 53.0465 674.22 52.353 676.931C51.4185 679.318 50.4778 681.693 49.4875 684.025C49.4487 684.124 49.4084 684.223 49.3687 684.322C48.0948 684.394 46.9808 684.932 46.1329 685.783C46.0339 685.813 45.9379 685.877 45.8586 685.979C41.0034 692.471 39.3918 700.979 38.9845 708.912C39.2115 711.288 38.2989 716.007 40.1544 717.879C39.6962 718.414 39.4386 719.097 39.3077 719.847C38.1801 721.242 38.4176 723.668 39.1883 725.232C42.1369 733.852 108.781 734.173 120.054 734.063C129.247 733.896 138.378 733.355 147.531 732.503C148.95 732.202 149.23 731.014 148.972 729.684C149.253 728.109 148.678 726.054 147.43 724.912C147.698 724.483 147.796 723.938 147.606 723.307C141.851 706.569 120.576 707.702 107.99 698.764C108.162 698.662 108.316 698.57 108.459 698.482C108.735 698.387 109.013 698.297 109.293 698.217C110.615 697.838 110.041 695.75 108.725 696.16C107.706 696.478 106.726 696.874 105.8 697.347C104.046 696.157 102.342 694.856 100.742 693.445C101.217 693.147 101.698 692.862 102.181 692.58C102.877 692.451 103.597 692.383 104.344 692.379C105.297 692.374 105.56 691.432 105.191 690.812C105.267 690.766 105.342 690.723 105.417 690.676C105.307 690.658 105.192 690.652 105.073 690.651C104.904 690.46 104.662 690.322 104.344 690.291C102.269 690.087 100.327 690.57 98.5941 691.503C96.5438 689.492 94.6755 687.076 91.9145 686.219C94.1326 685.411 95.1716 682.961 92.3655 682.252C91.1293 682.141 89.8606 682.601 88.6654 683.106C90.3867 676.068 91.6815 668.87 92.7112 661.717C93.0048 661.767 93.2955 661.799 93.5804 661.807C94.7422 661.836 95.5236 660.952 96.0864 659.901C96.1491 659.892 96.2114 659.883 96.271 659.873C98.3799 658.987 99.3574 656.56 100.814 654.91C105.371 648.636 109.205 641.844 112.466 634.817C124.453 600.443 142.328 543.259 156.807 510.795C161.444 500.4 165.583 490.93 170.399 480.607C205.29 538.426 188.296 609.382 209.82 671.038C210.754 672.847 212.492 679.511 214.894 677.954C214.909 677.964 214.922 677.975 214.939 677.985C215.389 678.238 215.84 678.547 216.33 678.715C216.56 678.793 216.766 678.714 216.911 678.566C217.128 679.439 217.079 680.453 217.121 681.307C217.178 682.467 217.208 683.628 217.222 684.789C217.248 687.089 217.19 689.388 217.039 691.683C216.824 693.635 216.574 695.584 216.269 697.528C215.132 697.738 214.085 698.318 213.329 699.258C212.219 700.638 211.826 702.403 211.561 704.114C211.497 704.529 211.443 704.941 211.416 705.343C209.997 710.776 208.633 718.699 208.455 719.913C208.451 722.414 206.331 727.982 208.267 729.468C205.478 730.629 205.022 734.919 206.984 737.125C212.809 745.088 241.203 742.899 251.679 744.234C264.925 743.9 323.904 748.943 327.751 736.164C328.517 733.247 327.205 729.564 324.538 728.441C325.605 725.908 323.05 723.461 321.486 721.684C312.266 711.931 298.765 708.607 286.49 704.363C286.947 703.886 289.72 702.155 289.357 701.707C287.34 701.796 285.384 702.438 283.55 703.318C281.137 702.434 278.739 701.489 276.4 700.41C283.06 694.939 279.167 696.625 274.557 699.523C274.05 699.257 273.54 698.992 273.031 698.728C273.081 698.505 273.03 698.263 272.826 698.073C272.18 697.469 271.339 697.228 270.548 696.862C269.698 696.469 268.873 696.019 268.079 695.523C266.611 694.606 265.376 693.15 263.841 692.388C263.607 692.272 263.366 692.204 263.125 692.174C262.133 691.278 259.734 692.127 258.615 692.949C258.596 692.941 258.58 692.934 258.564 692.927C255.754 687.877 253.66 682.489 251.776 677.042C255.253 675.946 263.076 675.533 264.629 672.032C269.618 670.33 265.996 662.779 264.962 659.327C235.714 584.904 263.596 496.382 220.426 426.139C228.206 421.608 236.904 410.778 229.768 402.374C229.568 401.983 229.349 401.602 229.128 401.235C228.055 399.459 226.901 397.742 225.847 395.954C225.793 395.728 225.746 395.498 225.713 395.261C225.651 394.83 225.38 394.616 225.061 394.565C224.002 392.624 223.062 390.632 222.171 388.609C216.665 362.659 215.183 336.068 218.85 309.693C223.214 326.703 237.393 339.524 252.695 347.296C258.667 349.802 266.553 354.975 273.11 353.343C279.028 351.562 289.775 339.208 291.041 333.275C308.292 335.361 326.203 333.686 342.689 328.172C344.805 327.358 348.929 326.124 348.275 323.069C347.622 320.477 344.53 321.026 342.529 321.507C345.587 319.783 351.534 319.54 351.473 315.033Z" fill="black"/>
<path fill-rule="evenodd" clip-rule="evenodd" d="M181.785 54.2251C183.013 54.327 184.248 54.5001 185.461 54.7276C189.149 54.1256 192.966 54.7939 196.543 55.9529C204.919 58.6667 212.982 63.3784 219.294 69.5289C222.543 72.6953 225.2 76.3429 226.837 80.5854C227.668 82.7374 228.136 85.034 228.271 87.3354L228.286 87.6143C228.324 88.3779 228.341 89.2934 228.25 90.2004C228.542 92.0313 228.803 93.8771 228.823 95.7289C228.832 96.5866 228.776 97.4429 228.672 98.2936L228.707 98.3744C228.556 99.39 228.375 100.401 228.169 101.407L228.117 101.474C228.089 101.679 228.056 101.883 228.026 102.087C227.914 102.604 227.797 103.12 227.672 103.634C227.404 104.747 227.106 105.853 226.785 106.952C226.729 107.145 226.783 107.297 226.888 107.397C226.655 108.233 226.399 109.064 226.116 109.885C226.255 110.604 226.396 111.323 226.545 112.039C227.321 115.765 227.979 119.514 228.862 123.219C230.653 130.737 233.375 138.134 234.123 145.863C234.705 151.857 233.738 158.41 230.005 163.307C226.787 167.525 221.947 170.016 216.72 170.68C214.219 171 211.654 170.853 209.208 170.223L208.941 170.152C207.716 169.823 206.157 169.308 205.019 168.478C203.784 168.044 202.617 167.243 201.915 166.461C200.955 165.392 199.908 163.565 200.169 162.046C198.742 162.162 197.305 162.195 195.892 162.19C192.41 162.183 188.898 161.908 185.549 160.899C182.562 159.998 179.08 158.493 177.313 155.777C177.23 155.649 177.368 155.464 177.512 155.514C178.94 156.014 180.274 156.689 181.747 157.071C183.196 157.445 184.644 157.799 186.138 157.953C189.059 158.253 192.023 158.212 194.953 158.068L195.959 158.016C199.095 157.848 202.335 157.61 205.268 156.438C206.419 155.979 207.483 155.338 208.454 154.576L208.607 154.454C209.127 154.032 209.664 153.677 210.21 153.34C210.288 153.241 210.367 153.141 210.445 153.039C211.687 151.449 213.022 149.916 214.14 148.235C216.363 144.9 217.221 141.435 217.337 137.458C217.459 133.26 217.473 129.057 217.523 124.858L217.541 123.458C217.605 118.656 217.615 113.838 217.985 109.048C218.156 106.823 218.399 104.607 218.773 102.409L218.855 101.938L219.458 98.546C219.603 97.729 219.688 96.8872 219.873 96.0737C219.665 95.7324 219.424 95.4039 219.144 95.0911C218.886 94.8027 218.625 94.5227 218.364 94.2447L218.175 94.0789C217.745 93.6956 217.375 93.3298 217.029 92.8026L216.945 92.6722C216.573 92.224 216.222 91.7552 215.912 91.2402L215.854 91.1401C215.777 91.0432 215.7 90.946 215.62 90.8503C215.371 90.5519 215.111 90.2701 214.841 90.0001C213.896 91.8227 212.558 93.4015 210.665 94.3884C209.98 94.7453 209.145 94.4396 208.921 93.6802C208.354 91.7632 207.494 89.9807 206.356 88.3664C204.455 91.5229 201.441 93.9918 197.89 95.1966C197.002 95.4976 196.221 94.5685 196.429 93.7387C197.07 91.1883 197.198 88.5947 196.821 86.0307C195.48 86.9868 194.098 87.8872 192.678 88.7219C189.519 91.1591 186.171 93.3524 182.489 94.9273C181.639 95.2914 180.358 94.6796 180.745 93.5892C181.07 92.671 181.338 91.7375 181.509 90.7788L181.547 90.5571C181.548 90.5505 181.549 90.5438 181.55 90.5369C173.022 102.276 152.343 113.589 150.756 113.698L150.713 113.699C151.704 114.643 152.504 115.811 153.028 117.153C153.577 118.562 151.336 119.175 150.756 117.828L150.737 117.783C149.846 115.497 147.64 113.858 145.24 113.471C143.789 113.733 142.418 114.431 141.483 115.49C139.642 117.573 139.626 120.085 140.882 122.456L141.066 122.801C141.747 124.067 142.463 125.336 142.846 126.726C143.314 128.433 142.96 130.163 143.267 131.867L143.283 131.958C143.428 132.715 143.742 133.577 144.646 133.37C144.716 133.354 144.784 133.332 144.851 133.309C145.042 133.461 145.271 133.586 145.557 133.669C146.257 133.873 147.03 133.774 147.727 133.61C148.4 133.451 149.054 133.202 149.683 132.91C149.753 133.082 149.796 133.261 149.8 133.434C149.821 134.316 149.455 135.041 148.893 135.631C149.79 136.764 150.557 138.011 151.422 139.167C152.664 140.826 153.935 142.45 155.286 144.021C156.692 145.659 158.224 147.207 159.812 148.669C160.926 149.693 162.767 150.788 163.465 152.274C164.268 152.523 164.949 153.137 165.199 154.146C165.652 155.976 165.785 160.263 165.429 162.124C165.075 163.968 163.726 165.117 162.235 166.089C161.822 166.359 161.354 166.331 160.974 166.129C160.639 166.454 160.261 166.753 159.829 167.018C158.233 168.002 156.378 168.36 154.54 168.566C152.058 169.357 149.382 169.566 146.736 169.073C145.872 169.175 145.007 169.267 144.14 169.343C135.273 170.114 126.258 169.457 117.608 167.35C113.64 166.383 109.892 164.626 106.401 162.368C100.384 158.477 97.8367 147.556 101.328 137.115L101.605 136.291C103.178 131.627 104.875 126.987 107.149 122.636L107.421 122.118C109.511 118.149 111.811 114.185 114.865 110.873C116.395 109.216 118.171 107.711 120.178 106.659C120.94 106.26 121.829 105.983 122.698 105.669L122.716 105.452L122.735 105.235C122.792 104.54 122.865 103.845 122.959 103.153C123.31 100.563 123.805 98.0108 124.509 95.4912C125.214 92.9682 126.08 90.4877 127.122 88.0834C128.861 84.0723 131.045 80.2673 133.566 76.697C133.746 76.3282 133.929 75.9608 134.116 75.5963C136.242 71.451 138.994 67.4977 142.545 64.4379C146.62 60.9254 151.529 58.7449 156.651 57.2138C161.964 55.6282 167.507 54.5427 173.043 54.1777C175.957 53.9857 178.876 53.9834 181.785 54.2251ZM142.932 120.82C145.599 119.078 149.232 120.273 150.584 123.103C151.56 125.153 148.332 126.307 147.822 124.264C147.313 122.216 145.131 120.749 143.034 121.062C142.889 121.086 142.799 120.906 142.932 120.82Z" fill="black"/>
<path fill-rule="evenodd" clip-rule="evenodd" d="M184.612 130.942C188.683 130.449 192.629 131.693 196.609 132.32C198.71 132.651 200.814 132.898 202.94 132.99C203.368 133.009 203.796 133.019 204.224 133.028C204.264 132.652 204.475 132.307 204.932 132.1C205.868 131.676 206.618 131.485 207.646 131.526C208.587 131.563 209.532 131.66 210.459 131.829C212.142 132.137 213.832 132.836 215.063 134.05C217.913 136.859 217.479 141.372 215.277 144.432C210.729 150.754 202.427 151.048 195.318 150.965L194.661 150.957C188.188 150.865 178.926 151.828 175.984 144.477C174.903 141.774 175.053 138.641 176.377 136.049C177.957 132.956 181.282 131.346 184.612 130.942ZM204.833 141.47L204.775 141.472C201.791 141.587 198.806 141.668 195.82 141.721C195.909 142.486 196.001 143.252 196.105 144.015C196.187 144.616 196.274 145.217 196.366 145.816C196.404 146.07 196.546 146.464 196.506 146.716L196.491 146.815C196.645 146.884 196.784 146.996 196.887 147.158C196.923 147.214 196.949 147.27 196.976 147.326C199.294 147.344 201.789 147.3 204.153 146.879L204.158 146.828C204.201 146.526 204.326 146.323 204.493 146.184C204.659 145.223 204.644 144.2 204.708 143.246C204.748 142.654 204.792 142.062 204.833 141.47ZM193.539 141.761C191.388 141.798 189.235 141.826 187.085 141.8L186.108 141.785C186.314 142.889 186.539 143.989 186.725 145.1C186.92 146.259 185.898 146.995 185.014 146.965C185.113 146.981 185.212 146.998 185.312 147.012C188.074 147.402 190.942 147.299 193.746 147.296C193.595 146.417 193.656 145.426 193.634 144.692L193.629 144.579C193.586 143.639 193.556 142.7 193.539 141.761ZM178.926 141.559C179.001 142.133 179.146 142.694 179.363 143.218C180.282 145.428 182.387 146.459 184.614 146.893C184.228 146.76 183.921 146.44 183.844 145.892C183.65 144.529 183.581 143.143 183.576 141.76C182.023 141.745 180.46 141.712 178.926 141.559ZM212.929 141.087C211.824 141.347 210.54 141.228 209.455 141.277C208.439 141.323 207.423 141.363 206.407 141.404C206.455 142.096 206.502 142.788 206.552 143.48C206.618 144.374 206.624 145.319 206.795 146.209C208.84 145.513 210.672 144.396 212.047 142.61C212.389 142.165 212.696 141.643 212.929 141.087ZM184.145 134.568C182.305 135.003 180.563 135.922 179.627 137.602C179.072 138.599 178.828 139.781 178.875 140.945C180.43 140.764 182.011 140.696 183.586 140.639C183.591 140.356 183.598 140.074 183.606 139.792L183.63 139.069C183.673 137.69 183.695 135.959 184.145 134.568ZM193.668 134.736L192.858 134.646C190.608 134.39 188.36 134.121 186.11 134.275C185.784 134.298 185.454 134.333 185.122 134.382C185.52 135.814 185.487 137.495 185.653 138.913C185.717 139.461 185.798 140.005 185.888 140.546L186.278 140.528C188.692 140.398 191.109 140.317 193.525 140.222C193.524 139.769 193.527 139.316 193.534 138.863L193.543 138.41C193.571 137.252 193.496 135.948 193.668 134.736ZM204.965 134.553C202.609 134.932 200.174 135.013 197.859 135.016C196.935 135.017 196.011 134.96 195.087 134.879C195.147 135.369 195.178 135.866 195.224 136.35C195.315 137.328 195.419 138.304 195.532 139.279L195.633 140.133C198.603 139.999 201.572 139.853 204.541 139.703L204.96 139.68L205.078 138.04C205.158 136.946 205.246 135.853 205.37 134.764L205.277 134.73C205.167 134.685 205.063 134.624 204.965 134.553ZM205.988 134.96C206.118 136.506 206.19 138.059 206.285 139.609L208.243 139.504C208.569 139.487 208.895 139.468 209.221 139.45C210.489 139.377 212.119 138.993 213.373 139.351C213.469 138.213 213.143 137.105 212.114 136.341C210.308 134.999 208.009 135.477 205.988 134.96ZM199.301 121.134C202.216 119.469 209.528 117.766 209.991 123C210.204 125.409 208.41 127.405 206.315 128.296L206.236 128.328C204.271 129.135 200.788 130.045 199.087 128.297C197.671 126.842 199.549 124.232 201.308 125.425C202.212 126.037 204.114 125.586 205.123 125.294L205.186 125.276C206.274 124.957 207.725 123.935 207.275 122.598C206.877 121.414 205.182 121.198 204.121 121.16C202.537 121.103 200.995 121.47 199.425 121.59C199.176 121.609 199.1 121.249 199.301 121.134ZM211.374 112.717C215.33 112.533 217.79 116.843 216.881 120.374C216.724 120.984 216.041 121.582 215.381 121.514L215.215 121.498C215.131 121.49 215.046 121.48 214.968 121.458C214.342 121.285 213.781 120.635 213.826 119.962L213.839 119.765C213.931 118.097 213.75 116.175 211.763 115.771C210.078 115.428 209.137 117.047 209.117 118.536C209.113 118.801 208.816 118.986 208.581 118.843C207.363 118.104 207.152 116.632 207.617 115.365C208.207 113.759 209.683 112.796 211.374 112.717ZM182.02 113.642C184.898 112.683 188.004 114.215 189.398 116.754C189.887 116.896 190.375 117.272 190.307 117.848C190.209 118.676 190.061 119.199 189.486 119.827C188.585 120.81 186.899 120.307 186.525 119.097L186.509 119.043C186.084 117.479 184.358 116.447 182.787 116.994C180.951 117.634 181.004 119.569 179.717 120.696C179.565 120.828 179.384 120.85 179.203 120.762C177.835 120.102 178.081 118.117 178.568 116.981C179.208 115.49 180.451 114.164 182.02 113.642ZM178.099 104.918C180.432 102.543 186.515 100.244 188.11 104.631C188.414 105.466 187.767 106.593 186.895 106.766C185.468 107.049 184.202 106.431 182.784 106.542C181.636 106.632 180.439 107.015 179.521 107.725C176.98 109.69 176.421 113.014 174.65 115.515C174.564 115.637 174.396 115.586 174.38 115.442C173.977 111.801 175.544 107.52 178.099 104.918ZM208.521 102.58C210.069 102.034 211.821 102.081 213.377 102.565C214.945 103.053 216.384 103.979 217.492 105.189C217.995 105.738 218.461 106.345 218.834 106.99C219.033 107.332 219.241 108.039 219.466 108.459C220.686 109.162 221.207 110.763 220.115 111.902L220.066 111.952L219.92 112.096C219.333 112.676 218.448 112.927 217.647 112.696C215.855 112.178 215.637 110.769 215.016 109.274C214.606 108.286 213.904 107.412 213.053 106.77C211.041 105.253 207.741 104.77 205.319 105.484C205.19 105.523 205.038 105.359 205.13 105.24C205.589 104.646 205.854 104.159 206.468 103.68C207.092 103.194 207.773 102.843 208.521 102.58Z" fill="black"/>
<path fill-rule="evenodd" clip-rule="evenodd" d="M223.024 117.422C222.352 119.246 221.33 121.145 220.08 122.68C215.023 126.954 210.109 124.588 207.614 118.796C206.666 114.702 209.183 110.293 211.85 107.282C215.702 103.429 221.989 105.451 223.76 110.031C223.868 110.625 223.933 111.217 223.964 111.807C223.927 113.725 223.696 115.364 223.024 117.185M174.414 113.744C181.076 105.835 193.54 105.413 193.222 117.584C191.791 132.991 167.692 129.209 174.414 113.744ZM225.119 107.147C224.886 106.752 224.627 106.37 224.344 106.005C224.239 105.943 224.179 105.392 223.795 105.351C218.659 99.6964 209.636 102.905 206.375 108.54C205.78 109.252 205.294 110.086 204.936 110.967C201.724 110.379 197.979 110.493 194.991 111.704C192.029 103.984 183.06 103.295 177.15 106.594C173.474 108.398 171.09 112.177 167.515 114.252C159.11 114.856 150.09 112.977 141.837 115.081C135.329 116.431 140.77 119.72 141.861 117.525C149.642 115.231 158.86 117.17 166.939 116.653C167.779 118.071 169.39 119.231 170.995 119.182C172.729 134.521 195.144 131.978 195.918 118.342C196.795 116.958 197.885 115.633 199.447 114.771C200.044 114.648 200.622 114.487 201.15 114.239C202.052 114.112 203.441 114.493 204.271 115.243C207.114 132.264 223.49 130.282 226.416 115.37C226.474 115.311 226.637 115.089 226.762 114.732C227.764 113.41 230.216 112.919 229.824 110.688C229.475 108.456 226.651 108.482 225.119 107.147Z" fill="black"/>
</svg>
