<svg width="391" height="780" viewBox="0 0 391 780" fill="none" xmlns="http://www.w3.org/2000/svg">
<path fill-rule="evenodd" clip-rule="evenodd" d="M281.404 396.861C278.745 405.785 276.304 418.999 269.532 425.57C267.149 427.491 264.349 426.318 261.614 426.084C263.377 415.76 264.593 405.351 265.575 394.927C271.147 393.86 276.519 391.921 281.494 389.205C282.786 391.367 281.979 394.654 281.404 396.861ZM259.197 423.353C256.629 438.101 253.129 452.664 249.742 467.205C247.949 476.07 244.127 485.211 243.304 493.959C226.018 500.843 207.317 498.168 189.439 495.357C189.714 495.126 189.924 494.77 189.954 494.336C190.398 494.134 190.762 493.734 190.828 493.134C191.834 479.994 193.675 465.701 190.564 452.987C192.619 451.138 194.457 448.99 196.169 446.822C197.727 444.77 194.485 442.056 192.664 443.549C195.185 437.263 197.787 431.01 200.515 424.809C201.244 423.147 198.789 421.699 198.052 423.372C187.893 446.576 179.322 470.325 170.461 494.058C169.968 493.081 167.985 493.198 168.704 494.587C150.55 496.102 131.601 491.479 114.898 483.959C118.889 471.166 123.436 458.133 123.17 444.597C127.079 444.778 132.362 442.557 134.431 439.198C136.5 440.802 139.036 438.833 140.126 436.963C142.645 432.058 141.251 426.07 139.794 421.043C144.936 421.85 151.375 417.09 147.856 411.773C142.42 407.013 136.216 402.959 130.886 397.944C130.43 388.539 134.081 379.762 137.398 370.939C154.155 382.725 170.584 395.407 188.18 405.811C191.205 406.118 193.649 403.833 195.92 402.165C202.401 397.366 208.941 392.63 215.327 387.7C216.028 387.958 216.833 387.895 217.429 387.496C221.507 391.855 225.818 395.881 229.852 400.262C232.276 402.497 234.026 405.987 237.409 406.844C238.991 407.133 239.998 406.479 241.012 405.384C247.166 398.885 253.786 392.85 260.163 386.574C260.983 387.639 262.564 387.28 263.353 386.259C262.712 398.68 261.08 411.062 259.197 423.353ZM247.799 495.447C247.605 495.613 247.835 495.471 248.02 495.748C248.207 497.531 247.158 499.343 246.807 501.093C245.641 503.666 245.753 509.619 242.311 509.711C223.297 513.012 204.085 510.199 185.48 505.954C185.722 502.187 186.891 498.305 186.128 494.575C186.439 494.296 186.769 494.101 187.137 494.025C187.034 494.553 187.105 495.2 187.51 495.462C203.429 502.439 226.492 503.881 243.014 497.396C244.752 497.944 246.05 495.71 244.688 494.478C244.919 494.447 245.14 494.366 245.327 494.224C245.056 495.402 246.785 496.312 247.799 495.447ZM194.863 510.481C195.347 510.609 195.834 510.727 196.321 510.844C195.948 511.734 196.487 513.02 196.34 514.022C195.998 512.78 195.516 511.58 194.863 510.481ZM166.455 500.263C165.697 502.431 164.495 504.842 161.956 505.186C161.363 504.947 160.679 504.989 160.232 505.397C143.684 505.174 123.435 500.195 110.834 489.321C110.683 487.833 111.392 486.336 111.54 484.855C111.748 484.269 111.986 480.575 112.775 481.26C112.174 482.73 111.655 484.885 113.948 484.668C130.173 494.009 149.346 497.567 167.936 496.983C167.345 498.019 166.899 499.142 166.455 500.263ZM132.076 562.012C130.652 567.103 129.129 572.169 127.502 577.199C125.936 584.658 122.167 585.66 116.565 580.773C112.511 578.323 114.221 573.925 114.834 570.134C115.591 565.474 116.575 560.848 117.282 556.181C121.747 559.483 127.369 561.104 132.893 560.381C132.451 560.807 132.258 561.358 132.076 562.012ZM124.614 585.898C124.564 585.883 124.512 585.867 124.462 585.85C124.519 585.831 124.573 585.81 124.628 585.791C124.623 585.826 124.618 585.862 124.614 585.898ZM121.695 595.499C119.929 611.181 114.826 626.246 111.331 641.595C110.937 644.775 108.502 645.936 105.567 644.929C104.361 644.617 102.515 644.171 101.632 643.225C100.625 642.145 101.309 640.038 101.532 638.777C102.919 630.979 104.477 623.215 106.073 615.455C107.973 607.025 109.518 598.428 111.594 590.093C114.604 592.64 118.437 594.431 122.457 594.505C122.068 594.648 121.742 594.979 121.695 595.499ZM110.637 651.544C110.4 651.597 110.162 651.639 109.923 651.677C110.284 650.535 110.629 648.946 109.987 647.88C110.134 647.828 110.276 647.771 110.414 647.707C110.626 648.994 110.773 650.229 110.637 651.544ZM108.59 683.877C112.417 686.356 114.651 690.53 116.61 694.512C117.869 697.067 118.895 700.15 120.821 702.329C121.619 704.474 122.422 706.616 123.186 708.773C125.475 715.87 128.33 723.399 128.055 730.883C128.057 730.877 128.057 730.867 128.062 730.855C128.036 731.043 127.972 731.224 127.929 731.407C128.102 731.287 128.303 731.171 128.031 731.369C128.006 731.349 127.93 731.418 127.927 731.412C127.927 731.417 127.924 731.422 127.924 731.426C127.941 731.412 127.957 731.4 127.979 731.386C127.961 731.399 127.938 731.422 127.919 731.438C127.919 731.443 127.917 731.45 127.915 731.457C127.9 731.47 127.795 731.547 127.817 731.519C127.568 731.632 127.364 731.789 127.174 731.978C112.51 735.152 96.3199 735.716 82.7609 728.447C77.5508 717.865 82.8955 700.182 85.0337 688.786C91.8598 684.902 100.798 679.974 108.59 683.877ZM114.494 679.675C115.048 682.112 115.42 684.572 115.931 687.008C114.432 685.391 113.659 683.361 112.35 681.652C111.544 679.964 110.679 677.537 108.673 677.225C108.618 675.855 108.581 674.485 108.562 673.115C111.972 673.536 113.77 676.468 114.494 679.675ZM133.073 733.109C133.033 732.441 132.681 731.777 132.106 731.412C132.238 729.054 131.835 726.764 131.465 724.439C133.948 727.086 132.891 731.325 133.296 734.642C133.264 735.963 133.906 737.644 132.368 738.326C127.566 741.639 121.745 743.185 116.007 743.85C103.489 745.281 90.4755 742.984 79.2912 737.176C77.7945 735.153 78.3187 730.233 78.118 727.641C78.8257 729.954 80.0673 732.011 82.5236 732.734C97.7393 740.045 115.647 739.166 131.653 735.05C132.702 734.769 133.123 733.953 133.073 733.109ZM92.9017 681.946C92.9896 681.839 93.0727 681.732 93.1582 681.623C93.6925 681.597 94.2269 681.55 94.7612 681.491C93.9618 681.809 93.175 682.155 92.4077 682.543C92.5739 682.346 92.7402 682.147 92.9017 681.946ZM99.3828 669.801C100.687 664.308 101.157 658.659 101.819 653.059C103.739 653.739 105.663 654.207 107.681 654.26C105.209 661.735 105.336 669.919 105.403 677.724C102.37 678.238 99.1028 678.526 96.1292 677.514C97.6206 675.129 98.6917 672.536 99.3828 669.801ZM119.847 439.153C118.182 438.987 116.527 439.103 114.879 439.34C105.124 432.724 103.586 405.59 102.055 394.135C109.035 395.915 116.429 395.436 123.205 393.092C123.333 394.341 124.761 394.984 125.63 394.142C130.225 402.306 137.101 408.842 144.195 414.686C144.112 414.414 144.052 414.914 144.157 414.724C143.253 416.791 139.936 415.719 138.367 417.158C137.36 417.907 137.148 419.218 137.79 420.092C136.092 424.773 138.791 430.488 136.251 434.929C135.68 435.59 134.937 436.066 134.446 436.809C131.065 434.497 127.985 439.386 124.561 439.601C124.585 439.601 124.609 439.601 124.635 439.598C124.108 439.657 123.262 439.628 122.799 439.563C121.817 439.411 120.838 439.251 119.847 439.153ZM126.136 275.59C126.853 270.923 127.689 266.285 128.774 261.691C130.083 261.919 130.375 264.91 130.541 265.792C136.144 291.09 133.718 317.124 131.318 342.659C130.736 349.506 130.256 356.365 129.881 363.229C129.397 366.385 133.034 367.456 134.975 369.185C132.275 377.862 127.616 386.257 128.166 395.498C127.442 394.834 126.725 394.163 126.012 393.488C126.193 392.907 126.347 392.326 126.478 391.741C127.365 391.281 127.646 390.008 126.886 389.338C127.178 351.499 120.064 313.338 126.136 275.59ZM196.936 201.934C198.283 199.543 201.849 202.648 199.608 204.385C198.049 205.645 195.888 203.575 196.936 201.934ZM202.344 227.114C203.435 225.112 206.98 226.106 206.317 228.479C206.327 228.377 206.334 228.297 206.341 228.235C206.435 230.168 202.68 231.737 202.42 229.266C202.011 228.624 201.914 227.782 202.344 227.114ZM207.35 254.313C210.053 253.251 211.049 257.238 208.759 258.3C206.296 259.173 204.939 255.193 207.35 254.313ZM210.504 283.515C211.171 281.26 214.582 281.856 214.558 284.174C214.472 287.305 209.829 286.36 210.504 283.515ZM216.095 311.843C217.043 309.01 220.686 310.476 220.381 313.22C220.779 314.804 217.701 318.002 217.078 315.412C216.247 314.412 215.855 313.127 216.095 311.843ZM221.818 344.515C221.825 344.505 221.832 344.496 221.839 344.486C223.866 345.438 222.112 349.773 220.158 348.181C218.262 347.026 219.574 343.364 221.818 344.515ZM224.485 371.038C226.85 373.359 223.193 377.03 220.861 374.655C218.494 372.34 222.148 368.667 224.485 371.038ZM281.953 388.956C281.984 389.025 282.017 389.094 282.055 389.158C281.993 389.105 281.931 389.054 281.87 389.001C281.896 388.987 281.924 388.973 281.953 388.956ZM193.315 665.339C193.404 667.056 193.532 668.789 193.946 670.453C195.177 677.217 203.882 685.336 211.046 680.476C214.332 678.168 215.772 673.7 219.69 672.252C223.796 670.733 228.292 672.228 231.747 674.577C235.747 677.296 238.863 681.168 242.268 684.551C249.511 691.746 257.544 698.153 266.143 703.663C270.643 706.452 280.067 710.634 276.337 717.163C273.482 721.297 266.298 719.326 265.062 721.659C249.128 722.314 233.536 717.964 218.389 713.511C210.699 711.003 202.653 709.54 195.198 706.353C188.053 700.108 188.029 686.367 189.013 677.559C189.334 675.634 190.131 666.476 193.136 668.106C194.029 668.204 192.733 667.219 192.414 667.339C192.833 666.746 193.177 666.061 193.315 665.339ZM280.022 716.727C280.124 716.777 280.231 716.8 280.34 716.803C280.654 717.604 280.499 720.868 280.44 721.429C279.474 726.34 271.726 727.155 267.618 727.898C253.185 730.168 238.506 728.581 224.426 724.961C217.553 723.261 210.718 721.296 204.047 718.929C198.116 717.128 190.793 714.139 191.522 706.635C194.834 711.086 205.385 712.4 210.694 714.241C227.354 719.292 244.257 724.725 261.84 724.899C264.503 724.785 268.185 725.527 270.183 723.524C274.42 722.92 278.816 720.578 280.022 716.727ZM283.855 335.034C279.996 319.857 273.786 305.412 267.741 291.012C261.209 271.892 259.294 251.641 256.959 231.688C255.675 220.431 254.287 209.189 251.689 198.144C249.482 177.555 228.529 175.31 212.098 172.118C212.121 170.36 212.662 168.36 210.896 167.236C209.274 165.592 200.615 160.482 198.905 162.645C198.233 161.015 197.905 159.206 197.587 157.466C197.373 156.779 197.285 154.411 196.538 154.43C196.378 159.065 194.407 165.852 198.361 169.333C195.988 172.944 194.009 177.318 190.88 180.193C190.883 180.191 190.885 180.188 190.887 180.186C190.731 180.288 190.572 180.38 190.408 180.468C190.446 180.437 190.22 180.52 190.035 180.58C189.61 180.66 188.907 180.505 188.472 180.309H188.477C177.704 174.199 167.165 167.655 156.736 160.953C158.227 158.752 160.156 147.966 158.306 146.471C157.013 150.726 155.667 154.995 153.704 159C152.003 158.073 149.252 156.408 147.819 158.585C146.011 161.61 145.495 165.996 147.664 169.004C138.342 172.67 128.289 173.953 118.665 176.818C114.47 177.892 110.029 178.69 106.094 180.551C94.3677 187.044 94.3582 203.042 93.072 214.825C89.7718 272.178 79.304 331.468 95.6965 387.731C96.3263 389.459 97.2572 391.118 97.9816 392.817C98.2689 393.49 99.0147 393.469 99.5063 393.104C100.062 393.434 100.672 393.696 101.311 393.91C100.238 408.538 98.7833 435.261 112.931 443.983C115.404 444.87 117.738 443.608 120.306 444.213C120.648 456.739 116.662 468.769 112.97 480.637C110.253 478.536 109.212 484.858 108.391 486.486C105.632 492.318 112.997 494.927 116.86 497.448C111.101 515.544 99.1783 540.605 116.662 555.705C114.807 560.263 113.855 565.247 112.789 570.053C112.216 573.191 110.713 577.044 112.611 579.955C112.097 579.617 111.613 579.217 111.089 578.896C113.369 578.862 109.996 577.201 108.636 578.441C104.836 581.266 107.65 586.441 110.495 589.095C109.388 589.92 109.006 592.2 108.678 593.283C107.334 597.729 106.156 602.23 105.066 606.745C102.413 617.959 99.9508 629.234 98.1025 640.607C97.9768 641.72 98.0504 642.853 98.4471 643.856C97.0167 643.919 96.1574 645.282 95.7019 646.473C95.0564 649.139 98.4791 651.762 100.805 652.666C98.3537 660.786 98.1336 669.822 92.9397 676.872C92.3816 676.331 91.4269 676.234 90.9495 677.132C90.4282 678.621 87.224 682.67 88.425 683.882C88.4654 684.174 88.615 684.46 88.8382 684.643C87.6912 685.416 86.5963 686.237 85.5063 687.098C86.964 682.933 88.174 678.072 91.3079 674.864C92.1346 674.392 93.1914 674.551 93.8516 673.767C94.3337 673.193 94.3575 672.508 93.8754 671.946C93.6474 671.679 93.1225 671.963 93.2627 672.302C93.6616 673.259 91.206 673.091 90.6408 673.286C85.1272 676.704 83.1485 684.475 81.3616 690.366C79.2156 700.715 76.2116 711.263 76.8754 721.908C76.162 725.631 75.1349 735.863 77.2982 738.677C88.7152 745.466 102.88 747.459 116.007 746.152C121.859 745.306 137.222 743.455 136.125 735.349C135.757 730.772 136.817 724.66 132.328 721.804C131.812 721.503 131.316 721.586 130.95 721.856C128.205 709.597 122.243 698.578 118.665 686.617C117.164 681.13 116.078 671.728 108.55 672.138C108.308 666.225 108.82 660.162 108.001 654.306C108.001 654.308 108.001 654.308 107.999 654.308C107.994 654.294 107.987 654.279 107.98 654.268C109.526 654.081 112.127 654.493 112.946 652.879C113.365 650.609 113.571 647.942 112.632 645.771C115.454 639.55 116.045 632.333 117.962 625.765C120.344 615.77 123.089 605.768 123.944 595.499C123.989 594.951 123.695 594.612 123.303 594.484C123.914 594.473 124.562 594.321 125.029 594.058C129.245 593.816 131.651 586.341 127.858 584.027C127.891 583.705 127.848 583.423 127.751 583.188C130.316 578.298 131.202 572.953 133.005 567.838C133.345 565.561 135.588 562.196 134.291 560.149C153.76 555.102 158.405 525.306 162.849 508.457C169.268 507.205 168.66 501.106 172.144 497.151C172.755 496.561 172.784 495.853 172.496 495.281C178.657 482.688 182.542 468.401 188.052 455.298C188.796 468 188.544 480.764 187.199 493.418C183.13 492.477 183.114 498.085 182.547 500.778C182.252 502.451 181.958 504.122 181.663 505.795C181.231 508.258 184.404 508.961 185.254 507.013C187.795 508.267 190.441 509.227 193.148 510.009C193.721 512.692 194.276 515.337 194.298 518.108C194.467 521.28 192.709 524.457 193.303 527.527C189.383 536.857 183.236 544.861 180.402 554.584C171.037 588.606 190.146 621.737 192.464 655.495C191.487 651.239 192.057 661.635 192.096 662.494C192.201 669.425 186.122 666.213 186.354 681.377C185.925 688.595 186.337 695.986 189.294 702.682C189.949 704.742 188.825 706.792 189.304 708.906C189.773 712.735 192.913 718.536 197.307 717.957C222.375 727.43 251.417 736.021 277.785 727.199C279.618 726.288 281.53 725.11 282.188 723.065C282.75 721.24 283.508 714.329 280.34 714.864C280.408 708.578 274.424 704.781 269.599 701.947C262.852 697.716 256.414 693.002 250.466 687.703C241.45 680.479 234.019 666.527 220.692 668.685C218.957 659.192 220.775 649.511 220.761 639.929C221.629 597.672 229.958 556.245 236.261 514.614C236.317 514.254 235.823 514.102 235.702 514.462C222.129 553.53 218.685 595.445 216.134 636.48C215.291 647.511 216.243 658.491 218.507 669.311C212.545 670.947 211.623 680.214 204.66 679.322C200.961 678.548 197.648 675.634 196.162 672.202C197.744 669.635 196.625 666.045 196.562 663.127C196.316 660.297 196.029 657.47 195.694 654.647C193.386 622.222 175.584 590.853 182.605 558.068C185.961 541.942 201.891 528.415 196.872 510.974C211.176 514.257 226.082 514.909 240.63 512.977C245.91 512.813 247.597 510.587 248.704 505.676C249.501 502.404 251.131 499.19 251.158 495.793C250.922 493.153 247.738 491.309 245.833 493.393C251.543 472.816 256.355 452.086 260.664 431.184C274.584 437.144 280.067 419.996 282.627 409.668C283.861 403.483 286.518 395.872 282.967 390.087C293.353 394.219 286.448 340.647 283.855 335.034Z" fill="black"/>
<path fill-rule="evenodd" clip-rule="evenodd" d="M170.593 59.2508C186.351 55.5985 204.053 60.4998 214.989 72.5755C215.759 73.424 215.676 74.5285 214.999 75.2442C215.315 75.5002 215.624 75.7633 215.937 76.0264C216.265 76.3037 216.217 76.8606 215.937 77.1427C215.659 77.42 215.082 77.4769 214.818 77.1427L214.428 76.6525C214.234 76.4077 214.042 76.1619 213.857 75.9102C213.631 75.9932 213.41 76.0809 213.189 76.1662C216.531 78.3822 219.317 81.3259 221.226 84.8692C223.292 88.7017 224.61 92.7924 225.467 97.0491C226.996 104.642 227.217 112.43 227.013 120.152L227.002 120.565C226.738 129.873 225.828 139.334 221.896 147.893C218.742 154.752 213.137 161.058 206.11 164.061C202.063 165.789 197.712 166.526 193.316 166.218C190.998 166.057 188.688 165.692 186.431 165.135L185.889 165.001C183.834 164.487 181.703 163.891 179.948 162.718C178.148 161.511 179.361 159.115 181.347 159.406C183.738 159.76 186.016 160.755 188.388 161.272C190.709 161.779 193.057 162.044 195.435 161.976C199.641 161.857 203.471 160.568 206.948 158.226C220.24 149.27 221.855 131.262 222.202 116.709C222.371 109.599 222.109 102.396 220.471 95.4493C218.896 88.7704 216.186 82.1934 212.351 76.4885C211.506 76.8038 210.66 77.0668 209.76 77.1498C208.156 78.1123 206.248 78.1378 204.392 78.1381L204.134 78.1381C202.203 78.1357 200.272 78.022 198.351 77.849C191.552 77.247 184.555 75.7206 177.72 76.6924L177.441 76.7331C174.627 77.1555 171.139 78.0419 169.073 80.0626C166.841 82.2431 168.337 86.3695 170.104 87.6801C171.246 88.5286 171.603 90.4389 170.104 91.2092C167.145 92.7332 159.982 91.8871 159.177 92.7308C158.211 93.7394 158.278 95.2765 158.251 96.5854L158.249 96.6723C158.149 100.398 158.241 104.112 158.557 107.828C158.861 111.421 159.552 115.022 159.707 118.624C159.759 119.812 158.322 120.172 157.536 119.52C157.382 119.392 157.223 119.271 157.063 119.162C155.636 118.153 154.014 117.726 152.273 117.456C152.182 117.441 152.11 117.396 152.059 117.335L152.038 117.309L151.853 117.46C152.214 117.908 152.523 118.416 152.767 118.984C152.817 119.098 152.71 119.243 152.584 119.167C150.176 117.738 147.554 117.131 144.783 117.709C142.289 118.228 140.033 119.807 139.302 122.333C138.63 124.658 139.123 127.339 140.632 129.252C142.862 132.086 146.483 131.83 149.732 131.961C150.369 131.987 151.079 132.295 151.376 132.902C151.725 133.617 151.701 134.106 151.376 134.819C151.33 134.921 151.271 135.013 151.202 135.096C151.477 135.324 151.738 135.572 151.991 135.826L152.839 136.678C153.42 137.263 153.997 137.853 154.553 138.457C156.187 140.235 157.724 142.126 159.17 144.058L159.304 144.238C160.998 146.551 162.755 149.891 165.691 150.621C166.698 150.872 167.634 151.367 167.933 152.455C168.233 153.543 167.527 154.598 166.58 155.053C164.936 155.842 162.851 154.903 161.495 153.908C158.571 151.758 156.66 148.251 154.864 145.163L154.372 144.319C153.447 142.726 152.543 141.114 151.772 139.441C151.333 138.486 150.86 137.538 150.452 136.568C150.333 136.286 150.214 135.999 150.122 135.705C149.991 135.734 149.858 135.753 149.732 135.76C145.811 136.016 141.297 135.395 138.463 132.425C134.557 128.332 134.098 121.013 138.537 117.107C139.005 116.695 139.532 116.332 140.102 116.022C139.309 114.683 138.784 113.13 138.397 111.673C137.832 109.544 137.516 107.376 137.359 105.181C137.043 100.704 137.568 96.1461 138.646 91.797C142.555 76.0335 154.558 62.9671 170.593 59.2508ZM142.197 124.663C141.421 120.172 150.426 123.493 152.389 123.806L152.447 123.815C154.699 124.127 153.444 128.07 151.227 126.895L151.159 126.858C149.96 126.172 148.641 125.68 147.384 125.1L147.115 124.974C146.115 124.495 142.812 122.345 142.453 124.663C142.434 124.791 142.218 124.789 142.197 124.663Z" fill="black"/>
<path fill-rule="evenodd" clip-rule="evenodd" d="M197.255 143.848C195.659 143.198 194.235 142.114 193.193 140.729C192.831 140.247 192.737 139.739 192.813 139.274C192.899 138.751 193.209 138.277 193.631 137.959C194.055 137.64 194.586 137.483 195.099 137.563C195.544 137.633 195.988 137.876 196.339 138.381L196.412 138.482C197.031 139.318 197.838 140.004 198.757 140.446C199.643 140.872 200.634 141.071 201.66 140.955C203.613 140.735 204.959 139.681 206.39 138.25C206.567 138.069 206.745 137.882 206.923 137.693C207.036 137.521 207.192 137.411 207.365 137.353C207.558 137.289 207.776 137.293 207.976 137.362C208.168 137.429 208.34 137.556 208.456 137.725C208.565 137.886 208.628 138.085 208.607 138.313C208.476 139.796 207.699 141.12 206.595 142.16C205.369 143.315 203.744 144.113 202.214 144.393C200.528 144.702 198.811 144.481 197.255 143.848ZM203.009 120.962C204.803 122.05 207.535 124.587 205.606 127.284C203.335 129.662 200.065 126.935 198.454 125.702C196.96 124.746 195.282 127.204 196.668 128.32C208.31 136.923 213.035 121.247 203.916 119.683C202.912 119.511 202.539 120.626 203.009 120.962ZM182.146 110.955C182.344 108.501 186.09 107.944 186.462 110.372C186.796 112.548 186.403 114.547 185.421 116.506C184.483 118.377 182.124 117.504 181.946 115.8C181.707 113.516 182.022 112.482 182.146 110.955ZM210.659 109.869C211.182 109.186 211.936 108.72 212.839 108.984C215.662 109.807 214.83 113.806 213.839 115.752C213.3 116.809 211.559 117.077 210.772 116.147C209.49 114.629 208.875 111.598 210.506 110.103C210.55 110.025 210.599 109.947 210.659 109.869ZM185.381 100.215L185.827 100.137C187.206 99.8992 188.921 99.6704 189.897 100.777C190.415 101.364 190.593 102.455 189.897 103.016C188.674 104.005 187.321 103.622 185.855 103.705C184.646 103.775 183.485 103.974 182.321 104.306C179.768 105.034 177.687 106.364 175.506 107.824C175.22 108.016 174.928 107.65 175.064 107.383C176.323 104.922 178.763 102.901 181.207 101.669C182.511 101.011 183.938 100.465 185.381 100.215ZM208.086 99.1128L208.428 99.1825C212.141 99.9572 216.966 101.505 218.725 105.145C218.792 105.66 218.721 105.77 218.664 105.842L218.644 105.866C218.597 105.928 218.559 106.013 218.336 106.083C218.274 106.068 218.211 106.052 218.148 106.036C217.341 105.825 216.704 105.534 216.086 105.233L215.417 104.904C214.64 104.524 213.856 104.158 213.026 103.887C211.254 103.31 209.431 102.904 207.58 102.687C207.179 102.64 206.792 102.505 206.488 102.273C206.198 102.053 205.977 101.749 205.876 101.344C205.746 100.821 205.783 100.425 206.065 99.9522C206.277 99.5975 206.579 99.3516 206.927 99.2104C207.282 99.0665 207.685 99.0326 208.086 99.1128Z" fill="black"/>
<path fill-rule="evenodd" clip-rule="evenodd" d="M223.024 117.422C222.352 119.246 221.33 121.145 220.08 122.68C215.023 126.954 210.109 124.588 207.614 118.796C206.666 114.702 209.183 110.293 211.85 107.282C215.702 103.429 221.989 105.451 223.76 110.031C223.868 110.625 223.933 111.217 223.964 111.807C223.927 113.725 223.696 115.364 223.024 117.185M174.414 113.744C181.077 105.835 193.54 105.413 193.222 117.584C191.791 132.991 167.693 129.209 174.414 113.744ZM225.119 107.147C224.886 106.752 224.627 106.37 224.344 106.005C224.239 105.943 224.179 105.392 223.795 105.351C218.659 99.6964 209.636 102.905 206.376 108.54C205.78 109.252 205.294 110.086 204.936 110.967C201.724 110.379 197.979 110.493 194.991 111.704C192.029 103.984 183.06 103.295 177.15 106.594C173.474 108.398 171.09 112.177 167.515 114.252C159.11 114.856 150.09 112.977 141.838 115.081C135.329 116.431 140.77 119.72 141.861 117.525C149.642 115.231 158.86 117.17 166.939 116.653C167.779 118.071 169.39 119.231 170.995 119.182C172.729 134.521 195.144 131.978 195.918 118.342C196.795 116.958 197.886 115.633 199.447 114.771C200.045 114.648 200.622 114.487 201.15 114.239C202.052 114.112 203.441 114.493 204.271 115.243C207.114 132.264 223.49 130.282 226.416 115.37C226.475 115.311 226.637 115.089 226.762 114.732C227.764 113.41 230.216 112.919 229.824 110.688C229.475 108.456 226.651 108.482 225.119 107.147Z" fill="black"/>
</svg>
