<svg width="391" height="780" viewBox="0 0 391 780" fill="none" xmlns="http://www.w3.org/2000/svg">
<path fill-rule="evenodd" clip-rule="evenodd" d="M159.609 144.207C161.52 142.913 158.799 154.138 158.794 155.218L158.746 155.454C158.27 157.74 157.431 160.4 155.5 161.867C156.39 169.143 157.499 176.397 158.863 183.598L159.665 183.703C171.568 185.279 183.55 187.445 195.652 186.316C202.173 186.368 206.489 181.912 209.118 176.386C208.94 175.734 208.762 175.085 208.579 174.433C200.298 169.369 194.028 159.092 197.759 149.39C197.918 148.976 198.412 148.947 198.666 149.163C198.708 149.167 198.745 149.2 198.742 149.246L198.62 151.139C198.359 155.268 198.243 159.549 200.483 163.267C209.493 161.216 215.095 168.717 218.862 175.817L221.569 176.217C231.922 177.753 241.907 179.571 247.02 190.163L247.72 191.651C254.863 206.871 261.521 222.522 265.417 238.911C267.379 247.631 268.089 256.616 270.967 265.12C276.942 280.912 285.363 295.752 289.929 312.1C292.762 317.999 300.734 362.402 292.869 362.74C290.04 361.894 287.159 361.209 284.248 360.723C284.697 361.064 284.861 361.645 284.775 362.237C283.759 369.355 283.683 376.565 283.687 383.742C284.224 401.123 283.743 438.518 257.53 432.516C255.617 431.812 256.859 428.748 256.782 426.607C256.633 426.614 256.481 426.611 256.329 426.602C254.824 430.657 252.714 434.4 251.391 438.521C250.27 442.062 249.487 445.871 247.924 449.262C231.374 508.039 224.542 569.86 231.012 630.696C231.376 634.339 231.784 637.977 232.241 641.608C232.183 643.878 234.877 653.384 232.459 654.023C232.365 654.206 232.038 654.417 231.843 654.483C230.375 656.065 227.933 655.478 225.994 655.689C219.143 655.993 212.292 656.275 205.437 656.502C205.848 659.406 205.516 662.354 205.273 665.255C210.272 665.296 214.866 668.335 219.287 670.398C225.854 673.633 232.313 677.091 238.65 680.757C244.501 684.846 257.572 688.795 253.075 698.066C256.428 699.425 251.768 705.109 249.221 705.173C232.635 705.089 216.156 701.332 199.948 698.034C190.74 695.604 180.691 694.68 172.172 690.489C169.754 689.397 170.26 685.042 172.92 684.637C170.945 670.118 178.963 670.318 181.218 658.225C179.906 658.439 178.456 658.318 177.14 658.052C174.093 660.866 175.212 638.714 174.799 636.55C174.716 613.835 175.794 591.071 173.371 568.434L169.253 580.542C159.653 608.802 150.197 637.134 142.671 666.025C142.22 667.769 140.386 667.978 139.215 667.217C134.273 667.073 129.35 666.608 124.475 665.821C124.38 668.132 124.282 670.443 124.185 672.753C126.288 673.885 124.864 681.016 125.132 683.428C127.409 688.665 118.182 698.746 115.149 703.067C109.739 710.614 104.369 721.173 93.9076 721.525L93.589 721.533C85.7811 721.723 77.9024 721.267 70.1702 720.153L69.3356 720.017C67.103 719.648 64.6036 719.125 63.3139 717.134C62.2262 715.456 62.3592 713.289 63.6796 712.007C61.936 705.687 68.7232 701.86 72.5142 698.012C79.5962 691.188 86.0328 683.682 91.5989 675.576L91.9186 674.82C92.9503 672.389 94.1831 669.69 96.104 668.525C97.9353 665.62 99.5001 662.563 101.155 659.559C96.6384 657.902 92.1902 656.052 87.7919 654.103C86.9165 653.714 86.6382 652.577 86.791 651.731L86.8021 651.674C95.389 607.13 105.684 562.905 113.691 518.259C118.805 477.113 120.902 435.444 131.654 395.203C126.438 394.661 121.246 393.164 116.127 391.885C112.023 391.012 109.948 388.93 110.757 384.587C111.035 380.728 111.809 376.931 112.227 373.088C111.135 372.324 110.068 371.521 109.031 370.696C107.107 372.13 105.122 373.481 103.081 374.741C98.197 378.256 94.4267 378.803 91.4089 373.043C82.6695 359.25 74.2412 345.256 66.287 330.997C58.9092 317.318 49.7654 303.667 47.8925 287.917C45.1718 259.574 78.4626 214.215 95.1396 191.18C104.336 180.084 115.537 168.665 130.103 165.438C134.583 164.775 139.307 164.685 143.578 163.061C143.925 160.987 144.9 159.077 147.103 158.569C149.419 158.057 151.903 157.267 154.237 157.209C154.764 157.061 155.387 156.967 155.944 157.069C157.541 152.926 157.776 148.257 159.609 144.207ZM70.3768 715.283C70.7758 715.479 71.189 715.65 71.6118 715.802C72.1319 715.873 72.6496 715.939 73.1673 715.998C72.2292 715.788 71.2983 715.551 70.3768 715.283ZM122.207 675C114.556 677.775 112.453 664.75 97.4055 670.021C91.5248 680.929 83.9116 690.836 75.2095 699.645C72.1164 703.486 62.9615 707.848 67.8951 713.481L68.6507 713.619C77.2184 715.176 85.9151 716.413 94.6459 715.709C101.243 713.891 106.191 708.608 110.19 703.281C113.083 698.157 116.467 693.336 119.922 688.581C121.821 686.217 122.014 683.208 122.005 680.3C122.069 678.532 122.135 676.766 122.207 675ZM208.152 668.606C204.903 667.416 201.571 668.535 198.616 669.995C193.569 672.252 182.637 674.955 177.967 671.358C175.677 675.142 174.909 679.348 175.537 683.713L175.544 683.983C175.597 685.745 175.844 687.165 177.988 687.289L184.074 688.819C204.608 693.97 225.344 698.949 246.48 700.382C252.121 696.863 252.279 692.236 246.283 689.014L244.749 688.075C232.977 680.879 220.93 673.807 208.152 668.606ZM252.823 698.536C252.766 698.633 252.712 698.73 252.655 698.825C252.743 698.867 252.823 698.929 252.899 698.995C252.899 698.836 252.876 698.68 252.823 698.536ZM102.295 659.972C102.374 661.571 101.588 663.377 101.034 664.813C100.709 665.662 100.374 666.873 99.8564 667.845C112.723 664.053 116.636 675.165 121.275 672.854L121.415 672.78V672.777C120.469 670.616 121.501 667.573 122.138 665.418C115.382 664.197 108.749 662.298 102.295 659.972ZM203.953 656.552L200.244 656.666C194.474 656.841 188.704 656.993 182.93 656.985C183.534 661.131 182.352 667.97 179.667 671.192C179.662 671.194 179.658 671.194 179.655 671.196C187.255 672.346 194.453 668.867 201.222 665.942C201.507 662.765 202.755 659.522 203.953 656.552ZM179.135 669.182L178.442 670.476C178.541 670.587 178.655 670.689 178.776 670.777C178.706 670.239 178.898 669.706 179.135 669.182ZM101.466 659.675C101.338 660.232 101.189 660.789 101.03 661.346C101.272 660.799 101.547 660.275 101.882 659.825L101.466 659.675ZM182.531 656.988L182.125 656.992L182.123 657.225C182.218 657.384 182.234 657.578 182.116 657.734C182.101 658.45 182.07 659.168 182.016 659.886L182.151 659.057C182.266 658.367 182.387 657.677 182.531 656.988ZM177.371 656.751L177.392 657.111C177.912 657.092 178.437 657.113 178.955 657.087C179.228 657.073 179.508 657.026 179.791 656.976C178.976 656.95 178.164 656.886 177.371 656.751ZM269.799 359.703C269.543 360.005 269.262 360.187 268.977 360.28C268.98 367.122 267.597 373.851 263.81 379.776C262.234 381.864 261.344 384.241 260.582 386.718C256.577 398.055 255.833 410.234 257.293 422.106C261.229 416.336 262.793 409.451 263.893 402.661C263.952 402.32 264.517 402.325 264.579 402.661C265.909 409.928 263.623 417.066 260.888 423.782C259.181 425.002 259.588 428.197 259.383 430.076C288.402 434.302 278.31 378.628 282.027 361.481C282.096 361.009 282.498 360.666 282.954 360.521C278.601 359.857 274.19 359.809 269.799 359.703ZM133.143 393.907C133.179 394.089 133.209 394.272 133.233 394.454L133.39 393.916C133.309 393.913 133.226 393.911 133.143 393.907ZM152.755 158.411L152.247 158.544C146.885 159.926 145.15 159.736 144.846 166.206C143.528 174.986 138.662 182.645 136.475 191.135C135.6 194.133 136.526 199.659 140.674 198.847C142.018 198.435 143.065 200.245 142.049 201.206C139.045 204.045 136.128 206.972 133.195 209.88C144.973 249.603 160.272 288.294 178.909 325.311C179.648 326.78 177.432 328.072 176.699 326.603C158.171 289.467 142.761 250.789 130.801 211.056L130.44 209.851C129.912 208.388 136.666 203.146 137.895 201.435C125.563 195.498 142.78 174.703 143.248 164.689C139.719 166.24 135.717 165.684 131.989 166.308C124.836 167.562 118.557 171.691 112.977 176.148C90.3086 196.149 75.8227 223.841 61.332 249.942C51.4636 266.972 46.7063 287.79 56.6093 305.905C68.1 329.131 81.4293 351.518 95.5222 373.251C97.0697 375.263 99.4512 372.95 101.082 372.106C110.455 366.478 118.582 358.821 124.833 349.868C109.679 331.288 96.4793 310.982 87.144 288.859L87.0153 288.602C84.9208 284.395 83.2647 279.306 86.7586 275.344C99.1658 259.465 110.2 242.606 120.584 225.355C120.691 225.181 120.931 225.333 120.853 225.513C119.786 227.926 118.663 230.32 117.492 232.692C119.857 267.77 119.458 303.533 120.48 338.833C123.237 342.48 126.075 346.066 128.98 349.595C138.402 343.107 149.485 338.875 160.868 337.564L161.603 337.491C166.438 336.993 174.424 336.057 175.058 342.329C174.274 350.045 158.315 345.707 153.213 350.083C161.577 353.452 171.161 354.401 178.84 359.478C181.304 360.915 186.132 365.49 181.415 367.241C179.357 367.416 177.231 366.618 175.174 366.442C177.489 367.221 179.618 368.541 180.973 370.611C181.949 372.03 182.662 374.977 180.33 375.584C175.013 375.734 169.718 374.001 164.482 373.14L164.947 373.329C168.765 374.89 174.699 377.695 169.557 381.831C164.41 384.494 158.178 379.965 153.052 378.756C139.242 375.545 129.027 384.344 114.87 374.818C114.469 378.002 113.865 381.163 113.624 384.364L113.593 384.546C113.102 387.468 113.522 388.523 116.676 389.081C120.477 390.228 124.459 390.588 128.41 390.801C147.422 391.806 166.56 391.093 185.443 388.66C188.16 387.931 194.543 388.618 195.679 385.63C193.55 308.728 161.483 236.366 152.653 160.464C152.508 159.734 152.498 158.989 152.755 158.411ZM206.354 164.983C204.837 165.045 203.426 165.374 201.917 165.526C202.753 167.302 207.161 169.814 206.76 170.695C207.078 170.942 207.401 171.179 207.729 171.408C207.273 169.806 206.812 168.207 206.35 166.604C223.103 207.4 225.405 255.668 227.631 300.171C228.364 322.611 228.763 345.12 227.678 367.546C227.075 373.502 225.479 379.522 225.913 385.537C235.745 386.953 245.72 387.074 255.592 386.026C255.884 385.26 256.215 384.507 256.589 383.767C271.367 365.754 263.53 343.18 256.414 323.668C252.111 323.85 247.783 323.578 243.475 323.631C244.807 327.748 245.15 332.105 245.858 336.363C246.34 339.397 246.955 342.407 247.663 345.395L247.877 346.292C248.14 347.366 248.461 348.516 248.085 349.576C247.705 350.655 246.394 351.09 245.525 350.251C243.958 348.466 244.126 345.804 243.621 343.589L243.527 342.892C242.665 336.534 241.529 329.937 243.105 323.628C241.558 323.296 237.328 324.516 237.106 322.436C237.171 319.001 234.679 311.559 237.453 309.296C239.104 308.038 241.941 308.436 243.877 308.358C246.114 308.268 248.349 308.185 250.584 308.199C232.624 264.806 237.619 251.449 239.441 208.264L239.495 206.946C239.491 206.662 239.949 206.59 239.999 206.877C242.745 224.566 239.085 242.476 240.819 260.221C243.898 293.936 265.267 322.884 268.84 356.438C276.544 355.544 284.339 356.64 291.807 358.573C291.964 357.21 292.085 355.843 292.17 354.475C293.588 329.43 284.798 305.107 274.543 282.644C268.396 270.721 264.597 257.996 263.007 244.69C259.919 227.359 252.991 211.034 246.085 194.935C241.719 182.897 232.282 180.059 220.579 178.661C224.526 185.203 228.45 191.758 232.366 198.319C233.24 200.303 230.561 201.719 229.393 202.94C243.769 210.779 235.375 234.985 235.672 248.548C234.605 261.011 234.202 273.546 232.321 285.922C232.183 286.78 230.867 286.529 230.855 285.725C231.029 267.181 233.241 248.711 234.211 230.196L234.329 228.846C235.086 220.081 235.827 207.435 225.284 205.029C223.861 204.796 223.752 202.682 224.895 202.047C226.414 201.201 227.747 200.167 228.939 198.937C224.911 192.18 220.89 185.418 216.906 178.632L216.719 178.317C213.888 173.516 211.259 167.929 206.354 164.983ZM172.143 341.859C170.98 338.434 159.693 340.664 156.68 341.037C145.57 343.134 134.39 348.05 125.928 355.62C125.405 356.087 124.788 356.08 124.301 355.826C120.511 360.667 116.134 365.054 111.334 368.909C112.213 369.601 113.115 370.272 114.044 370.914C114.488 370.961 114.889 371.192 115.07 371.604C128.277 381.171 137.993 373.708 151.712 375.432C156.835 376.465 161.552 379.722 166.831 379.859C170.704 378.978 167.293 377.359 165.484 376.733C161.387 374.777 157.211 372.995 153.025 371.237L149.677 369.833C148.031 369.144 148.596 366.657 150.434 367.091C153.652 367.849 156.88 368.57 160.11 369.279C166.321 370.546 172.681 372.171 178.957 372.787C177.562 368.909 162.758 364.722 158.454 363.181C156.829 362.413 152.192 362.559 152.722 360.04C153.149 357.695 158.082 360.38 159.727 360.571C166.442 362.274 173.295 363.306 180.137 364.344C172.788 356.973 161.397 356.337 152.011 352.885L151.754 352.826C150.084 352.437 147.798 351.705 149.155 349.809C153.976 342.701 172.951 346.297 172.143 341.859ZM158.257 302.281C161.68 299.473 163.514 305.24 163.297 307.922C163.458 310.147 163.632 312.373 163.777 314.598C163.564 316.338 165.419 322.683 162.938 322.74C152.094 322.189 141.267 322.328 130.419 321.675C130.405 323.863 130.298 326.048 130.409 328.238C130.351 330.977 131.302 333.712 130.746 336.42C130.407 337.664 128.714 337.832 128.053 336.771C126.071 332.11 127.434 326.098 128.837 321.384C123.525 320.402 122.792 315.41 124.192 310.955L124.177 310.714C124.099 309.34 124.106 307.866 124.719 306.756C126.36 304.824 129.762 306.079 132.022 305.933C138.949 305.219 146.004 305.022 152.85 303.75C154.622 303.292 156.43 302.367 158.257 302.281ZM115.196 237.205C109.803 247.497 103.598 257.291 96.9923 266.826C95.5768 268.862 94.1234 270.872 92.6467 272.868L92.4646 273.101C89.4861 276.9 86.3285 280.021 89.1458 285.045C96.452 302.787 106.234 319.447 117.568 334.91C116.851 302.341 116.217 269.763 115.196 237.205ZM250.783 308.72C237.233 311.559 236.98 306.243 239.241 321.289C244.676 321.326 250.107 321.204 255.543 321.291C253.989 317.089 252.379 312.906 250.783 308.72ZM159.829 304.471C152.753 306.929 145.239 306.579 137.848 306.881C137.863 308.47 130.301 306.995 128.849 307.213L128.345 307.17C127.136 307.069 125.583 307.031 125.569 308.524C125.954 311.097 124.505 313.916 125.403 316.445C126.614 319.85 131.796 319.5 134.656 319.566C139.37 319.673 144.084 319.786 148.798 319.91C153.033 320.021 157.281 320.232 161.518 320.263C161.138 317.248 161.034 314.157 160.804 311.145C160.513 308.979 160.932 306.412 159.829 304.471ZM189.587 315.423C189.594 315.461 189.601 315.499 189.611 315.539C189.666 315.525 189.723 315.512 189.78 315.5L189.867 315.482V315.48C189.775 315.463 189.68 315.444 189.587 315.423ZM210.111 180.043C207.05 185.288 201.977 188.656 195.866 188.706C185.141 189.323 174.274 188.614 163.822 186.075C162.285 185.691 160.449 185.357 159.036 184.518C167.106 228.228 180.151 270.808 189.349 314.266C196.012 314.853 202.653 314.791 209.329 314.477C214.482 314.399 219.687 314.953 224.804 314.188L224.645 308.792C223.353 265.604 221.556 221.894 210.111 180.043Z" fill="black"/>
<path fill-rule="evenodd" clip-rule="evenodd" d="M178.193 44.9233C178.628 43.5676 179.858 42.7523 181.267 42.9206C182.513 43.0675 183.848 44.3023 183.696 45.6651C183.668 45.9282 183.63 46.1747 183.584 46.407L183.59 46.4091L183.596 46.4093L183.565 46.4994C183.473 46.9331 183.345 47.3218 183.155 47.6892C182.912 48.3931 182.68 49.0994 182.449 49.8081C182.782 49.7939 183.121 49.8128 183.466 49.8768C183.822 48.9667 184.181 48.0589 184.537 47.1464C184.919 46.1723 185.188 44.9209 185.943 44.1672C186.909 43.205 188.586 43.0059 189.764 43.6932C191.008 44.4185 191.452 45.7078 191.182 47.0896C191.044 47.7944 190.572 48.2849 189.988 48.5931L189.925 48.6254L189.477 49.6872C189.614 49.6279 189.757 49.5734 189.911 49.5284C190.153 49.4573 190.391 49.4123 190.624 49.3933C191.265 48.2343 191.97 47.1085 192.699 46.0041C193.538 44.7337 195.176 44.1933 196.551 44.9968C197.782 45.7149 198.442 47.6015 197.561 48.8411C196.891 49.782 196.257 50.7419 195.632 51.7113C195.739 51.7302 195.846 51.7539 195.948 51.7847C195.996 51.7207 196.046 51.6567 196.098 51.5928C196.779 50.749 197.573 50.1162 198.387 49.4146C199.15 48.7557 199.501 47.72 200.503 47.2199C201.764 46.5918 203.284 46.8928 204.035 48.1443C205.645 50.8248 202.942 52.7825 201.213 54.4061C202.717 53.4699 204.282 52.6143 205.887 51.8748C206.79 51.46 207.706 51.0595 208.637 50.7134C210.017 50.2015 211.133 50.3653 212.266 51.3178C212.772 51.7444 213.024 52.6761 212.791 53.2969C212.34 54.4866 211.627 55.2095 210.378 55.5532C209.499 55.7949 208.599 55.9585 207.72 56.2121C206.248 56.634 204.818 57.1483 203.431 57.7906C203.531 57.8522 203.626 57.9186 203.714 57.9944C204.75 57.6602 205.804 57.3711 206.863 57.1246C208.62 56.7135 210.408 56.4358 212.204 56.262L212.8 56.2066C214.953 56.0004 217.542 55.6199 218.863 57.6768C219.298 58.3547 219.346 59.4733 218.863 60.1441C217.942 61.4334 217.025 61.6894 215.501 61.7131C217.002 61.8719 218.5 62.0686 219.992 62.2985C221.02 62.4549 222.048 62.6322 223.071 62.829L223.582 62.9289C224.829 63.1778 226.221 63.3224 227.292 64.0429C229.629 65.6166 228.532 68.6812 225.943 69.0083C224.691 69.1647 223.302 68.6361 222.074 68.3897C220.882 68.1503 219.685 67.9393 218.484 67.7545C217.861 67.6573 217.239 67.572 216.614 67.4938C217.885 67.6763 219.146 67.9346 220.374 68.2996L220.715 68.4023C223.089 69.1243 226.293 70.2741 227.033 72.8052C227.482 74.3433 226.254 75.6848 224.767 75.7749C223.385 75.8578 222.233 75.0354 221.06 74.4287C220.205 73.9878 219.336 73.6584 218.415 73.3764C217.462 73.0848 216.491 72.8431 215.513 72.6464C216.339 73.101 217.145 73.6007 217.918 74.1596L218.273 74.4216C220.328 75.9494 223.461 78.3148 222.737 81.1787C222.509 82.0817 221.5 82.9444 220.531 82.852C218.009 82.6174 216.617 79.9368 214.715 78.5005C214.218 78.126 213.674 77.7563 213.104 77.396C215.987 80.8279 218.282 84.7955 220.027 88.8934C223.863 97.9087 225.04 106.258 225.069 115.951L225.069 116.251C225.074 121.598 224.953 127.043 224.43 132.366C223.946 137.284 223.058 142.138 220.823 146.591C217.078 154.059 209.78 159.876 201.731 162.089C192.775 164.554 182.765 162.627 175.429 156.939C173.558 155.488 176.039 152.339 177.951 153.678C185.586 159.022 195.461 160.715 204.225 157.098C211.176 154.23 216.774 148.061 219.146 140.957C220.656 136.438 221.096 131.62 221.635 126.911L221.671 126.597C222.241 121.672 222.571 116.714 222.566 111.755C222.559 102.548 221.234 94.968 217.175 86.6157C215.266 82.6814 212.789 79.0435 209.829 75.8507C208.932 76.0332 207.977 75.7773 207.07 75.6801C206.607 75.6303 206.144 75.5829 205.68 75.5402C206.154 75.8455 206.618 76.1629 207.074 76.4877L207.672 76.9182C209.544 78.256 211.918 79.7798 211.437 82.3661C211.307 83.0653 210.608 83.7076 209.932 83.8664C207.478 84.4495 205.792 82.0699 204.134 80.6573C202.693 79.4296 201.185 78.3299 199.648 77.2278C199.299 76.9789 198.948 76.73 198.594 76.4835C198.926 76.8703 199.25 77.2632 199.565 77.6597L200.031 78.2497C201.443 80.0119 203.477 82.3025 202.22 84.5869C201.864 85.2316 201.104 85.6606 200.368 85.6464C197.836 85.5942 196.829 82.7264 195.642 80.9156C194.621 79.3632 193.512 77.9009 192.364 76.4385C192.049 76.038 191.73 75.6374 191.407 75.2369C186.09 75.5118 180.792 76.2134 175.586 77.3344C172.009 78.1047 168.492 79.1027 165.001 80.1951L164.711 80.2872C162.821 80.8943 160.875 81.6713 159.513 83.0037C159.318 83.9217 159.467 84.8898 159.653 85.8066L159.798 86.5083C160.396 89.4427 160.803 92.3227 160.498 95.3353C160.182 98.4425 159.244 101.237 158.099 104.124C157.558 105.484 156.998 105.238 156.805 106.698C156.658 107.81 156.749 108.958 156.85 110.079L156.934 111.03C157.145 113.52 157.251 116.235 155.615 118.29C155.361 118.605 154.817 118.479 154.637 118.164C154.566 118.039 154.49 117.918 154.407 117.802C153.618 116.661 152.409 116.012 151.027 115.761C150.851 115.73 150.92 115.495 151.067 115.476C152.236 115.339 153.343 115.631 154.283 116.233C153.837 114.693 150.384 115.442 149.249 115.741L149.21 115.751C147.795 116.131 146.455 116.747 145.275 117.619C142.9 119.373 141.527 122.108 141.596 125.054C141.665 127.95 143.164 130.626 145.738 132.013C146.98 132.681 148.393 133.003 149.799 132.989C151.267 132.975 152.573 132.333 154.043 132.423C154.893 132.475 155.544 133.385 155.052 134.179C154.725 134.71 154.297 135.127 153.803 135.447C155.007 138.218 156.544 140.86 158.316 143.299C159.296 144.652 160.408 145.901 161.631 147.041C162.586 147.933 164.654 148.964 164.538 150.45C164.497 150.985 164.22 151.312 163.73 151.511C162.209 152.132 160.36 149.995 159.343 148.965L159.261 148.883C157.993 147.622 156.836 146.228 155.829 144.75C154.043 142.123 152.934 139.163 152.476 136.054C150.037 136.786 146.807 136.099 144.817 135.2C138.561 132.38 136.516 123.973 140.319 118.375C141.055 117.292 141.976 116.365 143.026 115.616C142.796 115.491 142.58 115.329 142.387 115.126C141.323 113.998 140.571 112.525 139.824 111.169L139.734 111.006C139.072 109.812 138.446 108.599 137.86 107.367L137.642 106.904C136.334 104.095 135.186 102.868 134.253 99.9144C133.355 97.0655 132.648 94.1621 132.189 91.209L132.068 90.4273C131.802 88.7137 131.552 86.8813 131.745 85.1415C130.413 85.5753 129.074 85.8431 127.755 85.1913C126.886 84.7623 126.407 83.5109 126.703 82.6126C126.919 81.9514 127.28 81.4323 127.739 81.0247C127.466 80.8872 127.209 80.7118 126.984 80.5175L126.786 80.347C125.989 79.6547 125.932 78.3393 126.416 77.4719C126.464 77.3889 126.511 77.3036 126.556 77.2206C127.017 76.3982 127.969 75.8602 128.91 75.8744C129.062 75.8768 129.214 75.8768 129.368 75.8744C128.929 75.7773 128.499 75.6279 128.09 75.3767C126.247 74.2462 126.48 71.1816 128.71 70.6413C129.646 70.4161 130.679 70.5085 131.71 70.7503C131.672 70.7289 131.634 70.7076 131.596 70.6839C130.817 70.2075 130.164 69.2761 130.237 68.3209C130.318 67.2639 130.66 66.5102 131.596 65.9556C132.408 65.4768 133.557 65.4318 134.365 65.9556C135.065 66.413 135.752 66.9178 136.412 67.4606C135.749 66.6476 135.175 65.7636 134.942 64.825C134.655 63.6566 135.134 62.3838 136.189 61.7676C137.029 61.277 137.918 61.3315 138.711 61.7107C138.668 61.0969 138.818 60.4712 139.226 59.9165C140.062 58.7791 141.582 58.1248 142.905 58.9543C143.078 59.0633 143.311 59.2506 143.537 59.4805C143.097 58.0845 143.494 56.6197 144.992 55.9893C145.907 55.603 147.144 55.7973 147.937 56.4633C147.434 53.7448 151.455 51.7468 153.017 54.5554C153.372 55.1916 153.723 55.8616 154.037 56.5469L154.152 56.8046L154.164 56.7999L154.084 56.6114L154.003 56.423C153.568 55.4157 153.015 54.3681 152.863 53.2755C152.64 51.6591 153.362 50.1257 155.124 49.8887C156.033 49.7654 157.045 50.1778 157.655 50.8986C157.325 48.3908 160.132 46.5681 162.153 48.4405C163.11 49.3269 163.621 50.6234 164.229 51.761C164.573 52.4033 164.925 53.0433 165.269 53.6879C165.357 53.5836 165.452 53.4794 165.552 53.3774C165.041 51.8511 164.645 50.2868 164.31 48.7131C163.992 47.2294 164.735 45.6888 166.269 45.2696C167.663 44.8854 169.409 45.7436 169.72 47.2249C169.938 48.2675 170.197 49.2987 170.482 50.3248C170.677 50.2774 170.869 50.2442 171.059 50.2205C171.075 50.0277 171.093 49.8339 171.113 49.6411L171.188 48.9555C171.354 47.389 171.521 45.6008 172.342 44.2691C173.741 41.9939 177.327 42.9372 177.365 45.6272C177.386 47.0185 176.818 48.3979 176.621 49.7749C176.536 50.3745 176.486 50.9813 176.457 51.588C176.84 49.5734 177.365 47.5849 177.973 45.6272C178.044 45.3926 178.12 45.1579 178.193 44.9233ZM147.253 122.611C150.4 122.125 153.276 123.876 155.14 126.329C155.48 126.777 155.257 127.41 154.95 127.787C154.729 128.064 154.433 128.097 154.098 128.14C153.713 128.19 153.226 127.879 153.058 127.545C151.858 125.156 149.718 123.646 147.253 122.717C147.208 122.701 147.194 122.62 147.253 122.611ZM151.615 79.8054L151.711 79.7033C152.347 79.0442 151.341 78.0374 150.703 78.6979C150.031 79.3933 149.585 80.238 149.155 81.0941C148.746 81.9104 149.975 82.6314 150.386 81.812L150.573 81.4396C150.867 80.8605 151.18 80.2885 151.615 79.8054ZM142.778 78.4526C143.681 78.3009 143.298 76.9303 142.4 77.0815C141.235 77.2773 140.076 77.4998 138.911 77.6959C138.009 77.8475 138.392 79.2182 139.29 79.0672C140.454 78.8712 141.614 78.6486 142.778 78.4526ZM196.538 69.0952C195.666 68.8049 195.292 70.1779 196.16 70.4666C197.358 70.8655 198.546 71.2743 199.683 71.8282C200.504 72.2283 201.227 71.0022 200.402 70.6003C199.154 69.9923 197.854 69.5332 196.538 69.0952ZM142.573 67.2522C141.722 66.9124 141.352 68.2873 142.194 68.6236L145.272 69.852C146.124 70.1919 146.493 68.8172 145.651 68.4809L142.573 67.2522ZM207.286 63.9134L207.173 63.8426C206.401 63.3435 205.686 64.574 206.454 65.0706C206.905 65.3619 207.452 65.5595 207.865 65.9065L207.951 65.9833C208.618 66.6114 209.627 65.6079 208.959 64.9777C208.47 64.517 207.851 64.2606 207.286 63.9134Z" fill="black"/>
<path fill-rule="evenodd" clip-rule="evenodd" d="M197.256 143.848C195.659 143.198 194.235 142.114 193.193 140.729C192.831 140.247 192.737 139.739 192.813 139.274C192.899 138.751 193.209 138.277 193.631 137.959C194.055 137.64 194.586 137.483 195.099 137.563C195.544 137.633 195.988 137.876 196.339 138.381L196.412 138.482C197.031 139.318 197.838 140.004 198.757 140.446C199.643 140.872 200.634 141.071 201.66 140.955C203.613 140.735 204.959 139.681 206.39 138.25C206.567 138.069 206.745 137.882 206.923 137.693C207.036 137.521 207.192 137.411 207.365 137.353C207.558 137.289 207.776 137.293 207.976 137.362C208.168 137.429 208.34 137.556 208.456 137.725C208.565 137.886 208.628 138.085 208.607 138.313C208.476 139.796 207.699 141.12 206.595 142.16C205.369 143.315 203.744 144.113 202.214 144.393C200.528 144.702 198.811 144.481 197.256 143.848ZM203.009 120.962C204.803 122.05 207.535 124.587 205.606 127.284C203.335 129.662 200.065 126.935 198.454 125.702C196.96 124.746 195.282 127.204 196.668 128.32C208.31 136.923 213.035 121.247 203.916 119.683C202.912 119.511 202.539 120.626 203.009 120.962ZM182.146 110.955C182.344 108.501 186.09 107.944 186.462 110.372C186.796 112.548 186.403 114.547 185.421 116.506C184.483 118.377 182.124 117.504 181.946 115.8C181.707 113.516 182.022 112.482 182.146 110.955ZM210.66 109.869C211.182 109.186 211.936 108.72 212.839 108.984C215.662 109.807 214.83 113.806 213.839 115.752C213.3 116.809 211.559 117.077 210.772 116.147C209.49 114.629 208.875 111.598 210.506 110.103C210.55 110.025 210.599 109.947 210.66 109.869ZM185.381 100.215L185.827 100.137C187.207 99.8992 188.921 99.6704 189.897 100.777C190.415 101.364 190.593 102.455 189.897 103.016C188.674 104.005 187.321 103.622 185.855 103.705C184.646 103.775 183.485 103.974 182.321 104.306C179.768 105.034 177.687 106.364 175.506 107.824C175.22 108.016 174.928 107.65 175.064 107.383C176.323 104.922 178.763 102.901 181.207 101.669C182.511 101.011 183.938 100.465 185.381 100.215ZM208.087 99.1128L208.428 99.1825C212.141 99.9572 216.966 101.505 218.725 105.145C218.792 105.66 218.721 105.77 218.664 105.842L218.644 105.866C218.597 105.928 218.559 106.013 218.336 106.083C218.274 106.068 218.211 106.052 218.148 106.036C217.341 105.825 216.704 105.534 216.086 105.233L215.417 104.904C214.64 104.524 213.856 104.158 213.026 103.887C211.254 103.31 209.431 102.904 207.58 102.687C207.179 102.64 206.792 102.505 206.488 102.273C206.198 102.053 205.977 101.749 205.877 101.344C205.746 100.821 205.783 100.425 206.065 99.9522C206.277 99.5975 206.579 99.3516 206.927 99.2104C207.282 99.0665 207.685 99.0326 208.087 99.1128Z" fill="black"/>
<path fill-rule="evenodd" clip-rule="evenodd" d="M223.024 117.422C222.352 119.246 221.33 121.145 220.08 122.68C215.023 126.954 210.109 124.588 207.614 118.796C206.666 114.702 209.183 110.293 211.85 107.282C215.702 103.429 221.989 105.451 223.76 110.031C223.868 110.625 223.933 111.217 223.964 111.807C223.927 113.725 223.696 115.364 223.024 117.185M174.414 113.744C181.077 105.835 193.54 105.413 193.222 117.584C191.791 132.991 167.693 129.209 174.414 113.744ZM225.119 107.147C224.886 106.752 224.627 106.37 224.344 106.005C224.239 105.943 224.179 105.392 223.795 105.351C218.659 99.6964 209.636 102.905 206.376 108.54C205.78 109.252 205.295 110.086 204.936 110.967C201.724 110.379 197.979 110.493 194.992 111.704C192.029 103.984 183.06 103.295 177.15 106.594C173.474 108.398 171.09 112.177 167.515 114.252C159.11 114.856 150.09 112.977 141.838 115.081C135.329 116.431 140.77 119.72 141.861 117.525C149.642 115.231 158.86 117.17 166.939 116.653C167.779 118.071 169.39 119.231 170.995 119.182C172.729 134.521 195.144 131.978 195.918 118.342C196.795 116.958 197.886 115.633 199.447 114.771C200.045 114.648 200.622 114.487 201.15 114.239C202.052 114.112 203.441 114.493 204.271 115.243C207.114 132.264 223.49 130.282 226.416 115.37C226.475 115.311 226.637 115.089 226.762 114.732C227.764 113.41 230.216 112.919 229.824 110.688C229.475 108.456 226.651 108.482 225.119 107.147Z" fill="black"/>
</svg>
