<svg width="391" height="780" viewBox="0 0 391 780" fill="none" xmlns="http://www.w3.org/2000/svg">
<path fill-rule="evenodd" clip-rule="evenodd" d="M158.222 146.71C160.072 148.205 158.142 158.991 156.652 161.191C166.732 167.671 176.918 174.001 187.316 179.935L188.392 180.548L188.359 180.538C188.791 180.732 189.522 180.903 189.95 180.818L190.244 180.721C190.305 180.702 190.34 180.693 190.323 180.707C190.497 180.614 190.665 180.517 190.829 180.406C193.794 177.706 195.954 173.131 198.277 169.572C194.322 166.09 196.293 159.304 196.453 154.669C197.2 154.65 197.288 157.018 197.502 157.705L197.623 158.36C197.908 159.894 198.233 161.457 198.821 162.883C200.531 160.721 209.189 165.83 210.811 167.475C212.578 168.599 212.036 170.599 212.013 172.357C228.444 175.548 249.397 177.793 251.605 198.383C254.203 209.428 255.591 220.67 256.875 231.927L257.084 233.724C259.328 253.094 261.32 272.704 267.657 291.251L270.077 297.015C275.316 309.516 280.426 322.119 283.77 335.273C286.364 340.886 293.269 394.458 282.882 390.325C286.434 396.11 283.775 403.722 282.542 409.907C279.987 420.058 274.886 436.647 261.161 431.755C250.813 486.97 230.315 540.166 225.132 596.342C223.449 614.6 223.485 633.078 226.343 651.224C226.729 652.948 225.078 654.471 223.391 653.715C222.544 653.957 221.648 654.029 220.779 654.193C221.779 658.211 222.365 662.406 222.898 666.513L222.957 666.968L222.959 666.971C223.374 667.431 223.578 668.014 223.56 668.672C229.83 668.695 235.076 672.736 239.253 677.029C246.497 684.598 254.146 691.813 262.815 697.753C269.02 702.789 279.906 705.741 280.256 715.103C283.423 714.568 282.665 721.478 282.103 723.303C281.445 725.349 279.534 726.527 277.7 727.438C251.333 736.26 222.291 727.668 197.222 718.196C192.829 718.776 189.689 712.971 189.219 709.144C188.741 707.032 189.865 704.979 189.209 702.92L188.993 702.355C188.204 700.286 187.459 698.263 187.009 696.071L186.944 695.614C185.875 688.041 185.014 675.216 189.078 668.881C193.819 664.824 191.365 660.937 191.841 655.533C187.16 654.999 182.531 653.942 178.152 652.259C176.425 652.627 174.919 651.23 174.805 649.559L174.636 646.885C173.752 632.97 172.832 619.041 172.602 605.097C171.521 573.459 178.702 542.497 184.357 511.594C184.913 499.681 187.191 487.917 187.511 475.974C187.751 468.778 188.05 461.601 188.411 454.418C162.767 520.388 141.72 588.199 126.614 657.353C128.004 658.294 128.156 660.86 126.087 661.273C123.061 661.875 120.014 662.368 116.956 662.74C117.445 670.166 113.02 680.21 117.119 686.505L117.283 686.756C118.061 687.963 118.822 689.341 118.027 690.743C123.354 700.724 127.972 711.139 130.813 722.133C134.059 720.803 135.909 727.389 135.813 729.769C135.604 732.888 137.288 738.146 134.594 740.279C120.442 749.385 101.231 747.973 85.8062 742.93C82.9452 741.706 79.6664 740.872 77.2141 738.915C76.1026 737.789 76.1786 735.938 76.0882 734.476L76.0605 733.719C75.915 729.51 75.9292 725.221 77.0835 721.076C76.7747 715.069 77.6724 708.983 78.8551 703.108C79.6125 698.365 81.7934 693.859 82.0869 689.072C83.6351 684.789 80.8429 680.784 81.5934 676.503C82.2058 673.894 84.1255 671.64 85.2369 669.211L85.3149 669.037C86.3206 666.828 87.0412 664.539 87.913 662.273C86.2434 661.955 84.5953 661.564 82.9708 661.095C82.1938 663.906 77.6962 663.112 77.8292 660.247C81.5231 614.036 88.8637 568.082 100.226 523.125C105.527 496.536 119.217 471.744 121.28 444.61C119.638 444.303 117.767 444.224 116.157 444.409L115.965 444.433C114.937 444.56 113.949 444.74 112.846 444.222C98.699 435.5 100.153 408.775 101.227 394.149C100.588 393.935 99.9774 393.672 99.4217 393.343C98.9301 393.708 98.1844 393.729 97.897 393.056C97.1727 391.357 96.2417 389.698 95.6119 387.97C79.2197 331.707 89.687 272.416 92.9874 215.063C94.2734 203.281 94.2832 187.283 106.01 180.79C109.945 178.929 114.386 178.13 118.58 177.057C128.205 174.192 138.258 172.908 147.58 169.242C145.411 166.235 145.927 161.848 147.734 158.823C149.167 156.646 151.919 158.312 153.619 159.238C155.582 155.234 156.929 150.965 158.222 146.71ZM131.407 724.702L131.494 725.105C131.953 727.26 132.349 729.524 132.119 731.717C138.216 737.649 110.121 738.4 107.021 738.387C99.9271 738.314 79.0698 735.954 78.0382 727.418L78.05 727.622C78.188 730.337 77.7268 735.408 79.2066 737.415C90.391 743.223 103.404 745.52 115.923 744.089L116.373 744.029C121.363 743.345 130.84 741.33 133.302 737.178C132.758 733.312 134.095 727.774 131.407 724.702ZM111.175 686.353C104.328 678.914 93.0812 684.352 85.8611 688.501C85.5884 691.758 83.3005 692.957 83.2078 696.374C81.6694 706.812 78.1246 718.612 82.6407 728.691C96.1035 735.884 112.113 735.397 126.678 732.3C127.06 731.805 127.541 731.656 128.229 731.468C128.662 728.41 127.787 725.336 127.208 722.367C125.752 716.127 123.868 710.001 122.192 703.819C119.19 701.883 118.092 697.817 116.526 694.75C116.101 693.89 115.666 693.03 115.21 692.177C112.766 691.377 112.126 688.464 111.175 686.353ZM191.439 706.874C190.703 714.376 198.035 717.367 203.962 719.168C210.633 721.535 217.468 723.5 224.341 725.199C238.421 728.82 253.101 730.406 267.534 728.136L267.784 728.092C271.949 727.36 279.409 726.481 280.355 721.668L280.365 721.558C280.43 720.77 280.553 717.8 280.256 717.041C280.146 717.039 280.04 717.016 279.937 716.965C278.731 720.817 274.335 723.159 270.098 723.763C268.1 725.766 264.419 725.023 261.755 725.138C244.173 724.964 227.269 719.53 210.609 714.48C205.308 712.641 194.74 711.323 191.439 706.874ZM192.95 668.255C189.898 667.182 189.319 675.714 188.929 677.797C187.945 686.607 187.968 700.344 195.113 706.592C202.568 709.779 210.614 711.242 218.304 713.75L220.124 714.283C234.7 718.543 249.679 722.526 264.978 721.898C266.132 719.593 273.458 721.509 276.252 717.402C279.999 710.881 270.536 706.68 266.059 703.902C257.459 698.392 249.427 691.985 242.184 684.789C238.778 681.407 235.662 677.534 231.663 674.816L231.454 674.676C228.028 672.408 223.63 671.002 219.606 672.491C215.687 673.939 214.248 678.407 210.961 680.715C203.637 685.454 196.136 677.964 193.757 671.186L193.686 670.981C193.601 670.77 193.833 670.642 194.009 670.699C193.992 670.633 193.98 670.564 193.966 670.497C193.042 670.256 192.955 669.108 192.95 668.255ZM88.7774 662.432C89.7343 667.83 87.0386 672.673 85.027 677.449C84.4855 680.615 86.4757 683.649 86.0154 686.87C92.6001 681.71 102.566 677.135 110.51 681.848C110.553 677.297 112.122 672.88 113.486 668.578L114.04 666.87C114.471 665.544 114.91 664.224 115.395 662.92C106.549 663.842 97.5933 663.934 88.7774 662.432ZM218.342 654.563C210.6 655.629 202.773 656.242 194.978 655.812L195.864 669.229C195.899 669.779 195.667 670.161 195.322 670.379C196.472 674.738 200.089 678.618 204.575 679.561C211.503 680.455 212.435 671.285 218.318 669.59C217.192 667.064 217.999 663.743 217.889 660.993C217.95 658.83 218.062 656.687 218.342 654.563ZM192.848 666.705C192.698 667.013 192.522 667.3 192.33 667.578C192.534 667.596 192.731 667.658 192.917 667.77C192.895 667.416 192.871 667.061 192.848 666.705ZM123.121 393.331C116.345 395.674 108.951 396.154 101.97 394.373C103.501 405.828 105.039 432.962 114.794 439.579C116.443 439.342 118.098 439.225 119.763 439.391C120.753 439.49 121.733 439.649 122.715 439.801C123.083 439.852 123.818 439.891 124.288 439.858L124.368 439.851C124.243 439.86 124.146 439.858 124.277 439.849L124.477 439.839L124.579 439.831C127.962 439.528 131.014 434.759 134.361 437.047C134.853 436.305 135.595 435.829 136.166 435.168C138.706 430.727 136.008 425.012 137.705 420.331C137.064 419.456 137.275 418.146 138.282 417.397C139.851 415.958 143.169 417.029 144.072 414.963C144.01 415.075 144.006 414.945 144.03 414.878L144.036 414.863L143.876 414.732C136.944 409.002 130.241 402.598 125.698 394.649L125.546 394.381C124.677 395.222 123.248 394.579 123.121 393.331ZM281.41 389.444C276.636 392.051 271.497 393.94 266.165 395.032C265.07 405.5 263.812 415.972 262.095 426.353L262.502 426.426C264.883 426.861 267.391 427.447 269.447 425.808C276.219 419.238 278.66 406.023 281.32 397.099L281.425 396.693C281.983 394.504 282.625 391.476 281.41 389.444ZM211.999 173.089C211.288 176.642 215.21 215.326 208.056 208.71C203.215 201.119 197.677 194.016 192.727 186.504C192.045 189.189 194.04 192.38 193.097 194.657C205.695 257.68 214.834 321.673 218.221 385.875C223.789 389.778 228.672 394.511 233.458 399.306C234.95 400.572 236.033 402.643 237.885 403.371C245.405 394.882 254.092 387.523 261.997 379.404C261.924 378.847 261.841 378.293 261.746 377.738C261.352 375.432 264.322 374.263 265.47 375.678C267.868 369.6 268.092 362.456 267.498 355.935C266.332 344.973 262.235 334.5 259.308 323.937C250.873 291.62 245.035 257.719 247.798 224.265C247.838 223.954 248.252 223.949 248.288 224.264C250.58 259.608 254.152 295.049 264.797 329.021L265.051 329.86C269.21 343.591 274.354 358.145 270.794 372.545C271.09 374.484 270.158 376.415 268.749 377.809C268.122 379.323 267.424 380.824 266.595 382.236C266.881 385.516 266.743 388.802 266.453 392.065C271.924 390.897 277.028 388.66 281.909 385.965C282.198 384.32 282.452 382.67 282.65 381.013C286.438 350.29 274.883 320.411 263.323 292.521C252.307 260.018 254.458 224.745 245.252 191.865C239.428 179.043 223.519 178.035 211.999 173.089ZM149.558 170.707L149.179 170.839C146.527 171.772 143.868 172.853 141.032 172.933C132.133 175.889 123.008 178.159 113.962 180.626L113.087 180.865C109.225 181.925 105.326 183.136 102.72 186.374C100.222 189.478 99.1771 193.477 98.3606 197.295C94.5347 230.659 92.3669 264.359 90.423 297.922C89.47 325.868 90.0131 354.28 97.1679 381.473C98.178 385.199 99.407 388.937 99.8421 392.764C100.362 392.771 100.885 392.807 101.41 392.859C101.417 392.609 101.798 392.65 101.77 392.895C108.723 393.99 115.948 393.342 122.472 390.65C120.861 341.696 110.387 288.564 134.112 243.149C134.209 242.976 134.504 243.095 134.437 243.287L133.852 244.971C131.971 250.399 130.132 255.835 128.809 261.432C130.694 261.153 132.069 265.561 132.426 266.642C142.709 297.808 136.376 331.064 135.067 363.072C152.771 375.922 170.649 388.562 189.048 400.405C197.405 394.984 204.89 387.875 213.476 382.959C211.022 316.834 197.506 251.409 190.159 186.101C187.434 189.481 184.659 192.823 181.888 196.165C178.323 200.533 174.877 205.015 171.362 209.425C170.635 210.34 169.051 209.985 168.534 209.062C161.611 196.574 157.209 182.782 149.558 170.707ZM128.69 261.93C118.476 303.903 126.962 347.126 126.802 389.576C127.562 390.247 127.28 391.519 126.393 391.98C126.263 392.565 126.108 393.146 125.928 393.727C126.64 394.402 127.358 395.073 128.082 395.736C127.531 386.495 132.191 378.1 134.891 369.424C132.949 367.695 129.312 366.624 129.797 363.468C130.172 356.604 130.652 349.744 131.233 342.897L131.592 339.064C133.856 314.761 135.779 290.063 130.457 266.03L130.425 265.848C130.251 264.796 129.919 262.144 128.69 261.93ZM281.868 389.195L281.785 389.24L281.97 389.396C281.932 389.333 281.899 389.264 281.868 389.195ZM220.776 374.894C218.409 372.578 222.063 368.906 224.401 371.277C226.765 373.597 223.109 377.269 220.776 374.894ZM219.216 347.356C218.693 345.986 220.148 343.814 221.686 344.724L221.734 344.753L221.755 344.725C223.211 345.583 222.674 347.36 221.819 348.42C220.872 349.394 219.692 348.237 219.216 347.356ZM216.993 315.651C212.875 310.267 221.527 308.058 220.109 314.686C219.807 315.926 217.316 317.734 216.993 315.651ZM210.904 285.653C208.719 282.987 213.417 280.692 214.4 283.875C214.963 285.998 212.309 287.307 210.904 285.653ZM232.77 219.519C234.064 219.72 240.606 218.386 238.923 221.105C241.555 234.232 248.958 250.249 238.389 261.72L238.294 261.812C236.736 263.366 234.243 267.061 231.857 265.538C226.562 261.08 219.74 257.895 215.694 252.189C213.993 247.713 215.441 242.712 214.991 238.03C214.799 232.107 213.811 226.239 213.599 220.325C213.59 220.038 213.901 219.946 214.096 220.067C220.305 219.574 226.547 219.683 232.77 219.519ZM214.307 220.482C217.116 229.608 217.18 239.366 217.105 248.826C217.149 249.801 217.321 250.75 217.831 251.495C221.847 256.221 227.568 259.183 232.335 263.108C234.265 261.85 235.793 260.242 237.161 258.417C245.537 247.477 237.947 233.707 237.956 221.525L236.883 221.527C229.364 221.537 221.775 221.438 214.307 220.482ZM207.986 254.376L208.059 254.377C210.94 254.384 210.279 259.257 207.56 258.588C205.268 258.047 205.618 254.406 207.986 254.376ZM202.335 229.505C200.339 226.11 206.926 224.797 206.232 228.718L206.248 228.557C206.251 228.526 206.253 228.498 206.256 228.474L206.206 228.841C205.967 230.575 202.537 231.818 202.335 229.505ZM197.913 201.391C199.744 200.907 201.094 203.473 199.524 204.623C197.19 206.381 195.18 202.002 197.913 201.391ZM153.03 161.627L152.807 161.421C150.418 159.232 148.627 158.137 148.098 162.599C147.729 164.775 148.045 167.519 150.135 168.806C160.141 178.681 163.934 192.779 170.381 204.924C176.203 197.886 181.622 190.56 187.252 183.38C179.495 178.662 171.661 173.981 164.009 169.058C160.352 166.631 156.417 164.422 153.03 161.627ZM203.402 167.448C200.392 172.351 197.614 177.655 193.776 181.994C193.287 182.484 192.779 182.873 192.254 183.169C193.005 182.953 193.999 183.513 193.904 184.335C199.49 189.893 204.057 196.358 208.42 202.9C209.254 192.079 207.664 181.212 208.28 170.373C206.862 169.072 205.173 168.181 203.402 167.448Z" fill="black"/>
<path fill-rule="evenodd" clip-rule="evenodd" d="M166.934 47.1091C174.346 46.0916 184.576 49.3986 188.268 56.0667C205.891 51.9204 228.118 51.7846 242.643 65.5874C257.799 81.9605 238.762 103.549 226.139 108.416C227.058 112.873 225.625 141.429 215.486 154.167C207.438 164.96 188.699 169.94 180.027 157.05L179.96 156.943C179.031 155.454 179.831 155.502 180.785 156.61C189.276 164.062 200.821 164.189 209.717 156.325C226.391 141.95 224.672 106.704 216.738 86.3139C194.145 83.8376 169.956 90.6713 154.352 107.643L155.407 113.983C155.587 115.063 155.791 116.142 155.947 117.226C156.047 117.92 156.058 118.611 155.576 119.173C153.984 121.029 151.301 118.24 149.093 117.131C148.442 117.04 147.789 117.004 147.149 117.049C136.543 118.413 138.633 138.945 150.289 135.346C151.268 134.737 152.11 134.923 152.49 135.806C155.268 138.346 157.1 142.876 161.716 147.239C163.345 148.875 164.827 150.245 166.659 151.557C167.735 152.643 170.982 153.751 169.953 155.609C168.006 159.838 156.528 146.555 154.499 142.881C148.141 145.387 141.094 144.536 134.505 143.923C99.7439 142.12 104.384 105.551 132.877 82.4639C138.241 78.5234 144.158 75.3088 150.31 72.8351C151.149 72.4974 150.782 71.1213 149.931 71.4638C145.861 73.1008 141.893 75.0493 138.111 77.3044L138.105 75.9562C138.099 73.6853 138.135 71.3212 138.53 69.2463C138.728 67.8086 139.06 66.273 139.572 65.1179C140.204 61.5762 150.111 49.4195 166.934 47.1091ZM146.685 121.763C147.221 121.254 148.223 121.861 148.701 121.846C149.923 122.013 151.084 122.528 151.989 123.163C152.587 123.498 153.006 123.811 153.356 124.1L153.366 124.097C153.363 124.097 153.36 124.1 153.357 124.101L153.39 124.123C153.899 124.484 155.765 126.52 154.586 125.973C154.499 125.859 154.409 125.749 154.318 125.642C154.308 125.657 154.295 125.671 154.278 125.685L154.345 125.783C155.347 127.287 153.617 125.703 153.351 125.282C153.338 125.292 153.324 125.299 153.31 125.306L153.656 125.727C153.705 125.787 153.743 125.834 153.775 125.875L153.848 125.945C155.006 127.082 155.042 128.104 153.696 126.424C153.749 126.503 153.792 126.587 153.798 126.662L153.878 126.763C154.934 128.122 154.075 127.64 153.55 127.059L153.506 127.009L153.515 127.023C154.003 127.774 153.034 127.247 152.863 126.845L152.855 126.827C152.669 126.675 152.554 126.504 152.515 126.461L152.507 126.454C151.599 125.525 150.282 124.739 149.163 124.382C149.001 124.351 148.836 124.326 148.671 124.309C147.998 124.159 147.318 124.056 146.63 124.001C146.546 123.991 146.461 123.929 146.397 123.85C145.358 123.815 145.679 123.389 146.11 123.311L146.118 123.309L146.032 123.302C145.365 123.237 144.91 122.998 145.584 122.852L145.669 122.835C145.659 122.818 145.65 122.802 145.641 122.786C145.063 122.722 145.44 122.162 145.761 122.298C145.626 121.857 146.242 122.077 146.319 122.012C146.378 121.947 146.451 121.889 146.493 121.886C146.679 121.756 146.589 121.767 146.685 121.763ZM150.219 114.637L150.083 114.716C149.974 114.78 149.861 114.822 149.748 114.847C149.908 114.915 150.066 114.988 150.222 115.067C150.219 114.971 150.217 114.875 150.217 114.78L150.219 114.637Z" fill="black"/>
<path fill-rule="evenodd" clip-rule="evenodd" d="M203.009 120.962C204.803 122.05 207.535 124.587 205.606 127.284C203.335 129.662 200.065 126.935 198.454 125.702C196.96 124.746 195.282 127.204 196.668 128.32C208.31 136.923 213.035 121.247 203.916 119.683C202.912 119.511 202.539 120.626 203.009 120.962ZM186.806 100.215L187.252 100.137L187.481 100.099C188.816 99.8782 190.4 99.7308 191.322 100.777C191.84 101.364 192.018 102.455 191.322 103.016C190.099 104.005 188.746 103.622 187.28 103.705C186.071 103.775 184.91 103.974 183.746 104.306C181.192 105.034 179.112 106.364 176.931 107.824C176.645 108.016 176.353 107.65 176.489 107.383C177.748 104.922 180.188 102.901 182.632 101.669C183.936 101.011 185.363 100.465 186.806 100.215ZM198.618 134.212C202.521 134.495 210.978 132.636 214.489 135.424C227.724 151.917 175.255 156.157 180.922 137.911C184.531 132.011 192.832 134.382 198.618 134.212ZM197.949 144.168C196.984 144.09 195.813 144.853 195.53 145.442C195.246 146.032 195.356 147.278 195.364 147.494C197.052 147.664 198.754 147.69 200.446 147.579C200.006 146.128 199.992 144.388 197.949 144.168ZM205.74 146.603C205.469 144.802 204.178 144.375 203.133 144.646C202.064 144.922 201.437 146.15 201.505 147.243C201.509 147.319 201.466 147.383 201.437 147.443C202.89 147.272 204.329 146.99 205.74 146.603ZM193.772 144.495C193.164 143.571 191.71 143.125 190.779 143.288C189.258 143.607 189.078 145.536 189.078 145.929C190.48 146.462 191.968 146.816 193.391 147.098C193.677 147.154 193.964 147.205 194.25 147.252L194.269 147.018C194.304 146.517 194.329 145.34 193.772 144.495ZM210.973 144.342C209.414 141.935 206.063 143.658 206.34 146.288C206.638 146.195 206.934 146.097 207.229 145.994C208.454 145.568 209.798 145.062 210.973 144.342ZM198.699 136.048C196.601 135.859 194.881 135.923 193.513 136.176L193.471 136.632C193.32 138.213 193.125 139.768 193.957 140.404C194.632 140.921 196.875 140.871 198.379 140.497C198.75 140.404 199.233 137.125 198.699 136.048ZM201.942 135.859C201.606 137.418 201.448 139.31 202.123 139.872C202.836 140.465 205.13 140.385 205.73 139.989C206.255 139.643 206.242 138.052 206.047 136.266C204.885 135.992 202.862 135.859 201.942 135.859ZM192.585 136.192L191.898 136.198L191.51 136.203C190.527 136.22 189.466 136.277 188.463 136.495C186.472 140.791 193.745 141.532 192.622 136.351L192.585 136.192ZM206.972 136.295L206.96 136.539C206.9 137.745 206.939 139.334 207.609 139.763C208.595 140.394 210.445 140.272 211.448 137.353C211.116 136.482 207.598 136.359 206.972 136.295ZM187.67 110.684C188.091 110.684 188.494 110.826 188.86 111.09C189.221 111.35 189.548 111.729 189.82 112.202C190.336 113.097 190.658 114.333 190.658 115.699C190.658 117.065 190.336 118.301 189.82 119.196C189.548 119.669 189.221 120.048 188.86 120.307C188.494 120.571 188.091 120.714 187.67 120.714C187.249 120.714 186.846 120.571 186.479 120.307C186.118 120.048 185.791 119.669 185.519 119.196C185.004 118.301 184.682 117.065 184.682 115.699C184.682 114.333 185.004 113.097 185.519 112.202C185.791 111.729 186.118 111.35 186.479 111.09C186.846 110.826 187.249 110.684 187.67 110.684ZM214.326 110.684C214.747 110.684 215.149 110.826 215.516 111.09C215.877 111.35 216.204 111.729 216.476 112.202C216.991 113.097 217.313 114.333 217.313 115.699C217.313 117.065 216.991 118.301 216.476 119.196C216.204 119.669 215.877 120.048 215.516 120.307C215.149 120.571 214.747 120.714 214.326 120.714C213.904 120.714 213.502 120.571 213.135 120.307C212.774 120.048 212.447 119.669 212.175 119.196C211.66 118.301 211.338 117.065 211.338 115.699C211.338 114.333 211.66 113.097 212.175 112.202C212.447 111.729 212.774 111.35 213.135 111.09C213.502 110.826 213.904 110.684 214.326 110.684ZM210.699 99.1128L211.04 99.1825L211.267 99.2304C214.947 100.021 219.614 101.578 221.337 105.145C221.404 105.66 221.334 105.77 221.276 105.842L221.257 105.866C221.209 105.928 221.172 106.013 220.948 106.083C220.886 106.068 220.823 106.052 220.76 106.036C219.954 105.825 219.316 105.534 218.699 105.233L218.029 104.904C217.252 104.524 216.469 104.158 215.638 103.887C213.866 103.31 212.043 102.904 210.192 102.687C209.791 102.64 209.405 102.505 209.1 102.273C208.811 102.053 208.59 101.749 208.489 101.344C208.358 100.821 208.396 100.425 208.677 99.9522C208.889 99.5975 209.192 99.3516 209.54 99.2104C209.894 99.0665 210.298 99.0326 210.699 99.1128Z" fill="black"/>
<path fill-rule="evenodd" clip-rule="evenodd" d="M215.316 131.935C213.75 131.641 212.131 131.724 210.576 131.382C209.058 131.048 207.853 130.056 206.387 129.594C205.096 129.187 203.584 129.463 202.579 130.251C201.646 129.82 200.585 129.727 199.523 129.87C197.912 130.085 196.409 130.765 194.974 131.501C194.808 131.586 194.642 131.668 194.475 131.75C191.825 131.684 189.107 131.689 186.506 132.256C184.202 132.758 182.025 133.927 180.651 135.88C179.114 138.065 178.836 140.848 178.599 143.431C178.448 145.07 180.73 145.402 181.503 144.215C182.304 142.985 183.139 141.751 184.207 140.732C185.42 139.573 186.895 139.117 188.549 139.012C192.199 138.778 195.873 138.974 199.526 138.813C201.644 138.719 204.001 137.906 204.855 136.069C205.766 137.494 207.83 138.341 209.528 138.469C211.322 138.605 213.144 138.28 214.92 138.653C216.618 139.009 218.635 140.271 218.257 142.288C218.036 143.473 219.537 144.172 220.228 143.117C223.049 138.808 220.269 132.864 215.316 131.935Z" fill="black"/>
</svg>
