<svg width="391" height="780" viewBox="0 0 391 780" fill="none" xmlns="http://www.w3.org/2000/svg">
<path fill-rule="evenodd" clip-rule="evenodd" d="M159.609 145.154C161.52 143.851 158.799 155.09 158.794 156.163L158.746 156.399C158.27 158.688 157.431 161.348 155.5 162.812C156.391 170.088 157.499 177.344 158.863 184.543C171.03 186.127 183.278 188.415 195.652 187.261C202.11 187.317 206.401 182.945 209.041 177.499L209.121 177.333L208.577 175.385C200.301 170.315 194.027 160.036 197.759 150.338C198.001 149.707 199.011 149.961 198.79 150.62C197.224 154.998 197.881 159.933 200.106 163.954C201.495 164.693 202.974 164.641 204.463 164.596C211.646 163.548 215.772 171.688 218.863 176.764L221.569 177.164C231.922 178.7 241.908 180.518 247.02 191.111L247.487 192.102C254.72 207.476 261.478 223.291 265.418 239.856C267.379 248.576 268.089 257.561 270.967 266.068C276.942 281.859 285.363 296.697 289.929 313.045C292.761 318.822 300.72 363.536 292.869 363.685C290.041 362.839 287.16 362.156 284.248 361.668C284.697 362.009 284.861 362.59 284.776 363.185C283.759 370.302 283.683 377.512 283.688 384.687C284.104 401.919 284.047 438.331 258.348 433.7C256.241 454.769 249.047 475.151 241.051 494.654C236.299 507.226 227.085 518.695 226.621 532.505C229.805 532.552 228.57 536.595 228.179 538.546C227.108 543.319 225.715 548.019 224.305 552.7C219.338 569.494 216.371 586.851 212.118 603.838C211.888 604.655 211.501 605.212 211.007 605.587C210.922 607.354 208.249 608.369 206.736 607.781C206.949 609.919 206.89 612.084 206.92 614.229L206.926 614.631L207.389 614.626C209.406 614.108 211.444 617.368 212.013 619.042C213.927 623.725 209.489 627.159 209.158 631.62C208.857 635.855 208.458 640.053 208.275 644.3C213.809 646.457 211.362 653.683 205.938 653.607C206.192 656.244 206.226 658.896 206.338 661.538C208.696 662.154 210.464 664.139 211.624 666.212C216.39 666.537 220.741 669.351 224.988 671.343C231.554 674.58 238.014 678.036 244.35 681.705C250.52 685.806 264.25 690.462 258.248 699.947C259.758 701.247 258.703 703.795 257.327 704.858L257.279 704.894C255.911 705.963 254.101 705.963 252.42 705.79C232.887 706.278 212.306 700.22 192.883 696.264L191.417 696.003C187.165 695.243 182.813 694.392 179.035 692.32C177.438 691.021 177.047 687.85 178.682 686.571C177.005 680.514 178.517 669.88 185.151 667.536C185.938 663.045 189.576 659.823 194.204 661.194C194.227 658.317 194.461 655.475 194.513 652.598C192.219 652.166 190.103 651.277 188.996 649.102C187.78 646.933 189.097 643.299 191.862 643.416C191.956 638.936 191.702 634.531 191.665 630.058L191.661 629.788C191.647 628.34 191.705 626.742 191.09 625.41C190.459 624.038 188.777 623.903 188.031 622.602C186.396 619.098 189.669 614.984 193.045 614.041C193.469 611.695 193.249 609.211 193.674 606.843C191.877 606.738 190.345 606.321 189.043 605.302C188.144 605.163 186.553 605.564 186.45 604.274C186.084 599.003 183.422 594.31 181.745 589.394C178.283 579.832 181.425 569.846 182.629 560.176C183.196 555.243 182.598 550.29 182.092 545.346C159.246 581.079 129.939 615.63 123.168 658.738C122.793 663.591 120.809 667.583 124.294 671.769C125.464 672.107 126.463 677.593 126.914 678.974C130.484 682.274 127.373 688.162 124.266 690.714C122.779 693.279 120.79 695.524 118.927 697.822L118.328 698.826C114.383 705.411 110.175 712.016 104.827 717.535C95.8394 724.192 80.7569 722.298 70.1704 721.098L69.2293 720.946C67.0243 720.579 64.5833 720.041 63.3143 718.081C62.2121 716.382 62.3596 714.178 63.7299 712.903C62.37 708.989 65.4685 705.147 68.3821 702.744C79.6771 692.746 89.4129 680.985 96.9948 667.951C99.9009 646.875 102.885 625.8 106.117 604.772C108.725 587.369 112.698 569.949 121.086 554.336L123.143 550.432C126.62 543.819 129.953 537.221 131.934 529.931C136.553 512.755 135.447 494.77 134.808 477.187C133.984 449.737 132.026 422.283 132.281 394.814C127.107 394.271 113.08 394.605 110.871 389.296C110.148 384.236 111.844 379.088 112.227 374.035C111.135 373.269 110.069 372.468 109.031 371.641C107.107 373.075 105.122 374.428 103.082 375.687C98.2022 379.194 94.4289 379.756 91.409 373.99C82.6716 360.196 74.2416 346.204 66.2872 331.945C58.9096 318.267 49.7653 304.612 47.8927 288.865C45.1706 260.52 78.4685 215.155 95.14 192.125C105.385 179.746 118.638 166.563 135.567 165.594L136.081 165.568C138.351 165.454 141.65 165.703 143.543 164.17C143.9 159.053 149.158 159.078 153.066 158.232C153.876 157.616 155.104 157.47 156.139 157.519C157.542 153.496 157.86 149.047 159.609 145.154ZM111.342 671.601C107.054 669.373 101.938 669.193 97.4272 670.959C91.8339 681.311 84.6698 690.76 76.5348 699.248C73.5627 703.39 62.4061 708.85 67.9712 714.441L68.7246 714.578C77.2675 716.132 85.9411 717.354 94.646 716.654C100.334 715.082 104.925 710.872 108.542 706.326C113.032 700.51 116.743 694.112 120.851 688.021C124.539 681.779 126.484 681.695 123.591 674.279C123.586 674.424 123.551 674.571 123.477 674.72C122.456 676.778 119.321 676.588 117.552 675.813C115.246 674.801 113.569 672.774 111.342 671.601ZM70.8284 716.36L70.958 716.42L71.0894 716.479L71.2818 716.481L70.8284 716.36ZM233.416 679.09C227.054 676.249 215.4 667.968 208.902 669.226C204.104 670.692 199.68 673.315 194.565 673.694L194.345 673.702C190.694 673.858 184.205 675.075 182.833 670.786C181.017 674.252 180.419 678.544 180.446 682.466C180.371 685.808 181.903 688.451 185.46 688.723L188.753 689.55C209.62 694.782 230.681 699.776 252.185 701.324C257.829 697.804 257.968 693.175 251.983 689.96C245.939 686.101 239.719 682.506 233.416 679.09ZM110.518 598.348C106.781 621.704 104.271 645.192 100.652 668.558C113.284 665.405 116.993 676.717 121.696 673.561C118.407 669.237 118.801 665.98 119.775 660.948C121.705 643.999 128.025 627.876 135.86 612.827C136.753 611.109 137.67 609.4 138.598 607.696C128.523 608.614 117.678 605.745 110.518 598.348ZM188.333 664.948C187.468 666.289 187.125 667.906 186.849 669.456C186.706 670.257 186.785 671.437 186.5 672.336C191.92 672.5 197.371 671.238 202.255 668.916L202.017 668.9C198.036 668.655 189.81 669.214 188.333 664.948ZM184.963 668.404C184.436 668.778 183.98 669.212 183.586 669.693C183.453 670.44 183.84 671.253 184.467 671.717C184.592 670.624 184.745 669.49 184.963 668.404ZM195.551 652.766C195.567 656.147 195.773 659.478 195.736 662.855C195.73 664.026 196.078 665.505 195.361 666.501L196.501 666.621C199.36 666.918 202.276 667.164 205.133 666.839C205.226 662.443 205.228 658.025 205.518 653.633C201.994 653.61 199.019 653.018 195.551 652.766ZM206.468 666.228C206.463 666.363 206.461 666.505 206.466 666.638C206.876 666.562 207.285 666.47 207.689 666.363C207.357 666.329 207.019 666.386 206.691 666.273C206.616 666.262 206.539 666.252 206.468 666.228ZM194.161 665.702C193.8 666.11 193.096 666.184 192.651 665.913C192.561 665.929 192.47 665.941 192.376 665.946C192.349 665.948 192.321 665.946 192.295 665.946L192.604 666.023C193.249 666.182 193.749 666.285 194.411 666.38C194.294 666.169 194.216 665.941 194.161 665.702ZM208.99 665.685C208.907 665.839 208.793 665.967 208.653 666.074L208.972 665.967C209.025 665.949 209.078 665.93 209.13 665.91C209.088 665.832 209.04 665.759 208.99 665.685ZM190.307 664.756C190.367 664.896 190.501 665.11 190.654 665.223C190.518 665.083 190.399 664.927 190.307 664.756ZM206.378 662.58C206.38 662.661 206.382 662.742 206.387 662.825C206.431 662.778 206.483 662.737 206.544 662.708C206.487 662.666 206.43 662.623 206.378 662.58ZM191.846 644.158C189.189 645.018 190.12 648.349 192.131 649.441C194.318 650.882 197.621 650.657 200.132 650.872C202.702 650.927 205.677 651.97 207.99 650.472C209.197 649.659 209.208 647.814 207.931 647.104C207.907 647.161 207.881 647.215 207.855 647.27C207.872 647.4 207.86 647.547 207.803 647.72C206.345 650.339 197.199 648.826 194.879 647.528L194.7 647.45C193.129 646.783 191.656 646.474 191.846 644.158ZM195.095 605.632C195.67 608.207 195.482 610.888 195.845 613.472C196.073 614.221 195.781 614.719 195.313 614.975C198.332 615.875 201.374 616.323 204.518 615.622C204.177 612.602 205.037 609.237 205.473 606.201L195.095 605.632ZM206.62 606.264C206.671 606.65 206.664 607.071 206.708 607.471C206.714 607.461 206.72 607.453 206.728 607.445L206.741 607.433C207.121 607.104 207.466 606.682 207.829 606.317C207.43 606.309 207.022 606.286 206.62 606.264ZM190.881 528.11C188.958 532.689 186.787 537.143 184.353 541.48L184.452 542.505C185.096 549.22 185.58 555.943 184.489 562.645L184.387 563.22C182.704 572.611 180.608 582.39 184.688 591.48L184.873 591.956C186.331 595.689 187.865 599.391 188.26 603.399C194.89 603.873 201.542 604.534 208.183 604.767C209.9 605.058 210.735 604.078 210.888 602.468C216.067 580.785 220.611 558.953 226.225 537.378L226.283 537.267C226.892 536.104 227.348 534.767 226.218 534.36C224.085 533.989 221.993 536.267 219.967 536.849C209.095 541.131 200.86 529.756 190.881 528.11ZM190.625 536.942C197.228 546.701 193.635 561.525 192.877 573.116C192.316 577.385 192.975 581.756 192.527 586.003C192.466 586.334 191.941 586.396 191.796 586.097C190.239 582.187 190.878 577.689 191.015 573.574C191.986 561.404 194.736 548.839 190.625 536.942ZM209.927 403.284C209.902 403.125 209.678 403.182 209.665 403.319C209.593 432.592 207.752 461.78 204.841 490.906C204.8 491.537 205.834 491.686 205.956 491.057C208.05 480.239 208.896 469.216 209.605 458.23L209.685 456.987C210.607 442.231 210.9 427.436 210.503 412.656C210.417 409.55 210.405 406.358 209.927 403.284ZM269.799 360.649C269.543 360.952 269.263 361.134 268.977 361.227C268.98 368.067 267.598 374.798 263.81 380.724C262.147 382.92 261.253 385.456 260.456 388.066C260.685 388.774 260.397 389.589 259.863 389.998C256.362 400.627 256.001 412.01 257.293 423.051C261.23 417.282 262.791 410.395 263.893 403.607C263.952 403.265 264.517 403.27 264.579 403.607C265.886 410.867 263.672 418.115 260.813 424.748C259.227 426.088 259.567 429.125 259.383 431.024C288.403 435.244 278.31 379.574 282.028 362.429C282.097 361.955 282.498 361.613 282.954 361.467C278.601 360.806 274.191 360.755 269.799 360.649ZM152.384 159.456L151.882 159.582C146.586 160.903 145.183 160.933 144.846 167.154C143.528 175.929 138.663 183.593 136.475 192.08C135.601 195.078 136.524 200.602 140.674 199.795C142.018 199.382 143.066 201.191 142.049 202.153C139.045 204.99 136.129 207.917 133.195 210.827C144.973 250.55 160.274 289.242 178.91 326.258C179.648 327.726 177.433 329.02 176.699 327.548C158.169 290.412 142.761 251.732 130.802 212.001L130.44 210.796C129.912 209.335 136.665 204.093 137.895 202.38C125.58 196.455 142.73 175.705 143.232 165.732C139.665 167.125 135.711 166.648 131.989 167.256C124.835 168.505 118.557 172.64 112.977 177.093C90.3106 197.095 75.8228 224.787 61.3324 250.887C51.4633 267.922 46.7069 288.736 56.6095 306.852C68.0992 330.077 81.4323 352.465 95.5223 374.199C97.0724 376.208 99.4507 373.899 101.082 373.051C110.455 367.425 118.583 359.767 124.833 350.813C108.443 330.282 93.1959 307.848 84.6995 282.866C84.0207 276.789 92.5464 269.75 95.658 264.468C102.528 254.997 108.946 245.206 115.075 235.247C114.882 234.262 115.29 233.183 116.334 233.211L116.94 232.2C121.62 224.426 122.142 224.125 117.495 233.635C119.853 268.717 119.46 304.476 120.48 339.78C123.237 343.425 126.076 347.011 128.98 350.54C138.402 344.054 149.486 339.822 160.868 338.512L161.452 338.454C166.27 337.962 174.417 336.935 175.058 343.274C174.199 351.034 158.341 346.628 153.213 351.031C161.577 354.396 171.162 355.348 178.841 360.426C181.304 361.858 186.132 366.439 181.415 368.188C179.357 368.366 177.231 367.561 175.174 367.389C177.489 368.167 179.618 369.49 180.974 371.558C181.949 372.978 182.662 375.922 180.33 376.531C175.013 376.675 169.718 374.953 164.482 374.085L164.948 374.274C168.766 375.838 174.698 378.639 169.557 382.779C164.409 385.438 158.179 380.911 153.052 379.701C139.236 376.497 129.03 385.29 114.871 375.765C114.473 379.96 113.202 384.276 113.593 388.476C116.999 391.657 127.599 391.552 132.34 391.972L132.335 391.81C132.266 389.232 132.954 389.495 133.084 392.003C145.088 392.37 157.119 392.147 169.099 391.287C174.24 390.908 179.373 390.396 184.485 389.733L185.443 389.607C188.07 389.256 190.815 389.023 193.394 388.398C196.033 388.044 196.036 385.23 195.757 383.165C192.135 306.777 161.08 234.95 152.384 159.456ZM201.196 165.765C201.806 166.67 202.483 167.535 203.214 168.353C204.34 166.613 207.08 165.627 207.86 168.225C208.738 170.896 209.993 173.638 210.03 176.468C227.979 234.971 228.436 297.18 228.086 357.864C228.624 367.49 225.637 376.91 225.914 386.485C235.746 387.898 245.72 388.019 255.593 386.974C255.885 386.208 256.215 385.452 256.589 384.712C271.366 366.702 263.532 344.126 256.414 324.616C252.111 324.794 247.783 324.526 243.476 324.576C244.806 328.694 245.15 333.05 245.858 337.308C246.34 340.342 246.955 343.353 247.663 346.342L247.853 347.139C248.119 348.241 248.473 349.431 248.086 350.524C247.706 351.602 246.395 352.038 245.525 351.199C243.959 349.413 244.127 346.752 243.621 344.534L243.527 343.838C242.665 337.481 241.529 330.877 243.105 324.576C241.557 324.239 237.328 325.464 237.106 323.384C237.171 319.95 234.679 312.505 237.453 310.242C239.104 308.983 241.942 309.381 243.877 309.303C246.115 309.213 248.349 309.13 250.584 309.144C232.624 265.754 237.619 252.393 239.442 209.209L239.496 207.891C239.491 207.609 239.949 207.538 239.999 207.825C242.745 225.513 239.085 243.424 240.819 261.166C243.899 294.884 265.266 323.829 268.84 357.383C276.546 356.492 284.339 357.584 291.807 359.521C291.964 358.158 292.085 356.79 292.171 355.42C293.588 330.379 284.799 306.051 274.543 283.592C268.396 271.664 264.597 258.943 263.007 245.635C259.919 228.306 252.991 211.979 246.085 195.883C241.721 183.842 232.283 181.004 220.579 179.606C224.527 186.148 228.45 192.703 232.366 199.264C233.241 201.247 230.563 202.666 229.393 203.885C243.769 211.729 235.375 235.928 235.672 249.496C234.605 261.955 234.202 274.495 232.321 286.87C232.183 287.726 230.868 287.477 230.855 286.671C231.029 268.126 233.241 249.654 234.211 231.141L234.329 229.792C235.086 221.026 235.825 208.381 225.284 205.973C223.862 205.744 223.753 203.629 224.895 202.995C226.415 202.148 227.747 201.112 228.939 199.885C222.925 190.226 217.679 180.057 211.351 170.612L211.086 170.276C206.862 164.929 207.156 166.861 201.196 165.765ZM172.144 342.804C170.975 339.38 159.697 341.612 156.681 341.982C145.571 344.082 134.39 348.997 125.928 356.568C125.406 357.034 124.788 357.027 124.301 356.774C120.508 361.613 116.135 366 111.334 369.856C112.213 370.546 113.116 371.219 114.044 371.859C114.488 371.907 114.89 372.136 115.07 372.551C128.277 382.115 137.994 374.654 151.712 376.379C156.835 377.41 161.553 380.668 166.831 380.804C170.705 379.923 167.294 378.304 165.484 377.678C160.295 375.201 154.978 373.004 149.677 370.779C148.031 370.089 148.597 367.602 150.435 368.036C153.653 368.795 156.88 369.518 160.11 370.224C166.321 371.494 172.68 373.118 178.957 373.732C177.563 369.857 162.756 365.665 158.454 364.128C156.827 363.356 152.192 363.508 152.722 360.985C153.15 358.644 158.085 361.326 159.728 361.518C166.443 363.218 173.295 364.255 180.137 365.289C172.788 357.921 161.397 357.281 152.012 353.832L151.701 353.761C150.057 353.37 147.859 352.648 149.113 350.814L149.155 350.754C153.982 343.642 172.948 347.248 172.144 342.804ZM158.258 303.228C161.678 300.412 163.515 306.19 163.297 308.869C163.459 311.092 163.632 313.318 163.777 315.543C163.565 317.286 165.42 323.627 162.938 323.685C152.094 323.139 141.268 323.269 130.419 322.623C130.405 324.808 130.298 326.993 130.41 329.186C130.351 331.922 131.303 334.662 130.747 337.365C130.407 338.611 128.714 338.777 128.053 337.716C126.071 333.056 127.435 327.044 128.837 322.329C120.643 320.247 124.592 313.651 124.593 307.888C124.582 307.736 124.734 307.658 124.857 307.687C126.889 310.523 124.243 314.307 125.403 317.392C126.602 320.764 131.693 320.454 134.569 320.509L134.656 320.511C143.613 320.666 152.564 321.035 161.521 321.208C161.138 318.193 161.034 315.105 160.804 312.09C160.513 309.926 160.933 307.358 159.83 305.418C154.849 307.034 149.664 307.681 144.429 307.578C138.188 307.746 131.624 308.309 125.524 307.563C134.272 306.214 143.936 306.41 152.85 304.698C154.622 304.239 156.43 303.311 158.258 303.228ZM115.201 238.145C109.804 248.436 103.601 258.234 96.9926 267.771C95.5772 269.81 94.1238 271.82 92.6468 273.815L92.3735 274.165C89.4225 277.912 86.3574 281.02 89.146 285.993C96.4545 303.733 106.235 320.395 117.568 335.857L117.374 326.974C116.732 297.362 116.124 267.748 115.201 238.145ZM250.783 309.665C237.237 312.508 236.978 307.187 239.241 322.234C244.676 322.271 250.107 322.149 255.543 322.236C253.99 318.034 252.38 313.851 250.783 309.665ZM210.111 180.983C207.055 186.233 201.979 189.604 195.867 189.653C185.141 190.268 174.273 189.563 163.822 187.022C162.285 186.636 160.45 186.304 159.034 185.465C167.093 229.129 180.138 271.668 189.315 315.081L189.616 316.513L189.865 316.463C196.112 315.356 202.907 315.816 209.33 315.422C214.482 315.348 219.688 315.899 224.804 315.133L224.645 309.737C223.354 266.545 221.554 222.837 210.111 180.983ZM205.63 168.502C205.062 168.494 204.194 168.832 203.616 168.791C204.794 170.05 206.098 171.185 207.47 172.173C206.842 170.998 206.352 169.588 205.63 168.502Z" fill="black"/>
<path fill-rule="evenodd" clip-rule="evenodd" d="M226.16 103.175C225.889 106.581 224.443 109.646 223.232 112.82C223.364 110.941 223.302 108.987 223.434 107.037C222.025 94.8255 205.385 91.6173 198.925 82.3837C199.17 81.8622 199.258 77.2 198.295 78.5112C194.559 94.8281 172.351 103.014 157.146 103.046C155.996 102.1 153.716 103.099 154.146 104.984C156.42 114.932 156.918 125.338 155.458 135.445C154.77 139.015 154.654 143.309 152.508 146.385C150.23 148.546 152.968 148.72 154.475 148.232C154.895 148.821 155.339 149.394 155.784 149.964C153.619 151.456 150.461 150.642 148.221 149.649C145.729 148.333 144.305 145.782 142.499 143.737C141.513 141.757 140.018 140.619 138.096 139.546C127.402 132.293 127.678 116.381 129.213 104.881C133.686 70.6604 171.746 54.1487 202.289 66.0371C218.785 70.2466 226.513 87.2668 226.16 103.175ZM126.674 83.8012C120.151 77.3181 121.464 65.9842 125.565 58.5104C133.781 42.8945 157.119 43.4019 159.914 62.33C148.012 66.3988 137.97 75.1233 131.991 86.1398C130.044 85.9322 128.162 85.0669 126.674 83.8012ZM226.534 88.795C221.855 60.5489 186.122 55.4563 162.838 61.4016C162.409 55.9682 158.979 51.1673 154.699 48.0092C136.517 34.9527 114.993 57.1203 119.302 76.2252C120.075 82.0128 124.711 88.617 131.197 87.6266C123.044 103.024 119.858 134.073 137.821 143.671C139.554 144.902 139.842 147.402 141.175 149.005C143.341 151.59 152.591 154.883 157.595 152.244C158.785 153.701 165.539 158.131 165.046 153.788C164.55 152.618 163.014 152.313 161.992 151.734C159.844 150.551 157.978 148.883 156.511 146.923C161.117 133.962 160.766 119.53 158.186 106.184C173.606 105.409 191.751 98.6641 198.552 83.8522C203.15 94.6314 217.408 96.0186 221.01 108.07C221.227 114.4 219.867 120.636 220.854 126.969C221.143 133.172 224.429 139.334 222.529 145.496C217.222 158.934 198.118 160.906 185.496 160.344C182.498 160.097 180.01 158.48 177.545 156.945C176.068 156.246 174.309 157.709 175.215 159.271C178.67 164.084 185.778 164.505 191.236 164.331C205.401 163.493 225.871 159.317 226.607 141.861C226.139 134.942 223.419 128.32 223.22 121.33C223.803 120.651 223.835 119.708 223.981 118.85C224.612 115.806 225.991 112.982 226.68 109.947C228.223 103.058 227.955 95.6984 226.534 88.795Z" fill="black"/>
<path fill-rule="evenodd" clip-rule="evenodd" d="M184.612 130.943C188.683 130.449 192.629 131.693 196.609 132.32C198.71 132.651 200.814 132.898 202.94 132.99C203.368 133.009 203.796 133.02 204.224 133.028C204.264 132.652 204.475 132.307 204.932 132.1C205.868 131.676 206.618 131.485 207.646 131.526C208.587 131.563 209.532 131.66 210.459 131.829C212.142 132.137 213.832 132.836 215.063 134.05C217.913 136.859 217.479 141.372 215.277 144.432C210.729 150.755 202.427 151.048 195.318 150.966L194.661 150.957C188.188 150.865 178.926 151.828 175.984 144.477C174.903 141.774 175.053 138.641 176.377 136.049C177.957 132.956 181.282 131.346 184.612 130.943ZM204.833 141.47L204.775 141.472C201.791 141.587 198.806 141.668 195.82 141.721C195.909 142.486 196.001 143.252 196.105 144.015C196.187 144.616 196.274 145.217 196.366 145.816C196.404 146.07 196.546 146.464 196.506 146.716L196.491 146.815C196.645 146.884 196.784 146.996 196.887 147.158C196.923 147.214 196.949 147.27 196.976 147.326C199.294 147.345 201.789 147.3 204.153 146.879L204.158 146.828C204.201 146.526 204.326 146.324 204.493 146.185C204.659 145.224 204.644 144.2 204.708 143.246C204.748 142.654 204.792 142.062 204.833 141.47ZM193.539 141.761C191.388 141.798 189.235 141.826 187.085 141.8L186.108 141.785C186.314 142.889 186.539 143.989 186.725 145.1C186.92 146.259 185.898 146.995 185.014 146.965C185.113 146.982 185.212 146.998 185.312 147.012C188.074 147.402 190.942 147.299 193.746 147.296C193.595 146.417 193.656 145.426 193.634 144.692L193.629 144.579C193.586 143.639 193.556 142.7 193.539 141.761ZM178.926 141.559C179.001 142.133 179.146 142.695 179.363 143.218C180.282 145.428 182.387 146.459 184.614 146.893C184.228 146.76 183.921 146.44 183.844 145.892C183.65 144.529 183.581 143.144 183.576 141.76C182.023 141.745 180.46 141.712 178.926 141.559ZM212.929 141.087C211.824 141.347 210.54 141.228 209.455 141.277C208.439 141.323 207.423 141.363 206.407 141.404C206.455 142.096 206.502 142.788 206.552 143.48C206.618 144.374 206.624 145.319 206.795 146.209C208.84 145.513 210.672 144.396 212.047 142.61C212.389 142.165 212.696 141.643 212.929 141.087ZM184.145 134.568C182.305 135.003 180.563 135.922 179.627 137.602C179.072 138.599 178.828 139.781 178.875 140.945C180.43 140.764 182.011 140.696 183.586 140.639C183.591 140.356 183.598 140.074 183.606 139.792L183.63 139.069C183.673 137.69 183.695 135.959 184.145 134.568ZM193.668 134.737L192.858 134.646C190.608 134.39 188.36 134.121 186.11 134.275C185.784 134.298 185.454 134.333 185.122 134.382C185.52 135.814 185.487 137.496 185.653 138.913C185.717 139.461 185.798 140.005 185.888 140.547L186.278 140.528C188.692 140.398 191.109 140.317 193.525 140.222C193.524 139.769 193.527 139.316 193.534 138.863L193.543 138.41C193.571 137.252 193.496 135.949 193.668 134.737ZM204.965 134.553C202.609 134.932 200.174 135.013 197.859 135.016C196.935 135.017 196.011 134.96 195.087 134.879C195.147 135.369 195.178 135.866 195.224 136.35C195.315 137.328 195.419 138.304 195.532 139.279L195.633 140.133C198.603 139.999 201.572 139.853 204.541 139.703L204.96 139.681L205.078 138.04C205.158 136.946 205.246 135.853 205.37 134.764L205.277 134.73C205.167 134.686 205.063 134.624 204.965 134.553ZM205.988 134.96C206.118 136.507 206.19 138.06 206.285 139.609L208.243 139.504C208.569 139.487 208.895 139.469 209.221 139.45C210.489 139.377 212.119 138.994 213.373 139.351C213.469 138.214 213.143 137.105 212.114 136.341C210.308 134.999 208.009 135.477 205.988 134.96ZM199.301 121.134C202.216 119.469 209.528 117.766 209.991 123.001C210.204 125.409 208.41 127.405 206.315 128.296L206.236 128.329C204.271 129.135 200.788 130.045 199.087 128.297C197.671 126.842 199.549 124.233 201.308 125.425C202.212 126.037 204.114 125.586 205.123 125.294L205.186 125.276C206.274 124.957 207.725 123.935 207.275 122.598C206.877 121.415 205.182 121.198 204.121 121.16C202.537 121.103 200.995 121.47 199.425 121.59C199.176 121.609 199.1 121.25 199.301 121.134ZM211.374 112.718C215.33 112.533 217.79 116.843 216.881 120.375C216.724 120.984 216.041 121.582 215.381 121.514L215.215 121.498C215.131 121.49 215.046 121.48 214.968 121.458C214.342 121.285 213.781 120.635 213.826 119.962L213.839 119.765C213.931 118.097 213.75 116.175 211.763 115.771C210.078 115.428 209.137 117.047 209.117 118.537C209.113 118.801 208.816 118.986 208.581 118.844C207.363 118.104 207.152 116.632 207.617 115.365C208.207 113.759 209.683 112.796 211.374 112.718ZM182.02 113.642C184.898 112.683 188.004 114.215 189.398 116.755C189.887 116.896 190.375 117.272 190.307 117.848C190.209 118.677 190.061 119.199 189.486 119.827C188.585 120.81 186.899 120.308 186.525 119.098L186.509 119.043C186.084 117.479 184.358 116.447 182.787 116.994C180.951 117.634 181.004 119.569 179.717 120.696C179.565 120.829 179.384 120.85 179.203 120.762C177.835 120.103 178.081 118.117 178.568 116.981C179.208 115.49 180.451 114.164 182.02 113.642ZM178.099 104.918C180.432 102.543 186.515 100.244 188.11 104.631C188.414 105.466 187.767 106.593 186.895 106.766C185.468 107.049 184.202 106.431 182.784 106.542C181.636 106.632 180.439 107.015 179.521 107.725C176.98 109.69 176.421 113.014 174.65 115.515C174.564 115.637 174.396 115.586 174.38 115.442C173.977 111.801 175.544 107.52 178.099 104.918ZM208.521 102.58C210.069 102.034 211.821 102.081 213.377 102.565C214.945 103.053 216.384 103.979 217.492 105.189C217.995 105.739 218.461 106.345 218.834 106.99C219.033 107.332 219.241 108.039 219.466 108.459C220.686 109.162 221.207 110.763 220.115 111.902L220.066 111.952L219.92 112.097C219.333 112.676 218.448 112.928 217.647 112.696C215.855 112.178 215.637 110.769 215.016 109.274C214.606 108.286 213.904 107.412 213.053 106.77C211.041 105.253 207.741 104.77 205.319 105.484C205.19 105.523 205.038 105.359 205.13 105.24C205.589 104.646 205.854 104.159 206.468 103.68C207.092 103.194 207.773 102.843 208.521 102.58Z" fill="black"/>
<path fill-rule="evenodd" clip-rule="evenodd" d="M230.587 102.917C230.391 102.885 230.195 102.854 230 102.825C229.847 102.739 229.668 102.672 229.459 102.632C228.983 102.512 228.51 102.43 228.038 102.386C221.262 100.865 205.586 103.025 204.939 108.796C202.781 109.515 200.914 108.871 198.413 108.935C196.51 100.994 163.598 102.115 162.015 106.903C162.009 106.901 162.003 106.9 161.997 106.898C160.476 106.428 158.234 106.541 156.493 106.467C152.776 106.389 149.055 106.72 145.418 107.502C138.608 108.582 129.314 109.847 134.05 118.333C134.051 118.335 134.052 118.337 134.053 118.338L134.054 118.337C134.87 119.172 136.255 118.5 136.307 117.37C134.714 113.349 138.311 112.866 141.078 111.711C147.964 109.242 154.974 108.9 162.095 109.663C162.631 110.293 163.444 110.842 164.303 111.129C169.065 111.918 166.555 115.443 169.565 115.955C169.012 128.242 183.96 134.949 192.621 126.872C196.079 123.498 196.903 118.5 197.705 113.995C198.129 113.899 198.398 113.668 198.556 113.362C199.576 112.346 200.216 111.408 202.232 111.129C204.248 110.85 205.8 111.41 206.01 111.581C206.063 111.688 206.12 111.794 206.186 111.901C206.278 112.06 206.403 112.187 206.546 112.287C204.555 124.522 214.073 132.26 223.681 125.914C227.856 121.995 228.739 115.994 228.913 110.638C229.479 110.297 229.837 109.637 229.641 108.806C229.371 107.661 230.005 106.67 231.013 106.172C232.323 105.526 232.091 103.166 230.587 102.917ZM189.3 108.722C188.107 108.46 187.598 110.295 188.794 110.558C189.641 110.744 190.359 111.17 190.845 111.892L190.896 111.971C191.547 113.005 193.193 112.05 192.537 111.01C191.8 109.839 190.654 109.019 189.3 108.722ZM224.231 107.584C223.811 107.288 223.174 107.508 222.93 107.925C222.662 108.385 222.838 108.897 223.231 109.198L223.272 109.228C223.633 109.482 223.985 109.937 224.029 110.404L224.033 110.462C224.08 111.683 225.982 111.689 225.934 110.462C225.888 109.262 225.191 108.258 224.231 107.584Z" fill="black"/>
</svg>
