<svg width="391" height="780" viewBox="0 0 391 780" fill="none" xmlns="http://www.w3.org/2000/svg">
<path fill-rule="evenodd" clip-rule="evenodd" d="M159.609 143.944C161.52 142.65 158.799 153.875 158.794 154.955L158.746 155.19C158.27 157.477 157.431 160.137 155.5 161.603C156.391 168.88 157.499 176.134 158.863 183.335L159.665 183.44C171.568 185.015 183.55 187.182 195.652 186.053C202.173 186.104 206.49 181.649 209.118 176.122C208.94 175.471 208.762 174.821 208.579 174.17C200.298 169.106 194.028 158.828 197.759 149.127C197.918 148.712 198.412 148.684 198.666 148.9C198.707 148.903 198.745 148.937 198.742 148.982L198.61 151.034C198.357 155.115 198.272 159.333 200.483 163.004C209.493 160.952 215.095 168.454 218.863 175.554L221.569 175.954C231.922 177.49 241.907 179.308 247.019 189.9L247.72 191.387C254.863 206.608 261.521 222.259 265.417 238.648C267.379 247.368 268.089 256.353 270.967 264.857C276.942 280.648 285.363 295.488 289.929 311.837C292.762 317.736 300.734 362.139 292.869 362.477C290.04 361.63 287.16 360.945 284.248 360.459C284.697 360.801 284.861 361.382 284.775 361.974C283.759 369.091 283.683 376.301 283.687 383.478C284.225 400.86 283.743 438.254 257.53 432.252C255.617 431.549 256.859 428.485 256.782 426.344C256.633 426.351 256.481 426.348 256.329 426.339C254.824 430.394 252.714 434.137 251.391 438.258C250.27 441.799 249.487 445.608 247.924 448.999C231.374 507.776 224.542 569.597 231.012 630.433C231.376 634.076 231.784 637.714 232.241 641.345C232.176 643.671 234.89 653.034 232.459 653.759C232.364 653.943 232.038 654.154 231.844 654.219C230.375 655.802 227.933 655.215 225.994 655.425C219.143 655.73 212.292 656.011 205.437 656.238C205.848 659.143 205.516 662.091 205.273 664.991C210.272 665.033 214.866 668.071 219.288 670.134C225.854 673.369 232.314 676.827 238.65 680.494C244.501 684.583 257.572 688.531 253.075 697.803C256.428 699.162 251.768 704.845 249.221 704.909C232.636 704.826 216.156 701.069 199.949 697.771C190.74 695.34 180.691 694.417 172.172 690.226C169.753 689.133 170.26 684.779 172.92 684.374C170.945 669.857 178.96 670.057 181.218 657.962C179.906 658.176 178.456 658.055 177.14 657.788C174.093 660.603 175.213 638.451 174.798 636.287C174.716 613.572 175.795 590.808 173.371 568.17L169.253 580.279C159.653 608.539 150.197 636.871 142.671 665.762C142.22 667.506 140.386 667.715 139.216 666.954C134.273 666.809 129.35 666.345 124.474 665.558C124.38 667.868 124.282 670.179 124.185 672.49C126.288 673.621 124.864 680.753 125.133 683.165C127.422 688.377 118.152 698.526 115.148 702.804C109.74 710.35 104.368 720.911 93.9077 721.262L93.5892 721.27C85.781 721.46 77.9026 721.003 70.1701 719.89L69.2291 719.736C67.0241 719.368 64.583 718.83 63.3138 716.87C62.2264 715.192 62.3594 713.026 63.6796 711.744C61.9359 705.424 68.7234 701.597 72.5144 697.749C79.5961 690.924 86.0328 683.419 91.599 675.313L91.9188 674.556C92.9505 672.125 94.1833 669.426 96.104 668.262C97.9355 665.357 99.5017 662.299 101.156 659.296C96.6383 657.639 92.1904 655.788 87.7919 653.84C86.9166 653.45 86.6381 652.314 86.7911 651.468L86.8022 651.411C95.3891 606.867 105.684 562.641 113.691 517.996C118.806 476.85 120.902 435.181 131.654 394.94C126.438 394.398 121.246 392.901 116.127 391.621C112.023 390.749 109.948 388.666 110.757 384.324C111.036 380.465 111.809 376.668 112.227 372.824C111.135 372.061 110.068 371.258 109.031 370.433C107.107 371.867 105.121 373.218 103.082 374.478C98.197 377.992 94.4266 378.54 91.4091 372.779C82.6694 358.987 74.2412 344.993 66.2872 330.734C58.9091 317.055 49.7653 303.404 47.8924 287.654C45.172 259.31 78.4626 213.952 95.1398 190.916C104.337 179.821 115.537 168.402 130.103 165.175C134.584 164.512 139.307 164.421 143.578 162.798C143.925 160.724 144.9 158.814 147.103 158.306C149.419 157.794 151.903 157.004 154.237 156.946C154.764 156.797 155.387 156.703 155.944 156.806C157.541 152.662 157.776 147.994 159.609 143.944ZM70.3768 715.019C70.776 715.216 71.189 715.387 71.6119 715.538C72.132 715.609 72.6498 715.676 73.1673 715.735C72.2292 715.524 71.2982 715.287 70.3768 715.019ZM122.207 674.737C114.556 677.512 112.453 664.486 97.4057 669.757C91.525 680.666 83.9115 690.573 75.2094 699.381C72.1164 703.223 62.9614 707.585 67.895 713.218L68.6506 713.356C77.2184 714.913 85.9153 716.15 94.6458 715.446C101.243 713.628 106.191 708.345 110.19 703.017C113.083 697.894 116.467 693.072 119.922 688.318C121.821 685.954 122.014 682.945 122.005 680.037C122.069 678.268 122.135 676.503 122.207 674.737ZM208.151 668.342C204.903 667.152 201.571 668.272 198.616 669.732C193.569 671.988 182.637 674.692 177.967 671.094C175.677 674.878 174.909 679.085 175.537 683.45L175.542 683.653C175.591 685.446 175.817 686.9 177.988 687.026L184.075 688.556C204.608 693.706 225.344 698.686 246.48 700.119C252.121 696.599 252.279 691.973 246.283 688.751L244.749 687.812C232.977 680.616 220.93 673.543 208.151 668.342ZM252.823 698.272C252.766 698.37 252.712 698.467 252.655 698.561C252.743 698.604 252.823 698.666 252.899 698.732C252.899 698.573 252.876 698.417 252.823 698.272ZM102.296 659.708C102.374 661.308 101.588 663.114 101.034 664.55C100.709 665.399 100.374 666.61 99.8563 667.582C112.721 663.789 116.637 674.901 121.275 672.591L121.416 672.516V672.514C120.469 670.353 121.501 667.31 122.138 665.155C115.382 663.934 108.749 662.034 102.296 659.708ZM203.953 656.288L200.244 656.403C194.474 656.578 188.704 656.73 182.93 656.722C183.535 660.868 182.352 667.707 179.667 670.928C179.662 670.931 179.658 670.931 179.655 670.933C187.255 672.083 194.453 668.604 201.222 665.678C201.507 662.501 202.755 659.259 203.953 656.288ZM179.135 668.918C178.905 669.35 178.672 669.781 178.439 670.213C178.542 670.324 178.656 670.426 178.777 670.514C178.706 669.976 178.898 669.443 179.135 668.918ZM189.818 316.307C194.054 337.699 197.398 359.355 198.56 381.167L198.57 381.383C198.683 383.59 199.012 386.051 197.536 387.893C196.004 389.806 193.617 390.048 191.354 390.396C172.371 393.282 153.121 394.257 133.932 393.677C126.848 428.716 122.515 464.191 119.873 499.821C114.131 550.732 101.099 600.499 91.3376 650.728C106.475 657.345 122.176 662.041 138.767 662.692C162.25 575.965 206.216 484.434 208.558 397.675C208.683 397.535 208.985 397.568 209.019 397.779C209.793 402.526 209.463 407.48 209.292 412.265C208.642 426.99 207.002 441.709 204.585 456.24C198.446 492.33 187.109 527.248 175.494 561.887C175.105 563.442 175.694 565.172 175.713 566.76C178.139 593.251 178.387 619.877 179.169 646.45C179.004 649.388 179.929 652.714 178.909 655.473C187.682 654.298 196.497 653.664 205.314 652.93L205.379 652.887C205.744 652.655 206.327 652.411 206.663 652.823C214.111 652.238 221.567 651.702 229.02 651.202C218.451 575.581 225.756 496.752 254.35 425.711C252.539 424.053 253.329 420.359 252.914 418.05C252.532 408.629 252.552 398.992 254.405 389.716L253.934 389.744C248.241 390.069 223.19 391.073 222.503 386.824C221.551 379.626 223.852 372.49 224.322 365.344C225.167 349.198 224.963 332.988 224.852 316.821C219.894 317.484 215.141 316.574 210.239 316.388C203.424 316.328 196.623 316.502 189.818 316.307ZM101.466 659.412C101.338 659.969 101.189 660.526 101.03 661.083C101.25 660.585 101.497 660.107 101.792 659.686L101.882 659.561L101.466 659.412ZM182.531 656.725L182.125 656.729L182.123 656.962C182.218 657.12 182.234 657.314 182.116 657.471C182.102 658.187 182.071 658.905 182.016 659.623C182.173 658.656 182.329 657.689 182.531 656.725ZM177.371 656.488L177.392 656.848C177.912 656.829 178.437 656.85 178.955 656.824C179.228 656.81 179.508 656.762 179.79 656.712C178.976 656.687 178.164 656.622 177.371 656.488ZM269.799 359.44C269.542 359.741 269.262 359.924 268.977 360.016C268.98 366.859 267.598 373.588 263.81 379.513C262.234 381.601 261.344 383.978 260.582 386.455C256.577 397.792 255.833 409.971 257.293 421.843C261.229 416.073 262.793 409.188 263.893 402.398C263.952 402.057 264.517 402.062 264.579 402.398C265.909 409.665 263.623 416.802 260.889 423.518C259.181 424.738 259.588 427.934 259.383 429.813C288.402 434.039 278.31 378.365 282.028 361.218C282.096 360.746 282.498 360.403 282.954 360.258C278.601 359.594 274.191 359.546 269.799 359.44ZM133.143 393.643C133.179 393.826 133.21 394.008 133.233 394.191C133.286 394.013 133.338 393.833 133.39 393.653C133.309 393.65 133.226 393.648 133.143 393.643ZM152.755 158.148L152.247 158.281C146.885 159.663 145.149 159.473 144.846 165.943C143.528 174.723 138.662 182.382 136.475 190.872C135.6 193.87 136.526 199.396 140.674 198.584C142.018 198.172 143.065 199.982 142.049 200.942C139.045 203.782 136.128 206.709 133.195 209.617C144.973 249.34 160.272 288.031 178.909 325.048C179.648 326.517 177.432 327.809 176.699 326.339C158.171 289.204 142.761 250.526 130.801 210.792L130.44 209.588C129.912 208.126 136.666 202.883 137.895 201.172C125.563 195.234 142.78 174.44 143.248 164.426C139.718 165.977 135.717 165.42 131.989 166.045C124.836 167.299 118.557 171.428 112.977 175.885C90.3085 195.886 75.8226 223.578 61.3322 249.679C51.4638 266.708 46.7062 287.527 56.6093 305.642C68.0999 328.868 81.4295 351.255 95.5221 372.988C97.0696 374.999 99.4514 372.687 101.082 371.843C110.455 366.215 118.582 358.558 124.833 349.604C109.679 331.024 96.4795 310.719 87.1442 288.596L87.0155 288.339C84.9209 284.132 83.2647 279.043 86.7588 275.081C99.1657 259.201 110.2 242.343 120.584 225.091C120.692 224.918 120.931 225.07 120.853 225.25C119.786 227.663 118.663 230.057 117.493 232.429C119.857 267.506 119.458 303.269 120.48 338.569C123.237 342.217 126.075 345.803 128.98 349.332C138.402 342.844 149.485 338.612 160.868 337.301L161.604 337.227C166.439 336.73 174.424 335.793 175.058 342.066C174.274 349.782 158.316 345.444 153.213 349.82C161.577 353.188 171.162 354.138 178.841 359.215C181.304 360.651 186.132 365.227 181.415 366.977C179.357 367.153 177.231 366.355 175.174 366.179C177.489 366.958 179.618 368.278 180.973 370.348C181.949 371.767 182.662 374.713 180.33 375.32C175.013 375.47 169.719 373.738 164.482 372.877L164.947 373.065C168.765 374.627 174.698 377.432 169.557 381.568C164.41 384.231 158.178 379.702 153.052 378.493C139.242 375.282 129.027 384.081 114.871 374.555C114.469 377.738 113.866 380.9 113.624 384.101L113.593 384.282C113.102 387.204 113.522 388.259 116.676 388.818C120.477 389.965 124.459 390.325 128.41 390.538C147.422 391.543 166.56 390.83 185.443 388.396C188.16 387.668 194.543 388.355 195.679 385.367C193.55 308.465 161.483 236.103 152.653 160.2C152.508 159.47 152.498 158.726 152.755 158.148ZM206.354 164.72C204.838 164.782 203.426 165.111 201.917 165.263C202.753 167.039 207.161 169.55 206.76 170.432C207.078 170.679 207.401 170.916 207.729 171.145C207.273 169.543 206.812 167.943 206.35 166.341C223.103 207.137 225.405 255.404 227.631 299.908C228.364 322.348 228.763 344.857 227.678 367.283C227.075 373.239 225.479 379.259 225.913 385.274C235.746 386.689 245.72 386.81 255.593 385.763C255.884 384.997 256.215 384.244 256.589 383.504C271.368 365.491 263.53 342.917 256.414 323.405C252.111 323.587 247.783 323.314 243.476 323.368C244.807 327.485 245.149 331.842 245.858 336.1C246.34 339.134 246.956 342.144 247.663 345.132L247.853 345.929C248.119 347.031 248.473 348.22 248.086 349.313C247.706 350.391 246.394 350.827 245.525 349.988C243.958 348.202 244.126 345.541 243.621 343.326L243.527 342.629C242.665 336.271 241.529 329.674 243.105 323.365C241.558 323.033 237.328 324.253 237.106 322.173C237.171 318.738 234.679 311.296 237.453 309.033C239.103 307.775 241.941 308.173 243.877 308.095C246.114 308.005 248.349 307.921 250.584 307.936C232.624 264.543 237.619 251.186 239.441 208.001L239.496 206.683C239.491 206.398 239.949 206.327 239.999 206.614C242.745 224.303 239.085 242.213 240.819 259.958C243.898 293.673 265.267 322.621 268.84 356.174C276.544 355.281 284.339 356.377 291.807 358.31C291.964 356.947 292.085 355.579 292.17 354.212C293.588 329.167 284.798 304.844 274.543 282.381C268.396 270.458 264.597 257.732 263.007 244.427C259.92 227.096 252.991 210.771 246.085 194.672C241.72 182.634 232.282 179.796 220.579 178.398C224.526 184.939 228.45 191.495 232.366 198.056C233.24 200.039 230.561 201.456 229.393 202.677C243.769 210.516 235.375 234.722 235.672 248.285C234.605 260.748 234.202 273.283 232.321 285.659C232.183 286.517 230.868 286.266 230.855 285.462C231.029 266.918 233.241 248.448 234.211 229.933L234.329 228.583C235.086 219.817 235.827 207.171 225.284 204.765C223.862 204.533 223.752 202.419 224.894 201.784C226.415 200.937 227.747 199.904 228.939 198.674C224.911 191.917 220.891 185.155 216.906 178.369L216.719 178.054C213.888 173.253 211.259 167.665 206.354 164.72ZM172.144 341.595C170.981 338.171 159.693 340.401 156.681 340.774C145.571 342.871 134.39 347.786 125.928 355.357C125.405 355.824 124.788 355.816 124.301 355.563C120.511 360.404 116.134 364.791 111.334 368.646C112.213 369.338 113.115 370.008 114.044 370.651C114.488 370.698 114.89 370.928 115.07 371.34C128.277 380.908 137.993 373.445 151.712 375.169C156.835 376.201 161.552 379.459 166.831 379.596C170.704 378.715 167.294 377.096 165.484 376.47C161.387 374.514 157.211 372.732 153.026 370.974L149.677 369.57C148.031 368.88 148.596 366.394 150.435 366.828C153.653 367.586 156.88 368.307 160.11 369.016C166.321 370.282 172.681 371.907 178.957 372.523C177.562 368.646 162.758 364.459 158.454 362.918C156.829 362.15 152.193 362.296 152.722 359.777C153.149 357.432 158.082 360.117 159.728 360.308C166.442 362.011 173.296 363.043 180.137 364.081C172.789 356.71 161.397 356.073 152.012 352.621L151.806 352.575C150.133 352.19 147.784 351.462 149.155 349.546C153.977 342.437 172.951 346.035 172.144 341.595ZM158.257 302.018C161.681 299.21 163.514 304.977 163.297 307.658C163.458 309.884 163.632 312.11 163.777 314.335C163.565 316.075 165.42 322.419 162.938 322.476C152.094 321.926 141.267 322.065 130.419 321.412C130.405 323.6 130.298 325.785 130.41 327.975C130.351 330.713 131.302 333.449 130.747 336.157C130.407 337.401 128.714 337.569 128.053 336.507C126.071 331.847 127.434 325.835 128.837 321.121C123.525 320.139 122.792 315.147 124.192 310.692L124.177 310.451C124.1 309.077 124.105 307.603 124.719 306.492C126.36 304.561 129.762 305.816 132.022 305.67C138.949 304.956 146.004 304.759 152.85 303.487C154.622 303.028 156.429 302.104 158.257 302.018ZM115.196 236.942C109.803 247.234 103.598 257.027 96.9924 266.563C95.577 268.599 94.1236 270.609 92.6469 272.604L92.3735 272.954C89.4223 276.701 86.3574 279.81 89.1458 284.782C96.4519 302.523 106.235 319.184 117.568 334.647C116.851 302.078 116.217 269.5 115.196 236.942ZM250.783 308.457C237.233 311.296 236.98 305.98 239.241 321.026C244.676 321.063 250.107 320.941 255.543 321.028C253.99 316.826 252.379 312.643 250.783 308.457ZM159.83 304.207C152.753 306.666 145.239 306.315 137.848 306.618C137.863 308.206 130.3 306.732 128.849 306.95L128.291 306.902C127.091 306.806 125.582 306.79 125.569 308.26C125.954 310.834 124.505 313.652 125.403 316.181C126.614 319.587 131.796 319.236 134.656 319.303C139.37 319.409 144.084 319.523 148.798 319.646C153.033 319.758 157.282 319.969 161.521 319.999C161.138 316.985 161.034 313.894 160.804 310.882C160.514 308.716 160.932 306.148 159.83 304.207ZM189.587 315.16C189.594 315.198 189.601 315.236 189.611 315.276C189.693 315.252 189.787 315.239 189.867 315.217C189.775 315.2 189.68 315.181 189.587 315.16Z" fill="black"/>
<path fill-rule="evenodd" clip-rule="evenodd" d="M237.297 97.4965C235.739 93.1782 234.093 88.8931 232.362 84.6411C230.676 80.5029 229.152 76.2753 227.059 72.3332C214.552 48.7886 191.81 48.7886 180.055 51.865C173.958 49.2437 162.54 49.9831 156.192 52.3485C145.915 56.1779 133.388 71.2417 129.105 78.0098C119.648 92.9531 113.746 112.842 120.028 130.11C120.849 132.367 121.896 134.457 123.075 136.471C122.332 137.476 121.478 138.427 120.531 139.362C117.717 142.14 114.903 144.827 112.473 147.96C110.057 151.074 108.055 154.386 106.564 158.037C103.753 164.923 103.618 172.719 107.334 179.289C110.567 185.006 116.294 189.263 122.747 189.669C123.079 189.715 123.41 189.757 123.744 189.791C124.599 191.196 125.641 192.49 126.831 193.618C130.476 197.079 139.166 198.854 144.123 198.968C144.377 199.171 144.633 199.375 144.89 199.577C147.922 201.959 151.105 204.362 154.586 206.057C156.945 207.206 160.037 208.166 162.497 207.336C163.613 208.081 165.444 207.924 166.551 207.315C168.37 206.315 169.85 204.514 170.75 202.67C172.932 198.193 172.408 193.294 171.847 188.511C171.23 183.228 170.636 177.942 170.033 172.66C169.56 168.528 169.066 164.329 167.807 160.349C167.157 158.287 166.304 156.306 165.202 154.443C165.231 154.287 165.226 154.13 165.181 153.983C164.82 152.812 164.074 152.198 163.191 151.402C163.077 151.3 162.963 151.196 162.851 151.089C162.409 150.587 161.937 150.12 161.431 149.724C161.236 149.527 161.044 149.328 160.851 149.129C159.253 147.458 157.743 145.702 156.401 143.82C155.099 141.995 153.924 140.09 152.805 138.148C151.668 136.174 150.915 133.996 149.78 132.036C149.682 131.868 149.435 131.835 149.297 131.974C148.946 132.337 148.72 132.74 148.763 133.164L148.587 133.19C148.521 132.55 147.929 132.029 147.127 132.169C145.925 132.377 144.937 132.456 143.897 132.057C144.08 130.846 144.248 129.633 144.415 128.417C144.719 126.179 145.001 123.935 145.243 121.691C145.83 121.83 146.412 122.032 146.982 122.288C147.794 122.65 148.561 123.139 149.217 123.738C149.863 124.331 150.309 125.13 151.098 125.542C152.005 126.014 153.1 125.234 152.834 124.21C152.295 122.141 149.243 120.956 147.355 120.565C146.706 120.43 146.044 120.373 145.381 120.387C145.531 118.946 145.664 117.505 145.773 116.062C145.825 115.379 145.873 114.696 145.918 114.011C147.386 113.568 148.958 113.435 150.485 113.644C150.988 114.045 151.492 114.44 151.979 114.841C153.525 116.116 155.064 117.398 156.584 118.704C156.721 118.82 156.857 118.936 156.994 119.055C157.897 119.83 159.023 119.062 158.871 117.965C157.631 108.973 163.15 101.82 169.612 96.2783C176.765 90.1421 189.77 89.4276 198.277 78.7988C202.195 79.5946 210.943 81.9582 214.552 87.6985C219.606 95.7427 218.946 102.95 219.331 112.075C219.715 121.207 220.694 130.732 218.616 139.736C216.699 148.039 211.51 155.133 203.459 158.394C203.26 158.474 203.058 158.553 202.856 158.629C198.693 160.195 194.15 160.638 189.77 159.814C184.923 158.899 180.876 156.685 176.844 153.962C176.611 153.808 176.271 154.125 176.447 154.358C181.762 161.387 192.202 163.736 200.484 161.88C200.871 161.793 201.255 161.698 201.638 161.594C199.785 166.91 200.158 172.745 202.571 177.921C204.022 181.035 206.235 183.73 208.931 185.856C211.902 188.198 215.588 190.089 217.649 193.377C219.537 196.389 218.977 199.773 215.745 201.513C214.93 201.954 214.617 203.378 215.424 204.004C215.733 204.241 216.041 204.483 216.357 204.72C218.167 206.083 223.138 208.642 223.943 208.737C231.091 209.583 235.898 204.345 238.978 198.167C242.595 190.914 241.655 182.076 237.67 175.169C234.473 169.628 228.177 164.167 230.68 157.154C231.573 154.649 233.4 152.514 235.174 150.584C237.197 148.387 239.372 146.33 241.313 144.055C243.241 141.796 244.951 139.338 245.906 136.504C247.3 132.361 246.606 127.881 245.559 123.745C243.315 114.867 240.401 106.107 237.297 97.4965Z" fill="black"/>
<path fill-rule="evenodd" clip-rule="evenodd" d="M197.256 143.848C195.659 143.198 194.235 142.114 193.193 140.729C192.831 140.247 192.737 139.739 192.813 139.274C192.899 138.751 193.209 138.277 193.631 137.959C194.055 137.64 194.586 137.483 195.099 137.563C195.544 137.633 195.988 137.876 196.339 138.381L196.412 138.482C197.031 139.318 197.838 140.004 198.757 140.446C199.643 140.872 200.634 141.071 201.66 140.955C203.613 140.735 204.959 139.681 206.39 138.25C206.567 138.069 206.745 137.882 206.923 137.693C207.036 137.521 207.192 137.411 207.365 137.353C207.558 137.289 207.776 137.293 207.976 137.362C208.168 137.429 208.34 137.556 208.456 137.725C208.565 137.886 208.628 138.085 208.607 138.313C208.476 139.796 207.699 141.12 206.595 142.16C205.369 143.315 203.744 144.113 202.214 144.393C200.529 144.702 198.811 144.481 197.256 143.848ZM203.009 120.962C204.803 122.05 207.535 124.587 205.606 127.284C203.335 129.662 200.065 126.935 198.454 125.702C196.96 124.746 195.282 127.204 196.668 128.32C208.31 136.923 213.035 121.247 203.916 119.683C202.912 119.511 202.54 120.626 203.009 120.962ZM182.146 110.955C182.344 108.501 186.09 107.944 186.462 110.372C186.796 112.548 186.403 114.547 185.421 116.506C184.483 118.377 182.124 117.504 181.946 115.8C181.707 113.516 182.022 112.482 182.146 110.955ZM210.66 109.869C211.182 109.186 211.936 108.72 212.839 108.984C215.662 109.807 214.83 113.806 213.839 115.752C213.3 116.809 211.559 117.077 210.772 116.147C209.49 114.629 208.876 111.598 210.506 110.103C210.55 110.025 210.599 109.947 210.66 109.869ZM185.381 100.215L185.827 100.137C187.207 99.8992 188.922 99.6704 189.897 100.777C190.415 101.364 190.593 102.455 189.897 103.016C188.674 104.005 187.321 103.622 185.855 103.705C184.646 103.775 183.485 103.974 182.321 104.306C179.768 105.034 177.687 106.364 175.506 107.824C175.22 108.016 174.928 107.65 175.064 107.383C176.323 104.922 178.763 102.901 181.207 101.669C182.511 101.011 183.938 100.465 185.381 100.215ZM208.087 99.1128L208.428 99.1825C212.141 99.9572 216.966 101.505 218.725 105.145C218.792 105.66 218.721 105.77 218.664 105.842L218.644 105.866C218.597 105.928 218.559 106.013 218.336 106.083C218.274 106.068 218.211 106.052 218.148 106.036C217.341 105.825 216.704 105.534 216.086 105.233L215.417 104.904C214.64 104.524 213.856 104.158 213.026 103.887C211.254 103.31 209.431 102.904 207.58 102.687C207.179 102.64 206.792 102.505 206.488 102.273C206.198 102.053 205.977 101.749 205.877 101.344C205.746 100.821 205.783 100.425 206.065 99.9522C206.277 99.5975 206.579 99.3516 206.927 99.2104C207.282 99.0665 207.685 99.0326 208.087 99.1128Z" fill="black"/>
</svg>
