<svg width="24" height="24" viewBox="0 0 24 24" fill="none" xmlns="http://www.w3.org/2000/svg"><g clip-path="url(#clip0_2041_171)"><path d="M12 0C5.37222 0 0 5.37222 0 12C0 15.3133 1.34333 18.3133 3.51444 20.4856L1.22889 22.7711C0.775556 23.2244 1.09667 24 1.73778 24H12C18.6278 24 24 18.6278 24 12C24 5.37222 18.6278 0 12 0Z" fill="#ff4500"/><path d="M18.8022 14.6889C20.3498 14.6889 21.6044 13.4343 21.6044 11.8867C21.6044 10.3391 20.3498 9.08447 18.8022 9.08447C17.2546 9.08447 16 10.3391 16 11.8867C16 13.4343 17.2546 14.6889 18.8022 14.6889Z" fill="url(#paint0_radial_2041_171)"/><path d="M5.19773 14.6889C6.74535 14.6889 7.99995 13.4343 7.99995 11.8867C7.99995 10.3391 6.74535 9.08447 5.19773 9.08447C3.65011 9.08447 2.39551 10.3391 2.39551 11.8867C2.39551 13.4343 3.65011 14.6889 5.19773 14.6889Z" fill="url(#paint1_radial_2041_171)"/><path d="M12.0067 20.2933C16.425 20.2933 20.0067 17.607 20.0067 14.2933C20.0067 10.9796 16.425 8.29333 12.0067 8.29333C7.58844 8.29333 4.00671 10.9796 4.00671 14.2933C4.00671 17.607 7.58844 20.2933 12.0067 20.2933Z" fill="url(#paint2_radial_2041_171)"/><path d="M9.64216 13.72C9.5955 14.7289 8.92105 15.0956 8.1355 15.0956C7.34994 15.0956 6.75105 14.5478 6.79772 13.5389C6.84438 12.53 7.51883 11.87 8.30438 11.87C9.08994 11.87 9.68883 12.7122 9.64216 13.7211V13.72Z" fill="url(#paint3_radial_2041_171)"/><path d="M14.3722 13.72C14.4188 14.7289 15.0933 15.0956 15.8788 15.0956C16.6644 15.0956 17.2633 14.5478 17.2166 13.5389C17.17 12.53 16.4955 11.87 15.71 11.87C14.9244 11.87 14.3255 12.7122 14.3722 13.7211V13.72Z" fill="url(#paint4_radial_2041_171)"/><path d="M8.848 13.269C9.02 13.269 9.159 13.117 9.159 12.93 9.159 12.743 9.02 12.591 8.848 12.591 8.676 12.591 8.537 12.743 8.537 12.93 8.537 13.117 8.676 13.269 8.848 13.269ZM16.246 13.269C16.417 13.269 16.557 13.117 16.557 12.93 16.557 12.743 16.417 12.591 16.246 12.591 16.074 12.591 15.934 12.743 15.934 12.93 15.934 13.117 16.074 13.269 16.246 13.269Z" fill="#ffc49c"/><path d="M12.0066 15.88C11.0333 15.88 10.1 15.9278 9.23776 16.0156C9.08998 16.03 8.99665 16.1833 9.05442 16.32C9.53776 17.4744 10.6778 18.2856 12.0066 18.2856C13.3355 18.2856 14.4766 17.4744 14.9589 16.32C15.0166 16.1833 14.9222 16.03 14.7755 16.0156C13.9122 15.9278 12.98 15.88 12.0066 15.88Z" fill="url(#paint5_radial_2041_171)"/><path d="M16.3878 7.47783C17.4844 7.47783 18.3733 6.58886 18.3733 5.49227C18.3733 4.39568 17.4844 3.50671 16.3878 3.50671C15.2912 3.50671 14.4022 4.39568 14.4022 5.49227C14.4022 6.58886 15.2912 7.47783 16.3878 7.47783Z" fill="url(#paint6_radial_2041_171)"/><path d="M11.9777 8.54664C11.74 8.54664 11.5477 8.44775 11.5477 8.29442C11.5477 6.51553 12.9955 5.06775 14.7744 5.06775C15.0122 5.06775 15.2044 5.25997 15.2044 5.49775C15.2044 5.73553 15.0122 5.92775 14.7744 5.92775C13.47 5.92775 12.4088 6.98886 12.4088 8.2933C12.4088 8.44664 12.2166 8.54553 11.9788 8.54553L11.9777 8.54664Z" fill="url(#paint7_radial_2041_171)"/><path d="M6.97994 13.6278C7.02327 12.6767 7.6555 12.0544 8.38994 12.0544C9.0855 12.0544 9.62327 12.7644 9.64327 13.6467C9.66216 12.66 9.07327 11.87 8.30438 11.87C7.5355 11.87 6.84438 12.5422 6.79772 13.5589C6.75105 14.5756 7.34994 15.0956 8.1355 15.0956H8.19327C7.47772 15.0778 6.93772 14.5633 6.98105 13.6289L6.97994 13.6278ZM17.0333 13.6278C16.9899 12.6767 16.3577 12.0544 15.6233 12.0544C14.9277 12.0544 14.3899 12.7644 14.3699 13.6467C14.3511 12.66 14.9399 11.87 15.7088 11.87C16.4944 11.87 17.1688 12.5422 17.2155 13.5589C17.2622 14.5756 16.6633 15.0956 15.8777 15.0956H15.8199C16.5355 15.0778 17.0755 14.5633 17.0322 13.6289L17.0333 13.6278Z" fill="#842123"/></g><defs><radialGradient id="paint0_radial_2041_171" cx="0" cy="0" r="1" gradientUnits="userSpaceOnUse" gradientTransform="matrix(5.66444 0 0 4.92807 18.861 10.205)"><stop stop-color="#feffff"/><stop offset=".4" stop-color="#feffff"/><stop offset=".51" stop-color="#f9fcfc"/><stop offset=".62" stop-color="#edf3f5"/><stop offset=".7" stop-color="#dee9ec"/><stop offset=".72" stop-color="#d8e4e8"/><stop offset=".76" stop-color="#ccd8df"/><stop offset=".8" stop-color="#c8d5dd"/><stop offset=".83" stop-color="#ccd6de"/><stop offset=".85" stop-color="#d8dbe2"/><stop offset=".88" stop-color="#ede3e9"/><stop offset=".9" stop-color="#ffebef"/></radialGradient><radialGradient id="paint1_radial_2041_171" cx="0" cy="0" r="1" gradientUnits="userSpaceOnUse" gradientTransform="matrix(5.66444 0 0 4.92807 5.257 1.342)"><stop stop-color="#feffff"/><stop offset=".4" stop-color="#feffff"/><stop offset=".51" stop-color="#f9fcfc"/><stop offset=".62" stop-color="#edf3f5"/><stop offset=".7" stop-color="#dee9ec"/><stop offset=".72" stop-color="#d8e4e8"/><stop offset=".76" stop-color="#ccd8df"/><stop offset=".8" stop-color="#c8d5dd"/><stop offset=".83" stop-color="#ccd6de"/><stop offset=".85" stop-color="#d8dbe2"/><stop offset=".88" stop-color="#ede3e9"/><stop offset=".9" stop-color="#ffebef"/></radialGradient><radialGradient id="paint2_radial_2041_171" cx="0" cy="0" r="1" gradientUnits="userSpaceOnUse" gradientTransform="matrix(17.0867 0 0 11.9607 12.179 9.497)"><stop stop-color="#feffff"/><stop offset=".4" stop-color="#feffff"/><stop offset=".51" stop-color="#f9fcfc"/><stop offset=".62" stop-color="#edf3f5"/><stop offset=".7" stop-color="#dee9ec"/><stop offset=".72" stop-color="#d8e4e8"/><stop offset=".76" stop-color="#ccd8df"/><stop offset=".8" stop-color="#c8d5dd"/><stop offset=".83" stop-color="#ccd6de"/><stop offset=".85" stop-color="#d8dbe2"/><stop offset=".88" stop-color="#ede3e9"/><stop offset=".9" stop-color="#ffebef"/></radialGradient><radialGradient id="paint3_radial_2041_171" cx="0" cy="0" r="1" gradientUnits="userSpaceOnUse" gradientTransform="matrix(1.52772 0 0 2.21306 8.294 14.168)"><stop stop-color="#f60"/><stop offset=".5" stop-color="#ff4500"/><stop offset=".7" stop-color="#fc4301"/><stop offset=".82" stop-color="#f43f07"/><stop offset=".92" stop-color="#e53812"/><stop offset="1" stop-color="#d4301f"/></radialGradient><radialGradient id="paint4_radial_2041_171" cx="0" cy="0" r="1" gradientUnits="userSpaceOnUse" gradientTransform="matrix(-1.52772 0 0 -2.21306 15.73 14.168)"><stop stop-color="#f60"/><stop offset=".5" stop-color="#ff4500"/><stop offset=".7" stop-color="#fc4301"/><stop offset=".82" stop-color="#f43f07"/><stop offset=".92" stop-color="#e53812"/><stop offset="1" stop-color="#d4301f"/></radialGradient><radialGradient id="paint5_radial_2041_171" cx="0" cy="0" r="1" gradientUnits="userSpaceOnUse" gradientTransform="matrix(5.03333 0 0 3.322 11.992 18.622)"><stop stop-color="#172e35"/><stop offset=".29" stop-color="#0e1c21"/><stop offset=".73" stop-color="#030708"/><stop offset="1"/></radialGradient><radialGradient id="paint6_radial_2041_171" cx="0" cy="0" r="1" gradientUnits="userSpaceOnUse" gradientTransform="matrix(4.41889 0 0 4.33051 16.431 3.647)"><stop stop-color="#feffff"/><stop offset=".4" stop-color="#feffff"/><stop offset=".51" stop-color="#f9fcfc"/><stop offset=".62" stop-color="#edf3f5"/><stop offset=".7" stop-color="#dee9ec"/><stop offset=".72" stop-color="#d8e4e8"/><stop offset=".76" stop-color="#ccd8df"/><stop offset=".8" stop-color="#c8d5dd"/><stop offset=".83" stop-color="#ccd6de"/><stop offset=".85" stop-color="#d8dbe2"/><stop offset=".88" stop-color="#ede3e9"/><stop offset=".9" stop-color="#ffebef"/></radialGradient><radialGradient id="paint7_radial_2041_171" cx="0" cy="0" r="1" gradientUnits="userSpaceOnUse" gradientTransform="translate(14.59 8.12)scale(3.62222)"><stop offset=".48" stop-color="#7a9299"/><stop offset=".67" stop-color="#172e35"/><stop offset=".75"/><stop offset=".82" stop-color="#172e35"/></radialGradient><clipPath id="clip0_2041_171"><path fill="#fff" d="M0 0H24V24H0z"/></clipPath></defs></svg>