<svg width="32" height="32" viewBox="0 0 32 32" fill="none" xmlns="http://www.w3.org/2000/svg">
<path d="M31 24V11H1V24C1 26.209 2.791 28 5 28H27C29.209 28 31 26.209 31 24Z" fill="#C83029"/>
<path d="M5 4H27C29.208 4 31 5.792 31 8V12H1V8C1 5.792 2.792 4 5 4Z" fill="#0A2383"/>
<path d="M15.6279 5.89508C15.3039 6.43008 15.2649 6.85808 15.4859 7.59708C15.5929 7.94208 15.7099 8.45708 15.7589 8.73608C15.8249 9.13008 15.8179 9.16808 15.8269 9.25308C15.9089 9.25308 16.0949 9.25308 16.1819 9.25308C16.1939 9.11708 16.2039 8.95908 16.2329 8.74308C16.2669 8.49108 16.3679 7.96208 16.4759 7.59608C16.6919 6.86308 16.6779 6.41308 16.3419 5.90408C16.2189 5.71508 16.0549 5.55908 15.9809 5.55908C15.9069 5.55908 15.7399 5.70208 15.6279 5.89508Z" fill="#F6DD4C"/>
<path d="M17.221 7.40806C16.762 7.60506 16.486 8.15106 16.335 8.90206C16.307 9.04306 16.3 9.09306 16.286 9.25206C16.385 9.25206 16.424 9.25306 16.521 9.25206C16.542 9.14506 16.557 9.08806 16.604 8.93706C16.789 8.34906 17.335 8.11406 17.311 8.66406C17.303 8.81606 17.239 8.90106 17.168 8.98206C17.256 8.96006 17.443 8.87306 17.595 8.78606C18.44 8.27706 18.107 7.03106 17.221 7.40806Z" fill="#F6DD4C"/>
<path d="M15.345 9.44395C15.716 9.44595 16.356 9.44895 16.664 9.44695C16.664 9.36795 16.666 9.40795 16.666 9.34395C16.44 9.34195 15.572 9.34495 15.347 9.34495C15.347 9.38595 15.347 9.40595 15.345 9.44395Z" fill="#F6DD4C"/>
<path d="M15.4541 9.87898C15.3201 10.023 15.1121 10.131 15.1121 10.131C15.1121 10.131 15.2971 10.152 15.4691 10.139C15.6411 10.126 15.7371 10.105 15.8381 10.055C15.8101 10.26 15.8091 10.459 15.8091 10.459C15.8341 10.723 15.8621 10.791 15.9201 10.92C15.9981 11.027 16.0431 11.028 16.1001 10.915C16.1621 10.788 16.2021 10.658 16.2151 10.459C16.2111 10.31 16.2021 10.241 16.1671 10.059C16.2861 10.111 16.3611 10.124 16.5391 10.14C16.7211 10.156 16.8881 10.148 16.8881 10.148C16.8881 10.148 16.6421 10.025 16.5341 9.87298C16.4271 9.72398 16.4501 9.74898 16.3721 9.55598C16.2781 9.55198 15.8001 9.55598 15.6481 9.55598C15.5651 9.73198 15.5571 9.76798 15.4541 9.87898Z" fill="#F6DD4C"/>
<path d="M14.7789 7.40806C15.2379 7.60506 15.5139 8.15106 15.6649 8.90206C15.6929 9.04306 15.6999 9.09306 15.7139 9.25206C15.6149 9.25206 15.5759 9.25306 15.4789 9.25206C15.4579 9.14506 15.4429 9.08806 15.3959 8.93706C15.2109 8.34906 14.6649 8.11406 14.6889 8.66406C14.6969 8.81606 14.7609 8.90106 14.8319 8.98206C14.7439 8.96006 14.5569 8.87306 14.4049 8.78606C13.5599 8.27706 13.8929 7.03106 14.7789 7.40806Z" fill="#F6DD4C"/>
<path d="M7.75295 5.89508C7.42895 6.43008 7.38995 6.85808 7.61095 7.59708C7.71795 7.94208 7.83495 8.45708 7.88395 8.73608C7.94995 9.13008 7.94295 9.16808 7.95195 9.25308C8.03395 9.25308 8.21995 9.25308 8.30695 9.25308C8.31895 9.11708 8.32895 8.95908 8.35795 8.74308C8.39195 8.49108 8.49295 7.96208 8.60095 7.59608C8.81695 6.86308 8.80295 6.41308 8.46695 5.90408C8.34395 5.71508 8.17995 5.55908 8.10595 5.55908C8.03195 5.55908 7.86495 5.70208 7.75295 5.89508Z" fill="#F6DD4C"/>
<path d="M9.34601 7.40806C8.88701 7.60506 8.61101 8.15106 8.46001 8.90206C8.43201 9.04306 8.42501 9.09306 8.41101 9.25206C8.51001 9.25206 8.54901 9.25306 8.64601 9.25206C8.66701 9.14506 8.68201 9.08806 8.72901 8.93706C8.91401 8.34906 9.46001 8.11406 9.43601 8.66406C9.42801 8.81606 9.36401 8.90106 9.29301 8.98206C9.38101 8.96006 9.56801 8.87306 9.72001 8.78606C10.565 8.27706 10.232 7.03106 9.34601 7.40806Z" fill="#F6DD4C"/>
<path d="M7.46997 9.44395C7.84097 9.44595 8.48097 9.44895 8.78897 9.44695C8.78897 9.36795 8.79097 9.40795 8.79097 9.34395C8.56497 9.34195 7.69697 9.34495 7.47197 9.34495C7.47197 9.38595 7.47197 9.40595 7.46997 9.44395Z" fill="#F6DD4C"/>
<path d="M7.57906 9.87898C7.44506 10.023 7.23706 10.131 7.23706 10.131C7.23706 10.131 7.42206 10.152 7.59406 10.139C7.76606 10.126 7.86206 10.105 7.96306 10.055C7.93506 10.26 7.93406 10.459 7.93406 10.459C7.95906 10.723 7.98706 10.791 8.04506 10.92C8.12306 11.027 8.16806 11.028 8.22506 10.915C8.28706 10.788 8.32706 10.658 8.34006 10.459C8.33606 10.31 8.32706 10.241 8.29206 10.059C8.41106 10.111 8.48606 10.124 8.66406 10.14C8.84606 10.156 9.01306 10.148 9.01306 10.148C9.01306 10.148 8.76706 10.025 8.65906 9.87298C8.55206 9.72398 8.57506 9.74898 8.49706 9.55598C8.40306 9.55198 7.92506 9.55598 7.77306 9.55598C7.69006 9.73198 7.68206 9.76798 7.57906 9.87898Z" fill="#F6DD4C"/>
<path d="M6.90395 7.40806C7.36295 7.60506 7.63895 8.15106 7.78995 8.90206C7.81795 9.04306 7.82495 9.09306 7.83895 9.25206C7.73995 9.25206 7.70095 9.25306 7.60395 9.25206C7.58295 9.14506 7.56795 9.08806 7.52095 8.93706C7.33595 8.34906 6.78995 8.11406 6.81395 8.66406C6.82195 8.81606 6.88595 8.90106 6.95695 8.98206C6.86895 8.96006 6.68195 8.87306 6.52995 8.78606C5.68495 8.27706 6.01795 7.03106 6.90395 7.40806Z" fill="#F6DD4C"/>
<path d="M23.894 5.55788C23.82 5.55788 23.656 5.71388 23.533 5.90288C23.197 6.41188 23.182 6.86188 23.399 7.59488C23.507 7.96188 23.608 8.48988 23.642 8.74188C23.671 8.95888 23.681 9.11588 23.693 9.25188C23.779 9.25188 23.966 9.25188 24.048 9.25188C24.057 9.16588 24.05 9.12888 24.116 8.73488C24.165 8.45588 24.282 7.94088 24.389 7.59588C24.61 6.85688 24.572 6.42888 24.247 5.89388C24.135 5.70188 23.968 5.55788 23.894 5.55788Z" fill="#F6DD4C"/>
<path d="M22.654 7.40808C21.768 7.03008 21.436 8.27808 22.28 8.78708C22.432 8.87308 22.619 8.96108 22.707 8.98308C22.636 8.90208 22.572 8.81708 22.564 8.66508C22.539 8.11508 23.085 8.35108 23.271 8.93808C23.318 9.09008 23.333 9.14608 23.354 9.25308C23.451 9.25308 23.49 9.25308 23.589 9.25308C23.575 9.09408 23.568 9.04408 23.54 8.90308C23.389 8.15108 23.113 7.60508 22.654 7.40808Z" fill="#F6DD4C"/>
<path d="M24.528 9.34593C24.302 9.34593 23.435 9.34293 23.209 9.34493C23.209 9.40893 23.211 9.36893 23.211 9.44793C23.519 9.44993 24.159 9.44693 24.53 9.44493C24.529 9.40793 24.528 9.38793 24.528 9.34593Z" fill="#F6DD4C"/>
<path d="M24.4211 9.87898C24.3181 9.76798 24.3101 9.73198 24.2271 9.55598C24.0751 9.55598 23.5971 9.55198 23.5031 9.55598C23.4251 9.74898 23.4481 9.72298 23.3411 9.87298C23.2331 10.024 22.9871 10.148 22.9871 10.148C22.9871 10.148 23.1541 10.156 23.3361 10.14C23.5141 10.124 23.5891 10.111 23.7081 10.059C23.6731 10.241 23.6641 10.31 23.6601 10.459C23.6731 10.658 23.7141 10.789 23.7751 10.915C23.8321 11.028 23.8771 11.028 23.9551 10.92C24.0121 10.791 24.0411 10.724 24.0661 10.459C24.0661 10.459 24.0641 10.261 24.0371 10.055C24.1391 10.104 24.2341 10.126 24.4061 10.139C24.5781 10.152 24.7631 10.131 24.7631 10.131C24.7631 10.131 24.5541 10.023 24.4211 9.87898Z" fill="#F6DD4C"/>
<path d="M25.096 7.40808C25.982 7.03008 26.314 8.27808 25.47 8.78708C25.318 8.87308 25.131 8.96108 25.043 8.98308C25.114 8.90208 25.178 8.81708 25.186 8.66508C25.211 8.11508 24.665 8.35108 24.479 8.93808C24.432 9.09008 24.417 9.14608 24.396 9.25308C24.299 9.25308 24.26 9.25308 24.161 9.25308C24.175 9.09408 24.182 9.04408 24.21 8.90308C24.361 8.15108 24.637 7.60508 25.096 7.40808Z" fill="#F6DD4C"/>
<path d="M8.29198 16.048C10.423 17.568 7.20898 14.773 7.00098 14.614C7.12098 15.064 7.68198 15.659 8.29198 16.048Z" fill="#377E22"/>
<path d="M12.604 17.001C12.085 16.906 11.346 15.919 11.248 15.3C11.24 15.068 11.033 15.103 11.115 15.358C11.278 16.035 12.304 17.349 11.283 16.342C11.039 16.119 10.695 15.578 10.505 15.48C10.519 16.068 11.765 16.832 10.441 16.643C10.389 16.479 9.63097 15.463 9.74397 15.748C9.69097 15.829 10.754 17.096 10.076 16.517C9.68697 16.094 9.09097 15.282 8.89997 14.925C8.19197 14.139 9.69097 16.461 9.81097 16.541C9.69197 16.785 7.75397 13.724 8.09697 14.634C8.68397 15.692 8.87097 16.012 7.74897 14.618C7.56397 14.377 7.10397 13.693 7.50097 14.427C7.75797 14.916 8.80097 16.043 9.37997 16.474C9.59997 16.634 9.90697 16.732 10.159 16.757C10.172 17.041 11.197 17.36 10.896 17.501C9.98197 16.85 9.49997 16.604 8.36797 16.332C8.04297 16.096 7.30397 15.395 6.63897 14.99C5.06197 14.107 7.73997 15.893 6.93497 15.538C5.46297 14.994 7.55697 16.03 7.74597 16.163C6.98697 15.949 5.78797 15.704 6.03097 15.862C6.21497 15.943 8.77297 16.347 7.67997 16.508C7.49397 16.521 7.13997 16.147 7.54097 16.553C7.23497 16.64 7.43297 16.612 7.59697 16.657C8.76997 17.214 6.93197 16.892 7.19897 17.502C7.28997 17.109 8.51697 16.965 9.20297 17.551C8.60697 17.51 7.25597 17.669 7.51297 17.975C8.05697 17.71 8.47297 17.454 8.22497 18.273C8.35197 17.754 9.18697 17.576 9.91897 17.849C9.70797 17.739 7.98497 18.531 8.65797 18.404C9.04797 18.224 9.87497 17.888 10.287 17.942C9.92197 18.679 8.67897 18.616 9.08197 19.313C9.18197 19.746 9.14197 18.867 9.32197 18.824C9.85597 18.402 10.148 18.725 9.61897 19.303C9.91197 19.008 10.018 18.853 10.126 19.349C9.93297 18.695 10.446 18.622 11.099 18.802C10.395 19.095 10.384 19.541 10.424 20.133C10.443 19.417 11.042 18.683 11.816 18.977C11.418 18.672 12.047 18.747 12.063 18.632C12.022 18.518 11.244 18.758 11.007 18.591C9.86397 18.572 9.94597 18.555 10.961 18.352C11.671 18.159 11.033 18.069 10.199 18.36C10.183 17.685 11.605 18.208 11.784 17.957C11.649 17.865 11.043 17.625 11.145 17.49C11.609 17.73 12.104 17.935 12.198 17.899C12.472 17.724 10.62 17.451 11.611 17.32C12.617 17.573 11.368 17.041 11.184 16.838C11.491 16.721 11.723 17.231 12.299 17.205C12.809 17.227 12.011 16.933 11.795 16.845C11.95 16.82 13.308 17.384 12.601 16.999L12.604 17.001ZM11.18 17.785C11.083 17.743 10.748 17.752 10.961 17.64C11.011 17.679 11.087 17.734 11.18 17.785ZM8.37897 16.549C8.48297 16.509 8.53997 16.545 8.75397 16.619C8.62397 16.608 8.47497 16.653 8.37897 16.549ZM8.40497 16.778C9.01097 17.188 7.73797 16.837 8.26297 16.8C8.30697 16.794 8.35497 16.787 8.40497 16.778ZM8.76797 16.824C8.55397 16.495 9.23997 16.825 9.40397 17.086C9.08797 16.981 8.99197 16.986 8.76797 16.824ZM9.81897 17.365C9.94997 17.442 10.104 17.52 10.222 17.594C9.95197 17.632 9.20497 17.197 9.81897 17.365ZM10.747 17.583C10.613 17.713 10.489 17.538 10.343 17.474C10.478 17.506 10.634 17.553 10.747 17.583ZM9.97297 17.188C9.77797 17.187 9.58697 16.95 9.43397 16.871C9.80297 17.02 10.024 17.139 9.97297 17.188ZM7.84697 16.669C7.98797 16.679 8.14097 16.488 8.25197 16.615C8.24797 16.721 7.95497 16.826 7.84697 16.669ZM9.11297 17.359C9.07297 17.373 8.92797 17.312 8.71297 17.195C8.81497 17.195 9.14197 17.247 9.11297 17.359ZM11.135 17.353C10.764 17.169 10.484 16.991 10.43 16.894C10.523 17.036 11.611 17.165 11.135 17.353ZM10.881 16.814C11.134 17.02 10.784 16.854 10.587 16.81C10.654 16.811 10.772 16.793 10.881 16.814Z" fill="#377E22"/>
<path d="M10.8681 16.6269C11.0441 16.5939 9.88505 15.2989 9.89905 15.3089C9.95305 15.5749 10.7891 16.8299 10.8681 16.6269Z" fill="#377E22"/>
<path d="M7.54601 16.237C6.73101 15.811 6.15401 16.968 6.51101 16.776C6.71901 16.168 7.73401 16.38 7.54601 16.237Z" fill="#377E22"/>
<path d="M11.417 19.2381C11.14 19.1151 10.634 20.3231 11.053 19.7691C11.089 19.5611 11.768 19.1991 11.417 19.2381Z" fill="#377E22"/>
<path d="M25.0671 22.245C25.0671 22.245 25.0621 22.245 25.0601 22.244C24.8941 22.654 25.3941 21.531 25.0671 22.245Z" fill="#377E22"/>
<path d="M21.931 21.228C16.826 19.839 23.916 22.053 25.06 22.244C25.232 21.733 22.609 21.573 21.931 21.228Z" fill="#377E22"/>
<path d="M22.115 20.9541C16.971 19.7461 24.123 21.7081 25.277 21.8601C25.432 21.3441 22.804 21.2751 22.115 20.9541Z" fill="#377E22"/>
<path d="M25.283 21.8611C25.283 21.8611 25.278 21.8611 25.276 21.8611C25.125 22.2761 25.585 21.1371 25.283 21.8611Z" fill="#377E22"/>
<path d="M24.77 22.658C24.77 22.658 24.766 22.658 24.763 22.657C24.576 23.057 25.134 21.962 24.77 22.658Z" fill="#377E22"/>
<path d="M21.692 21.4781C16.666 19.8231 23.631 22.4061 24.763 22.6571C24.961 22.1561 22.351 21.8581 21.692 21.4781Z" fill="#377E22"/>
<path d="M24.5081 23.0859C23.2271 22.6519 20.7231 21.7419 19.5391 21.2329C19.1471 21.4829 23.7711 23.1719 24.2731 23.4669C24.4871 23.2189 24.2481 23.2299 23.9611 23.1009C24.1581 23.1639 24.5171 23.3559 24.4901 23.1219C24.5771 22.9799 24.7831 22.6199 24.5071 23.0849L24.5081 23.0859Z" fill="#377E22"/>
<path d="M24.507 22.848C24.558 22.569 20.414 21.448 19.693 21.017C18.769 20.898 25.188 23.59 24.507 22.848Z" fill="#377E22"/>
<path d="M24.28 23.4689C24.28 23.4689 24.276 23.4679 24.274 23.4669C24.053 23.8499 24.704 22.8069 24.28 23.4689Z" fill="#377E22"/>
<path d="M21.1009 22.3149C16.3619 19.9799 22.8869 23.5019 23.9789 23.9099C24.2459 23.4419 21.7009 22.7829 21.1009 22.3149Z" fill="#377E22"/>
<path d="M23.985 23.9119C23.985 23.9119 23.981 23.9099 23.979 23.9099C23.738 24.2809 24.443 23.2739 23.985 23.9119Z" fill="#377E22"/>
<path d="M16.418 23.32L16.686 23.512C17.07 23.78 17.282 24.153 17.261 24.537L17.247 24.855L17.373 24.543C17.511 24.216 17.492 23.721 17.329 23.354L17.234 23.14L17.536 23.272C17.968 23.454 18.252 23.775 18.311 24.155L18.363 24.469L18.422 24.137C18.489 23.788 18.368 23.308 18.132 22.983L17.995 22.794L18.318 22.86C18.778 22.948 19.123 23.203 19.26 23.563L19.376 23.859L19.364 23.522C19.357 23.167 19.139 22.723 18.841 22.454L18.667 22.297L18.996 22.294C19.464 22.285 19.854 22.462 20.063 22.785L20.238 23.05L20.157 22.723C20.077 22.377 19.771 21.988 19.423 21.787L19.22 21.67L19.542 21.599C19.998 21.492 20.416 21.584 20.688 21.857L20.914 22.08L20.766 21.777C20.616 21.456 20.236 21.138 19.854 21.014L19.632 20.942L19.932 20.805C20.356 20.606 20.784 20.609 21.106 20.819L21.374 20.99L21.167 20.724C20.953 20.441 20.515 20.21 20.117 20.168L19.884 20.144L20.149 19.948C20.522 19.665 20.942 19.579 21.301 19.717L21.598 19.829L21.34 19.612C21.072 19.38 20.596 19.245 20.197 19.287L19.964 19.311L20.182 19.064C20.488 18.709 20.881 18.538 21.261 18.599L21.575 18.646L21.278 18.488C20.968 18.316 20.474 18.284 20.093 18.408L19.871 18.48L20.033 18.193C20.259 17.782 20.607 17.533 20.991 17.513L21.308 17.494L20.984 17.401C20.645 17.298 20.155 17.368 19.808 17.569L19.605 17.686L19.704 17.371C19.84 16.922 20.128 16.606 20.5 16.507L20.806 16.422L20.47 16.399C20.117 16.369 19.652 16.54 19.354 16.808L19.18 16.965L19.212 16.637C19.252 16.17 19.468 15.8 19.812 15.626L20.094 15.48L19.761 15.527C19.409 15.571 18.99 15.835 18.755 16.16L18.618 16.349L18.581 16.021C18.523 15.556 18.658 15.149 18.957 14.907L19.202 14.705L18.886 14.82C18.551 14.936 18.196 15.281 18.033 15.648L17.938 15.862L17.834 15.549C17.68 15.106 17.728 14.68 17.971 14.381L18.169 14.132L17.883 14.311C17.579 14.494 17.304 14.906 17.221 15.299L17.172 15.528L17.005 15.244C16.763 14.842 16.721 14.416 16.896 14.073L17.038 13.789L16.796 14.023C16.537 14.266 16.353 14.726 16.353 15.127V15.361L16.131 15.118C15.811 14.776 15.681 14.367 15.782 13.995L15.862 13.687L15.674 13.967C15.471 14.258 15.387 14.746 15.47 15.139L15.519 15.368L15.251 15.176C14.867 14.908 14.655 14.535 14.676 14.151L14.69 13.833L14.564 14.146C14.426 14.473 14.445 14.968 14.608 15.335L14.703 15.549L14.401 15.417C13.969 15.235 13.685 14.914 13.626 14.534L13.574 14.22L13.516 14.552C13.449 14.901 13.57 15.381 13.806 15.706L13.943 15.895L13.62 15.829C13.16 15.741 12.815 15.486 12.678 15.126L12.562 14.83L12.574 15.167C12.581 15.522 12.799 15.966 13.097 16.235L13.271 16.392L12.942 16.395C12.474 16.404 12.084 16.227 11.875 15.904L11.7 15.639L11.781 15.966C11.861 16.312 12.167 16.701 12.515 16.902L12.718 17.019L12.396 17.09C11.94 17.197 11.522 17.105 11.25 16.832L11.024 16.609L11.172 16.912C11.322 17.234 11.703 17.551 12.084 17.675L12.306 17.747L12.006 17.884C11.582 18.083 11.154 18.08 10.832 17.87L10.564 17.699L10.771 17.965C10.985 18.248 11.423 18.479 11.821 18.521L12.054 18.546L11.789 18.742C11.416 19.025 10.996 19.111 10.637 18.973L10.34 18.861L10.598 19.078C10.866 19.311 11.342 19.445 11.741 19.403L11.974 19.379L11.756 19.626C11.45 19.981 11.057 20.152 10.677 20.091L10.363 20.044L10.66 20.202C10.97 20.374 11.464 20.406 11.845 20.282L12.067 20.21L11.905 20.497C11.679 20.908 11.331 21.157 10.947 21.177L10.63 21.196L10.954 21.289C11.293 21.392 11.783 21.322 12.13 21.121L12.333 21.004L12.234 21.319C12.098 21.768 11.81 22.084 11.438 22.183L11.132 22.268L11.468 22.292C11.821 22.322 12.286 22.151 12.584 21.883L12.758 21.726L12.726 22.054C12.686 22.521 12.47 22.891 12.126 23.065L11.844 23.212L12.177 23.165C12.529 23.121 12.948 22.857 13.183 22.532L13.32 22.343L13.357 22.671C13.415 23.136 13.28 23.543 12.981 23.785L12.736 23.987L13.052 23.872C13.387 23.756 13.742 23.41 13.905 23.044L14 22.83L14.104 23.143C14.258 23.586 14.21 24.012 13.967 24.311L13.769 24.56L14.055 24.381C14.359 24.198 14.634 23.786 14.717 23.393L14.766 23.164L14.933 23.448C15.175 23.849 15.217 24.276 15.042 24.619L14.9 24.903L15.142 24.669C15.401 24.427 15.585 23.967 15.585 23.565V23.331L15.807 23.574C16.127 23.916 16.257 24.325 16.156 24.697L16.076 25.005L16.264 24.725C16.467 24.434 16.551 23.946 16.468 23.553L16.419 23.324" fill="#F6DD4C"/>
</svg>
