<svg width="32" height="32" viewBox="0 0 32 32" fill="none" xmlns="http://www.w3.org/2000/svg">
<path d="M10 4H22V28H10V4Z" fill="white"/>
<path d="M5 4H11V28H5C2.792 28 1 26.208 1 24V8C1 5.792 2.792 4 5 4Z" fill="#5D97CC"/>
<path d="M27 28H21L21 4H27C29.208 4 31 5.792 31 8L31 24C31 26.208 29.208 28 27 28Z" fill="#5D97CC"/>
<path d="M16.356 19.947C16.32 19.889 16.26 19.853 16.207 19.824C15.855 19.636 15.505 19.553 15.108 19.488C15.016 19.472 14.925 19.385 14.831 19.34C14.605 19.23 14.353 19.188 14.133 19.076C14.118 19.069 14.063 19.036 14.037 19.004C13.95 18.901 13.792 18.869 13.693 18.773C13.313 18.408 12.91 18.071 12.701 17.587C12.447 16.998 12.131 16.39 12.174 15.72C12.202 15.296 12.14 14.868 12.242 14.465C12.394 13.867 12.588 13.275 12.944 12.78L12.884 12.818C12.526 13.313 12.331 13.905 12.18 14.504C12.078 14.907 12.139 15.336 12.112 15.759C12.069 16.429 12.385 17.037 12.639 17.628C12.848 18.11 13.253 18.446 13.631 18.814C13.729 18.908 13.887 18.939 13.975 19.045C14.001 19.074 14.058 19.11 14.071 19.117C14.291 19.229 14.543 19.272 14.769 19.379C14.863 19.426 14.955 19.511 15.046 19.527C15.443 19.592 15.793 19.677 16.145 19.863C16.2 19.892 16.258 19.928 16.294 19.986L16.356 19.947Z" fill="#528132"/>
<path d="M16.291 19.9869C16.254 19.9289 16.195 19.8929 16.143 19.8649C15.766 19.6659 15.392 19.5859 15.045 19.5289C14.985 19.5189 14.926 19.4799 14.868 19.4419C14.835 19.4199 14.801 19.398 14.767 19.3809C14.659 19.3299 14.543 19.293 14.431 19.2559C14.309 19.2169 14.184 19.1759 14.069 19.1179C14.055 19.1099 13.997 19.0749 13.971 19.0449C13.924 18.9879 13.856 18.9529 13.789 18.9179C13.732 18.8879 13.673 18.8579 13.628 18.8139C13.572 18.7599 13.516 18.7059 13.459 18.6519C13.127 18.3369 12.813 18.038 12.635 17.627C12.603 17.553 12.571 17.4789 12.538 17.4039C12.308 16.8829 12.07 16.3429 12.107 15.7559C12.117 15.6059 12.116 15.4539 12.114 15.3059C12.112 15.0379 12.109 14.7609 12.176 14.4989C12.314 13.9569 12.505 13.3319 12.881 12.8119L12.942 12.7729L12.947 12.7779C12.572 13.2989 12.382 13.9219 12.245 14.4629C12.179 14.7229 12.182 14.9999 12.184 15.2679C12.185 15.4149 12.187 15.5679 12.177 15.7179C12.139 16.3049 12.378 16.8439 12.608 17.3649C12.64 17.4379 12.672 17.5109 12.704 17.5829C12.884 17.9999 13.202 18.301 13.539 18.62C13.591 18.669 13.643 18.7179 13.695 18.7679C13.741 18.8119 13.8 18.8439 13.858 18.874C13.924 18.9079 13.992 18.9429 14.039 18.999C14.064 19.03 14.119 19.0629 14.134 19.0689C14.247 19.1269 14.371 19.1669 14.49 19.2059C14.604 19.2429 14.721 19.2809 14.831 19.3339C14.867 19.3509 14.903 19.3749 14.937 19.3969C14.993 19.4339 15.051 19.472 15.107 19.481C15.514 19.547 15.857 19.6299 16.207 19.8169C16.261 19.8469 16.321 19.8829 16.357 19.9419L16.359 19.9449L16.291 19.9869ZM12.93 12.7919L12.886 12.8199C12.512 13.3379 12.321 13.9619 12.183 14.5039C12.117 14.7639 12.12 15.0409 12.122 15.3089C12.123 15.4559 12.125 15.6089 12.115 15.7589C12.078 16.3439 12.315 16.8829 12.545 17.4039C12.578 17.4789 12.61 17.553 12.642 17.627C12.82 18.037 13.133 18.3349 13.465 18.6489C13.521 18.7029 13.578 18.756 13.633 18.811C13.678 18.853 13.736 18.8839 13.793 18.9139C13.86 18.9489 13.929 18.9849 13.977 19.0419C14.002 19.0709 14.059 19.105 14.072 19.113C14.186 19.171 14.311 19.2119 14.433 19.2509C14.545 19.2869 14.661 19.3239 14.769 19.3759C14.804 19.3929 14.838 19.4159 14.871 19.4379C14.929 19.4759 14.988 19.5139 15.045 19.5239C15.393 19.5809 15.767 19.661 16.146 19.86C16.198 19.8879 16.257 19.9239 16.294 19.9819L16.35 19.9479C16.314 19.8919 16.256 19.8569 16.204 19.8289C15.855 19.642 15.513 19.5599 15.107 19.4929C15.049 19.4829 14.99 19.445 14.934 19.408C14.899 19.385 14.864 19.3619 14.829 19.3449C14.719 19.2919 14.602 19.2539 14.489 19.2169C14.369 19.1779 14.245 19.1379 14.132 19.0799C14.115 19.0729 14.06 19.0389 14.034 19.0079C13.988 18.9529 13.921 18.918 13.855 18.884C13.797 18.854 13.737 18.8219 13.69 18.7769C13.638 18.7269 13.586 18.6779 13.534 18.6289C13.197 18.3099 12.878 18.0089 12.697 17.5899C12.666 17.5179 12.634 17.4449 12.601 17.3719C12.371 16.8499 12.132 16.3099 12.169 15.7219C12.179 15.5719 12.178 15.4199 12.176 15.2719C12.174 15.0039 12.171 14.7269 12.238 14.4649C12.373 13.9289 12.562 13.3119 12.929 12.7939L12.93 12.7919Z" fill="#528132"/>
<path d="M12.646 19.0859C12.646 19.0859 13.377 18.8519 13.971 19.0439C13.951 19.2389 13.662 19.3079 13.521 19.3089C13.387 19.3099 12.904 19.2619 12.646 19.0849V19.0859Z" fill="#528132"/>
<path d="M12.068 17.8789C12.068 17.8789 12.807 18.0859 13.198 18.5729C13.074 18.7249 12.795 18.6239 12.676 18.5469C12.563 18.4739 12.187 18.1689 12.069 17.8789H12.068Z" fill="#528132"/>
<path d="M11.428 17.1299C11.428 17.1299 12.093 17.1389 12.501 17.4939C12.418 17.6659 12.163 17.6399 12.049 17.5989C11.941 17.5599 11.572 17.3689 11.427 17.1299H11.428Z" fill="#528132"/>
<path d="M11.408 16.4121C11.408 16.4121 11.988 16.5431 12.276 16.9321C12.169 17.0681 11.951 16.9991 11.86 16.9411C11.774 16.8861 11.488 16.6501 11.408 16.4121Z" fill="#528132"/>
<path d="M11.1899 15.6741C11.1899 15.6741 11.7699 15.8051 12.0579 16.1941C11.9509 16.3301 11.7329 16.2611 11.6419 16.2031C11.5559 16.1481 11.2699 15.9121 11.1899 15.6741Z" fill="#528132"/>
<path d="M11.408 14.8601C11.408 14.8601 11.901 15.1921 12.029 15.6591C11.88 15.7481 11.702 15.6041 11.638 15.5171C11.577 15.4351 11.397 15.1111 11.408 14.8601Z" fill="#528132"/>
<path d="M11.7509 13.9399C11.7509 13.9399 12.0979 14.4229 12.0549 14.9049C11.8849 14.9359 11.7679 14.7399 11.7379 14.6359C11.7099 14.5379 11.6519 14.1709 11.7509 13.9399Z" fill="#528132"/>
<path d="M11.991 13.1011C11.991 13.1011 12.277 13.5811 12.197 14.0281C12.034 14.0431 11.941 13.8501 11.921 13.7511C11.903 13.6571 11.879 13.3091 11.991 13.1011Z" fill="#528132"/>
<path d="M12.504 12.502C12.504 12.502 12.658 12.974 12.496 13.345C12.35 13.326 12.307 13.14 12.31 13.05C12.313 12.965 12.364 12.66 12.504 12.502Z" fill="#528132"/>
<path d="M13.171 19.752C13.171 19.752 13.87 19.264 14.558 19.357C14.598 19.613 14.314 19.775 14.165 19.813C14.024 19.849 13.499 19.911 13.171 19.751V19.752Z" fill="#528132"/>
<path d="M14.214 17.9551C14.214 17.9551 14.874 18.4941 14.973 19.1821C14.738 19.2901 14.504 19.0621 14.427 18.9291C14.354 18.8031 14.15 18.3151 14.215 17.9561L14.214 17.9551Z" fill="#528132"/>
<path d="M13.477 17.6951C13.477 17.6951 14.029 18.2061 14.079 18.8161C13.866 18.8991 13.673 18.6851 13.611 18.5631C13.553 18.4481 13.4 18.0081 13.477 17.6951Z" fill="#528132"/>
<path d="M12.962 16.74C12.962 16.74 13.275 17.38 13.11 17.937C12.894 17.937 12.796 17.682 12.783 17.554C12.771 17.433 12.787 16.991 12.962 16.74Z" fill="#528132"/>
<path d="M12.678 15.9741C12.678 15.9741 12.917 16.5381 12.732 17.0021C12.537 16.9891 12.467 16.7661 12.464 16.6561C12.461 16.5521 12.505 16.1771 12.678 15.9741Z" fill="#528132"/>
<path d="M12.756 15.052C12.756 15.052 12.741 15.665 12.381 16.011C12.209 15.919 12.237 15.686 12.28 15.585C12.321 15.489 12.515 15.165 12.756 15.053V15.052Z" fill="#528132"/>
<path d="M12.9861 14.241C12.9861 14.241 12.7481 14.806 12.2861 14.996C12.1601 14.847 12.2711 14.641 12.3481 14.562C12.4211 14.488 12.7201 14.258 12.9861 14.241Z" fill="#528132"/>
<path d="M13.132 13.5649C13.132 13.5649 12.88 14.0269 12.481 14.1839C12.392 14.0629 12.504 13.8939 12.575 13.8299C12.642 13.7689 12.912 13.5799 13.132 13.5659V13.5649Z" fill="#528132"/>
<path d="M13.601 12.6541C13.601 12.6541 13.269 13.2531 12.75 13.4611C12.636 13.3061 12.783 13.0871 12.876 13.0031C12.964 12.9231 13.315 12.6761 13.6 12.6551L13.601 12.6541Z" fill="#528132"/>
<path d="M15.644 19.9471L15.706 19.9851C15.742 19.9271 15.8 19.8911 15.855 19.8621C16.207 19.6761 16.557 19.5911 16.954 19.5261C17.046 19.5101 17.137 19.4251 17.231 19.3781C17.457 19.2701 17.709 19.2281 17.929 19.1161C17.942 19.1091 17.999 19.0731 18.025 19.0441C18.112 18.9391 18.27 18.9071 18.369 18.8131C18.747 18.4451 19.152 18.1091 19.361 17.6271C19.615 17.0351 19.931 16.4281 19.888 15.7581C19.86 15.3341 19.922 14.9061 19.82 14.5031C19.668 13.9051 19.474 13.3131 19.116 12.8171L19.056 12.7791C19.412 13.2741 19.606 13.8661 19.758 14.4641C19.86 14.8671 19.799 15.2961 19.826 15.7191C19.869 16.3891 19.553 16.9971 19.299 17.5861C19.09 18.0701 18.687 18.4061 18.307 18.7721C18.209 18.8681 18.051 18.9001 17.963 19.0031C17.937 19.0341 17.882 19.0681 17.867 19.0751C17.647 19.1871 17.395 19.2301 17.169 19.3391C17.075 19.3841 16.983 19.4711 16.892 19.4871C16.495 19.5521 16.145 19.6351 15.793 19.8231C15.74 19.8521 15.68 19.8881 15.644 19.9461" fill="#528132"/>
<path d="M19.3541 19.0859C19.3541 19.0859 18.6231 18.8519 18.0291 19.0439C18.0491 19.2389 18.3381 19.3079 18.4791 19.3089C18.6131 19.3099 19.0961 19.2619 19.3541 19.0849V19.0859Z" fill="#528132"/>
<path d="M19.932 17.8789C19.932 17.8789 19.193 18.0859 18.802 18.5729C18.926 18.7249 19.205 18.6239 19.324 18.5469C19.437 18.4739 19.814 18.1689 19.932 17.8789Z" fill="#528132"/>
<path d="M20.572 17.1299C20.572 17.1299 19.907 17.1389 19.499 17.4939C19.582 17.6659 19.837 17.6399 19.951 17.5989C20.059 17.5599 20.427 17.3689 20.572 17.1299Z" fill="#528132"/>
<path d="M20.592 16.4121C20.592 16.4121 20.012 16.5431 19.724 16.9321C19.831 17.0681 20.049 16.9991 20.14 16.9411C20.226 16.8861 20.512 16.6501 20.592 16.4121Z" fill="#528132"/>
<path d="M20.81 15.6741C20.81 15.6741 20.23 15.8051 19.942 16.1941C20.049 16.3301 20.267 16.2611 20.358 16.2031C20.444 16.1481 20.73 15.9121 20.81 15.6741Z" fill="#528132"/>
<path d="M20.5919 14.8601C20.5919 14.8601 20.0989 15.1921 19.9709 15.6591C20.1199 15.7481 20.2979 15.6041 20.3619 15.5171C20.4229 15.4351 20.6029 15.1111 20.5919 14.8601Z" fill="#528132"/>
<path d="M20.249 13.9399C20.249 13.9399 19.902 14.4229 19.945 14.9049C20.115 14.9359 20.232 14.7399 20.262 14.6359C20.29 14.5379 20.347 14.1709 20.248 13.9399H20.249Z" fill="#528132"/>
<path d="M20.0089 13.1011C20.0089 13.1011 19.7229 13.5811 19.8029 14.0281C19.9659 14.0431 20.0589 13.8501 20.0789 13.7511C20.0969 13.6571 20.1209 13.3091 20.0089 13.1011Z" fill="#528132"/>
<path d="M19.4959 12.502C19.4959 12.502 19.3419 12.974 19.5039 13.345C19.6499 13.326 19.6929 13.14 19.6899 13.05C19.6869 12.965 19.6359 12.66 19.4959 12.502Z" fill="#528132"/>
<path d="M18.8291 19.752C18.8291 19.752 18.1301 19.264 17.4421 19.357C17.4021 19.613 17.6861 19.775 17.8351 19.813C17.9761 19.849 18.5011 19.911 18.8291 19.751V19.752Z" fill="#528132"/>
<path d="M17.786 17.9551C17.786 17.9551 17.126 18.4941 17.027 19.1821C17.262 19.2901 17.496 19.0621 17.573 18.9291C17.646 18.8031 17.85 18.3151 17.785 17.9561L17.786 17.9551Z" fill="#528132"/>
<path d="M18.523 17.6951C18.523 17.6951 17.971 18.2061 17.921 18.8161C18.134 18.8991 18.327 18.6851 18.389 18.5631C18.447 18.4481 18.6 18.0081 18.523 17.6951Z" fill="#528132"/>
<path d="M19.038 16.74C19.038 16.74 18.725 17.38 18.89 17.937C19.106 17.937 19.204 17.682 19.217 17.554C19.229 17.433 19.213 16.991 19.038 16.74Z" fill="#528132"/>
<path d="M19.322 15.9741C19.322 15.9741 19.083 16.5381 19.268 17.0021C19.463 16.9891 19.533 16.7661 19.536 16.6561C19.539 16.5521 19.495 16.1771 19.322 15.9741Z" fill="#528132"/>
<path d="M19.244 15.052C19.244 15.052 19.259 15.665 19.619 16.011C19.791 15.919 19.763 15.686 19.72 15.585C19.679 15.489 19.485 15.165 19.244 15.053V15.052Z" fill="#528132"/>
<path d="M19.014 14.241C19.014 14.241 19.252 14.806 19.714 14.996C19.84 14.847 19.729 14.641 19.652 14.562C19.579 14.488 19.28 14.258 19.014 14.241Z" fill="#528132"/>
<path d="M18.868 13.5649C18.868 13.5649 19.12 14.0269 19.519 14.1839C19.608 14.0629 19.496 13.8939 19.425 13.8299C19.358 13.7689 19.088 13.5799 18.868 13.5659V13.5649Z" fill="#528132"/>
<path d="M18.399 12.6541C18.399 12.6541 18.731 13.2531 19.25 13.4611C19.364 13.3061 19.217 13.0871 19.124 13.0031C19.036 12.9231 18.685 12.6761 18.4 12.6551L18.399 12.6541Z" fill="#528132"/>
<path d="M15.661 12.144C15.661 12.144 15.718 12.087 15.774 12.069C15.767 11.941 15.87 11.829 16.025 11.845C16.18 11.861 16.269 12.066 16.174 12.213C16.174 12.213 16.815 12.615 17.378 13.218C17.941 13.821 18.632 14.833 18.421 16.169C18.21 17.505 16.764 19.36 16.466 20.157C16.466 20.157 16.646 19.218 17.246 18.412C17.246 18.412 16.29 19.65 15.574 19.743C16.764 18.971 17.791 17.475 18.052 16.527C18.052 16.527 17.743 17.082 17.508 17.254C17.508 17.254 17.951 16.577 18.047 16.123C18.047 16.123 17.764 16.813 17.462 16.968C17.856 16.474 18.236 15.62 18.045 14.717C17.854 13.814 17.252 13.373 16.982 13.3C16.712 13.227 16.103 13.213 15.843 12.892C15.583 12.571 15.802 12.215 15.802 12.215C15.802 12.215 15.82 12.169 15.777 12.158C15.735 12.158 15.709 12.152 15.66 12.144H15.661Z" fill="#528132"/>
<path d="M16.8971 13.2019C16.8971 13.2019 14.7131 13.2359 14.5391 13.2499C14.3651 13.2639 14.2441 13.4999 14.2651 13.6689C14.2861 13.8379 14.3311 13.9739 14.4951 14.3139C14.6591 14.6539 15.0631 15.4899 15.1301 15.9719C15.1301 15.9719 14.8301 15.9979 14.6711 16.0189C14.5121 16.0399 14.4121 16.2229 14.4561 16.4819C14.5001 16.7409 14.5891 16.8189 14.8111 16.8499C15.0331 16.8809 17.4181 16.6979 17.4181 16.6979C17.4181 16.6979 17.6881 16.5119 17.7231 16.1859C17.7581 15.8599 17.5921 15.2489 17.3971 14.8719C17.2021 14.4949 16.8091 13.8439 16.8091 13.8439C16.8091 13.8439 16.9431 13.8179 17.0141 13.6919C17.0851 13.5659 17.0731 13.3719 16.8991 13.2039L16.8971 13.2019Z" fill="#F8F1B3"/>
</svg>
