<svg width="32" height="32" viewBox="0 0 32 32" fill="none" xmlns="http://www.w3.org/2000/svg">
<path d="M27 4H5C2.79086 4 1 5.79086 1 8V24C1 26.2091 2.79086 28 5 28H27C29.2091 28 31 26.2091 31 24V8C31 5.79086 29.2091 4 27 4Z" fill="#4DAAC1"/>
<path d="M16.008 17.4531C17.9493 17.4531 19.523 15.8794 19.523 13.9381C19.523 11.9968 17.9493 10.4231 16.008 10.4231C14.0667 10.4231 12.493 11.9968 12.493 13.9381C12.493 15.8794 14.0667 17.4531 16.008 17.4531Z" fill="#FBEC5A"/>
<path d="M16.008 9.94297C16.217 9.93997 16.295 9.80997 16.295 9.65297C16.295 9.44397 16.008 8.44897 16.008 8.44897C16.008 8.44897 15.721 9.44397 15.721 9.65297C15.721 9.80997 15.799 9.94297 16.008 9.94297Z" fill="#FBEC5A"/>
<path d="M20.003 13.9379C20.006 14.1469 20.136 14.2249 20.293 14.2249C20.502 14.2249 21.497 13.9379 21.497 13.9379C21.497 13.9379 20.502 13.6509 20.293 13.6509C20.136 13.6509 20.003 13.7289 20.003 13.9379Z" fill="#FBEC5A"/>
<path d="M16.008 17.9331C15.799 17.9361 15.721 18.0661 15.721 18.2231C15.721 18.4321 16.008 19.4271 16.008 19.4271C16.008 19.4271 16.295 18.4321 16.295 18.2231C16.295 18.0661 16.217 17.9331 16.008 17.9331Z" fill="#FBEC5A"/>
<path d="M12.014 13.9379C12.011 13.7289 11.881 13.6509 11.724 13.6509C11.515 13.6509 10.52 13.9379 10.52 13.9379C10.52 13.9379 11.515 14.2249 11.724 14.2249C11.881 14.2249 12.014 14.1469 12.014 13.9379Z" fill="#FBEC5A"/>
<path d="M17.537 10.247C17.731 10.325 17.854 10.234 17.914 10.089C17.994 9.89597 18.109 8.86597 18.109 8.86597C18.109 8.86597 17.463 9.67597 17.383 9.86897C17.323 10.014 17.343 10.167 17.537 10.247Z" fill="#FBEC5A"/>
<path d="M19.699 15.4669C19.621 15.6609 19.712 15.7839 19.857 15.8439C20.05 15.9239 21.08 16.0389 21.08 16.0389C21.08 16.0389 20.27 15.3929 20.077 15.3129C19.932 15.2529 19.779 15.2739 19.699 15.4679V15.4669Z" fill="#FBEC5A"/>
<path d="M14.48 17.629C14.286 17.551 14.163 17.642 14.103 17.787C14.023 17.98 13.908 19.01 13.908 19.01C13.908 19.01 14.554 18.2 14.634 18.007C14.694 17.862 14.674 17.709 14.48 17.629Z" fill="#FBEC5A"/>
<path d="M12.318 12.4089C12.396 12.2149 12.305 12.0919 12.16 12.0319C11.967 11.9519 10.937 11.8369 10.937 11.8369C10.937 11.8369 11.747 12.4829 11.94 12.5629C12.085 12.6229 12.238 12.6019 12.318 12.4079V12.4089Z" fill="#FBEC5A"/>
<path d="M18.833 11.1129C18.983 11.2589 19.13 11.2219 19.241 11.1109C19.389 10.9629 19.889 10.0559 19.889 10.0559C19.889 10.0559 18.982 10.5569 18.834 10.7039C18.723 10.8149 18.684 10.9639 18.832 11.1119L18.833 11.1129Z" fill="#FBEC5A"/>
<path d="M18.833 16.763C18.687 16.913 18.724 17.06 18.835 17.171C18.983 17.319 19.89 17.819 19.89 17.819C19.89 17.819 19.389 16.912 19.242 16.764C19.131 16.653 18.982 16.614 18.834 16.762L18.833 16.763Z" fill="#FBEC5A"/>
<path d="M13.184 16.7629C13.034 16.6169 12.887 16.6539 12.776 16.7649C12.628 16.9129 12.128 17.8199 12.128 17.8199C12.128 17.8199 13.035 17.3189 13.183 17.1719C13.294 17.0609 13.333 16.9119 13.185 16.7639L13.184 16.7629Z" fill="#FBEC5A"/>
<path d="M13.184 11.1129C13.33 10.9629 13.293 10.8159 13.182 10.7049C13.034 10.5569 12.127 10.0569 12.127 10.0569C12.127 10.0569 12.628 10.9639 12.775 11.1119C12.886 11.2229 13.035 11.2619 13.183 11.1139L13.184 11.1129Z" fill="#FBEC5A"/>
<path d="M19.699 12.4089C19.781 12.6009 19.932 12.6239 20.077 12.5639C20.27 12.4839 21.08 11.8379 21.08 11.8379C21.08 11.8379 20.05 11.9529 19.857 12.0329C19.712 12.0929 19.619 12.2149 19.699 12.4089Z" fill="#FBEC5A"/>
<path d="M17.537 17.6291C17.345 17.7111 17.322 17.8621 17.382 18.0071C17.462 18.2001 18.108 19.0101 18.108 19.0101C18.108 19.0101 17.993 17.9801 17.913 17.7871C17.853 17.6421 17.73 17.5491 17.536 17.6291H17.537Z" fill="#FBEC5A"/>
<path d="M12.318 15.467C12.236 15.275 12.085 15.252 11.94 15.312C11.747 15.392 10.937 16.038 10.937 16.038C10.937 16.038 11.967 15.923 12.16 15.843C12.305 15.783 12.398 15.66 12.318 15.466V15.467Z" fill="#FBEC5A"/>
<path d="M14.48 10.247C14.672 10.165 14.695 10.014 14.635 9.86897C14.555 9.67597 13.909 8.86597 13.909 8.86597C13.909 8.86597 14.024 9.89597 14.104 10.089C14.164 10.234 14.287 10.327 14.481 10.247H14.48Z" fill="#FBEC5A"/>
<path d="M16.788 10.0199C16.994 10.0579 17.096 9.94493 17.126 9.79193C17.167 9.58693 17.079 8.55493 17.079 8.55493C17.079 8.55493 16.603 9.47493 16.562 9.67993C16.531 9.83393 16.582 9.97993 16.787 10.0209L16.788 10.0199Z" fill="#FBEC5A"/>
<path d="M19.927 14.717C19.889 14.923 20.002 15.025 20.155 15.055C20.36 15.096 21.392 15.008 21.392 15.008C21.392 15.008 20.472 14.532 20.267 14.491C20.113 14.46 19.967 14.511 19.926 14.716L19.927 14.717Z" fill="#FBEC5A"/>
<path d="M15.229 17.856C15.023 17.818 14.921 17.931 14.891 18.084C14.85 18.289 14.938 19.321 14.938 19.321C14.938 19.321 15.414 18.401 15.455 18.196C15.486 18.042 15.435 17.896 15.23 17.855L15.229 17.856Z" fill="#FBEC5A"/>
<path d="M12.09 13.1589C12.128 12.9529 12.015 12.8509 11.862 12.8209C11.657 12.7799 10.625 12.8679 10.625 12.8679C10.625 12.8679 11.545 13.3439 11.75 13.3849C11.904 13.4159 12.05 13.3649 12.091 13.1599L12.09 13.1589Z" fill="#FBEC5A"/>
<path d="M18.228 10.616C18.403 10.73 18.541 10.665 18.628 10.535C18.744 10.361 19.058 9.37402 19.058 9.37402C19.058 9.37402 18.266 10.042 18.15 10.216C18.063 10.346 18.054 10.5 18.228 10.616Z" fill="#FBEC5A"/>
<path d="M19.33 16.1569C19.216 16.3319 19.281 16.4699 19.411 16.5569C19.585 16.6729 20.572 16.9869 20.572 16.9869C20.572 16.9869 19.904 16.1949 19.73 16.0789C19.6 15.9919 19.446 15.9829 19.33 16.1569Z" fill="#FBEC5A"/>
<path d="M13.789 17.259C13.614 17.145 13.476 17.21 13.389 17.34C13.273 17.514 12.959 18.501 12.959 18.501C12.959 18.501 13.751 17.833 13.867 17.659C13.954 17.529 13.963 17.374 13.789 17.258V17.259Z" fill="#FBEC5A"/>
<path d="M12.687 11.7179C12.801 11.5429 12.736 11.4049 12.606 11.3179C12.432 11.2019 11.445 10.8879 11.445 10.8879C11.445 10.8879 12.113 11.6799 12.287 11.7959C12.417 11.8829 12.571 11.8919 12.687 11.7179Z" fill="#FBEC5A"/>
<path d="M19.33 11.7179C19.448 11.8899 19.6 11.8829 19.731 11.7959C19.905 11.6799 20.573 10.8879 20.573 10.8879C20.573 10.8879 19.586 11.2019 19.412 11.3179C19.282 11.4049 19.213 11.5439 19.33 11.7179Z" fill="#FBEC5A"/>
<path d="M18.228 17.2589C18.056 17.3769 18.063 17.5289 18.15 17.6599C18.266 17.8339 19.058 18.5019 19.058 18.5019C19.058 18.5019 18.744 17.5149 18.628 17.3409C18.541 17.2109 18.402 17.1419 18.228 17.2589Z" fill="#FBEC5A"/>
<path d="M12.687 16.157C12.569 15.985 12.417 15.992 12.286 16.079C12.112 16.195 11.444 16.987 11.444 16.987C11.444 16.987 12.431 16.673 12.605 16.557C12.735 16.47 12.803 16.331 12.686 16.157H12.687Z" fill="#FBEC5A"/>
<path d="M13.789 10.616C13.961 10.498 13.954 10.346 13.867 10.215C13.751 10.041 12.959 9.37305 12.959 9.37305C12.959 9.37305 13.273 10.36 13.389 10.534C13.476 10.664 13.615 10.732 13.789 10.615V10.616Z" fill="#FBEC5A"/>
<path d="M19.927 13.159C19.97 13.363 20.114 13.415 20.268 13.384C20.473 13.343 21.393 12.867 21.393 12.867C21.393 12.867 20.361 12.779 20.156 12.82C20.002 12.851 19.887 12.953 19.928 13.158L19.927 13.159Z" fill="#FBEC5A"/>
<path d="M16.788 17.856C16.584 17.899 16.532 18.043 16.563 18.197C16.604 18.402 17.08 19.322 17.08 19.322C17.08 19.322 17.168 18.29 17.127 18.085C17.096 17.931 16.994 17.816 16.789 17.857L16.788 17.856Z" fill="#FBEC5A"/>
<path d="M12.09 14.7169C12.047 14.5129 11.903 14.4609 11.749 14.4919C11.544 14.5329 10.624 15.0089 10.624 15.0089C10.624 15.0089 11.656 15.0969 11.861 15.0559C12.015 15.0249 12.13 14.9229 12.089 14.7179L12.09 14.7169Z" fill="#FBEC5A"/>
<path d="M15.229 10.02C15.433 9.97696 15.485 9.83296 15.454 9.67896C15.413 9.47396 14.937 8.55396 14.937 8.55396C14.937 8.55396 14.849 9.58596 14.89 9.79096C14.921 9.94496 15.023 10.06 15.228 10.019L15.229 10.02Z" fill="#FBEC5A"/>
<path d="M15.381 21.553C15.119 21.566 14.874 21.675 14.613 21.694C14.679 21.872 14.456 22.03 14.317 21.896C14.219 21.927 14.118 21.906 14.034 21.849C13.708 21.975 13.596 22.521 14.007 22.206C14.114 22.138 13.962 22.361 14.037 22.312C14.861 22.034 15.848 22.259 16.683 22.165C16.154 22.067 15.572 22.13 15.066 22.032C15.127 21.948 15.2 21.873 15.267 21.795C15.213 21.786 15.161 21.775 15.107 21.762C15.202 21.697 15.29 21.623 15.382 21.553H15.381Z" fill="#FBEC5A"/>
<path d="M19.45 22.456C19.261 22.57 19.116 22.368 18.958 22.308C18.84 22.471 18.565 23.029 18.459 22.49C18.308 22.617 18.232 22.906 17.987 22.867C17.728 22.399 17.623 23.199 17.333 22.901C17.302 22.754 17.229 22.581 17.149 22.815C17.094 22.98 16.918 23.102 16.747 23.029C16.654 22.953 16.822 22.67 16.703 22.69C16.525 22.807 16.422 23.099 16.174 23.076C16.078 22.968 16.232 22.785 16.127 22.665C16.002 22.825 15.864 23.059 15.648 23.076C15.544 22.992 15.652 22.749 15.586 22.714C15.365 22.847 15.131 23.083 14.853 23.009C15.359 21.926 16.877 22.665 17.771 22.247C17.873 22.185 18.12 22.097 18.032 21.953C17.954 21.839 18.235 21.884 18.262 21.751C18.716 21.304 19.786 21.794 20.434 21.721C20.482 22.03 20.139 22.248 19.862 22.152C19.73 22.173 19.532 21.849 19.571 22.085C19.544 22.209 19.563 22.373 19.45 22.456ZM14.031 21.822C14.934 21.84 15.648 20.821 16.456 20.501C17.087 20.31 17.758 20.333 18.392 20.157C18.874 19.497 19.694 19.261 20.38 18.881C20.923 18.346 21.389 17.275 22.348 17.414C22.332 17.683 22.177 17.922 21.991 18.108C22.144 18.105 22.275 18.008 22.429 18.014C22.482 18.29 22.183 18.435 22.025 18.607C22.737 18.675 21.717 18.985 21.546 19.207C22.03 19.302 21.208 19.403 21.223 19.605C21.479 19.847 20.539 19.814 20.95 20.053C20.868 20.177 20.692 20.203 20.549 20.191C20.69 20.806 19.552 21.032 19.073 21.135C19.584 21.259 21.91 20.712 20.833 20.304C21.13 20.121 21.504 20.186 21.823 20.077C21.831 19.974 21.58 20.002 21.487 19.979C20.993 19.881 22.199 19.816 22.302 19.619C22.116 19.533 21.881 19.609 21.682 19.538C21.928 19.47 23.269 19.073 22.452 19.052C22.265 19.085 22.179 18.995 22.391 18.918C23.113 18.48 24.457 17.445 22.653 18.116C24.135 16.997 24.87 15.546 22.66 17.496C24.039 16.273 24.582 14.131 22.64 16.755C23.697 14.925 23.341 13.087 22.391 16.263C22.508 15.99 22.647 14.519 22.194 15.146C21.665 17.936 19.062 19.929 16.298 20.091C15.735 20.95 14.674 21.212 14.033 21.823" fill="#FBEC5A"/>
<path d="M15.886 20.076C15.795 20.242 15.741 20.433 15.623 20.581C14.961 19.993 13.911 20.514 13.248 19.93C11.992 19.021 10.869 18.174 9.82702 16.995C9.72202 17.021 9.77002 17.247 9.64102 17.131C9.57102 17.081 9.39702 17.077 9.38102 17.146C9.53902 17.354 9.69702 17.591 9.71902 17.857C9.61102 17.868 9.42002 17.834 9.36702 17.874C9.51002 18.088 9.69302 18.278 9.90102 18.43C9.80102 18.446 9.60402 18.437 9.56602 18.478C9.77302 18.646 9.99402 18.819 10.265 18.862C10.32 18.935 10.184 19.076 10.299 19.138C10.365 19.165 10.585 19.211 10.434 19.286C10.182 19.546 10.739 19.517 10.788 19.643C10.313 19.893 11.046 20.037 11.283 20.055C11.178 20.144 11.048 20.194 10.939 20.277C11.622 20.656 12.377 20.924 13.136 21.106C12.156 21.07 11.29 20.589 10.393 20.25C10.528 20.18 10.684 20.163 10.824 20.102C10.533 20.044 10.216 20.025 9.96002 19.865C9.99902 19.795 10.148 19.792 10.23 19.756C10.704 19.623 9.70302 19.646 9.59702 19.495C9.70702 19.371 10.055 19.45 10.197 19.306C9.40702 19.148 8.50302 18.901 9.96102 18.908C9.20002 18.698 7.48302 17.418 9.31302 18.132C8.07802 17.138 6.93502 15.403 9.27302 17.465C8.26502 16.566 7.15102 13.911 9.36102 16.757C8.30802 14.923 8.64602 13.047 9.61002 16.265C9.13902 12.284 10.569 20.544 15.885 20.073" fill="#FBEC5A"/>
</svg>
