<svg width="32" height="32" viewBox="0 0 32 32" fill="none" xmlns="http://www.w3.org/2000/svg">
<path d="M27 4H5C2.79086 4 1 5.79086 1 8V24C1 26.2091 2.79086 28 5 28H27C29.2091 28 31 26.2091 31 24V8C31 5.79086 29.2091 4 27 4Z" fill="white"/>
<path d="M1.63794 5.847H30.3619C29.6509 4.739 28.4139 4 26.9999 4H4.99994C3.58494 4 2.34894 4.739 1.63794 5.847Z" fill="#BC271A"/>
<path d="M1.031 7.69189C1.023 7.79489 1 7.89389 1 7.99989V9.53889H31V7.99989C31 7.89489 30.977 7.79589 30.969 7.69189H1.031Z" fill="#BC271A"/>
<path d="M1 11.384H31V13.231H1V11.384Z" fill="#BC271A"/>
<path d="M1 15.0769H31V16.9239H1V15.0769Z" fill="#BC271A"/>
<path d="M1 18.769H31V20.616H1V18.769Z" fill="#BC271A"/>
<path d="M1 23.9999C1 24.1049 1.023 24.2039 1.031 24.3079H30.969C30.977 24.2049 31 24.1059 31 23.9999V22.4609H1V23.9999Z" fill="#BC271A"/>
<path d="M30.3619 26.1531H1.63794C2.34894 27.2611 3.58594 28.0001 4.99994 28.0001H26.9999C28.4149 28.0001 29.6509 27.2611 30.3619 26.1531Z" fill="#BC271A"/>
<path d="M16 4H5C2.791 4 1 5.791 1 8V18.769H16V4Z" fill="#010062"/>
<path d="M11.639 8.10791L11.931 10.1059L13.061 8.43191L12.455 10.3599L14.2 9.34191L12.818 10.8159L14.833 10.6549L12.949 11.3839L14.833 12.1129L12.818 11.9519L14.2 13.4269L12.455 12.4079L13.061 14.3359L11.931 12.6619L11.639 14.6609L11.346 12.6619L10.216 14.3359L10.822 12.4079L9.07697 13.4269L10.459 11.9519L8.44397 12.1129L10.328 11.3839L8.44397 10.6549L10.459 10.8159L9.07697 9.34191L10.822 10.3599L10.216 8.43191L11.346 10.1059L11.639 8.10791Z" fill="#F6CD46"/>
<path d="M9.99997 8.18893C8.23597 7.40593 6.17097 8.20193 5.38797 9.96593C4.60497 11.7299 5.40097 13.7949 7.16497 14.5779C8.06797 14.9779 9.09697 14.9779 9.99997 14.5779C8.23597 15.8439 5.77897 15.4399 4.51297 13.6749C3.24697 11.9099 3.65097 9.45393 5.41597 8.18793C6.78597 7.20493 8.62997 7.20493 9.99997 8.18793V8.18893Z" fill="#F6CD46"/>
</svg>
