<svg width="32" height="32" viewBox="0 0 32 32" fill="none" xmlns="http://www.w3.org/2000/svg">
<path d="M2.316 26.947L29.684 5.053C28.973 4.405 28.037 4 27 4H5C2.791 4 1 5.791 1 8V24C1 25.172 1.513 26.216 2.316 26.947Z" fill="#0E2A68"/>
<path d="M29.684 5.05298L2.31598 26.947C3.02698 27.595 3.96298 28 4.99998 28H27C29.209 28 31 26.209 31 24V7.99998C31 6.82798 30.487 5.78398 29.684 5.05298Z" fill="#44994D"/>
<path d="M27 4H25.397L1 23.518V24C1 26.209 2.791 28 5 28H6.603L31 8.482V8C31 5.791 29.209 4 27 4Z" fill="white"/>
<path d="M27 4H26.998L1.07397 24.739C1.42097 26.594 3.04397 28 4.99997 28H5.00197L30.926 7.261C30.579 5.406 28.956 4 27 4Z" fill="#B92831"/>
<path d="M7.34399 12.8149C8.29889 12.8149 9.07299 12.0408 9.07299 11.0859C9.07299 10.131 8.29889 9.35693 7.34399 9.35693C6.38909 9.35693 5.61499 10.131 5.61499 11.0859C5.61499 12.0408 6.38909 12.8149 7.34399 12.8149Z" fill="#F6CE46"/>
<path d="M6.80701 9.08193C6.97801 9.03593 7.15801 9.01093 7.34401 9.01093C7.53001 9.01093 7.71001 9.03593 7.88101 9.08193L7.34401 7.62793L6.80701 9.08193Z" fill="#F6CE46"/>
<path d="M9.34797 11.6231L10.802 11.0861L9.34797 10.5491L10.338 9.35707L8.80997 9.61907L9.07197 8.09106L7.87997 9.08206C8.76497 9.31906 9.41797 10.1281 9.41797 11.0861C9.41797 12.2301 8.48697 13.1611 7.34297 13.1611C6.19897 13.1611 5.26797 12.2301 5.26797 11.0861C5.26797 10.1281 5.92097 9.31906 6.80597 9.08206L5.61397 8.09106L5.87597 9.61907L4.34797 9.35707L5.33797 10.5491L3.88397 11.0861L5.33797 11.6231L4.34797 12.8151L5.87597 12.5531L5.61397 14.0811L6.80597 13.0901L7.34297 14.5441L7.87997 13.0901L9.07197 14.0811L8.80997 12.5531L10.338 12.8151L9.34797 11.6231Z" fill="#F6CE46"/>
</svg>
