<svg width="32" height="32" viewBox="0 0 32 32" fill="none" xmlns="http://www.w3.org/2000/svg">
<path d="M27 4H5C2.79086 4 1 5.79086 1 8V24C1 26.2091 2.79086 28 5 28H27C29.2091 28 31 26.2091 31 24V8C31 5.79086 29.2091 4 27 4Z" fill="#CD312C"/>
<path d="M11 20V28H27C29.209 28 31 26.209 31 24V20H11Z" fill="#377D41"/>
<path d="M27 4H11V12H31V8C31 5.791 29.209 4 27 4Z" fill="white"/>
<path d="M9.22494 12.667C8.64294 12.062 7.44594 11.48 7.00794 10.55C7.00394 10.548 7.00394 10.543 7.00794 10.541C6.96294 10.302 7.10394 10.038 7.28794 9.91398C7.31294 10.296 7.86394 10.024 8.04394 10.005C7.88594 10.414 9.13094 10.145 9.26794 10.218C9.48094 10.238 9.35094 9.68798 9.38494 9.58598C9.37294 9.42398 7.88394 9.32898 8.04394 9.68998C7.85994 9.72598 7.83594 9.50898 7.58394 9.53898C9.31094 6.61298 8.69294 6.46098 7.07194 9.33298L7.11594 9.35298C6.90694 9.67298 7.10094 9.00298 7.01094 8.86898V8.77598C6.89894 8.78198 6.74094 8.71098 6.76294 8.59598H6.75594V8.59398H6.71894V8.41398H6.68294V8.04998H6.64594V7.81998H6.65894C7.06394 7.34198 7.23594 7.40998 6.51094 7.00098C5.80494 7.40098 5.96094 7.32198 6.32894 7.81998H6.34194V8.04998H6.30594V8.41398H6.26994V8.59498H6.23194L6.22494 8.59598C6.25194 8.68098 6.12494 8.78198 5.97694 8.77698V8.94398C5.85294 9.11898 6.04494 9.30198 5.95494 9.48298C5.92094 9.43698 5.89094 9.39398 5.86194 9.35298L5.90594 9.33298C4.30194 6.48898 3.66094 6.59198 5.37694 9.50898C5.12994 9.49698 5.12594 9.70098 4.93494 9.66098C5.06494 9.30198 3.84694 9.45098 3.71094 9.47798C3.51994 9.51598 3.59894 10.006 3.59394 10.11C3.58694 10.272 5.12594 10.383 4.93494 9.97598C5.13294 9.97198 5.50094 10.245 5.68094 9.97798C5.79794 10.022 5.90494 10.116 5.95594 10.24H5.95394L5.94594 10.248C5.95794 10.493 4.74594 10.449 4.64894 10.449C4.65494 10.449 4.52394 10.456 4.52494 10.451C3.52094 10.517 4.97194 11.161 4.97194 11.161C4.97194 11.161 5.36594 11.26 5.41094 11.26C4.21894 12.138 3.76994 13.316 4.88194 12.336C4.88194 12.336 5.64194 11.472 6.14994 11.312C6.21894 11.298 6.72094 11.112 6.74594 11.09C7.21594 11.566 7.69894 11.96 7.92094 12.183C8.14294 12.406 9.98394 13.406 9.22594 12.669L9.22494 12.667Z" fill="white"/>
</svg>
