<svg width="32" height="32" viewBox="0 0 32 32" fill="none" xmlns="http://www.w3.org/2000/svg">
<path d="M27.0002 4H5.00018C2.79104 4 1.00018 5.79086 1.00018 8V24C1.00018 26.2091 2.79104 28 5.00018 28H27.0002C29.2093 28 31.0002 26.2091 31.0002 24V8C31.0002 5.79086 29.2093 4 27.0002 4Z" fill="#0A9DE0"/>
<path d="M5 4H16V16H1V8C1 5.7923 2.7923 4 5 4Z" fill="#001B69"/>
<path d="M6.50018 13.7737V16H10.5002V13.7728L13.5373 16H16.0002V14.7589L12.2383 12H16.0002V8H13.2602L16.0002 5.9907V4H14.5592L10.5002 6.9769V4H6.50018V6.7935L3.24358 4.4043C2.47608 4.7784 1.85408 5.3877 1.45798 6.1422L3.99008 8H1.00018V12H4.76338L1.00018 14.7599V16H3.46438L6.50018 13.7737Z" fill="white"/>
<path d="M1.8057 5.58916L5.0911 8.00006H6.4547L2.3595 4.99536C2.1552 5.17486 1.9699 5.37186 1.8057 5.58916Z" fill="#CA0A2B"/>
<path d="M0.999817 16L6.45442 12V13L2.36352 16H0.999817Z" fill="#CA0A2B"/>
<path d="M9.50018 16H7.50018V11H1.00018V9H7.50018V4H9.50018V9H16.0002V11H9.50018V16Z" fill="#CA0A2B"/>
<path d="M16.0002 15.6667L11.0002 12V13L15.0911 16H16.0002V15.6667Z" fill="#CA0A2B"/>
<path d="M16.0002 4H15.7518L10.2913 8.0044H11.6549L16.0002 4.8179V4Z" fill="#CA0A2B"/>
<path d="M12.5663 24.6861L12.1658 23.4536L11.7654 24.6861H10.4694L11.5179 25.4479L11.1174 26.6804L12.1658 25.9187L13.2143 26.6804L12.8138 25.4479L13.8623 24.6861H12.5663Z" fill="#FEDE02"/>
<path d="M17.4554 18.5354L16.4069 19.2972L15.3584 18.5354L15.7589 19.768L14.7105 20.5297H16.0064L16.4069 21.7622L16.8074 20.5297H18.1033L17.0549 19.768L17.4554 18.5354Z" fill="#FEDE02"/>
<path d="M17.0549 24.0089L17.4554 22.7764L16.4069 23.5381L15.3584 22.7764L15.7589 24.0089L14.7105 24.7707H16.0064L16.4069 26.0032L16.8074 24.7707H18.1033L17.0549 24.0089Z" fill="#FEDE02"/>
<path d="M21.6964 12.7676L20.648 13.5293L19.5995 12.7676L20 14.0001L18.9516 14.7618H20.2475L20.648 15.9944L21.0485 14.7618H22.3444L21.296 14.0001L21.6964 12.7676Z" fill="#FEDE02"/>
<path d="M21.296 22.8214L21.6964 21.5889L20.648 22.3506L19.5995 21.5889L20 22.8214L18.9516 23.5832H20.2475L20.648 24.8157L21.0485 23.5832H22.3444L21.296 22.8214Z" fill="#FEDE02"/>
<path d="M25.2589 11.4104L24.2105 12.1722L23.162 11.4104L23.5625 12.643L22.5141 13.4047H23.81L24.2105 14.6372L24.611 13.4047H25.9069L24.8585 12.643L25.2589 11.4104Z" fill="#FEDE02"/>
<path d="M24.611 19.4271L24.2105 18.1946L23.81 19.4271H22.5141L23.5625 20.1888L23.162 21.4214L24.2105 20.6596L25.2589 21.4214L24.8585 20.1888L25.9069 19.4271H24.611Z" fill="#FEDE02"/>
<path d="M27.125 9.84064L26.7245 11.0732L27.773 10.3114L28.8214 11.0732L28.421 9.84064L29.4694 9.07894H28.1735L27.773 7.84644L27.3725 9.07894H26.0766L27.125 9.84064Z" fill="#FEDE02"/>
<path d="M28.1735 17.2218L27.773 15.9893L27.3725 17.2218H26.0766L27.125 17.9836L26.7245 19.2161L27.773 18.4544L28.8214 19.2161L28.421 17.9836L29.4694 17.2218H28.1735Z" fill="#FEDE02"/>
</svg>
