<svg width="32" height="32" viewBox="0 0 32 32" fill="none" xmlns="http://www.w3.org/2000/svg">
<path d="M27 4H5C2.79086 4 1 5.79086 1 8V24C1 26.2091 2.79086 28 5 28H27C29.2091 28 31 26.2091 31 24V8C31 5.79086 29.2091 4 27 4Z" fill="#071B65"/>
<path d="M5.10102 4H5.00002C3.01902 4 1.38502 5.444 1.06702 7.334L26.899 28H27C28.981 28 30.615 26.556 30.933 24.666L5.10102 4Z" fill="white"/>
<path d="M22.25 19H19.75L29.684 26.947C30.071 26.594 30.388 26.17 30.613 25.69L22.25 19Z" fill="#B92932"/>
<path d="M1.38702 6.30898L9.75002 13H12.25L2.31602 5.05298C1.92902 5.40598 1.61202 5.82898 1.38702 6.30898Z" fill="#B92932"/>
<path d="M5.00002 28H5.10102L30.933 7.334C30.615 5.443 28.981 4 27 4H26.899L1.06702 24.666C1.38502 26.557 3.01902 28 5.00002 28Z" fill="white"/>
<path d="M19 4H13V28H19V4Z" fill="white"/>
<path d="M31 13H1V19H31V13Z" fill="white"/>
<path d="M18 4H14V28H18V4Z" fill="#B92932"/>
<path d="M31 18V14L1 14V18H31Z" fill="#B92932"/>
<path d="M28.222 4.20996L19 11.586V13H19.75L29.693 5.05996C29.274 4.67596 28.775 4.38896 28.222 4.20996Z" fill="#B92932"/>
<path d="M2.328 26.957C2.742 27.331 3.232 27.613 3.775 27.789L13 20.409V19.001H12.25L2.328 26.957Z" fill="#B92932"/>
</svg>
