<svg width="24" height="24" viewBox="0 0 24 24" fill="none" xmlns="http://www.w3.org/2000/svg">
<path d="M16.24 9.51998L20.95 14.23C21.23 14.51 21.72 14.36 21.8 13.97C21.93 13.33 22 12.67 22 12C22 9.70998 21.22 7.59998 19.93 5.91998C19.75 5.67998 19.39 5.66998 19.18 5.87998L16.24 8.81998C16.05 9.00998 16.05 9.32998 16.24 9.51998Z" fill="#292D32"/>
<path d="M14.48 10.58L12.71 12.35C12.51 12.55 12.51 12.86 12.71 13.06L18.53 18.88C18.73 19.08 19.05 19.08 19.24 18.88C19.86 18.23 20.39 17.5 20.82 16.71C20.92 16.52 20.88 16.27 20.73 16.12L15.19 10.58C14.99 10.39 14.67 10.39 14.48 10.58Z" fill="#292D32"/>
<path d="M10.94 14.1201L9.18003 15.8801C8.98003 16.0801 8.98003 16.3901 9.18003 16.5901L14.1 21.5201C14.23 21.6501 14.42 21.7001 14.59 21.6501C15.52 21.4001 16.4 21.0201 17.2 20.5201C17.47 20.3501 17.51 19.9701 17.28 19.7401L11.65 14.1101C11.45 13.9301 11.13 13.9301 10.94 14.1201Z" fill="#292D32"/>
<path d="M18.08 4.06991C16.1 2.53991 13.53 1.73991 10.77 2.06991C6.25997 2.60991 2.60997 6.26991 2.06997 10.7699C1.73997 13.5299 2.53997 16.0899 4.06997 18.0799C4.24997 18.3199 4.60997 18.3299 4.81997 18.1199L18.12 4.81991C18.33 4.60991 18.32 4.24991 18.08 4.06991Z" fill="#292D32"/>
<path d="M7.39998 17.67L5.87998 19.19C5.66998 19.4 5.67998 19.76 5.91998 19.94C7.42998 21.11 9.27998 21.85 11.31 21.99C11.74 22.02 11.95 21.51 11.64 21.2L8.10998 17.67C7.91998 17.47 7.59998 17.47 7.39998 17.67Z" fill="#292D32"/>
</svg>
