<svg width="32" height="32" viewBox="0 0 32 32" fill="none" xmlns="http://www.w3.org/2000/svg"><path d="M10 4H22V28H10V4Z" fill="#c33220"/><path d="M5 4H11V28H5C2.792 28 1 26.208 1 24V8C1 5.792 2.792 4 5 4Z" fill="currentColor"/><path d="M27 28H21L21 4H27C29.208 4 31 5.792 31 8L31 24C31 26.208 29.208 28 27 28Z" fill="#35793c"/><path d="M20.099 15.783C20.099 15.606 20.021 15.427 19.837 15.237C19.946 14.923 19.887 14.68 19.611 14.388C19.508 14.286 19.296 14.068 19.244 13.943L19.315 13.696C19.528 13.676 19.5 13.446 19.293 13.407C19.104 13.359 18.961 13.535 19.131 13.65L18.387 16.236V15.81C18.48 15.755 18.462 15.635 18.399 15.583L18.593 15.291H18.387V14.245C18.439 14.221 18.454 14.162 18.449 14.113C18.536 14.091 18.563 13.999 18.567 13.936C18.653 13.916 18.685 13.848 18.691 13.801C18.822 13.756 18.833 13.678 18.857 13.632H18.21V12.456C18.304 12.403 18.26 12.234 18.162 12.226V12.216C18.355 12.078 18.263 11.855 18.115 11.79C18.132 11.752 18.093 11.713 18.064 11.706C18.061 11.688 18.048 11.665 17.995 11.63C17.925 11.593 17.952 11.413 17.904 11.398C17.857 11.415 17.883 11.593 17.813 11.63C17.76 11.666 17.747 11.688 17.745 11.706C17.715 11.714 17.676 11.752 17.694 11.79C17.546 11.855 17.454 12.078 17.647 12.216C17.647 12.219 17.647 12.223 17.648 12.226C17.538 12.235 17.508 12.425 17.616 12.465V13.632H17.613C17.61 13.609 16.94 13.316 16.928 13.303V13.104C17.454 12.679 17.116 12.024 16.569 11.878C16.385 11.806 16.257 11.658 16.22 11.611C16.292 11.565 16.292 11.486 16.232 11.444C16.459 11.246 16.106 11.068 16.075 10.911C16.077 10.894 16.056 10.881 16.04 10.887C15.997 10.925 16.002 11.017 15.906 11.087C15.804 11.156 15.735 11.352 15.865 11.443C15.806 11.486 15.806 11.564 15.878 11.61C15.841 11.657 15.713 11.804 15.529 11.877C14.982 12.023 14.644 12.679 15.17 13.103V13.302C15.158 13.311 14.496 13.612 14.488 13.626V12.462C14.591 12.417 14.555 12.235 14.45 12.226C14.631 12.068 14.57 11.873 14.404 11.79C14.421 11.752 14.382 11.713 14.353 11.706C14.35 11.688 14.337 11.665 14.284 11.63C14.236 11.598 14.218 11.466 14.216 11.418C14.215 11.407 14.206 11.399 14.195 11.398C14.147 11.409 14.172 11.594 14.102 11.63C14.049 11.666 14.036 11.688 14.034 11.706C14.004 11.714 13.965 11.752 13.983 11.79C13.835 11.855 13.743 12.078 13.936 12.216C13.936 12.219 13.936 12.221 13.937 12.226C13.834 12.234 13.795 12.412 13.895 12.46V13.631C13.717 13.631 13.34 13.631 13.165 13.63C13.165 13.63 13.166 13.735 13.295 13.783C13.295 13.783 13.289 13.89 13.423 13.925C13.423 13.925 13.452 14.083 13.571 14.095V15.257H13.423L13.65 15.559C13.65 15.559 13.534 15.632 13.63 15.762V16.094L12.923 13.631C13.093 13.516 12.95 13.34 12.761 13.388C12.555 13.426 12.527 13.657 12.739 13.677L12.81 13.924C12.549 14.371 11.98 14.618 12.208 15.207C11.363 15.993 12.545 16.41 12.316 17.183C12.6 17 12.831 16.768 12.793 16.455C12.751 16.21 12.775 15.908 12.971 15.735C13.07 15.653 13.18 15.552 13.241 15.426L13.63 16.781V16.872C13.63 16.872 13.512 16.935 13.62 17.033C13.62 17.033 13.521 17.098 13.62 17.194C13.618 17.701 13.668 17.583 13.423 18.035C13.423 18.035 13.246 17.997 13.275 18.158C13.275 18.158 13.097 18.167 13.186 18.319L13.433 18.509H19.054C19.086 18.409 18.977 18.326 18.898 18.325C18.898 18.23 18.808 18.171 18.719 18.184L18.385 17.759V17.331C18.478 17.279 18.474 17.186 18.396 17.143C18.469 17.096 18.438 17.003 18.385 16.973V16.911L18.809 15.443C18.981 15.745 19.281 15.831 19.275 16.24C19.066 16.602 19.334 16.959 19.683 17.168C19.486 16.675 20.101 16.241 20.098 15.783H20.099ZM13.678 18.183L13.935 17.778H14.622L14.904 18.183H13.677H13.678ZM14.965 18.183L14.67 17.759L14.68 15.812C14.779 15.743 14.774 15.623 14.69 15.57L14.901 15.287H14.673V15.279C14.809 15.075 15.255 14.453 16.023 14.436C16.893 14.382 17.375 15.29 17.344 15.287H17.139L17.297 15.541C17.207 15.6 17.245 15.728 17.307 15.758L17.317 17.562L17.061 17.864L17.366 18.183H14.965ZM18.654 18.183H17.383L17.642 17.79H18.345L18.654 18.183Z" fill="#fffffc"/><path d="M10.943 21.739C11.285 21.694 12.146 21.301 12.67 20.809 13.346 20.175 13.924 19.763 14.823 20.16 14.474 20.45 14.1 20.748 13.804 21.115 13.125 21.985 11.884 22.551 10.943 21.739ZM11.585 18.402C11.062 17.795 10.345 17.623 9.663 17.3 8.716 16.89 8.07 16.053 8.166 14.976 8.607 16.474 11.27 15.606 11.585 18.402ZM8.327 17.448C8.497 17.603 9.274 18.363 10.475 18.298 11.147 18.261 11.783 18.543 12.212 19.114 10.515 19.024 8.869 19.623 8.328 17.448H8.327ZM13.478 19.827C12.463 19.845 11.766 20.765 10.752 20.743 10.271 20.726 9.874 20.553 9.525 20.229 9.87 20.55 10.657 20.003 11.121 19.741 11.928 19.285 12.711 19.241 13.479 19.827H13.478ZM8.629 12.951C8.919 13.816 9.383 14.034 9.811 14.206 10.129 14.334 11.05 14.531 11.034 16.443 10.283 14.959 8.025 15.011 8.629 12.951ZM10.943 14.502C10.409 13.895 9.892 13.322 9.394 12.733 9.191 12.504 9.024 12.208 9.142 11.878 9.216 12.034 9.289 12.188 9.362 12.341 9.376 12.338 9.39 12.336 9.404 12.333 9.305 11.886 9.289 11.453 9.608 11.067 9.638 11.473 9.667 11.869 9.696 12.266 9.712 12.268 9.727 12.27 9.743 12.272 9.778 12.121 10.056 11.513 10.209 11.511 10.338 11.714 9.665 12.456 10.02 12.447 10.113 12.225 10.17 11.979 10.385 11.787 10.466 12.113 10.225 12.281 10.106 12.514 10.135 12.538 10.169 12.567 10.206 12.599 10.329 12.49 10.325 12.271 10.524 12.251 10.649 12.477 10.213 12.693 10.497 12.86 10.549 12.762 10.602 12.663 10.659 12.556 10.779 12.614 10.802 12.684 10.729 12.784 10.467 13.123 11.067 13.282 10.944 14.503L10.943 14.502Z" fill="#fff"/><path d="M11.67 12.042C11.442 12.608 11.218 13.165 10.994 13.722 11.001 13.729 11.008 13.736 11.014 13.743 10.985 13.546 10.934 13.349 10.914 13.151 10.889 12.593 10.627 12.106 10.464 11.589 10.303 11.022 10.114 10.407 10.594 9.923 10.575 10.278 10.558 10.603 10.54 10.93 10.902 10.443 11.231 10.199 11.799 9.973 11.725 10.238 11.638 10.345 11.435 10.424 11.031 10.603 10.634 10.965 10.655 11.436 10.934 11.056 11.202 10.681 11.668 10.496 11.534 10.94 11.172 11.227 10.841 11.518 10.734 11.603 10.736 11.672 10.826 11.783 11.18 11.487 11.535 11.191 11.889 10.894 11.901 10.904 11.912 10.915 11.924 10.925 11.765 11.402 11.243 11.622 10.88 11.939 10.905 11.986 10.929 12.029 10.962 12.091 11.294 11.814 11.614 11.547 11.933 11.281 11.949 11.293 11.964 11.304 11.98 11.316 11.789 11.705 11.412 11.94 11.095 12.219 10.926 12.352 11.117 12.611 11.128 12.822 11.268 12.512 11.39 12.215 11.67 12.043V12.042ZM17.774 9.42C17.504 9.659 17.083 9.717 16.652 9.537 16.522 9.851 16.26 9.924 15.942 9.898 16.114 9.781 16.286 9.665 16.457 9.548 16.113 9.467 15.771 9.589 15.468 9.407 15.102 9.79 14.895 9.833 14.544 9.596 14.37 9.86 14.198 10.138 13.804 9.978 13.55 10.461 13.145 10.53 12.836 10.145 12.705 10.316 12.571 10.598 12.307 10.502 12.063 10.379 12.18 10.119 12.154 9.874 12.242 10.033 12.208 10.246 12.425 10.238 12.632 10.23 12.743 10.091 12.793 9.935 13.047 10.046 13.302 10.221 13.571 10.043 13.659 9.999 13.693 9.915 13.657 9.802 13.559 9.495 13.487 9.182 13.535 8.847 13.674 9.121 13.671 9.987 14.12 9.787 14.301 9.718 14.43 9.591 14.508 9.391 14.365 9.442 14.236 9.489 14.107 9.535 14.1 9.522 14.093 9.509 14.086 9.496 14.237 9.394 14.389 9.292 14.538 9.191 14.639 9.464 14.943 9.571 15.23 9.426 15.451 9.322 15.257 9.009 15.283 8.814 15.298 8.811 15.313 8.807 15.328 8.804 15.418 9.027 15.501 9.244 15.783 9.239 16.03 9.245 16.278 9.24 16.547 9.24 16.519 9.029 16.489 8.81 16.46 8.591 16.48 8.587 16.5 8.583 16.52 8.579 16.613 8.82 16.586 9.168 16.792 9.34 17.074 9.453 17.356 9.446 17.662 9.294 17.52 9.223 17.421 9.205 17.387 9.052 17.666 8.875 18.018 9.355 18.109 9.592 18.044 9.615 17.932 9.557 17.773 9.419L17.774 9.42Z" fill="#fff"/><path d="M18.347 8.687C18.447 8.995 18.465 9.311 18.412 9.63 18.403 10.06 17.248 10.361 17.324 9.707 17.586 9.912 17.862 9.881 18.143 9.75 18.453 9.615 18.193 8.988 18.278 8.698 18.301 8.694 18.324 8.691 18.347 8.687ZM19.601 10.278C19.355 10.484 19.186 10.435 19.045 10.128 18.832 10.479 18.233 10.512 18.332 9.98 18.617 10.232 18.793 10.208 19.113 9.866 19.061 10.264 19.394 10.19 19.601 10.278ZM21.057 21.739C20.715 21.694 19.854 21.301 19.33 20.809 18.654 20.175 18.076 19.763 17.177 20.16 17.526 20.45 17.9 20.748 18.196 21.115 18.875 21.985 20.116 22.551 21.057 21.739ZM20.415 18.402C20.938 17.795 21.655 17.623 22.337 17.3 23.284 16.89 23.93 16.053 23.834 14.976 23.393 16.474 20.73 15.606 20.415 18.402ZM23.673 17.448C23.503 17.603 22.726 18.363 21.525 18.298 20.853 18.261 20.217 18.543 19.788 19.114 21.485 19.024 23.132 19.623 23.673 17.448ZM18.522 19.827C19.537 19.845 20.234 20.765 21.248 20.743 21.729 20.726 22.126 20.553 22.475 20.229 22.13 20.55 21.343 20.003 20.879 19.741 20.072 19.285 19.29 19.241 18.522 19.827ZM23.371 12.951C23.081 13.816 22.617 14.034 22.189 14.206 21.871 14.334 20.95 14.531 20.966 16.443 21.717 14.959 23.975 15.011 23.371 12.951ZM21.057 14.502C21.591 13.895 22.108 13.322 22.606 12.733 22.809 12.504 22.976 12.208 22.858 11.878 22.784 12.034 22.711 12.188 22.638 12.341 22.624 12.338 22.61 12.336 22.596 12.333 22.695 11.886 22.711 11.453 22.392 11.067 22.362 11.473 22.333 11.869 22.304 12.266 22.288 12.268 22.273 12.27 22.257 12.272 22.222 12.121 21.944 11.513 21.791 11.511 21.662 11.714 22.335 12.456 21.98 12.447 21.887 12.225 21.83 11.979 21.615 11.787 21.534 12.113 21.775 12.281 21.894 12.514 21.865 12.538 21.831 12.567 21.794 12.599 21.671 12.49 21.675 12.271 21.476 12.251 21.351 12.477 21.787 12.693 21.503 12.86 21.451 12.762 21.398 12.663 21.341 12.556 21.221 12.614 21.198 12.684 21.271 12.784 21.533 13.123 20.933 13.282 21.056 14.503L21.057 14.502Z" fill="#fff"/><path d="M20.33 12.042C20.558 12.608 20.782 13.165 21.006 13.722 20.999 13.729 20.992 13.736 20.986 13.743 21.015 13.546 21.066 13.349 21.086 13.151 21.111 12.593 21.373 12.106 21.536 11.589 21.697 11.022 21.886 10.407 21.406 9.923 21.425 10.278 21.442 10.603 21.46 10.93 21.098 10.443 20.769 10.199 20.201 9.973 20.275 10.238 20.362 10.345 20.565 10.424 20.969 10.603 21.366 10.965 21.345 11.436 21.066 11.056 20.798 10.681 20.332 10.496 20.466 10.94 20.828 11.227 21.159 11.518 21.266 11.603 21.264 11.672 21.174 11.783 20.82 11.487 20.465 11.191 20.111 10.894 20.099 10.904 20.088 10.915 20.076 10.925 20.235 11.402 20.757 11.622 21.12 11.939 21.095 11.986 21.071 12.029 21.038 12.091 20.706 11.814 20.386 11.547 20.067 11.281 20.051 11.293 20.036 11.304 20.02 11.316 20.211 11.705 20.588 11.94 20.905 12.219 21.074 12.352 20.883 12.611 20.872 12.822 20.732 12.512 20.61 12.215 20.33 12.043V12.042ZM19.016 22.928C18.72 22.845 18.437 22.766 18.154 22.687 18.156 22.675 18.158 22.663 18.161 22.651 18.32 22.581 18.48 22.512 18.639 22.442L18.634 22.447C18.753 22.362 18.871 22.278 19.008 22.18 18.79 22.044 18.599 21.904 18.388 21.805 18.322 21.774 18.204 21.853 18.125 21.877 17.518 21.476 17.45 20.7 16.935 20.239 16.919 20.243 16.903 20.247 16.887 20.252 16.941 20.662 17.196 21.002 17.349 21.397 17.274 21.409 17.208 21.42 17.144 21.43 16.949 21.049 16.893 20.615 16.636 20.275 16.612 20.278 16.589 20.282 16.565 20.285 16.555 20.699 16.821 21.061 16.939 21.462 16.869 21.472 16.798 21.483 16.728 21.493 16.569 21.087 16.509 20.651 16.225 20.316 16.204 20.319 16.182 20.321 16.161 20.324 16.157 20.757 16.418 21.097 16.56 21.531H15.443C15.585 21.097 15.847 20.757 15.842 20.324 15.821 20.321 15.799 20.319 15.778 20.316 15.494 20.651 15.434 21.086 15.275 21.493 15.205 21.483 15.134 21.472 15.064 21.462 15.182 21.061 15.448 20.699 15.438 20.285 15.414 20.282 15.391 20.278 15.367 20.275 15.11 20.615 15.054 21.049 14.859 21.43 14.794 21.419 14.729 21.409 14.654 21.397 14.807 21.002 15.062 20.662 15.116 20.252 15.1 20.248 15.084 20.244 15.068 20.239 14.553 20.7 14.485 21.476 13.878 21.877 13.799 21.853 13.681 21.774 13.615 21.805 13.404 21.904 13.212 22.044 12.995 22.18 13.132 22.278 13.251 22.363 13.369 22.447L13.364 22.442C13.523 22.512 13.683 22.581 13.842 22.651 13.844 22.663 13.846 22.675 13.849 22.687 13.566 22.766 13.283 22.845 12.987 22.928 14.035 23.501 14.46 22.697 15.149 22.989 14.886 23.112 14.638 23.229 14.348 23.365 15.448 23.602 15.659 23.022 16.002 23.03 16.345 23.022 16.556 23.602 17.656 23.365 17.366 23.229 17.118 23.112 16.855 22.989 17.544 22.698 17.969 23.501 19.016 22.928Z" fill="#fff"/></svg>