<svg width="32" height="32" viewBox="0 0 32 32" fill="none" xmlns="http://www.w3.org/2000/svg"><path d="M1 11H31V21H1V11Z" fill="#fff"/><path d="M5 4H27C29.208 4 31 5.792 31 8V12H1V8C1 5.792 2.792 4 5 4ZM27 28 5 28C2.792 28 1 26.208 1 24V20L31 20V24C31 26.208 29.208 28 27 28ZM15.429 15.299 14.267 13.992C14.267 13.992 14.083 16.393 14.441 16.974L15.429 15.299Z" fill="#1c44a6"/><path d="M15.129 16.228 13.599 15.231C13.599 15.231 13.473 17.032 14.141 17.303L15.129 16.228ZM16.571 15.299 17.733 13.992C17.733 13.992 17.917 16.393 17.559 16.974L16.571 15.299Z" fill="#1c44a6"/><path d="M16.871 16.228L18.401 15.231C18.401 15.231 18.527 17.032 17.859 17.303L16.871 16.228Z" fill="#1c44a6"/><path d="M16 19.541C14.047 19.541 12.459 17.953 12.459 16C12.459 14.047 14.047 12.459 16 12.459C17.953 12.459 19.541 14.047 19.541 16C19.541 17.953 17.953 19.541 16 19.541ZM16 12.978C14.333 12.978 12.978 14.334 12.978 16C12.978 17.666 14.334 19.022 16 19.022C17.666 19.022 19.022 17.666 19.022 16C19.022 14.334 17.666 12.978 16 12.978Z" fill="#f7cf46"/><path d="M16 13.8059L13.911 17.4239H18.089L16 13.8059Z" fill="#fff"/><path d="M18.538 17.6841H13.463L16.001 13.2891L18.538 17.6841ZM14.36 17.1651H17.64L16 14.3251L14.36 17.1651Z" fill="#f7cf46"/></svg>