<svg width="32" height="32" viewBox="0 0 32 32" fill="none" xmlns="http://www.w3.org/2000/svg"><path d="M27 4H5C2.79086 4 1 5.79086 1 8V24C1 26.2091 2.79086 28 5 28H27C29.2091 28 31 26.2091 31 24V8C31 5.79086 29.2091 4 27 4Z" fill="#fff"/><path d="M31 14H18V4H14V14H1V18H14V28H18V18H31V14Z" fill="#ea3323"/><path d="M10 8.141C9.381 8.265 8.754 8.343 8.126 8.374 8.157 7.746 8.235 7.12 8.359 6.5 7.789 6.575 7.211 6.575 6.641 6.5 6.765 7.119 6.843 7.746 6.874 8.374 6.246 8.343 5.62 8.265 5 8.141 5.075 8.711 5.075 9.289 5 9.859 5.619 9.735 6.246 9.657 6.874 9.626 6.843 10.254 6.765 10.88 6.641 11.5 7.211 11.425 7.789 11.425 8.359 11.5 8.235 10.881 8.157 10.254 8.126 9.626 8.754 9.657 9.38 9.735 10 9.859 9.925 9.289 9.925 8.711 10 8.141ZM22 8.141C22.619 8.265 23.246 8.343 23.874 8.374 23.843 7.746 23.765 7.12 23.641 6.5 24.211 6.575 24.789 6.575 25.359 6.5 25.235 7.119 25.157 7.746 25.126 8.374 25.754 8.343 26.38 8.265 27 8.141 26.925 8.711 26.925 9.289 27 9.859 26.381 9.735 25.754 9.657 25.126 9.626 25.157 10.254 25.235 10.88 25.359 11.5 24.789 11.425 24.211 11.425 23.641 11.5 23.765 10.881 23.843 10.254 23.874 9.626 23.246 9.657 22.62 9.735 22 9.859 22.075 9.289 22.075 8.711 22 8.141ZM10 23.859C9.381 23.735 8.754 23.657 8.126 23.626 8.157 24.254 8.235 24.88 8.359 25.5 7.789 25.425 7.211 25.425 6.641 25.5 6.765 24.881 6.843 24.254 6.874 23.626 6.246 23.657 5.62 23.735 5 23.859 5.075 23.289 5.075 22.711 5 22.141 5.619 22.265 6.246 22.343 6.874 22.374 6.843 21.746 6.765 21.12 6.641 20.5 7.211 20.575 7.789 20.575 8.359 20.5 8.235 21.119 8.157 21.746 8.126 22.374 8.754 22.343 9.38 22.265 10 22.141 9.925 22.711 9.925 23.289 10 23.859ZM22 23.859C22.619 23.735 23.246 23.657 23.874 23.626 23.843 24.254 23.765 24.88 23.641 25.5 24.211 25.425 24.789 25.425 25.359 25.5 25.235 24.881 25.157 24.254 25.126 23.626 25.754 23.657 26.38 23.735 27 23.859 26.925 23.289 26.925 22.711 27 22.141 26.381 22.265 25.754 22.343 25.126 22.374 25.157 21.746 25.235 21.12 25.359 20.5 24.789 20.575 24.211 20.575 23.641 20.5 23.765 21.119 23.843 21.746 23.874 22.374 23.246 22.343 22.62 22.265 22 22.141 22.075 22.711 22.075 23.289 22 23.859Z" fill="#ea3323"/></svg>