<svg width="32" height="32" viewBox="0 0 32 32" fill="none" xmlns="http://www.w3.org/2000/svg"><path d="M27 4H5C2.79086 4 1 5.79086 1 8V24C1 26.2091 2.79086 28 5 28H27C29.2091 28 31 26.2091 31 24V8C31 5.79086 29.2091 4 27 4Z" fill="#fff"/><path d="M1.244 6.67H30.756C30.206 5.118 28.74 4 27 4H5C3.26 4 1.794 5.118 1.244 6.67ZM1 9.34H31V12.01H1V9.34ZM1 14.68H31V17.35H1V14.68ZM1 20.02H31V22.69H1V20.02ZM1.253 25.36C1.811 26.896 3.271 28 5 28H27C28.729 28 30.188 26.896 30.747 25.36H1.253Z" fill="#295cab"/><path d="M14.35 4H5C2.791 4 1 5.791 1 8V17.35H14.35V4Z" fill="#295cab"/><path d="M1 9.34009H14.35V12.0101H1V9.34009Z" fill="#fff"/><path d="M9.01001 4V17.35H6.34001L6.34001 4H9.01001Z" fill="#fff"/></svg>