<svg width="32" height="32" viewBox="0 0 32 32" fill="none" xmlns="http://www.w3.org/2000/svg"><path d="M1 24C1 26.209 2.791 28 5 28H27C29.209 28 31 26.209 31 24V15H1V24Z" fill="#c22b38"/><path d="M27 4H5C2.791 4 1 5.791 1 8V16H31V8C31 5.791 29.209 4 27 4Z" fill="#061a9a"/><path d="M12 13H20V19H12V13Z" fill="#fff"/><path d="M16.064 14.888C16.7195 14.888 17.251 14.5844 17.251 14.21C17.251 13.8355 16.7195 13.532 16.064 13.532C15.4084 13.532 14.877 13.8355 14.877 14.21C14.877 14.5844 15.4084 14.888 16.064 14.888Z" fill="#2d6920"/><path d="M15.979 14.0691H16.148L16.233 17.3781H15.894L15.979 14.0691Z" fill="#e8b942"/><path d="M16.064 16.881 14.693 15.242C14.693 15.242 14.523 15.722 14.538 15.934L14.171 15.567C14.171 15.567 14.1 16.175 14.171 16.415L13.874 16.161C13.874 16.161 13.888 17.291 14.185 17.8L16.064 17.379V16.881ZM16.064 16.881 17.435 15.242C17.435 15.242 17.605 15.722 17.59 15.934L17.957 15.567C17.957 15.567 18.028 16.175 17.957 16.415L18.254 16.161C18.254 16.161 18.24 17.291 17.943 17.8L16.064 17.379V16.881Z" fill="#112e88"/><path d="M12 18.562C12.505 18.52 14.314 17.177 16.073 17.177C17.832 17.177 19.462 18.562 20 18.562V19H12V18.562Z" fill="#2d6920"/></svg>