<svg width="32" height="32" viewBox="0 0 32 32" fill="none" xmlns="http://www.w3.org/2000/svg"><path d="M27 4H5C2.79086 4 1 5.79086 1 8V24C1 26.2091 2.79086 28 5 28H27C29.2091 28 31 26.2091 31 24V8C31 5.79086 29.2091 4 27 4Z" fill="#fff"/><path d="M1.456 6.182H30.544C29.88 4.892 28.551 4 27 4H5C3.449 4 2.12 4.892 1.456 6.182ZM1 8.364H31V10.546H1V8.364ZM1 12.727H31V14.909H1V12.727ZM1 17.091H31V19.273H1V17.091ZM1 21.454H31V23.636H1V21.454ZM30.544 25.818H1.456C2.12 27.108 3.449 28 5 28H27C28.551 28 29.88 27.108 30.544 25.818Z" fill="#b12532"/><path d="M5 4H11.909V14.909H1V8C1 5.792 2.792 4 5 4Z" fill="#0b2364"/><path d="M7.45506 10.0431L9.07406 8.86711H7.07306L6.45506 6.96411L5.83606 8.86711H3.83606L5.45406 10.0431L4.83606 11.9451L6.45506 10.7691L8.07306 11.9451L7.45506 10.0431Z" fill="#fff"/></svg>