<svg width="32" height="32" viewBox="0 0 32 32" fill="none" xmlns="http://www.w3.org/2000/svg"><path d="M10 4H22V28H10V4Z" fill="#2b65ae"/><path d="M5 4H11V28H5C2.792 28 1 26.208 1 24V8C1 5.792 2.792 4 5 4ZM27 28H21L21 4H27C29.208 4 31 5.792 31 8L31 24C31 26.208 29.208 28 27 28Z" fill="#c93336"/><path d="M6 13.184C6.844 13.184 7.528 12.5 7.528 11.656 7.528 10.812 6.844 10.128 6 10.128 5.156 10.128 4.472 10.812 4.472 11.656 4.472 12.5 5.156 13.184 6 13.184ZM3 13.455H4.364V20H3V13.455ZM7.636 13.455H9V20H7.636V13.455ZM4.636 13.455H7.364L6 14.273 4.636 13.455ZM4.636 14.545H7.363V15.09H4.636V14.545ZM4.636 18.364H7.363V18.909H4.636V18.364ZM4.636 19.182H7.364L6 20 4.636 19.182ZM6 18.091C6.753 18.091 7.364 17.48 7.364 16.727 7.364 15.974 6.753 15.363 6 15.363 5.247 15.363 4.636 15.974 4.636 16.727 4.636 17.48 5.247 18.091 6 18.091Z" fill="#f7d448"/></svg>