<svg width="32" height="32" viewBox="0 0 32 32" fill="none" xmlns="http://www.w3.org/2000/svg"><path d="M27 4H5C2.79086 4 1 5.79086 1 8V24C1 26.2091 2.79086 28 5 28H27C29.2091 28 31 26.2091 31 24V8C31 5.79086 29.2091 4 27 4Z" fill="#fff"/><path d="M6.572 12.438 9.086 8.666 9.714 9.085 7.2 12.857 6.572 12.438ZM7.515 13.067 10.029 9.295 10.657 9.714 8.143 13.486 7.515 13.067ZM8.456 13.695 10.97 9.924 11.598 10.342 9.084 14.114 8.456 13.695ZM23.648 20.871 24.8 19.143 25.428 19.562 24.276 21.29 23.648 20.871ZM22.285 22.915 23.438 21.186 24.066 21.605 22.913 23.334 22.285 22.915ZM22.704 20.243 23.856 18.515 24.484 18.934 23.332 20.662 22.704 20.243ZM21.342 22.286 22.494 20.558 23.123 20.977 21.971 22.705 21.342 22.286ZM21.762 19.615 22.914 17.887 23.543 18.305 22.39 20.034 21.762 19.615ZM20.401 21.657 21.553 19.928 22.181 20.347 21.029 22.075 20.401 21.657Z" fill="currentColor"/><path d="M12.229 13.486C13.618 11.403 16.432 10.84 18.515 12.229C20.598 13.618 21.161 16.432 19.772 18.515L12.229 13.486Z" fill="#be3b3e"/><path d="M12.229 13.4861C10.84 15.5691 11.403 18.3831 13.486 19.7721C15.569 21.1611 18.383 20.5981 19.772 18.5151C20.466 17.4741 20.185 16.0661 19.143 15.3721C18.101 14.6781 16.694 14.9591 16 16.0011L12.229 13.4871V13.4861Z" fill="#1c449c"/><path d="M14.114 17.0091C15.3655 17.0091 16.38 15.9945 16.38 14.7431C16.38 13.4916 15.3655 12.4771 14.114 12.4771C12.8625 12.4771 11.848 13.4916 11.848 14.7431C11.848 15.9945 12.8625 17.0091 14.114 17.0091Z" fill="#be3b3e"/><path d="M6.572 19.562 7.2 19.144 9.714 22.915 9.086 23.334 6.572 19.562ZM8.458 18.306 9.086 17.887 11.601 21.659 10.973 22.077 8.458 18.306ZM21.344 9.714 21.972 9.296 24.486 13.067 23.858 13.486 21.344 9.714ZM7.514 18.933 8.142 18.514 9.294 20.243 8.666 20.661 7.514 18.933ZM8.876 20.976 9.504 20.558 10.656 22.286 10.028 22.705 8.876 20.976ZM20.4 10.343 21.028 9.924 22.18 11.652 21.552 12.071 20.4 10.343ZM21.763 12.386 22.391 11.967 23.543 13.695 22.915 14.114 21.763 12.386ZM22.285 9.086 22.913 8.667 24.066 10.396 23.437 10.814 22.285 9.086ZM23.648 11.13 24.276 10.711 25.428 12.439 24.8 12.858 23.648 11.13Z" fill="currentColor"/></svg>