<svg width="32" height="32" viewBox="0 0 32 32" fill="none" xmlns="http://www.w3.org/2000/svg"><path d="M27 4H5C2.79086 4 1 5.79086 1 8V24C1 26.2091 2.79086 28 5 28H27C29.2091 28 31 26.2091 31 24V8C31 5.79086 29.2091 4 27 4Z" fill="#3a8343"/><path d="M6 4H11V28H6V4Z" fill="#c23635"/><path d="M19.138 7.458C20.078 8.26 20.653 9.471 20.595 10.801 20.495 13.091 18.556 14.868 16.266 14.768 15.75 14.745 15.26 14.629 14.812 14.437 15.537 15.054 16.476 15.427 17.502 15.427 19.795 15.427 21.654 13.568 21.654 11.275 21.654 9.563 20.618 8.093 19.138 7.458ZM15.178 10.51 15.358 9.957H15.939L15.469 9.615 15.649 9.062 15.178 9.404 14.708 9.062 14.888 9.615 14.417 9.957H14.999L15.178 10.51ZM14.999 7.822 15.178 8.375 15.358 7.822H15.939L15.469 7.48 15.649 6.927 15.178 7.269 14.708 6.927 14.888 7.48 14.417 7.822H14.999ZM17.109 8.916 17.288 9.469 17.468 8.916H18.049L17.579 8.574 17.759 8.021 17.288 8.363 16.818 8.021 16.997 8.574 16.527 8.916H17.109ZM13.359 10.657 13.539 10.104 13.069 10.445 12.598 10.104 12.778 10.657 12.307 10.998H12.889L13.069 11.551 13.248 10.998H13.83L13.359 10.657ZM15.178 12.646 15.358 12.093H15.939L15.469 11.751 15.649 11.198 15.178 11.54 14.708 11.198 14.888 11.751 14.417 12.093H14.999L15.178 12.646Z" fill="#fff"/></svg>