<svg width="32" height="32" viewBox="0 0 32 32" fill="none" xmlns="http://www.w3.org/2000/svg"><path d="M27 4H5C2.79086 4 1 5.79086 1 8V24C1 26.2091 2.79086 28 5 28H27C29.2091 28 31 26.2091 31 24V8C31 5.79086 29.2091 4 27 4Z" fill="#fff"/><path d="M1.638 5.846H30.362C29.651 4.738 28.415 4 27 4H5C3.586 4 2.35 4.738 1.638 5.846ZM2.03 7.692C2.022 7.795 2 7.894 2 8V9.539H31V8C31 7.895 30.978 7.796 30.97 7.692H2.03ZM2 11.385H31V13.231H2V11.385ZM2 15.077H31V16.923H2V15.077ZM1 18.769H31V20.615H1V18.769ZM1 24C1 24.105 1.023 24.204 1.031 24.308H30.969C30.977 24.205 31 24.106 31 24V22.461H1V24ZM30.362 26.154H1.638C2.349 27.262 3.585 28 5 28H27C28.414 28 29.65 27.262 30.362 26.154Z" fill="#a62842"/><path d="M5 4H16V16.923H1V8C1 5.792 2.792 4 5 4Z" fill="#102d5e"/><path d="M4.601 7.463 5.193 7.033H4.462L4.236 6.338 4.01 7.033H3.279L3.87 7.463 3.644 8.158 4.236 7.729 4.827 8.158 4.601 7.463ZM7.58 7.463 8.172 7.033H7.441L7.215 6.338 6.989 7.033H6.258L6.849 7.463 6.623 8.158 7.215 7.729 7.806 8.158 7.58 7.463ZM10.56 7.463 11.151 7.033H10.42L10.194 6.338 9.968 7.033H9.237L9.828 7.463 9.603 8.158 10.194 7.729 10.785 8.158 10.56 7.463ZM6.066 9.283 6.658 8.854H5.927L5.701 8.158 5.475 8.854H4.744L5.335 9.283 5.109 9.979 5.701 9.549 6.292 9.979 6.066 9.283ZM9.046 9.283 9.637 8.854H8.906L8.68 8.158 8.454 8.854H7.723L8.314 9.283 8.089 9.979 8.68 9.549 9.271 9.979 9.046 9.283ZM12.025 9.283 12.616 8.854H11.885L11.659 8.158 11.433 8.854H10.702L11.294 9.283 11.068 9.979 11.659 9.549 12.251 9.979 12.025 9.283ZM6.066 12.924 6.658 12.494H5.927L5.701 11.799 5.475 12.494H4.744L5.335 12.924 5.109 13.619 5.701 13.19 6.292 13.619 6.066 12.924ZM9.046 12.924 9.637 12.494H8.906L8.68 11.799 8.454 12.494H7.723L8.314 12.924 8.089 13.619 8.68 13.19 9.271 13.619 9.046 12.924ZM12.025 12.924 12.616 12.494H11.885L11.659 11.799 11.433 12.494H10.702L11.294 12.924 11.068 13.619 11.659 13.19 12.251 13.619 12.025 12.924ZM13.539 7.463 14.13 7.033H13.399L13.173 6.338 12.947 7.033H12.216L12.808 7.463 12.582 8.158 13.173 7.729 13.765 8.158 13.539 7.463ZM4.601 11.104 5.193 10.674H4.462L4.236 9.979 4.01 10.674H3.279L3.87 11.104 3.644 11.799 4.236 11.369 4.827 11.799 4.601 11.104ZM7.58 11.104 8.172 10.674H7.441L7.215 9.979 6.989 10.674H6.258L6.849 11.104 6.623 11.799 7.215 11.369 7.806 11.799 7.58 11.104ZM10.56 11.104 11.151 10.674H10.42L10.194 9.979 9.968 10.674H9.237L9.828 11.104 9.603 11.799 10.194 11.369 10.785 11.799 10.56 11.104ZM13.539 11.104 14.13 10.674H13.399L13.173 9.979 12.947 10.674H12.216L12.808 11.104 12.582 11.799 13.173 11.369 13.765 11.799 13.539 11.104ZM4.601 14.744 5.193 14.315H4.462L4.236 13.619 4.01 14.315H3.279L3.87 14.744 3.644 15.44 4.236 15.01 4.827 15.44 4.601 14.744ZM7.58 14.744 8.172 14.315H7.441L7.215 13.619 6.989 14.315H6.258L6.849 14.744 6.623 15.44 7.215 15.01 7.806 15.44 7.58 14.744ZM10.56 14.744 11.151 14.315H10.42L10.194 13.619 9.968 14.315H9.237L9.828 14.744 9.603 15.44 10.194 15.01 10.785 15.44 10.56 14.744ZM13.539 14.744 14.13 14.315H13.399L13.173 13.619 12.947 14.315H12.216L12.808 14.744 12.582 15.44 13.173 15.01 13.765 15.44 13.539 14.744Z" fill="#fff"/></svg>