<svg width="500" height="500" viewBox="0 0 500 500" fill="none" xmlns="http://www.w3.org/2000/svg">
<path fill-rule="evenodd" clip-rule="evenodd" d="M475.14 208.995C432.71 250.314 375.349 269.203 298.404 267.259C281.529 266.842 274.932 266.147 247.363 261.981C163.474 249.272 96.807 251.077 45.6265 267.466C35.2793 270.8 35.7651 271.009 40.8346 265.175C57.0151 246.634 61.8766 237.675 57.2239 234.897C53.1266 232.397 52.2932 233.022 39.0293 249.134C30.2098 259.897 11.7379 278.37 8.40456 279.759C3.96013 281.634 8.54331 290.384 15.5572 288.37C28.4044 284.689 59.8625 289.202 75.3487 296.98C81.0431 299.827 83.8209 300.522 85.0014 299.342C88.8209 295.522 68.2653 285.8 48.6125 282.05C43.9597 281.147 40.3486 280.244 40.6264 279.966C42.6403 278.022 76.5292 268.786 91.1125 266.147C128.126 259.481 196.043 261.286 257.085 270.591C352.918 285.244 432.363 267.12 482.432 219.134C494.168 207.884 495.696 204.619 490.557 201.563C486.182 198.786 485.071 199.342 475.14 208.995Z" fill="black"/>
</svg>
