<svg width="500" height="500" viewBox="0 0 500 500" fill="none" xmlns="http://www.w3.org/2000/svg">
<path fill-rule="evenodd" clip-rule="evenodd" d="M82.3158 28.1583C37.8873 40.1583 16.03 71.8726 15.7443 124.587C15.4586 159.015 16.6013 160.301 47.0298 162.444C81.3156 164.73 86.0304 162.015 82.6018 141.73C75.3161 98.0154 93.0304 81.5871 123.316 104.159C177.03 144.158 342.173 350.301 386.459 405.444C380.887 411.73 373.03 421.015 366.316 427.444C354.173 439.158 354.03 439.015 416.03 459.872C464.887 476.301 468.459 477.015 475.744 472.587C486.173 466.301 486.601 457.301 479.744 393.158C476.744 365.444 476.173 339.587 474.887 339.444C474.459 339.444 472.887 339.158 471.601 338.872C467.601 338.015 455.887 344.587 447.316 352.301L439.173 359.587C288.316 170.872 292.601 191.587 216.744 105.301C159.744 40.1583 120.602 17.7297 82.3158 28.1583ZM108.458 44.4446C128.03 51.5874 166.887 74.1586 198.316 109.873C198.459 110.016 407.459 338.301 422.459 371.158C430.316 388.158 438.316 379.301 452.601 366.73C452.601 366.73 459.459 443.587 460.03 447.444C460.744 453.444 460.601 454.301 458.744 453.587C457.459 453.158 384.887 429.301 384.887 429.301L393.03 420.015C397.459 414.872 403.03 409.872 405.173 408.73C417.601 402.301 409.316 405.015 359.459 341.301C323.744 295.587 186.316 126.015 139.602 90.3011C97.6017 58.0154 55.4586 85.5868 57.8871 135.301L58.4584 148.158L49.7447 147.444C36.7447 146.301 37.4588 147.301 37.4588 131.444C37.7446 61.3016 64.4584 28.4446 108.458 44.4446Z" fill="black"/>
</svg>
