<svg width="500" height="500" viewBox="0 0 500 500" fill="none" xmlns="http://www.w3.org/2000/svg">
<path fill-rule="evenodd" clip-rule="evenodd" d="M486.003 146.45C479.574 103.307 473.717 59.5926 473.574 51.4497C473.003 30.164 453.717 35.307 414.717 43.7356C392.003 48.5927 356.431 53.4496 349.717 52.7353C339.146 51.4496 336.003 59.7356 345.431 63.7356C353.717 67.1642 373.431 91.3069 373.574 91.4497C373.431 91.5926 262.289 239.736 232.574 292.022C226.431 302.879 226.431 302.877 224.289 292.449C221.003 276.592 209.574 236.307 202.86 215.45C194.289 189.022 185.003 195.164 166.003 215.879C153.003 230.164 51.0025 336.879 17.5739 383.45C11.431 392.022 11.2884 403.593 17.1456 412.307C20.4313 417.307 24.1453 423.022 28.2882 430.164C51.2882 470.307 59.717 472.307 80.0027 442.736C124.288 378.164 117.86 388.45 146.431 351.164C156.146 338.45 159.003 335.593 159.717 337.593C160.289 339.022 164.289 351.736 168.86 365.879C188.431 427.45 195.003 441.736 204.289 443.307C214.717 445.022 219.431 440.45 244.003 403.736C262.717 375.736 259.144 385.879 305.859 313.736C317.716 295.45 403.146 184.593 427.574 141.593C432.86 132.45 432.574 132.592 434.431 135.306C436.717 138.449 442.431 139.449 456.574 150.306C480.717 168.734 489.146 167.593 486.003 146.45ZM66.003 365.45C65.7173 368.593 60.431 425.307 56.8596 432.022C56.1453 433.307 54.2882 431.307 51.1453 425.593C48.5739 421.022 44.0022 413.593 40.8593 409.164C33.7165 398.736 33.4316 400.306 47.4316 381.734C67.5745 355.449 67.1459 355.879 66.003 365.45ZM99.5745 350.736L97.7162 378.45C97.7162 378.45 84.5736 396.879 80.145 403.307C70.2879 417.736 70.5736 418.164 72.2879 394.164C73.145 383.307 75.5733 346.734 75.5733 346.734L88.0022 331.307C102.859 312.879 102.146 311.879 99.5745 350.736ZM140.145 284.022C137.859 299.736 136.574 320.736 135.717 332.307C130.86 337.593 125.716 343.164 117.716 353.593C109.43 364.45 109.574 364.45 111.145 350.164C112.717 336.307 111.146 314.736 110.717 304.45L125.431 287.593C143.146 267.593 142.574 267.736 140.145 284.022ZM167.431 299.592C166.574 307.163 166.287 307.736 162.001 308.593C156.001 309.736 148.146 317.164 146.431 318.45C147.574 304.164 151.003 259.879 151.003 259.736C172.431 237.164 178.574 230.879 178.86 230.879C179.574 230.879 170.574 272.592 167.431 299.592ZM193.289 363.45C192.717 364.022 179.859 324.879 178.001 319.164C178.001 319.022 187.86 245.307 187.86 245.164C189.146 241.593 201.287 289.877 204.144 301.02C203.573 303.592 193.717 362.879 193.289 363.45ZM237.431 364.022C236.146 377.45 234.573 374.736 217.287 400.736C209.716 412.022 209.86 412.022 205.289 398.736C201.003 386.307 204.431 390.593 208.574 348.022C210.431 328.736 210.431 328.734 212.86 333.163C217.717 342.163 225.86 347.736 234.003 337.164C235.289 335.593 241.287 320.593 242.001 321.307C242.287 321.593 238.86 349.45 237.431 364.022ZM280.431 307.307C280.003 309.736 273.146 321.164 265.431 333.022C249.003 357.736 250.144 358.593 252.716 322.307L254.289 300.164L280.289 261.734C280.431 267.306 281.431 301.879 280.431 307.307ZM294.574 287.593C294.003 287.022 292.289 258.879 291.431 246.164L318.86 205.736C319.574 219.45 319.86 221.022 322.431 251.307C319.717 255.022 295.146 288.307 294.574 287.593ZM330.431 227.736C329.289 215.45 327.716 203.164 326.573 194.879C342.001 171.022 343.003 169.593 344.289 169.45C345.86 169.45 344.289 185.45 348.289 215.879C332.003 239.736 331.717 241.879 330.431 227.736ZM360.144 196.879C360.001 195.45 355.003 152.449 355.003 152.449L366.287 137.449C379.859 119.306 379.003 119.449 380.146 134.735C381.289 149.164 383.431 157.307 385.003 163.736C362.86 195.879 360.43 199.593 360.144 196.879ZM396.003 149.45C395.431 149.45 393.146 125.307 390.146 115.021C388.003 107.735 389.287 102.021 396.287 99.3069C401.859 97.164 400.431 88.1639 393.86 84.8782C387.289 81.5925 374.43 68.0213 372.287 65.8785C372.43 65.8785 399.574 60.5926 399.574 62.8783C399.574 66.3069 404.289 105.021 406.146 116.735L408.574 131.878C402.289 141.021 396.431 149.45 396.003 149.45ZM421.287 119.021C418.859 119.592 418.289 118.878 417.574 112.878C416.574 104.593 410.289 65.4493 409.431 62.4493C409.003 60.8779 410.574 60.0213 414.574 59.4499C425.574 57.7356 428.146 58.021 428.146 60.5925C428.146 63.4496 430.144 95.5927 432.716 120.878C431.43 120.45 425.001 118.021 421.287 119.021ZM445.86 126.735C445.146 111.878 444.289 89.5927 441.86 73.0213C439.003 53.7356 439.003 54.0209 443.574 53.3066C449.717 52.4494 450.146 52.7356 452.146 60.1642C454.86 70.4499 459.717 118.164 463.003 138.307L445.86 126.735Z" fill="black"/>
</svg>
