<svg width="500" height="500" viewBox="0 0 500 500" fill="none" xmlns="http://www.w3.org/2000/svg">
<path fill-rule="evenodd" clip-rule="evenodd" d="M18.0585 62.6571C7.05857 65.6571 5.34416 72.086 5.77273 107.229C6.05844 132.657 7.77258 148.085 10.6297 149.943C17.4868 154.228 29.6302 147.085 29.0588 136.229C28.3445 124.229 26.9157 98.3717 26.6299 88.6574C25.3442 62.8003 24.7728 60.8 18.0585 62.6571ZM14.3441 180.943C6.2013 189.085 11.2012 243.514 20.6297 247.8C32.7725 253.371 38.3442 241.657 34.4871 219.228C32.0585 205.371 31.0588 195.085 30.4874 186.943C29.9159 178.8 20.0584 175.228 14.3441 180.943ZM27.7725 285.657C19.7725 291.228 24.9154 321.228 39.9154 355.371C52.9154 384.943 70.9155 376.085 60.0584 345.371C54.7727 330.514 47.0587 306.8 43.2015 292.8C39.6301 280.943 36.4868 279.514 27.7725 285.657ZM360.63 302.514C356.201 304.228 356.487 308.657 361.773 329.943C364.201 339.514 365.63 347.8 364.916 348.228C363.63 349.371 323.201 363.085 314.916 365.371C307.487 367.228 309.201 387.8 320.059 386.085C328.63 384.8 354.487 376.228 363.63 371.514C372.059 367.228 370.916 366.371 375.201 381.085C380.344 398.8 381.344 400.943 385.344 402.514C395.487 406.371 407.773 401.943 415.344 391.8C431.916 369.8 449.201 354.514 483.344 331.8C502.63 318.943 499.344 316.8 460.344 316.8C426.201 316.8 404.201 313.943 383.773 306.657C367.201 300.657 365.63 300.371 360.63 302.514ZM267.344 389.514C265.344 390.085 255.344 392.943 245.201 395.8C182.773 413.085 190.916 428.228 220.059 422.371C262.059 413.943 278.773 406.228 278.773 395.085C278.773 389.228 274.63 387.228 267.344 389.514ZM76.7729 402.8C66.4872 417.371 99.6302 435.657 140.487 437.8C180.63 439.943 184.058 417.657 152.487 416.371C129.773 415.371 116.058 412.657 97.7725 405.228C81.2011 398.657 79.7729 398.514 76.7729 402.8Z" fill="black"/>
</svg>
