<svg width="500" height="500" viewBox="0 0 500 500" fill="none" xmlns="http://www.w3.org/2000/svg">
<path fill-rule="evenodd" clip-rule="evenodd" d="M86.2507 170.094C86.0007 297.343 155.751 349.343 303.75 332.343C327 329.593 327 329.343 308.5 342.343C287.5 357.093 242.5 400.843 244.75 404.593C251 414.593 270.5 405.345 299.25 379.095C326.5 354.095 359 332.093 381.5 323.593C420.25 308.843 424 295.593 391 290.593C364.75 286.593 347.5 278.595 306 250.345C272.25 227.344 264.75 225.343 248.751 233.593C227.001 244.843 239.25 259.843 299 295.093C318.25 306.343 316.25 307.593 275.25 307.593C162 307.593 108.75 231.593 131.75 103.593C135.5 83.3433 86.5007 77.5936 86.2507 170.094Z" fill="black"/>
</svg>
