<svg width="500" height="500" viewBox="0 0 500 500" fill="none" xmlns="http://www.w3.org/2000/svg">
<path fill-rule="evenodd" clip-rule="evenodd" d="M80.7144 212.264C73.4644 225.264 22.3389 269.515 14.5889 269.515C8.08895 269.515 7.96469 285.515 43.4646 283.14C72.9646 281.14 87.4649 282.64 119.34 290.765C135.84 295.015 143.339 293.14 136.089 286.765C130.464 281.89 105.839 274.265 85.8389 271.265C74.8389 269.64 76.7146 268.64 100.34 262.765C157.09 248.89 201.339 250.14 287.089 268.265C388.464 289.765 452.964 284.764 484.839 252.889C498.589 239.139 478.089 233.265 459.589 245.765C420.339 272.265 378.089 274.265 278.339 254.515C185.839 236.14 144.714 234.515 92.3391 247.015C83.8391 249.015 76.5899 250.765 76.2149 250.765C75.9649 250.765 79.8399 246.639 84.9649 241.639C100.34 226.514 103.59 215.89 94.7146 209.89C87.9646 205.265 84.2144 205.889 80.7144 212.264Z" fill="black"/>
</svg>
