<svg width="500" height="500" viewBox="0 0 500 500" fill="none" xmlns="http://www.w3.org/2000/svg">
<path d="M174.61 303.2C131.61 329.4 109.01 362.2 136.81 358.4C151.21 356.4 200.61 316.2 200.61 306.6C200.61 298.2 185.81 296.4 174.61 303.2Z" fill="black"/>
<path d="M469.01 59.4004C477.41 53.4004 470.81 47 456.21 47C436.61 47.2 413.81 72.4008 342.61 87.8008C309.21 95.0008 307.81 95.4004 307.01 99.4004C304.81 110.4 354.01 107.201 393.61 93.8008C396.21 93.0008 356.21 131.2 347.41 141.4C337.41 153 334.41 159.8 337.81 162.2C348.21 169.8 363.01 163.2 385.41 141.2C395.21 131.6 402.61 125.2 402.21 127C386.81 172 387.01 182.801 403.41 182.801C415.21 182.801 422.21 172.401 433.81 136.801C442.61 109.801 463.81 63.2004 469.01 59.4004Z" fill="black"/>
<path d="M89.6102 384.8C70.8102 396.2 26.2106 441.4 27.0106 447.8C29.8106 467.8 96.6104 424 113.81 390.6C118.61 381.2 102.01 377 89.6102 384.8Z" fill="black"/>
<path d="M285.01 200.6C269.81 209.8 226.61 246.4 226.61 250C226.61 257.6 246.21 260.602 257.21 254.802C264.01 251.202 312.21 207.6 314.81 202.6C321.01 191.001 302.81 189.601 285.01 200.6Z" fill="black"/>
</svg>
