<svg width="24" height="24" viewBox="0 0 24 24" fill="none" xmlns="http://www.w3.org/2000/svg">
<g clip-path="url(#clip0_2068_399)">
<path d="M22.3258 21.6467C22.8987 21.0738 23.3407 20.381 23.6264 19.6081C23.9121 18.8351 24.036 17.9971 23.991 17.1418C23.946 16.2865 23.7329 15.4308 23.364 14.6234C22.9951 13.8159 22.4776 13.0727 21.841 12.4361C21.2044 11.7995 20.4612 11.282 19.6537 10.9131C18.8463 10.5442 17.9905 10.3312 17.1352 10.2862C16.2799 10.2412 15.4419 10.365 14.6689 10.6508C13.896 10.9365 13.2032 11.3784 12.6303 11.9514L22.3258 21.6467Z" fill="black"/>
<path d="M1.67423 2.35278C1.10128 2.92572 0.659325 3.61845 0.373606 4.3914C0.087888 5.16435 -0.0360004 6.00239 0.00901465 6.85767C0.0540297 7.71295 0.267067 8.56873 0.635962 9.37613C1.00486 10.1835 1.52239 10.9268 2.159 11.5634C2.79562 12.2 3.53885 12.7175 4.34626 13.0864C5.15368 13.4553 6.00946 13.6683 6.86476 13.7133C7.72005 13.7583 8.5581 13.6344 9.33107 13.3487C10.104 13.063 10.7968 12.6211 11.3697 12.0481L1.67423 2.35278Z" fill="black"/>
<path d="M2.35292 22.3254C2.92587 22.8983 3.61861 23.3403 4.39157 23.626C5.16453 23.9117 6.00258 24.0356 6.85788 23.9906C7.71317 23.9456 8.56895 23.7325 9.37637 23.3636C10.1838 22.9948 10.927 22.4772 11.5636 21.8406C12.2002 21.204 12.7178 20.4608 13.0867 19.6534C13.4556 18.846 13.6686 17.9902 13.7136 17.1349C13.7586 16.2797 13.6348 15.4416 13.349 14.6687C13.0633 13.8957 12.6214 13.203 12.0484 12.63L2.35292 22.3254Z" fill="black"/>
<path d="M21.6468 1.6742C21.0739 1.10126 20.3812 0.659313 19.6082 0.373599C18.8352 0.0878857 17.9972 -0.0360003 17.1419 0.00901477C16.2866 0.0540298 15.4308 0.267064 14.6234 0.635955C13.816 1.00485 13.0727 1.52237 12.4361 2.15897C11.7995 2.79558 11.282 3.5388 10.9131 4.34621C10.5442 5.15361 10.3312 6.00938 10.2861 6.86466C10.2411 7.71994 10.365 8.55799 10.6507 9.33094C10.9364 10.1039 11.3784 10.7966 11.9513 11.3696L21.6468 1.6742Z" fill="black"/>
</g>
<defs>
<clipPath id="clip0_2068_399">
<rect width="24" height="24" fill="white"/>
</clipPath>
</defs>
</svg>
