<svg width="24" height="24" viewBox="0 0 24 24" fill="none" xmlns="http://www.w3.org/2000/svg">
<g clip-path="url(#clip0_2062_3096)">
<path d="M11.4392 0L1.22839 6V18L11.4388 24L15.2674 21.75V17.25L11.4388 19.5L5.05776 15.75V8.25L11.4388 4.5L17.8199 8.25V23.25L21.6489 21V6L11.4392 0Z" fill="#DC244C"/>
<path d="M7.6106 9.75V14.25L11.4392 16.5L15.2679 14.25V9.75L11.4392 7.5L7.6106 9.75Z" fill="#DC244C"/>
<path d="M15.2678 17.25V21.75L11.4392 24V19.5L15.2678 17.25ZM21.6493 6V21L17.8203 23.25V8.25L21.6493 6Z" fill="#BD0C3E"/>
<path d="M21.6492 6L17.8202 8.25L11.4392 4.5L5.05813 8.25L1.22839 6L11.4392 0L21.6492 6Z" fill="#FF516B"/>
<path d="M11.4392 19.5V24L1.22839 18V6L5.05776 8.25V15.75L11.4392 19.5Z" fill="#DC244C"/>
<path d="M15.2679 9.75L11.4392 12L7.6106 9.75L11.4392 7.5L15.2679 9.75Z" fill="#FF516B"/>
<path d="M11.4392 12V16.5L7.6106 14.25V9.75L11.4392 12Z" fill="#DC244C"/>
<path d="M15.2678 9.75V14.25L11.4392 16.5V12L15.2678 9.75Z" fill="#BD0C3E"/>
</g>
<defs>
<clipPath id="clip0_2062_3096">
<rect width="21" height="24" fill="white" transform="translate(1)"/>
</clipPath>
</defs>
</svg>
