<svg width="24" height="24" viewBox="0 0 24 24" fill="none" xmlns="http://www.w3.org/2000/svg"><g clip-path="url(#clip0_2062_2081)"><path d="M21.47 20.829L18.589 17.948C18.4985 17.8578 18.3804 17.8005 18.2535 17.7853C18.1266 17.7701 17.9983 17.7978 17.889 17.864C16.8205 18.5086 15.5964 18.8492 14.3485 18.8492C13.1006 18.8492 11.8765 18.5086 10.808 17.864C10.6985 17.7985 10.5703 17.7712 10.4436 17.7864C10.317 17.8016 10.1989 17.8584 10.108 17.948L7.227 20.829C7.13672 20.9169 7.07776 21.032 7.05915 21.1566C7.04055 21.2812 7.06333 21.4085 7.124 21.519C7.16493 21.5925 7.22162 21.656 7.29 21.705C9.34075 23.1959 11.811 23.999 14.3465 23.999C16.882 23.999 19.3522 23.1959 21.403 21.705C21.4711 21.6559 21.5277 21.5927 21.5689 21.5197C21.6102 21.4467 21.6351 21.3656 21.642 21.282C21.648 21.1985 21.6357 21.1147 21.606 21.0365C21.5762 20.9583 21.5299 20.8874 21.47 20.829ZM21.472 3.16097L18.592 6.04097C18.5017 6.13185 18.3833 6.18959 18.2561 6.20484C18.1289 6.22008 18.0002 6.19194 17.891 6.12497C16.4002 5.22651 14.6236 4.9286 12.9213 5.29163C11.219 5.65467 9.7185 6.65149 8.724 8.07997C7.96916 9.16704 7.54478 10.4492 7.502 11.772C7.45809 13.0947 7.79774 14.4019 8.48 15.536C8.5459 15.6451 8.57352 15.7731 8.55849 15.8997C8.54345 16.0263 8.48663 16.1443 8.397 16.235L5.516 19.115C5.45833 19.1739 5.38849 19.2196 5.31136 19.2488C5.23422 19.278 5.15164 19.29 5.06937 19.284C4.98711 19.278 4.90715 19.2542 4.83506 19.2141C4.76297 19.174 4.7005 19.1187 4.652 19.052C2.84749 16.5722 2.06151 13.4954 2.45563 10.4541C2.84975 7.41267 4.39403 4.63784 6.771 2.69997C8.82329 1.02502 11.3725 0.0768825 14.0205 0.00361315C16.6685 -0.0696562 19.2662 0.736072 21.408 2.29497C21.4748 2.3435 21.5302 2.40606 21.5703 2.47827C21.6104 2.55048 21.6342 2.63059 21.64 2.71297C21.6461 2.79536 21.6343 2.87809 21.6053 2.95545C21.5763 3.0328 21.5308 3.10293 21.472 3.16097ZM14.354 15.422C14.804 15.422 15.2497 15.3333 15.6655 15.1611C16.0812 14.9889 16.459 14.7364 16.7773 14.4182C17.0955 14.1 17.3479 13.7222 17.5201 13.3064C17.6924 12.8906 17.781 12.445 17.781 11.995C17.781 11.5449 17.6924 11.0993 17.5201 10.6835C17.3479 10.2677 17.0955 9.88994 16.7773 9.57171C16.459 9.25349 16.0812 9.00106 15.6655 8.82883C15.2497 8.65661 14.804 8.56797 14.354 8.56797C13.4451 8.56797 12.5734 8.92903 11.9307 9.57171C11.2881 10.2144 10.927 11.0861 10.927 11.995C10.927 12.9039 11.2881 13.7755 11.9307 14.4182C12.5734 15.0609 13.4451 15.422 14.354 15.422Z" fill="#111"/></g><defs><clipPath id="clip0_2062_2081"><path fill="#fff" d="M0 0H24V24H0z"/></clipPath></defs></svg>