<svg width="24" height="24" viewBox="0 0 24 24" fill="none" xmlns="http://www.w3.org/2000/svg">
<path d="M17.02 21.2899L13.54 19.5499C12.57 19.0699 11.44 19.0699 10.47 19.5499L6.99003 21.2899C4.00003 22.7799 0.850035 19.5699 2.41003 16.6199L3.23003 15.0799C3.34003 14.8699 3.52003 14.6999 3.74003 14.5999L16.38 8.89993C16.9 8.66993 17.51 8.87993 17.77 9.37993L21.58 16.6199C23.14 19.5699 20 22.7799 17.02 21.2899Z" fill="#292D32"/>
<path d="M15.6 7.69002L7.31996 11.42C6.38996 11.84 5.44996 10.84 5.92996 9.94002L8.96996 4.17002C10.26 1.72002 13.76 1.72002 15.05 4.17002L16.12 6.21002C16.4 6.76002 16.16 7.44002 15.6 7.69002Z" fill="#292D32"/>
</svg>
