<svg width="24" height="24" viewBox="0 0 24 24" fill="none" xmlns="http://www.w3.org/2000/svg">
<path d="M22.65 18.13C22.55 17.73 22.15 17.48 21.75 17.58C21.35 17.68 21.1 18.08 21.19 18.48C21.23 18.65 21.25 18.82 21.25 19C21.25 20.24 20.24 21.25 19 21.25C17.76 21.25 16.75 20.24 16.75 19C16.75 17.9 17.54 16.99 18.59 16.79C18.49 17.02 18.5 17.3 18.66 17.52C18.81 17.72 19.04 17.83 19.27 17.83C19.42 17.83 19.58 17.78 19.71 17.69L20.88 16.84C20.89 16.83 20.89 16.82 20.9 16.82C20.91 16.81 20.92 16.81 20.93 16.8C20.96 16.77 20.98 16.74 21 16.7C21.03 16.66 21.07 16.63 21.09 16.58C21.11 16.54 21.12 16.49 21.14 16.45C21.15 16.4 21.17 16.36 21.18 16.31C21.19 16.26 21.18 16.22 21.17 16.17C21.17 16.12 21.17 16.07 21.15 16.02C21.14 15.97 21.11 15.93 21.09 15.89C21.07 15.85 21.06 15.81 21.04 15.78C21.03 15.77 21.02 15.77 21.01 15.76C21 15.76 21 15.75 21 15.74L20 14.59C19.73 14.28 19.25 14.24 18.94 14.52C18.72 14.72 18.64 15.01 18.72 15.28C16.79 15.43 15.26 17.03 15.26 19C15.26 21.07 16.94 22.75 19.01 22.75C21.08 22.75 22.76 21.07 22.76 19C22.75 18.71 22.72 18.41 22.65 18.13Z" fill="#292D32"/>
<path d="M2.03001 14.6299C2.03001 14.6599 2.01001 14.6999 2.01001 14.7299C2.93001 16.5699 4.43001 18.0799 6.27001 18.9899C6.30001 18.9899 6.34001 18.9699 6.37001 18.9699C6.03001 17.8099 5.77001 16.6199 5.58001 15.4299C4.38001 15.2299 3.19001 14.9699 2.03001 14.6299Z" fill="#292D32"/>
<path d="M19.07 6.42994C18.13 4.45994 16.54 2.86994 14.58 1.93994C14.94 3.12994 15.24 4.34994 15.44 5.56994C16.66 5.76994 17.88 6.05994 19.07 6.42994Z" fill="#292D32"/>
<path d="M1.93005 6.43002C3.13005 6.07002 4.35005 5.77002 5.57005 5.57002C5.77005 4.38002 6.02005 3.20002 6.36005 2.04002C6.33005 2.04002 6.29005 2.02002 6.26005 2.02002C4.38005 2.95002 2.85005 4.52002 1.93005 6.43002Z" fill="#292D32"/>
<path d="M13.8201 5.36C13.5801 4.06 13.2801 2.76 12.8501 1.5C12.8301 1.43 12.8301 1.37 12.8201 1.29C12.0801 1.11 11.3001 1 10.5001 1C9.69005 1 8.92005 1.11 8.17005 1.3C8.16005 1.37 8.17005 1.43 8.15005 1.51C7.73005 2.77 7.42005 4.06 7.18005 5.36C9.39005 5.12 11.6101 5.12 13.8201 5.36Z" fill="#292D32"/>
<path d="M5.36 7.17993C4.05 7.41993 2.77 7.72993 1.5 8.14993C1.43 8.16993 1.37 8.16993 1.3 8.17993C1.11 8.91993 1 9.69993 1 10.4999C1 11.3099 1.11 12.0799 1.3 12.8299C1.37 12.8399 1.43 12.8299 1.51 12.8499C2.77 13.2699 4.06 13.5799 5.37 13.8199C5.12 11.6099 5.12 9.38993 5.36 7.17993Z" fill="#292D32"/>
<path d="M19.7 8.17993C19.63 8.17993 19.57 8.16993 19.49 8.14993C18.23 7.72993 16.93 7.41993 15.63 7.17993C15.88 9.38993 15.88 11.6099 15.63 13.8099C16.93 13.5699 18.23 13.2699 19.49 12.8399C19.56 12.8199 19.62 12.8299 19.7 12.8199C19.88 12.0699 20 11.2999 20 10.4899C20 9.69993 19.89 8.92993 19.7 8.17993Z" fill="#292D32"/>
<path d="M7.18005 15.6399C7.42005 16.9499 7.72005 18.2399 8.15005 19.4999C8.17005 19.5699 8.16005 19.6299 8.17005 19.7099C8.92005 19.8899 9.69005 19.9999 10.5001 19.9999C11.3001 19.9999 12.0801 19.8899 12.8201 19.6999C12.8301 19.6299 12.8301 19.5699 12.8501 19.4899C13.2701 18.2299 13.5801 16.9399 13.8201 15.6299C12.7201 15.7499 11.6101 15.8399 10.5001 15.8399C9.39005 15.8399 8.28005 15.7599 7.18005 15.6399Z" fill="#292D32"/>
<path d="M6.94998 6.9501C6.64998 9.3101 6.64998 11.6901 6.94998 14.0601C9.30998 14.3601 11.69 14.3601 14.06 14.0601C14.36 11.7001 14.36 9.3201 14.06 6.9501C11.69 6.6501 9.30998 6.6501 6.94998 6.9501Z" fill="#292D32"/>
</svg>
