<svg width="24" height="24" viewBox="0 0 24 24" fill="none" xmlns="http://www.w3.org/2000/svg">
<g clip-path="url(#clip0_2066_1139)">
<path fill-rule="evenodd" clip-rule="evenodd" d="M1.87826 9.78068C1.83188 9.78068 1.82028 9.75761 1.84347 9.72299L2.08695 9.41145C2.11014 9.37684 2.16811 9.35376 2.21449 9.35376H6.35362C6.39999 9.35376 6.41159 9.38838 6.3884 9.42299L6.1913 9.72299C6.16811 9.75761 6.11014 9.79222 6.07536 9.79222L1.87826 9.78068Z" fill="currentColor"/>
<path fill-rule="evenodd" clip-rule="evenodd" d="M0.127523 10.8423C0.0811462 10.8423 0.069552 10.8193 0.0927404 10.7846L0.336219 10.4731C0.359407 10.4385 0.417378 10.4154 0.463755 10.4154H5.75071C5.79709 10.4154 5.82028 10.45 5.80868 10.4846L5.71593 10.7616C5.70433 10.8077 5.65796 10.8308 5.61158 10.8308L0.127523 10.8423Z" fill="currentColor"/>
<path fill-rule="evenodd" clip-rule="evenodd" d="M2.93331 11.9039C2.88693 11.9039 2.87534 11.8692 2.89853 11.8346L3.06085 11.5462C3.08403 11.5115 3.13041 11.4769 3.17679 11.4769H5.49563C5.542 11.4769 5.56519 11.5115 5.56519 11.5577L5.542 11.8346C5.542 11.8808 5.49563 11.9154 5.46085 11.9154L2.93331 11.9039Z" fill="currentColor"/>
<path fill-rule="evenodd" clip-rule="evenodd" d="M14.9681 9.57305C14.2377 9.75766 13.7391 9.89612 13.0203 10.0807C12.8463 10.1269 12.8348 10.1384 12.684 9.96535C12.5101 9.7692 12.3826 9.64228 12.1391 9.52689C11.4087 9.1692 10.7014 9.27305 10.0406 9.69997C9.25215 10.2077 8.84635 10.9577 8.85794 11.8923C8.86954 12.8154 9.50722 13.5769 10.4232 13.7038C11.2116 13.8077 11.8724 13.5307 12.3942 12.9423C12.4985 12.8154 12.5913 12.6769 12.7072 12.5154C12.2898 12.5154 11.7681 12.5154 10.4695 12.5154C10.2261 12.5154 10.1681 12.3654 10.2492 12.1692C10.4 11.8115 10.6782 11.2115 10.8406 10.9115C10.8753 10.8423 10.9565 10.7269 11.1304 10.7269H15.3507C15.3275 11.0384 15.3275 11.35 15.2811 11.6615C15.1536 12.4923 14.8406 13.2538 14.3304 13.923C13.4956 15.0192 12.4058 15.7 11.0261 15.8846C9.88983 16.0346 8.83475 15.8154 7.90722 15.123C7.04925 14.4769 6.56229 13.623 6.43475 12.5615C6.28403 11.3038 6.65504 10.173 7.42026 9.18074C8.24345 8.10766 9.33331 7.42689 10.6666 7.18458C11.7565 6.98843 12.8 7.11535 13.7391 7.74997C14.3536 8.15381 14.7942 8.70766 15.084 9.37689C15.1536 9.48074 15.1072 9.53843 14.9681 9.57305Z" fill="currentColor"/>
<path d="M18.8058 15.9538C17.7507 15.9307 16.7884 15.6307 15.9768 14.9384C15.2927 14.3499 14.8638 13.5999 14.7246 12.7115C14.5159 11.4076 14.8753 10.2538 15.6637 9.22686C16.5101 8.11917 17.5304 7.54224 18.9101 7.29994C20.0927 7.09224 21.2058 7.20763 22.2145 7.8884C23.1304 8.51147 23.6985 9.35378 23.8493 10.4615C24.0464 12.0192 23.5942 13.2884 22.5159 14.373C21.7507 15.1461 20.8116 15.6307 19.7333 15.8499C19.4203 15.9076 19.1072 15.9192 18.8058 15.9538ZM21.5652 11.2922C21.5536 11.1422 21.5536 11.0269 21.5304 10.9115C21.3217 9.76917 20.2666 9.12301 19.1652 9.37686C18.0869 9.61917 17.3913 10.2999 17.1362 11.3846C16.9275 12.2846 17.3681 13.1961 18.2029 13.5653C18.8406 13.8422 19.4782 13.8076 20.0927 13.4961C21.0087 13.023 21.5072 12.2846 21.5652 11.2922Z" fill="currentColor"/>
</g>
<defs>
<clipPath id="clip0_2066_1139">
<rect width="24" height="9" fill="currentColor" transform="translate(0 7)"/>
</clipPath>
</defs>
</svg>
