<svg width="24" height="24" viewBox="0 0 24 24" fill="none" xmlns="http://www.w3.org/2000/svg">
<path fill-rule="evenodd" clip-rule="evenodd" d="M12 1.65674L20.9575 6.82836V17.1716L12 22.3432L3.04248 17.1716V6.82836L12 1.65674ZM4.04753 7.40863V15.006L10.6271 3.60994L4.04753 7.40863ZM12 3.24206L4.4154 16.379H19.5846L12 3.24206ZM18.5796 17.384H5.42045L12 21.1827L18.5796 17.384ZM19.9525 15.006L13.3729 3.60994L19.9525 7.40863V15.006Z" fill="#E10098"/>
<path d="M12 4.35384C13.1691 4.35384 14.1168 3.40612 14.1168 2.23704C14.1168 1.06796 13.1691 0.120239 12 0.120239C10.8309 0.120239 9.88321 1.06796 9.88321 2.23704C9.88321 3.40612 10.8309 4.35384 12 4.35384Z" fill="#E10098"/>
<path d="M20.455 9.23531C21.6241 9.23531 22.5718 8.28759 22.5718 7.11851C22.5718 5.94943 21.6241 5.00171 20.455 5.00171C19.2859 5.00171 18.3382 5.94943 18.3382 7.11851C18.3382 8.28759 19.2859 9.23531 20.455 9.23531Z" fill="#E10098"/>
<path d="M20.455 18.9982C21.6241 18.9982 22.5718 18.0505 22.5718 16.8814C22.5718 15.7124 21.6241 14.7646 20.455 14.7646C19.2859 14.7646 18.3382 15.7124 18.3382 16.8814C18.3382 18.0505 19.2859 18.9982 20.455 18.9982Z" fill="#E10098"/>
<path d="M12 23.8798C13.1691 23.8798 14.1168 22.9321 14.1168 21.763C14.1168 20.594 13.1691 19.6462 12 19.6462C10.8309 19.6462 9.88321 20.594 9.88321 21.763C9.88321 22.9321 10.8309 23.8798 12 23.8798Z" fill="#E10098"/>
<path d="M3.5438 18.9982C4.71288 18.9982 5.6606 18.0505 5.6606 16.8814C5.6606 15.7124 4.71288 14.7646 3.5438 14.7646C2.37473 14.7646 1.427 15.7124 1.427 16.8814C1.427 18.0505 2.37473 18.9982 3.5438 18.9982Z" fill="#E10098"/>
<path d="M3.5438 9.23531C4.71288 9.23531 5.6606 8.28759 5.6606 7.11851C5.6606 5.94943 4.71288 5.00171 3.5438 5.00171C2.37473 5.00171 1.427 5.94943 1.427 7.11851C1.427 8.28759 2.37473 9.23531 3.5438 9.23531Z" fill="#E10098"/>
</svg>
