<svg width="24" height="24" viewBox="0 0 24 24" fill="none" xmlns="http://www.w3.org/2000/svg">
<g clip-path="url(#clip0_2066_1143)">
<path d="M21.1742 12.0025C21.1742 6.93891 17.0636 2.82825 12 2.82825C6.93643 2.82825 2.82577 6.93891 2.82577 12.0025C2.82577 17.0661 6.93643 21.1767 12 21.1767C17.0636 21.1767 21.1742 17.0661 21.1742 12.0025Z" fill="#000080"/>
<path d="M18.4879 8.20103C18.4879 6.71845 17.2841 5.51465 15.8015 5.51465C14.3189 5.51465 13.1151 6.71845 13.1151 8.20103C13.1151 9.6836 14.3189 10.8874 15.8015 10.8874C17.2841 10.8874 18.4879 9.6836 18.4879 8.20103Z" fill="white"/>
<path d="M23.8606 2.82578C23.8606 1.34321 22.6568 0.139404 21.1742 0.139404C19.6917 0.139404 18.4879 1.34321 18.4879 2.82578C18.4879 4.30836 19.6917 5.51216 21.1742 5.51216C22.6568 5.51216 23.8606 4.31089 23.8606 2.82578Z" fill="#000080"/>
<path d="M6.54108 15.9105H9.51383V16.5871H5.77318V10.5681H6.54108V15.9105Z" fill="white"/>
<path d="M13.0644 16.5871V15.9839C12.6589 16.5541 12.256 16.7771 11.6198 16.7771C10.7785 16.7771 10.2412 16.3159 10.2412 15.5962V12.261H10.9254V15.325C10.9254 15.8445 11.2726 16.1765 11.8175 16.1765C12.5347 16.1765 12.9985 15.5987 12.9985 14.7142V12.261H13.6828V16.5871H13.0644Z" fill="white"/>
<path d="M18.7134 16.7037C18.4904 16.762 18.3839 16.7772 18.242 16.7772C17.796 16.7772 17.5806 16.5795 17.5324 16.1411C17.0458 16.5871 16.6074 16.7772 16.0625 16.7772C15.1882 16.7772 14.6433 16.283 14.6433 15.4973C14.6433 14.9347 14.8993 14.547 15.4036 14.3417C15.6672 14.2353 15.8167 14.2023 16.7899 14.0781C17.3347 14.0122 17.5071 13.8881 17.5071 13.5991V13.4167C17.5071 13.0036 17.1599 12.773 16.5415 12.773C15.8978 12.773 15.5835 13.0112 15.5252 13.5409H14.8308C14.8486 13.1126 14.9297 12.8642 15.1274 12.6412C15.4163 12.3193 15.9358 12.1368 16.5643 12.1368C17.6287 12.1368 18.1913 12.5499 18.1913 13.3178V15.8623C18.1913 16.0777 18.3231 16.2019 18.5639 16.2019C18.6044 16.2019 18.6374 16.2019 18.7134 16.1841V16.7037ZM17.5071 14.4481C17.2765 14.5546 17.1269 14.5875 16.3996 14.6864C15.6646 14.7928 15.358 15.026 15.358 15.4796C15.358 15.918 15.6722 16.174 16.2095 16.174C16.615 16.174 16.9521 16.0422 17.2334 15.7863C17.4386 15.5962 17.5071 15.4568 17.5071 15.2236V14.4481Z" fill="white"/>
<path d="M22.5706 6.61456C23.4196 8.28214 23.8631 10.1271 23.8631 12C23.8631 18.5487 18.5487 23.8631 12 23.8631C5.45132 23.8631 0.136856 18.5487 0.136856 12C0.136856 5.45131 5.45132 0.136841 12 0.136841C14.106 0.136841 16.1715 0.696925 17.9861 1.75627" stroke="#808080" stroke-width="10.8612" stroke-miterlimit="10" stroke-dasharray="40.85 40.85"/>
</g>
<defs>
<clipPath id="clip0_2066_1143">
<rect width="24" height="24" fill="white"/>
</clipPath>
</defs>
</svg>
